<svg width="401" height="256" viewBox="0 0 401 256" fill="none" xmlns="http://www.w3.org/2000/svg">
<path d="M2 4.57143C2 2.0467 4.0467 0 6.57143 0H396.429C398.953 0 401 2.0467 401 4.57143V24H2V4.57143Z" fill="#FB2C36" fill-opacity="0.5"/>
<circle cx="16.5714" cy="12.0001" r="4.57143" fill="white"/>
<circle cx="386.429" cy="12.0001" r="4.57143" fill="white"/>
<g clip-path="url(#clip0_3672_5406)">
<mask id="path-5-inside-1_3672_5406" fill="white">
<path d="M2 24H401V248C401 250.525 398.953 252.571 396.429 252.571H6.57145C4.04672 252.571 2 250.525 2 248V24Z"/>
</mask>
<rect x="3" y="25" width="55" height="226.571" stroke="#2B7FFF" stroke-width="2"/>
<mask id="path-8-inside-2_3672_5406" fill="white">
<path d="M2 24H59V81.1429H2V24Z"/>
</mask>
<path d="M2 24H59V81.1429H2V24Z" fill="#EFF6FF"/>
<path d="M59 81.1429V81.7143H59.5714V81.1429H59ZM59 24H58.4286V81.1429H59H59.5714V24H59ZM59 81.1429V80.5714H2V81.1429V81.7143H59V81.1429Z" fill="#E5E7EB" mask="url(#path-8-inside-2_3672_5406)"/>
<path d="M45.8988 41V40.24H47.1948V36.144H46.1388V35.56C46.4161 35.512 46.6561 35.4507 46.8588 35.376C47.0668 35.3013 47.2561 35.2107 47.4268 35.104H48.1228V40.24H49.2668V41H45.8988Z" fill="#99A1AF"/>
<mask id="path-11-inside-3_3672_5406" fill="white">
<path d="M2 81.1431H59V138.286H2V81.1431Z"/>
</mask>
<path d="M2 81.1431H59V138.286H2V81.1431Z" fill="#EFF6FF"/>
<path d="M59 138.286V138.857H59.5714V138.286H59ZM59 81.1431H58.4286V138.286H59H59.5714V81.1431H59ZM59 138.286V137.714H2V138.286V138.857H59V138.286Z" fill="#E5E7EB" mask="url(#path-11-inside-3_3672_5406)"/>
<path d="M47.3642 98.3981C46.9962 98.3981 46.6682 98.3315 46.3802 98.1981C46.0922 98.0595 45.8628 97.8728 45.6922 97.6381C45.5268 97.3981 45.4442 97.1261 45.4442 96.8221C45.4442 96.5608 45.4948 96.3288 45.5962 96.1261C45.6975 95.9235 45.8282 95.7501 45.9882 95.6061C46.1482 95.4568 46.3162 95.3341 46.4922 95.2381V95.1981C46.2788 95.0435 46.0948 94.8541 45.9402 94.6301C45.7855 94.4008 45.7082 94.1315 45.7082 93.8221C45.7082 93.5181 45.7802 93.2515 45.9242 93.0221C46.0735 92.7928 46.2735 92.6168 46.5242 92.4941C46.7802 92.3661 47.0708 92.3021 47.3962 92.3021C47.7375 92.3021 48.0308 92.3688 48.2762 92.5021C48.5215 92.6355 48.7108 92.8195 48.8442 93.0541C48.9828 93.2835 49.0522 93.5528 49.0522 93.8621C49.0522 94.0595 49.0122 94.2461 48.9322 94.4221C48.8522 94.5981 48.7535 94.7581 48.6362 94.9021C48.5242 95.0408 48.4042 95.1555 48.2762 95.2461V95.2861C48.4575 95.3821 48.6228 95.5021 48.7722 95.6461C48.9215 95.7848 49.0415 95.9528 49.1322 96.1501C49.2228 96.3475 49.2682 96.5795 49.2682 96.8461C49.2682 97.1341 49.1882 97.3955 49.0282 97.6301C48.8735 97.8648 48.6522 98.0515 48.3642 98.1901C48.0815 98.3288 47.7482 98.3981 47.3642 98.3981ZM47.7562 95.0141C47.9268 94.8488 48.0548 94.6755 48.1402 94.4941C48.2308 94.3075 48.2762 94.1128 48.2762 93.9101C48.2762 93.7341 48.2415 93.5741 48.1722 93.4301C48.1028 93.2861 47.9988 93.1741 47.8602 93.0941C47.7268 93.0088 47.5642 92.9661 47.3722 92.9661C47.1322 92.9661 46.9322 93.0435 46.7722 93.1981C46.6122 93.3475 46.5322 93.5555 46.5322 93.8221C46.5322 94.0355 46.5882 94.2141 46.7002 94.3581C46.8122 94.5021 46.9615 94.6248 47.1482 94.7261C47.3348 94.8275 47.5375 94.9235 47.7562 95.0141ZM47.3882 97.7261C47.5855 97.7261 47.7588 97.6888 47.9082 97.6141C48.0628 97.5395 48.1828 97.4355 48.2682 97.3021C48.3535 97.1635 48.3962 97.0008 48.3962 96.8141C48.3962 96.6381 48.3588 96.4861 48.2842 96.3581C48.2095 96.2248 48.1055 96.1101 47.9722 96.0141C47.8442 95.9181 47.6922 95.8301 47.5162 95.7501C47.3402 95.6648 47.1508 95.5821 46.9482 95.5021C46.7455 95.6461 46.5802 95.8248 46.4522 96.0381C46.3242 96.2461 46.2602 96.4755 46.2602 96.7261C46.2602 96.9235 46.3082 97.0968 46.4042 97.2461C46.5055 97.3955 46.6415 97.5128 46.8122 97.5981C46.9828 97.6835 47.1748 97.7261 47.3882 97.7261Z" fill="#99A1AF"/>
<mask id="path-14-inside-4_3672_5406" fill="white">
<path d="M2 138.286H59V195.429H2V138.286Z"/>
</mask>
<path d="M2 138.286H59V195.429H2V138.286Z" fill="#EFF6FF"/>
<path d="M59 195.429V196H59.5714V195.429H59ZM59 138.286H58.4286V195.429H59H59.5714V138.286H59ZM59 195.429V194.857H2V195.429V196H59V195.429Z" fill="#E5E7EB" mask="url(#path-14-inside-4_3672_5406)"/>
<path d="M40.8149 155.429V154.669H42.1109V150.573H41.0549V149.989C41.3323 149.941 41.5723 149.879 41.7749 149.805C41.9829 149.73 42.1723 149.639 42.3429 149.533H43.0389V154.669H44.1829V155.429H40.8149ZM47.1614 155.541C46.8574 155.541 46.5854 155.503 46.3454 155.429C46.1054 155.354 45.8948 155.255 45.7134 155.133C45.5321 155.01 45.3721 154.882 45.2334 154.749L45.6734 154.149C45.7854 154.261 45.9081 154.365 46.0414 154.461C46.1748 154.551 46.3241 154.626 46.4894 154.685C46.6601 154.743 46.8494 154.773 47.0574 154.773C47.2761 154.773 47.4734 154.725 47.6494 154.629C47.8254 154.527 47.9641 154.383 48.0654 154.197C48.1668 154.005 48.2174 153.778 48.2174 153.517C48.2174 153.133 48.1134 152.834 47.9054 152.621C47.7028 152.407 47.4334 152.301 47.0974 152.301C46.9108 152.301 46.7508 152.327 46.6174 152.381C46.4841 152.434 46.3321 152.517 46.1614 152.629L45.7054 152.333L45.8814 149.533H48.8654V150.317H46.6814L46.5454 151.821C46.6734 151.757 46.8014 151.709 46.9294 151.677C47.0574 151.639 47.1988 151.621 47.3534 151.621C47.6841 151.621 47.9854 151.687 48.2574 151.821C48.5294 151.954 48.7454 152.159 48.9054 152.437C49.0654 152.709 49.1454 153.061 49.1454 153.493C49.1454 153.925 49.0521 154.295 48.8654 154.605C48.6788 154.909 48.4334 155.141 48.1294 155.301C47.8308 155.461 47.5081 155.541 47.1614 155.541Z" fill="#99A1AF"/>
<mask id="path-17-inside-5_3672_5406" fill="white">
<path d="M2 195.429H59V252.572H2V195.429Z"/>
</mask>
<path d="M2 195.429H59V252.572H2V195.429Z" fill="#EFF6FF"/>
<path d="M59 252.572V253.143H59.5714V252.572H59ZM59 195.429H58.4286V252.572H59H59.5714V195.429H59ZM59 252.572V252H2V252.572V253.143H59V252.572Z" fill="#E5E7EB" mask="url(#path-17-inside-5_3672_5406)"/>
<path d="M40.4869 212.572V212.036C41.0683 211.518 41.5536 211.046 41.9429 210.62C42.3323 210.188 42.6229 209.788 42.8149 209.42C43.0123 209.052 43.1109 208.708 43.1109 208.388C43.1109 208.174 43.0736 207.988 42.9989 207.828C42.9296 207.662 42.8203 207.537 42.6709 207.452C42.5269 207.361 42.3429 207.316 42.1189 207.316C41.8896 207.316 41.6789 207.38 41.4869 207.508C41.2949 207.63 41.1189 207.782 40.9589 207.964L40.4389 207.452C40.6896 207.174 40.9536 206.958 41.2309 206.804C41.5136 206.649 41.8496 206.572 42.2389 206.572C42.5963 206.572 42.9083 206.646 43.1749 206.796C43.4416 206.94 43.6469 207.145 43.7909 207.412C43.9403 207.673 44.0149 207.982 44.0149 208.34C44.0149 208.718 43.9216 209.102 43.7349 209.492C43.5483 209.876 43.2923 210.265 42.9669 210.66C42.6416 211.049 42.2709 211.444 41.8549 211.844C42.0096 211.828 42.1723 211.814 42.3429 211.804C42.5189 211.788 42.6763 211.78 42.8149 211.78H44.2949V212.572H40.4869ZM45.3694 212.572V212.036C45.9508 211.518 46.4361 211.046 46.8254 210.62C47.2148 210.188 47.5054 209.788 47.6974 209.42C47.8948 209.052 47.9934 208.708 47.9934 208.388C47.9934 208.174 47.9561 207.988 47.8814 207.828C47.8121 207.662 47.7028 207.537 47.5534 207.452C47.4094 207.361 47.2254 207.316 47.0014 207.316C46.7721 207.316 46.5614 207.38 46.3694 207.508C46.1774 207.63 46.0014 207.782 45.8414 207.964L45.3214 207.452C45.5721 207.174 45.8361 206.958 46.1134 206.804C46.3961 206.649 46.7321 206.572 47.1214 206.572C47.4788 206.572 47.7908 206.646 48.0574 206.796C48.3241 206.94 48.5294 207.145 48.6734 207.412C48.8228 207.673 48.8974 207.982 48.8974 208.34C48.8974 208.718 48.8041 209.102 48.6174 209.492C48.4308 209.876 48.1748 210.265 47.8494 210.66C47.5241 211.049 47.1534 211.444 46.7374 211.844C46.8921 211.828 47.0548 211.814 47.2254 211.804C47.4014 211.788 47.5588 211.78 47.6974 211.78H49.1774V212.572H45.3694Z" fill="#99A1AF"/>
<mask id="path-20-inside-6_3672_5406" fill="white">
<path d="M59 24H116V81.1429H59V24Z"/>
</mask>
<path d="M59 24H116V81.1429H59V24Z" fill="white"/>
<path d="M116 81.1429V81.7143H116.571V81.1429H116ZM116 24H115.429V81.1429H116H116.571V24H116ZM116 81.1429V80.5714H59V81.1429V81.7143H116V81.1429Z" fill="#E5E7EB" mask="url(#path-20-inside-6_3672_5406)"/>
<path d="M102.428 41.1431V40.6071C103.01 40.0897 103.495 39.6177 103.884 39.1911C104.274 38.7591 104.564 38.3591 104.756 37.9911C104.954 37.6231 105.052 37.2791 105.052 36.9591C105.052 36.7457 105.015 36.5591 104.94 36.3991C104.871 36.2337 104.762 36.1084 104.612 36.0231C104.468 35.9324 104.284 35.8871 104.06 35.8871C103.831 35.8871 103.62 35.9511 103.428 36.0791C103.236 36.2017 103.06 36.3537 102.9 36.5351L102.38 36.0231C102.631 35.7457 102.895 35.5297 103.172 35.3751C103.455 35.2204 103.791 35.1431 104.18 35.1431C104.538 35.1431 104.85 35.2177 105.116 35.3671C105.383 35.5111 105.588 35.7164 105.732 35.9831C105.882 36.2444 105.956 36.5537 105.956 36.9111C105.956 37.2897 105.863 37.6737 105.676 38.0631C105.49 38.4471 105.234 38.8364 104.908 39.2311C104.583 39.6204 104.212 40.0151 103.796 40.4151C103.951 40.3991 104.114 40.3857 104.284 40.3751C104.46 40.3591 104.618 40.3511 104.756 40.3511H106.236V41.1431H102.428Z" fill="#99A1AF"/>
<mask id="path-23-inside-7_3672_5406" fill="white">
<path d="M59 81.1431H116V138.286H59V81.1431Z"/>
</mask>
<path d="M59 81.1431H116V138.286H59V81.1431Z" fill="white"/>
<path d="M116 138.286V138.857H116.571V138.286H116ZM116 81.1431H115.429V138.286H116H116.571V81.1431H116ZM116 138.286V137.714H59V138.286V138.857H116V138.286Z" fill="#E5E7EB" mask="url(#path-23-inside-7_3672_5406)"/>
<path d="M104.028 98.3981C103.687 98.3981 103.391 98.3368 103.14 98.2141C102.895 98.0861 102.687 97.9368 102.516 97.7661L103.02 97.1901C103.138 97.3235 103.282 97.4301 103.452 97.5101C103.623 97.5901 103.799 97.6301 103.98 97.6301C104.167 97.6301 104.343 97.5875 104.508 97.5021C104.679 97.4168 104.826 97.2781 104.948 97.0861C105.076 96.8941 105.175 96.6381 105.244 96.3181C105.319 95.9981 105.356 95.6061 105.356 95.1421C105.356 94.6515 105.308 94.2488 105.212 93.9341C105.116 93.6141 104.98 93.3795 104.804 93.2301C104.634 93.0755 104.428 92.9981 104.188 92.9981C104.018 92.9981 103.863 93.0488 103.724 93.1501C103.586 93.2461 103.476 93.3848 103.396 93.5661C103.316 93.7475 103.276 93.9661 103.276 94.2221C103.276 94.4728 103.311 94.6861 103.38 94.8621C103.455 95.0381 103.564 95.1741 103.708 95.2701C103.852 95.3608 104.026 95.4061 104.228 95.4061C104.415 95.4061 104.607 95.3475 104.804 95.2301C105.002 95.1128 105.188 94.9208 105.364 94.6541L105.404 95.3341C105.292 95.4835 105.162 95.6141 105.012 95.7261C104.863 95.8381 104.708 95.9261 104.548 95.9901C104.388 96.0488 104.228 96.0781 104.068 96.0781C103.743 96.0781 103.455 96.0088 103.204 95.8701C102.959 95.7315 102.764 95.5261 102.62 95.2541C102.482 94.9768 102.412 94.6328 102.412 94.2221C102.412 93.8328 102.492 93.4941 102.652 93.2061C102.818 92.9128 103.034 92.6861 103.3 92.5261C103.567 92.3661 103.858 92.2861 104.172 92.2861C104.455 92.2861 104.719 92.3448 104.964 92.4621C105.215 92.5741 105.431 92.7475 105.612 92.9821C105.799 93.2168 105.946 93.5128 106.052 93.8701C106.159 94.2275 106.212 94.6515 106.212 95.1421C106.212 95.7181 106.154 96.2141 106.036 96.6301C105.919 97.0408 105.756 97.3768 105.548 97.6381C105.34 97.8941 105.106 98.0861 104.844 98.2141C104.583 98.3368 104.311 98.3981 104.028 98.3981Z" fill="#99A1AF"/>
<mask id="path-26-inside-8_3672_5406" fill="white">
<path d="M59 138.286H116V195.429H59V138.286Z"/>
</mask>
<path d="M59 138.286H116V195.429H59V138.286Z" fill="white"/>
<path d="M116 195.429V196H116.571V195.429H116ZM116 138.286H115.429V195.429H116H116.571V138.286H116ZM116 195.429V194.857H59V195.429V196H116V195.429Z" fill="#E5E7EB" mask="url(#path-26-inside-8_3672_5406)"/>
<path d="M97.8149 155.429V154.669H99.1109V150.573H98.0549V149.989C98.3323 149.941 98.5723 149.879 98.7749 149.805C98.9829 149.73 99.1723 149.639 99.3429 149.533H100.039V154.669H101.183V155.429H97.8149ZM104.481 155.541C104.199 155.541 103.935 155.482 103.689 155.365C103.444 155.242 103.228 155.061 103.041 154.821C102.855 154.575 102.708 154.269 102.601 153.901C102.495 153.533 102.441 153.098 102.441 152.597C102.441 152.031 102.503 151.549 102.625 151.149C102.748 150.743 102.913 150.415 103.121 150.165C103.329 149.914 103.567 149.73 103.833 149.613C104.1 149.49 104.377 149.429 104.665 149.429C104.996 149.429 105.281 149.49 105.521 149.613C105.767 149.735 105.972 149.885 106.137 150.061L105.633 150.621C105.527 150.493 105.391 150.389 105.225 150.309C105.06 150.223 104.889 150.181 104.713 150.181C104.457 150.181 104.22 150.258 104.001 150.413C103.788 150.562 103.617 150.813 103.489 151.165C103.361 151.517 103.297 151.994 103.297 152.597C103.297 153.103 103.345 153.522 103.441 153.853C103.537 154.178 103.673 154.423 103.849 154.589C104.025 154.749 104.231 154.829 104.465 154.829C104.641 154.829 104.796 154.778 104.929 154.677C105.068 154.575 105.177 154.434 105.257 154.253C105.337 154.066 105.377 153.847 105.377 153.597C105.377 153.346 105.34 153.133 105.265 152.957C105.191 152.781 105.081 152.647 104.937 152.557C104.799 152.466 104.625 152.421 104.417 152.421C104.241 152.421 104.052 152.477 103.849 152.589C103.652 152.701 103.463 152.893 103.281 153.165L103.249 152.493C103.361 152.333 103.492 152.199 103.641 152.093C103.791 151.981 103.945 151.895 104.105 151.837C104.271 151.778 104.428 151.749 104.577 151.749C104.908 151.749 105.196 151.818 105.441 151.957C105.692 152.09 105.887 152.293 106.025 152.565C106.169 152.837 106.241 153.181 106.241 153.597C106.241 153.986 106.159 154.327 105.993 154.621C105.833 154.909 105.62 155.135 105.353 155.301C105.092 155.461 104.801 155.541 104.481 155.541Z" fill="#99A1AF"/>
<mask id="path-29-inside-9_3672_5406" fill="white">
<path d="M59 195.429H116V252.572H59V195.429Z"/>
</mask>
<path d="M59 195.429H116V252.572H59V195.429Z" fill="white"/>
<path d="M116 252.572V253.143H116.571V252.572H116ZM116 195.429H115.429V252.572H116H116.571V195.429H116ZM116 252.572V252H59V252.572V253.143H116V252.572Z" fill="#E5E7EB" mask="url(#path-29-inside-9_3672_5406)"/>
<path d="M97.4869 212.572V212.036C98.0683 211.518 98.5536 211.046 98.9429 210.62C99.3323 210.188 99.6229 209.788 99.8149 209.42C100.012 209.052 100.111 208.708 100.111 208.388C100.111 208.174 100.074 207.988 99.9989 207.828C99.9296 207.662 99.8203 207.537 99.6709 207.452C99.5269 207.361 99.3429 207.316 99.1189 207.316C98.8896 207.316 98.6789 207.38 98.4869 207.508C98.2949 207.63 98.1189 207.782 97.9589 207.964L97.4389 207.452C97.6896 207.174 97.9536 206.958 98.2309 206.804C98.5136 206.649 98.8496 206.572 99.2389 206.572C99.5963 206.572 99.9083 206.646 100.175 206.796C100.442 206.94 100.647 207.145 100.791 207.412C100.94 207.673 101.015 207.982 101.015 208.34C101.015 208.718 100.922 209.102 100.735 209.492C100.548 209.876 100.292 210.265 99.9669 210.66C99.6416 211.049 99.2709 211.444 98.8549 211.844C99.0096 211.828 99.1723 211.814 99.3429 211.804C99.5189 211.788 99.6763 211.78 99.8149 211.78H101.295V212.572H97.4869ZM104.161 212.684C103.852 212.684 103.577 212.646 103.337 212.572C103.103 212.497 102.895 212.398 102.713 212.276C102.532 212.148 102.375 212.012 102.241 211.868L102.689 211.276C102.865 211.446 103.065 211.596 103.289 211.724C103.513 211.852 103.777 211.916 104.081 211.916C104.305 211.916 104.5 211.878 104.665 211.804C104.831 211.724 104.959 211.612 105.049 211.468C105.145 211.324 105.193 211.148 105.193 210.94C105.193 210.726 105.14 210.54 105.033 210.38C104.932 210.214 104.753 210.089 104.497 210.004C104.247 209.913 103.9 209.868 103.457 209.868V209.18C103.847 209.18 104.151 209.137 104.369 209.052C104.593 208.961 104.753 208.838 104.849 208.684C104.951 208.529 105.001 208.353 105.001 208.156C105.001 207.9 104.921 207.697 104.761 207.548C104.601 207.393 104.38 207.316 104.097 207.316C103.873 207.316 103.663 207.366 103.465 207.468C103.273 207.564 103.092 207.694 102.921 207.86L102.441 207.284C102.676 207.07 102.932 206.9 103.209 206.772C103.487 206.638 103.793 206.572 104.129 206.572C104.481 206.572 104.793 206.633 105.065 206.756C105.337 206.873 105.551 207.044 105.705 207.268C105.86 207.492 105.937 207.766 105.937 208.092C105.937 208.428 105.844 208.713 105.657 208.948C105.476 209.182 105.231 209.358 104.921 209.476V209.508C105.145 209.566 105.348 209.662 105.529 209.796C105.716 209.924 105.863 210.089 105.969 210.292C106.076 210.494 106.129 210.726 106.129 210.988C106.129 211.34 106.039 211.644 105.857 211.9C105.681 212.15 105.444 212.345 105.145 212.484C104.847 212.617 104.519 212.684 104.161 212.684Z" fill="#99A1AF"/>
<mask id="path-32-inside-10_3672_5406" fill="white">
<path d="M116 24H173V81.1429H116V24Z"/>
</mask>
<path d="M116 24H173V81.1429H116V24Z" fill="white"/>
<path d="M173 81.1429V81.7143H173.571V81.1429H173ZM173 24H172.429V81.1429H173H173.571V24H173ZM173 81.1429V80.5714H116V81.1429V81.7143H173V81.1429Z" fill="#E5E7EB" mask="url(#path-32-inside-10_3672_5406)"/>
<path d="M161.22 41.2551C160.911 41.2551 160.636 41.2177 160.396 41.1431C160.162 41.0684 159.954 40.9697 159.772 40.8471C159.591 40.7191 159.434 40.5831 159.3 40.4391L159.748 39.8471C159.924 40.0177 160.124 40.1671 160.348 40.2951C160.572 40.4231 160.836 40.4871 161.14 40.4871C161.364 40.4871 161.559 40.4497 161.724 40.3751C161.89 40.2951 162.018 40.1831 162.108 40.0391C162.204 39.8951 162.252 39.7191 162.252 39.5111C162.252 39.2977 162.199 39.1111 162.092 38.9511C161.991 38.7857 161.812 38.6604 161.556 38.5751C161.306 38.4844 160.959 38.4391 160.516 38.4391V37.7511C160.906 37.7511 161.21 37.7084 161.428 37.6231C161.652 37.5324 161.812 37.4097 161.908 37.2551C162.01 37.1004 162.06 36.9244 162.06 36.7271C162.06 36.4711 161.98 36.2684 161.82 36.1191C161.66 35.9644 161.439 35.8871 161.156 35.8871C160.932 35.8871 160.722 35.9377 160.524 36.0391C160.332 36.1351 160.151 36.2657 159.98 36.4311L159.5 35.8551C159.735 35.6417 159.991 35.4711 160.268 35.3431C160.546 35.2097 160.852 35.1431 161.188 35.1431C161.54 35.1431 161.852 35.2044 162.124 35.3271C162.396 35.4444 162.61 35.6151 162.764 35.8391C162.919 36.0631 162.996 36.3377 162.996 36.6631C162.996 36.9991 162.903 37.2844 162.716 37.5191C162.535 37.7537 162.29 37.9297 161.98 38.0471V38.0791C162.204 38.1377 162.407 38.2337 162.588 38.3671C162.775 38.4951 162.922 38.6604 163.028 38.8631C163.135 39.0657 163.188 39.2977 163.188 39.5591C163.188 39.9111 163.098 40.2151 162.916 40.4711C162.74 40.7217 162.503 40.9164 162.204 41.0551C161.906 41.1884 161.578 41.2551 161.22 41.2551Z" fill="#99A1AF"/>
<mask id="path-35-inside-11_3672_5406" fill="white">
<path d="M116 81.1431H173V138.286H116V81.1431Z"/>
</mask>
<path d="M116 81.1431H173V138.286H116V81.1431Z" fill="white"/>
<path d="M173 138.286V138.857H173.571V138.286H173ZM173 81.1431H172.429V138.286H173H173.571V81.1431H173ZM173 138.286V137.714H116V138.286V138.857H173V138.286Z" fill="#E5E7EB" mask="url(#path-35-inside-11_3672_5406)"/>
<path d="M154.815 98.2861V97.5261H156.111V93.4301H155.055V92.8461C155.332 92.7981 155.572 92.7368 155.775 92.6621C155.983 92.5875 156.172 92.4968 156.343 92.3901H157.039V97.5261H158.183V98.2861H154.815ZM161.305 98.3981C160.921 98.3981 160.585 98.2835 160.297 98.0541C160.009 97.8248 159.785 97.4835 159.625 97.0301C159.471 96.5715 159.393 96.0008 159.393 95.3181C159.393 94.6355 159.471 94.0701 159.625 93.6221C159.785 93.1741 160.009 92.8408 160.297 92.6221C160.585 92.3981 160.921 92.2861 161.305 92.2861C161.689 92.2861 162.023 92.3981 162.305 92.6221C162.588 92.8461 162.807 93.1821 162.961 93.6301C163.121 94.0728 163.201 94.6355 163.201 95.3181C163.201 96.0008 163.121 96.5715 162.961 97.0301C162.807 97.4835 162.588 97.8248 162.305 98.0541C162.023 98.2835 161.689 98.3981 161.305 98.3981ZM161.305 97.6621C161.503 97.6621 161.679 97.5848 161.833 97.4301C161.988 97.2755 162.108 97.0275 162.193 96.6861C162.279 96.3395 162.321 95.8835 162.321 95.3181C162.321 94.7528 162.279 94.3021 162.193 93.9661C162.108 93.6301 161.988 93.3875 161.833 93.2381C161.679 93.0888 161.503 93.0141 161.305 93.0141C161.108 93.0141 160.932 93.0888 160.777 93.2381C160.623 93.3875 160.5 93.6301 160.409 93.9661C160.324 94.3021 160.281 94.7528 160.281 95.3181C160.281 95.8835 160.324 96.3395 160.409 96.6861C160.5 97.0275 160.623 97.2755 160.777 97.4301C160.932 97.5848 161.108 97.6621 161.305 97.6621Z" fill="#99A1AF"/>
<mask id="path-38-inside-12_3672_5406" fill="white">
<path d="M116 138.286H173V195.429H116V138.286Z"/>
</mask>
<path d="M116 138.286H173V195.429H116V138.286Z" fill="white"/>
<path d="M173 195.429V196H173.571V195.429H173ZM173 138.286H172.429V195.429H173H173.571V138.286H173ZM173 195.429V194.857H116V195.429V196H173V195.429Z" fill="#E5E7EB" mask="url(#path-38-inside-12_3672_5406)"/>
<path d="M154.815 155.429V154.669H156.111V150.573H155.055V149.989C155.332 149.941 155.572 149.879 155.775 149.805C155.983 149.73 156.172 149.639 156.343 149.533H157.039V154.669H158.183V155.429H154.815ZM160.561 155.429C160.588 154.89 160.633 154.397 160.697 153.949C160.761 153.495 160.855 153.069 160.977 152.669C161.1 152.263 161.26 151.871 161.457 151.493C161.655 151.109 161.895 150.717 162.177 150.317H159.417V149.533H163.201V150.101C162.86 150.527 162.583 150.941 162.369 151.341C162.156 151.735 161.991 152.138 161.873 152.549C161.756 152.959 161.671 153.399 161.617 153.869C161.564 154.333 161.527 154.853 161.505 155.429H160.561Z" fill="#99A1AF"/>
<mask id="path-41-inside-13_3672_5406" fill="white">
<path d="M116 195.429H173V252.572H116V195.429Z"/>
</mask>
<path d="M116 195.429H173V252.572H116V195.429Z" fill="white"/>
<path d="M173 252.572V253.143H173.571V252.572H173ZM173 195.429H172.429V252.572H173H173.571V195.429H173ZM173 252.572V252H116V252.572V253.143H173V252.572Z" fill="#E5E7EB" mask="url(#path-41-inside-13_3672_5406)"/>
<path d="M154.487 212.572V212.036C155.068 211.518 155.554 211.046 155.943 210.62C156.332 210.188 156.623 209.788 156.815 209.42C157.012 209.052 157.111 208.708 157.111 208.388C157.111 208.174 157.074 207.988 156.999 207.828C156.93 207.662 156.82 207.537 156.671 207.452C156.527 207.361 156.343 207.316 156.119 207.316C155.89 207.316 155.679 207.38 155.487 207.508C155.295 207.63 155.119 207.782 154.959 207.964L154.439 207.452C154.69 207.174 154.954 206.958 155.231 206.804C155.514 206.649 155.85 206.572 156.239 206.572C156.596 206.572 156.908 206.646 157.175 206.796C157.442 206.94 157.647 207.145 157.791 207.412C157.94 207.673 158.015 207.982 158.015 208.34C158.015 208.718 157.922 209.102 157.735 209.492C157.548 209.876 157.292 210.265 156.967 210.66C156.642 211.049 156.271 211.444 155.855 211.844C156.01 211.828 156.172 211.814 156.343 211.804C156.519 211.788 156.676 211.78 156.815 211.78H158.295V212.572H154.487ZM161.729 212.572V208.732C161.729 208.572 161.735 208.382 161.745 208.164C161.756 207.94 161.764 207.748 161.769 207.588H161.737C161.663 207.737 161.585 207.889 161.505 208.044C161.431 208.198 161.351 208.35 161.265 208.5L160.113 210.268H163.337V210.988H159.177V210.372L161.521 206.676H162.593V212.572H161.729Z" fill="#99A1AF"/>
<mask id="path-44-inside-14_3672_5406" fill="white">
<path d="M173 24H230V81.1429H173V24Z"/>
</mask>
<path d="M173 24H230V81.1429H173V24Z" fill="white"/>
<path d="M230 81.1429V81.7143H230.571V81.1429H230ZM230 24H229.429V81.1429H230H230.571V24H230ZM230 81.1429V80.5714H173V81.1429V81.7143H230V81.1429Z" fill="#E5E7EB" mask="url(#path-44-inside-14_3672_5406)"/>
<path d="M218.788 41.1431V37.3031C218.788 37.1431 218.794 36.9537 218.804 36.7351C218.815 36.5111 218.823 36.3191 218.828 36.1591H218.796C218.722 36.3084 218.644 36.4604 218.564 36.6151C218.49 36.7697 218.41 36.9217 218.324 37.0711L217.172 38.8391H220.396V39.5591H216.236V38.9431L218.58 35.2471H219.652V41.1431H218.788Z" fill="#99A1AF"/>
<mask id="path-47-inside-15_3672_5406" fill="white">
<path d="M173 81.1431H230V138.286H173V81.1431Z"/>
</mask>
<path d="M173 81.1431H230V138.286H173V81.1431Z" fill="white"/>
<path d="M230 138.286V138.857H230.571V138.286H230ZM230 81.1431H229.429V138.286H230H230.571V81.1431H230ZM230 138.286V137.714H173V138.286V138.857H230V138.286Z" fill="#E5E7EB" mask="url(#path-47-inside-15_3672_5406)"/>
<path d="M211.815 98.2861V97.5261H213.111V93.4301H212.055V92.8461C212.332 92.7981 212.572 92.7368 212.775 92.6621C212.983 92.5875 213.172 92.4968 213.343 92.3901H214.039V97.5261H215.183V98.2861H211.815ZM216.697 98.2861V97.5261H217.993V93.4301H216.937V92.8461C217.215 92.7981 217.455 92.7368 217.657 92.6621C217.865 92.5875 218.055 92.4968 218.225 92.3901H218.921V97.5261H220.065V98.2861H216.697Z" fill="#99A1AF"/>
<mask id="path-50-inside-16_3672_5406" fill="white">
<path d="M173 138.286H230V195.429H173V138.286Z"/>
</mask>
<path d="M173 138.286H230V195.429H173V138.286Z" fill="white"/>
<path d="M230 195.429V196H230.571V195.429H230ZM230 138.286H229.429V195.429H230H230.571V138.286H230ZM230 195.429V194.857H173V195.429V196H230V195.429Z" fill="#E5E7EB" mask="url(#path-50-inside-16_3672_5406)"/>
<path d="M211.815 155.429V154.669H213.111V150.573H212.055V149.989C212.332 149.941 212.572 149.879 212.775 149.805C212.983 149.73 213.172 149.639 213.343 149.533H214.039V154.669H215.183V155.429H211.815ZM218.305 155.541C217.937 155.541 217.609 155.474 217.321 155.341C217.033 155.202 216.804 155.015 216.633 154.781C216.468 154.541 216.385 154.269 216.385 153.965C216.385 153.703 216.436 153.471 216.537 153.269C216.639 153.066 216.769 152.893 216.929 152.749C217.089 152.599 217.257 152.477 217.433 152.381V152.341C217.22 152.186 217.036 151.997 216.881 151.773C216.727 151.543 216.649 151.274 216.649 150.965C216.649 150.661 216.721 150.394 216.865 150.165C217.015 149.935 217.215 149.759 217.465 149.637C217.721 149.509 218.012 149.445 218.337 149.445C218.679 149.445 218.972 149.511 219.217 149.645C219.463 149.778 219.652 149.962 219.785 150.197C219.924 150.426 219.993 150.695 219.993 151.005C219.993 151.202 219.953 151.389 219.873 151.565C219.793 151.741 219.695 151.901 219.577 152.045C219.465 152.183 219.345 152.298 219.217 152.389V152.429C219.399 152.525 219.564 152.645 219.713 152.789C219.863 152.927 219.983 153.095 220.073 153.293C220.164 153.49 220.209 153.722 220.209 153.989C220.209 154.277 220.129 154.538 219.969 154.773C219.815 155.007 219.593 155.194 219.305 155.333C219.023 155.471 218.689 155.541 218.305 155.541ZM218.697 152.157C218.868 151.991 218.996 151.818 219.081 151.637C219.172 151.45 219.217 151.255 219.217 151.053C219.217 150.877 219.183 150.717 219.113 150.573C219.044 150.429 218.94 150.317 218.801 150.237C218.668 150.151 218.505 150.109 218.313 150.109C218.073 150.109 217.873 150.186 217.713 150.341C217.553 150.49 217.473 150.698 217.473 150.965C217.473 151.178 217.529 151.357 217.641 151.501C217.753 151.645 217.903 151.767 218.089 151.869C218.276 151.97 218.479 152.066 218.697 152.157ZM218.329 154.869C218.527 154.869 218.7 154.831 218.849 154.757C219.004 154.682 219.124 154.578 219.209 154.445C219.295 154.306 219.337 154.143 219.337 153.957C219.337 153.781 219.3 153.629 219.225 153.501C219.151 153.367 219.047 153.253 218.913 153.157C218.785 153.061 218.633 152.973 218.457 152.893C218.281 152.807 218.092 152.725 217.889 152.645C217.687 152.789 217.521 152.967 217.393 153.181C217.265 153.389 217.201 153.618 217.201 153.869C217.201 154.066 217.249 154.239 217.345 154.389C217.447 154.538 217.583 154.655 217.753 154.741C217.924 154.826 218.116 154.869 218.329 154.869Z" fill="#99A1AF"/>
<mask id="path-53-inside-17_3672_5406" fill="white">
<path d="M173 195.429H230V252.572H173V195.429Z"/>
</mask>
<path d="M173 195.429H230V252.572H173V195.429Z" fill="white"/>
<path d="M230 252.572V253.143H230.571V252.572H230ZM230 195.429H229.429V252.572H230H230.571V195.429H230ZM230 252.572V252H173V252.572V253.143H230V252.572Z" fill="#E5E7EB" mask="url(#path-53-inside-17_3672_5406)"/>
<path d="M211.487 212.572V212.036C212.068 211.518 212.554 211.046 212.943 210.62C213.332 210.188 213.623 209.788 213.815 209.42C214.012 209.052 214.111 208.708 214.111 208.388C214.111 208.174 214.074 207.988 213.999 207.828C213.93 207.662 213.82 207.537 213.671 207.452C213.527 207.361 213.343 207.316 213.119 207.316C212.89 207.316 212.679 207.38 212.487 207.508C212.295 207.63 212.119 207.782 211.959 207.964L211.439 207.452C211.69 207.174 211.954 206.958 212.231 206.804C212.514 206.649 212.85 206.572 213.239 206.572C213.596 206.572 213.908 206.646 214.175 206.796C214.442 206.94 214.647 207.145 214.791 207.412C214.94 207.673 215.015 207.982 215.015 208.34C215.015 208.718 214.922 209.102 214.735 209.492C214.548 209.876 214.292 210.265 213.967 210.66C213.642 211.049 213.271 211.444 212.855 211.844C213.01 211.828 213.172 211.814 213.343 211.804C213.519 211.788 213.676 211.78 213.815 211.78H215.295V212.572H211.487ZM218.161 212.684C217.857 212.684 217.585 212.646 217.345 212.572C217.105 212.497 216.895 212.398 216.713 212.276C216.532 212.153 216.372 212.025 216.233 211.892L216.673 211.292C216.785 211.404 216.908 211.508 217.041 211.604C217.175 211.694 217.324 211.769 217.489 211.828C217.66 211.886 217.849 211.916 218.057 211.916C218.276 211.916 218.473 211.868 218.649 211.772C218.825 211.67 218.964 211.526 219.065 211.34C219.167 211.148 219.217 210.921 219.217 210.66C219.217 210.276 219.113 209.977 218.905 209.764C218.703 209.55 218.433 209.444 218.097 209.444C217.911 209.444 217.751 209.47 217.617 209.524C217.484 209.577 217.332 209.66 217.161 209.772L216.705 209.476L216.881 206.676H219.865V207.46H217.681L217.545 208.964C217.673 208.9 217.801 208.852 217.929 208.82C218.057 208.782 218.199 208.764 218.353 208.764C218.684 208.764 218.985 208.83 219.257 208.964C219.529 209.097 219.745 209.302 219.905 209.58C220.065 209.852 220.145 210.204 220.145 210.636C220.145 211.068 220.052 211.438 219.865 211.748C219.679 212.052 219.433 212.284 219.129 212.444C218.831 212.604 218.508 212.684 218.161 212.684Z" fill="#99A1AF"/>
<mask id="path-56-inside-18_3672_5406" fill="white">
<path d="M230 24H287V81.1429H230V24Z"/>
</mask>
<path d="M230 24H287V81.1429H230V24Z" fill="white"/>
<path d="M287 81.1429V81.7143H287.571V81.1429H287ZM287 24H286.429V81.1429H287H287.571V24H287ZM287 81.1429V80.5714H230V81.1429V81.7143H287V81.1429Z" fill="#E5E7EB" mask="url(#path-56-inside-18_3672_5406)"/>
<path d="M275.22 41.2551C274.916 41.2551 274.644 41.2177 274.404 41.1431C274.164 41.0684 273.954 40.9697 273.772 40.8471C273.591 40.7244 273.431 40.5964 273.292 40.4631L273.732 39.8631C273.844 39.9751 273.967 40.0791 274.1 40.1751C274.234 40.2657 274.383 40.3404 274.548 40.3991C274.719 40.4577 274.908 40.4871 275.116 40.4871C275.335 40.4871 275.532 40.4391 275.708 40.3431C275.884 40.2417 276.023 40.0977 276.124 39.9111C276.226 39.7191 276.276 39.4924 276.276 39.2311C276.276 38.8471 276.172 38.5484 275.964 38.3351C275.762 38.1217 275.492 38.0151 275.156 38.0151C274.97 38.0151 274.81 38.0417 274.676 38.0951C274.543 38.1484 274.391 38.2311 274.22 38.3431L273.764 38.0471L273.94 35.2471H276.924V36.0311H274.74L274.604 37.5351C274.732 37.4711 274.86 37.4231 274.988 37.3911C275.116 37.3537 275.258 37.3351 275.412 37.3351C275.743 37.3351 276.044 37.4017 276.316 37.5351C276.588 37.6684 276.804 37.8737 276.964 38.1511C277.124 38.4231 277.204 38.7751 277.204 39.2071C277.204 39.6391 277.111 40.0097 276.924 40.3191C276.738 40.6231 276.492 40.8551 276.188 41.0151C275.89 41.1751 275.567 41.2551 275.22 41.2551Z" fill="#99A1AF"/>
<mask id="path-59-inside-19_3672_5406" fill="white">
<path d="M230 81.1431H287V138.286H230V81.1431Z"/>
</mask>
<path d="M230 81.1431H287V138.286H230V81.1431Z" fill="white"/>
<path d="M287 138.286V138.857H287.571V138.286H287ZM287 81.1431H286.429V138.286H287H287.571V81.1431H287ZM287 138.286V137.714H230V138.286V138.857H287V138.286Z" fill="#E5E7EB" mask="url(#path-59-inside-19_3672_5406)"/>
<path d="M268.815 98.2861V97.5261H270.111V93.4301H269.055V92.8461C269.332 92.7981 269.572 92.7368 269.775 92.6621C269.983 92.5875 270.172 92.4968 270.343 92.3901H271.039V97.5261H272.183V98.2861H268.815ZM273.369 98.2861V97.7501C273.951 97.2328 274.436 96.7608 274.825 96.3341C275.215 95.9021 275.505 95.5021 275.697 95.1341C275.895 94.7661 275.993 94.4221 275.993 94.1021C275.993 93.8888 275.956 93.7021 275.881 93.5421C275.812 93.3768 275.703 93.2515 275.553 93.1661C275.409 93.0755 275.225 93.0301 275.001 93.0301C274.772 93.0301 274.561 93.0941 274.369 93.2221C274.177 93.3448 274.001 93.4968 273.841 93.6781L273.321 93.1661C273.572 92.8888 273.836 92.6728 274.113 92.5181C274.396 92.3635 274.732 92.2861 275.121 92.2861C275.479 92.2861 275.791 92.3608 276.057 92.5101C276.324 92.6541 276.529 92.8595 276.673 93.1261C276.823 93.3875 276.897 93.6968 276.897 94.0541C276.897 94.4328 276.804 94.8168 276.617 95.2061C276.431 95.5901 276.175 95.9795 275.849 96.3741C275.524 96.7635 275.153 97.1581 274.737 97.5581C274.892 97.5421 275.055 97.5288 275.225 97.5181C275.401 97.5021 275.559 97.4941 275.697 97.4941H277.177V98.2861H273.369Z" fill="#99A1AF"/>
<mask id="path-62-inside-20_3672_5406" fill="white">
<path d="M230 138.286H287V195.429H230V138.286Z"/>
</mask>
<path d="M230 138.286H287V195.429H230V138.286Z" fill="white"/>
<path d="M287 195.429V196H287.571V195.429H287ZM287 138.286H286.429V195.429H287H287.571V138.286H287ZM287 195.429V194.857H230V195.429V196H287V195.429Z" fill="#E5E7EB" mask="url(#path-62-inside-20_3672_5406)"/>
<path d="M268.815 155.429V154.669H270.111V150.573H269.055V149.989C269.332 149.941 269.572 149.879 269.775 149.805C269.983 149.73 270.172 149.639 270.343 149.533H271.039V154.669H272.183V155.429H268.815ZM274.969 155.541C274.628 155.541 274.332 155.479 274.081 155.357C273.836 155.229 273.628 155.079 273.457 154.909L273.961 154.333C274.079 154.466 274.223 154.573 274.393 154.653C274.564 154.733 274.74 154.773 274.921 154.773C275.108 154.773 275.284 154.73 275.449 154.645C275.62 154.559 275.767 154.421 275.889 154.229C276.017 154.037 276.116 153.781 276.185 153.461C276.26 153.141 276.297 152.749 276.297 152.285C276.297 151.794 276.249 151.391 276.153 151.077C276.057 150.757 275.921 150.522 275.745 150.373C275.575 150.218 275.369 150.141 275.129 150.141C274.959 150.141 274.804 150.191 274.665 150.293C274.527 150.389 274.417 150.527 274.337 150.709C274.257 150.89 274.217 151.109 274.217 151.365C274.217 151.615 274.252 151.829 274.321 152.005C274.396 152.181 274.505 152.317 274.649 152.413C274.793 152.503 274.967 152.549 275.169 152.549C275.356 152.549 275.548 152.49 275.745 152.373C275.943 152.255 276.129 152.063 276.305 151.797L276.345 152.477C276.233 152.626 276.103 152.757 275.953 152.869C275.804 152.981 275.649 153.069 275.489 153.133C275.329 153.191 275.169 153.221 275.009 153.221C274.684 153.221 274.396 153.151 274.145 153.013C273.9 152.874 273.705 152.669 273.561 152.397C273.423 152.119 273.353 151.775 273.353 151.365C273.353 150.975 273.433 150.637 273.593 150.349C273.759 150.055 273.975 149.829 274.241 149.669C274.508 149.509 274.799 149.429 275.113 149.429C275.396 149.429 275.66 149.487 275.905 149.605C276.156 149.717 276.372 149.89 276.553 150.125C276.74 150.359 276.887 150.655 276.993 151.013C277.1 151.37 277.153 151.794 277.153 152.285C277.153 152.861 277.095 153.357 276.977 153.773C276.86 154.183 276.697 154.519 276.489 154.781C276.281 155.037 276.047 155.229 275.785 155.357C275.524 155.479 275.252 155.541 274.969 155.541Z" fill="#99A1AF"/>
<mask id="path-65-inside-21_3672_5406" fill="white">
<path d="M230 195.429H287V252.572H230V195.429Z"/>
</mask>
<path d="M230 195.429H287V252.572H230V195.429Z" fill="white"/>
<path d="M287 252.572V253.143H287.571V252.572H287ZM287 195.429H286.429V252.572H287H287.571V195.429H287ZM287 252.572V252H230V252.572V253.143H287V252.572Z" fill="#E5E7EB" mask="url(#path-65-inside-21_3672_5406)"/>
<path d="M268.487 212.572V212.036C269.068 211.518 269.554 211.046 269.943 210.62C270.332 210.188 270.623 209.788 270.815 209.42C271.012 209.052 271.111 208.708 271.111 208.388C271.111 208.174 271.074 207.988 270.999 207.828C270.93 207.662 270.82 207.537 270.671 207.452C270.527 207.361 270.343 207.316 270.119 207.316C269.89 207.316 269.679 207.38 269.487 207.508C269.295 207.63 269.119 207.782 268.959 207.964L268.439 207.452C268.69 207.174 268.954 206.958 269.231 206.804C269.514 206.649 269.85 206.572 270.239 206.572C270.596 206.572 270.908 206.646 271.175 206.796C271.442 206.94 271.647 207.145 271.791 207.412C271.94 207.673 272.015 207.982 272.015 208.34C272.015 208.718 271.922 209.102 271.735 209.492C271.548 209.876 271.292 210.265 270.967 210.66C270.642 211.049 270.271 211.444 269.855 211.844C270.01 211.828 270.172 211.814 270.343 211.804C270.519 211.788 270.676 211.78 270.815 211.78H272.295V212.572H268.487ZM275.481 212.684C275.199 212.684 274.935 212.625 274.689 212.508C274.444 212.385 274.228 212.204 274.041 211.964C273.855 211.718 273.708 211.412 273.601 211.044C273.495 210.676 273.441 210.241 273.441 209.74C273.441 209.174 273.503 208.692 273.625 208.292C273.748 207.886 273.913 207.558 274.121 207.308C274.329 207.057 274.567 206.873 274.833 206.756C275.1 206.633 275.377 206.572 275.665 206.572C275.996 206.572 276.281 206.633 276.521 206.756C276.767 206.878 276.972 207.028 277.137 207.204L276.633 207.764C276.527 207.636 276.391 207.532 276.225 207.452C276.06 207.366 275.889 207.324 275.713 207.324C275.457 207.324 275.22 207.401 275.001 207.556C274.788 207.705 274.617 207.956 274.489 208.308C274.361 208.66 274.297 209.137 274.297 209.74C274.297 210.246 274.345 210.665 274.441 210.996C274.537 211.321 274.673 211.566 274.849 211.732C275.025 211.892 275.231 211.972 275.465 211.972C275.641 211.972 275.796 211.921 275.929 211.82C276.068 211.718 276.177 211.577 276.257 211.396C276.337 211.209 276.377 210.99 276.377 210.74C276.377 210.489 276.34 210.276 276.265 210.1C276.191 209.924 276.081 209.79 275.937 209.7C275.799 209.609 275.625 209.564 275.417 209.564C275.241 209.564 275.052 209.62 274.849 209.732C274.652 209.844 274.463 210.036 274.281 210.308L274.249 209.636C274.361 209.476 274.492 209.342 274.641 209.236C274.791 209.124 274.945 209.038 275.105 208.98C275.271 208.921 275.428 208.892 275.577 208.892C275.908 208.892 276.196 208.961 276.441 209.1C276.692 209.233 276.887 209.436 277.025 209.708C277.169 209.98 277.241 210.324 277.241 210.74C277.241 211.129 277.159 211.47 276.993 211.764C276.833 212.052 276.62 212.278 276.353 212.444C276.092 212.604 275.801 212.684 275.481 212.684Z" fill="#99A1AF"/>
<mask id="path-68-inside-22_3672_5406" fill="white">
<path d="M287 24H344V81.1429H287V24Z"/>
</mask>
<path d="M287 24H344V81.1429H287V24Z" fill="white"/>
<path d="M344 81.1429V81.7143H344.571V81.1429H344ZM344 24H343.429V81.1429H344H344.571V24H344ZM344 81.1429V80.5714H287V81.1429V81.7143H344V81.1429Z" fill="#E5E7EB" mask="url(#path-68-inside-22_3672_5406)"/>
<path d="M332.54 41.2551C332.258 41.2551 331.994 41.1964 331.748 41.0791C331.503 40.9564 331.287 40.7751 331.1 40.5351C330.914 40.2897 330.767 39.9831 330.66 39.6151C330.554 39.2471 330.5 38.8124 330.5 38.3111C330.5 37.7457 330.562 37.2631 330.684 36.8631C330.807 36.4577 330.972 36.1297 331.18 35.8791C331.388 35.6284 331.626 35.4444 331.892 35.3271C332.159 35.2044 332.436 35.1431 332.724 35.1431C333.055 35.1431 333.34 35.2044 333.58 35.3271C333.826 35.4497 334.031 35.5991 334.196 35.7751L333.692 36.3351C333.586 36.2071 333.45 36.1031 333.284 36.0231C333.119 35.9377 332.948 35.8951 332.772 35.8951C332.516 35.8951 332.279 35.9724 332.06 36.1271C331.847 36.2764 331.676 36.5271 331.548 36.8791C331.42 37.2311 331.356 37.7084 331.356 38.3111C331.356 38.8177 331.404 39.2364 331.5 39.5671C331.596 39.8924 331.732 40.1377 331.908 40.3031C332.084 40.4631 332.29 40.5431 332.524 40.5431C332.7 40.5431 332.855 40.4924 332.988 40.3911C333.127 40.2897 333.236 40.1484 333.316 39.9671C333.396 39.7804 333.436 39.5617 333.436 39.3111C333.436 39.0604 333.399 38.8471 333.324 38.6711C333.25 38.4951 333.14 38.3617 332.996 38.2711C332.858 38.1804 332.684 38.1351 332.476 38.1351C332.3 38.1351 332.111 38.1911 331.908 38.3031C331.711 38.4151 331.522 38.6071 331.34 38.8791L331.308 38.2071C331.42 38.0471 331.551 37.9137 331.7 37.8071C331.85 37.6951 332.004 37.6097 332.164 37.5511C332.33 37.4924 332.487 37.4631 332.636 37.4631C332.967 37.4631 333.255 37.5324 333.5 37.6711C333.751 37.8044 333.946 38.0071 334.084 38.2791C334.228 38.5511 334.3 38.8951 334.3 39.3111C334.3 39.7004 334.218 40.0417 334.052 40.3351C333.892 40.6231 333.679 40.8497 333.412 41.0151C333.151 41.1751 332.86 41.2551 332.54 41.2551Z" fill="#99A1AF"/>
<mask id="path-71-inside-23_3672_5406" fill="white">
<path d="M287 81.1431H344V138.286H287V81.1431Z"/>
</mask>
<path d="M287 81.1431H344V138.286H287V81.1431Z" fill="white"/>
<path d="M344 138.286V138.857H344.571V138.286H344ZM344 81.1431H343.429V138.286H344H344.571V81.1431H344ZM344 138.286V137.714H287V138.286V138.857H344V138.286Z" fill="#E5E7EB" mask="url(#path-71-inside-23_3672_5406)"/>
<path d="M325.815 98.2861V97.5261H327.111V93.4301H326.055V92.8461C326.332 92.7981 326.572 92.7368 326.775 92.6621C326.983 92.5875 327.172 92.4968 327.343 92.3901H328.039V97.5261H329.183V98.2861H325.815ZM332.161 98.3981C331.852 98.3981 331.577 98.3608 331.337 98.2861C331.103 98.2115 330.895 98.1128 330.713 97.9901C330.532 97.8621 330.375 97.7261 330.241 97.5821L330.689 96.9901C330.865 97.1608 331.065 97.3101 331.289 97.4381C331.513 97.5661 331.777 97.6301 332.081 97.6301C332.305 97.6301 332.5 97.5928 332.665 97.5181C332.831 97.4381 332.959 97.3261 333.049 97.1821C333.145 97.0381 333.193 96.8621 333.193 96.6541C333.193 96.4408 333.14 96.2541 333.033 96.0941C332.932 95.9288 332.753 95.8035 332.497 95.7181C332.247 95.6275 331.9 95.5821 331.457 95.5821V94.8941C331.847 94.8941 332.151 94.8515 332.369 94.7661C332.593 94.6755 332.753 94.5528 332.849 94.3981C332.951 94.2435 333.001 94.0675 333.001 93.8701C333.001 93.6141 332.921 93.4115 332.761 93.2621C332.601 93.1075 332.38 93.0301 332.097 93.0301C331.873 93.0301 331.663 93.0808 331.465 93.1821C331.273 93.2781 331.092 93.4088 330.921 93.5741L330.441 92.9981C330.676 92.7848 330.932 92.6141 331.209 92.4861C331.487 92.3528 331.793 92.2861 332.129 92.2861C332.481 92.2861 332.793 92.3475 333.065 92.4701C333.337 92.5875 333.551 92.7581 333.705 92.9821C333.86 93.2061 333.937 93.4808 333.937 93.8061C333.937 94.1421 333.844 94.4275 333.657 94.6621C333.476 94.8968 333.231 95.0728 332.921 95.1901V95.2221C333.145 95.2808 333.348 95.3768 333.529 95.5101C333.716 95.6381 333.863 95.8035 333.969 96.0061C334.076 96.2088 334.129 96.4408 334.129 96.7021C334.129 97.0541 334.039 97.3581 333.857 97.6141C333.681 97.8648 333.444 98.0595 333.145 98.1981C332.847 98.3315 332.519 98.3981 332.161 98.3981Z" fill="#99A1AF"/>
<mask id="path-74-inside-24_3672_5406" fill="white">
<path d="M287 138.286H344V195.429H287V138.286Z"/>
</mask>
<path d="M287 138.286H344V195.429H287V138.286Z" fill="white"/>
<path d="M344 195.429V196H344.571V195.429H344ZM344 138.286H343.429V195.429H344H344.571V138.286H344ZM344 195.429V194.857H287V195.429V196H344V195.429Z" fill="#E5E7EB" mask="url(#path-74-inside-24_3672_5406)"/>
<path d="M325.487 155.429V154.893C326.068 154.375 326.554 153.903 326.943 153.477C327.332 153.045 327.623 152.645 327.815 152.277C328.012 151.909 328.111 151.565 328.111 151.245C328.111 151.031 328.074 150.845 327.999 150.685C327.93 150.519 327.82 150.394 327.671 150.309C327.527 150.218 327.343 150.173 327.119 150.173C326.89 150.173 326.679 150.237 326.487 150.365C326.295 150.487 326.119 150.639 325.959 150.821L325.439 150.309C325.69 150.031 325.954 149.815 326.231 149.661C326.514 149.506 326.85 149.429 327.239 149.429C327.596 149.429 327.908 149.503 328.175 149.653C328.442 149.797 328.647 150.002 328.791 150.269C328.94 150.53 329.015 150.839 329.015 151.197C329.015 151.575 328.922 151.959 328.735 152.349C328.548 152.733 328.292 153.122 327.967 153.517C327.642 153.906 327.271 154.301 326.855 154.701C327.01 154.685 327.172 154.671 327.343 154.661C327.519 154.645 327.676 154.637 327.815 154.637H329.295V155.429H325.487ZM332.305 155.541C331.921 155.541 331.585 155.426 331.297 155.197C331.009 154.967 330.785 154.626 330.625 154.173C330.471 153.714 330.393 153.143 330.393 152.461C330.393 151.778 330.471 151.213 330.625 150.765C330.785 150.317 331.009 149.983 331.297 149.765C331.585 149.541 331.921 149.429 332.305 149.429C332.689 149.429 333.023 149.541 333.305 149.765C333.588 149.989 333.807 150.325 333.961 150.773C334.121 151.215 334.201 151.778 334.201 152.461C334.201 153.143 334.121 153.714 333.961 154.173C333.807 154.626 333.588 154.967 333.305 155.197C333.023 155.426 332.689 155.541 332.305 155.541ZM332.305 154.805C332.503 154.805 332.679 154.727 332.833 154.573C332.988 154.418 333.108 154.17 333.193 153.829C333.279 153.482 333.321 153.026 333.321 152.461C333.321 151.895 333.279 151.445 333.193 151.109C333.108 150.773 332.988 150.53 332.833 150.381C332.679 150.231 332.503 150.157 332.305 150.157C332.108 150.157 331.932 150.231 331.777 150.381C331.623 150.53 331.5 150.773 331.409 151.109C331.324 151.445 331.281 151.895 331.281 152.461C331.281 153.026 331.324 153.482 331.409 153.829C331.5 154.17 331.623 154.418 331.777 154.573C331.932 154.727 332.108 154.805 332.305 154.805Z" fill="#99A1AF"/>
<mask id="path-77-inside-25_3672_5406" fill="white">
<path d="M287 195.429H344V252.572H287V195.429Z"/>
</mask>
<path d="M287 195.429H344V252.572H287V195.429Z" fill="white"/>
<path d="M344 252.572V253.143H344.571V252.572H344ZM344 195.429H343.429V252.572H344H344.571V195.429H344ZM344 252.572V252H287V252.572V253.143H344V252.572Z" fill="#E5E7EB" mask="url(#path-77-inside-25_3672_5406)"/>
<path d="M325.487 212.572V212.036C326.068 211.518 326.554 211.046 326.943 210.62C327.332 210.188 327.623 209.788 327.815 209.42C328.012 209.052 328.111 208.708 328.111 208.388C328.111 208.174 328.074 207.988 327.999 207.828C327.93 207.662 327.82 207.537 327.671 207.452C327.527 207.361 327.343 207.316 327.119 207.316C326.89 207.316 326.679 207.38 326.487 207.508C326.295 207.63 326.119 207.782 325.959 207.964L325.439 207.452C325.69 207.174 325.954 206.958 326.231 206.804C326.514 206.649 326.85 206.572 327.239 206.572C327.596 206.572 327.908 206.646 328.175 206.796C328.442 206.94 328.647 207.145 328.791 207.412C328.94 207.673 329.015 207.982 329.015 208.34C329.015 208.718 328.922 209.102 328.735 209.492C328.548 209.876 328.292 210.265 327.967 210.66C327.642 211.049 327.271 211.444 326.855 211.844C327.01 211.828 327.172 211.814 327.343 211.804C327.519 211.788 327.676 211.78 327.815 211.78H329.295V212.572H325.487ZM331.561 212.572C331.588 212.033 331.633 211.54 331.697 211.092C331.761 210.638 331.855 210.212 331.977 209.812C332.1 209.406 332.26 209.014 332.457 208.636C332.655 208.252 332.895 207.86 333.177 207.46H330.417V206.676H334.201V207.244C333.86 207.67 333.583 208.084 333.369 208.484C333.156 208.878 332.991 209.281 332.873 209.692C332.756 210.102 332.671 210.542 332.617 211.012C332.564 211.476 332.527 211.996 332.505 212.572H331.561Z" fill="#99A1AF"/>
<mask id="path-80-inside-26_3672_5406" fill="white">
<path d="M344 24H401V81.1429H344V24Z"/>
</mask>
<path d="M344 24H401V81.1429H344V24Z" fill="white"/>
<path d="M401 81.1429V81.7143H401.571V81.1429H401ZM401 24H400.429V81.1429H401H401.571V24H401ZM401 81.1429V80.5714H344V81.1429V81.7143H401V81.1429Z" fill="#E5E7EB" mask="url(#path-80-inside-26_3672_5406)"/>
<path d="M388.62 41.1431C388.647 40.6044 388.692 40.1111 388.756 39.6631C388.82 39.2097 388.914 38.7831 389.036 38.3831C389.159 37.9777 389.319 37.5857 389.516 37.2071C389.714 36.8231 389.954 36.4311 390.236 36.0311H387.476V35.2471H391.26V35.8151C390.919 36.2417 390.642 36.6551 390.428 37.0551C390.215 37.4497 390.05 37.8524 389.932 38.2631C389.815 38.6737 389.73 39.1137 389.676 39.5831C389.623 40.0471 389.586 40.5671 389.564 41.1431H388.62Z" fill="#99A1AF"/>
<mask id="path-83-inside-27_3672_5406" fill="white">
<path d="M344 81.1431H401V138.286H344V81.1431Z"/>
</mask>
<path d="M344 81.1431H401V138.286H344V81.1431Z" fill="white"/>
<path d="M401 138.286V138.857H401.571V138.286H401ZM401 81.1431H400.429V138.286H401H401.571V81.1431H401ZM401 138.286V137.714H344V138.286V138.857H401V138.286Z" fill="#E5E7EB" mask="url(#path-83-inside-27_3672_5406)"/>
<path d="M382.815 98.2861V97.5261H384.111V93.4301H383.055V92.8461C383.332 92.7981 383.572 92.7368 383.775 92.6621C383.983 92.5875 384.172 92.4968 384.343 92.3901H385.039V97.5261H386.183V98.2861H382.815ZM389.729 98.2861V94.4461C389.729 94.2861 389.735 94.0968 389.745 93.8781C389.756 93.6541 389.764 93.4621 389.769 93.3021H389.737C389.663 93.4515 389.585 93.6035 389.505 93.7581C389.431 93.9128 389.351 94.0648 389.265 94.2141L388.113 95.9821H391.337V96.7021H387.177V96.0861L389.521 92.3901H390.593V98.2861H389.729Z" fill="#99A1AF"/>
<mask id="path-86-inside-28_3672_5406" fill="white">
<path d="M344 138.286H401V195.429H344V138.286Z"/>
</mask>
<path d="M344 138.286H401V195.429H344V138.286Z" fill="white"/>
<path d="M401 195.429V196H401.571V195.429H401ZM401 138.286H400.429V195.429H401H401.571V138.286H401ZM401 195.429V194.857H344V195.429V196H401V195.429Z" fill="#E5E7EB" mask="url(#path-86-inside-28_3672_5406)"/>
<path d="M382.487 155.429V154.893C383.068 154.375 383.554 153.903 383.943 153.477C384.332 153.045 384.623 152.645 384.815 152.277C385.012 151.909 385.111 151.565 385.111 151.245C385.111 151.031 385.074 150.845 384.999 150.685C384.93 150.519 384.82 150.394 384.671 150.309C384.527 150.218 384.343 150.173 384.119 150.173C383.89 150.173 383.679 150.237 383.487 150.365C383.295 150.487 383.119 150.639 382.959 150.821L382.439 150.309C382.69 150.031 382.954 149.815 383.231 149.661C383.514 149.506 383.85 149.429 384.239 149.429C384.596 149.429 384.908 149.503 385.175 149.653C385.442 149.797 385.647 150.002 385.791 150.269C385.94 150.53 386.015 150.839 386.015 151.197C386.015 151.575 385.922 151.959 385.735 152.349C385.548 152.733 385.292 153.122 384.967 153.517C384.642 153.906 384.271 154.301 383.855 154.701C384.01 154.685 384.172 154.671 384.343 154.661C384.519 154.645 384.676 154.637 384.815 154.637H386.295V155.429H382.487ZM387.697 155.429V154.669H388.993V150.573H387.937V149.989C388.215 149.941 388.455 149.879 388.657 149.805C388.865 149.73 389.055 149.639 389.225 149.533H389.921V154.669H391.065V155.429H387.697Z" fill="#99A1AF"/>
<mask id="path-89-inside-29_3672_5406" fill="white">
<path d="M344 195.429H401V252.572H344V195.429Z"/>
</mask>
<path d="M344 195.429H401V252.572H344V195.429Z" fill="white"/>
<path d="M401 252.572V253.143H401.571V252.572H401ZM401 195.429H400.429V252.572H401H401.571V195.429H401ZM401 252.572V252H344V252.572V253.143H401V252.572Z" fill="#E5E7EB" mask="url(#path-89-inside-29_3672_5406)"/>
<path d="M382.487 212.572V212.036C383.068 211.518 383.554 211.046 383.943 210.62C384.332 210.188 384.623 209.788 384.815 209.42C385.012 209.052 385.111 208.708 385.111 208.388C385.111 208.174 385.074 207.988 384.999 207.828C384.93 207.662 384.82 207.537 384.671 207.452C384.527 207.361 384.343 207.316 384.119 207.316C383.89 207.316 383.679 207.38 383.487 207.508C383.295 207.63 383.119 207.782 382.959 207.964L382.439 207.452C382.69 207.174 382.954 206.958 383.231 206.804C383.514 206.649 383.85 206.572 384.239 206.572C384.596 206.572 384.908 206.646 385.175 206.796C385.442 206.94 385.647 207.145 385.791 207.412C385.94 207.673 386.015 207.982 386.015 208.34C386.015 208.718 385.922 209.102 385.735 209.492C385.548 209.876 385.292 210.265 384.967 210.66C384.642 211.049 384.271 211.444 383.855 211.844C384.01 211.828 384.172 211.814 384.343 211.804C384.519 211.788 384.676 211.78 384.815 211.78H386.295V212.572H382.487ZM389.305 212.684C388.937 212.684 388.609 212.617 388.321 212.484C388.033 212.345 387.804 212.158 387.633 211.924C387.468 211.684 387.385 211.412 387.385 211.108C387.385 210.846 387.436 210.614 387.537 210.412C387.639 210.209 387.769 210.036 387.929 209.892C388.089 209.742 388.257 209.62 388.433 209.524V209.484C388.22 209.329 388.036 209.14 387.881 208.916C387.727 208.686 387.649 208.417 387.649 208.108C387.649 207.804 387.721 207.537 387.865 207.308C388.015 207.078 388.215 206.902 388.465 206.78C388.721 206.652 389.012 206.588 389.337 206.588C389.679 206.588 389.972 206.654 390.217 206.788C390.463 206.921 390.652 207.105 390.785 207.34C390.924 207.569 390.993 207.838 390.993 208.148C390.993 208.345 390.953 208.532 390.873 208.708C390.793 208.884 390.695 209.044 390.577 209.188C390.465 209.326 390.345 209.441 390.217 209.532V209.572C390.399 209.668 390.564 209.788 390.713 209.932C390.863 210.07 390.983 210.238 391.073 210.436C391.164 210.633 391.209 210.865 391.209 211.132C391.209 211.42 391.129 211.681 390.969 211.916C390.815 212.15 390.593 212.337 390.305 212.476C390.023 212.614 389.689 212.684 389.305 212.684ZM389.697 209.3C389.868 209.134 389.996 208.961 390.081 208.78C390.172 208.593 390.217 208.398 390.217 208.196C390.217 208.02 390.183 207.86 390.113 207.716C390.044 207.572 389.94 207.46 389.801 207.38C389.668 207.294 389.505 207.252 389.313 207.252C389.073 207.252 388.873 207.329 388.713 207.484C388.553 207.633 388.473 207.841 388.473 208.108C388.473 208.321 388.529 208.5 388.641 208.644C388.753 208.788 388.903 208.91 389.089 209.012C389.276 209.113 389.479 209.209 389.697 209.3ZM389.329 212.012C389.527 212.012 389.7 211.974 389.849 211.9C390.004 211.825 390.124 211.721 390.209 211.588C390.295 211.449 390.337 211.286 390.337 211.1C390.337 210.924 390.3 210.772 390.225 210.644C390.151 210.51 390.047 210.396 389.913 210.3C389.785 210.204 389.633 210.116 389.457 210.036C389.281 209.95 389.092 209.868 388.889 209.788C388.687 209.932 388.521 210.11 388.393 210.324C388.265 210.532 388.201 210.761 388.201 211.012C388.201 211.209 388.249 211.382 388.345 211.532C388.447 211.681 388.583 211.798 388.753 211.884C388.924 211.969 389.116 212.012 389.329 212.012Z" fill="#99A1AF"/>
</g>
<path d="M2 24H401H2M401.571 248C401.571 250.84 399.269 253.143 396.429 253.143H6.57143C3.73111 253.143 1.42857 250.84 1.42857 248H2.57143C2.57143 250.209 4.36229 252 6.57143 252H396.429C398.638 252 400.429 250.209 400.429 248H401.571ZM6.57143 253.143C3.73111 253.143 1.42857 250.84 1.42857 248V24H2.57143V248C2.57143 250.209 4.36229 252 6.57143 252V253.143ZM401.571 24V248C401.571 250.84 399.269 253.143 396.429 253.143V252C398.638 252 400.429 250.209 400.429 248V24H401.571Z" fill="#E5E7EB" mask="url(#path-5-inside-1_3672_5406)"/>
<g filter="url(#filter0_d_3672_5406)">
<rect x="93.5" y="120.695" width="85" height="60" rx="6.5" fill="white"/>
<rect x="93.5" y="120.695" width="85" height="60" rx="6.5" stroke="#51A2FF" stroke-width="3"/>
<g clip-path="url(#clip1_3672_5406)">
<path d="M153.916 143.029L147.833 145.883C147.374 146.095 147.041 146.607 147.041 147.118V154.273C147.041 154.784 147.333 155.295 147.833 155.508L153.916 158.362C154.791 158.788 155.791 158.107 155.791 157.127V144.264C155.791 143.284 154.791 142.645 153.916 143.029Z" fill="#2B7FFF"/>
<path d="M141.292 139.195H119.001C117.459 139.195 116.209 140.473 116.209 142.049V159.342C116.209 160.918 117.459 162.195 119.001 162.195H141.292C142.834 162.195 144.084 160.918 144.084 159.342V142.049C144.126 140.473 142.834 139.195 141.292 139.195ZM134.251 151.462L128.084 155.679C127.459 156.105 126.667 155.636 126.667 154.912V146.479C126.667 145.712 127.501 145.286 128.084 145.712L134.251 149.929C134.792 150.269 134.792 151.121 134.251 151.462Z" fill="#2B7FFF"/>
</g>
<rect x="92" y="139.195" width="4" height="16" fill="white"/>
<rect x="88" y="139.195" width="4" height="16" fill="#F3F4F6"/>
</g>
<circle cx="59.5" cy="166.695" r="6.5" fill="#51A2FF"/>
<line x1="59.3418" y1="166.896" x2="97.4469" y2="144.896" stroke="#51A2FF" stroke-width="3"/>
<rect x="1.5" y="22.6953" width="58" height="231" rx="2.5" stroke="#51A2FF" stroke-width="3"/>
<defs>
<filter id="filter0_d_3672_5406" x="72" y="103.195" width="124" height="95" filterUnits="userSpaceOnUse" color-interpolation-filters="sRGB">
<feFlood flood-opacity="0" result="BackgroundImageFix"/>
<feColorMatrix in="SourceAlpha" type="matrix" values="0 0 0 0 0 0 0 0 0 0 0 0 0 0 0 0 0 0 127 0" result="hardAlpha"/>
<feOffset/>
<feGaussianBlur stdDeviation="8"/>
<feComposite in2="hardAlpha" operator="out"/>
<feColorMatrix type="matrix" values="0 0 0 0 0 0 0 0 0 0 0 0 0 0 0 0 0 0 0.1 0"/>
<feBlend mode="normal" in2="BackgroundImageFix" result="effect1_dropShadow_3672_5406"/>
<feBlend mode="normal" in="SourceGraphic" in2="effect1_dropShadow_3672_5406" result="shape"/>
</filter>
<clipPath id="clip0_3672_5406">
<path d="M2 24H401V248C401 250.525 398.953 252.571 396.429 252.571H6.57145C4.04672 252.571 2 250.525 2 248V24Z" fill="white"/>
</clipPath>
<clipPath id="clip1_3672_5406">
<rect width="40" height="23" fill="white" transform="translate(116 139.195)"/>
</clipPath>
</defs>
</svg>
