<svg width="400" height="255" viewBox="0 0 400 255" fill="none" xmlns="http://www.w3.org/2000/svg">
<path d="M0 4.57143C0 2.0467 2.0467 0 4.57143 0H395.429C397.953 0 400 2.0467 400 4.57143V24H0V4.57143Z" fill="#51A2FF"/>
<path d="M17 17L12 12M12 12L17 7M12 12H22" stroke="white" stroke-width="2" stroke-linecap="round" stroke-linejoin="round"/>
<path d="M388 7L378 17M378 7L388 17" stroke="white" stroke-width="2" stroke-linecap="round" stroke-linejoin="round"/>
<mask id="path-5-inside-1_3578_1308" fill="white">
<path d="M0 24H400V250.429C400 252.953 397.953 255 395.429 255H4.57144C2.04671 255 0 252.953 0 250.429V24Z"/>
</mask>
<path d="M0 24H400V250.429C400 252.953 397.953 255 395.429 255H4.57144C2.04671 255 0 252.953 0 250.429V24Z" fill="white"/>
<path d="M0 24H400H0M404 250.429C404 255.162 400.162 259 395.429 259H4.57143C-0.162441 259 -4 255.162 -4 250.429H4C4 250.744 4.25584 251 4.57143 251H395.429C395.744 251 396 250.744 396 250.429H404ZM4.57143 259C-0.162441 259 -4 255.162 -4 250.429V24H4V250.429C4 250.744 4.25584 251 4.57143 251L4.57143 259ZM404 24V250.429C404 255.162 400.162 259 395.429 259V251C395.744 251 396 250.744 396 250.429V24H404Z" fill="#51A2FF" mask="url(#path-5-inside-1_3578_1308)"/>
<rect x="20" y="36" width="30" height="30" rx="15" fill="#EFF6FF"/>
<g clip-path="url(#clip0_3578_1308)">
<path d="M35.362 51.4058H34.6362C32.7535 51.408 30.9486 52.169 29.6174 53.5218C28.2862 54.8747 27.5373 56.7089 27.5352 58.6221V59.0728C27.5358 59.5803 27.7344 60.0668 28.0875 60.4257C28.4407 60.7845 28.9194 60.9864 29.4188 60.987H40.5794C41.0788 60.9865 41.5576 60.7846 41.9107 60.4258C42.2639 60.0669 42.4625 59.5803 42.463 59.0728V58.6221C42.4608 56.7089 41.712 54.8747 40.3808 53.5218C39.0495 52.169 37.2446 51.408 35.362 51.4058Z" fill="#2B7FFF"/>
<path d="M34.999 49.8087C37.3855 49.8087 39.3202 47.8426 39.3202 45.4173C39.3202 42.992 37.3855 41.0259 34.999 41.0259C32.6124 41.0259 30.6777 42.992 30.6777 45.4173C30.6777 47.8426 32.6124 49.8087 34.999 49.8087Z" fill="#2B7FFF"/>
</g>
<rect opacity="0.98" x="62" y="39" width="180" height="24" rx="4" fill="#EFF6FF"/>
<rect x="20" y="76" width="30" height="30" rx="15" fill="#FFEDD4"/>
<g clip-path="url(#clip1_3578_1308)">
<path d="M35.362 91.3853H34.6362C32.7535 91.3874 30.9486 92.1103 29.6174 93.3955C28.2862 94.6807 27.5373 96.4233 27.5352 98.2408V98.669C27.5358 99.1511 27.7344 99.6133 28.0875 99.9542C28.4407 100.295 28.9194 100.487 29.4188 100.487H40.5794C41.0788 100.487 41.5576 100.295 41.9107 99.9543C42.2639 99.6133 42.4625 99.1511 42.463 98.669V98.2408C42.4608 96.4233 41.712 94.6807 40.3808 93.3955C39.0495 92.1103 37.2446 91.3874 35.362 91.3853Z" fill="#FF8904"/>
<path d="M34.999 89.8681C37.3855 89.8681 39.3202 88.0003 39.3202 85.6963C39.3202 83.3922 37.3855 81.5244 34.999 81.5244C32.6124 81.5244 30.6777 83.3922 30.6777 85.6963C30.6777 88.0003 32.6124 89.8681 34.999 89.8681Z" fill="#FF8904"/>
</g>
<rect opacity="0.98" x="62" y="79" width="221" height="24" rx="4" fill="#FFEDD4"/>
<rect x="20" y="116" width="30" height="30" rx="15" fill="#EFF6FF"/>
<g clip-path="url(#clip2_3578_1308)">
<path d="M35.362 131.406H34.6362C32.7535 131.408 30.9486 132.169 29.6174 133.522C28.2862 134.875 27.5373 136.709 27.5352 138.622V139.073C27.5358 139.58 27.7344 140.067 28.0875 140.426C28.4407 140.785 28.9194 140.986 29.4188 140.987H40.5794C41.0788 140.986 41.5576 140.785 41.9107 140.426C42.2639 140.067 42.4625 139.58 42.463 139.073V138.622C42.4608 136.709 41.712 134.875 40.3808 133.522C39.0495 132.169 37.2446 131.408 35.362 131.406Z" fill="#2B7FFF"/>
<path d="M34.999 129.809C37.3855 129.809 39.3202 127.843 39.3202 125.417C39.3202 122.992 37.3855 121.026 34.999 121.026C32.6124 121.026 30.6777 122.992 30.6777 125.417C30.6777 127.843 32.6124 129.809 34.999 129.809Z" fill="#2B7FFF"/>
</g>
<rect opacity="0.98" x="62" y="119" width="155" height="24" rx="4" fill="#EFF6FF"/>
<rect x="20" y="156" width="30" height="30" rx="15" fill="#FFEDD4"/>
<g clip-path="url(#clip3_3578_1308)">
<path d="M35.362 171.385H34.6362C32.7535 171.387 30.9486 172.11 29.6174 173.396C28.2862 174.681 27.5373 176.423 27.5352 178.241V178.669C27.5358 179.151 27.7344 179.613 28.0875 179.954C28.4407 180.295 28.9194 180.487 29.4188 180.487H40.5794C41.0788 180.487 41.5576 180.295 41.9107 179.954C42.2639 179.613 42.4625 179.151 42.463 178.669V178.241C42.4608 176.423 41.712 174.681 40.3808 173.396C39.0495 172.11 37.2446 171.387 35.362 171.385Z" fill="#FF8904"/>
<path d="M34.999 169.868C37.3855 169.868 39.3202 168 39.3202 165.696C39.3202 163.392 37.3855 161.524 34.999 161.524C32.6124 161.524 30.6777 163.392 30.6777 165.696C30.6777 168 32.6124 169.868 34.999 169.868Z" fill="#FF8904"/>
</g>
<rect opacity="0.98" x="62" y="159" width="280" height="24" rx="4" fill="#FFEDD4"/>
<rect x="20" y="196" width="30" height="30" rx="15" fill="#EFF6FF"/>
<g clip-path="url(#clip4_3578_1308)">
<path d="M35.362 211.406H34.6362C32.7535 211.408 30.9486 212.169 29.6174 213.522C28.2862 214.875 27.5373 216.709 27.5352 218.622V219.073C27.5358 219.58 27.7344 220.067 28.0875 220.426C28.4407 220.785 28.9194 220.986 29.4188 220.987H40.5794C41.0788 220.986 41.5576 220.785 41.9107 220.426C42.2639 220.067 42.4625 219.58 42.463 219.073V218.622C42.4608 216.709 41.712 214.875 40.3808 213.522C39.0495 212.169 37.2446 211.408 35.362 211.406Z" fill="#2B7FFF"/>
<path d="M34.999 209.809C37.3855 209.809 39.3202 207.843 39.3202 205.417C39.3202 202.992 37.3855 201.026 34.999 201.026C32.6124 201.026 30.6777 202.992 30.6777 205.417C30.6777 207.843 32.6124 209.809 34.999 209.809Z" fill="#2B7FFF"/>
</g>
<rect opacity="0.98" x="62" y="194" width="240" height="44" rx="4" fill="#EFF6FF"/>
<defs>
<clipPath id="clip0_3578_1308">
<rect width="15" height="20" fill="white" transform="translate(27.5 41)"/>
</clipPath>
<clipPath id="clip1_3578_1308">
<rect width="15" height="19" fill="white" transform="translate(27.5 81.5)"/>
</clipPath>
<clipPath id="clip2_3578_1308">
<rect width="15" height="20" fill="white" transform="translate(27.5 121)"/>
</clipPath>
<clipPath id="clip3_3578_1308">
<rect width="15" height="19" fill="white" transform="translate(27.5 161.5)"/>
</clipPath>
<clipPath id="clip4_3578_1308">
<rect width="15" height="20" fill="white" transform="translate(27.5 201)"/>
</clipPath>
</defs>
</svg>
