<svg width="544" height="447" viewBox="0 0 544 447" fill="none" xmlns="http://www.w3.org/2000/svg">
<g clip-path="url(#clip0_594_2744)">
<path d="M272 446.008C422.136 446.008 543.846 438.9 543.846 430.132C543.846 421.363 422.136 414.255 272 414.255C121.864 414.255 0.154297 421.363 0.154297 430.132C0.154297 438.9 121.864 446.008 272 446.008Z" fill="#F5F5F5"/>
<path d="M265.649 176.094L268.004 179.011L44.0527 357.453L53.6008 369.277L54.9047 370.89L278.856 192.447L281.212 195.365L285.404 176.052L265.649 176.094Z" fill="#92E3A9"/>
<path opacity="0.7" d="M265.649 176.094L268.004 179.011L44.0527 357.453L53.6008 369.277L54.9047 370.89L278.856 192.447L281.212 195.365L285.404 176.052L265.649 176.094Z" fill="white"/>
<path d="M11.0899 369.936C11.0936 367.98 11.8718 366.106 13.254 364.723C14.6363 363.341 16.51 362.562 18.4648 362.559C19.1828 362.557 19.8968 362.666 20.5819 362.881C20.4691 362.129 20.4128 361.37 20.4136 360.609C20.4136 358.558 20.8177 356.527 21.6028 354.632C22.3879 352.737 23.5386 351.016 24.9892 349.566C26.4397 348.117 28.1616 346.967 30.0565 346.183C31.9514 345.4 33.9821 344.997 36.0326 344.999C36.9736 344.999 37.9125 345.089 38.8367 345.266C40.3861 342.763 42.7028 340.829 45.4413 339.751C48.1797 338.674 51.1931 338.511 54.0316 339.287C56.8702 340.063 59.3818 341.737 61.1916 344.058C63.0014 346.379 64.0124 349.223 64.0738 352.166H64.4945C66.2325 352.024 67.9812 352.243 69.6301 352.811C71.279 353.379 72.7925 354.282 74.0749 355.464C75.3573 356.646 76.3808 358.081 77.0809 359.679C77.781 361.277 78.1425 363.002 78.1425 364.747C78.1425 366.491 77.781 368.216 77.0809 369.814C76.3808 371.412 75.3573 372.847 74.0749 374.029C72.7925 375.211 71.279 376.115 69.6301 376.682C67.9812 377.25 66.2325 377.469 64.4945 377.327H18.2264C16.3085 377.269 14.4892 376.463 13.1561 375.083C11.8231 373.702 11.0817 371.855 11.0899 369.936Z" fill="#92E3A9"/>
<path opacity="0.8" d="M11.0899 369.936C11.0936 367.98 11.8718 366.106 13.254 364.723C14.6363 363.341 16.51 362.562 18.4648 362.559C19.1828 362.557 19.8968 362.666 20.5819 362.881C20.4691 362.129 20.4128 361.37 20.4136 360.609C20.4136 358.558 20.8177 356.527 21.6028 354.632C22.3879 352.737 23.5386 351.016 24.9892 349.566C26.4397 348.117 28.1616 346.967 30.0565 346.183C31.9514 345.4 33.9821 344.997 36.0326 344.999C36.9736 344.999 37.9125 345.089 38.8367 345.266C40.3861 342.763 42.7028 340.829 45.4413 339.751C48.1797 338.674 51.1931 338.511 54.0316 339.287C56.8702 340.063 59.3818 341.737 61.1916 344.058C63.0014 346.379 64.0124 349.223 64.0738 352.166H64.4945C66.2325 352.024 67.9812 352.243 69.6301 352.811C71.279 353.379 72.7925 354.282 74.0749 355.464C75.3573 356.646 76.3808 358.081 77.0809 359.679C77.781 361.277 78.1425 363.002 78.1425 364.747C78.1425 366.491 77.781 368.216 77.0809 369.814C76.3808 371.412 75.3573 372.847 74.0749 374.029C72.7925 375.211 71.279 376.115 69.6301 376.682C67.9812 377.25 66.2325 377.469 64.4945 377.327H18.2264C16.3085 377.269 14.4892 376.463 13.1561 375.083C11.8231 373.702 11.0817 371.855 11.0899 369.936Z" fill="white"/>
<path d="M480.558 289.137L486.152 296.065L382.049 380.174L404.678 408.196L407.777 412.039L511.866 327.916L517.46 334.845L527.415 289.039L480.558 289.137Z" fill="#92E3A9"/>
<path opacity="0.5" d="M480.558 289.137L486.152 296.065L382.049 380.174L404.678 408.196L407.777 412.039L511.866 327.916L517.46 334.845L527.415 289.039L480.558 289.137Z" fill="white"/>
<path d="M424.278 377.159C422.131 373.712 419.135 370.875 415.577 368.918C412.019 366.962 408.019 365.952 403.959 365.986C399.899 366.02 395.916 367.096 392.391 369.111C388.866 371.126 385.918 374.013 383.829 377.495C381.937 376.941 379.941 376.838 378.003 377.194C376.064 377.55 374.235 378.355 372.664 379.545C371.092 380.736 369.821 382.278 368.953 384.048C368.084 385.818 367.642 387.768 367.663 389.739H360.961C360.101 389.699 359.241 389.834 358.435 390.135C357.628 390.436 356.891 390.898 356.268 391.493C355.645 392.088 355.149 392.802 354.81 393.594C354.472 394.386 354.297 395.238 354.297 396.1C354.297 396.961 354.472 397.814 354.81 398.605C355.149 399.397 355.645 400.112 356.268 400.707C356.891 401.301 357.628 401.763 358.435 402.065C359.241 402.366 360.101 402.501 360.961 402.46H384.165C386.081 405.486 388.656 408.039 391.698 409.928C394.741 411.817 398.171 412.992 401.732 413.366C405.293 413.74 408.893 413.302 412.261 412.086C415.629 410.87 418.678 408.908 421.179 406.345C421.581 406.367 421.984 406.367 422.385 406.345C426.118 406.352 429.713 404.938 432.441 402.389C435.17 399.841 436.826 396.349 437.074 392.624C437.322 388.898 436.143 385.217 433.777 382.33C431.411 379.442 428.035 377.563 424.334 377.075L424.278 377.159Z" fill="#92E3A9"/>
<path opacity="0.8" d="M424.278 377.159C422.131 373.712 419.135 370.875 415.577 368.918C412.019 366.962 408.019 365.952 403.959 365.986C399.899 366.02 395.916 367.096 392.391 369.111C388.866 371.126 385.918 374.013 383.829 377.495C381.937 376.941 379.941 376.838 378.003 377.194C376.064 377.55 374.235 378.355 372.664 379.545C371.092 380.736 369.821 382.278 368.953 384.048C368.084 385.818 367.642 387.768 367.663 389.739H360.961C360.101 389.699 359.241 389.834 358.435 390.135C357.628 390.436 356.891 390.898 356.268 391.493C355.645 392.088 355.149 392.802 354.81 393.594C354.472 394.386 354.297 395.238 354.297 396.1C354.297 396.961 354.472 397.814 354.81 398.605C355.149 399.397 355.645 400.112 356.268 400.707C356.891 401.301 357.628 401.763 358.435 402.065C359.241 402.366 360.101 402.501 360.961 402.46H384.165C386.081 405.486 388.656 408.039 391.698 409.928C394.741 411.817 398.171 412.992 401.732 413.366C405.293 413.74 408.893 413.302 412.261 412.086C415.629 410.87 418.678 408.908 421.179 406.345C421.581 406.367 421.984 406.367 422.385 406.345C426.118 406.352 429.713 404.938 432.441 402.389C435.17 399.841 436.826 396.349 437.074 392.624C437.322 388.898 436.143 385.217 433.777 382.33C431.411 379.442 428.035 377.563 424.334 377.075L424.278 377.159Z" fill="white"/>
<path d="M267.991 92.5603L265.972 90.3864C265.704 90.1044 265.37 89.8948 265 89.7771C264.629 89.6594 264.235 89.6374 263.854 89.7132L260.784 90.3864C260.304 90.4819 259.866 90.7253 259.532 91.0825C259.197 91.4397 258.983 91.8927 258.919 92.378L257.377 105.001L262.06 106.81C267.78 104.313 267.486 96.7679 267.486 96.7679L268.299 95.2672C268.54 94.8413 268.641 94.3499 268.585 93.8635C268.53 93.3772 268.322 92.9209 267.991 92.5603Z" fill="#FFB573"/>
<path d="M211.388 130.554C211.388 130.554 215.888 130.821 218.524 130.765C221.16 130.709 223.824 130.681 226.418 130.526C229.012 130.372 231.577 130.176 233.933 129.853C235.009 129.709 236.077 129.503 237.129 129.236L238.139 128.914C238.447 128.773 238.139 129.012 238.279 128.914C239.009 128.184 239.688 127.407 240.312 126.585C241.083 125.604 241.854 124.552 242.626 123.486C244.168 121.34 245.682 119.11 247.21 116.866L256.366 103.276L263.53 107.076C262.479 109.699 261.329 112.224 260.193 114.776C259.058 117.329 257.796 119.825 256.562 122.336C255.328 124.846 253.982 127.343 252.552 129.839C251.837 131.087 251.15 132.336 250.281 133.612C249.369 135.082 248.327 136.466 247.168 137.749C246.233 138.723 245.15 139.542 243.958 140.176C243.054 140.66 242.117 141.077 241.153 141.424C239.581 142.004 237.969 142.473 236.33 142.826C233.406 143.488 230.441 143.956 227.455 144.229C221.74 144.811 215.995 145.036 210.252 144.902L211.388 130.554Z" fill="#92E3A9"/>
<path opacity="0.7" d="M263.588 107.104C262.536 109.713 261.401 112.238 260.265 114.79C259.129 117.343 257.868 119.839 256.62 122.364C255.372 124.888 254.054 127.357 252.624 129.853C251.909 131.101 251.222 132.35 250.339 133.626C249.437 135.099 248.4 136.484 247.24 137.763C246.282 138.738 245.175 139.552 243.959 140.176C243.057 140.666 242.12 141.088 241.155 141.438C239.584 142.01 237.978 142.479 236.346 142.84C233.42 143.495 230.456 143.963 227.471 144.243C226.223 144.369 224.989 144.467 223.769 144.566C219.269 144.888 214.838 145 210.268 144.902L210.492 141.957L211.375 130.639C211.375 130.639 215.862 130.919 218.498 130.849C221.134 130.779 223.797 130.765 226.405 130.611C229.013 130.456 231.565 130.274 233.92 129.937C234.999 129.804 236.067 129.598 237.117 129.32C237.46 129.235 237.798 129.128 238.127 128.998C238.435 128.857 238.127 129.11 238.267 128.998C238.996 128.269 239.676 127.491 240.3 126.669C241.071 125.688 241.842 124.636 242.599 123.57C244.141 121.424 245.67 119.194 247.198 116.95L256.353 103.36L263.588 107.104Z" fill="white"/>
<path opacity="0.1" d="M223.783 144.481C219.282 144.804 214.852 144.916 210.281 144.818L210.506 141.873L211.599 139.292C216.178 139.383 220.544 141.243 223.783 144.481Z" fill="black"/>
<path d="M136.406 382.11C136.406 382.11 123.788 373.372 124.489 367.509C124.515 367.374 124.512 367.235 124.482 367.101C124.452 366.967 124.394 366.841 124.312 366.73C124.23 366.619 124.127 366.527 124.008 366.458C123.888 366.389 123.756 366.346 123.619 366.331L112.866 364.704C112.603 364.654 112.331 364.681 112.083 364.78C111.834 364.879 111.619 365.048 111.464 365.265L105.154 374.228L107.958 375.251L109.487 374.185L110.216 376.079C125.709 381.689 132.466 383.947 135.887 384.087C136.897 382.881 136.406 382.11 136.406 382.11Z" fill="black"/>
<path d="M207.883 217.174C207.883 217.174 207.238 218.857 206.103 221.774C204.883 224.93 203.088 229.53 200.929 235C199.527 238.646 197.886 242.686 196.162 246.935C188.24 266.57 178.005 290.988 171.233 303.288C158.264 326.822 124.475 371.521 124.475 371.521L110.973 366.584C110.973 366.584 135.284 320.553 147.552 297.229C152.203 287.812 156.304 278.132 159.835 268.239C161.868 262.812 163.886 257.16 165.835 251.564C166.719 249.039 167.588 246.514 168.429 244.032C170.658 237.468 172.748 231.143 174.584 225.505C174.809 224.804 175.033 224.102 175.257 223.429C176 221.115 176.659 218.927 177.332 216.907C179.968 208.604 181.609 203.135 181.665 202.882L193.708 209.446L207.883 217.174Z" fill="#263238"/>
<path opacity="0.3" d="M206.102 221.774C204.883 224.93 203.088 229.53 200.929 235C199.527 238.646 197.886 242.686 196.162 246.935C185.142 249.151 173.925 250.652 165.863 251.564C166.747 249.039 167.616 246.514 168.457 244.032C170.686 237.468 172.775 231.143 174.612 225.505C174.836 224.804 175.061 224.102 175.285 223.429C176.028 221.115 176.687 218.927 177.36 216.907C185.464 218.015 196.288 219.67 206.102 221.774Z" fill="black"/>
<path d="M164.742 138.072C166.683 145.123 167.927 152.348 168.458 159.643C168.948 165.463 169.131 171.185 169.159 176.333C169.187 181.48 169.018 186.08 168.85 189.586C168.626 194.102 168.36 196.865 168.36 196.865L210.954 199.067C223.741 152.784 211.375 130.568 211.375 130.568C207.58 130.236 203.768 130.147 199.962 130.302C199.177 130.302 198.364 130.386 197.55 130.456C191.139 131.194 184.777 132.308 178.496 133.794C177.361 134.047 176.211 134.341 175.089 134.636C169.537 136.151 164.742 138.072 164.742 138.072Z" fill="#92E3A9"/>
<path opacity="0.7" d="M210.967 199.053L168.373 196.865C168.373 196.865 168.639 194.06 168.864 189.572C168.864 188.254 168.976 186.767 169.032 185.126C169.116 182.504 169.172 179.516 169.172 176.319C169.172 174.762 169.172 173.149 169.088 171.494C169.088 171.227 169.088 170.961 169.088 170.694C169.018 168.072 168.892 165.351 168.709 162.588C168.625 161.606 168.555 160.624 168.471 159.643C168.471 158.871 168.345 158.086 168.275 157.314C168.064 155.351 167.84 153.387 167.56 151.452C167.49 150.919 167.405 150.386 167.321 149.867C167.195 148.984 167.055 148.128 166.901 147.258C166.356 144.151 165.645 141.075 164.77 138.044C164.77 138.044 169.579 136.165 175.145 134.636C176.252 134.341 177.402 134.047 178.538 133.794C184.82 132.318 191.182 131.203 197.592 130.456C198.419 130.456 199.218 130.33 200.017 130.316C203.823 130.153 207.635 130.237 211.43 130.569C211.43 130.569 223.754 152.7 210.967 199.053Z" fill="white"/>
<path d="M237.312 309.936C237.312 309.936 225.142 300.483 226.264 294.677C226.297 294.543 226.302 294.404 226.279 294.268C226.256 294.132 226.206 294.003 226.131 293.887C226.056 293.771 225.958 293.672 225.844 293.596C225.729 293.52 225.6 293.467 225.465 293.443L214.809 291.199C214.553 291.141 214.285 291.156 214.038 291.243C213.79 291.33 213.571 291.485 213.407 291.69L206.551 300.231L209.355 301.423L210.939 300.441L211.556 302.363C226.712 308.856 233.33 311.507 236.793 311.844C237.761 310.694 237.312 309.936 237.312 309.936Z" fill="black"/>
<path d="M188.746 235.252H189.741L240.818 242.686L211.711 290.946L226.265 296.556C226.265 296.556 278.912 239.782 267.149 226.837C257.475 216.192 210.085 209.712 210.085 209.712L211.641 198.605L167.841 189.965C149.095 230.947 182.478 234.846 188.746 235.252Z" fill="#263238"/>
<path d="M167.322 194.271L166.396 194.088L167.238 191.143L168.065 191.297L167.322 194.271Z" fill="#263238"/>
<path d="M201.798 200.947L183.08 197.328L183.809 194.355L202.457 197.973L201.798 200.947Z" fill="#263238"/>
<path d="M203.902 198.254L211.81 199.783L211.277 202.784L203.271 201.227L203.902 198.254Z" fill="#263238"/>
<path d="M169.508 191.578L182.379 194.074L181.622 197.034L168.793 194.551L169.508 191.578Z" fill="#263238"/>
<g opacity="0.2">
<path d="M167.322 194.271L166.396 194.088L167.238 191.143L168.065 191.297L167.322 194.271Z" fill="white"/>
<path d="M201.798 200.947L183.08 197.328L183.809 194.355L202.457 197.973L201.798 200.947Z" fill="white"/>
<path d="M203.902 198.254L211.81 199.783L211.277 202.784L203.271 201.227L203.902 198.254Z" fill="white"/>
<path d="M169.51 191.578L182.381 194.074L181.624 197.034L168.795 194.551L169.51 191.578Z" fill="white"/>
</g>
<path d="M195.643 200.077H195.475L190.792 199.236C190.661 199.215 190.536 199.167 190.425 199.094C190.314 199.022 190.219 198.927 190.147 198.815C190.073 198.705 190.022 198.581 190.001 198.45C189.979 198.319 189.986 198.185 190.021 198.058L190.484 196.178C190.541 195.936 190.69 195.726 190.899 195.593C191.109 195.459 191.362 195.412 191.606 195.463L196.246 196.36C196.376 196.381 196.499 196.43 196.608 196.502C196.716 196.575 196.808 196.67 196.877 196.781C196.948 196.89 196.996 197.012 197.018 197.14C197.04 197.268 197.035 197.399 197.003 197.525L196.583 199.334C196.532 199.545 196.412 199.734 196.242 199.868C196.072 200.003 195.861 200.077 195.643 200.077ZM191.437 196.248C191.405 196.25 191.374 196.262 191.349 196.282C191.324 196.302 191.306 196.329 191.297 196.36L190.834 198.24C190.827 198.258 190.823 198.277 190.823 198.296C190.823 198.315 190.827 198.334 190.834 198.352C190.85 198.359 190.867 198.362 190.883 198.362C190.9 198.362 190.917 198.359 190.933 198.352L195.615 199.194C195.652 199.196 195.688 199.186 195.718 199.166C195.749 199.145 195.772 199.116 195.784 199.081L196.204 197.272C196.213 197.255 196.217 197.235 196.217 197.216C196.217 197.197 196.213 197.177 196.204 197.16C196.191 197.153 196.177 197.149 196.162 197.149C196.147 197.149 196.133 197.153 196.12 197.16L191.479 196.248H191.437Z" fill="white"/>
<path d="M192.728 197.987H192.658L191.256 197.735C191.202 197.727 191.15 197.707 191.104 197.679C191.058 197.65 191.018 197.612 190.987 197.568C190.955 197.523 190.933 197.473 190.921 197.42C190.91 197.367 190.909 197.312 190.919 197.258C190.926 197.203 190.944 197.151 190.972 197.104C191 197.056 191.038 197.015 191.083 196.984C191.127 196.952 191.179 196.93 191.233 196.919C191.287 196.909 191.342 196.909 191.396 196.922L192.798 197.174C192.852 197.182 192.903 197.202 192.949 197.23C192.996 197.259 193.036 197.297 193.067 197.341C193.098 197.386 193.12 197.436 193.132 197.489C193.144 197.542 193.144 197.597 193.134 197.651C193.115 197.745 193.064 197.83 192.99 197.891C192.916 197.952 192.824 197.986 192.728 197.987Z" fill="white"/>
<path d="M182.926 114.44L194.045 123.668C192.965 128.184 194.858 132.35 197.045 133.121C197.045 133.121 198.672 136.992 195.545 137.637C189.194 138.956 181.959 132.813 181.959 132.813C185.324 129.208 184.104 120.204 182.926 114.44Z" fill="#EBB376"/>
<path opacity="0.2" d="M187.455 118.198L194.044 123.654C193.765 124.702 193.578 125.772 193.484 126.852C191.016 126.529 187.609 123.893 187.329 121.312C187.189 120.275 187.231 119.221 187.455 118.198Z" fill="black"/>
<path d="M192.755 96.2068C195.447 97.8899 199.092 102.953 194.563 104.173C190.035 105.393 188.114 93.3177 192.755 96.2068Z" fill="#263238"/>
<path d="M178.848 113.514C183.559 119.713 185.998 123.598 191.466 124.734C199.696 126.417 205.669 118.03 202.907 110.513C200.411 103.752 193.093 94.7342 185.115 96.4874C183.348 96.8724 181.707 97.6968 180.344 98.8842C178.98 100.072 177.937 101.584 177.313 103.281C176.688 104.978 176.501 106.806 176.769 108.594C177.038 110.383 177.752 112.075 178.848 113.514Z" fill="#FFB573"/>
<path d="M180.234 106.74L174.626 100.148C174.626 100.148 167.153 105.646 170.546 108.97C168.316 114.229 177.191 121.592 184.959 120.078C185.87 115.323 178.944 107.217 178.944 107.217C179.382 107.079 179.812 106.92 180.234 106.74Z" fill="#263238"/>
<path d="M179.94 120.569C180.697 121.173 181.566 121.62 182.498 121.885C183.429 122.15 184.404 122.227 185.366 122.111C187.931 121.789 188.17 119.222 186.698 117.301C185.225 115.379 182.295 113.668 180.108 114.958C179.639 115.254 179.249 115.66 178.974 116.141C178.698 116.623 178.545 117.164 178.529 117.719C178.512 118.273 178.632 118.823 178.878 119.32C179.124 119.817 179.489 120.246 179.94 120.569Z" fill="#FFB573"/>
<path d="M189.825 108.619C190.176 109.138 190.751 109.377 191.087 109.152C191.424 108.928 191.424 108.297 191.087 107.75C190.751 107.203 190.176 106.992 189.825 107.217C189.475 107.441 189.475 108.142 189.825 108.619Z" fill="#263238"/>
<path d="M195.755 104.636C196.12 105.169 196.68 105.407 197.017 105.169C197.353 104.93 197.353 104.313 197.017 103.766C196.68 103.219 196.106 102.995 195.755 103.233C195.405 103.472 195.405 104.103 195.755 104.636Z" fill="#263238"/>
<path d="M194.045 106.179C195.733 107.302 197.568 108.184 199.499 108.801C199.134 110.204 197.284 110.919 197.284 110.919L194.045 106.179Z" fill="#ED893E"/>
<path d="M192.404 114.496C192.158 114.625 191.924 114.775 191.703 114.944C191.671 114.978 191.652 115.024 191.652 115.071C191.652 115.118 191.671 115.163 191.703 115.197C191.719 115.215 191.738 115.229 191.76 115.239C191.782 115.249 191.805 115.254 191.829 115.254C191.853 115.254 191.877 115.249 191.899 115.239C191.92 115.229 191.94 115.215 191.955 115.197C192.58 114.716 193.311 114.391 194.086 114.25C194.862 114.108 195.66 114.154 196.414 114.383C196.437 114.392 196.462 114.396 196.486 114.396C196.511 114.395 196.535 114.389 196.557 114.378C196.579 114.368 196.599 114.353 196.616 114.335C196.632 114.316 196.645 114.295 196.652 114.271C196.671 114.227 196.671 114.176 196.653 114.132C196.634 114.087 196.599 114.051 196.554 114.033C195.868 113.822 195.145 113.754 194.431 113.833C193.717 113.913 193.027 114.138 192.404 114.496Z" fill="#263238"/>
<path d="M185.773 106.936C185.839 106.94 185.905 106.926 185.964 106.897C186.023 106.867 186.073 106.823 186.109 106.768C186.356 106.373 186.691 106.042 187.088 105.798C187.484 105.555 187.932 105.407 188.395 105.365C188.444 105.367 188.494 105.359 188.54 105.341C188.586 105.322 188.628 105.294 188.662 105.258C188.697 105.222 188.723 105.18 188.74 105.133C188.757 105.086 188.763 105.036 188.759 104.987C188.759 104.89 188.721 104.797 188.653 104.729C188.584 104.66 188.491 104.622 188.395 104.622C187.802 104.666 187.229 104.851 186.722 105.16C186.215 105.47 185.788 105.896 185.479 106.403C185.425 106.487 185.407 106.589 185.428 106.686C185.449 106.783 185.508 106.868 185.591 106.922C185.649 106.945 185.712 106.95 185.773 106.936Z" fill="#263238"/>
<path d="M195.826 99.8534C195.847 99.7801 195.847 99.7023 195.826 99.629C195.797 99.535 195.732 99.4561 195.646 99.409C195.56 99.3619 195.458 99.3502 195.363 99.3765C194.794 99.5204 194.267 99.7994 193.827 100.19C193.388 100.581 193.049 101.071 192.84 101.621C192.812 101.715 192.821 101.817 192.866 101.906C192.91 101.994 192.986 102.063 193.078 102.097C193.124 102.113 193.173 102.119 193.221 102.115C193.269 102.111 193.316 102.098 193.36 102.075C193.403 102.053 193.441 102.023 193.472 101.985C193.503 101.948 193.526 101.905 193.541 101.859C193.709 101.423 193.981 101.034 194.333 100.727C194.684 100.419 195.105 100.201 195.56 100.092C195.621 100.078 195.678 100.049 195.724 100.008C195.771 99.9658 195.806 99.9127 195.826 99.8534Z" fill="#263238"/>
<path d="M178.902 107.217C178.902 107.217 193.708 100.989 194.619 93.8927C195.531 86.796 189.263 89.6852 189.263 89.6852C189.263 89.6852 192.166 89.4888 191.885 91.5926C191.885 91.5926 186.88 88.1845 182.071 91.1157C182.723 91.1165 183.366 91.2615 183.955 91.5403C184.544 91.8192 185.064 92.225 185.478 92.7286C181.995 93.6078 178.727 95.1873 175.874 97.3709C170.84 101.158 161.713 114.636 178.902 107.217Z" fill="#263238"/>
<path opacity="0.3" d="M210.112 209.6L185.982 206.795C194.156 205.715 202.41 205.377 210.645 205.785L210.112 209.6Z" fill="black"/>
<path opacity="0.1" d="M168.697 162.588C168.613 161.606 168.542 160.624 168.458 159.643C168.458 158.871 168.332 158.086 168.262 157.314C168.052 155.351 167.827 153.387 167.547 151.452C167.477 150.919 167.393 150.386 167.309 149.867C167.974 149.341 168.682 148.872 169.426 148.465C170.195 153.17 169.946 157.986 168.697 162.588Z" fill="black"/>
<path d="M128.499 196.978L124.293 206.795L133.364 209.039C133.364 209.039 137.262 202.574 133.462 197.637L128.499 196.978Z" fill="#EBB376"/>
<path d="M124.952 214.467L132.116 214.523L133.378 209.123L124.307 206.879L124.952 214.467Z" fill="#EBB376"/>
<path d="M169.313 144.832C169.944 151.003 167.827 153.514 167.827 153.514C167.827 153.514 161.854 157.272 159.26 159.194C157.059 160.863 154.9 162.546 152.853 164.229C151.843 165.084 150.862 165.94 149.965 166.795C149.166 167.546 148.416 168.347 147.721 169.194C147.464 169.551 147.225 169.92 147.006 170.302C146.754 170.708 146.487 171.326 146.207 171.831C145.66 172.953 145.113 174.159 144.595 175.407C143.557 177.917 142.576 180.526 141.65 183.177C139.701 188.45 137.893 193.892 136.042 199.236L127.756 197.258C128.597 191.452 129.733 185.771 131.051 180.035C131.738 177.23 132.453 174.313 133.392 171.396C133.827 169.993 134.318 168.464 134.878 166.95C135.215 166.15 135.495 165.435 135.916 164.579C136.325 163.68 136.793 162.808 137.318 161.971C138.318 160.483 139.434 159.076 140.655 157.763C141.762 156.557 142.87 155.449 143.992 154.369C146.221 152.237 148.506 150.288 150.834 148.408C155.475 144.636 160.129 141.186 165.121 137.848C165.163 137.89 168.752 139.25 169.313 144.832Z" fill="#92E3A9"/>
<path opacity="0.7" d="M169.313 144.832C169.944 151.003 167.827 153.514 167.827 153.514C167.827 153.514 161.854 157.272 159.26 159.194C157.059 160.863 154.9 162.546 152.853 164.229C151.843 165.084 150.862 165.94 149.965 166.795C149.166 167.546 148.416 168.347 147.721 169.194C147.464 169.551 147.225 169.92 147.006 170.302C146.754 170.708 146.487 171.326 146.207 171.831C145.66 172.953 145.113 174.159 144.595 175.407C143.557 177.917 142.576 180.526 141.65 183.177C139.701 188.45 137.893 193.892 136.042 199.236L127.756 197.258C128.597 191.452 129.733 185.771 131.051 180.035C131.738 177.23 132.453 174.313 133.392 171.396C133.827 169.993 134.318 168.464 134.878 166.95C135.215 166.15 135.495 165.435 135.916 164.579C136.325 163.68 136.793 162.808 137.318 161.971C138.318 160.483 139.434 159.076 140.655 157.763C141.762 156.557 142.87 155.449 143.992 154.369C146.221 152.237 148.506 150.288 150.834 148.408C155.475 144.636 160.129 141.186 165.121 137.848C165.163 137.89 168.752 139.25 169.313 144.832Z" fill="white"/>
<path d="M188.142 136.557L191.254 141.452C191.254 141.452 180.388 154.636 159.582 158.983L158.18 163.191L162.61 164.355C162.61 164.355 185.043 158.535 194.044 141.676L198.671 136.515L193.217 134.678L188.142 136.557Z" fill="#92E3A9"/>
<path d="M178.061 133.612L183.136 129.18L193.217 134.706L194.395 128.661L199.722 131.719L201.251 139.559L193.806 136.333L187.16 142.28L178.061 133.612Z" fill="#92E3A9"/>
<path opacity="0.6" d="M178.061 133.612L183.136 129.18L193.217 134.706L194.395 128.661L199.722 131.719L201.251 139.559L193.806 136.333L187.16 142.28L178.061 133.612Z" fill="white"/>
<path d="M317.133 45.8846C317.133 45.8846 307.697 57.5816 298.135 56.6138C288.573 55.6461 283.68 59.5311 283.68 59.5311L282.74 64.2015L287.872 63.5002C287.872 63.5002 287.872 59.7976 297.854 60.2183C307.837 60.6391 315.324 52.0557 318.24 48.1567L317.133 45.8846Z" fill="#92E3A9"/>
<path d="M384.851 26.4457L384.655 25.5201C384.571 25.0681 384.439 24.6262 384.263 24.2017C383.763 22.9346 382.981 21.7979 381.977 20.8777C380.732 19.755 379.273 18.8962 377.687 18.3532C375.684 17.6433 373.604 17.1725 371.49 16.9507C369.625 16.7403 367.844 16.6421 366.092 16.6001C362.601 16.5019 359.236 16.6001 355.913 16.8806C349.295 17.3203 342.706 18.1115 336.172 19.2508L338.583 33.0656C344.626 32.1119 350.936 31.2283 357.035 30.5972C360.091 30.2746 363.134 30.0923 366.064 29.9941C367.466 29.9941 368.966 29.9941 370.27 29.9941C371.121 30.0397 371.968 30.1333 372.808 30.2746C372.837 30.7884 372.837 31.3035 372.808 31.8174C372.626 34.5185 372.123 37.1882 371.308 39.7696C369.531 45.6024 367.266 51.2747 364.536 56.726L371.195 61.158C375.452 55.8266 379.027 49.9843 381.837 43.7668C383.374 40.37 384.44 36.7791 385.006 33.0936C385.307 30.8835 385.255 28.6395 384.851 26.4457Z" fill="#92E3A9"/>
<path opacity="0.7" d="M384.922 33.0796C384.475 36.1562 383.651 39.1662 382.469 42.0417C382.244 42.6167 382.006 43.1918 381.768 43.7528C378.953 49.9664 375.373 55.804 371.112 61.1299L364.536 56.726C367.294 51.3151 369.601 45.686 371.435 39.8959C371.991 38.058 372.417 36.1834 372.71 34.2858C372.83 33.5242 372.905 32.7561 372.935 31.9857C372.964 31.4718 372.964 30.9567 372.935 30.4429C372.095 30.3016 371.248 30.208 370.397 30.1624C368.995 30.0782 367.593 30.0782 366.191 30.1624H365.868C363.064 30.2606 360.106 30.4569 357.148 30.7514C351.231 31.3686 345.146 32.154 339.271 33.1498L338.71 33.2339L336.299 19.4051C342.829 18.2726 349.413 17.4815 356.026 17.0348C359.363 16.8245 362.728 16.6562 366.219 16.7543C367.971 16.7543 369.738 16.8946 371.617 17.105C373.729 17.3336 375.809 17.8042 377.814 18.5075C379.397 19.0557 380.856 19.9139 382.104 21.032C383.108 21.9522 383.89 23.0889 384.39 24.356C384.559 24.7831 384.69 25.2242 384.782 25.6743L384.978 26.6C385.293 28.7499 385.274 30.9355 384.922 33.0796Z" fill="white"/>
<path opacity="0.1" d="M365.742 30.0782C362.937 30.1764 359.979 30.3728 357.021 30.6673C351.104 31.2844 345.019 32.0698 339.145 33.0656C341.29 27.7922 343.491 22.4626 343.491 22.4626C351.307 23.6334 358.846 26.2138 365.742 30.0782Z" fill="black"/>
<path opacity="0.1" d="M382.468 42.0417C382.243 42.6167 382.005 43.1918 381.767 43.7528C378.952 49.9665 375.372 55.804 371.111 61.1299L364.535 56.726C367.293 51.3151 369.6 45.686 371.433 39.8959C371.989 38.058 372.416 36.1834 372.709 34.2858C376.161 36.6099 379.424 39.2033 382.468 42.0417Z" fill="black"/>
<path d="M292.862 29.2227C293.254 29.6996 293.296 30.3027 292.988 30.6252C292.68 30.9478 292.105 30.6252 291.712 30.2045C291.32 29.7837 291.277 29.1105 291.6 28.8721C291.922 28.6337 292.483 28.6757 292.862 29.2227Z" fill="#263238"/>
<path d="M293.354 30.2606C293.946 32.2033 294.267 34.2186 294.307 36.2493C294.826 36.2206 295.332 36.0805 295.792 35.8384C296.251 35.5964 296.653 35.2582 296.971 34.8468L293.354 30.2606Z" fill="#DE5753"/>
<path d="M292.511 25.1273C292.542 25.0937 292.566 25.0537 292.58 25.0102C292.595 24.9667 292.6 24.9205 292.595 24.8749C292.593 24.827 292.582 24.7799 292.562 24.7364C292.542 24.6928 292.514 24.6536 292.479 24.6211C292.443 24.5885 292.402 24.5632 292.357 24.5466C292.312 24.53 292.264 24.5224 292.217 24.5243C291.641 24.5375 291.078 24.6883 290.573 24.964C290.068 25.2397 289.636 25.6324 289.314 26.1091C289.267 26.1935 289.253 26.2928 289.277 26.3867C289.3 26.4806 289.359 26.5619 289.44 26.614C289.523 26.6607 289.62 26.6737 289.711 26.6501C289.803 26.6266 289.882 26.5684 289.931 26.4878C290.193 26.1114 290.54 25.803 290.945 25.5883C291.35 25.3736 291.8 25.2588 292.259 25.2536C292.307 25.2521 292.355 25.24 292.399 25.2182C292.442 25.1964 292.481 25.1654 292.511 25.1273Z" fill="#263238"/>
<path d="M306.826 21.6631C311.467 25.0011 320.328 30.2886 325.361 28.283C325.361 28.283 329.89 32.0558 325.544 41.5087C320.763 51.9154 318.099 44.1174 318.099 44.1174C319.347 37.8061 315.07 36.0249 310.654 35.1974L306.826 21.6631Z" fill="#E4897B"/>
<path d="M308.228 15.422C312.561 21.6632 315.421 25.0993 314.818 30.5271C313.935 38.7037 304.429 41.7472 298.316 36.9646C292.806 32.6168 286.637 23.1358 290.59 16.1653C291.456 14.6221 292.701 13.3259 294.209 12.3998C295.716 11.4737 297.435 10.9485 299.202 10.874C300.97 10.7995 302.727 11.1783 304.306 11.9743C305.886 12.7703 307.236 13.9571 308.228 15.422Z" fill="#E4897B"/>
<path d="M315.196 25.7164C314.537 29.2648 302.578 34.1315 297.236 26.4738C297.236 26.4738 290.45 26.4738 286.37 22.2662C282.29 18.0587 283.173 13.753 286.818 11.3406C290.043 9.2088 298.371 -6.4573 308.074 4.72075C318.603 4.3561 315.995 21.3125 315.196 25.7164Z" fill="#263238"/>
<path d="M295.077 9.71372C295.077 9.71372 288.824 9.40517 285.263 12.2663C281.701 15.1274 282.669 23.9352 284.057 25.5902C284.384 26.0464 284.802 26.4301 285.285 26.7173C285.767 27.0045 286.304 27.189 286.861 27.2592C286.861 27.2592 284.744 26.1512 284.744 24.4542C284.744 24.4542 285.669 26.6281 289.918 27.2592C289.586 26.9988 289.32 26.6635 289.142 26.2809C288.964 25.8982 288.879 25.479 288.894 25.0572C288.894 25.0572 291.193 28.0446 296.521 25.0572C301.849 22.0699 295.077 9.71372 295.077 9.71372Z" fill="#263238"/>
<path d="M300.391 25.1554C301.46 26.7149 301.987 28.5825 301.891 30.4709C301.737 32.9534 299.662 33.1498 298.022 31.5789C296.381 30.0081 294.867 27.189 295.835 25.1133C296.802 23.0376 299.073 23.3041 300.391 25.1554Z" fill="#E4897B"/>
<path d="M312.842 45.8846C312.842 45.8846 311.679 31.7612 320.89 23.837L331.868 24.8468C331.868 24.8468 325.545 40.2885 312.842 45.8846Z" fill="#92E3A9"/>
<path opacity="0.6" d="M312.842 45.8846C312.842 45.8846 311.679 31.7612 320.89 23.837L331.868 24.8468C331.868 24.8468 325.545 40.2885 312.842 45.8846Z" fill="white"/>
<path d="M344.486 77.6516C344.486 77.6516 327.886 61.3403 309.547 49.9379C309.547 49.9379 321.759 21.2284 337.238 18.6618C337.238 18.6618 377.238 30.7515 388.847 63.5423L344.486 77.6516Z" fill="#92E3A9"/>
<path d="M346.589 177.09L339.439 180.133L331.686 163.85L338.85 160.807L346.589 177.09Z" fill="#E4897B"/>
<path d="M388.847 63.5002L384.641 108.381C381.436 110.398 377.877 111.788 374.153 112.476C365.405 114.51 353.739 115.435 343.659 115.982C332.344 116.599 323.048 116.712 322.207 117.385C320.244 118.928 345.159 170.4 345.159 170.4L333.269 171.887C333.269 171.887 302.017 128.998 297.965 114.103C296.479 108.605 294.979 101.719 305.074 95.2812C313.963 89.6711 347.052 85.3654 347.052 85.3654L344.5 77.7217L388.847 63.5002Z" fill="#263238"/>
<path opacity="0.2" d="M374.139 112.434C365.39 114.468 353.725 115.393 343.644 115.94C342.242 99.3906 350.654 83.5141 350.654 83.5141L362.488 80.4846L374.139 112.434Z" fill="black"/>
<path d="M450.888 170.498L452.164 178.17L434.512 181.873L433.236 174.187L450.888 170.498Z" fill="#E4897B"/>
<path d="M452.529 178.45C452.501 178.43 452.466 178.419 452.431 178.419C452.396 178.419 452.361 178.43 452.333 178.45C452.3 178.464 452.271 178.488 452.251 178.518C452.231 178.547 452.221 178.583 452.221 178.619C452.221 178.759 452.333 181.887 453.3 182.826C453.479 183.005 453.721 183.106 453.973 183.107C454.118 183.12 454.263 183.088 454.388 183.015C454.514 182.942 454.614 182.832 454.674 182.7C454.885 182.181 454.492 181.297 453.973 180.442C453.554 179.735 453.07 179.069 452.529 178.45ZM452.613 179.11C453.553 180.232 454.576 181.915 454.338 182.476C454.338 182.56 454.226 182.658 453.973 182.672C453.815 182.669 453.663 182.603 453.553 182.49C453.468 182.408 453.397 182.313 453.342 182.209C452.904 181.232 452.657 180.18 452.613 179.11Z" fill="#92E3A9"/>
<path d="M452.472 178.408C452.445 178.392 452.413 178.384 452.381 178.384C452.349 178.384 452.318 178.392 452.29 178.408C452.29 178.408 450.538 179.741 450.369 181.003C450.317 181.371 450.413 181.744 450.636 182.041C450.944 182.448 451.239 182.434 451.435 182.349C452.262 182.013 452.711 179.544 452.585 178.521C452.585 178.521 452.585 178.521 452.585 178.45C452.57 178.436 452.553 178.424 452.533 178.417C452.514 178.41 452.493 178.407 452.472 178.408ZM450.734 181.087C450.996 180.236 451.521 179.489 452.234 178.955C452.234 180.063 451.785 181.76 451.295 182.041C451.295 182.041 451.126 182.111 450.93 181.845C450.923 181.812 450.923 181.779 450.93 181.746C450.787 181.557 450.718 181.323 450.734 181.087Z" fill="#92E3A9"/>
<path d="M451.197 178.352L446.738 171.115C446.661 170.98 446.63 170.823 446.651 170.669C446.671 170.514 446.741 170.371 446.85 170.26L451.926 165.323C452.049 165.204 452.198 165.114 452.361 165.06C452.524 165.007 452.697 164.991 452.867 165.014C453.037 165.037 453.199 165.098 453.342 165.193C453.485 165.288 453.605 165.414 453.692 165.561C455.263 168.198 457.436 172.055 459.455 175.379C461.81 179.222 464.067 182.391 466.83 186.908C468.512 189.628 466.227 192.069 465.273 191.115C460.941 186.627 458.263 182.476 452.655 179.699C452.055 179.391 451.551 178.925 451.197 178.352Z" fill="#263238"/>
<path d="M388.847 63.5002C388.847 63.5002 403.106 100.148 379.033 114.369C379.033 114.369 378.724 156.725 384.809 161.69C392.198 167.721 446.36 170.793 446.36 170.793L445.897 184.257C445.897 184.257 387.908 188.997 370.354 182.7C349.786 175.323 345.215 78.2827 345.215 78.2827L388.847 63.5002Z" fill="#263238"/>
<path opacity="0.2" d="M372.373 85.9965L381.024 83.3878C381.641 87.1715 382.034 90.9883 382.202 94.8184L378.192 98.2685L374.392 97.0624C373.931 93.3383 373.256 89.6436 372.373 85.9965Z" fill="black"/>
<path d="M347.345 77.6796L348.467 81.242L345.256 82.2378L344.135 78.7035L347.345 77.6796Z" fill="#263238"/>
<path d="M362.11 72.9391L363.316 76.6277L350.066 80.7371L348.889 77.1747L362.11 72.9391Z" fill="#263238"/>
<path d="M378.612 67.6516L379.818 71.5085L364.998 76.1088L363.82 72.3921L378.612 67.6516Z" fill="#263238"/>
<path d="M390.67 68.1425L381.542 70.9756H381.528L380.309 67.1046L389.366 64.2014L390.67 68.1425Z" fill="#263238"/>
<g opacity="0.2">
<path d="M347.345 77.6796L348.467 81.242L345.256 82.2378L344.135 78.7035L347.345 77.6796Z" fill="white"/>
<path d="M362.11 72.9391L363.316 76.6277L350.066 80.7371L348.889 77.1747L362.11 72.9391Z" fill="white"/>
<path d="M378.612 67.6516L379.818 71.5085L364.998 76.1088L363.82 72.3921L378.612 67.6516Z" fill="white"/>
<path d="M390.67 68.1425L381.542 70.9756H381.528L380.309 67.1046L389.366 64.2014L390.67 68.1425Z" fill="white"/>
</g>
<path d="M337.237 177.861C337.272 177.851 337.304 177.832 337.329 177.804C337.354 177.777 337.371 177.743 337.377 177.707C337.384 177.668 337.379 177.628 337.361 177.592C337.343 177.557 337.314 177.528 337.279 177.511C337.167 177.511 334.405 175.968 333.073 176.347C332.829 176.414 332.623 176.575 332.498 176.795C332.415 176.915 332.371 177.057 332.371 177.202C332.371 177.347 332.415 177.489 332.498 177.609C332.834 178.044 333.802 178.156 334.797 178.128C335.617 178.116 336.434 178.027 337.237 177.861ZM336.634 177.595C335.232 177.833 333.227 177.875 332.848 177.384C332.848 177.314 332.75 177.202 332.848 176.978C332.882 176.909 332.931 176.849 332.992 176.803C333.053 176.757 333.124 176.725 333.199 176.711C333.315 176.69 333.434 176.69 333.55 176.711C334.625 176.802 335.673 177.102 336.634 177.595Z" fill="#92E3A9"/>
<path d="M337.308 177.833C337.336 177.813 337.357 177.785 337.369 177.752C337.382 177.72 337.385 177.685 337.378 177.651C337.273 176.555 336.826 175.52 336.102 174.692C335.957 174.576 335.791 174.491 335.613 174.441C335.435 174.39 335.248 174.375 335.064 174.397C334.56 174.397 334.42 174.72 334.391 174.93C334.279 175.814 336.172 177.455 337.126 177.847H337.196L337.308 177.833ZM335.906 175.028C336.503 175.693 336.88 176.525 336.985 177.413C336.018 176.852 334.714 175.561 334.784 175.028C334.784 175.028 334.784 174.86 335.149 174.818H335.261C335.477 174.805 335.693 174.859 335.878 174.972L335.906 175.028Z" fill="#92E3A9"/>
<path d="M337.995 176.753L346.492 176.557C346.647 176.55 346.8 176.598 346.923 176.693C347.046 176.788 347.132 176.924 347.165 177.076L348.875 183.948C348.913 184.114 348.913 184.286 348.875 184.452C348.838 184.618 348.765 184.774 348.66 184.908C348.556 185.042 348.422 185.152 348.271 185.228C348.119 185.305 347.952 185.347 347.782 185.351C344.711 185.351 340.281 185.351 336.439 185.351C331.924 185.449 328.027 185.786 322.769 185.912C319.572 185.996 318.563 182.784 319.965 182.462C326.022 180.975 330.985 180.722 336.172 177.356C336.716 176.998 337.345 176.79 337.995 176.753Z" fill="#263238"/>
<path opacity="0.7" d="M388.847 63.5142L344.486 77.6516C344.486 77.6516 336.663 69.9798 325.825 61.4665C323.764 59.8536 321.619 58.2127 319.361 56.5858C316.207 54.2856 312.898 52.0276 309.547 49.9379C309.547 49.9379 321.773 21.2284 337.252 18.6758C337.238 18.6758 377.238 30.7514 388.847 63.5142Z" fill="white"/>
<path opacity="0.1" d="M325.825 61.4665C323.764 59.8536 321.619 58.2127 319.361 56.5858L320.231 53.9631C322.591 56.0531 324.495 58.6074 325.825 61.4665Z" fill="black"/>
<path d="M261.736 90.7511L258.68 91.4804C258.307 91.567 257.967 91.7625 257.705 92.0421C257.443 92.3218 257.27 92.673 257.208 93.0512L256.521 97.2587C256.448 97.6948 256.526 98.1428 256.743 98.5281C256.96 98.9134 257.302 99.2128 257.712 99.3766L259.956 100.26C259.956 100.26 266.405 104.916 271.859 101.915L269.504 95.6739L264.891 91.4664C264.462 91.1014 263.951 90.8458 263.402 90.7212C262.852 90.5966 262.281 90.6069 261.736 90.7511Z" fill="#E4897B"/>
<path d="M317.412 51.116C318.595 51.9388 319.585 53.0103 320.311 54.2554C321.038 55.5006 321.484 56.8895 321.618 58.3249C321.618 58.3249 318.533 66.74 316.753 70.8494C315.533 73.6544 314.271 76.4595 312.799 79.2645C311.28 82.3418 309.458 85.2595 307.359 87.9741L306.868 88.5491L306.307 89.1663C305.863 89.6212 305.395 90.0519 304.905 90.4566C304.606 90.7081 304.292 90.9422 303.966 91.1578C303.657 91.3682 303.209 91.6627 303.083 91.7188L301.891 92.3359C300.349 93.1073 298.904 93.7385 297.46 94.3135C294.572 95.4916 291.726 96.5295 288.866 97.5112C283.117 99.4327 277.411 101.186 271.55 102.658L268.746 95.155C274.004 92.4622 279.36 89.9096 284.589 87.2869C287.211 85.9825 289.819 84.6782 292.315 83.3598C293.549 82.7007 294.782 81.9573 295.848 81.3683L296.605 80.8914C296.703 80.8073 296.703 80.7932 296.829 80.6109L296.998 80.4005L297.194 80.106C298.55 77.9897 299.732 75.7663 300.727 73.4581C301.835 70.9335 302.956 68.3109 303.98 65.632C306.013 60.3025 307.962 54.7485 309.784 49.3629C312.455 48.9981 315.168 49.6215 317.412 51.116Z" fill="#92E3A9"/>
<path opacity="0.7" d="M317.412 51.116C318.595 51.9388 319.585 53.0103 320.311 54.2554C321.038 55.5006 321.484 56.8895 321.618 58.3249C321.618 58.3249 318.533 66.74 316.753 70.8494C315.533 73.6544 314.271 76.4595 312.799 79.2645C311.28 82.3418 309.458 85.2595 307.359 87.9741L306.868 88.5491L306.307 89.1663C305.863 89.6212 305.395 90.0519 304.905 90.4566C304.606 90.7081 304.292 90.9422 303.966 91.1578C303.657 91.3682 303.209 91.6627 303.083 91.7188L301.891 92.3359C300.349 93.1073 298.904 93.7385 297.46 94.3135C294.572 95.4916 291.726 96.5295 288.866 97.5112C283.117 99.4327 277.411 101.186 271.55 102.658L268.746 95.155C274.004 92.4622 279.36 89.9096 284.589 87.2869C287.211 85.9825 289.819 84.6782 292.315 83.3598C293.549 82.7007 294.782 81.9573 295.848 81.3683L296.605 80.8914C296.703 80.8073 296.703 80.7932 296.829 80.6109L296.998 80.4005L297.194 80.106C298.55 77.9897 299.732 75.7663 300.727 73.4581C301.835 70.9335 302.956 68.3109 303.98 65.632C306.013 60.3025 307.962 54.7485 309.784 49.3629C312.455 48.9981 315.168 49.6215 317.412 51.116Z" fill="white"/>
<path d="M61.0039 423.231H297.784L423.1 321.97L428.596 328.772H459.456L490.904 183.99L460.017 184.046L460.031 183.99L311.917 184.285L329.597 206.178L61.0039 423.231Z" fill="#92E3A9"/>
<path opacity="0.2" d="M61.0039 423.231H266.925L410.902 306.879L428.596 328.772L460.031 183.99L311.917 184.285L329.597 206.178L61.0039 423.231Z" fill="white"/>
<path d="M56.181 414.872H226.195C226.111 414.146 226.069 413.416 226.069 412.684C226.067 410.088 226.577 407.517 227.569 405.118C228.561 402.719 230.015 400.538 231.85 398.702C233.685 396.865 235.863 395.409 238.261 394.415C240.658 393.421 243.228 392.909 245.824 392.909H246.553C247.988 389.07 250.726 385.857 254.288 383.831C257.85 381.805 262.01 381.095 266.042 381.825C270.074 382.555 273.722 384.678 276.348 387.824C278.975 390.97 280.413 394.939 280.413 399.038C284.545 399.234 288.456 400.958 291.389 403.876C294.322 406.794 296.066 410.698 296.284 414.83H297.083C298.266 414.783 299.447 414.975 300.554 415.396C301.661 415.816 302.671 416.455 303.525 417.276C304.379 418.097 305.058 419.081 305.522 420.171C305.986 421.261 306.225 422.433 306.225 423.617C306.225 424.801 305.986 425.974 305.522 427.063C305.058 428.153 304.379 429.138 303.525 429.958C302.671 430.779 301.661 431.418 300.554 431.839C299.447 432.259 298.266 432.451 297.083 432.404H56.181C54.9979 432.451 53.8175 432.259 52.7106 431.839C51.6037 431.418 50.593 430.779 49.7392 429.958C48.8855 429.138 48.2062 428.153 47.7422 427.063C47.2782 425.974 47.0391 424.801 47.0391 423.617C47.0391 422.433 47.2782 421.261 47.7422 420.171C48.2062 419.081 48.8855 418.097 49.7392 417.276C50.593 416.455 51.6037 415.816 52.7106 415.396C53.8175 414.975 54.9979 414.783 56.181 414.83V414.872Z" fill="#92E3A9"/>
<path opacity="0.7" d="M56.181 414.872H226.195C226.111 414.146 226.069 413.416 226.069 412.684C226.067 410.088 226.577 407.517 227.569 405.118C228.561 402.719 230.015 400.538 231.85 398.702C233.685 396.865 235.863 395.409 238.261 394.415C240.658 393.421 243.228 392.909 245.824 392.909H246.553C247.988 389.07 250.726 385.857 254.288 383.831C257.85 381.805 262.01 381.095 266.042 381.825C270.074 382.555 273.722 384.678 276.348 387.824C278.975 390.97 280.413 394.939 280.413 399.038C284.545 399.234 288.456 400.958 291.389 403.876C294.322 406.794 296.066 410.698 296.284 414.83H297.083C298.266 414.783 299.447 414.975 300.554 415.396C301.661 415.816 302.671 416.455 303.525 417.276C304.379 418.097 305.058 419.081 305.522 420.171C305.986 421.261 306.225 422.433 306.225 423.617C306.225 424.801 305.986 425.974 305.522 427.063C305.058 428.153 304.379 429.138 303.525 429.958C302.671 430.779 301.661 431.418 300.554 431.839C299.447 432.259 298.266 432.451 297.083 432.404H56.181C54.9979 432.451 53.8175 432.259 52.7106 431.839C51.6037 431.418 50.593 430.779 49.7392 429.958C48.8855 429.138 48.2062 428.153 47.7422 427.063C47.2782 425.974 47.0391 424.801 47.0391 423.617C47.0391 422.433 47.2782 421.261 47.7422 420.171C48.2062 419.081 48.8855 418.097 49.7392 417.276C50.593 416.455 51.6037 415.816 52.7106 415.396C53.8175 414.975 54.9979 414.783 56.181 414.83V414.872Z" fill="white"/>
</g>
<defs>
<clipPath id="clip0_594_2744">
<rect width="544" height="446" fill="white" transform="translate(0 0.625397)"/>
</clipPath>
</defs>
</svg>
