<svg width="180" height="158" viewBox="0 0 180 158" fill="none" xmlns="http://www.w3.org/2000/svg">
<g clip-path="url(#clip0_2517_3)">
<path d="M106.027 25.3634C75.3808 36.2241 18.5555 3.63258 3.45499 44.1705C-14.5125 92.4416 52.8854 106.611 85.9442 109.279C132.586 113.056 175.824 94.5776 175.086 41.2375C174.808 21.3694 160.978 4.17005 139.828 0.639379C116.711 -3.1693 123.586 19.1407 106.027 25.3634Z" fill="#92E3A9"/>
<path opacity="0.9" d="M106.027 25.3634C75.3808 36.2241 18.5555 3.63258 3.45499 44.1705C-14.5125 92.4416 52.8854 106.611 85.9442 109.279C132.586 113.056 175.824 94.5776 175.086 41.2375C174.808 21.3694 160.978 4.17005 139.828 0.639379C116.711 -3.1693 123.586 19.1407 106.027 25.3634Z" fill="white"/>
<path d="M89.9997 157.796C139.677 157.796 179.949 155.448 179.949 152.551C179.949 149.654 139.677 147.306 89.9997 147.306C40.3223 147.306 0.0507812 149.654 0.0507812 152.551C0.0507812 155.448 40.3223 157.796 89.9997 157.796Z" fill="#F5F5F5"/>
<path d="M97.6638 35.3808C97.8194 35.3824 97.9738 35.3519 98.1172 35.2914C98.2606 35.2309 98.39 35.1417 98.4974 35.0291C98.6049 34.9166 98.688 34.7833 98.7417 34.6373C98.7954 34.4914 98.8185 34.336 98.8096 34.1808L98.4663 27.3372C98.4476 27.0142 98.307 26.7103 98.0728 26.4868C97.8387 26.2633 97.5284 26.1367 97.2045 26.1325H96.2767L95.437 9.10465C95.3284 7.28794 94.5369 5.57921 93.2207 4.32054C91.9046 3.06187 90.161 2.34615 88.339 2.31667H34.9468C34.0699 2.31077 33.2012 2.48457 32.3943 2.82732C31.5874 3.17008 30.8594 3.67451 30.2555 4.30943C29.6515 4.94434 29.1844 5.69624 28.8829 6.51863C28.5815 7.34103 28.4522 8.21645 28.5029 9.09075L29.3473 26.1974C29.1047 26.2856 28.897 26.4495 28.7549 26.6648C28.6129 26.8801 28.544 27.1354 28.5586 27.3928L29.3705 43.8091C29.389 44.0778 29.487 44.3349 29.6523 44.5478C29.8175 44.7606 30.0424 44.9196 30.2983 45.0045L33.8658 117.448C33.978 119.266 34.7737 120.973 36.0934 122.23C37.4131 123.486 39.1594 124.198 40.9823 124.222H94.37C95.2468 124.228 96.1155 124.054 96.9224 123.712C97.7294 123.369 98.4573 122.864 99.0612 122.229C99.6652 121.595 100.132 120.843 100.434 120.02C100.735 119.198 100.865 118.322 100.814 117.448L97.3576 47.6224H98.2854C98.4411 47.6239 98.5954 47.5935 98.7388 47.533C98.8822 47.4725 99.0117 47.3832 99.1191 47.2707C99.2265 47.1582 99.3097 47.0248 99.3634 46.8789C99.4171 46.7329 99.4402 46.5775 99.4313 46.4223L99.0926 39.5648C99.0717 39.2431 98.9303 38.9409 98.6964 38.7186C98.4626 38.4962 98.1536 38.3699 97.8308 38.3648H96.9029L96.7545 35.3808H97.6638Z" fill="#92E3A9"/>
<path d="M42.111 124.222H95.4986C96.3756 124.228 97.2446 124.054 98.0517 123.712C98.8588 123.369 99.5871 122.865 100.191 122.23C100.796 121.595 101.263 120.843 101.565 120.021C101.867 119.198 101.997 118.323 101.947 117.448L96.5842 9.09538C96.4742 7.27757 95.6801 5.56854 94.361 4.31125C93.0419 3.05395 91.2955 2.34143 89.4723 2.31667H36.08C35.203 2.31081 34.3341 2.4846 33.5269 2.8273C32.7198 3.17001 31.9916 3.67436 31.3872 4.3092C30.7829 4.94403 30.3153 5.69588 30.0134 6.51829C29.7114 7.3407 29.5815 8.21621 29.6316 9.09075L34.9945 117.444C35.1055 119.262 35.9007 120.971 37.2205 122.228C38.5404 123.485 40.2873 124.198 42.111 124.222Z" fill="#92E3A9"/>
<path opacity="0.4" d="M42.111 124.222H95.4986C96.3756 124.228 97.2446 124.054 98.0517 123.712C98.8588 123.369 99.5871 122.865 100.191 122.23C100.796 121.595 101.263 120.843 101.565 120.021C101.867 119.198 101.997 118.323 101.947 117.448L96.5842 9.09538C96.4742 7.27757 95.6801 5.56854 94.361 4.31125C93.0419 3.05395 91.2955 2.34143 89.4723 2.31667H36.08C35.203 2.31081 34.3341 2.4846 33.5269 2.8273C32.7198 3.17001 31.9916 3.67436 31.3872 4.3092C30.7829 4.94403 30.3153 5.69588 30.0134 6.51829C29.7114 7.3407 29.5815 8.21621 29.6316 9.09075L34.9945 117.444C35.1055 119.262 35.9007 120.971 37.2205 122.228C38.5404 123.485 40.2873 124.198 42.111 124.222Z" fill="#FAFAFA"/>
<path d="M37.7242 114.775H98.9613C99.0979 114.776 99.2333 114.75 99.3592 114.697C99.4851 114.644 99.5987 114.566 99.6931 114.467C99.7875 114.368 99.8606 114.251 99.9079 114.123C99.9552 113.995 99.9756 113.859 99.968 113.723L94.967 13.0523C94.9494 12.7695 94.8253 12.5039 94.6196 12.3088C94.4139 12.1136 94.1419 12.0035 93.8582 12.0006H32.6211C32.4847 11.999 32.3495 12.0256 32.2238 12.0786C32.0982 12.1316 31.9848 12.2098 31.8908 12.3085C31.7967 12.4072 31.7241 12.5242 31.6773 12.6522C31.6306 12.7801 31.6107 12.9164 31.619 13.0523L36.5969 113.723C36.6146 114.009 36.7414 114.277 36.951 114.473C37.1606 114.668 37.4373 114.776 37.7242 114.775Z" fill="white"/>
<path opacity="0.7" d="M69.3637 5.45351H56.49C56.382 5.45269 56.275 5.47403 56.1756 5.5162C56.0762 5.55837 55.9866 5.62047 55.9122 5.69866C55.8378 5.77685 55.7803 5.86946 55.7432 5.97076C55.7062 6.07205 55.6903 6.17987 55.6967 6.28753C55.7096 6.51215 55.8072 6.72355 55.9699 6.87916C56.1326 7.03477 56.3482 7.12304 56.5735 7.12618H69.4472C69.5556 7.12705 69.663 7.10559 69.7627 7.06314C69.8624 7.02069 69.9523 6.95816 70.0268 6.87946C70.1012 6.80076 70.1586 6.70758 70.1954 6.60574C70.2322 6.50389 70.2475 6.39557 70.2405 6.28753C70.2265 6.06374 70.1284 5.85349 69.9658 5.69884C69.8032 5.5442 69.5882 5.45658 69.3637 5.45351Z" fill="#92E3A9"/>
<path opacity="0.6" d="M116.453 93.8223H62.9264L59.0898 16.2772H112.617L116.453 93.8223Z" fill="#92E3A9"/>
<path d="M110.133 72.6197C110.108 72.6241 110.083 72.6241 110.058 72.6197C110.035 72.6114 110.014 72.597 109.998 72.578C109.98 72.5611 109.966 72.5405 109.956 72.5178C109.952 72.4932 109.952 72.4682 109.956 72.4436C109.956 72.392 109.977 72.3425 110.013 72.306C110.05 72.2695 110.099 72.249 110.151 72.249C110.203 72.249 110.252 72.2695 110.289 72.306C110.325 72.3425 110.346 72.392 110.346 72.4436C110.35 72.4682 110.35 72.4932 110.346 72.5178C110.336 72.5405 110.322 72.5611 110.304 72.578C110.288 72.597 110.267 72.6114 110.244 72.6197C110.208 72.6308 110.169 72.6308 110.133 72.6197Z" fill="white"/>
<path d="M110.666 87.1085C110.665 87.0835 110.669 87.0586 110.677 87.0351C110.685 87.0115 110.698 86.9899 110.715 86.9714C110.732 86.9529 110.752 86.9379 110.775 86.9272C110.798 86.9165 110.822 86.9104 110.847 86.9093C110.898 86.9067 110.948 86.9242 110.986 86.958C111.024 86.9918 111.048 87.0391 111.051 87.0899C111.052 87.1155 111.049 87.1411 111.04 87.1652C111.031 87.1892 111.018 87.2114 111.001 87.2303C110.983 87.2493 110.963 87.2646 110.939 87.2755C110.916 87.2864 110.891 87.2926 110.866 87.2938C110.815 87.2951 110.765 87.2764 110.728 87.2418C110.691 87.2071 110.668 87.1593 110.666 87.1085ZM110.592 85.6443C110.591 85.6188 110.594 85.5932 110.603 85.5691C110.612 85.545 110.625 85.5229 110.642 85.5039C110.66 85.485 110.68 85.4697 110.704 85.4588C110.727 85.4479 110.752 85.4416 110.777 85.4404C110.803 85.4392 110.828 85.443 110.852 85.4517C110.876 85.4604 110.898 85.4738 110.916 85.4911C110.935 85.5084 110.95 85.5292 110.96 85.5523C110.971 85.5755 110.976 85.6004 110.977 85.6258C110.978 85.6507 110.974 85.6757 110.966 85.6992C110.958 85.7228 110.945 85.7444 110.928 85.7629C110.911 85.7814 110.891 85.7964 110.868 85.8071C110.845 85.8177 110.821 85.8238 110.796 85.825C110.745 85.8276 110.695 85.8101 110.657 85.7763C110.619 85.7425 110.595 85.6951 110.592 85.6443ZM110.522 84.1755C110.521 84.1506 110.525 84.1256 110.533 84.1021C110.542 84.0786 110.555 84.0569 110.571 84.0384C110.588 84.0199 110.608 84.0049 110.631 83.9942C110.654 83.9836 110.678 83.9775 110.703 83.9763C110.728 83.9744 110.754 83.9776 110.777 83.9858C110.801 83.994 110.823 84.0069 110.842 84.0238C110.86 84.0407 110.875 84.0612 110.886 84.0841C110.896 84.107 110.902 84.1318 110.903 84.157C110.905 84.1823 110.901 84.2078 110.893 84.2318C110.885 84.2559 110.872 84.2781 110.855 84.2971C110.838 84.3161 110.818 84.3315 110.795 84.3425C110.772 84.3534 110.747 84.3597 110.722 84.3609C110.671 84.3621 110.621 84.3434 110.584 84.3088C110.547 84.2742 110.525 84.2263 110.522 84.1755ZM110.448 82.7067C110.447 82.6566 110.465 82.608 110.498 82.5709C110.532 82.5338 110.579 82.5111 110.629 82.5075C110.68 82.5049 110.73 82.5224 110.768 82.5562C110.806 82.59 110.83 82.6374 110.833 82.6882C110.836 82.7391 110.818 82.7889 110.784 82.827C110.75 82.8651 110.703 82.8885 110.652 82.8921C110.627 82.8933 110.601 82.8895 110.577 82.8809C110.553 82.8722 110.531 82.8589 110.512 82.8417C110.493 82.8245 110.477 82.8037 110.466 82.7805C110.455 82.7574 110.449 82.7323 110.448 82.7067ZM110.374 81.2426C110.373 81.217 110.376 81.1914 110.385 81.1673C110.394 81.1433 110.407 81.1211 110.424 81.1022C110.441 81.0832 110.462 81.0679 110.485 81.057C110.509 81.0461 110.534 81.0399 110.559 81.0387C110.585 81.0374 110.61 81.0413 110.634 81.05C110.658 81.0587 110.68 81.0721 110.698 81.0893C110.717 81.1066 110.732 81.1274 110.742 81.1506C110.753 81.1737 110.758 81.1987 110.759 81.224C110.76 81.249 110.756 81.2739 110.748 81.2975C110.74 81.321 110.727 81.3426 110.71 81.3611C110.693 81.3796 110.673 81.3947 110.65 81.4053C110.627 81.416 110.603 81.4221 110.578 81.4233C110.527 81.4258 110.477 81.4083 110.439 81.3745C110.401 81.3408 110.377 81.2934 110.374 81.2426ZM110.304 79.7738C110.303 79.7488 110.307 79.7239 110.315 79.7003C110.324 79.6768 110.336 79.6552 110.353 79.6367C110.37 79.6181 110.39 79.6031 110.413 79.5925C110.436 79.5818 110.46 79.5757 110.485 79.5745C110.511 79.5726 110.536 79.5759 110.56 79.584C110.584 79.5921 110.606 79.605 110.625 79.6218C110.644 79.6387 110.66 79.6591 110.671 79.6821C110.682 79.705 110.688 79.7299 110.689 79.7552C110.691 79.8065 110.672 79.8564 110.637 79.8944C110.603 79.9324 110.555 79.9555 110.504 79.9591C110.453 79.9604 110.403 79.9417 110.366 79.907C110.329 79.8724 110.307 79.8246 110.304 79.7738ZM110.23 78.305C110.229 78.2541 110.247 78.2048 110.282 78.1676C110.317 78.1303 110.365 78.1081 110.416 78.1057C110.441 78.1045 110.466 78.1082 110.489 78.1166C110.513 78.125 110.534 78.138 110.553 78.1547C110.571 78.1715 110.586 78.1918 110.597 78.2144C110.608 78.237 110.614 78.2615 110.615 78.2864C110.618 78.3373 110.6 78.3871 110.566 78.4253C110.532 78.4634 110.485 78.4867 110.434 78.4903C110.409 78.4915 110.383 78.4877 110.359 78.4791C110.335 78.4705 110.313 78.4571 110.294 78.4399C110.275 78.4227 110.259 78.4019 110.248 78.3788C110.237 78.3556 110.231 78.3305 110.23 78.305ZM110.16 76.8408C110.159 76.8155 110.162 76.79 110.17 76.766C110.178 76.7419 110.191 76.7197 110.208 76.7007C110.225 76.6817 110.245 76.6662 110.268 76.6553C110.291 76.6443 110.316 76.6381 110.341 76.6369C110.367 76.6357 110.392 76.6395 110.416 76.6482C110.44 76.6569 110.462 76.6703 110.48 76.6876C110.499 76.7049 110.514 76.7257 110.524 76.7488C110.535 76.7719 110.54 76.7969 110.541 76.8223C110.542 76.8472 110.538 76.8722 110.53 76.8957C110.522 76.9192 110.509 76.9409 110.492 76.9594C110.475 76.9779 110.455 76.9929 110.432 77.0036C110.409 77.0142 110.385 77.0203 110.36 77.0215C110.335 77.0228 110.31 77.0191 110.286 77.0107C110.263 77.0022 110.241 76.9893 110.223 76.9725C110.204 76.9557 110.189 76.9354 110.178 76.9128C110.168 76.8902 110.162 76.8658 110.16 76.8408ZM110.086 75.372C110.085 75.347 110.089 75.3221 110.097 75.2986C110.105 75.275 110.118 75.2534 110.135 75.2349C110.152 75.2164 110.172 75.2014 110.195 75.1907C110.218 75.1801 110.242 75.174 110.267 75.1728C110.318 75.1702 110.368 75.1877 110.406 75.2215C110.444 75.2553 110.468 75.3027 110.471 75.3535C110.473 75.4048 110.454 75.4546 110.419 75.4926C110.385 75.5306 110.337 75.5538 110.286 75.5573C110.235 75.5586 110.185 75.5399 110.148 75.5053C110.111 75.4706 110.089 75.4228 110.086 75.372ZM110.012 73.9078C110.011 73.8823 110.015 73.8567 110.023 73.8326C110.032 73.8085 110.045 73.7864 110.062 73.7675C110.08 73.7485 110.1 73.7332 110.124 73.7223C110.147 73.7114 110.172 73.7052 110.198 73.704C110.222 73.7027 110.247 73.7064 110.271 73.7148C110.295 73.7232 110.316 73.7362 110.335 73.753C110.353 73.7698 110.368 73.79 110.379 73.8126C110.39 73.8352 110.396 73.8597 110.397 73.8847C110.4 73.9355 110.382 73.9854 110.348 74.0235C110.314 74.0616 110.267 74.085 110.216 74.0885C110.165 74.0911 110.115 74.0736 110.077 74.0398C110.039 74.006 110.016 73.9586 110.012 73.9078Z" fill="white"/>
<path d="M110.932 88.7626C110.906 88.7625 110.881 88.7571 110.858 88.7468C110.835 88.7364 110.814 88.7212 110.797 88.7023C110.779 88.6852 110.765 88.6643 110.755 88.6411C110.745 88.618 110.741 88.593 110.742 88.568C110.737 88.5434 110.737 88.5183 110.742 88.4938C110.75 88.4704 110.764 88.4496 110.783 88.4336C110.8 88.4156 110.821 88.4014 110.844 88.3919C110.891 88.3733 110.944 88.3733 110.992 88.3919C111.016 88.4013 111.038 88.4155 111.057 88.4336C111.073 88.4512 111.086 88.4716 111.094 88.4938C111.1 88.5181 111.1 88.5436 111.094 88.568C111.093 88.6182 111.073 88.6661 111.039 88.7023C111.02 88.7204 110.998 88.7346 110.974 88.744C110.961 88.7525 110.947 88.7588 110.932 88.7626Z" fill="white"/>
<path d="M109.182 88.568C109.182 88.5426 109.187 88.5175 109.197 88.4942C109.207 88.4708 109.222 88.4497 109.24 88.432C109.258 88.4143 109.279 88.4004 109.303 88.3911C109.327 88.3818 109.352 88.3774 109.377 88.378C109.402 88.378 109.427 88.3829 109.45 88.3925C109.473 88.402 109.494 88.416 109.512 88.4336C109.529 88.4513 109.543 88.4722 109.553 88.4953C109.562 88.5183 109.567 88.543 109.567 88.568C109.567 88.6188 109.548 88.6676 109.512 88.704C109.476 88.7403 109.428 88.7614 109.377 88.7626C109.326 88.7626 109.276 88.7421 109.239 88.7056C109.203 88.6691 109.182 88.6196 109.182 88.568ZM107.624 88.568C107.624 88.5426 107.629 88.5175 107.638 88.4942C107.648 88.4708 107.663 88.4497 107.681 88.432C107.699 88.4143 107.721 88.4004 107.744 88.3911C107.768 88.3818 107.793 88.3774 107.818 88.378C107.843 88.378 107.868 88.3829 107.891 88.3925C107.914 88.402 107.935 88.416 107.953 88.4336C107.971 88.4513 107.985 88.4722 107.994 88.4953C108.004 88.5183 108.009 88.543 108.009 88.568C108.009 88.5933 108.005 88.6185 107.996 88.6421C107.986 88.6657 107.972 88.6872 107.955 88.7053C107.937 88.7234 107.916 88.7378 107.892 88.7477C107.869 88.7575 107.844 88.7626 107.818 88.7626C107.768 88.7614 107.719 88.7403 107.684 88.704C107.648 88.6676 107.628 88.6188 107.628 88.568H107.624ZM106.069 88.568C106.069 88.543 106.074 88.5183 106.084 88.4953C106.093 88.4722 106.108 88.4513 106.125 88.4336C106.143 88.416 106.164 88.402 106.187 88.3925C106.21 88.3829 106.235 88.378 106.26 88.378C106.285 88.3774 106.31 88.3818 106.334 88.3911C106.357 88.4004 106.379 88.4143 106.397 88.432C106.415 88.4497 106.43 88.4708 106.44 88.4942C106.449 88.5175 106.455 88.5426 106.455 88.568C106.455 88.6196 106.434 88.6691 106.397 88.7056C106.361 88.7421 106.311 88.7626 106.26 88.7626C106.234 88.7626 106.209 88.7575 106.186 88.7477C106.162 88.7378 106.141 88.7234 106.124 88.7053C106.106 88.6872 106.092 88.6657 106.083 88.6421C106.073 88.6185 106.069 88.5933 106.069 88.568ZM104.511 88.568C104.511 88.5426 104.516 88.5175 104.526 88.4942C104.535 88.4708 104.55 88.4497 104.568 88.432C104.586 88.4143 104.608 88.4004 104.631 88.3911C104.655 88.3818 104.68 88.3774 104.706 88.378C104.731 88.378 104.755 88.3829 104.778 88.3925C104.801 88.402 104.822 88.416 104.84 88.4336C104.858 88.4513 104.872 88.4722 104.881 88.4953C104.891 88.5183 104.896 88.543 104.896 88.568C104.896 88.5933 104.892 88.6185 104.883 88.6421C104.873 88.6657 104.859 88.6872 104.842 88.7053C104.824 88.7234 104.803 88.7378 104.779 88.7477C104.756 88.7575 104.731 88.7626 104.706 88.7626C104.654 88.7626 104.604 88.7421 104.568 88.7056C104.531 88.6691 104.511 88.6196 104.511 88.568ZM102.957 88.568C102.957 88.543 102.961 88.5183 102.971 88.4953C102.981 88.4722 102.995 88.4513 103.012 88.4336C103.03 88.416 103.051 88.402 103.074 88.3925C103.097 88.3829 103.122 88.378 103.147 88.378C103.172 88.3774 103.197 88.3818 103.221 88.3911C103.245 88.4004 103.266 88.4143 103.284 88.432C103.302 88.4497 103.317 88.4708 103.327 88.4942C103.337 88.5175 103.342 88.5426 103.342 88.568C103.342 88.6196 103.321 88.6691 103.285 88.7056C103.248 88.7421 103.198 88.7626 103.147 88.7626C103.121 88.7626 103.096 88.7575 103.073 88.7477C103.05 88.7378 103.028 88.7234 103.011 88.7053C102.993 88.6872 102.979 88.6657 102.97 88.6421C102.96 88.6185 102.956 88.5933 102.957 88.568ZM101.398 88.568C101.398 88.5426 101.403 88.5175 101.413 88.4942C101.423 88.4708 101.437 88.4497 101.455 88.432C101.473 88.4143 101.495 88.4004 101.518 88.3911C101.542 88.3818 101.567 88.3774 101.593 88.378C101.618 88.378 101.642 88.3829 101.665 88.3925C101.689 88.402 101.709 88.416 101.727 88.4336C101.745 88.4513 101.759 88.4722 101.768 88.4953C101.778 88.5183 101.783 88.543 101.783 88.568C101.783 88.5933 101.779 88.6185 101.77 88.6421C101.76 88.6657 101.747 88.6872 101.729 88.7053C101.711 88.7234 101.69 88.7378 101.667 88.7477C101.643 88.7575 101.618 88.7626 101.593 88.7626C101.541 88.7626 101.491 88.7421 101.455 88.7056C101.418 88.6691 101.398 88.6196 101.398 88.568ZM99.839 88.568C99.839 88.5426 99.8441 88.5175 99.854 88.4942C99.8638 88.4708 99.8782 88.4497 99.8964 88.432C99.9145 88.4143 99.9361 88.4004 99.9597 88.3911C99.9833 88.3818 100.009 88.3774 100.034 88.378C100.059 88.378 100.084 88.3829 100.107 88.3925C100.13 88.402 100.151 88.416 100.168 88.4336C100.186 88.4513 100.2 88.4722 100.21 88.4953C100.219 88.5183 100.224 88.543 100.224 88.568C100.225 88.5933 100.22 88.6185 100.211 88.6421C100.202 88.6657 100.188 88.6872 100.17 88.7053C100.152 88.7234 100.131 88.7378 100.108 88.7477C100.084 88.7575 100.059 88.7626 100.034 88.7626C99.9822 88.7626 99.9327 88.7421 99.8961 88.7056C99.8596 88.6691 99.839 88.6196 99.839 88.568ZM98.2849 88.568C98.2849 88.543 98.2898 88.5183 98.2994 88.4953C98.309 88.4722 98.323 88.4513 98.3406 88.4336C98.3583 88.416 98.3793 88.402 98.4023 88.3925C98.4254 88.3829 98.4502 88.378 98.4751 88.378C98.5005 88.3774 98.5257 88.3818 98.5493 88.3911C98.573 88.4004 98.5945 88.4143 98.6126 88.432C98.6308 88.4497 98.6452 88.4708 98.6551 88.4942C98.6649 88.5175 98.67 88.5426 98.67 88.568C98.67 88.6196 98.6495 88.6691 98.6129 88.7056C98.5764 88.7421 98.5268 88.7626 98.4751 88.7626C98.4243 88.7614 98.3759 88.7403 98.3403 88.704C98.3048 88.6676 98.2849 88.6188 98.2849 88.568ZM96.7262 88.568C96.7262 88.5426 96.7312 88.5175 96.7411 88.4942C96.7509 88.4708 96.7653 88.4497 96.7835 88.432C96.8017 88.4143 96.8232 88.4004 96.8468 88.3911C96.8704 88.3818 96.8956 88.3774 96.921 88.378C96.946 88.378 96.9707 88.3829 96.9938 88.3925C97.0169 88.402 97.0378 88.416 97.0555 88.4336C97.0732 88.4513 97.0872 88.4722 97.0967 88.4953C97.1063 88.5183 97.1112 88.543 97.1112 88.568C97.1118 88.5933 97.1074 88.6185 97.0981 88.6421C97.0888 88.6657 97.0749 88.6872 97.0572 88.7053C97.0394 88.7234 97.0183 88.7378 96.9949 88.7477C96.9715 88.7575 96.9464 88.7626 96.921 88.7626C96.8693 88.7626 96.8198 88.7421 96.7832 88.7056C96.7467 88.6691 96.7262 88.6196 96.7262 88.568ZM95.172 88.568C95.172 88.543 95.177 88.5183 95.1865 88.4953C95.1961 88.4722 95.2101 88.4513 95.2277 88.4336C95.2454 88.416 95.2664 88.402 95.2895 88.3925C95.3125 88.3829 95.3373 88.378 95.3622 88.378C95.3876 88.3774 95.4128 88.3818 95.4365 88.3911C95.4601 88.4004 95.4816 88.4143 95.4998 88.432C95.5179 88.4497 95.5323 88.4708 95.5422 88.4942C95.552 88.5175 95.5571 88.5426 95.5571 88.568C95.5571 88.6196 95.5366 88.6691 95.5 88.7056C95.4635 88.7421 95.4139 88.7626 95.3622 88.7626C95.3369 88.7626 95.3118 88.7575 95.2884 88.7477C95.265 88.7378 95.2438 88.7234 95.2261 88.7053C95.2084 88.6872 95.1944 88.6657 95.1852 88.6421C95.1759 88.6185 95.1714 88.5933 95.172 88.568ZM93.6133 88.568C93.6133 88.5426 93.6183 88.5175 93.6282 88.4942C93.638 88.4708 93.6525 88.4497 93.6706 88.432C93.6888 88.4143 93.7103 88.4004 93.7339 88.3911C93.7575 88.3818 93.7828 88.3774 93.8081 88.378C93.8331 88.378 93.8578 88.3829 93.8809 88.3925C93.904 88.402 93.925 88.416 93.9426 88.4336C93.9603 88.4513 93.9743 88.4722 93.9838 88.4953C93.9934 88.5183 93.9983 88.543 93.9983 88.568C93.9989 88.5933 93.9945 88.6185 93.9852 88.6421C93.9759 88.6657 93.962 88.6872 93.9443 88.7053C93.9266 88.7234 93.9054 88.7378 93.882 88.7477C93.8586 88.7575 93.8335 88.7626 93.8081 88.7626C93.7564 88.7626 93.7069 88.7421 93.6704 88.7056C93.6338 88.6691 93.6133 88.6196 93.6133 88.568Z" fill="white"/>
<path d="M92.2499 88.7626C92.2246 88.762 92.1997 88.7564 92.1766 88.746C92.1535 88.7357 92.1327 88.7209 92.1154 88.7024C92.0963 88.6864 92.0819 88.6656 92.0736 88.6421C92.0692 88.6176 92.0692 88.5925 92.0736 88.568C92.0728 88.5429 92.0773 88.518 92.0869 88.4948C92.0965 88.4716 92.111 88.4508 92.1293 88.4336C92.1552 88.4055 92.1894 88.3864 92.2269 88.3789C92.2644 88.3714 92.3033 88.3759 92.3381 88.3919C92.3615 88.4002 92.3824 88.4146 92.3984 88.4336C92.4173 88.4505 92.4325 88.4713 92.4429 88.4944C92.4533 88.5176 92.4586 88.5426 92.4587 88.568C92.4629 88.5925 92.4629 88.6176 92.4587 88.6421C92.4382 88.6874 92.4019 88.7236 92.3566 88.7441C92.3235 88.7602 92.2865 88.7666 92.2499 88.7626Z" fill="white"/>
<path opacity="0.5" d="M113.637 36.9423H60.1105L59.0898 16.2772H112.617L113.637 36.9423Z" fill="#92E3A9"/>
<path d="M111.117 70.0575L110.992 68.7045C114.354 68.576 117.534 67.1452 119.858 64.7151C121.225 63.2836 122.239 61.5525 122.817 59.66L124.116 60.1234C123.482 62.2039 122.37 64.1078 120.869 65.6835C118.312 68.3524 114.814 69.9213 111.117 70.0575Z" fill="#263238"/>
<g style="mix-blend-mode:multiply" opacity="0.5">
<path d="M118.904 45.4076C117.246 43.8217 115.234 42.6514 113.035 41.9928L113.365 40.6954C115.782 41.4209 117.993 42.7069 119.818 44.4485C121.921 46.4086 123.438 48.9144 124.197 51.6858C124.957 54.4573 124.929 57.3851 124.118 60.1419L122.819 59.6786C123.556 57.1712 123.58 54.5085 122.889 51.9882C122.197 49.468 120.818 47.1895 118.904 45.4076Z" fill="#92E3A9"/>
</g>
<path d="M99.5933 65.6742C96.6955 62.9417 94.9389 59.2161 94.6758 55.2444H96.0304C96.2948 58.9874 98.001 62.4825 100.791 64.9958C103.581 67.5091 107.237 68.845 110.992 68.723L111.117 70.076C108.998 70.1555 106.885 69.8065 104.905 69.0501C102.925 68.2937 101.118 67.1454 99.5933 65.6742Z" fill="#92E3A9"/>
<path opacity="0.7" d="M94.6762 55.2443C94.5367 53.2718 94.8086 51.2918 95.4746 49.4295C96.1405 47.5672 97.1861 45.8633 98.5453 44.4253C100.425 42.4904 102.805 41.115 105.422 40.4523C108.038 39.7896 110.787 39.8657 113.363 40.6722L113.033 41.9696C110.688 41.2372 108.185 41.1709 105.804 41.7781C103.423 42.3852 101.259 43.6419 99.552 45.4076C98.3183 46.7127 97.3685 48.2589 96.7625 49.9486C96.1565 51.6384 95.9074 53.4352 96.0308 55.2258L94.6762 55.2443Z" fill="white"/>
<path opacity="0.6" d="M118.116 63.2396C122.431 58.8214 122.162 51.5691 117.515 47.0411C112.867 42.5131 105.602 42.424 101.286 46.8422C96.9709 51.2604 97.2401 58.5127 101.888 63.0407C106.535 67.5688 113.801 67.6578 118.116 63.2396Z" fill="white"/>
<path d="M81.7249 77.4616L81.4975 78.3883C79.1595 77.6981 76.6465 77.9183 74.4645 79.0045C73.198 79.6361 72.0971 80.5548 71.2496 81.6873L70.4609 81.0849C71.3908 79.8392 72.5999 78.8284 73.9914 78.1334C76.3917 76.9418 79.1546 76.7018 81.7249 77.4616Z" fill="#263238"/>
<g style="mix-blend-mode:multiply" opacity="0.5">
<path d="M70.642 92.1033C71.4227 93.5516 72.5355 94.7948 73.8895 95.7312L73.3606 96.5189C71.8713 95.488 70.646 94.1213 69.7838 92.5295C68.7923 90.7562 68.3289 88.7368 68.448 86.7092C68.5672 84.6816 69.264 82.7302 70.4565 81.085L71.2451 81.6873C70.159 83.1846 69.525 84.9613 69.4182 86.8072C69.3113 88.6531 69.736 90.4909 70.642 92.1033Z" fill="#92E3A9"/>
</g>
<path opacity="0.7" d="M88.6436 83.0403C90.0057 85.5056 90.3551 88.4032 89.6178 91.121L88.69 90.8245C89.3619 88.3499 89.0441 85.7114 87.8039 83.4666C87.1453 82.2417 86.2491 81.1602 85.1674 80.2851C84.0857 79.41 82.8403 78.7589 81.5039 78.3698L81.7312 77.4431C83.1982 77.87 84.5652 78.5849 85.7521 79.546C86.9391 80.5071 87.9221 81.695 88.6436 83.0403Z" fill="white"/>
<path d="M89.6211 91.121C89.2501 92.4789 88.5964 93.7432 87.7026 94.8315C86.8089 95.9197 85.6953 96.8074 84.4346 97.4364C82.6743 98.291 80.716 98.656 78.7657 98.493C76.8153 98.3299 74.945 97.6448 73.3516 96.5097L73.8804 95.722C75.3302 96.7539 77.0319 97.376 78.8061 97.5227C80.5803 97.6695 82.3613 97.3356 83.9614 96.556C85.1084 95.9845 86.1219 95.1779 86.9357 94.1886C87.7495 93.1994 88.3452 92.0499 88.684 90.8152L89.6211 91.121Z" fill="#92E3A9"/>
<path opacity="0.6" d="M85.2401 93.6454C88.3299 90.482 88.1377 85.2898 84.8108 82.0484C81.4838 78.8069 76.2821 78.7437 73.1923 81.9071C70.1024 85.0705 70.2946 90.2627 73.6216 93.5042C76.9485 96.7456 82.1503 96.8089 85.2401 93.6454Z" fill="white"/>
<path d="M93.2461 18.8812H91.4089L86.793 25.7572L92.0909 32.6332H93.928L88.6301 25.7572L93.2461 18.8812Z" fill="white"/>
<path d="M98.7461 18.8812H100.583L105.886 25.7572L101.265 32.6332H99.4234L104.044 25.7572L98.7461 18.8812Z" fill="white"/>
<g opacity="0.6">
<path d="M51.8652 25.1039H40.1328C40.0195 25.1031 39.9073 25.1255 39.8031 25.1698C39.6989 25.2141 39.6049 25.2794 39.527 25.3615C39.4491 25.4436 39.389 25.5409 39.3503 25.6472C39.3117 25.7536 39.2954 25.8667 39.3024 25.9796L39.7013 34.0372C39.7144 34.274 39.8179 34.4968 39.9905 34.6597C40.1631 34.8226 40.3917 34.9132 40.6292 34.9129H52.3616C52.4749 34.9137 52.5871 34.8913 52.6913 34.847C52.7956 34.8027 52.8895 34.7374 52.9674 34.6553C53.0453 34.5732 53.1054 34.4759 53.1441 34.3696C53.1827 34.2632 53.1991 34.1501 53.1921 34.0372L52.7931 25.9796C52.78 25.7428 52.6765 25.52 52.5039 25.3571C52.3313 25.1942 52.1027 25.1035 51.8652 25.1039ZM47.4348 32.6008H45.3101L45.4585 30.0385C45.254 29.9111 45.0832 29.7363 44.9604 29.5291C44.8377 29.3218 44.7667 29.0881 44.7534 28.8477C44.7426 28.6634 44.7698 28.4787 44.8334 28.3053C44.897 28.1319 44.9955 27.9734 45.123 27.8396C45.2504 27.7058 45.404 27.5995 45.5743 27.5275C45.7445 27.4554 45.9278 27.419 46.1127 27.4206C46.497 27.4247 46.8654 27.5743 47.1436 27.8392C47.4217 28.1041 47.5888 28.4645 47.6111 28.8477C47.627 29.08 47.5814 29.3124 47.4787 29.5214C47.3761 29.7304 47.2202 29.9088 47.0266 30.0385L47.4348 32.6008Z" fill="#92E3A9"/>
<path opacity="0.2" d="M44.7549 28.8477C44.7682 29.0881 44.8392 29.3218 44.9619 29.5291C45.0846 29.7363 45.2555 29.9111 45.46 30.0385L45.3116 32.6008H46.3925L46.5038 34.9175H40.6214C40.3839 34.9179 40.1553 34.8273 39.9827 34.6644C39.8101 34.5014 39.7066 34.2786 39.6935 34.0418L39.2945 25.9843C39.2875 25.8714 39.3039 25.7582 39.3425 25.6519C39.3812 25.5455 39.4413 25.4483 39.5192 25.3661C39.5971 25.284 39.691 25.2188 39.7953 25.1744C39.8995 25.1301 40.0117 25.1077 40.125 25.1085H45.9935L46.1049 27.4253C45.9212 27.425 45.7393 27.4622 45.5705 27.5345C45.4017 27.6068 45.2494 27.7128 45.123 27.846C44.9966 27.9792 44.8988 28.1367 44.8355 28.3089C44.7722 28.4812 44.7448 28.6645 44.7549 28.8477Z" fill="black"/>
<path d="M50.7918 24.5247C50.5834 24.5226 50.3836 24.4416 50.2329 24.2979C50.0821 24.1542 49.9917 23.9587 49.98 23.7509L49.9382 22.9632C49.8913 21.8942 49.4537 20.8795 48.7083 20.1111C47.9628 19.3426 46.9611 18.8737 45.8928 18.7931C45.3536 18.7593 44.8133 18.8403 44.3078 19.0308C43.8023 19.2213 43.343 19.5169 42.9606 19.8981C42.5781 20.2792 42.281 20.7372 42.0891 21.2417C41.8972 21.7461 41.8149 22.2855 41.8475 22.8242L41.8939 23.7509C41.8996 23.8513 41.8846 23.9517 41.8498 24.0461C41.8149 24.1404 41.761 24.2265 41.6914 24.2991C41.6217 24.3717 41.5379 24.4292 41.445 24.468C41.3521 24.5068 41.2523 24.5261 41.1516 24.5247C40.9432 24.5226 40.7434 24.4416 40.5927 24.2979C40.4419 24.1542 40.3515 23.9587 40.3398 23.7509L40.3026 22.9817C40.2517 22.2692 40.3443 21.5538 40.5748 20.8776C40.8054 20.2014 41.1692 19.5782 41.6449 19.0448C42.1206 18.5114 42.6985 18.0786 43.3444 17.772C43.9903 17.4653 44.6912 17.2911 45.4057 17.2595C46.9478 17.2194 48.4451 17.7794 49.5816 18.8211C50.7181 19.8628 51.4048 21.3048 51.497 22.8427L51.5387 23.7694C51.5426 23.8688 51.5259 23.968 51.4899 24.0608C51.4538 24.1535 51.3991 24.2379 51.3291 24.3087C51.2591 24.3795 51.1753 24.4352 51.0829 24.4723C50.9905 24.5095 50.8914 24.5273 50.7918 24.5247Z" fill="#92E3A9"/>
</g>
<path opacity="0.4" d="M55.911 110.859H17.5961L14.293 44.0592H52.6079L55.911 110.859Z" fill="#92E3A9"/>
<path opacity="0.3" d="M52.7657 47.2609H14.4507L14.293 44.0592H52.6079L52.7657 47.2609Z" fill="#92E3A9"/>
<path opacity="0.3" d="M55.9102 110.859H17.5952L17.4375 107.658H55.7524L55.9102 110.859Z" fill="#92E3A9"/>
<path d="M26.1883 62.9636L24.7965 62.2501C24.5877 61.6523 24.3204 61.0765 23.9986 60.531L24.3744 59.0808L21.3635 56.2173L19.9347 56.6807C19.373 56.3868 18.7842 56.1478 18.1764 55.9671L17.4017 54.6327H13.361L12.7115 55.9671C12.127 56.1464 11.5627 56.3855 11.0275 56.6807L9.55685 56.2173L6.82901 59.0808L7.34396 60.531C7.07763 61.0815 6.86779 61.6574 6.71767 62.2501L5.41406 62.9636L5.61355 67.0132L7.0053 67.7221C7.21727 68.3186 7.4844 68.8941 7.80324 69.4411L7.42283 70.8914L10.4337 73.7549L11.8625 73.2915C12.4226 73.5854 13.0099 73.8244 13.6161 74.0051L14.3816 75.3627H18.4362L19.0811 74.0236C19.6658 73.8452 20.2303 73.606 20.7651 73.3101L22.2404 73.7734L24.9635 70.9099L24.4486 69.4597C24.7177 68.9104 24.9276 68.3342 25.0749 67.7407L26.3831 67.0318L26.1883 62.9636ZM16.2605 72.3278C14.2834 72.3076 12.3878 71.5387 10.9565 70.1763C9.5253 68.814 8.66524 66.9597 8.55015 64.9884C8.49214 64.0398 8.63032 63.0894 8.95609 62.1965C9.28186 61.3036 9.78823 60.4872 10.4437 59.7982C11.0991 59.1093 11.8895 58.5625 12.7658 58.192C13.642 57.8214 14.5852 57.635 15.5367 57.6444C17.515 57.6646 19.4119 58.434 20.8439 59.7972C22.276 61.1605 23.1366 63.0158 23.2517 64.9884C23.3091 65.937 23.1703 66.8873 22.8439 67.78C22.5176 68.6727 22.0107 69.4887 21.3548 70.1772C20.6989 70.8657 19.9082 71.412 19.0317 71.782C18.1553 72.152 17.2119 72.3378 16.2605 72.3278Z" fill="#92E3A9"/>
<path opacity="0.6" d="M15.5891 58.6731C14.7709 58.6653 13.9599 58.8257 13.2065 59.1444C12.4531 59.4631 11.7735 59.9334 11.2099 60.5258C10.6464 61.1182 10.2109 61.8201 9.93075 62.5879C9.65056 63.3557 9.53162 64.1728 9.58132 64.9885C9.68249 66.6876 10.4265 68.2847 11.6625 69.4565C12.8986 70.6282 14.5344 71.2869 16.2385 71.2992C17.058 71.3096 17.8709 71.1512 18.6263 70.8339C19.3818 70.5167 20.0638 70.0473 20.6296 69.4552C21.1955 68.8631 21.6331 68.1609 21.9152 67.3924C22.1974 66.6239 22.318 65.8056 22.2695 64.9885C22.1681 63.285 21.421 61.684 20.1801 60.5109C18.9392 59.3378 17.2976 58.6807 15.5891 58.6731Z" fill="white"/>
<path d="M56.3095 69.2234H34.5564C34.3418 69.2224 34.1293 69.2653 33.932 69.3494C33.7347 69.4335 33.5566 69.5571 33.4089 69.7124C33.2611 69.8678 33.1468 70.0518 33.0729 70.2529C32.9989 70.4541 32.967 70.6682 32.979 70.8822L33.5311 82.0348C33.557 82.4807 33.7515 82.9001 34.0754 83.2081C34.3993 83.5161 34.8282 83.6897 35.2754 83.6936H48.3486L48.5899 88.5263L53.1919 83.6936H57.0285C57.2433 83.6953 57.4561 83.6528 57.6537 83.569C57.8514 83.4851 58.0297 83.3616 58.1775 83.206C58.3254 83.0505 58.4397 82.8663 58.5134 82.6649C58.5871 82.4634 58.6186 82.2489 58.6058 82.0348L58.0538 70.8914C58.0291 70.4443 57.8352 70.0232 57.5113 69.7135C57.1874 69.4038 56.7578 69.2286 56.3095 69.2234Z" fill="#92E3A9"/>
<path d="M26.9379 87.785H41.7833C42.0888 87.7891 42.3814 87.9084 42.6025 88.1189C42.8236 88.3294 42.9569 88.6156 42.9756 88.9202L43.3513 96.5375C43.3603 96.6836 43.339 96.83 43.2888 96.9675C43.2386 97.105 43.1606 97.2307 43.0596 97.3368C42.9586 97.4429 42.8368 97.527 42.7019 97.584C42.5669 97.641 42.4216 97.6696 42.2751 97.6681H33.3539L33.5163 100.972L30.0462 97.6681H27.4251C27.1205 97.6651 26.8284 97.5467 26.608 97.3368C26.3875 97.1269 26.255 96.8412 26.2374 96.5375L25.8617 88.9202C25.8521 88.7737 25.8729 88.6268 25.9228 88.4888C25.9727 88.3507 26.0506 88.2244 26.1516 88.1179C26.2527 88.0113 26.3747 87.9267 26.51 87.8694C26.6453 87.8121 26.791 87.7834 26.9379 87.785Z" fill="white"/>
<path d="M155.495 60.5497L153.301 60.4524L154.294 64.6225C155.075 64.0942 155.789 63.4717 156.418 62.7691C156.509 62.6643 156.578 62.5426 156.622 62.411C156.665 62.2794 156.683 62.1405 156.672 62.0023C156.662 61.8641 156.624 61.7293 156.562 61.6056C156.499 61.482 156.412 61.3719 156.307 61.2818L155.495 60.5497Z" fill="#FF8B7B"/>
<path d="M150.754 62.6996L151.737 66.0959L154.294 64.6132L153.301 60.4524L150.754 62.6996Z" fill="#FF8B7B"/>
<path d="M138.837 39.2961L137.784 40.5101C137.422 40.9271 137.07 41.3534 136.722 41.7843C136.026 42.6415 135.33 43.5033 134.69 44.3883C133.39 46.0908 132.242 47.9032 131.257 49.8048C131.141 50.0364 131.048 50.2681 130.941 50.4951L130.784 50.8334C130.728 51.0613 130.736 51.3 130.807 51.5238C131.064 52.436 131.445 53.3089 131.939 54.1185C133.072 56.006 134.33 57.8155 135.706 59.535L133.957 61.3883C131.982 59.9447 130.201 58.2553 128.654 56.3611C127.775 55.3067 127.072 54.1176 126.571 52.8396C126.236 51.9748 126.113 51.0419 126.214 50.1198C126.251 49.8315 126.316 49.5475 126.409 49.2719L126.576 48.8086C126.687 48.5028 126.794 48.1923 126.91 47.8819C127.875 45.5956 129.085 43.4205 130.519 41.3951C131.215 40.3989 131.911 39.4259 132.695 38.4992C133.075 38.0358 133.46 37.5725 133.855 37.1091C134.249 36.6458 134.643 36.2195 135.103 35.7191L138.837 39.2961Z" fill="#FF8B7B"/>
<path d="M138.497 60.9899L136.517 64.8912L134.582 63.2325L136.169 60.4524L138.497 60.9899Z" fill="#FF8B7B"/>
<path d="M157.909 35.5524C159.129 37.7069 160.266 39.8707 161.356 42.0809C162.446 44.291 163.49 46.5243 164.464 48.8179L164.543 49.0171L164.631 49.272C164.69 49.4375 164.734 49.6081 164.761 49.7816C164.789 49.9392 164.807 50.1013 164.826 50.245C164.835 50.39 164.835 50.5355 164.826 50.6805C164.823 50.9464 164.797 51.2116 164.747 51.4728C164.707 51.7033 164.651 51.9309 164.58 52.154C164.345 52.8984 164.023 53.6123 163.62 54.2807C163.271 54.8731 162.886 55.4426 162.465 55.9858C162.061 56.514 161.653 57.0191 161.226 57.5009C159.534 59.3953 157.67 61.1294 155.659 62.6811L153.887 60.8277C155.371 58.9744 156.847 57.0469 158.127 55.124C158.751 54.2115 159.302 53.2509 159.774 52.2513C159.966 51.853 160.11 51.4329 160.201 51.0002C160.214 50.9298 160.221 50.8586 160.224 50.7871C160.224 50.7269 160.224 50.6759 160.224 50.6666C160.224 50.6342 160.224 50.6574 160.224 50.6666C160.222 50.6773 160.222 50.6884 160.224 50.6991C160.224 50.6991 160.224 50.7361 160.224 50.7639C160.22 50.7775 160.22 50.792 160.224 50.8056C160.224 50.8056 160.247 50.8427 160.224 50.8056C159.115 48.6881 157.951 46.566 156.8 44.4347C155.65 42.3033 154.481 40.1673 153.367 38.0359L157.909 35.5524Z" fill="#FF8B7B"/>
<path d="M140.364 22.3888C140.42 22.6576 140.322 22.9078 140.151 22.9541C139.979 23.0004 139.789 22.8151 139.728 22.5464C139.668 22.2776 139.77 22.0228 139.942 21.9811C140.113 21.9394 140.304 22.1201 140.364 22.3888Z" fill="#263238"/>
<path d="M140.351 22.9031C140.207 23.807 139.941 24.6874 139.562 25.521C139.776 25.6066 140.005 25.644 140.235 25.6304C140.464 25.6168 140.688 25.5525 140.889 25.4422L140.351 22.9031Z" fill="#FF5652"/>
<path d="M140.063 24.9789C139.71 24.9789 139.367 24.7055 139.093 24.2005C138.521 22.9954 138.422 21.62 138.815 20.3455C139.019 19.7802 139.339 19.4558 139.71 19.4188C140.081 19.3817 140.438 19.6643 140.726 20.1925C141.024 20.7856 141.194 21.4342 141.227 22.0969C141.343 23.6491 140.851 24.9094 140.109 24.965L140.063 24.9789ZM139.756 19.6597H139.724C139.455 19.6597 139.204 19.9609 139.033 20.4242C138.837 21.0212 138.766 21.652 138.824 22.2776C138.851 22.9056 139.009 23.5211 139.288 24.0846C139.525 24.5248 139.817 24.7657 140.086 24.7426C140.675 24.7009 141.088 23.5008 140.986 22.1201C140.958 21.4921 140.8 20.8768 140.522 20.313C140.295 19.896 140.016 19.6597 139.756 19.6597Z" fill="#263238"/>
<path d="M139.64 20.7532C139.673 20.7533 139.705 20.7436 139.733 20.7254C139.906 20.6223 140.101 20.5617 140.301 20.5488C140.502 20.5359 140.703 20.5711 140.888 20.6513C140.927 20.6667 140.971 20.6661 141.01 20.6496C141.049 20.6332 141.08 20.6022 141.097 20.5632C141.112 20.5232 141.112 20.4787 141.096 20.439C141.079 20.3993 141.048 20.3675 141.009 20.3501C140.774 20.2495 140.519 20.2071 140.264 20.2265C140.01 20.2459 139.764 20.3264 139.547 20.4613C139.53 20.4729 139.515 20.488 139.503 20.5056C139.491 20.5232 139.483 20.5429 139.479 20.5637C139.475 20.5844 139.476 20.6057 139.48 20.6264C139.485 20.647 139.493 20.6665 139.506 20.6837C139.521 20.7053 139.541 20.723 139.564 20.7351C139.588 20.7472 139.614 20.7534 139.64 20.7532Z" fill="#263238"/>
<path d="M149.623 24.2745C149.535 27.0778 148.495 30.4648 150.175 32.1236C150.175 32.1236 149.395 34.6488 144.761 34.6488C139.658 34.6488 142.441 32.1236 142.441 32.1236C145.248 31.461 145.257 29.4037 144.849 27.467L149.623 24.2745Z" fill="#FF8B7B"/>
<path d="M151.37 32.9901C151.769 32.1932 152.172 30.9653 151.37 30.6734C150.465 30.3583 145.872 29.5614 142.379 30.6734C142.562 31.0622 142.661 31.4852 142.669 31.9148C142.677 32.3444 142.594 32.7709 142.425 33.1662L151.37 32.9901Z" fill="#263238"/>
<path d="M157.482 149.248C157.134 149.248 156.795 149.197 156.67 149.025C156.628 148.97 156.605 148.902 156.605 148.833C156.605 148.763 156.628 148.696 156.67 148.641C156.699 148.592 156.737 148.549 156.784 148.517C156.83 148.484 156.883 148.461 156.939 148.451C157.435 148.344 158.331 148.983 158.386 149.011C158.399 149.019 158.409 149.031 158.415 149.045C158.421 149.06 158.422 149.075 158.419 149.09C158.416 149.106 158.409 149.12 158.399 149.132C158.388 149.143 158.374 149.151 158.358 149.155C158.07 149.215 157.776 149.246 157.482 149.248ZM157.078 148.599H156.985C156.919 148.613 156.86 148.653 156.823 148.71C156.744 148.844 156.786 148.9 156.8 148.919C156.939 149.109 157.635 149.113 158.145 149.025C157.827 148.803 157.462 148.657 157.078 148.599Z" fill="white"/>
<path d="M158.356 149.155H158.319C157.976 148.965 157.326 148.228 157.391 147.844C157.404 147.783 157.437 147.728 157.485 147.688C157.533 147.649 157.593 147.627 157.656 147.626C157.717 147.62 157.779 147.626 157.838 147.645C157.897 147.663 157.952 147.693 157.999 147.732C158.384 148.057 158.426 149.039 158.426 149.081C158.427 149.095 158.424 149.11 158.417 149.123C158.411 149.136 158.401 149.147 158.389 149.155H158.356ZM157.721 147.765H157.684C157.577 147.765 157.563 147.83 157.558 147.853C157.516 148.08 157.929 148.641 158.263 148.9C158.255 148.516 158.128 148.144 157.902 147.834C157.855 147.795 157.796 147.773 157.735 147.774L157.721 147.765Z" fill="white"/>
<path d="M137.018 149.247C136.554 149.247 136.16 149.187 136.021 148.993C135.984 148.941 135.965 148.88 135.965 148.817C135.965 148.754 135.984 148.692 136.021 148.641C136.387 148.038 137.9 148.905 138.071 149.007C138.085 149.015 138.096 149.027 138.103 149.042C138.11 149.057 138.112 149.074 138.108 149.09C138.105 149.106 138.097 149.121 138.086 149.132C138.074 149.144 138.059 149.152 138.043 149.155C137.705 149.214 137.362 149.245 137.018 149.247ZM136.494 148.59C136.434 148.582 136.373 148.59 136.318 148.614C136.262 148.638 136.214 148.675 136.178 148.724C136.109 148.835 136.141 148.881 136.155 148.9C136.304 149.113 137.167 149.122 137.807 149.034C137.403 148.801 136.957 148.65 136.494 148.59Z" fill="white"/>
<path d="M138.049 149.155H138.016C137.608 148.965 136.833 148.228 136.898 147.853C136.898 147.76 136.977 147.644 137.205 147.621C137.288 147.609 137.373 147.615 137.453 147.64C137.533 147.665 137.607 147.708 137.668 147.765C138.091 148.122 138.132 149.034 138.132 149.076C138.134 149.09 138.132 149.103 138.127 149.116C138.121 149.128 138.112 149.138 138.1 149.146C138.084 149.154 138.066 149.157 138.049 149.155ZM137.27 147.765H137.223C137.07 147.765 137.061 147.839 137.056 147.862C137.019 148.098 137.543 148.668 137.951 148.918C137.929 148.535 137.788 148.167 137.548 147.867C137.469 147.804 137.37 147.771 137.27 147.774V147.765Z" fill="white"/>
<path d="M141.798 149.076H138.388L138.355 141.19H141.761L141.798 149.076Z" fill="#FF8B7B"/>
<path d="M162.262 149.076H158.852L157.441 141.19H160.851L162.262 149.076Z" fill="#FF8B7B"/>
<path d="M158.622 148.682H162.449C162.516 148.681 162.582 148.704 162.633 148.746C162.685 148.789 162.72 148.848 162.732 148.914L163.289 151.939C163.301 152.015 163.297 152.092 163.276 152.165C163.255 152.238 163.218 152.306 163.168 152.363C163.118 152.421 163.056 152.467 162.987 152.498C162.917 152.528 162.841 152.543 162.765 152.542C161.429 152.542 160.784 152.445 159.1 152.445C158.065 152.445 155.927 152.551 154.498 152.551C153.069 152.551 152.934 151.138 153.524 151.008C156.173 150.434 157.193 149.646 158.061 148.891C158.216 148.755 158.416 148.681 158.622 148.682Z" fill="#263238"/>
<path d="M138.426 148.682H142.137C142.204 148.681 142.268 148.704 142.319 148.747C142.37 148.789 142.405 148.848 142.416 148.914L142.972 151.939C142.986 152.014 142.983 152.091 142.963 152.164C142.944 152.238 142.908 152.306 142.859 152.363C142.809 152.421 142.748 152.467 142.678 152.498C142.609 152.529 142.533 152.544 142.457 152.542C141.117 152.542 139.182 152.444 137.493 152.444C135.522 152.444 133.81 152.551 131.5 152.551C130.108 152.551 129.765 151.138 130.354 151.008C133.044 150.429 135.225 150.364 137.582 148.946C137.834 148.783 138.126 148.691 138.426 148.682Z" fill="#263238"/>
<path d="M156.678 32.8974C159.842 33.6295 163.173 42.3265 163.173 42.3265L156.59 46.719C155.078 44.4287 153.753 42.0208 152.628 39.5186C150.884 35.5385 153.44 32.1468 156.678 32.8974Z" fill="#92E3A9"/>
<path opacity="0.3" d="M156.678 32.8974C159.842 33.6295 163.173 42.3265 163.173 42.3265L156.59 46.719C155.078 44.4287 153.753 42.0208 152.628 39.5186C150.884 35.5385 153.44 32.1468 156.678 32.8974Z" fill="#FAFAFA"/>
<path opacity="0.2" d="M154.173 38.4575L156.896 46.5243L156.585 46.7328C156.585 46.7328 155.342 44.8795 154.02 42.4098L154.173 38.4575Z" fill="black"/>
<path d="M135.415 48.0997C135.443 51.8991 135.67 56.6252 136.236 62.4911H154.487C154.723 59.7111 153.489 46.061 156.695 32.8928C154.691 32.5047 152.664 32.2478 150.627 32.1236C148.047 31.9752 145.46 31.9752 142.879 32.1236C141.098 32.2967 139.333 32.6065 137.6 33.0503C137.6 33.0503 136.041 34.7369 135.568 42.6461C135.466 44.2261 135.406 46.0239 135.415 48.0997Z" fill="#92E3A9"/>
<path opacity="0.3" d="M135.415 48.0997C135.443 51.8991 135.67 56.6252 136.236 62.4911H154.487C154.723 59.7111 153.489 46.061 156.695 32.8928C154.691 32.5047 152.664 32.2478 150.627 32.1236C148.047 31.9752 145.46 31.9752 142.879 32.1236C141.098 32.2967 139.333 32.6065 137.6 33.0503C137.6 33.0503 136.041 34.7369 135.568 42.6461C135.466 44.2261 135.406 46.0239 135.415 48.0997Z" fill="#FAFAFA"/>
<path opacity="0.2" d="M135.415 48.0997C136.519 46.0888 138.523 42.0531 138.24 39.7595L135.55 42.6693C135.466 44.2261 135.406 46.0239 135.415 48.0997Z" fill="black"/>
<path d="M141.152 36.1408C141.439 39.3842 134.077 47.1869 134.077 47.1869L128.176 42.3821C129.722 39.782 131.574 37.3757 133.692 35.2142C137.143 31.8781 140.831 32.5129 141.152 36.1408Z" fill="#92E3A9"/>
<path opacity="0.3" d="M141.152 36.1408C141.439 39.3842 134.077 47.1869 134.077 47.1869L128.176 42.3821C129.722 39.782 131.574 37.3757 133.692 35.2142C137.143 31.8781 140.831 32.5129 141.152 36.1408Z" fill="#FAFAFA"/>
<path opacity="0.2" d="M138.355 141.195L138.374 145.258H141.784L141.765 141.195H138.355Z" fill="black"/>
<path opacity="0.2" d="M160.851 141.195H157.441L158.17 145.258H161.58L160.851 141.195Z" fill="black"/>
<path d="M149.133 19.5762C149.629 22.9262 150.093 24.8584 148.799 26.9666C148.389 27.6568 147.798 28.2218 147.089 28.6004C146.381 28.9789 145.582 29.1566 144.78 29.1141C143.977 29.0716 143.202 28.8106 142.537 28.3594C141.873 27.9081 141.344 27.2838 141.01 26.5542C139.678 23.7741 139.085 18.7515 142.012 16.6294C142.631 16.1526 143.365 15.8474 144.141 15.7447C144.916 15.6419 145.704 15.7452 146.427 16.0441C147.149 16.343 147.78 16.827 148.255 17.4472C148.73 18.0673 149.033 18.8017 149.133 19.5762Z" fill="#FF8B7B"/>
<path d="M143.43 18.6589C132.709 18.3994 141.482 11.9172 141.482 11.9172C139.719 15.0077 144.771 14.7251 146.046 13.3351C147.596 11.6346 150.398 14.0023 150.175 15.8557C151.808 15.6518 153.103 16.8611 152.495 20.7532C151.887 24.6453 150.611 25.7434 149.943 26.6932C149.275 27.6431 149.331 26.7396 147.104 27.1566C145.573 27.4439 143.008 24.1449 142.725 22.2174C142.524 20.9851 142.774 19.7218 143.43 18.6589Z" fill="#263238"/>
<path d="M148.945 16.4209C148.945 16.4209 151.729 15.2626 149.873 12.3574C152.453 13.6965 152.063 16.1383 148.945 16.4209Z" fill="#263238"/>
<path d="M144.916 21.6474C144.903 22.5005 144.617 23.327 144.1 24.0058C143.409 24.8955 142.615 24.4692 142.425 23.4684C142.258 22.5787 142.425 21.0451 143.288 20.5076C144.151 19.9701 144.921 20.6281 144.916 21.6474Z" fill="#FF8B7B"/>
<path d="M142.707 62.4912C142.707 62.4912 145.569 88.4986 147.314 98.2288C149.225 108.886 156.592 144.452 156.592 144.452H162.836C162.836 144.452 158.401 109.766 157.483 99.1972C156.485 87.7295 154.449 62.4727 154.449 62.4727L142.707 62.4912Z" fill="#263238"/>
<path d="M155.704 142.172C155.676 142.172 156.256 144.568 156.256 144.568H163.298L163.252 142.432L155.704 142.172Z" fill="#92E3A9"/>
<path opacity="0.2" d="M144.789 71.7579C149.228 72.6337 148.11 89.2909 147.243 97.8581C146.185 91.8022 144.747 80.1491 143.777 71.8784C144.091 71.7256 144.448 71.6831 144.789 71.7579Z" fill="black"/>
<path d="M136.239 62.4911C136.239 62.4911 134.782 87.9425 134.754 98.3214C134.722 109.117 137.129 144.47 137.129 144.47H142.887C142.887 144.47 144.441 109.747 145.109 99.1462C145.833 87.5626 148.203 62.4911 148.203 62.4911H136.239Z" fill="#263238"/>
<path d="M134.844 59.2246L136.463 59.3543C136.595 59.3647 136.722 59.4044 136.837 59.4704C136.951 59.5365 137.049 59.6273 137.124 59.7361C137.199 59.8449 137.248 59.9691 137.269 60.0994C137.289 60.2298 137.28 60.3631 137.242 60.4895L136.574 62.7367C136.518 62.9193 136.418 63.0856 136.284 63.2214C136.149 63.3573 135.984 63.4586 135.801 63.5168C135.619 63.5751 135.426 63.5885 135.237 63.5559C135.049 63.5234 134.871 63.4458 134.719 63.3298C133.881 62.5538 133.28 61.556 132.988 60.4525L134.844 59.2246Z" fill="#FF8B7B"/>
<path opacity="0.2" d="M138.497 140.328C138.482 140.328 138.468 140.322 138.456 140.312C138.445 140.302 138.438 140.288 138.437 140.272C137.797 130.491 136.312 106.815 136.34 98.3214C136.363 89.6337 137.398 70.1965 137.732 64.4464C137.729 64.4374 137.729 64.428 137.731 64.4188C137.732 64.4097 137.736 64.401 137.742 64.3936C137.747 64.3861 137.755 64.3801 137.763 64.376C137.771 64.3718 137.781 64.3696 137.79 64.3696C137.799 64.3696 137.809 64.3718 137.817 64.376C137.825 64.3801 137.832 64.3861 137.838 64.3936C137.844 64.401 137.848 64.4097 137.849 64.4188C137.851 64.428 137.851 64.4374 137.848 64.4464C137.532 70.1965 136.498 89.6337 136.456 98.3168C136.428 106.805 137.913 130.477 138.553 140.263C138.554 140.271 138.553 140.279 138.55 140.286C138.548 140.293 138.544 140.3 138.539 140.306C138.533 140.311 138.527 140.316 138.52 140.319C138.513 140.322 138.505 140.324 138.497 140.323V140.328Z" fill="#FAFAFA"/>
<path d="M136.108 142.172C136.08 142.172 136.34 144.568 136.34 144.568H143.349L143.623 142.432L136.108 142.172Z" fill="#92E3A9"/>
</g>
<defs>
<clipPath id="clip0_2517_3">
<rect width="180" height="158" fill="white"/>
</clipPath>
</defs>
</svg>
