<svg width="180" height="163" viewBox="0 0 180 163" fill="none" xmlns="http://www.w3.org/2000/svg">
<g clip-path="url(#clip0_2517_100)">
<path d="M101.436 67.4589C74.5439 80.1883 14.4326 49.3512 13.4467 95.2279C12.7756 127.779 75.7427 151.551 96.4972 124.623C109.064 108.322 106.217 110.203 129.36 105.125C152.813 99.9778 162.223 95.9441 159.909 71.3077C158.705 58.5598 150.8 35.268 132.23 33.8449C108.98 32.0845 117.872 59.6872 101.436 67.4589Z" fill="#92E3A9"/>
<path opacity="0.9" d="M101.436 67.4589C74.5439 80.1883 14.4326 49.3512 13.4467 95.2279C12.7756 127.779 75.7427 151.551 96.4972 124.623C109.064 108.322 106.217 110.203 129.36 105.125C152.813 99.9778 162.223 95.9441 159.909 71.3077C158.705 58.5598 150.8 35.268 132.23 33.8449C108.98 32.0845 117.872 59.6872 101.436 67.4589Z" fill="white"/>
<path d="M90.0012 162.899C139.565 162.899 179.745 160.558 179.745 157.669C179.745 154.78 139.565 152.439 90.0012 152.439C40.4373 152.439 0.257812 154.78 0.257812 157.669C0.257812 160.558 40.4373 162.899 90.0012 162.899Z" fill="#F5F5F5"/>
<path d="M69.6163 130.191C71.1946 139.312 63.8259 143.803 56.6563 141.539C51.7731 139.991 46.9363 141.179 43.6592 142.74C43.5299 142.798 43.385 142.81 43.2477 142.776C43.1104 142.741 42.9888 142.661 42.9027 142.549C42.8165 142.437 42.7708 142.299 42.7728 142.157C42.7749 142.016 42.8246 141.88 42.914 141.77C43.4656 141.11 44.0543 140.482 44.6775 139.889C44.7798 139.793 44.8462 139.665 44.8658 139.526C44.8855 139.387 44.8572 139.245 44.7856 139.124C44.714 139.003 44.6034 138.91 44.4719 138.86C44.3404 138.811 44.1958 138.807 44.0619 138.85C41.2107 139.718 37.008 140.532 32.9533 139.58C32.8314 139.552 32.7208 139.488 32.6356 139.396C32.5505 139.305 32.4949 139.19 32.476 139.066C32.457 138.943 32.4756 138.817 32.5294 138.704C32.5831 138.591 32.6695 138.497 32.7775 138.434C36.8275 136.041 43.0066 129.752 48.7969 127.71C48.9388 127.66 49.0576 127.56 49.1318 127.429C49.2059 127.299 49.2303 127.146 49.2004 126.998C49.1706 126.851 49.0886 126.72 48.9694 126.628C48.8502 126.536 48.7018 126.491 48.5516 126.499C47.6382 126.551 46.729 126.662 45.83 126.832C45.6838 126.868 45.5292 126.851 45.395 126.782C45.2607 126.714 45.1556 126.6 45.0993 126.46C45.0429 126.32 45.039 126.165 45.0882 126.023C45.1374 125.881 45.2365 125.761 45.3672 125.686C53.4857 120.654 67.5982 118.543 69.6163 130.191Z" fill="#92E3A9"/>
<path opacity="0.7" d="M69.6163 130.191C71.1946 139.312 63.8259 143.803 56.6563 141.539C51.7731 139.991 46.9363 141.179 43.6592 142.74C43.5299 142.798 43.385 142.81 43.2477 142.776C43.1104 142.741 42.9888 142.661 42.9027 142.549C42.8165 142.437 42.7708 142.299 42.7728 142.157C42.7749 142.016 42.8246 141.88 42.914 141.77C43.4656 141.11 44.0543 140.482 44.6775 139.889C44.7798 139.793 44.8462 139.665 44.8658 139.526C44.8855 139.387 44.8572 139.245 44.7856 139.124C44.714 139.003 44.6034 138.91 44.4719 138.86C44.3404 138.811 44.1958 138.807 44.0619 138.85C41.2107 139.718 37.008 140.532 32.9533 139.58C32.8314 139.552 32.7208 139.488 32.6356 139.396C32.5505 139.305 32.4949 139.19 32.476 139.066C32.457 138.943 32.4756 138.817 32.5294 138.704C32.5831 138.591 32.6695 138.497 32.7775 138.434C36.8275 136.041 43.0066 129.752 48.7969 127.71C48.9388 127.66 49.0576 127.56 49.1318 127.429C49.2059 127.299 49.2303 127.146 49.2004 126.998C49.1706 126.851 49.0886 126.72 48.9694 126.628C48.8502 126.536 48.7018 126.491 48.5516 126.499C47.6382 126.551 46.729 126.662 45.83 126.832C45.6838 126.868 45.5292 126.851 45.395 126.782C45.2607 126.714 45.1556 126.6 45.0993 126.46C45.0429 126.32 45.039 126.165 45.0882 126.023C45.1374 125.881 45.2365 125.761 45.3672 125.686C53.4857 120.654 67.5982 118.543 69.6163 130.191Z" fill="white"/>
<path d="M59.6546 143.503L56.5535 119.67C56.5377 119.542 56.5503 119.412 56.5903 119.289C56.6303 119.167 56.6968 119.054 56.785 118.96C56.8733 118.866 56.9812 118.792 57.1011 118.744C57.2211 118.696 57.3501 118.674 57.4792 118.681L72.522 119.753C72.7244 119.768 72.9156 119.851 73.0633 119.99C73.2109 120.129 73.3058 120.315 73.332 120.516L75.6463 138.439C75.6674 138.637 75.6202 138.836 75.5125 139.004C75.4048 139.172 75.2431 139.299 75.0539 139.363L60.784 144.228C60.6617 144.265 60.5328 144.276 60.4062 144.258C60.2795 144.241 60.1582 144.196 60.0507 144.127C59.9432 144.058 59.8521 143.966 59.7837 143.858C59.7153 143.75 59.6712 143.629 59.6546 143.503Z" fill="black"/>
<path d="M56.6593 139.03L54.8078 124.734C54.7922 124.612 54.8026 124.488 54.8383 124.37C54.8739 124.252 54.9341 124.142 55.0149 124.049C55.0957 123.956 55.1953 123.881 55.3071 123.828C55.419 123.776 55.5406 123.748 55.6641 123.745L72.938 123.422C73.1548 123.418 73.3654 123.494 73.5294 123.636C73.6934 123.777 73.7993 123.974 73.8267 124.189L75.2152 134.719C75.2419 134.934 75.1887 135.15 75.0659 135.328C74.943 135.506 74.759 135.633 74.5487 135.685L57.7655 139.769C57.6437 139.802 57.5164 139.808 57.392 139.788C57.2676 139.767 57.149 139.72 57.0443 139.65C56.9395 139.58 56.8509 139.489 56.7845 139.382C56.7181 139.275 56.6754 139.155 56.6593 139.03Z" fill="#263238"/>
<path d="M131.974 136.47L122.949 137.954L123.026 138.419L132.05 136.935L131.974 136.47Z" fill="#92E3A9"/>
<path d="M120.603 138.341L117.949 138.777L118.026 139.243L120.679 138.806L120.603 138.341Z" fill="#92E3A9"/>
<path d="M158.702 118.557C158.702 118.557 146.256 106.918 128.427 109.223L72.2683 114.523C71.2386 114.62 70.239 114.923 69.3292 115.414C68.4193 115.905 67.6178 116.573 66.9724 117.38C66.3271 118.187 65.8511 119.115 65.5729 120.11C65.2947 121.104 65.22 122.144 65.3532 123.168L67.2602 137.861C67.393 138.885 67.7311 139.872 68.2542 140.762C68.7773 141.653 69.4748 142.43 70.3051 143.045C71.1353 143.661 72.0813 144.104 73.0866 144.347C74.0919 144.589 75.1359 144.628 76.1563 144.459L131.815 135.287C149.64 132.982 158.702 118.557 158.702 118.557Z" fill="#92E3A9"/>
<path opacity="0.3" d="M158.704 118.557C155.98 122.492 152.572 125.908 148.641 128.643C148.17 128.972 147.622 129.174 147.049 129.23C146.477 129.285 145.9 129.193 145.374 128.96C144.848 128.728 144.391 128.364 144.047 127.904C143.703 127.443 143.484 126.902 143.411 126.333L141.93 114.897C141.856 114.328 141.931 113.749 142.147 113.217C142.364 112.685 142.714 112.218 143.164 111.861C143.614 111.504 144.149 111.27 144.717 111.18C145.285 111.09 145.867 111.148 146.406 111.349C150.905 112.996 155.071 115.437 158.704 118.557Z" fill="white"/>
<path d="M128.943 124.077C129.179 118.81 125.094 114.349 119.817 114.114C114.541 113.878 110.073 117.957 109.837 123.224C109.601 128.491 113.687 132.951 118.963 133.187C124.239 133.422 128.708 129.343 128.943 124.077Z" fill="white"/>
<path opacity="0.3" d="M125.825 124.161C125.704 125.634 125.081 127.02 124.06 128.091C123.04 129.161 121.683 129.85 120.216 130.043C120.123 130.043 120.026 130.066 119.929 130.071C119.519 130.11 119.107 130.11 118.697 130.071C118.554 130.071 118.406 130.039 118.267 130.015L117.957 129.955C116.668 129.66 115.5 128.978 114.611 128.001C113.721 127.024 113.153 125.798 112.981 124.489C112.944 124.183 112.927 123.874 112.93 123.565C113.012 121.973 113.68 120.467 114.806 119.336C115.932 118.206 117.437 117.53 119.031 117.439C120.626 117.348 122.198 117.848 123.446 118.843C124.694 119.838 125.53 121.258 125.793 122.831C125.851 123.272 125.862 123.718 125.825 124.161Z" fill="#92E3A9"/>
<path opacity="0.3" d="M125.825 124.161C125.704 125.634 125.081 127.02 124.06 128.091C123.04 129.161 121.683 129.85 120.216 130.043C120.123 130.043 120.026 130.066 119.929 130.071C119.519 130.108 119.107 130.108 118.697 130.071C118.554 130.071 118.406 130.039 118.267 130.015L117.957 129.955C116.668 129.66 115.5 128.978 114.611 128.001C113.721 127.024 113.153 125.798 112.981 124.489C112.944 124.183 112.927 123.874 112.93 123.565C113.079 122.145 113.716 120.82 114.734 119.816C115.752 118.812 117.087 118.193 118.512 118.062C122.053 117.642 125.298 119.984 125.77 123.293C125.809 123.58 125.827 123.871 125.825 124.161Z" fill="#92E3A9"/>
<path d="M105.957 109.219L108.85 108.932L109.257 102.334L106.364 102.621L105.957 109.219Z" fill="#CF7A64"/>
<path d="M89.3477 110.933L92.1942 110.651L92.8006 103.938L89.954 104.219L89.3477 110.933Z" fill="#CF7A64"/>
<path d="M92.3586 110.013L89.1556 110.332C89.1 110.338 89.048 110.363 89.0085 110.403C88.9689 110.442 88.9441 110.494 88.938 110.549L88.6927 113.128C88.6879 113.19 88.6965 113.252 88.718 113.31C88.7396 113.368 88.7735 113.421 88.8175 113.465C88.8615 113.509 88.9145 113.543 88.9728 113.564C89.0312 113.586 89.0936 113.595 89.1556 113.59C90.2711 113.46 90.8034 113.34 92.2104 113.202C93.076 113.114 94.2378 113.035 95.4504 112.915C96.6631 112.795 96.6585 111.603 96.154 111.529C93.8999 111.27 93.6222 110.679 92.8399 110.12C92.6974 110.028 92.5266 109.99 92.3586 110.013Z" fill="#263238"/>
<path d="M108.93 108.336L105.82 108.65C105.764 108.655 105.711 108.679 105.671 108.719C105.631 108.759 105.607 108.811 105.603 108.868L105.357 111.446C105.352 111.508 105.36 111.57 105.381 111.629C105.402 111.688 105.436 111.741 105.48 111.785C105.524 111.829 105.578 111.863 105.636 111.884C105.695 111.905 105.758 111.914 105.82 111.908C106.94 111.778 108.551 111.547 109.963 111.409C111.615 111.242 111.624 111.33 113.559 111.136C114.725 111.016 114.901 109.806 114.401 109.75C112.11 109.487 111.712 109.477 109.634 108.489C109.417 108.377 109.174 108.324 108.93 108.336Z" fill="#263238"/>
<path d="M97.8378 16.606C98.5599 16.6707 99.3745 16.7493 100.152 16.7862C100.93 16.8232 101.707 16.8509 102.466 16.8509C103.198 16.8492 103.929 16.806 104.656 16.7215C105.232 16.6618 105.797 16.517 106.331 16.2918L105.48 17.5948C105.48 17.7473 105.512 17.7473 105.48 17.6549C105.44 17.5132 105.385 17.3767 105.313 17.2483C105.096 16.8541 104.84 16.4827 104.549 16.1394C103.883 15.3423 103.167 14.5877 102.406 13.88C101.629 13.1361 100.809 12.4153 99.9809 11.6991C99.1523 10.9829 98.2914 10.2714 97.4583 9.58291L98.5691 7.85486C99.6013 8.38159 100.573 8.95453 101.555 9.55057C102.536 10.1466 103.48 10.7935 104.415 11.4866C105.38 12.1874 106.292 12.9596 107.141 13.7968C107.613 14.2722 108.039 14.7904 108.414 15.3446C108.645 15.6863 108.834 16.0539 108.979 16.4397C109.188 16.9805 109.261 17.5644 109.192 18.14L109.09 18.9532L108.331 19.4569C107.417 20.0375 106.398 20.4346 105.331 20.6258C104.416 20.8131 103.488 20.9275 102.554 20.9678C101.656 21.0186 100.772 21.0093 99.8975 20.9678C99.0227 20.9262 98.1757 20.8615 97.25 20.7229L97.8378 16.606Z" fill="#CE7A63"/>
<path d="M99.5355 8.77896L97.8322 6.64893L96.5547 9.70306C96.5547 9.70306 98.1006 11.5189 99.7391 10.6272L99.5355 8.77896Z" fill="#CF7A64"/>
<path d="M95.5721 5.53076L95.2852 8.99612L96.5534 9.67994L97.8262 6.63968L95.5721 5.53076Z" fill="#CF7A64"/>
<path d="M93.4845 5.97433L96.0765 4.90238C96.1185 4.88053 96.1647 4.868 96.212 4.86564C96.2592 4.86328 96.3065 4.87115 96.3504 4.8887C96.3944 4.90625 96.434 4.93307 96.4666 4.96733C96.4992 5.00159 96.524 5.04248 96.5393 5.0872L98.2103 10.4054C98.2303 10.4989 98.2167 10.5965 98.1719 10.681C98.127 10.7655 98.0537 10.8315 97.9649 10.8674L95.3729 11.9394C95.331 11.9612 95.2848 11.9737 95.2375 11.9761C95.1902 11.9784 95.143 11.9706 95.099 11.953C95.0551 11.9355 95.0154 11.9087 94.9828 11.8744C94.9502 11.8401 94.9254 11.7993 94.9101 11.7545L93.2392 6.46872C93.2103 6.37061 93.2195 6.26525 93.265 6.17363C93.3104 6.08201 93.3888 6.01085 93.4845 5.97433Z" fill="#263238"/>
<path d="M95.013 21.6792C96.8968 23.9525 104.617 21.8225 104.617 21.8225L103.965 16.6337C103.965 16.6337 102.016 16.0515 98.1512 15.9314C94.1891 15.7881 92.9487 19.1888 95.013 21.6792Z" fill="#92E3A9"/>
<path opacity="0.2" d="M109.257 102.339L109.044 105.74L106.156 106.026L106.365 102.625L109.257 102.339Z" fill="black"/>
<path opacity="0.2" d="M89.9507 104.224L92.8019 103.938L92.4872 107.398L89.6406 107.685L89.9507 104.224Z" fill="black"/>
<path d="M100.948 17.3591C102.068 20.2608 104.817 28.9103 103.859 41.9678L88.6219 43.4972C88.2238 41.1869 88.159 28.4852 84.5117 17.7334C86.1593 17.2428 87.8367 16.8585 89.5337 16.5829C91.6793 16.241 93.8429 16.0235 96.0137 15.9314C97.1227 15.9299 98.2308 15.9931 99.3324 16.1209C99.6894 16.16 100.029 16.2961 100.314 16.5144C100.598 16.7328 100.818 17.025 100.948 17.3591Z" fill="#92E3A9"/>
<path opacity="0.2" d="M95.0937 19.7294L94.4966 19.8079C94.5568 24.8905 94.6308 26.2766 90.0346 31.0265C89.2047 31.8695 88.4519 32.7849 87.7852 33.7618C87.8453 34.3624 87.9055 34.9446 87.961 35.5083C89.1506 34.4225 90.7382 32.9994 91.9231 32.0106C97.2691 27.5565 95.2464 19.6647 95.0937 19.7294Z" fill="black"/>
<path opacity="0.2" d="M88.1634 20.113C88.6263 21.8919 88.6263 26.2721 87.5155 31.4377C87.0029 27.1577 86.1154 22.9307 84.8633 18.8054C85.8492 18.579 87.7098 18.445 88.1634 20.113Z" fill="black"/>
<path d="M89.6231 10.4653C90.2942 12.4983 90.8219 15.0488 89.5352 16.5828C89.5352 16.5828 90.6368 18.602 94.5109 18.2139C98.0471 17.8581 96.0152 15.9314 96.0152 15.9314C93.6176 15.6125 93.3815 12.7386 93.5852 11.0845L89.6231 10.4653Z" fill="#CF7A64"/>
<path d="M94.677 18.0199L95.6027 18.8608C95.6349 18.8901 95.6591 18.9271 95.6729 18.9684C95.6866 19.0096 95.6896 19.0537 95.6814 19.0965L95.4916 19.942C95.4823 19.9886 95.4585 20.0311 95.4236 20.0634C95.3887 20.0958 95.3445 20.1163 95.2972 20.1222L94.3947 20.2562C94.3529 20.2626 94.3102 20.2583 94.2705 20.2438C94.2309 20.2292 94.1955 20.2049 94.1679 20.173L93.5476 19.4338C93.5142 19.3908 93.4961 19.338 93.4961 19.2836C93.4961 19.2292 93.5142 19.1764 93.5476 19.1334L94.3206 18.0522C94.3412 18.0258 94.3671 18.0039 94.3965 17.9879C94.426 17.9719 94.4584 17.962 94.4918 17.959C94.5252 17.956 94.5589 17.9598 94.5907 17.9703C94.6226 17.9808 94.6519 17.9976 94.677 18.0199Z" fill="#263238"/>
<path d="M94.3888 17.9922C94.0003 19.0012 93.4888 19.9587 92.866 20.843C92.866 20.843 89.1029 19.1334 88.8761 16.6846C88.872 16.6399 88.8792 16.5949 88.897 16.5538C88.9147 16.5126 88.9426 16.4766 88.978 16.4489C89.1215 16.338 89.3806 16.1347 89.626 15.9314C89.6545 15.9055 89.6884 15.8862 89.7253 15.875C89.7622 15.8639 89.8012 15.861 89.8393 15.8668C89.8775 15.8726 89.9138 15.8867 89.9458 15.9083C89.9777 15.9299 90.0045 15.9583 90.024 15.9915C90.3249 16.5228 91.2969 17.5578 94.3888 17.9922Z" fill="white"/>
<path d="M94.5234 17.9644C95.3099 18.5571 95.9667 19.3039 96.4536 20.1592C96.813 19.5335 97.0292 18.8362 97.0869 18.1172C97.1445 17.3983 97.042 16.6755 96.7868 16.0007C96.7705 15.9609 96.7453 15.9253 96.7133 15.8965C96.6812 15.8677 96.6431 15.8464 96.6017 15.8344C96.4397 15.7928 96.1388 15.7189 95.8287 15.6588C95.7877 15.6521 95.7456 15.655 95.7059 15.6672C95.6662 15.6795 95.6298 15.7008 95.5998 15.7295C95.5697 15.7582 95.5467 15.7934 95.5326 15.8325C95.5185 15.8715 95.5137 15.9133 95.5186 15.9545C95.5963 16.3521 95.541 16.7642 95.3612 17.1273C95.1814 17.4905 94.887 17.7846 94.5234 17.9644Z" fill="white"/>
<path d="M95.0648 19.6971C95.2129 19.6324 96.7126 26.7017 91.5378 30.9942C89.4272 32.7453 86.0344 35.8734 86.0391 35.8688C86.3538 34.6258 87.3443 32.7084 89.8299 30.1948C94.3242 25.6529 94.3196 24.4192 94.5047 19.7987L95.0648 19.6971Z" fill="#263238"/>
<path opacity="0.2" d="M93.5834 11.0892C93.418 12.2451 93.5783 13.4243 94.0463 14.4945C93.6782 14.4776 93.3147 14.4059 92.9678 14.2819C91.5793 13.8199 90.8156 12.8958 89.9593 11.5096C89.8621 11.1446 89.7556 10.7935 89.6445 10.4515L93.5834 11.0892Z" fill="black"/>
<path d="M92.0248 4.1585C92.5756 -0.189361 95.7786 4.41263 94.8899 6.57501C94.3438 7.89647 91.8906 5.20735 92.0248 4.1585Z" fill="#263238"/>
<path d="M87.6168 8.10433C88.7138 10.7472 89.2229 12.3505 91.0558 13.2931C93.8098 14.7208 96.6842 12.4106 96.388 9.50895C96.1241 6.89838 94.3745 3.01257 91.3845 2.79078C90.7283 2.73642 90.0692 2.85384 89.4723 3.13144C88.8754 3.40905 88.3614 3.83726 87.981 4.37378C87.6005 4.9103 87.3669 5.53659 87.303 6.19081C87.2391 6.84504 87.3473 7.50458 87.6168 8.10433Z" fill="#CF7A64"/>
<path d="M88.8526 10.6595C89.2021 10.5983 89.5266 10.4382 89.7876 10.1982C90.0485 9.95819 90.2349 9.64838 90.3245 9.30565C89.5348 8.98909 88.85 8.45759 88.3481 7.77166C88.3481 7.77166 89.5237 6.08518 89.3988 5.11026C90.9077 5.11026 94.4439 3.65481 93.6432 2.04689C92.8424 0.438965 89.6672 -0.360376 87.8158 0.77626C86.6488 1.5702 85.2659 1.98787 83.8537 1.97296C84.2746 2.22205 84.7323 2.40295 85.2099 2.50894C84.6885 3.01774 84.2802 3.63036 84.0114 4.30698C83.7427 4.98361 83.6196 5.70911 83.6501 6.43634C83.738 8.50169 82.6133 9.33337 82.6133 9.33337C82.6133 9.33337 84.0019 9.5413 84.4277 8.93139C84.2379 9.60598 85.3812 11.9717 87.8945 12.2997C90.7087 12.6647 88.8526 10.6595 88.8526 10.6595Z" fill="#263238"/>
<path d="M87.6998 11.9255C88.7412 12.3875 89.5513 12.5446 90.0882 12.2304C90.6251 11.9163 90.4723 10.8443 89.7873 10.2298C89.1717 9.68919 87.959 9.17631 87.2555 9.76773C86.5519 10.3592 86.626 11.4357 87.6998 11.9255Z" fill="#CF7A64"/>
<path d="M103.859 41.9678C103.859 41.9678 110.413 63.4807 110.876 71.6173C111.385 80.521 110.098 104.182 110.098 104.182L104.947 104.705C104.947 104.705 103.984 82.1751 102.679 73.4609C101.263 64.0028 94.1484 42.9658 94.1484 42.9658L103.859 41.9678Z" fill="#263238"/>
<path opacity="0.2" d="M99.3452 52.1097L98.5352 56.8319C99.6692 60.653 100.803 64.7236 101.632 68.2583C101.879 62.7805 101.104 57.3045 99.3452 52.1097Z" fill="black"/>
<path d="M104.52 103.42L104.686 105.319L110.449 104.742L110.615 102.593L104.52 103.42Z" fill="#92E3A9"/>
<path d="M98.4517 42.5084C98.4517 42.5084 100.585 61.7435 99.8403 70.0464C99.0118 79.1349 93.7398 106.322 93.7398 106.322L88.5234 106.844C88.5234 106.844 91.3932 80.6273 91.3932 71.7283C91.3932 62.0484 88.616 43.5157 88.616 43.5157L98.4517 42.5084Z" fill="#263238"/>
<path d="M88.3436 105.181L88.2695 106.969L94.0043 106.391L94.5875 104.367L88.3436 105.181Z" fill="#92E3A9"/>
<path d="M91.9343 7.54068C92.0084 7.76246 92.1889 7.90108 92.3277 7.85487C92.4666 7.80867 92.5268 7.5915 92.4481 7.39282C92.3694 7.19414 92.1981 7.03243 92.0546 7.07863C91.9112 7.12484 91.8556 7.3189 91.9343 7.54068Z" fill="#263238"/>
<path d="M94.3971 6.74124C94.4711 6.96302 94.6517 7.10164 94.7905 7.05543C94.9294 7.00923 94.9895 6.79207 94.9109 6.59339C94.8322 6.39471 94.6609 6.23299 94.5174 6.27919C94.374 6.3254 94.323 6.52408 94.3971 6.74124Z" fill="#263238"/>
<path d="M93.6523 7.10632C94.1446 7.69172 94.7128 8.20913 95.3418 8.64494C95.2301 8.80106 95.0849 8.93024 94.9167 9.02298C94.7485 9.11573 94.5616 9.1697 94.3698 9.18092L93.6523 7.10632Z" fill="#BA4D3C"/>
<path d="M93.8258 10.0819C93.842 10.0747 93.8549 10.0617 93.8618 10.0453C93.8687 10.029 93.8691 10.0107 93.8628 9.99407C93.8557 9.97771 93.8428 9.96448 93.8266 9.95684C93.8105 9.94919 93.7921 9.94765 93.7749 9.95249C93.5058 10.0537 93.2168 10.0909 92.9308 10.0612C92.6447 10.0316 92.3696 9.93581 92.1271 9.78153C92.1141 9.76883 92.0967 9.76172 92.0785 9.76172C92.0603 9.76172 92.0429 9.76883 92.0299 9.78153C92.0182 9.79498 92.0117 9.81222 92.0117 9.83005C92.0117 9.84788 92.0182 9.86511 92.0299 9.87856C92.2904 10.0551 92.5899 10.1658 92.9027 10.2012C93.2156 10.2366 93.5323 10.1957 93.8258 10.0819Z" fill="#263238"/>
<path d="M90.9175 6.98154C90.9368 6.97492 90.9544 6.96398 90.9688 6.94957C90.9832 6.93516 90.9942 6.91765 91.0008 6.89838C91.0469 6.73682 91.1316 6.58888 91.2477 6.46733C91.3639 6.34578 91.5079 6.25426 91.6673 6.20068C91.6847 6.19648 91.7011 6.18872 91.7153 6.17789C91.7296 6.16706 91.7415 6.1534 91.7501 6.13777C91.7588 6.12214 91.7642 6.10488 91.7659 6.08708C91.7676 6.06928 91.7655 6.05132 91.7599 6.03435C91.7501 5.99977 91.7273 5.97033 91.6962 5.95223C91.6651 5.93413 91.6282 5.92878 91.5933 5.93732C91.3911 6.00175 91.2078 6.1146 91.0593 6.26601C90.9109 6.41742 90.8018 6.6028 90.7416 6.80597C90.7334 6.83043 90.7321 6.8567 90.738 6.88183C90.7439 6.90695 90.7568 6.92993 90.775 6.94818C90.7933 6.96643 90.8163 6.97922 90.8415 6.98512C90.8667 6.99101 90.893 6.98977 90.9175 6.98154Z" fill="#263238"/>
<path d="M95.1982 5.50297C95.2179 5.49501 95.2354 5.48231 95.2491 5.466C95.2732 5.44032 95.2866 5.40646 95.2866 5.37128C95.2866 5.3361 95.2732 5.30224 95.2491 5.27656C95.0916 5.12848 94.9016 5.0192 94.6942 4.95743C94.4869 4.89566 94.268 4.88311 94.0549 4.92079C94.0379 4.92557 94.0219 4.93369 94.008 4.94466C93.9941 4.95563 93.9825 4.96924 93.9739 4.9847C93.9653 5.00017 93.9599 5.01718 93.9579 5.03476C93.9559 5.05234 93.9574 5.07013 93.9624 5.08712C93.9666 5.10457 93.9744 5.12097 93.9852 5.13536C93.996 5.14975 94.0095 5.16184 94.0251 5.17089C94.0406 5.17994 94.0578 5.18578 94.0757 5.18805C94.0935 5.19033 94.1117 5.18901 94.129 5.18415C94.2953 5.15853 94.4653 5.17146 94.6258 5.22194C94.7864 5.27241 94.9331 5.35908 95.0547 5.47524C95.0737 5.49272 95.0971 5.50458 95.1225 5.50947C95.1478 5.51437 95.174 5.51212 95.1982 5.50297Z" fill="#263238"/>
<path d="M82.6971 22.4232L86.5759 23.9896C86.5759 23.9896 83.3821 33.4708 84.0718 34.7553C84.9975 36.5018 87.5016 39.2879 88.9874 41.1408C88.8512 41.8384 88.5317 42.4874 88.0616 43.0213C84.942 41.5427 80.0264 36.8992 79.7719 35.1203C79.2118 31.0635 82.6971 22.4232 82.6971 22.4232Z" fill="#CF7A64"/>
<path d="M84.5134 17.7333C81.3428 18.7591 80.8984 25.7961 80.8984 25.7961L85.8047 28.3096C87.2153 26.6334 88.2279 24.6606 88.767 22.5386C89.6233 18.967 87.2998 16.8324 84.5134 17.7333Z" fill="#92E3A9"/>
<path d="M93.3607 110.429C93.5545 110.427 93.7412 110.356 93.8884 110.231C93.9344 110.182 93.9674 110.123 93.9844 110.058C94.0014 109.994 94.0018 109.926 93.9856 109.861C93.9801 109.822 93.9644 109.785 93.94 109.754C93.9156 109.724 93.8834 109.7 93.8467 109.685C93.5135 109.556 92.6618 110.208 92.5646 110.281C92.5581 110.293 92.5547 110.305 92.5547 110.318C92.5547 110.331 92.5581 110.344 92.5646 110.355C92.5676 110.368 92.5746 110.379 92.5847 110.388C92.5947 110.396 92.6071 110.401 92.6202 110.402C92.865 110.44 93.1136 110.45 93.3607 110.429ZM93.7079 109.801C93.7383 109.794 93.77 109.794 93.8004 109.801C93.8148 109.808 93.8271 109.818 93.8361 109.831C93.845 109.844 93.8503 109.859 93.8514 109.875C93.863 109.919 93.8636 109.965 93.8531 110.009C93.8426 110.054 93.8213 110.095 93.7912 110.129C93.4877 110.305 93.1289 110.359 92.7868 110.281C93.0581 110.056 93.371 109.887 93.7079 109.782V109.801Z" fill="#92E3A9"/>
<path d="M92.6146 110.388C92.6146 110.388 92.6146 110.388 92.647 110.388C92.9247 110.198 93.4153 109.519 93.3135 109.21C93.2971 109.161 93.2648 109.12 93.222 109.092C93.1792 109.065 93.1283 109.052 93.0775 109.057C93.0256 109.055 92.9739 109.065 92.926 109.085C92.878 109.104 92.835 109.134 92.7997 109.173C92.5035 109.473 92.5405 110.3 92.5405 110.332C92.5396 110.345 92.5426 110.358 92.5493 110.368C92.5559 110.379 92.5658 110.388 92.5776 110.392L92.6146 110.388ZM93.0451 109.177H93.0775C93.1654 109.177 93.1793 109.219 93.1839 109.233C93.2441 109.417 92.9386 109.926 92.6748 110.157C92.6532 109.833 92.7324 109.51 92.9016 109.233C92.9439 109.196 92.9983 109.176 93.0543 109.177H93.0451Z" fill="#92E3A9"/>
<path d="M110.18 108.715C110.424 108.714 110.66 108.628 110.847 108.47C110.889 108.426 110.919 108.372 110.935 108.313C110.95 108.254 110.95 108.192 110.935 108.133C110.928 108.096 110.912 108.061 110.888 108.031C110.865 108.001 110.835 107.978 110.8 107.962C110.43 107.805 109.356 108.498 109.236 108.576C109.225 108.585 109.217 108.597 109.212 108.61C109.207 108.623 109.206 108.637 109.208 108.65C109.212 108.664 109.22 108.676 109.23 108.685C109.241 108.694 109.254 108.7 109.268 108.701C109.571 108.734 109.876 108.739 110.18 108.715ZM110.62 108.073C110.662 108.063 110.707 108.063 110.749 108.073C110.763 108.079 110.776 108.088 110.785 108.1C110.794 108.113 110.799 108.127 110.8 108.142C110.811 108.181 110.811 108.221 110.801 108.26C110.792 108.299 110.772 108.335 110.745 108.364C110.592 108.539 110.125 108.609 109.481 108.572C109.837 108.34 110.23 108.171 110.643 108.073H110.62Z" fill="#92E3A9"/>
<path d="M109.285 108.701H109.312C109.636 108.516 110.238 107.833 110.15 107.518C110.127 107.445 110.062 107.357 109.872 107.357C109.806 107.355 109.739 107.368 109.678 107.394C109.616 107.42 109.561 107.46 109.516 107.509C109.293 107.845 109.186 108.244 109.211 108.646C109.211 108.657 109.214 108.668 109.219 108.678C109.225 108.688 109.233 108.696 109.243 108.701C109.249 108.705 109.257 108.706 109.264 108.706C109.271 108.706 109.278 108.705 109.285 108.701ZM109.835 107.481H109.877C110.002 107.481 110.016 107.528 110.021 107.542C110.076 107.731 109.673 108.262 109.345 108.507C109.336 108.179 109.429 107.856 109.613 107.583C109.673 107.525 109.752 107.489 109.835 107.481Z" fill="#92E3A9"/>
<path d="M88.2903 40.7433L91.0165 40.8357L89.3549 43.6727C89.3549 43.6727 86.9712 43.5109 86.7305 41.6535L88.2903 40.7433Z" fill="#CF7A64"/>
<path d="M92.2904 41.783L90.638 44.2781L89.3281 43.6728L91.0129 40.8358L92.2904 41.783Z" fill="#CF7A64"/>
</g>
<defs>
<clipPath id="clip0_2517_100">
<rect width="180" height="163" fill="white"/>
</clipPath>
</defs>
</svg>
