<svg width="180" height="178" viewBox="0 0 180 178" fill="none" xmlns="http://www.w3.org/2000/svg">
<g clip-path="url(#clip0_2511_23782)">
<path d="M33.7148 140.084C48.356 148.59 68.0447 149.963 84.4302 145.826C92.6601 143.744 98.7746 139.398 105.868 135.261C115.805 129.459 123.237 130.071 134.366 129.412C166.762 127.501 176.026 96.3432 172.542 74.7625C168.311 48.5207 144.336 27.8305 115.647 25.6367C96.3343 24.1618 78.4921 26.8565 63.373 35.1076C51.5709 41.5497 50.2302 51.7116 48.305 63.4829C46.8343 72.4667 45.8972 82.4987 40.3673 90.272C35.306 97.3821 27.9529 93.2775 21.5137 98.1566C5.10496 110.531 21.3838 132.919 33.7148 140.084Z" fill="#92E3A9"/>
<path opacity="0.9" d="M33.7148 140.084C48.356 148.59 68.0447 149.963 84.4302 145.826C92.6601 143.744 98.7746 139.398 105.868 135.261C115.805 129.459 123.237 130.071 134.366 129.412C166.762 127.501 176.026 96.3432 172.542 74.7625C168.311 48.5207 144.336 27.8305 115.647 25.6367C96.3343 24.1618 78.4921 26.8565 63.373 35.1076C51.5709 41.5497 50.2302 51.7116 48.305 63.4829C46.8343 72.4667 45.8972 82.4987 40.3673 90.272C35.306 97.3821 27.9529 93.2775 21.5137 98.1566C5.10496 110.531 21.3838 132.919 33.7148 140.084Z" fill="white"/>
<path d="M89.9997 177.796C139.677 177.796 179.949 175.445 179.949 172.546C179.949 169.646 139.677 167.296 89.9997 167.296C40.3223 167.296 0.0507812 169.646 0.0507812 172.546C0.0507812 175.445 40.3223 177.796 89.9997 177.796Z" fill="#F5F5F5"/>
<path d="M51.2766 32.3388L50.9844 31.977C53.0226 30.3239 55.144 28.7759 57.3401 27.339L57.5952 27.7286C55.4115 29.1562 53.3025 30.695 51.2766 32.3388Z" fill="#263238"/>
<path d="M47.8506 35.2653L47.5352 34.9221C48.1568 34.3609 48.797 33.7997 49.4326 33.2571L49.7341 33.6142C49.0986 34.1522 48.4676 34.7088 47.8506 35.2653Z" fill="#263238"/>
<path d="M99.2316 91.8685C121.441 72.4171 128.333 43.9674 114.625 28.3243C100.917 12.6813 71.8012 15.7686 49.5921 35.22C27.383 54.6714 20.4911 83.1211 34.1986 98.7642C47.9062 114.407 77.0224 111.32 99.2316 91.8685Z" fill="#263238"/>
<path d="M95.9416 88.1148C115.208 71.2408 121.187 46.5611 109.296 32.9912C97.405 19.4213 72.1471 22.0998 52.8808 38.9738C33.6145 55.8478 27.6356 80.5274 39.5265 94.0973C51.4174 107.667 76.6753 104.989 95.9416 88.1148Z" fill="white"/>
<path d="M84.0389 27.6775C63.9559 29.3055 43.3673 46.6934 38.0508 66.4791L110.779 60.5935C116.096 40.7892 104.122 26.0542 84.0389 27.6775Z" fill="#92E3A9"/>
<path opacity="0.7" d="M38.0391 66.479L74.4056 63.5339L55.5056 40.2511C47.1829 47.2823 40.7066 56.5769 38.0391 66.479Z" fill="white"/>
<path opacity="0.4" d="M84.0387 27.6775C73.9996 28.4938 63.8305 33.2431 55.5078 40.2604L74.4171 63.5339L84.0387 27.6775Z" fill="white"/>
<path opacity="0.1" d="M84.0357 27.6775L74.4141 63.5339L106.93 36.1001C102.091 30.1449 94.0795 26.8658 84.0357 27.6775Z" fill="white"/>
<path d="M83.1938 73.5671C91.0548 66.6821 93.4953 56.6133 88.6448 51.0778C83.7942 45.5424 73.4894 46.6364 65.6283 53.5213C57.7672 60.4063 55.3267 70.4751 60.1773 76.0105C65.0278 81.546 75.3327 80.452 83.1938 73.5671Z" fill="white"/>
<path d="M79.5387 69.3946C84.1254 65.3774 85.5485 59.5015 82.7172 56.2703C79.8858 53.0392 73.8723 53.6765 69.2855 57.6937C64.6988 61.7109 63.2757 67.5869 66.107 70.818C68.9384 74.0491 74.9519 73.4118 79.5387 69.3946Z" fill="#263238"/>
<path d="M101.635 44.3558C92.9826 47.6222 84.7788 51.9701 77.2188 57.2959L80.6378 63.418C88.3687 57.9196 95.4173 51.5205 101.635 44.3558Z" fill="#263238"/>
<path d="M42.2167 80.1659C42.1087 80.1714 42.001 80.1519 41.9018 80.1088C41.8027 80.0657 41.7149 80.0003 41.6452 79.9177C41.5756 79.835 41.526 79.7374 41.5004 79.6324C41.4748 79.5274 41.4738 79.4179 41.4976 79.3125C41.5515 79.0516 41.6863 78.8143 41.8829 78.6345C42.0794 78.4546 42.3277 78.3413 42.5925 78.3107L82.5775 75.1429C82.6905 75.1257 82.8059 75.1363 82.9138 75.1739C83.0217 75.2115 83.1188 75.2749 83.1966 75.3586C83.2744 75.4423 83.3305 75.5437 83.36 75.6541C83.3896 75.7644 83.3917 75.8803 83.3662 75.9917C83.3137 76.252 83.1798 76.4889 82.9838 76.6681C82.7878 76.8473 82.54 76.9597 82.276 76.9889L42.3234 80.1613L42.2167 80.1659Z" fill="#92E3A9"/>
<path d="M76.8 83.9691C76.6918 83.9756 76.5835 83.9567 76.4839 83.9139C76.3843 83.8712 76.296 83.8057 76.2262 83.7228C76.1563 83.6399 76.1068 83.5419 76.0816 83.4365C76.0564 83.331 76.0561 83.2212 76.0809 83.1157C76.1337 82.8547 76.2682 82.6173 76.4651 82.438C76.662 82.2587 76.9109 82.1468 77.1757 82.1185L90.1654 81.0842C90.2787 81.0661 90.3948 81.0761 90.5033 81.1133C90.6119 81.1505 90.7096 81.2138 90.7879 81.2976C90.8663 81.3814 90.9228 81.4832 90.9526 81.594C90.9824 81.7048 90.9845 81.8212 90.9587 81.933C90.9055 82.1942 90.7709 82.4319 90.5742 82.6118C90.3775 82.7918 90.1289 82.9049 89.8639 82.9348L76.8742 83.9644L76.8 83.9691Z" fill="#92E3A9"/>
<path d="M10.7362 100.582C10.6283 100.588 10.5205 100.568 10.4214 100.525C10.3222 100.482 10.2344 100.417 10.1648 100.334C10.0951 100.251 10.0456 100.154 10.0199 100.049C9.99434 99.9439 9.99337 99.8344 10.0171 99.7289C10.0722 99.4658 10.21 99.2272 10.4102 99.0478C10.6105 98.8684 10.8629 98.7577 11.1305 98.7318L24.1202 97.6975C24.2333 97.6805 24.3488 97.6913 24.4568 97.7289C24.5648 97.7665 24.662 97.8298 24.7401 97.9134C24.8182 97.9969 24.8747 98.0981 24.905 98.2084C24.9352 98.3187 24.9381 98.4346 24.9135 98.5463C24.8606 98.8068 24.7266 99.0439 24.5309 99.2238C24.3351 99.4038 24.0875 99.5172 23.8233 99.5481L10.8336 100.578L10.7362 100.582Z" fill="#92E3A9"/>
<path d="M22.307 92.99C22.1991 92.9957 22.0915 92.9763 21.9924 92.9332C21.8934 92.8901 21.8058 92.8246 21.7365 92.7418C21.6671 92.659 21.6181 92.5612 21.5931 92.4562C21.5681 92.3511 21.5679 92.2417 21.5926 92.1366C21.6457 91.8766 21.7798 91.6401 21.9757 91.461C22.1715 91.2819 22.419 91.1693 22.6828 91.1394L61.6518 88.0459C61.7649 88.0289 61.8804 88.0397 61.9884 88.0773C62.0964 88.1149 62.1936 88.1782 62.2717 88.2617C62.3498 88.3453 62.4064 88.4465 62.4366 88.5568C62.4668 88.667 62.4697 88.783 62.4451 88.8946C62.3913 89.1556 62.2564 89.3928 62.0599 89.5727C61.8633 89.7526 61.615 89.8658 61.3503 89.8965L22.3812 92.9854L22.307 92.99Z" fill="#92E3A9"/>
<path d="M105.957 134.639L107.609 137.974L115.778 135.038L114.127 131.703L105.957 134.639Z" fill="#FF8B7B"/>
<path d="M66.2344 162.064L68.7163 164.842L75.0256 157.676L71.9684 155.552L66.2344 162.064Z" fill="#FF8B7B"/>
<path d="M69.2833 164.55L67.5946 160.334C67.5678 160.267 67.5184 160.211 67.4549 160.176C67.3914 160.141 67.3178 160.13 67.2467 160.144L63.9482 160.839C63.867 160.857 63.7906 160.893 63.7247 160.944C63.6587 160.994 63.6048 161.059 63.5667 161.133C63.5286 161.207 63.5073 161.288 63.5043 161.371C63.5013 161.455 63.5166 161.537 63.5493 161.614C64.1152 162.959 64.5884 163.933 65.2704 165.621C65.6926 166.674 66.8524 169.888 67.4369 171.34C68.0214 172.791 69.5013 172.346 69.3946 171.692C68.8982 168.775 68.8843 166.414 69.2972 165.222C69.3769 165.004 69.3719 164.764 69.2833 164.55Z" fill="#263238"/>
<path d="M107.981 137.761L106.177 134.115C106.143 134.05 106.089 133.997 106.023 133.966C105.957 133.935 105.882 133.927 105.81 133.943L102.516 134.755C102.436 134.773 102.361 134.81 102.297 134.862C102.233 134.914 102.182 134.98 102.147 135.054C102.113 135.129 102.096 135.211 102.098 135.293C102.1 135.376 102.121 135.457 102.159 135.53C102.832 136.833 103.848 138.693 104.669 140.344C105.625 142.278 105.755 142.338 106.877 144.602C107.555 145.97 109.127 145.668 108.97 145.033C108.246 142.139 107.842 141.638 108.121 138.693C108.161 138.375 108.113 138.052 107.981 137.761Z" fill="#263238"/>
<path d="M140.105 74.6837C139.934 75.8896 139.748 77.1882 139.604 78.4451C139.46 79.702 139.317 80.9821 139.21 82.2483C138.964 84.7231 138.889 87.2119 138.987 89.6969C138.987 89.9984 139.015 90.2999 139.052 90.5828L139.136 91.4084C139.135 91.653 139.211 91.8918 139.353 92.0908C139.495 92.2898 139.697 92.4389 139.929 92.5168C140.349 92.7094 140.794 92.8436 141.251 92.9157C142.393 93.0852 143.551 93.1287 144.703 93.0456C145.31 93.0038 145.932 92.9575 146.558 92.8832C147.185 92.809 147.82 92.7116 148.414 92.6235L149.314 95.2718C148.673 95.5732 148.016 95.8411 147.347 96.0742C146.686 96.32 146.012 96.5305 145.329 96.705C144.628 96.8906 143.917 97.0346 143.2 97.1363C142.441 97.2525 141.675 97.3021 140.908 97.2847C140.047 97.2743 139.191 97.1448 138.366 96.8998C137.359 96.5947 136.444 96.0449 135.703 95.2996C134.93 94.4911 134.397 93.4846 134.162 92.3916C134.13 92.2478 134.116 92.169 134.102 92.0762L134.056 91.8072L133.958 91.2599C133.889 90.8982 133.842 90.5411 133.801 90.1839C133.499 87.4115 133.44 84.6181 133.624 81.8355C133.712 80.4719 133.81 79.1176 133.977 77.7726C134.144 76.4276 134.306 75.1058 134.566 73.7097L140.105 74.6837Z" fill="#FF8B7B"/>
<path d="M134.16 71.3258C131.72 73.9184 132.704 80.4626 132.704 80.4626L139.56 81.5294C139.56 81.5294 141.152 77.819 140.553 73.9926C139.82 69.3453 136.828 68.4734 134.16 71.3258Z" fill="#92E3A9"/>
<path opacity="0.2" d="M136.393 74.1967C135.261 72.7404 134.073 72.2209 133.442 72.3415C131.925 75.3145 132.695 80.4441 132.695 80.4441L137.553 81.2326C138.109 79.7252 138.179 76.474 136.393 74.1967Z" fill="black"/>
<path d="M147.5 93.027L151.476 90.4204L152.357 94.4555C152.357 94.4555 149.885 96.96 147.825 95.1929L147.5 93.027Z" fill="#FF8B7B"/>
<path d="M153.922 89.5485L154.381 93.0362L152.359 94.4555L151.473 90.4204L153.922 89.5485Z" fill="#FF8B7B"/>
<path opacity="0.2" d="M115.773 135.043L111.566 136.555L109.914 133.215L114.122 131.703L115.773 135.043Z" fill="black"/>
<path opacity="0.2" d="M71.9676 155.552L75.0248 157.676L72.065 161.034L69.0078 158.905L71.9676 155.552Z" fill="black"/>
<path d="M120.036 62.379C117.216 76.8079 109.705 89.8268 108.656 92.7023C111.347 93.8294 121.502 98.0592 127.037 100.364C137.359 85.0079 138.941 73.8952 139.177 71.2052C139.194 71.0129 139.16 70.8197 139.078 70.6447C138.997 70.4697 138.871 70.3192 138.713 70.208C138.273 69.888 137.568 69.3871 136.709 68.8166C136.245 68.5197 135.749 68.209 135.216 67.889C134.923 67.7174 134.622 67.5504 134.316 67.3881C131.774 66.1572 129.164 65.0732 126.499 64.1415C125.997 63.9606 125.483 63.7843 124.977 63.6266C124.471 63.469 124.049 63.3437 123.608 63.2231C121.632 62.6944 120.036 62.379 120.036 62.379Z" fill="#92E3A9"/>
<path d="M131.087 82.9532L132.103 83.2129C131.432 83.8608 130.616 84.3381 129.723 84.6043C128.702 84.9099 127.616 84.926 126.587 84.6507C125.676 84.4644 124.842 84.0088 124.193 83.3428C123.919 83.0351 123.712 82.6748 123.583 82.284C123.453 81.8932 123.405 81.4802 123.441 81.0702C123.509 80.0957 123.784 79.1469 124.249 78.2874C124.788 77.2371 125.514 76.2941 126.392 75.5046C127.183 74.7632 128.136 74.2169 129.175 73.9091C130.11 73.6412 131.099 73.6252 132.042 73.8627C132.761 74.0174 133.411 74.3977 133.898 74.948C134.348 75.4924 134.577 76.1862 134.538 76.8913C134.503 77.7034 134.282 78.4966 133.893 79.2103C133.403 80.1621 132.692 80.9827 131.82 81.6036C130.692 82.4152 129.639 82.6935 128.665 82.4477C128.563 82.4331 128.464 82.398 128.376 82.3446C128.287 82.2912 128.211 82.2206 128.15 82.1369C128.079 81.9631 128.079 81.7681 128.15 81.5943C127.669 81.9028 127.087 82.0141 126.526 81.905C126.285 81.8567 126.063 81.7387 125.888 81.5655C125.714 81.3924 125.593 81.1718 125.543 80.931C125.434 80.2972 125.561 79.6455 125.9 79.099C126.346 78.2248 126.98 77.4599 127.756 76.8589C128.714 76.1075 129.591 75.8308 130.386 76.0287C130.637 76.0705 130.864 76.2034 131.023 76.4019C131.182 76.6004 131.263 76.8506 131.249 77.1047L131.685 76.5157L132.942 76.8357L130.159 80.662C130.043 80.81 129.936 80.9649 129.839 81.1258C129.798 81.1945 129.779 81.2735 129.783 81.3531C129.788 81.3777 129.799 81.4004 129.817 81.4185C129.834 81.4366 129.856 81.4493 129.88 81.4551C130.144 81.472 130.407 81.4107 130.637 81.2789C131.154 81.0578 131.625 80.7434 132.028 80.3513C132.459 79.9503 132.82 79.48 133.095 78.9599C133.318 78.5844 133.463 78.1679 133.521 77.7352C133.58 77.3024 133.55 76.8624 133.434 76.4414C133.184 75.6808 132.553 75.1737 131.541 74.9202C130.717 74.7022 129.848 74.7247 129.036 74.9851C128.188 75.2672 127.417 75.7437 126.786 76.3765C126.116 77.0224 125.555 77.7727 125.125 78.5981C124.744 79.2975 124.539 80.079 124.527 80.8754C124.517 81.2024 124.573 81.5281 124.693 81.8326C124.813 82.1372 124.993 82.4143 125.223 82.6471C125.744 83.1304 126.384 83.4665 127.078 83.6211C127.78 83.809 128.513 83.8501 129.231 83.7417C129.901 83.6204 130.535 83.351 131.087 82.9532ZM127.116 79.3588C126.908 79.6884 126.806 80.0735 126.823 80.4626C126.835 80.58 126.884 80.6906 126.962 80.7789C127.04 80.8671 127.144 80.9285 127.259 80.9542C127.454 81 127.659 80.9903 127.849 80.9264C128.04 80.8643 128.221 80.7753 128.387 80.662C128.744 80.4134 129.064 80.1151 129.338 79.7762C129.652 79.4174 129.925 79.0237 130.15 78.6028C130.339 78.2946 130.426 77.9338 130.395 77.5731C130.381 77.4513 130.328 77.3372 130.245 77.2472C130.162 77.1572 130.052 77.0959 129.932 77.0722C129.603 77.012 129.264 77.0765 128.98 77.2531C128.568 77.4904 128.206 77.8054 127.913 78.1807C127.607 78.5444 127.34 78.9392 127.116 79.3588Z" fill="white"/>
<path d="M130.959 55.7653C130.407 58.4831 128.978 63.2974 126.52 64.2389C127.317 66.1683 128.449 68.4827 131.395 69.8323C134.341 71.182 134.671 68.9047 134.332 67.5133C131.808 65.6581 132.75 63.6267 134.049 61.8782L130.959 55.7653Z" fill="#FF8B7B"/>
<path opacity="0.2" d="M132.219 58.2512L134.047 61.855C133.736 62.2593 133.463 62.6908 133.23 63.1443C132.224 62.5414 131.24 60.7511 131.593 59.5823C131.719 59.1045 131.932 58.6535 132.219 58.2512Z" fill="black"/>
<path d="M138.379 55.8672C141.288 56.0806 143.863 48.8267 139.618 47.9826C136.756 47.4121 136.784 49.1236 136.482 50.9973C136.18 52.8711 136.538 55.7327 138.379 55.8672Z" fill="#263238"/>
<path d="M131.292 52.1939C130.545 55.8115 129.923 57.8894 131.222 60.2084C133.18 63.6915 138.014 63.2556 139.832 59.9347C141.465 56.9432 142.416 51.5307 139.317 49.1653C138.636 48.6411 137.833 48.2996 136.983 48.1732C136.133 48.0469 135.264 48.1398 134.46 48.4432C133.656 48.7467 132.943 49.2505 132.388 49.9069C131.834 50.5634 131.456 51.3506 131.292 52.1939Z" fill="#FF8B7B"/>
<path d="M130.672 54.7819C133.581 54.9953 135.529 48.3629 131.285 47.5142C128.422 46.9437 128.181 48.618 128.227 50.4083C128.274 52.3099 128.826 54.6289 130.672 54.7819Z" fill="#263238"/>
<path d="M133.021 49.708C134.983 50.6588 144.442 52.6949 143.9 48.6273C143.357 44.5598 138.305 42.6721 138.305 42.6721C138.305 42.6721 141.246 45.8955 138.82 45.121C136.393 44.3464 135.698 43.7806 132.789 43.2658C132.789 43.2658 135.646 45.6358 132.325 44.9679C130.398 44.5525 128.385 44.8735 126.684 45.8677C127.528 46.4351 128.201 47.2212 128.633 48.1419C129.064 49.0626 129.237 50.0833 129.133 51.0947C128.906 54.6706 133.021 49.708 133.021 49.708Z" fill="#263238"/>
<path d="M128.97 54.9535C129.098 55.7951 129.551 56.553 130.232 57.0638C131.123 57.7178 131.935 56.9664 131.995 55.8811C132.046 54.9025 131.647 53.3812 130.603 53.1633C129.559 52.9453 128.831 53.9053 128.97 54.9535Z" fill="#FF8B7B"/>
<path d="M115.017 95.3552L111.148 107.813L131.064 120.336C127.627 126.068 110.16 131.773 110.16 131.773L112.944 137.422C112.944 137.422 137.267 135.567 142.198 124.816C146.944 114.492 127.028 100.364 127.028 100.364L115.017 95.3552Z" fill="#263238"/>
<path opacity="0.2" d="M117.6 111.871L114.125 109.696L118.402 103.481C118.402 103.481 118.523 108.462 117.6 111.871Z" fill="black"/>
<path opacity="0.2" d="M117.6 111.871L114.125 109.696L118.402 103.481C118.402 103.481 118.523 108.462 117.6 111.871Z" fill="black"/>
<path d="M122.723 98.5693C122.723 98.5693 106.662 125.275 100.033 133.939C92.7724 143.428 73.9745 161.303 73.9745 161.303L68.375 157.407C68.375 157.407 84.6121 139.514 90.7312 129.612C97.7131 118.332 108.657 92.693 108.657 92.693L122.723 98.5693Z" fill="#263238"/>
<path d="M74.5571 161.897L67.9648 157.314L69.3334 155.343L76.7932 160.338L74.5571 161.897Z" fill="#92E3A9"/>
<path d="M113.175 138.197L109.84 131.467L112.016 130.391L115.857 137.858L113.175 138.197Z" fill="#92E3A9"/>
<path d="M136.425 54.6567C136.346 54.9443 136.425 55.2226 136.624 55.2736C136.824 55.3246 137.032 55.1345 137.111 54.8423C137.19 54.5501 137.111 54.2764 136.907 54.2254C136.703 54.1744 136.504 54.3692 136.425 54.6567Z" fill="#263238"/>
<path d="M139.702 55.5566C139.623 55.8488 139.702 56.1224 139.902 56.1734C140.101 56.2244 140.31 56.0343 140.389 55.7421C140.468 55.4499 140.389 55.1763 140.189 55.1252C139.99 55.0742 139.781 55.2597 139.702 55.5566Z" fill="#263238"/>
<path d="M138.622 55.4081C138.727 56.3884 138.966 57.3497 139.332 58.2651C139.095 58.3522 138.842 58.3865 138.59 58.3656C138.338 58.3448 138.094 58.2694 137.875 58.1445L138.622 55.4081Z" fill="#FF5652"/>
<path d="M136.446 58.5897C136.131 58.4642 135.846 58.2762 135.607 58.037C135.367 57.7978 135.179 57.5125 135.054 57.1983C135.048 57.1756 135.051 57.1515 135.062 57.1308C135.073 57.1101 135.092 57.0945 135.114 57.087C135.136 57.0808 135.16 57.0831 135.18 57.0934C135.201 57.1037 135.217 57.1213 135.225 57.1427C135.368 57.4858 135.589 57.7905 135.871 58.0323C136.153 58.274 136.488 58.4459 136.849 58.5341C136.861 58.5362 136.872 58.5407 136.882 58.5474C136.891 58.5541 136.899 58.5627 136.906 58.5728C136.912 58.5829 136.916 58.5942 136.917 58.6059C136.919 58.6176 136.918 58.6295 136.914 58.6407C136.911 58.6521 136.905 58.6627 136.898 58.672C136.891 58.6812 136.882 58.6888 136.871 58.6945C136.861 58.7001 136.849 58.7036 136.838 58.7047C136.826 58.7058 136.814 58.7046 136.803 58.701C136.681 58.6725 136.562 58.6353 136.446 58.5897Z" fill="#263238"/>
<path d="M135.701 53.3256C135.674 53.3124 135.65 53.2934 135.631 53.27C135.617 53.2519 135.606 53.2311 135.6 53.2087C135.594 53.1864 135.592 53.1631 135.595 53.1401C135.598 53.1172 135.606 53.095 135.618 53.0751C135.63 53.0552 135.645 53.0378 135.664 53.0241C135.882 52.8475 136.138 52.7255 136.413 52.6682C136.687 52.6109 136.971 52.6201 137.241 52.6949C137.285 52.7116 137.321 52.7446 137.34 52.787C137.36 52.8293 137.363 52.8778 137.348 52.9221C137.332 52.9655 137.3 53.001 137.258 53.0209C137.217 53.0409 137.169 53.0437 137.125 53.0288C136.911 52.9715 136.685 52.9664 136.468 53.014C136.251 53.0616 136.048 53.1605 135.877 53.3024C135.852 53.3207 135.823 53.3325 135.792 53.3365C135.761 53.3406 135.73 53.3368 135.701 53.3256Z" fill="#263238"/>
<path d="M141.417 54.8052C141.39 54.7939 141.367 54.7761 141.349 54.7534C141.331 54.7307 141.319 54.7038 141.315 54.6753C141.28 54.4563 141.194 54.2485 141.064 54.0694C140.933 53.8903 140.761 53.7451 140.563 53.6457C140.54 53.6382 140.519 53.626 140.501 53.6098C140.482 53.5937 140.468 53.5739 140.458 53.5519C140.447 53.5298 140.442 53.5058 140.441 53.4815C140.441 53.4573 140.446 53.4331 140.455 53.4107C140.464 53.3882 140.478 53.3679 140.495 53.3511C140.513 53.3342 140.534 53.3212 140.557 53.3128C140.579 53.3044 140.604 53.3008 140.628 53.3022C140.652 53.3036 140.676 53.31 140.698 53.321C140.949 53.4432 141.168 53.6241 141.335 53.8485C141.502 54.0729 141.613 54.3342 141.658 54.6104C141.663 54.633 141.663 54.6563 141.658 54.6789C141.654 54.7015 141.645 54.723 141.632 54.742C141.619 54.761 141.602 54.7773 141.583 54.7897C141.563 54.8022 141.541 54.8106 141.519 54.8145C141.485 54.8232 141.449 54.8199 141.417 54.8052Z" fill="#263238"/>
<path d="M69.1486 165.974C69.0313 165.664 68.9504 165.342 68.9074 165.013C68.9046 164.996 68.907 164.977 68.9144 164.961C68.9218 164.944 68.9339 164.93 68.9491 164.921C68.9626 164.911 68.9789 164.906 68.9955 164.906C69.0122 164.906 69.0285 164.911 69.0419 164.921C69.1718 165.009 70.2899 165.82 70.2528 166.289C70.2476 166.341 70.2292 166.391 70.1991 166.434C70.169 166.477 70.1284 166.512 70.0811 166.535C70.0051 166.577 69.9197 166.598 69.8329 166.598C69.7461 166.598 69.6608 166.577 69.5847 166.535C69.3802 166.402 69.2266 166.204 69.1486 165.974ZM69.1254 165.199C69.2414 165.839 69.4455 166.28 69.6775 166.4C69.7303 166.426 69.789 166.438 69.8476 166.434C69.9063 166.429 69.9628 166.41 70.0115 166.377C70.0765 166.349 70.0858 166.312 70.0858 166.284C70.0997 166.043 69.5522 165.538 69.1254 165.199Z" fill="#92E3A9"/>
<path d="M68.9124 165.013C68.908 165.002 68.9059 164.99 68.9063 164.977C68.9067 164.965 68.9096 164.953 68.9148 164.941C68.92 164.93 68.9274 164.92 68.9365 164.912C68.9457 164.903 68.9564 164.897 68.9681 164.893C69.0098 164.893 70.0211 164.522 70.5083 164.777C70.5678 164.807 70.6201 164.849 70.6617 164.901C70.7034 164.953 70.7333 165.014 70.7495 165.078C70.7743 165.141 70.7773 165.211 70.758 165.275C70.7386 165.34 70.6981 165.397 70.6428 165.436C70.2949 165.677 69.251 165.32 68.9356 165.051C68.9252 165.04 68.9173 165.027 68.9124 165.013ZM70.5686 165.092C70.5402 165.026 70.4892 164.972 70.4248 164.939C70.0177 164.834 69.588 164.859 69.1954 165.009C69.6036 165.245 70.3412 165.431 70.55 165.287C70.55 165.287 70.6103 165.245 70.5825 165.134L70.5686 165.092Z" fill="#92E3A9"/>
<path d="M107.688 138.317C107.686 138.301 107.688 138.285 107.694 138.27C107.701 138.255 107.712 138.242 107.725 138.234C107.741 138.224 107.758 138.218 107.776 138.218C107.795 138.218 107.812 138.224 107.827 138.234C107.981 138.35 109.321 139.351 109.298 139.871C109.296 139.919 109.282 139.965 109.257 140.006C109.231 140.046 109.196 140.08 109.154 140.103C109.087 140.15 109.009 140.179 108.928 140.186C108.846 140.193 108.764 140.179 108.69 140.145C108.185 139.94 107.841 138.92 107.684 138.331L107.688 138.317ZM109.122 139.825C109.085 139.532 108.444 138.943 107.929 138.535C108.175 139.333 108.477 139.866 108.76 139.982C108.809 140.003 108.862 140.011 108.914 140.006C108.967 140.001 109.017 139.984 109.061 139.954C109.08 139.947 109.095 139.934 109.106 139.917C109.117 139.901 109.122 139.881 109.122 139.862V139.825Z" fill="#92E3A9"/>
<path d="M120.18 68.6914L118.714 67.7128C118.208 67.3835 117.693 67.0635 117.178 66.7434C116.144 66.108 115.095 65.5051 114.038 64.9253C112.98 64.3456 111.908 63.8169 110.827 63.3438C110.289 63.098 109.746 62.88 109.204 62.6713L108.392 62.3837L108.188 62.3141L108.086 62.277C108.086 62.277 108.053 62.277 108.011 62.2446C107.622 62.2115 107.23 62.235 106.847 62.3141C106.313 62.4121 105.786 62.5438 105.27 62.7084C104.131 63.071 103.011 63.4921 101.915 63.9699C99.6654 64.9393 97.3737 66.0431 95.1469 67.1701L93.5742 64.8511C95.5869 63.138 97.7322 61.5871 99.9902 60.2131C101.159 59.5015 102.373 58.8648 103.623 58.3069C104.301 58.0131 104.996 57.7622 105.706 57.5555C106.559 57.2939 107.448 57.1702 108.341 57.1891C108.634 57.2043 108.925 57.2399 109.213 57.2958L109.431 57.3468L109.561 57.3793L109.816 57.4442L110.837 57.7086C111.505 57.908 112.177 58.1075 112.818 58.3533C114.104 58.8126 115.363 59.3453 116.589 59.9488C117.809 60.5331 118.992 61.1825 120.147 61.8689C120.718 62.2214 121.289 62.5785 121.85 62.9496C122.411 63.3206 122.949 63.6916 123.553 64.1415L120.18 68.6914Z" fill="#FF8B7B"/>
<path d="M125.725 64.7537C124.904 62.7223 117.143 59.9441 117.143 59.9441L114.633 66.493C114.633 66.493 117.347 68.2879 119.597 69.6329C123.869 72.207 127.33 68.7517 125.725 64.7537Z" fill="#92E3A9"/>
<path d="M95.893 66.1915L94.3203 69.6004L91.9219 66.4929C91.9219 66.4929 93.7312 63.4504 95.0208 64.6377L95.893 66.1915Z" fill="#FF8B7B"/>
<path d="M91.0045 70.6718L89.7891 67.9446L91.9231 66.4929L94.3215 69.6004L91.0045 70.6718Z" fill="#FF8B7B"/>
</g>
<defs>
<clipPath id="clip0_2511_23782">
<rect width="180" height="178" fill="white"/>
</clipPath>
</defs>
</svg>
