<svg width="400" height="74" viewBox="0 0 400 74" fill="none" xmlns="http://www.w3.org/2000/svg">
<path d="M254.845 10.6473C253.002 10.9421 251.853 11.4245 250.598 12.4563C249.623 13.247 248.581 14.7612 248.154 16.0208C247.74 17.2268 247.699 19.4915 248.087 20.6171C249.356 24.4362 253.015 26.7143 256.782 26.0577C258.424 25.7763 259.747 25.0928 260.922 23.9002C264.061 20.7511 264.061 16.0342 260.909 12.9119C259.907 11.9069 258.518 11.1029 257.383 10.8483C256.608 10.6875 255.272 10.5803 254.845 10.6473Z" fill="black"/>
<path d="M78.2121 15.1498C78.172 15.2436 78.1586 28.1079 78.172 43.7327L78.2121 72.1414H85.6246H93.0372L93.104 61.3407L93.1708 50.54L99.9689 61.1129C103.695 66.9152 106.861 71.7929 106.981 71.9403C107.195 72.2084 107.341 72.2084 116.397 72.1816L125.586 72.1414L116.677 60.4965L107.782 48.8382L109.291 48.3424C113.726 46.9086 116.757 44.3759 118.48 40.6774C119.589 38.319 120.003 36.1749 120.016 32.8114C120.016 29.3407 119.482 26.8617 118.133 24.1548C115.822 19.5183 111.535 16.4764 105.779 15.3642C104.296 15.0828 103.922 15.0828 91.2609 15.0292C80.6696 14.989 78.2655 15.0024 78.2121 15.1498ZM99.0741 26.9019C100.623 27.2235 101.839 27.8131 102.787 28.6841C104.176 29.9572 104.724 31.3374 104.724 33.5484C104.724 36.9789 103.108 39.0292 99.6217 40.061C98.807 40.3022 98.1926 40.3558 95.882 40.4094L93.104 40.4764V33.4814V26.4731L95.4813 26.5535C96.9639 26.6071 98.2994 26.7411 99.0741 26.9019Z" fill="black"/>
<path d="M9.9106 15.6724C5.50313 16.5434 1.9638 19.8935 0.735051 24.3692C0.387796 25.6288 0.387796 29.1531 0.735051 30.4664C1.28265 32.5702 2.49804 34.6339 4.03398 36.1079C5.11581 37.1397 5.90381 37.6623 7.26612 38.3055C9.06918 39.1364 9.92396 39.3106 12.3681 39.3106C14.1712 39.3106 14.6653 39.257 15.5335 39.0158C17.6304 38.3993 19.2464 37.4613 20.769 35.9471C22.345 34.3926 23.4135 32.4898 23.921 30.3726C24.3217 28.7109 24.295 26.0308 23.8676 24.3424C22.8258 20.2017 19.5269 16.8918 15.3999 15.8466C14.3448 15.5786 13.8239 15.525 12.3147 15.5384C11.313 15.5518 10.2311 15.6054 9.9106 15.6724Z" fill="black"/>
<path d="M26.7652 15.8198C28.8354 18.7143 29.8104 20.8851 30.4247 23.9136C30.5984 24.798 30.6518 25.7227 30.6518 27.5183C30.6518 30.1448 30.4114 31.6858 29.7169 33.6422C29.196 35.1029 28.034 37.3005 27.2059 38.4128L26.458 39.391L37.5835 39.3508C50.1649 39.2972 49.2967 39.3642 51.7676 38.1715C54.746 36.7377 56.9363 34.1381 57.9247 30.8684C58.2586 29.7829 58.2986 29.4613 58.2986 27.5183C58.312 25.0526 58.1384 24.2084 57.2969 22.386C56.6158 20.9119 55.8411 19.8265 54.599 18.6473C53.3569 17.4681 51.9813 16.6372 50.2583 16.0476L48.9628 15.592L37.7572 15.5518L26.5515 15.5116L26.7652 15.8198Z" fill="black"/>
<path d="M142.922 32.0074C135.724 32.999 130.261 36.6573 127.389 42.406C124.798 47.5652 124.344 54.6137 126.214 60.1749C127.803 64.865 131.102 68.6841 135.55 70.9755C139.116 72.8248 142.588 73.5886 147.263 73.5886C149.894 73.5752 151.337 73.4412 153.447 73.0124C160.031 71.6321 164.612 67.6388 166.87 61.2737C167.057 60.7377 167.177 60.2687 167.137 60.2285C167.083 60.1883 164.105 60.1481 160.499 60.1481L153.941 60.1615L153.474 60.8315C152.579 62.1179 151.07 63.1363 149.4 63.5651C148.385 63.8197 145.968 63.8197 144.725 63.5651C143.457 63.2971 141.987 62.5467 141.213 61.7695C140.478 61.0325 139.704 59.6254 139.396 58.473C139.276 58.0308 139.143 57.0794 139.089 56.3558L139.009 55.0559H153.407H167.805L167.724 52.8047C167.578 49.1598 167.07 46.3993 166.068 43.8667C163.651 37.6891 158.923 33.7896 152.085 32.329C150.642 32.0208 150.108 31.9806 147.13 31.9404C145.3 31.9136 143.403 31.9404 142.922 32.0074ZM149.133 41.0526C151.337 41.6154 153.18 43.1296 154.128 45.1531C154.422 45.7695 154.702 46.4395 154.756 46.6405L154.836 47.0157H147.13H139.423L139.517 46.5199C140.011 43.8533 141.947 41.803 144.659 41.066C145.647 40.798 148.118 40.798 149.133 41.0526Z" fill="black"/>
<path d="M383.196 31.9672C380.378 32.3826 378.014 33.0526 376.385 33.8835C373.513 35.3441 371.376 37.4881 370.147 40.1414C368.518 43.6925 368.585 48.597 370.321 51.4513C371.029 52.6171 372.511 53.9571 373.941 54.6941C375.423 55.458 377.774 56.262 379.924 56.7176C383.864 57.5618 385.2 58.0576 385.787 58.8482C386.201 59.3977 386.241 60.7377 385.881 61.4613C385.293 62.6137 384.238 63.1095 382.128 63.19C379.016 63.324 375.663 62.2787 372.178 60.0811L371.056 59.3709L370.468 60.4563C369.319 62.5735 366.101 68.9521 366.101 69.0861C366.101 69.2871 369.253 70.8683 371.069 71.592C372.925 72.329 375.637 73.0526 377.654 73.3608C379.443 73.6288 383.276 73.669 385.066 73.4278C391.597 72.5702 396.325 69.6623 398.622 65.1062C400.492 61.4077 400.452 56.4228 398.542 53.2335C397.567 51.6121 395.804 50.0576 393.774 49.0392C392.505 48.396 390.849 47.8868 387.924 47.2168C382.969 46.0911 382.502 45.7963 382.649 43.7997C382.755 42.3927 384.478 41.401 386.802 41.3876C388.726 41.3876 391.53 42.071 393.333 42.9957L394.135 43.3977L394.99 41.7494C397.46 37.0459 398.703 34.5267 398.649 34.3659C398.556 34.1381 394.909 32.932 393.213 32.5568C390.863 32.061 388.926 31.8734 386.161 31.8868C384.719 31.9002 383.383 31.927 383.196 31.9672Z" fill="black"/>
<path d="M295.073 32.5702C293.578 32.7578 291.668 33.2804 290.573 33.8164C289.25 34.4462 287.701 35.6389 286.446 36.9789L285.43 38.0643V35.6389V33.2134H278.552H271.674V52.7109V72.2083H278.552H285.417L285.457 60.7779C285.497 50.3658 285.524 49.2938 285.738 48.5568C286.659 45.4211 288.342 43.9337 291.454 43.5183C293.484 43.2369 295.474 43.7595 296.69 44.8717C297.531 45.6489 298.025 46.5065 298.412 47.9136C298.706 48.9454 298.706 49.133 298.786 60.5501L298.853 72.1413L305.705 72.1815L312.556 72.2083L312.503 58.0442C312.463 44.2151 312.463 43.8399 312.182 42.6606C312.036 41.9906 311.742 41.0392 311.541 40.5434C310.192 37.1799 306.68 34.1514 302.913 33.0794C300.79 32.4764 297.491 32.262 295.073 32.5702Z" fill="black"/>
<path d="M224.861 32.6908C223.565 32.865 221.696 33.3742 220.587 33.8834C218.477 34.8349 216.113 36.8315 214.684 38.8416C214.337 39.3508 214.016 39.7662 213.976 39.7662C213.936 39.7662 213.695 39.458 213.442 39.0694C212.734 38.0107 210.73 36.0007 209.662 35.2503C207.098 33.4814 204.36 32.6774 200.887 32.6774C196.64 32.6774 192.98 34.0576 189.534 36.9521L188.533 37.7963L188.466 35.5451L188.399 33.2804H181.521H174.643V52.7109V72.1413H181.521H188.399L188.466 60.6841C188.546 49.3876 188.546 49.2134 188.84 48.1012C189.428 45.8633 190.416 44.3759 191.712 43.7461C193.087 43.0761 195.384 42.9555 196.987 43.4781C198.884 44.0945 199.965 46.1581 200.339 49.8968C200.433 50.808 200.486 55.1899 200.486 61.7829V72.2083H207.351H214.23L214.283 61.2469C214.323 50.6472 214.337 50.2586 214.617 49.0392C215.178 46.5601 216.313 44.8449 217.903 44.0677C218.864 43.5987 220.293 43.3441 221.322 43.4647C224.1 43.7729 225.275 45.0057 226.076 48.3692C226.29 49.2536 226.317 50.5132 226.384 60.7511L226.464 72.1413L233.315 72.1815L240.154 72.2083V58.4462C240.154 43.7059 240.14 43.4781 239.472 41.2134C238.711 38.6271 237.149 36.3223 235.212 34.8885C232.754 33.0794 228.654 32.2084 224.861 32.6908Z" fill="black"/>
<path d="M248.701 52.7109V72.2083L255.553 72.1815L262.391 72.1413V52.7109V33.2804L255.553 33.2402L248.701 33.2134V52.7109Z" fill="black"/>
<path d="M319.488 46.1849C319.488 54.2653 319.542 59.5718 319.622 60.2821C320.517 67.5852 325.325 71.9001 334.033 73.2134C338.841 73.937 345.025 73.6958 349.205 72.6104C355.963 70.8683 359.636 66.9822 360.625 60.5501C360.705 60.0141 360.758 54.6003 360.758 46.4395V33.2134L353.92 33.2402L347.068 33.2804L347.002 45.2737C346.935 56.4764 346.908 57.3206 346.681 58.004C345.679 60.9923 343.703 62.2921 340.123 62.2921C337.185 62.2921 335.048 61.2067 334.1 59.2636C333.298 57.602 333.325 58.2184 333.285 45.1665L333.232 33.2134H326.367H319.488V46.1849Z" fill="black"/>
<path d="M9.76322 43.1163C5.26225 44.1079 1.69621 47.4982 0.387323 52.0543C0.0934918 53.0995 0.0801358 53.1933 0.0400679 62.5869L0 72.0743H12.3008H24.5883V62.8951C24.5883 52.7645 24.575 52.6439 23.7469 50.6338C22.251 47.0023 19.4196 44.4295 15.6799 43.3173C14.0638 42.8348 11.4194 42.741 9.76322 43.1163Z" fill="black"/>
<path d="M29.5303 45.1263C29.5303 45.1933 29.7173 45.7159 29.9443 46.2787C30.4518 47.5652 30.8258 48.999 30.9994 50.406C31.0796 51.0627 31.133 55.5652 31.133 61.7159V71.9404H44.7561H58.3792V64.9856C58.3792 59.3709 58.3391 57.8164 58.1788 56.8516C57.9117 55.2704 57.5377 54.1715 56.8165 52.7511C54.9868 49.1732 51.6878 46.5065 47.7612 45.4479L46.4256 45.0861L37.9846 45.0325C32.5621 45.0057 29.5303 45.0459 29.5303 45.1263Z" fill="black"/>
<path d="M128.86 20.439C129.058 20.025 129.175 19.674 129.211 19.386C129.247 19.098 129.265 18.783 129.265 18.441C129.265 18.063 129.265 17.532 129.265 16.848C129.265 16.164 129.265 15.381 129.265 14.499C129.265 13.617 129.265 12.699 129.265 11.745C129.265 10.773 129.265 9.819 129.265 8.883C129.265 7.929 129.265 7.056 129.265 6.264C129.265 5.454 129.265 4.779 129.265 4.239C129.265 3.843 129.247 3.438 129.211 3.024C129.175 2.61 129.13 2.214 129.076 1.836C129.04 1.458 128.986 1.125 128.914 0.836998H134.044C133.954 1.449 133.882 2.025 133.828 2.565C133.774 3.087 133.747 3.645 133.747 4.239C133.747 4.707 133.747 5.256 133.747 5.886C133.747 6.498 133.747 7.164 133.747 7.884C133.747 8.586 133.747 9.315 133.747 10.071C133.747 10.827 133.747 11.574 133.747 12.312C133.747 13.05 133.747 13.752 133.747 14.418C133.747 15.084 133.747 15.687 133.747 16.227C133.747 16.767 133.747 17.208 133.747 17.55C134.737 17.244 135.817 16.812 136.987 16.254C138.175 15.696 139.381 15.039 140.605 14.283C141.829 13.509 142.999 12.663 144.115 11.745C145.231 10.809 146.23 9.819 147.112 8.775L149.434 12.501C147.526 14.733 145.213 16.65 142.495 18.252C139.795 19.854 136.906 21.195 133.828 22.275C133.63 22.347 133.36 22.446 133.018 22.572C132.694 22.698 132.343 22.887 131.965 23.139L128.86 20.439ZM158.641 0.0809979C159.361 0.170998 160.225 0.305998 161.233 0.485997C162.259 0.647998 163.348 0.845998 164.5 1.08C165.67 1.296 166.831 1.539 167.983 1.809C169.135 2.061 170.206 2.322 171.196 2.592C172.186 2.844 173.023 3.087 173.707 3.321L172.033 7.398C171.421 7.164 170.638 6.921 169.684 6.669C168.73 6.399 167.686 6.129 166.552 5.859C165.436 5.571 164.302 5.31 163.15 5.076C161.998 4.824 160.9 4.599 159.856 4.401C158.812 4.203 157.903 4.059 157.129 3.969L158.641 0.0809979ZM157.426 7.425C158.416 7.587 159.55 7.803 160.828 8.073C162.124 8.325 163.456 8.604 164.824 8.91C166.192 9.216 167.488 9.531 168.712 9.855C169.936 10.161 170.971 10.458 171.817 10.746L170.224 14.85C169.45 14.562 168.469 14.256 167.281 13.932C166.093 13.59 164.815 13.257 163.447 12.933C162.097 12.609 160.756 12.312 159.424 12.042C158.11 11.772 156.94 11.556 155.914 11.394L157.426 7.425ZM156.076 15.093C157.012 15.237 158.074 15.426 159.262 15.66C160.468 15.894 161.719 16.155 163.015 16.443C164.311 16.731 165.58 17.028 166.822 17.334C168.082 17.64 169.252 17.946 170.332 18.252C171.412 18.558 172.321 18.846 173.059 19.116L171.25 23.22C170.512 22.932 169.603 22.626 168.523 22.302C167.443 21.996 166.264 21.69 164.986 21.384C163.726 21.06 162.448 20.763 161.152 20.493C159.856 20.205 158.623 19.953 157.453 19.737C156.301 19.521 155.293 19.35 154.429 19.224L156.076 15.093ZM189.961 3.429C189.961 2.961 189.925 2.403 189.853 1.755C189.799 1.089 189.7 0.503997 189.556 -2.68221e-06H194.74C194.65 0.503997 194.587 1.098 194.551 1.782C194.515 2.466 194.497 3.024 194.497 3.456C194.497 3.96 194.497 4.491 194.497 5.049C194.497 5.589 194.497 6.156 194.497 6.75C194.497 7.344 194.497 7.956 194.497 8.586C194.497 10.044 194.389 11.448 194.173 12.798C193.975 14.148 193.597 15.453 193.039 16.713C192.481 17.955 191.689 19.134 190.663 20.25C189.637 21.366 188.305 22.428 186.667 23.436L182.59 20.412C184.102 19.728 185.335 18.954 186.289 18.09C187.243 17.226 187.99 16.29 188.53 15.282C189.07 14.256 189.439 13.185 189.637 12.069C189.853 10.935 189.961 9.774 189.961 8.586C189.961 7.956 189.961 7.344 189.961 6.75C189.961 6.138 189.961 5.553 189.961 4.995C189.961 4.437 189.961 3.915 189.961 3.429ZM180.187 5.805C180.673 5.859 181.195 5.913 181.753 5.967C182.329 6.003 182.905 6.021 183.481 6.021C183.715 6.021 184.156 6.021 184.804 6.021C185.452 6.021 186.226 6.021 187.126 6.021C188.044 6.021 189.025 6.021 190.069 6.021C191.113 6.021 192.157 6.021 193.201 6.021C194.263 6.021 195.253 6.021 196.171 6.021C197.089 6.021 197.881 6.021 198.547 6.021C199.213 6.021 199.681 6.021 199.951 6.021C200.671 6.021 201.319 6.003 201.895 5.967C202.471 5.913 202.921 5.868 203.245 5.832V10.314C202.921 10.278 202.435 10.251 201.787 10.233C201.157 10.197 200.536 10.179 199.924 10.179C199.654 10.179 199.186 10.179 198.52 10.179C197.872 10.179 197.089 10.179 196.171 10.179C195.253 10.179 194.272 10.179 193.228 10.179C192.184 10.179 191.14 10.179 190.096 10.179C189.052 10.179 188.08 10.179 187.18 10.179C186.28 10.179 185.506 10.179 184.858 10.179C184.228 10.179 183.805 10.179 183.589 10.179C182.959 10.179 182.356 10.197 181.78 10.233C181.222 10.269 180.691 10.305 180.187 10.341V5.805ZM228.031 3.186C227.905 3.366 227.725 3.654 227.491 4.05C227.257 4.446 227.068 4.815 226.924 5.157C226.546 5.985 226.078 6.921 225.52 7.965C224.98 8.991 224.359 10.035 223.657 11.097C222.973 12.159 222.235 13.158 221.443 14.094C220.435 15.264 219.31 16.416 218.068 17.55C216.844 18.666 215.548 19.701 214.18 20.655C212.83 21.591 211.462 22.392 210.076 23.058L206.674 19.521C208.132 18.981 209.554 18.288 210.94 17.442C212.326 16.596 213.604 15.687 214.774 14.715C215.944 13.743 216.925 12.816 217.717 11.934C218.311 11.268 218.851 10.575 219.337 9.855C219.841 9.135 220.282 8.433 220.66 7.749C221.038 7.047 221.317 6.408 221.497 5.832C221.299 5.832 220.984 5.832 220.552 5.832C220.12 5.832 219.625 5.832 219.067 5.832C218.509 5.832 217.924 5.832 217.312 5.832C216.718 5.832 216.142 5.832 215.584 5.832C215.026 5.832 214.522 5.832 214.072 5.832C213.64 5.832 213.316 5.832 213.1 5.832C212.704 5.832 212.281 5.85 211.831 5.886C211.399 5.904 210.985 5.931 210.589 5.967C210.211 6.003 209.896 6.03 209.644 6.048V1.404C209.968 1.44 210.346 1.476 210.778 1.512C211.228 1.548 211.66 1.575 212.074 1.593C212.506 1.611 212.848 1.62 213.1 1.62C213.37 1.62 213.748 1.62 214.234 1.62C214.72 1.62 215.26 1.62 215.854 1.62C216.466 1.62 217.087 1.62 217.717 1.62C218.365 1.62 218.977 1.62 219.553 1.62C220.147 1.62 220.669 1.62 221.119 1.62C221.569 1.62 221.902 1.62 222.118 1.62C222.802 1.62 223.432 1.584 224.008 1.512C224.602 1.422 225.052 1.323 225.358 1.215L228.031 3.186ZM221.794 11.394C222.478 11.934 223.216 12.573 224.008 13.311C224.8 14.049 225.583 14.823 226.357 15.633C227.149 16.425 227.878 17.19 228.544 17.928C229.21 18.666 229.759 19.296 230.191 19.818L226.438 23.085C225.772 22.113 225.016 21.141 224.17 20.169C223.342 19.179 222.46 18.198 221.524 17.226C220.606 16.254 219.661 15.327 218.689 14.445L221.794 11.394Z" fill="black"/>
</svg>
