<svg width="411" height="287" viewBox="0 0 411 287" fill="none" xmlns="http://www.w3.org/2000/svg">
<path d="M116.408 2.758H122.4V4.2H116.408V2.758ZM116.926 10.276H123.464V11.746H116.926V10.276ZM116.086 13.398H124.052V14.868H116.086V13.398ZM121.924 2.758H122.232L122.54 2.688L123.66 3.178C123.296 4.27933 122.783 5.23133 122.12 6.034C121.457 6.83667 120.683 7.50867 119.796 8.05C118.909 8.582 117.939 9.01133 116.884 9.338C116.791 9.13267 116.651 8.89467 116.464 8.624C116.287 8.344 116.119 8.11533 115.96 7.938C116.903 7.69533 117.771 7.35 118.564 6.902C119.367 6.44467 120.057 5.88933 120.636 5.236C121.224 4.58267 121.653 3.84067 121.924 3.01V2.758ZM118.578 4.018C119.063 4.97 119.796 5.78667 120.776 6.468C121.765 7.14 122.923 7.62067 124.248 7.91C124.08 8.06867 123.893 8.28333 123.688 8.554C123.492 8.82467 123.338 9.06267 123.226 9.268C121.817 8.88533 120.599 8.29267 119.572 7.49C118.555 6.68733 117.738 5.68867 117.122 4.494L118.578 4.018ZM119.306 8.596H120.958V14.336H119.306V8.596ZM113.02 2.114L114.476 2.66C114.289 3.01467 114.093 3.38333 113.888 3.766C113.683 4.14867 113.482 4.51267 113.286 4.858C113.09 5.20333 112.903 5.502 112.726 5.754L111.606 5.278C111.774 4.98867 111.947 4.662 112.124 4.298C112.301 3.934 112.469 3.56067 112.628 3.178C112.787 2.79533 112.917 2.44067 113.02 2.114ZM114.63 3.78L116.002 4.396C115.666 4.928 115.297 5.488 114.896 6.076C114.495 6.65467 114.093 7.21467 113.692 7.756C113.291 8.288 112.913 8.75467 112.558 9.156L111.578 8.61C111.839 8.29267 112.11 7.938 112.39 7.546C112.67 7.14467 112.945 6.72933 113.216 6.3C113.496 5.86133 113.757 5.42733 114 4.998C114.243 4.55933 114.453 4.15333 114.63 3.78ZM110.864 5.432L111.676 4.284C111.919 4.49867 112.166 4.73667 112.418 4.998C112.679 5.25 112.917 5.50667 113.132 5.768C113.356 6.02 113.524 6.24867 113.636 6.454L112.782 7.756C112.67 7.532 112.507 7.28467 112.292 7.014C112.087 6.74333 111.858 6.468 111.606 6.188C111.354 5.908 111.107 5.656 110.864 5.432ZM114.224 7.112L115.33 6.65C115.507 6.96733 115.68 7.308 115.848 7.672C116.025 8.02667 116.175 8.37667 116.296 8.722C116.427 9.058 116.515 9.36133 116.562 9.632L115.372 10.164C115.325 9.89333 115.241 9.58533 115.12 9.24C115.008 8.88533 114.873 8.52133 114.714 8.148C114.555 7.77467 114.392 7.42933 114.224 7.112ZM110.85 8.274C111.494 8.25533 112.264 8.22733 113.16 8.19C114.056 8.15267 114.966 8.11533 115.89 8.078L115.876 9.408C115.008 9.47333 114.145 9.534 113.286 9.59C112.437 9.646 111.671 9.69733 110.99 9.744L110.85 8.274ZM114.518 10.598L115.694 10.22C115.871 10.6213 116.039 11.06 116.198 11.536C116.366 12.0027 116.492 12.4133 116.576 12.768L115.33 13.216C115.265 12.8613 115.153 12.4413 114.994 11.956C114.835 11.4613 114.677 11.0087 114.518 10.598ZM111.466 10.332L112.852 10.584C112.777 11.256 112.665 11.9187 112.516 12.572C112.367 13.2253 112.194 13.776 111.998 14.224C111.905 14.1587 111.779 14.084 111.62 14C111.461 13.9253 111.298 13.8507 111.13 13.776C110.971 13.7013 110.831 13.6453 110.71 13.608C110.915 13.188 111.079 12.6887 111.2 12.11C111.321 11.522 111.41 10.9293 111.466 10.332ZM113.034 9.016H114.504V15.26H113.034V9.016ZM133.208 8.82V10.108H136.792V8.82H133.208ZM131.836 7.602H138.22V11.326H131.836V7.602ZM134.888 3.57C134.683 3.94333 134.417 4.33533 134.09 4.746C133.763 5.15667 133.395 5.54867 132.984 5.922C132.583 6.29533 132.158 6.622 131.71 6.902C131.635 6.69667 131.523 6.46333 131.374 6.202C131.225 5.93133 131.08 5.712 130.94 5.544C131.388 5.292 131.813 4.97467 132.214 4.592C132.625 4.20933 132.993 3.80333 133.32 3.374C133.647 2.93533 133.908 2.51533 134.104 2.114H135.574C135.845 2.534 136.157 2.954 136.512 3.374C136.867 3.78467 137.245 4.158 137.646 4.494C138.047 4.82067 138.453 5.08667 138.864 5.292C138.715 5.47867 138.561 5.712 138.402 5.992C138.253 6.26267 138.127 6.51 138.024 6.734C137.623 6.49133 137.226 6.19733 136.834 5.852C136.442 5.49733 136.078 5.124 135.742 4.732C135.406 4.34 135.121 3.95267 134.888 3.57ZM134.23 6.132H135.714V8.876C135.714 9.436 135.672 10.01 135.588 10.598C135.513 11.1767 135.345 11.7507 135.084 12.32C134.832 12.88 134.459 13.412 133.964 13.916C133.469 14.42 132.807 14.8773 131.976 15.288C131.901 15.1667 131.803 15.0313 131.682 14.882C131.57 14.742 131.449 14.5973 131.318 14.448C131.187 14.308 131.066 14.196 130.954 14.112C131.691 13.7667 132.275 13.3887 132.704 12.978C133.143 12.558 133.469 12.1193 133.684 11.662C133.908 11.1953 134.053 10.724 134.118 10.248C134.193 9.772 134.23 9.30533 134.23 8.848V6.132ZM135.854 10.598C136.106 11.326 136.479 11.9887 136.974 12.586C137.478 13.174 138.089 13.6173 138.808 13.916C138.687 14.0187 138.556 14.1447 138.416 14.294C138.285 14.4527 138.159 14.616 138.038 14.784C137.917 14.952 137.814 15.106 137.73 15.246C136.946 14.826 136.297 14.238 135.784 13.482C135.28 12.726 134.879 11.872 134.58 10.92L135.854 10.598ZM132.802 5.558H137.128V6.86H132.802V5.558ZM126.95 4.746H131.038V6.02H126.95V4.746ZM126.95 6.874H131.038V8.134H126.95V6.874ZM126.152 9.002H130.954V10.304H126.152V9.002ZM128.49 3.416H129.82V9.716H128.49V3.416ZM128.952 10.934L129.61 10.724C129.75 10.9947 129.881 11.298 130.002 11.634C130.133 11.97 130.221 12.2593 130.268 12.502L129.582 12.754C129.535 12.5113 129.451 12.2173 129.33 11.872C129.218 11.5267 129.092 11.214 128.952 10.934ZM128.042 11.13L128.756 11.004C128.877 11.3587 128.98 11.7507 129.064 12.18C129.148 12.6 129.199 12.9593 129.218 13.258L128.476 13.412C128.457 13.104 128.406 12.74 128.322 12.32C128.247 11.8907 128.154 11.494 128.042 11.13ZM127.076 11.2L127.804 11.13C127.879 11.5407 127.925 11.9887 127.944 12.474C127.963 12.95 127.967 13.3607 127.958 13.706L127.188 13.818C127.216 13.4633 127.216 13.0433 127.188 12.558C127.169 12.0727 127.132 11.62 127.076 11.2ZM126.04 10.906L126.964 11.088C126.945 11.5173 126.908 11.942 126.852 12.362C126.805 12.782 126.726 13.174 126.614 13.538C126.511 13.8927 126.367 14.2007 126.18 14.462L125.326 14C125.494 13.7573 125.625 13.4773 125.718 13.16C125.811 12.8333 125.881 12.4787 125.928 12.096C125.984 11.704 126.021 11.3073 126.04 10.906ZM126.152 2.632H131.318V3.99H127.538V9.898H126.152V2.632ZM130.226 9.002H131.598C131.598 9.002 131.598 9.072 131.598 9.212C131.598 9.352 131.593 9.46867 131.584 9.562C131.547 10.6913 131.5 11.606 131.444 12.306C131.388 13.006 131.323 13.5473 131.248 13.93C131.173 14.3033 131.08 14.56 130.968 14.7C130.856 14.8587 130.735 14.9707 130.604 15.036C130.473 15.1107 130.319 15.162 130.142 15.19C130.002 15.218 129.82 15.232 129.596 15.232C129.381 15.2413 129.153 15.2413 128.91 15.232C128.901 15.0267 128.863 14.8027 128.798 14.56C128.733 14.3173 128.649 14.1073 128.546 13.93C128.733 13.9487 128.901 13.9627 129.05 13.972C129.199 13.9813 129.321 13.986 129.414 13.986C129.489 13.986 129.554 13.972 129.61 13.944C129.666 13.916 129.722 13.8693 129.778 13.804C129.853 13.7107 129.913 13.51 129.96 13.202C130.016 12.894 130.063 12.4227 130.1 11.788C130.147 11.1533 130.189 10.304 130.226 9.24V9.002ZM139.564 14L142.882 3.626H145.332L148.65 14H146.466L144.996 8.596C144.837 8.05467 144.683 7.49467 144.534 6.916C144.394 6.328 144.245 5.75867 144.086 5.208H144.03C143.899 5.768 143.755 6.33733 143.596 6.916C143.447 7.49467 143.297 8.05467 143.148 8.596L141.664 14H139.564ZM141.622 11.34V9.73H146.55V11.34H141.622ZM150.423 14V3.626H154.021C154.758 3.626 155.421 3.724 156.009 3.92C156.597 4.10667 157.063 4.43333 157.409 4.9C157.754 5.35733 157.927 5.98267 157.927 6.776C157.927 7.54133 157.754 8.17133 157.409 8.666C157.063 9.15133 156.597 9.51067 156.009 9.744C155.421 9.968 154.758 10.08 154.021 10.08H152.495V14H150.423ZM152.495 8.442H153.839C154.511 8.442 155.019 8.302 155.365 8.022C155.719 7.742 155.897 7.32667 155.897 6.776C155.897 6.216 155.719 5.82867 155.365 5.614C155.019 5.39 154.511 5.278 153.839 5.278H152.495V8.442ZM156.051 14L153.643 9.548L155.099 8.26L158.375 14H156.051ZM160.526 14V3.626H164.124C164.861 3.626 165.524 3.724 166.112 3.92C166.7 4.10667 167.166 4.43333 167.512 4.9C167.857 5.35733 168.03 5.98267 168.03 6.776C168.03 7.54133 167.857 8.17133 167.512 8.666C167.166 9.15133 166.7 9.51067 166.112 9.744C165.524 9.968 164.861 10.08 164.124 10.08H162.598V14H160.526ZM162.598 8.442H163.942C164.614 8.442 165.122 8.302 165.468 8.022C165.822 7.742 166 7.32667 166 6.776C166 6.216 165.822 5.82867 165.468 5.614C165.122 5.39 164.614 5.278 163.942 5.278H162.598V8.442ZM166.154 14L163.746 9.548L165.202 8.26L168.478 14H166.154ZM181.801 4.676C181.735 4.80667 181.675 4.96533 181.619 5.152C181.572 5.32933 181.53 5.49733 181.493 5.656C181.418 5.992 181.32 6.37467 181.199 6.804C181.077 7.23333 180.933 7.67667 180.765 8.134C180.597 8.59133 180.396 9.044 180.163 9.492C179.939 9.94 179.682 10.36 179.393 10.752C178.973 11.3027 178.483 11.8253 177.923 12.32C177.363 12.8053 176.737 13.244 176.047 13.636C175.356 14.0187 174.595 14.3453 173.765 14.616L172.239 12.95C173.163 12.726 173.961 12.4507 174.633 12.124C175.314 11.788 175.907 11.4147 176.411 11.004C176.915 10.584 177.353 10.136 177.727 9.66C178.035 9.268 178.296 8.84333 178.511 8.386C178.735 7.92867 178.917 7.46667 179.057 7C179.206 6.53333 179.309 6.104 179.365 5.712C179.225 5.712 178.991 5.712 178.665 5.712C178.347 5.712 177.969 5.712 177.531 5.712C177.101 5.712 176.649 5.712 176.173 5.712C175.706 5.712 175.253 5.712 174.815 5.712C174.376 5.712 173.979 5.712 173.625 5.712C173.279 5.712 173.018 5.712 172.841 5.712C172.523 5.712 172.211 5.71667 171.903 5.726C171.604 5.73533 171.361 5.74933 171.175 5.768V3.794C171.324 3.80333 171.497 3.81733 171.693 3.836C171.889 3.85467 172.094 3.87333 172.309 3.892C172.523 3.90133 172.705 3.906 172.855 3.906C172.995 3.906 173.205 3.906 173.485 3.906C173.765 3.906 174.087 3.906 174.451 3.906C174.815 3.906 175.193 3.906 175.585 3.906C175.986 3.906 176.383 3.906 176.775 3.906C177.167 3.906 177.535 3.906 177.881 3.906C178.226 3.906 178.525 3.906 178.777 3.906C179.038 3.906 179.22 3.906 179.323 3.906C179.463 3.906 179.635 3.90133 179.841 3.892C180.046 3.87333 180.237 3.84067 180.415 3.794L181.801 4.676ZM186.673 6.412C186.831 6.44 187.018 6.45867 187.233 6.468C187.447 6.47733 187.629 6.482 187.779 6.482H194.191C194.359 6.482 194.541 6.47733 194.737 6.468C194.933 6.45867 195.115 6.44 195.283 6.412V8.176C195.105 8.15733 194.919 8.14333 194.723 8.134C194.527 8.12467 194.349 8.12 194.191 8.12H187.779C187.629 8.12 187.447 8.12467 187.233 8.134C187.018 8.14333 186.831 8.15733 186.673 8.176V6.412ZM189.963 13.58V7.378H191.797V13.58H189.963ZM185.959 12.544C186.136 12.5627 186.327 12.5813 186.533 12.6C186.738 12.6187 186.929 12.628 187.107 12.628H194.849C195.045 12.628 195.231 12.6187 195.409 12.6C195.595 12.572 195.763 12.5533 195.913 12.544V14.378C195.763 14.35 195.577 14.3313 195.353 14.322C195.138 14.3127 194.97 14.308 194.849 14.308H187.107C186.939 14.308 186.752 14.3127 186.547 14.322C186.341 14.3313 186.145 14.35 185.959 14.378V12.544ZM199.763 7.518C199.931 7.52733 200.145 7.54133 200.407 7.56C200.668 7.56933 200.939 7.57867 201.219 7.588C201.508 7.59733 201.774 7.602 202.017 7.602C202.25 7.602 202.539 7.602 202.885 7.602C203.23 7.602 203.603 7.602 204.005 7.602C204.415 7.602 204.835 7.602 205.265 7.602C205.703 7.602 206.137 7.602 206.567 7.602C206.996 7.602 207.402 7.602 207.785 7.602C208.167 7.602 208.508 7.602 208.807 7.602C209.115 7.602 209.357 7.602 209.535 7.602C209.861 7.602 210.169 7.59267 210.459 7.574C210.748 7.546 210.986 7.52733 211.173 7.518V9.716C211.014 9.70667 210.776 9.69267 210.459 9.674C210.141 9.65533 209.833 9.646 209.535 9.646C209.357 9.646 209.115 9.646 208.807 9.646C208.499 9.646 208.153 9.646 207.771 9.646C207.388 9.646 206.982 9.646 206.553 9.646C206.133 9.646 205.703 9.646 205.265 9.646C204.826 9.646 204.401 9.646 203.991 9.646C203.589 9.646 203.216 9.646 202.871 9.646C202.535 9.646 202.25 9.646 202.017 9.646C201.615 9.646 201.205 9.65533 200.785 9.674C200.365 9.68333 200.024 9.69733 199.763 9.716V7.518ZM223.089 2.352C223.211 2.52933 223.341 2.73933 223.481 2.982C223.631 3.21533 223.771 3.44867 223.901 3.682C224.032 3.91533 224.135 4.11133 224.209 4.27L223.075 4.746C222.935 4.466 222.763 4.144 222.557 3.78C222.361 3.416 222.17 3.094 221.983 2.814L223.089 2.352ZM224.853 1.862C224.984 2.03933 225.119 2.24467 225.259 2.478C225.399 2.71133 225.535 2.94467 225.665 3.178C225.805 3.402 225.913 3.598 225.987 3.766L224.881 4.242C224.732 3.95267 224.555 3.626 224.349 3.262C224.144 2.898 223.943 2.58533 223.747 2.324L224.853 1.862ZM223.733 4.844C223.677 4.928 223.593 5.05867 223.481 5.236C223.379 5.41333 223.299 5.57667 223.243 5.726C223.047 6.16467 222.805 6.65467 222.515 7.196C222.235 7.73733 221.913 8.28333 221.549 8.834C221.195 9.38467 220.817 9.89333 220.415 10.36C219.893 10.9573 219.314 11.5407 218.679 12.11C218.054 12.6793 217.391 13.2067 216.691 13.692C216.001 14.168 215.291 14.5787 214.563 14.924L213.121 13.412C213.877 13.1227 214.61 12.7587 215.319 12.32C216.029 11.8813 216.687 11.4053 217.293 10.892C217.9 10.3787 218.423 9.87933 218.861 9.394C219.169 9.04867 219.459 8.67533 219.729 8.274C220.009 7.86333 220.257 7.462 220.471 7.07C220.686 6.66867 220.845 6.30467 220.947 5.978C220.854 5.978 220.686 5.978 220.443 5.978C220.201 5.978 219.916 5.978 219.589 5.978C219.272 5.978 218.936 5.978 218.581 5.978C218.227 5.978 217.886 5.978 217.559 5.978C217.242 5.978 216.962 5.978 216.719 5.978C216.477 5.978 216.304 5.978 216.201 5.978C216.005 5.978 215.8 5.98267 215.585 5.992C215.371 6.00133 215.165 6.01533 214.969 6.034C214.783 6.05267 214.638 6.062 214.535 6.062V4.074C214.675 4.08333 214.848 4.09733 215.053 4.116C215.259 4.13467 215.464 4.14867 215.669 4.158C215.884 4.16733 216.061 4.172 216.201 4.172C216.323 4.172 216.514 4.172 216.775 4.172C217.037 4.172 217.335 4.172 217.671 4.172C218.007 4.172 218.353 4.172 218.707 4.172C219.071 4.172 219.417 4.172 219.743 4.172C220.079 4.172 220.369 4.172 220.611 4.172C220.854 4.172 221.031 4.172 221.143 4.172C221.451 4.172 221.731 4.158 221.983 4.13C222.245 4.09267 222.445 4.05067 222.585 4.004L223.733 4.844ZM220.597 9.198C220.961 9.48733 221.349 9.82333 221.759 10.206C222.17 10.5887 222.576 10.9853 222.977 11.396C223.379 11.8067 223.747 12.2033 224.083 12.586C224.429 12.9593 224.718 13.286 224.951 13.566L223.355 14.966C223.01 14.4807 222.613 13.9813 222.165 13.468C221.727 12.9547 221.26 12.446 220.765 11.942C220.28 11.4287 219.785 10.9433 219.281 10.486L220.597 9.198Z" fill="#4A5565"/>
<path d="M3.01705 46H0.380682L4.39773 34.3636H7.56818L11.5795 46H8.94318L6.02841 37.0227H5.9375L3.01705 46ZM2.85227 41.4261H9.07955V43.3466H2.85227V41.4261ZM12.9801 46V34.3636H17.571C18.4498 34.3636 19.1998 34.5208 19.821 34.8352C20.446 35.1458 20.9214 35.5871 21.2472 36.1591C21.5767 36.7273 21.7415 37.3958 21.7415 38.1648C21.7415 38.9375 21.5748 39.6023 21.2415 40.1591C20.9081 40.7121 20.4252 41.1364 19.7926 41.4318C19.1638 41.7273 18.4025 41.875 17.5085 41.875H14.4347V39.8977H17.1108C17.5805 39.8977 17.9706 39.8333 18.2812 39.7045C18.5919 39.5758 18.8229 39.3826 18.9744 39.125C19.1297 38.8674 19.2074 38.5473 19.2074 38.1648C19.2074 37.7784 19.1297 37.4527 18.9744 37.1875C18.8229 36.9223 18.59 36.7216 18.2756 36.5852C17.965 36.4451 17.5729 36.375 17.0994 36.375H15.4403V46H12.9801ZM19.2642 40.7045L22.1562 46H19.4403L16.6108 40.7045H19.2642ZM23.4801 46V34.3636H28.071C28.9498 34.3636 29.6998 34.5208 30.321 34.8352C30.946 35.1458 31.4214 35.5871 31.7472 36.1591C32.0767 36.7273 32.2415 37.3958 32.2415 38.1648C32.2415 38.9375 32.0748 39.6023 31.7415 40.1591C31.4081 40.7121 30.9252 41.1364 30.2926 41.4318C29.6638 41.7273 28.9025 41.875 28.0085 41.875H24.9347V39.8977H27.6108C28.0805 39.8977 28.4706 39.8333 28.7812 39.7045C29.0919 39.5758 29.3229 39.3826 29.4744 39.125C29.6297 38.8674 29.7074 38.5473 29.7074 38.1648C29.7074 37.7784 29.6297 37.4527 29.4744 37.1875C29.3229 36.9223 29.09 36.7216 28.7756 36.5852C28.465 36.4451 28.0729 36.375 27.5994 36.375H25.9403V46H23.4801ZM29.7642 40.7045L32.6562 46H29.9403L27.1108 40.7045H29.7642ZM38.4744 46.2557C37.4972 46.2519 36.6563 46.0114 35.9517 45.5341C35.2509 45.0568 34.7112 44.3655 34.3324 43.4602C33.9574 42.5549 33.7718 41.4659 33.7756 40.1932C33.7756 38.9242 33.9631 37.8428 34.3381 36.9489C34.7169 36.0549 35.2566 35.375 35.9574 34.9091C36.6619 34.4394 37.5009 34.2045 38.4744 34.2045C39.4479 34.2045 40.285 34.4394 40.9858 34.9091C41.6903 35.3788 42.232 36.0606 42.6108 36.9545C42.9896 37.8447 43.1771 38.9242 43.1733 40.1932C43.1733 41.4697 42.9839 42.5606 42.6051 43.4659C42.2301 44.3712 41.6922 45.0625 40.9915 45.5398C40.2907 46.017 39.4517 46.2557 38.4744 46.2557ZM38.4744 44.2159C39.1411 44.2159 39.6733 43.8807 40.071 43.2102C40.4688 42.5398 40.6657 41.5341 40.6619 40.1932C40.6619 39.3106 40.571 38.5758 40.3892 37.9886C40.2112 37.4015 39.9574 36.9602 39.6278 36.6648C39.3021 36.3693 38.9176 36.2216 38.4744 36.2216C37.8116 36.2216 37.2813 36.553 36.8835 37.2159C36.4858 37.8788 36.285 38.8712 36.2812 40.1932C36.2812 41.0871 36.3703 41.8333 36.5483 42.4318C36.7301 43.0265 36.9858 43.4735 37.3153 43.7727C37.6449 44.0682 38.0312 44.2159 38.4744 44.2159ZM51.2644 40.608C50.9124 40.2453 50.5657 39.9627 50.2244 39.76C49.883 39.5573 49.435 39.456 48.8804 39.456C48.3684 39.456 47.8884 39.6373 47.4404 40C47.003 40.352 46.635 40.8107 46.3364 41.376L44.5764 40.416C45.1204 39.424 45.7657 38.688 46.5124 38.208C47.259 37.7173 48.0644 37.472 48.9284 37.472C49.6964 37.472 50.379 37.616 50.9764 37.904C51.5844 38.192 52.1604 38.6347 52.7044 39.232C53.0564 39.5947 53.403 39.8773 53.7444 40.08C54.0964 40.2827 54.5444 40.384 55.0884 40.384C55.6004 40.384 56.075 40.208 56.5124 39.856C56.9604 39.4933 57.3337 39.0293 57.6324 38.464L59.3924 39.424C58.8484 40.416 58.203 41.1573 57.4564 41.648C56.7097 42.128 55.9044 42.368 55.0404 42.368C54.283 42.368 53.6004 42.224 52.9924 41.936C52.3844 41.648 51.8084 41.2053 51.2644 40.608ZM65.9901 34.3636V46H63.5298V36.6989H63.4616L60.7969 38.3693V36.1875L63.6776 34.3636H65.9901ZM77.0285 32.512H78.9645V34.4H77.0285V32.512ZM73.3645 33.664H82.9005V35.056H73.3645V33.664ZM72.7245 36.24H83.3645V37.728H72.7245V36.24ZM74.6765 35.168L76.2925 34.848C76.4312 35.0827 76.5645 35.344 76.6925 35.632C76.8312 35.9093 76.9218 36.1547 76.9645 36.368L75.2685 36.72C75.2258 36.5173 75.1458 36.2667 75.0285 35.968C74.9218 35.6693 74.8045 35.4027 74.6765 35.168ZM79.7325 34.576L81.6365 35.024C81.4445 35.3653 81.2578 35.6907 81.0765 36C80.8952 36.3093 80.7298 36.5813 80.5805 36.816L79.0925 36.4C79.2098 36.1227 79.3272 35.8187 79.4445 35.488C79.5725 35.1467 79.6685 34.8427 79.7325 34.576ZM75.7325 41.152V41.824H80.3565V41.152H75.7325ZM75.7325 39.488V40.144H80.3565V39.488H75.7325ZM73.9245 38.336H82.2605V42.976H73.9245V38.336ZM73.5885 43.568L75.0765 44.16C74.8952 44.6613 74.6765 45.1787 74.4205 45.712C74.1645 46.2453 73.8392 46.704 73.4445 47.088L72.0525 46.096C72.3832 45.7867 72.6818 45.4027 72.9485 44.944C73.2258 44.4747 73.4392 44.016 73.5885 43.568ZM75.3005 43.664H77.0445V45.488C77.0445 45.68 77.0765 45.8027 77.1405 45.856C77.2045 45.8987 77.3592 45.92 77.6045 45.92C77.6578 45.92 77.7432 45.92 77.8605 45.92C77.9885 45.92 78.1272 45.92 78.2765 45.92C78.4258 45.92 78.5645 45.92 78.6925 45.92C78.8312 45.92 78.9378 45.92 79.0125 45.92C79.1405 45.92 79.2365 45.8987 79.3005 45.856C79.3752 45.8027 79.4285 45.7013 79.4605 45.552C79.4925 45.392 79.5192 45.1627 79.5405 44.864C79.7005 44.9813 79.9298 45.0987 80.2285 45.216C80.5378 45.3333 80.8098 45.4133 81.0445 45.456C80.9805 45.968 80.8792 46.3627 80.7405 46.64C80.6125 46.928 80.4258 47.1253 80.1805 47.232C79.9352 47.3493 79.6152 47.408 79.2205 47.408C79.1245 47.408 78.9912 47.408 78.8205 47.408C78.6498 47.408 78.4632 47.408 78.2605 47.408C78.0685 47.408 77.8872 47.408 77.7165 47.408C77.5565 47.408 77.4338 47.408 77.3485 47.408C76.7938 47.408 76.3672 47.3493 76.0685 47.232C75.7698 47.1147 75.5672 46.912 75.4605 46.624C75.3538 46.3467 75.3005 45.9733 75.3005 45.504V43.664ZM76.6125 43.232L77.7805 42.336C78.1325 42.56 78.4952 42.8267 78.8685 43.136C79.2418 43.4347 79.5245 43.7173 79.7165 43.984L78.4845 44.96C78.3032 44.704 78.0312 44.4107 77.6685 44.08C77.3165 43.7493 76.9645 43.4667 76.6125 43.232ZM80.0845 44.176L81.5085 43.408C81.7858 43.6747 82.0578 43.9733 82.3245 44.304C82.5912 44.624 82.8365 44.9493 83.0605 45.28C83.2845 45.6 83.4552 45.8987 83.5725 46.176L82.0365 47.04C81.9298 46.7733 81.7698 46.4693 81.5565 46.128C81.3538 45.7973 81.1192 45.4613 80.8525 45.12C80.5965 44.7787 80.3405 44.464 80.0845 44.176ZM71.7805 32.448L73.5565 33.024C73.2045 33.9093 72.7832 34.7947 72.2925 35.68C71.8018 36.5653 71.2738 37.4027 70.7085 38.192C70.1538 38.9707 69.5778 39.6587 68.9805 40.256C68.9272 40.096 68.8418 39.8933 68.7245 39.648C68.6072 39.392 68.4792 39.1413 68.3405 38.896C68.2125 38.64 68.0952 38.432 67.9885 38.272C68.4792 37.8027 68.9592 37.2587 69.4285 36.64C69.9085 36.0213 70.3512 35.3547 70.7565 34.64C71.1618 33.9147 71.5032 33.184 71.7805 32.448ZM70.1005 36.912L71.9245 35.088V35.104V47.424H70.1005V36.912Z" fill="#1E2939"/>
<rect y="59" width="240" height="40" fill="#00BC7D"/>
<path d="M254.493 91.3523V85.0554L270.281 60.1818H275.71V68.8977H272.497L262.544 84.6491V84.9446H284.98V91.3523H254.493ZM272.645 98V89.4318L272.793 86.6435V60.1818H280.29V98H272.645ZM305.136 98.831C301.96 98.8187 299.227 98.0369 296.937 96.4858C294.659 94.9347 292.905 92.688 291.674 89.7457C290.455 86.8035 289.852 83.2642 289.864 79.1278C289.864 75.0038 290.474 71.4891 291.692 68.5838C292.924 65.6785 294.678 63.4687 296.955 61.9545C299.245 60.428 301.972 59.6648 305.136 59.6648C308.299 59.6648 311.02 60.428 313.298 61.9545C315.587 63.4811 317.348 65.697 318.579 68.6023C319.81 71.4953 320.419 75.0038 320.407 79.1278C320.407 83.2765 319.791 86.822 318.56 89.7642C317.342 92.7064 315.594 94.9531 313.316 96.5043C311.039 98.0554 308.312 98.831 305.136 98.831ZM305.136 92.2017C307.302 92.2017 309.032 91.1122 310.325 88.9332C311.617 86.7543 312.257 83.4858 312.245 79.1278C312.245 76.2595 311.95 73.8712 311.359 71.9631C310.78 70.0549 309.955 68.6207 308.884 67.6605C307.826 66.7003 306.576 66.2202 305.136 66.2202C302.981 66.2202 301.258 67.2973 299.965 69.4517C298.673 71.6061 298.02 74.8314 298.008 79.1278C298.008 82.0331 298.297 84.4583 298.876 86.4034C299.467 88.3362 300.298 89.7888 301.369 90.7614C302.44 91.7216 303.695 92.2017 305.136 92.2017Z" fill="#00BC7D"/>
<path d="M330.355 95.8182V95.2045C330.355 94.7386 330.454 94.3106 330.651 93.9205C330.852 93.5265 331.141 93.2121 331.52 92.9773C331.903 92.7386 332.369 92.6193 332.918 92.6193C333.475 92.6193 333.943 92.7367 334.321 92.9716C334.704 93.2064 334.992 93.5208 335.185 93.9148C335.382 94.3049 335.48 94.7348 335.48 95.2045V95.8182C335.48 96.2841 335.382 96.714 335.185 97.108C334.988 97.4981 334.698 97.8106 334.316 98.0455C333.933 98.2841 333.467 98.4034 332.918 98.4034C332.361 98.4034 331.893 98.2841 331.515 98.0455C331.136 97.8106 330.848 97.4981 330.651 97.108C330.454 96.714 330.355 96.2841 330.355 95.8182ZM332.009 95.2045V95.8182C332.009 96.0871 332.073 96.3409 332.202 96.5795C332.335 96.8182 332.573 96.9375 332.918 96.9375C333.263 96.9375 333.498 96.8201 333.623 96.5852C333.751 96.3504 333.816 96.0947 333.816 95.8182V95.2045C333.816 94.928 333.755 94.6705 333.634 94.4318C333.513 94.1932 333.274 94.0739 332.918 94.0739C332.577 94.0739 332.34 94.1932 332.208 94.4318C332.075 94.6705 332.009 94.928 332.009 95.2045ZM324.384 89.1591V88.5455C324.384 88.0758 324.484 87.6458 324.685 87.2557C324.886 86.8617 325.176 86.5473 325.554 86.3125C325.937 86.0777 326.399 85.9602 326.941 85.9602C327.501 85.9602 327.971 86.0777 328.35 86.3125C328.729 86.5473 329.016 86.8617 329.213 87.2557C329.41 87.6458 329.509 88.0758 329.509 88.5455V89.1591C329.509 89.6288 329.408 90.0587 329.208 90.4489C329.011 90.839 328.721 91.1515 328.338 91.3864C327.96 91.6174 327.494 91.733 326.941 91.733C326.388 91.733 325.92 91.6155 325.537 91.3807C325.158 91.142 324.871 90.8295 324.674 90.4432C324.48 90.053 324.384 89.625 324.384 89.1591ZM326.049 88.5455V89.1591C326.049 89.4356 326.113 89.6913 326.242 89.9261C326.374 90.161 326.607 90.2784 326.941 90.2784C327.289 90.2784 327.526 90.161 327.651 89.9261C327.78 89.6913 327.844 89.4356 327.844 89.1591V88.5455C327.844 88.2689 327.783 88.0114 327.662 87.7727C327.541 87.5341 327.301 87.4148 326.941 87.4148C326.604 87.4148 326.371 87.536 326.242 87.7784C326.113 88.0208 326.049 88.2765 326.049 88.5455ZM325.134 98L333.134 86.3636H334.623L326.623 98H325.134Z" fill="#1E2939"/>
<path d="M3.01705 136H0.380682L4.39773 124.364H7.56818L11.5795 136H8.94318L6.02841 127.023H5.9375L3.01705 136ZM2.85227 131.426H9.07955V133.347H2.85227V131.426ZM12.9801 136V124.364H17.571C18.4498 124.364 19.1998 124.521 19.821 124.835C20.446 125.146 20.9214 125.587 21.2472 126.159C21.5767 126.727 21.7415 127.396 21.7415 128.165C21.7415 128.937 21.5748 129.602 21.2415 130.159C20.9081 130.712 20.4252 131.136 19.7926 131.432C19.1638 131.727 18.4025 131.875 17.5085 131.875H14.4347V129.898H17.1108C17.5805 129.898 17.9706 129.833 18.2812 129.705C18.5919 129.576 18.8229 129.383 18.9744 129.125C19.1297 128.867 19.2074 128.547 19.2074 128.165C19.2074 127.778 19.1297 127.453 18.9744 127.188C18.8229 126.922 18.59 126.722 18.2756 126.585C17.965 126.445 17.5729 126.375 17.0994 126.375H15.4403V136H12.9801ZM19.2642 130.705L22.1562 136H19.4403L16.6108 130.705H19.2642ZM23.4801 136V124.364H28.071C28.9498 124.364 29.6998 124.521 30.321 124.835C30.946 125.146 31.4214 125.587 31.7472 126.159C32.0767 126.727 32.2415 127.396 32.2415 128.165C32.2415 128.937 32.0748 129.602 31.7415 130.159C31.4081 130.712 30.9252 131.136 30.2926 131.432C29.6638 131.727 28.9025 131.875 28.0085 131.875H24.9347V129.898H27.6108C28.0805 129.898 28.4706 129.833 28.7812 129.705C29.0919 129.576 29.3229 129.383 29.4744 129.125C29.6297 128.867 29.7074 128.547 29.7074 128.165C29.7074 127.778 29.6297 127.453 29.4744 127.188C29.3229 126.922 29.09 126.722 28.7756 126.585C28.465 126.445 28.0729 126.375 27.5994 126.375H25.9403V136H23.4801ZM29.7642 130.705L32.6562 136H29.9403L27.1108 130.705H29.7642ZM38.9744 124.364V136H36.5142V126.699H36.446L33.7812 128.369V126.188L36.6619 124.364H38.9744ZM48.0769 130.608C47.7249 130.245 47.3782 129.963 47.0369 129.76C46.6955 129.557 46.2475 129.456 45.6929 129.456C45.1809 129.456 44.7009 129.637 44.2529 130C43.8155 130.352 43.4475 130.811 43.1489 131.376L41.3889 130.416C41.9329 129.424 42.5782 128.688 43.3249 128.208C44.0715 127.717 44.8769 127.472 45.7409 127.472C46.5089 127.472 47.1915 127.616 47.7889 127.904C48.3969 128.192 48.9729 128.635 49.5169 129.232C49.8689 129.595 50.2155 129.877 50.5569 130.08C50.9089 130.283 51.3569 130.384 51.9009 130.384C52.4129 130.384 52.8875 130.208 53.3249 129.856C53.7729 129.493 54.1462 129.029 54.4449 128.464L56.2049 129.424C55.6609 130.416 55.0155 131.157 54.2689 131.648C53.5222 132.128 52.7169 132.368 51.8529 132.368C51.0955 132.368 50.4129 132.224 49.8049 131.936C49.1969 131.648 48.6209 131.205 48.0769 130.608ZM62.8026 124.364V136H60.3423V126.699H60.2741L57.6094 128.369V126.188L60.4901 124.364H62.8026ZM70.1307 136.256C69.1534 136.252 68.3125 136.011 67.608 135.534C66.9072 135.057 66.3674 134.366 65.9886 133.46C65.6136 132.555 65.428 131.466 65.4318 130.193C65.4318 128.924 65.6193 127.843 65.9943 126.949C66.3731 126.055 66.9129 125.375 67.6136 124.909C68.3182 124.439 69.1572 124.205 70.1307 124.205C71.1042 124.205 71.9413 124.439 72.642 124.909C73.3466 125.379 73.8883 126.061 74.267 126.955C74.6458 127.845 74.8333 128.924 74.8295 130.193C74.8295 131.47 74.6402 132.561 74.2614 133.466C73.8864 134.371 73.3485 135.062 72.6477 135.54C71.947 136.017 71.108 136.256 70.1307 136.256ZM70.1307 134.216C70.7973 134.216 71.3295 133.881 71.7273 133.21C72.125 132.54 72.322 131.534 72.3182 130.193C72.3182 129.311 72.2273 128.576 72.0455 127.989C71.8674 127.402 71.6136 126.96 71.2841 126.665C70.9583 126.369 70.5739 126.222 70.1307 126.222C69.4678 126.222 68.9375 126.553 68.5398 127.216C68.142 127.879 67.9413 128.871 67.9375 130.193C67.9375 131.087 68.0265 131.833 68.2045 132.432C68.3864 133.027 68.642 133.473 68.9716 133.773C69.3011 134.068 69.6875 134.216 70.1307 134.216ZM84.8566 122.512H86.7926V124.4H84.8566V122.512ZM81.1926 123.664H90.7286V125.056H81.1926V123.664ZM80.5526 126.24H91.1926V127.728H80.5526V126.24ZM82.5046 125.168L84.1206 124.848C84.2593 125.083 84.3926 125.344 84.5206 125.632C84.6593 125.909 84.75 126.155 84.7926 126.368L83.0966 126.72C83.054 126.517 82.974 126.267 82.8566 125.968C82.75 125.669 82.6326 125.403 82.5046 125.168ZM87.5606 124.576L89.4646 125.024C89.2726 125.365 89.086 125.691 88.9046 126C88.7233 126.309 88.558 126.581 88.4086 126.816L86.9206 126.4C87.038 126.123 87.1553 125.819 87.2726 125.488C87.4006 125.147 87.4966 124.843 87.5606 124.576ZM83.5606 131.152V131.824H88.1846V131.152H83.5606ZM83.5606 129.488V130.144H88.1846V129.488H83.5606ZM81.7526 128.336H90.0886V132.976H81.7526V128.336ZM81.4166 133.568L82.9046 134.16C82.7233 134.661 82.5046 135.179 82.2486 135.712C81.9926 136.245 81.6673 136.704 81.2726 137.088L79.8806 136.096C80.2113 135.787 80.51 135.403 80.7766 134.944C81.054 134.475 81.2673 134.016 81.4166 133.568ZM83.1286 133.664H84.8726V135.488C84.8726 135.68 84.9046 135.803 84.9686 135.856C85.0326 135.899 85.1873 135.92 85.4326 135.92C85.486 135.92 85.5713 135.92 85.6886 135.92C85.8166 135.92 85.9553 135.92 86.1046 135.92C86.254 135.92 86.3926 135.92 86.5206 135.92C86.6593 135.92 86.766 135.92 86.8406 135.92C86.9686 135.92 87.0646 135.899 87.1286 135.856C87.2033 135.803 87.2566 135.701 87.2886 135.552C87.3206 135.392 87.3473 135.163 87.3686 134.864C87.5286 134.981 87.758 135.099 88.0566 135.216C88.366 135.333 88.638 135.413 88.8726 135.456C88.8086 135.968 88.7073 136.363 88.5686 136.64C88.4406 136.928 88.254 137.125 88.0086 137.232C87.7633 137.349 87.4433 137.408 87.0486 137.408C86.9526 137.408 86.8193 137.408 86.6486 137.408C86.478 137.408 86.2913 137.408 86.0886 137.408C85.8966 137.408 85.7153 137.408 85.5446 137.408C85.3846 137.408 85.262 137.408 85.1766 137.408C84.622 137.408 84.1953 137.349 83.8966 137.232C83.598 137.115 83.3953 136.912 83.2886 136.624C83.182 136.347 83.1286 135.973 83.1286 135.504V133.664ZM84.4406 133.232L85.6086 132.336C85.9606 132.56 86.3233 132.827 86.6966 133.136C87.07 133.435 87.3526 133.717 87.5446 133.984L86.3126 134.96C86.1313 134.704 85.8593 134.411 85.4966 134.08C85.1446 133.749 84.7926 133.467 84.4406 133.232ZM87.9126 134.176L89.3366 133.408C89.614 133.675 89.886 133.973 90.1526 134.304C90.4193 134.624 90.6646 134.949 90.8886 135.28C91.1126 135.6 91.2833 135.899 91.4006 136.176L89.8646 137.04C89.758 136.773 89.598 136.469 89.3846 136.128C89.182 135.797 88.9473 135.461 88.6806 135.12C88.4246 134.779 88.1686 134.464 87.9126 134.176ZM79.6086 122.448L81.3846 123.024C81.0326 123.909 80.6113 124.795 80.1206 125.68C79.63 126.565 79.102 127.403 78.5366 128.192C77.982 128.971 77.406 129.659 76.8086 130.256C76.7553 130.096 76.67 129.893 76.5526 129.648C76.4353 129.392 76.3073 129.141 76.1686 128.896C76.0406 128.64 75.9233 128.432 75.8166 128.272C76.3073 127.803 76.7873 127.259 77.2566 126.64C77.7366 126.021 78.1793 125.355 78.5846 124.64C78.99 123.915 79.3313 123.184 79.6086 122.448ZM77.9286 126.912L79.7526 125.088V125.104V137.424H77.9286V126.912Z" fill="#1E2939"/>
<rect y="149" width="240" height="40" fill="#2B7FFF"/>
<path d="M254.493 181.352V175.055L270.281 150.182H275.71V158.898H272.497L262.544 174.649V174.945H284.98V181.352H254.493ZM272.645 188V179.432L272.793 176.643V150.182H280.29V188H272.645ZM305.136 188.831C301.96 188.819 299.227 188.037 296.937 186.486C294.659 184.935 292.905 182.688 291.674 179.746C290.455 176.804 289.852 173.264 289.864 169.128C289.864 165.004 290.474 161.489 291.692 158.584C292.924 155.679 294.678 153.469 296.955 151.955C299.245 150.428 301.972 149.665 305.136 149.665C308.299 149.665 311.02 150.428 313.298 151.955C315.587 153.481 317.348 155.697 318.579 158.602C319.81 161.495 320.419 165.004 320.407 169.128C320.407 173.277 319.791 176.822 318.56 179.764C317.342 182.706 315.594 184.953 313.316 186.504C311.039 188.055 308.312 188.831 305.136 188.831ZM305.136 182.202C307.302 182.202 309.032 181.112 310.325 178.933C311.617 176.754 312.257 173.486 312.245 169.128C312.245 166.259 311.95 163.871 311.359 161.963C310.78 160.055 309.955 158.621 308.884 157.661C307.826 156.7 306.576 156.22 305.136 156.22C302.981 156.22 301.258 157.297 299.965 159.452C298.673 161.606 298.02 164.831 298.008 169.128C298.008 172.033 298.297 174.458 298.876 176.403C299.467 178.336 300.298 179.789 301.369 180.761C302.44 181.722 303.695 182.202 305.136 182.202Z" fill="#2B7FFF"/>
<path d="M330.355 185.818V185.205C330.355 184.739 330.454 184.311 330.651 183.92C330.852 183.527 331.141 183.212 331.52 182.977C331.903 182.739 332.369 182.619 332.918 182.619C333.475 182.619 333.943 182.737 334.321 182.972C334.704 183.206 334.992 183.521 335.185 183.915C335.382 184.305 335.48 184.735 335.48 185.205V185.818C335.48 186.284 335.382 186.714 335.185 187.108C334.988 187.498 334.698 187.811 334.316 188.045C333.933 188.284 333.467 188.403 332.918 188.403C332.361 188.403 331.893 188.284 331.515 188.045C331.136 187.811 330.848 187.498 330.651 187.108C330.454 186.714 330.355 186.284 330.355 185.818ZM332.009 185.205V185.818C332.009 186.087 332.073 186.341 332.202 186.58C332.335 186.818 332.573 186.938 332.918 186.938C333.263 186.938 333.498 186.82 333.623 186.585C333.751 186.35 333.816 186.095 333.816 185.818V185.205C333.816 184.928 333.755 184.67 333.634 184.432C333.513 184.193 333.274 184.074 332.918 184.074C332.577 184.074 332.34 184.193 332.208 184.432C332.075 184.67 332.009 184.928 332.009 185.205ZM324.384 179.159V178.545C324.384 178.076 324.484 177.646 324.685 177.256C324.886 176.862 325.176 176.547 325.554 176.312C325.937 176.078 326.399 175.96 326.941 175.96C327.501 175.96 327.971 176.078 328.35 176.312C328.729 176.547 329.016 176.862 329.213 177.256C329.41 177.646 329.509 178.076 329.509 178.545V179.159C329.509 179.629 329.408 180.059 329.208 180.449C329.011 180.839 328.721 181.152 328.338 181.386C327.96 181.617 327.494 181.733 326.941 181.733C326.388 181.733 325.92 181.616 325.537 181.381C325.158 181.142 324.871 180.83 324.674 180.443C324.48 180.053 324.384 179.625 324.384 179.159ZM326.049 178.545V179.159C326.049 179.436 326.113 179.691 326.242 179.926C326.374 180.161 326.607 180.278 326.941 180.278C327.289 180.278 327.526 180.161 327.651 179.926C327.78 179.691 327.844 179.436 327.844 179.159V178.545C327.844 178.269 327.783 178.011 327.662 177.773C327.541 177.534 327.301 177.415 326.941 177.415C326.604 177.415 326.371 177.536 326.242 177.778C326.113 178.021 326.049 178.277 326.049 178.545ZM325.134 188L333.134 176.364H334.623L326.623 188H325.134Z" fill="#1E2939"/>
<path d="M0.283203 221L3.2112 212.156H4.8192L7.7472 221H6.2712L4.8432 216.2C4.6992 215.72 4.5592 215.236 4.4232 214.748C4.2872 214.252 4.1512 213.756 4.0152 213.26H3.9672C3.8392 213.764 3.7032 214.26 3.5592 214.748C3.4232 215.236 3.2832 215.72 3.1392 216.2L1.7112 221H0.283203ZM1.9392 218.492V217.388H6.0672V218.492H1.9392ZM8.91205 221V212.156H11.804C12.412 212.156 12.956 212.24 13.436 212.408C13.916 212.568 14.296 212.836 14.576 213.212C14.856 213.58 14.996 214.084 14.996 214.724C14.996 215.34 14.856 215.848 14.576 216.248C14.296 216.648 13.916 216.948 13.436 217.148C12.956 217.34 12.412 217.436 11.804 217.436H10.304V221H8.91205ZM10.304 216.32H11.636C12.276 216.32 12.764 216.188 13.1 215.924C13.444 215.652 13.616 215.252 13.616 214.724C13.616 214.188 13.444 213.816 13.1 213.608C12.764 213.392 12.276 213.284 11.636 213.284H10.304V216.32ZM13.736 221L11.54 217.064L12.572 216.26L15.308 221H13.736ZM16.787 221V212.156H19.679C20.287 212.156 20.831 212.24 21.311 212.408C21.791 212.568 22.171 212.836 22.451 213.212C22.731 213.58 22.871 214.084 22.871 214.724C22.871 215.34 22.731 215.848 22.451 216.248C22.171 216.648 21.791 216.948 21.311 217.148C20.831 217.34 20.287 217.436 19.679 217.436H18.179V221H16.787ZM18.179 216.32H19.511C20.151 216.32 20.639 216.188 20.975 215.924C21.319 215.652 21.491 215.252 21.491 214.724C21.491 214.188 21.319 213.816 20.975 213.608C20.639 213.392 20.151 213.284 19.511 213.284H18.179V216.32ZM21.611 221L19.415 217.064L20.447 216.26L23.183 221H21.611ZM24.518 221V219.86H26.462V213.956H24.878V213.08C25.294 213 25.654 212.908 25.958 212.804C26.27 212.692 26.554 212.56 26.81 212.408H27.854V219.86H29.57V221H24.518ZM33.7738 221.168C33.1818 221.168 32.6698 220.996 32.2378 220.652C31.8138 220.3 31.4858 219.792 31.2538 219.128C31.0218 218.456 30.9058 217.636 30.9058 216.668C30.9058 215.7 31.0218 214.888 31.2538 214.232C31.4858 213.576 31.8138 213.08 32.2378 212.744C32.6698 212.408 33.1818 212.24 33.7738 212.24C34.3578 212.24 34.8618 212.408 35.2858 212.744C35.7098 213.08 36.0378 213.576 36.2698 214.232C36.5018 214.888 36.6178 215.7 36.6178 216.668C36.6178 217.636 36.5018 218.456 36.2698 219.128C36.0378 219.792 35.7098 220.3 35.2858 220.652C34.8618 220.996 34.3578 221.168 33.7738 221.168ZM33.7738 220.064C34.0698 220.064 34.3338 219.952 34.5658 219.728C34.7978 219.504 34.9778 219.144 35.1058 218.648C35.2338 218.152 35.2978 217.492 35.2978 216.668C35.2978 215.844 35.2338 215.192 35.1058 214.712C34.9778 214.224 34.7978 213.872 34.5658 213.656C34.3338 213.44 34.0698 213.332 33.7738 213.332C33.4778 213.332 33.2138 213.44 32.9818 213.656C32.7498 213.872 32.5658 214.224 32.4298 214.712C32.3018 215.192 32.2378 215.844 32.2378 216.668C32.2378 217.492 32.3018 218.152 32.4298 218.648C32.5658 219.144 32.7498 219.504 32.9818 219.728C33.2138 219.952 33.4778 220.064 33.7738 220.064ZM44.1695 210.944H45.2975V212.3H44.1695V210.944ZM41.3015 211.856H48.4055V212.708H41.3015V211.856ZM40.7735 213.836H48.7895V214.748H40.7735V213.836ZM42.3335 212.852L43.2935 212.648C43.4055 212.824 43.5135 213.024 43.6175 213.248C43.7295 213.464 43.8055 213.66 43.8455 213.836L42.8375 214.064C42.7975 213.904 42.7295 213.708 42.6335 213.476C42.5455 213.244 42.4455 213.036 42.3335 212.852ZM46.1855 212.492L47.3255 212.768C47.1895 213.016 47.0535 213.26 46.9175 213.5C46.7815 213.74 46.6535 213.948 46.5335 214.124L45.6455 213.872C45.7415 213.664 45.8415 213.432 45.9455 213.176C46.0575 212.92 46.1375 212.692 46.1855 212.492ZM42.8135 217.304V217.976H46.7495V217.304H42.8135ZM42.8135 216.02V216.668H46.7495V216.02H42.8135ZM41.7455 215.3H47.8775V218.696H41.7455V215.3ZM41.5775 219.248L42.4655 219.608C42.3295 219.968 42.1575 220.344 41.9495 220.736C41.7495 221.12 41.5015 221.448 41.2055 221.72L40.3655 221.132C40.6375 220.908 40.8775 220.62 41.0855 220.268C41.3015 219.916 41.4655 219.576 41.5775 219.248ZM42.8375 219.272H43.8815V220.772C43.8815 220.9 43.9095 220.98 43.9655 221.012C44.0215 221.052 44.1495 221.072 44.3495 221.072C44.3895 221.072 44.4655 221.072 44.5775 221.072C44.6975 221.072 44.8255 221.072 44.9615 221.072C45.1055 221.072 45.2375 221.072 45.3575 221.072C45.4775 221.072 45.5695 221.072 45.6335 221.072C45.7375 221.072 45.8175 221.052 45.8735 221.012C45.9295 220.98 45.9695 220.904 45.9935 220.784C46.0175 220.656 46.0335 220.472 46.0415 220.232C46.1455 220.304 46.2855 220.376 46.4615 220.448C46.6455 220.512 46.8095 220.56 46.9535 220.592C46.9215 220.96 46.8615 221.244 46.7735 221.444C46.6855 221.644 46.5615 221.78 46.4015 221.852C46.2415 221.932 46.0255 221.972 45.7535 221.972C45.6975 221.972 45.5975 221.972 45.4535 221.972C45.3095 221.972 45.1495 221.972 44.9735 221.972C44.8055 221.972 44.6495 221.972 44.5055 221.972C44.3695 221.972 44.2735 221.972 44.2175 221.972C43.8495 221.972 43.5655 221.936 43.3655 221.864C43.1655 221.8 43.0255 221.68 42.9455 221.504C42.8735 221.328 42.8375 221.088 42.8375 220.784V219.272ZM43.7495 218.912L44.4335 218.36C44.7215 218.528 45.0095 218.724 45.2975 218.948C45.5935 219.172 45.8175 219.38 45.9695 219.572L45.2255 220.172C45.0815 219.988 44.8655 219.776 44.5775 219.536C44.2975 219.288 44.0215 219.08 43.7495 218.912ZM46.4495 219.608L47.3015 219.14C47.5095 219.332 47.7175 219.552 47.9255 219.8C48.1415 220.04 48.3375 220.28 48.5135 220.52C48.6975 220.76 48.8335 220.98 48.9215 221.18L48.0095 221.708C47.9215 221.516 47.7935 221.296 47.6255 221.048C47.4575 220.8 47.2695 220.552 47.0615 220.304C46.8615 220.048 46.6575 219.816 46.4495 219.608ZM40.3055 210.896L41.3615 211.244C41.0975 211.908 40.7815 212.568 40.4135 213.224C40.0535 213.872 39.6655 214.488 39.2495 215.072C38.8335 215.648 38.4055 216.156 37.9655 216.596C37.9335 216.508 37.8815 216.392 37.8095 216.248C37.7375 216.104 37.6615 215.96 37.5815 215.816C37.5015 215.664 37.4255 215.544 37.3535 215.456C37.7455 215.088 38.1255 214.664 38.4935 214.184C38.8615 213.696 39.2015 213.172 39.5135 212.612C39.8255 212.052 40.0895 211.48 40.3055 210.896ZM39.0335 214.112L40.1015 213.032L40.1135 213.044V221.996H39.0335V214.112ZM54.7535 216.86C54.4655 216.564 54.1775 216.336 53.8895 216.176C53.6095 216.008 53.2575 215.924 52.8335 215.924C52.3935 215.924 51.9895 216.064 51.6215 216.344C51.2615 216.624 50.9615 216.992 50.7215 217.448L49.6655 216.872C50.0575 216.16 50.5255 215.624 51.0695 215.264C51.6215 214.904 52.2135 214.724 52.8455 214.724C53.4055 214.724 53.9015 214.836 54.3335 215.06C54.7735 215.276 55.2015 215.596 55.6175 216.02C55.9055 216.316 56.1895 216.548 56.4695 216.716C56.7575 216.876 57.1135 216.956 57.5375 216.956C57.9775 216.956 58.3775 216.816 58.7375 216.536C59.1055 216.256 59.4095 215.888 59.6495 215.432L60.7055 216.008C60.3135 216.72 59.8415 217.256 59.2895 217.616C58.7455 217.976 58.1575 218.156 57.5255 218.156C56.9735 218.156 56.4775 218.048 56.0375 217.832C55.5975 217.608 55.1695 217.284 54.7535 216.86ZM62.2055 221V219.86H64.1495V213.716H62.5655V212.84C62.9815 212.768 63.3415 212.676 63.6455 212.564C63.9575 212.452 64.2415 212.316 64.4975 212.156H65.5415V219.86H67.2575V221H62.2055ZM71.4613 221.168C70.8853 221.168 70.3813 220.996 69.9493 220.652C69.5173 220.308 69.1813 219.796 68.9413 219.116C68.7093 218.428 68.5933 217.572 68.5933 216.548C68.5933 215.524 68.7093 214.676 68.9413 214.004C69.1813 213.332 69.5173 212.832 69.9493 212.504C70.3813 212.168 70.8853 212 71.4613 212C72.0373 212 72.5373 212.168 72.9613 212.504C73.3853 212.84 73.7133 213.344 73.9453 214.016C74.1853 214.68 74.3053 215.524 74.3053 216.548C74.3053 217.572 74.1853 218.428 73.9453 219.116C73.7133 219.796 73.3853 220.308 72.9613 220.652C72.5373 220.996 72.0373 221.168 71.4613 221.168ZM71.4613 220.064C71.7573 220.064 72.0213 219.948 72.2533 219.716C72.4853 219.484 72.6653 219.112 72.7933 218.6C72.9213 218.08 72.9853 217.396 72.9853 216.548C72.9853 215.7 72.9213 215.024 72.7933 214.52C72.6653 214.016 72.4853 213.652 72.2533 213.428C72.0213 213.204 71.7573 213.092 71.4613 213.092C71.1653 213.092 70.9013 213.204 70.6693 213.428C70.4373 213.652 70.2533 214.016 70.1173 214.52C69.9893 215.024 69.9253 215.7 69.9253 216.548C69.9253 217.396 69.9893 218.08 70.1173 218.6C70.2533 219.112 70.4373 219.484 70.6693 219.716C70.9013 219.948 71.1653 220.064 71.4613 220.064ZM78.305 221.168C77.729 221.168 77.225 220.996 76.793 220.652C76.361 220.308 76.025 219.796 75.785 219.116C75.553 218.428 75.437 217.572 75.437 216.548C75.437 215.524 75.553 214.676 75.785 214.004C76.025 213.332 76.361 212.832 76.793 212.504C77.225 212.168 77.729 212 78.305 212C78.881 212 79.381 212.168 79.805 212.504C80.229 212.84 80.557 213.344 80.789 214.016C81.029 214.68 81.149 215.524 81.149 216.548C81.149 217.572 81.029 218.428 80.789 219.116C80.557 219.796 80.229 220.308 79.805 220.652C79.381 220.996 78.881 221.168 78.305 221.168ZM78.305 220.064C78.601 220.064 78.865 219.948 79.097 219.716C79.329 219.484 79.509 219.112 79.637 218.6C79.765 218.08 79.829 217.396 79.829 216.548C79.829 215.7 79.765 215.024 79.637 214.52C79.509 214.016 79.329 213.652 79.097 213.428C78.865 213.204 78.601 213.092 78.305 213.092C78.009 213.092 77.745 213.204 77.513 213.428C77.281 213.652 77.097 214.016 76.961 214.52C76.833 215.024 76.769 215.7 76.769 216.548C76.769 217.396 76.833 218.08 76.961 218.6C77.097 219.112 77.281 219.484 77.513 219.716C77.745 219.948 78.009 220.064 78.305 220.064ZM88.7008 210.944H89.8288V212.3H88.7008V210.944ZM85.8328 211.856H92.9368V212.708H85.8328V211.856ZM85.3048 213.836H93.3208V214.748H85.3048V213.836ZM86.8648 212.852L87.8248 212.648C87.9368 212.824 88.0448 213.024 88.1488 213.248C88.2608 213.464 88.3368 213.66 88.3768 213.836L87.3688 214.064C87.3288 213.904 87.2608 213.708 87.1648 213.476C87.0768 213.244 86.9768 213.036 86.8648 212.852ZM90.7168 212.492L91.8568 212.768C91.7208 213.016 91.5848 213.26 91.4488 213.5C91.3128 213.74 91.1848 213.948 91.0648 214.124L90.1768 213.872C90.2728 213.664 90.3728 213.432 90.4768 213.176C90.5888 212.92 90.6688 212.692 90.7168 212.492ZM87.3448 217.304V217.976H91.2808V217.304H87.3448ZM87.3448 216.02V216.668H91.2808V216.02H87.3448ZM86.2768 215.3H92.4088V218.696H86.2768V215.3ZM86.1088 219.248L86.9968 219.608C86.8608 219.968 86.6888 220.344 86.4808 220.736C86.2808 221.12 86.0328 221.448 85.7368 221.72L84.8968 221.132C85.1688 220.908 85.4088 220.62 85.6168 220.268C85.8328 219.916 85.9968 219.576 86.1088 219.248ZM87.3688 219.272H88.4128V220.772C88.4128 220.9 88.4408 220.98 88.4968 221.012C88.5528 221.052 88.6808 221.072 88.8808 221.072C88.9208 221.072 88.9968 221.072 89.1088 221.072C89.2288 221.072 89.3568 221.072 89.4928 221.072C89.6368 221.072 89.7688 221.072 89.8888 221.072C90.0088 221.072 90.1008 221.072 90.1648 221.072C90.2688 221.072 90.3488 221.052 90.4048 221.012C90.4608 220.98 90.5008 220.904 90.5248 220.784C90.5488 220.656 90.5648 220.472 90.5728 220.232C90.6768 220.304 90.8168 220.376 90.9928 220.448C91.1768 220.512 91.3408 220.56 91.4848 220.592C91.4528 220.96 91.3928 221.244 91.3048 221.444C91.2168 221.644 91.0928 221.78 90.9328 221.852C90.7728 221.932 90.5568 221.972 90.2848 221.972C90.2288 221.972 90.1288 221.972 89.9848 221.972C89.8408 221.972 89.6808 221.972 89.5048 221.972C89.3368 221.972 89.1808 221.972 89.0368 221.972C88.9008 221.972 88.8048 221.972 88.7488 221.972C88.3808 221.972 88.0968 221.936 87.8968 221.864C87.6968 221.8 87.5568 221.68 87.4768 221.504C87.4048 221.328 87.3688 221.088 87.3688 220.784V219.272ZM88.2808 218.912L88.9648 218.36C89.2528 218.528 89.5408 218.724 89.8288 218.948C90.1248 219.172 90.3488 219.38 90.5008 219.572L89.7568 220.172C89.6128 219.988 89.3968 219.776 89.1088 219.536C88.8288 219.288 88.5528 219.08 88.2808 218.912ZM90.9808 219.608L91.8328 219.14C92.0408 219.332 92.2488 219.552 92.4568 219.8C92.6728 220.04 92.8688 220.28 93.0448 220.52C93.2288 220.76 93.3648 220.98 93.4528 221.18L92.5408 221.708C92.4528 221.516 92.3248 221.296 92.1568 221.048C91.9888 220.8 91.8008 220.552 91.5928 220.304C91.3928 220.048 91.1888 219.816 90.9808 219.608ZM84.8368 210.896L85.8928 211.244C85.6288 211.908 85.3128 212.568 84.9448 213.224C84.5848 213.872 84.1968 214.488 83.7808 215.072C83.3648 215.648 82.9368 216.156 82.4968 216.596C82.4648 216.508 82.4128 216.392 82.3408 216.248C82.2688 216.104 82.1928 215.96 82.1128 215.816C82.0328 215.664 81.9568 215.544 81.8848 215.456C82.2768 215.088 82.6568 214.664 83.0248 214.184C83.3928 213.696 83.7328 213.172 84.0448 212.612C84.3568 212.052 84.6208 211.48 84.8368 210.896ZM83.5648 214.112L84.6328 213.032L84.6448 213.044V221.996H83.5648V214.112Z" fill="#1E2939"/>
<rect y="233" width="120" height="40" fill="#FF6900"/>
<path d="M138.358 267.5V263.068L148.713 253.48C149.594 252.628 150.332 251.861 150.929 251.179C151.535 250.497 151.994 249.83 152.307 249.176C152.619 248.513 152.776 247.798 152.776 247.031C152.776 246.179 152.581 245.445 152.193 244.83C151.805 244.205 151.275 243.726 150.602 243.395C149.93 243.054 149.168 242.884 148.315 242.884C147.425 242.884 146.649 243.063 145.986 243.423C145.323 243.783 144.812 244.299 144.452 244.972C144.092 245.644 143.912 246.444 143.912 247.372H138.074C138.074 245.469 138.505 243.816 139.366 242.415C140.228 241.013 141.436 239.929 142.989 239.162C144.542 238.395 146.331 238.011 148.358 238.011C150.441 238.011 152.255 238.381 153.798 239.119C155.351 239.848 156.559 240.862 157.42 242.159C158.282 243.456 158.713 244.943 158.713 246.619C158.713 247.718 158.495 248.802 158.06 249.872C157.634 250.942 156.871 252.131 155.773 253.438C154.674 254.735 153.126 256.293 151.128 258.111L146.881 262.273V262.472H159.097V267.5H138.358ZM174.96 268.139C172.516 268.13 170.414 267.528 168.653 266.335C166.901 265.142 165.551 263.414 164.604 261.151C163.667 258.887 163.203 256.165 163.212 252.983C163.212 249.811 163.681 247.107 164.619 244.872C165.566 242.637 166.915 240.937 168.667 239.773C170.428 238.598 172.526 238.011 174.96 238.011C177.393 238.011 179.486 238.598 181.238 239.773C182.999 240.947 184.353 242.652 185.3 244.886C186.247 247.112 186.716 249.811 186.707 252.983C186.707 256.174 186.233 258.902 185.286 261.165C184.349 263.428 183.004 265.156 181.252 266.349C179.5 267.543 177.403 268.139 174.96 268.139ZM174.96 263.04C176.626 263.04 177.957 262.202 178.951 260.526C179.945 258.849 180.438 256.335 180.428 252.983C180.428 250.777 180.201 248.939 179.746 247.472C179.301 246.004 178.667 244.901 177.843 244.162C177.029 243.423 176.067 243.054 174.96 243.054C173.302 243.054 171.977 243.883 170.982 245.54C169.988 247.197 169.486 249.678 169.477 252.983C169.477 255.218 169.699 257.083 170.144 258.58C170.599 260.066 171.238 261.184 172.062 261.932C172.886 262.67 173.852 263.04 174.96 263.04Z" fill="#FF6900"/>
<path d="M196.047 265.318V264.705C196.047 264.239 196.145 263.811 196.342 263.42C196.543 263.027 196.833 262.712 197.212 262.477C197.594 262.239 198.06 262.119 198.609 262.119C199.166 262.119 199.634 262.237 200.013 262.472C200.395 262.706 200.683 263.021 200.876 263.415C201.073 263.805 201.172 264.235 201.172 264.705V265.318C201.172 265.784 201.073 266.214 200.876 266.608C200.679 266.998 200.39 267.311 200.007 267.545C199.625 267.784 199.159 267.903 198.609 267.903C198.053 267.903 197.585 267.784 197.206 267.545C196.827 267.311 196.539 266.998 196.342 266.608C196.145 266.214 196.047 265.784 196.047 265.318ZM197.7 264.705V265.318C197.7 265.587 197.765 265.841 197.893 266.08C198.026 266.318 198.265 266.438 198.609 266.438C198.954 266.438 199.189 266.32 199.314 266.085C199.443 265.85 199.507 265.595 199.507 265.318V264.705C199.507 264.428 199.446 264.17 199.325 263.932C199.204 263.693 198.965 263.574 198.609 263.574C198.268 263.574 198.032 263.693 197.899 263.932C197.767 264.17 197.7 264.428 197.7 264.705ZM190.075 258.659V258.045C190.075 257.576 190.176 257.146 190.376 256.756C190.577 256.362 190.867 256.047 191.246 255.812C191.628 255.578 192.09 255.46 192.632 255.46C193.193 255.46 193.662 255.578 194.041 255.812C194.42 256.047 194.708 256.362 194.905 256.756C195.102 257.146 195.2 257.576 195.2 258.045V258.659C195.2 259.129 195.1 259.559 194.899 259.949C194.702 260.339 194.412 260.652 194.03 260.886C193.651 261.117 193.185 261.233 192.632 261.233C192.079 261.233 191.611 261.116 191.229 260.881C190.85 260.642 190.562 260.33 190.365 259.943C190.172 259.553 190.075 259.125 190.075 258.659ZM191.74 258.045V258.659C191.74 258.936 191.804 259.191 191.933 259.426C192.066 259.661 192.299 259.778 192.632 259.778C192.981 259.778 193.217 259.661 193.342 259.426C193.471 259.191 193.536 258.936 193.536 258.659V258.045C193.536 257.769 193.475 257.511 193.354 257.273C193.232 257.034 192.992 256.915 192.632 256.915C192.295 256.915 192.062 257.036 191.933 257.278C191.804 257.521 191.74 257.777 191.74 258.045ZM190.825 267.5L198.825 255.864H200.314L192.314 267.5H190.825Z" fill="#1E2939"/>
</svg>
