<svg width="411" height="287" viewBox="0 0 411 287" fill="none" xmlns="http://www.w3.org/2000/svg">
<path d="M87.93 4.746H99.228V6.398H87.93V4.746ZM88.672 8.834H98.57V10.458H88.672V8.834ZM87.328 13.16H99.928V14.812H87.328V13.16ZM92.676 6.174H94.524V14.042H92.676V6.174ZM91.43 3.052L92.83 2.086C93.1287 2.27267 93.446 2.492 93.782 2.744C94.1273 2.996 94.454 3.248 94.762 3.5C95.0793 3.752 95.336 3.99 95.532 4.214L94.034 5.292C93.866 5.07733 93.6327 4.83933 93.334 4.578C93.0447 4.30733 92.732 4.04133 92.396 3.78C92.06 3.50933 91.738 3.26667 91.43 3.052ZM102.322 4.83C102.621 4.86733 102.938 4.89533 103.274 4.914C103.619 4.92333 103.923 4.928 104.184 4.928C104.763 4.928 105.346 4.89533 105.934 4.83C106.531 4.76467 107.105 4.68067 107.656 4.578C108.207 4.466 108.706 4.34 109.154 4.2L109.21 5.824C108.809 5.92667 108.328 6.034 107.768 6.146C107.217 6.24867 106.634 6.33733 106.018 6.412C105.402 6.47733 104.795 6.51 104.198 6.51C103.918 6.51 103.633 6.50533 103.344 6.496C103.055 6.48667 102.756 6.47267 102.448 6.454L102.322 4.83ZM107.768 2.73C107.712 2.96333 107.637 3.26667 107.544 3.64C107.451 4.01333 107.343 4.40533 107.222 4.816C107.11 5.22667 106.989 5.63267 106.858 6.034C106.653 6.706 106.382 7.42 106.046 8.176C105.71 8.932 105.346 9.66933 104.954 10.388C104.562 11.1067 104.165 11.746 103.764 12.306L102.07 11.438C102.387 11.046 102.7 10.612 103.008 10.136C103.316 9.66 103.605 9.17 103.876 8.666C104.147 8.162 104.389 7.67667 104.604 7.21C104.828 6.734 105.005 6.30467 105.136 5.922C105.313 5.42733 105.467 4.87667 105.598 4.27C105.738 3.654 105.817 3.07533 105.836 2.534L107.768 2.73ZM111.044 7.084C111.025 7.38267 111.016 7.68133 111.016 7.98C111.025 8.26933 111.035 8.568 111.044 8.876C111.053 9.09067 111.063 9.366 111.072 9.702C111.091 10.0287 111.109 10.3787 111.128 10.752C111.147 11.116 111.161 11.466 111.17 11.802C111.189 12.1287 111.198 12.39 111.198 12.586C111.198 13.0153 111.109 13.4073 110.932 13.762C110.755 14.1073 110.47 14.3827 110.078 14.588C109.695 14.7933 109.168 14.896 108.496 14.896C107.917 14.896 107.395 14.8073 106.928 14.63C106.461 14.462 106.088 14.21 105.808 13.874C105.528 13.5287 105.388 13.0993 105.388 12.586C105.388 12.1287 105.509 11.718 105.752 11.354C105.995 10.9807 106.345 10.6913 106.802 10.486C107.269 10.2713 107.829 10.164 108.482 10.164C109.303 10.164 110.059 10.2807 110.75 10.514C111.441 10.738 112.061 11.0273 112.612 11.382C113.163 11.7367 113.634 12.0913 114.026 12.446L113.088 13.944C112.836 13.72 112.547 13.468 112.22 13.188C111.903 12.908 111.543 12.6467 111.142 12.404C110.75 12.1613 110.321 11.9607 109.854 11.802C109.397 11.6433 108.902 11.564 108.37 11.564C107.969 11.564 107.647 11.6433 107.404 11.802C107.161 11.9607 107.04 12.166 107.04 12.418C107.04 12.6793 107.143 12.8893 107.348 13.048C107.563 13.2067 107.861 13.286 108.244 13.286C108.561 13.286 108.813 13.2347 109 13.132C109.187 13.02 109.317 12.866 109.392 12.67C109.467 12.4647 109.504 12.236 109.504 11.984C109.504 11.7693 109.495 11.466 109.476 11.074C109.457 10.682 109.434 10.248 109.406 9.772C109.387 9.296 109.369 8.82 109.35 8.344C109.331 7.868 109.313 7.448 109.294 7.084H111.044ZM113.452 7.826C113.181 7.602 112.845 7.364 112.444 7.112C112.043 6.86 111.627 6.622 111.198 6.398C110.778 6.16467 110.409 5.978 110.092 5.838L110.988 4.452C111.24 4.564 111.525 4.704 111.842 4.872C112.169 5.03067 112.495 5.19867 112.822 5.376C113.158 5.55333 113.466 5.73067 113.746 5.908C114.035 6.076 114.269 6.22533 114.446 6.356L113.452 7.826ZM121.628 2.758H127.62V4.2H121.628V2.758ZM122.146 10.276H128.684V11.746H122.146V10.276ZM121.306 13.398H129.272V14.868H121.306V13.398ZM127.144 2.758H127.452L127.76 2.688L128.88 3.178C128.516 4.27933 128.003 5.23133 127.34 6.034C126.677 6.83667 125.903 7.50867 125.016 8.05C124.129 8.582 123.159 9.01133 122.104 9.338C122.011 9.13267 121.871 8.89467 121.684 8.624C121.507 8.344 121.339 8.11533 121.18 7.938C122.123 7.69533 122.991 7.35 123.784 6.902C124.587 6.44467 125.277 5.88933 125.856 5.236C126.444 4.58267 126.873 3.84067 127.144 3.01V2.758ZM123.798 4.018C124.283 4.97 125.016 5.78667 125.996 6.468C126.985 7.14 128.143 7.62067 129.468 7.91C129.3 8.06867 129.113 8.28333 128.908 8.554C128.712 8.82467 128.558 9.06267 128.446 9.268C127.037 8.88533 125.819 8.29267 124.792 7.49C123.775 6.68733 122.958 5.68867 122.342 4.494L123.798 4.018ZM124.526 8.596H126.178V14.336H124.526V8.596ZM118.24 2.114L119.696 2.66C119.509 3.01467 119.313 3.38333 119.108 3.766C118.903 4.14867 118.702 4.51267 118.506 4.858C118.31 5.20333 118.123 5.502 117.946 5.754L116.826 5.278C116.994 4.98867 117.167 4.662 117.344 4.298C117.521 3.934 117.689 3.56067 117.848 3.178C118.007 2.79533 118.137 2.44067 118.24 2.114ZM119.85 3.78L121.222 4.396C120.886 4.928 120.517 5.488 120.116 6.076C119.715 6.65467 119.313 7.21467 118.912 7.756C118.511 8.288 118.133 8.75467 117.778 9.156L116.798 8.61C117.059 8.29267 117.33 7.938 117.61 7.546C117.89 7.14467 118.165 6.72933 118.436 6.3C118.716 5.86133 118.977 5.42733 119.22 4.998C119.463 4.55933 119.673 4.15333 119.85 3.78ZM116.084 5.432L116.896 4.284C117.139 4.49867 117.386 4.73667 117.638 4.998C117.899 5.25 118.137 5.50667 118.352 5.768C118.576 6.02 118.744 6.24867 118.856 6.454L118.002 7.756C117.89 7.532 117.727 7.28467 117.512 7.014C117.307 6.74333 117.078 6.468 116.826 6.188C116.574 5.908 116.327 5.656 116.084 5.432ZM119.444 7.112L120.55 6.65C120.727 6.96733 120.9 7.308 121.068 7.672C121.245 8.02667 121.395 8.37667 121.516 8.722C121.647 9.058 121.735 9.36133 121.782 9.632L120.592 10.164C120.545 9.89333 120.461 9.58533 120.34 9.24C120.228 8.88533 120.093 8.52133 119.934 8.148C119.775 7.77467 119.612 7.42933 119.444 7.112ZM116.07 8.274C116.714 8.25533 117.484 8.22733 118.38 8.19C119.276 8.15267 120.186 8.11533 121.11 8.078L121.096 9.408C120.228 9.47333 119.365 9.534 118.506 9.59C117.657 9.646 116.891 9.69733 116.21 9.744L116.07 8.274ZM119.738 10.598L120.914 10.22C121.091 10.6213 121.259 11.06 121.418 11.536C121.586 12.0027 121.712 12.4133 121.796 12.768L120.55 13.216C120.485 12.8613 120.373 12.4413 120.214 11.956C120.055 11.4613 119.897 11.0087 119.738 10.598ZM116.686 10.332L118.072 10.584C117.997 11.256 117.885 11.9187 117.736 12.572C117.587 13.2253 117.414 13.776 117.218 14.224C117.125 14.1587 116.999 14.084 116.84 14C116.681 13.9253 116.518 13.8507 116.35 13.776C116.191 13.7013 116.051 13.6453 115.93 13.608C116.135 13.188 116.299 12.6887 116.42 12.11C116.541 11.522 116.63 10.9293 116.686 10.332ZM118.254 9.016H119.724V15.26H118.254V9.016ZM138.428 8.82V10.108H142.012V8.82H138.428ZM137.056 7.602H143.44V11.326H137.056V7.602ZM140.108 3.57C139.903 3.94333 139.637 4.33533 139.31 4.746C138.983 5.15667 138.615 5.54867 138.204 5.922C137.803 6.29533 137.378 6.622 136.93 6.902C136.855 6.69667 136.743 6.46333 136.594 6.202C136.445 5.93133 136.3 5.712 136.16 5.544C136.608 5.292 137.033 4.97467 137.434 4.592C137.845 4.20933 138.213 3.80333 138.54 3.374C138.867 2.93533 139.128 2.51533 139.324 2.114H140.794C141.065 2.534 141.377 2.954 141.732 3.374C142.087 3.78467 142.465 4.158 142.866 4.494C143.267 4.82067 143.673 5.08667 144.084 5.292C143.935 5.47867 143.781 5.712 143.622 5.992C143.473 6.26267 143.347 6.51 143.244 6.734C142.843 6.49133 142.446 6.19733 142.054 5.852C141.662 5.49733 141.298 5.124 140.962 4.732C140.626 4.34 140.341 3.95267 140.108 3.57ZM139.45 6.132H140.934V8.876C140.934 9.436 140.892 10.01 140.808 10.598C140.733 11.1767 140.565 11.7507 140.304 12.32C140.052 12.88 139.679 13.412 139.184 13.916C138.689 14.42 138.027 14.8773 137.196 15.288C137.121 15.1667 137.023 15.0313 136.902 14.882C136.79 14.742 136.669 14.5973 136.538 14.448C136.407 14.308 136.286 14.196 136.174 14.112C136.911 13.7667 137.495 13.3887 137.924 12.978C138.363 12.558 138.689 12.1193 138.904 11.662C139.128 11.1953 139.273 10.724 139.338 10.248C139.413 9.772 139.45 9.30533 139.45 8.848V6.132ZM141.074 10.598C141.326 11.326 141.699 11.9887 142.194 12.586C142.698 13.174 143.309 13.6173 144.028 13.916C143.907 14.0187 143.776 14.1447 143.636 14.294C143.505 14.4527 143.379 14.616 143.258 14.784C143.137 14.952 143.034 15.106 142.95 15.246C142.166 14.826 141.517 14.238 141.004 13.482C140.5 12.726 140.099 11.872 139.8 10.92L141.074 10.598ZM138.022 5.558H142.348V6.86H138.022V5.558ZM132.17 4.746H136.258V6.02H132.17V4.746ZM132.17 6.874H136.258V8.134H132.17V6.874ZM131.372 9.002H136.174V10.304H131.372V9.002ZM133.71 3.416H135.04V9.716H133.71V3.416ZM134.172 10.934L134.83 10.724C134.97 10.9947 135.101 11.298 135.222 11.634C135.353 11.97 135.441 12.2593 135.488 12.502L134.802 12.754C134.755 12.5113 134.671 12.2173 134.55 11.872C134.438 11.5267 134.312 11.214 134.172 10.934ZM133.262 11.13L133.976 11.004C134.097 11.3587 134.2 11.7507 134.284 12.18C134.368 12.6 134.419 12.9593 134.438 13.258L133.696 13.412C133.677 13.104 133.626 12.74 133.542 12.32C133.467 11.8907 133.374 11.494 133.262 11.13ZM132.296 11.2L133.024 11.13C133.099 11.5407 133.145 11.9887 133.164 12.474C133.183 12.95 133.187 13.3607 133.178 13.706L132.408 13.818C132.436 13.4633 132.436 13.0433 132.408 12.558C132.389 12.0727 132.352 11.62 132.296 11.2ZM131.26 10.906L132.184 11.088C132.165 11.5173 132.128 11.942 132.072 12.362C132.025 12.782 131.946 13.174 131.834 13.538C131.731 13.8927 131.587 14.2007 131.4 14.462L130.546 14C130.714 13.7573 130.845 13.4773 130.938 13.16C131.031 12.8333 131.101 12.4787 131.148 12.096C131.204 11.704 131.241 11.3073 131.26 10.906ZM131.372 2.632H136.538V3.99H132.758V9.898H131.372V2.632ZM135.446 9.002H136.818C136.818 9.002 136.818 9.072 136.818 9.212C136.818 9.352 136.813 9.46867 136.804 9.562C136.767 10.6913 136.72 11.606 136.664 12.306C136.608 13.006 136.543 13.5473 136.468 13.93C136.393 14.3033 136.3 14.56 136.188 14.7C136.076 14.8587 135.955 14.9707 135.824 15.036C135.693 15.1107 135.539 15.162 135.362 15.19C135.222 15.218 135.04 15.232 134.816 15.232C134.601 15.2413 134.373 15.2413 134.13 15.232C134.121 15.0267 134.083 14.8027 134.018 14.56C133.953 14.3173 133.869 14.1073 133.766 13.93C133.953 13.9487 134.121 13.9627 134.27 13.972C134.419 13.9813 134.541 13.986 134.634 13.986C134.709 13.986 134.774 13.972 134.83 13.944C134.886 13.916 134.942 13.8693 134.998 13.804C135.073 13.7107 135.133 13.51 135.18 13.202C135.236 12.894 135.283 12.4227 135.32 11.788C135.367 11.1533 135.409 10.304 135.446 9.24V9.002ZM150.93 2.1H152.638V13.65C152.638 14.0607 152.582 14.3687 152.47 14.574C152.358 14.7793 152.167 14.9427 151.896 15.064C151.625 15.1667 151.289 15.232 150.888 15.26C150.496 15.288 150.001 15.302 149.404 15.302C149.367 15.106 149.292 14.8773 149.18 14.616C149.068 14.364 148.956 14.1493 148.844 13.972C149.077 13.9813 149.311 13.9907 149.544 14C149.777 14 149.987 14 150.174 14C150.37 14 150.505 14 150.58 14C150.711 13.9907 150.799 13.9627 150.846 13.916C150.902 13.8693 150.93 13.7807 150.93 13.65V2.1ZM145.694 3.024H158.014V4.34H145.694V3.024ZM148.732 5.978V6.636H154.906V5.978H148.732ZM147.122 4.914H156.628V7.7H147.122V4.914ZM146.786 8.33H156.866V13.804H155.158V9.464H146.786V8.33ZM145.372 10.066H158.336V11.34H145.372V10.066ZM146.674 11.984H156.082V13.202H146.674V11.984ZM160.184 10.668H172.672V12.054H160.184V10.668ZM160.226 4.396H172.63V5.768H160.226V4.396ZM160.8 6.902H172.084V8.218H160.8V6.902ZM161.486 8.834H171.44V10.052H161.486V8.834ZM165.546 7.56H167.212V15.26H165.546V7.56ZM164.328 2.086H165.896V5.054H164.328V2.086ZM166.932 2.086H168.514V4.956H166.932V2.086ZM165.238 11.284L166.568 11.886C166.129 12.3713 165.597 12.824 164.972 13.244C164.356 13.6547 163.693 14.014 162.984 14.322C162.275 14.6393 161.561 14.896 160.842 15.092C160.767 14.952 160.665 14.7933 160.534 14.616C160.413 14.448 160.282 14.28 160.142 14.112C160.011 13.944 159.885 13.804 159.764 13.692C160.464 13.5427 161.159 13.3513 161.85 13.118C162.55 12.8847 163.194 12.6093 163.782 12.292C164.37 11.9747 164.855 11.6387 165.238 11.284ZM167.548 11.242C167.837 11.522 168.183 11.788 168.584 12.04C168.985 12.2827 169.424 12.5067 169.9 12.712C170.385 12.908 170.894 13.0807 171.426 13.23C171.967 13.3793 172.513 13.496 173.064 13.58C172.933 13.7107 172.793 13.86 172.644 14.028C172.504 14.2053 172.369 14.3873 172.238 14.574C172.117 14.77 172.014 14.9473 171.93 15.106C171.37 14.966 170.819 14.784 170.278 14.56C169.746 14.3453 169.237 14.098 168.752 13.818C168.267 13.538 167.809 13.2253 167.38 12.88C166.951 12.5347 166.573 12.166 166.246 11.774L167.548 11.242ZM170.152 2.212L171.902 2.632C171.687 3.01467 171.468 3.388 171.244 3.752C171.02 4.10667 170.815 4.41 170.628 4.662L169.256 4.242C169.368 4.05533 169.48 3.84533 169.592 3.612C169.704 3.36933 169.807 3.12667 169.9 2.884C170.003 2.632 170.087 2.408 170.152 2.212ZM168.304 5.208L170.082 5.628C169.886 5.95467 169.699 6.272 169.522 6.58C169.345 6.87867 169.186 7.13533 169.046 7.35L167.618 6.958C167.739 6.69667 167.865 6.40733 167.996 6.09C168.127 5.76333 168.229 5.46933 168.304 5.208ZM161.22 2.66L162.662 2.17C162.867 2.45933 163.073 2.79533 163.278 3.178C163.483 3.55133 163.633 3.87333 163.726 4.144L162.214 4.704C162.139 4.424 162.004 4.09267 161.808 3.71C161.612 3.32733 161.416 2.97733 161.22 2.66ZM162.998 5.796L164.636 5.53C164.757 5.726 164.874 5.95 164.986 6.202C165.107 6.44467 165.196 6.65933 165.252 6.846L163.544 7.14C163.497 6.96267 163.423 6.74333 163.32 6.482C163.217 6.22067 163.11 5.992 162.998 5.796Z" fill="#4A5565"/>
<path d="M260 155C260 226.797 201.797 285 130 285C58.203 285 0 226.797 0 155C0 83.203 58.203 25 130 25C201.797 25 260 83.203 260 155ZM32.5 155C32.5 208.848 76.1522 252.5 130 252.5C183.848 252.5 227.5 208.848 227.5 155C227.5 101.152 183.848 57.5 130 57.5C76.1522 57.5 32.5 101.152 32.5 155Z" fill="#00BC7D"/>
<path d="M260 155C260 175.515 255.145 195.739 245.831 214.019C236.517 232.298 223.009 248.114 206.412 260.172L187.309 233.879C199.757 224.835 209.888 212.974 216.873 199.264C223.858 185.555 227.5 170.387 227.5 155H260Z" fill="#2B7FFF"/>
<path d="M206.412 260.172C189.815 272.231 170.599 280.19 150.336 283.399C130.074 286.609 109.339 284.977 89.8278 278.637L99.8708 247.728C114.504 252.483 130.055 253.707 145.252 251.3C160.449 248.893 174.861 242.923 187.309 233.879L206.412 260.172Z" fill="#FF6900"/>
<path d="M116.282 112.692C116.233 112.205 116.026 111.827 115.66 111.557C115.294 111.288 114.797 111.153 114.169 111.153C113.742 111.153 113.382 111.213 113.088 111.334C112.794 111.451 112.569 111.614 112.412 111.823C112.259 112.032 112.183 112.27 112.183 112.535C112.174 112.757 112.221 112.95 112.321 113.115C112.426 113.28 112.569 113.423 112.75 113.543C112.931 113.66 113.14 113.763 113.378 113.851C113.615 113.936 113.869 114.008 114.138 114.069L115.249 114.334C115.789 114.455 116.284 114.616 116.734 114.817C117.185 115.018 117.576 115.266 117.906 115.56C118.236 115.853 118.491 116.2 118.672 116.598C118.857 116.996 118.952 117.453 118.956 117.968C118.952 118.725 118.759 119.381 118.376 119.936C117.998 120.488 117.451 120.916 116.734 121.222C116.022 121.524 115.163 121.675 114.157 121.675C113.158 121.675 112.289 121.522 111.549 121.216C110.812 120.91 110.237 120.458 109.822 119.858C109.412 119.254 109.196 118.508 109.176 117.618H111.706C111.734 118.033 111.853 118.379 112.062 118.657C112.275 118.93 112.559 119.138 112.913 119.278C113.271 119.415 113.676 119.484 114.126 119.484C114.569 119.484 114.953 119.419 115.279 119.29C115.609 119.162 115.865 118.983 116.046 118.753C116.227 118.524 116.318 118.26 116.318 117.962C116.318 117.685 116.235 117.451 116.07 117.262C115.909 117.073 115.672 116.912 115.358 116.779C115.048 116.646 114.668 116.526 114.217 116.417L112.871 116.079C111.828 115.825 111.005 115.429 110.402 114.89C109.798 114.35 109.498 113.624 109.502 112.71C109.498 111.962 109.697 111.308 110.1 110.748C110.506 110.189 111.064 109.752 111.772 109.438C112.48 109.124 113.285 108.967 114.187 108.967C115.104 108.967 115.905 109.124 116.589 109.438C117.278 109.752 117.813 110.189 118.195 110.748C118.578 111.308 118.775 111.956 118.787 112.692H116.282ZM123.31 121.675C122.718 121.675 122.191 121.572 121.728 121.367C121.266 121.158 120.899 120.85 120.63 120.444C120.364 120.033 120.231 119.522 120.231 118.91C120.231 118.395 120.326 117.962 120.515 117.612C120.704 117.262 120.962 116.98 121.288 116.767C121.614 116.554 121.984 116.393 122.399 116.284C122.817 116.175 123.256 116.099 123.715 116.055C124.254 115.998 124.689 115.946 125.019 115.898C125.349 115.845 125.588 115.769 125.737 115.668C125.886 115.568 125.96 115.419 125.96 115.222V115.185C125.96 114.803 125.84 114.507 125.598 114.298C125.361 114.089 125.023 113.984 124.584 113.984C124.121 113.984 123.753 114.087 123.479 114.292C123.205 114.493 123.024 114.747 122.936 115.053L120.557 114.859C120.678 114.296 120.915 113.809 121.27 113.398C121.624 112.984 122.081 112.666 122.64 112.445C123.203 112.219 123.855 112.107 124.596 112.107C125.111 112.107 125.604 112.167 126.075 112.288C126.55 112.408 126.97 112.596 127.337 112.849C127.707 113.103 127.999 113.429 128.212 113.827C128.425 114.221 128.532 114.694 128.532 115.246V121.5H126.093V120.214H126.021C125.872 120.504 125.673 120.759 125.423 120.981C125.174 121.198 124.874 121.369 124.524 121.494C124.173 121.615 123.769 121.675 123.31 121.675ZM124.047 119.9C124.425 119.9 124.759 119.826 125.049 119.677C125.339 119.524 125.566 119.319 125.731 119.061C125.896 118.804 125.978 118.512 125.978 118.186V117.202C125.898 117.254 125.787 117.302 125.646 117.347C125.51 117.387 125.355 117.425 125.182 117.461C125.008 117.493 124.835 117.524 124.662 117.552C124.489 117.576 124.332 117.598 124.191 117.618C123.89 117.663 123.626 117.733 123.401 117.83C123.175 117.926 123 118.057 122.875 118.222C122.751 118.383 122.688 118.584 122.688 118.826C122.688 119.176 122.815 119.443 123.069 119.629C123.326 119.81 123.652 119.9 124.047 119.9ZM133.171 121.675C132.58 121.675 132.053 121.572 131.59 121.367C131.127 121.158 130.761 120.85 130.491 120.444C130.225 120.033 130.093 119.522 130.093 118.91C130.093 118.395 130.187 117.962 130.376 117.612C130.565 117.262 130.823 116.98 131.149 116.767C131.475 116.554 131.845 116.393 132.26 116.284C132.678 116.175 133.117 116.099 133.576 116.055C134.115 115.998 134.55 115.946 134.88 115.898C135.21 115.845 135.449 115.769 135.598 115.668C135.747 115.568 135.822 115.419 135.822 115.222V115.185C135.822 114.803 135.701 114.507 135.459 114.298C135.222 114.089 134.884 113.984 134.445 113.984C133.982 113.984 133.614 114.087 133.34 114.292C133.067 114.493 132.886 114.747 132.797 115.053L130.419 114.859C130.539 114.296 130.777 113.809 131.131 113.398C131.485 112.984 131.942 112.666 132.501 112.445C133.065 112.219 133.717 112.107 134.457 112.107C134.972 112.107 135.465 112.167 135.936 112.288C136.411 112.408 136.832 112.596 137.198 112.849C137.568 113.103 137.86 113.429 138.073 113.827C138.287 114.221 138.393 114.694 138.393 115.246V121.5H135.954V120.214H135.882C135.733 120.504 135.534 120.759 135.284 120.981C135.035 121.198 134.735 121.369 134.385 121.494C134.035 121.615 133.63 121.675 133.171 121.675ZM133.908 119.9C134.286 119.9 134.62 119.826 134.91 119.677C135.2 119.524 135.427 119.319 135.592 119.061C135.757 118.804 135.84 118.512 135.84 118.186V117.202C135.759 117.254 135.649 117.302 135.508 117.347C135.371 117.387 135.216 117.425 135.043 117.461C134.87 117.493 134.697 117.524 134.524 117.552C134.351 117.576 134.194 117.598 134.053 117.618C133.751 117.663 133.487 117.733 133.262 117.83C133.037 117.926 132.862 118.057 132.737 118.222C132.612 118.383 132.55 118.584 132.55 118.826C132.55 119.176 132.676 119.443 132.93 119.629C133.188 119.81 133.514 119.9 133.908 119.9ZM147.144 112.692C147.096 112.205 146.888 111.827 146.522 111.557C146.156 111.288 145.659 111.153 145.031 111.153C144.604 111.153 144.244 111.213 143.95 111.334C143.657 111.451 143.431 111.614 143.274 111.823C143.121 112.032 143.045 112.27 143.045 112.535C143.037 112.757 143.083 112.95 143.184 113.115C143.288 113.28 143.431 113.423 143.612 113.543C143.793 113.66 144.003 113.763 144.24 113.851C144.478 113.936 144.731 114.008 145.001 114.069L146.112 114.334C146.651 114.455 147.146 114.616 147.597 114.817C148.047 115.018 148.438 115.266 148.768 115.56C149.098 115.853 149.353 116.2 149.535 116.598C149.72 116.996 149.814 117.453 149.818 117.968C149.814 118.725 149.621 119.381 149.239 119.936C148.86 120.488 148.313 120.916 147.597 121.222C146.884 121.524 146.025 121.675 145.019 121.675C144.021 121.675 143.151 121.522 142.411 121.216C141.674 120.91 141.099 120.458 140.684 119.858C140.274 119.254 140.059 118.508 140.038 117.618H142.568C142.596 118.033 142.715 118.379 142.924 118.657C143.137 118.93 143.421 119.138 143.775 119.278C144.133 119.415 144.538 119.484 144.989 119.484C145.431 119.484 145.816 119.419 146.142 119.29C146.472 119.162 146.727 118.983 146.908 118.753C147.09 118.524 147.18 118.26 147.18 117.962C147.18 117.685 147.098 117.451 146.933 117.262C146.772 117.073 146.534 116.912 146.22 116.779C145.91 116.646 145.53 116.526 145.079 116.417L143.733 116.079C142.691 115.825 141.868 115.429 141.264 114.89C140.66 114.35 140.36 113.624 140.364 112.71C140.36 111.962 140.56 111.308 140.962 110.748C141.369 110.189 141.926 109.752 142.634 109.438C143.343 109.124 144.148 108.967 145.049 108.967C145.967 108.967 146.768 109.124 147.452 109.438C148.14 109.752 148.675 110.189 149.058 110.748C149.44 111.308 149.637 111.956 149.649 112.692H147.144Z" fill="#1E2939"/>
<path d="M91.3153 193.5L113.023 150.545V150.188H87.7358V141.136H124.477V150.315L102.744 193.5H91.3153ZM151.471 194.651C147.073 194.634 143.289 193.551 140.119 191.403C136.965 189.256 134.536 186.145 132.832 182.071C131.144 177.997 130.309 173.097 130.326 167.369C130.326 161.659 131.17 156.793 132.857 152.77C134.562 148.747 136.991 145.687 140.144 143.591C143.315 141.477 147.09 140.42 151.471 140.42C155.852 140.42 159.619 141.477 162.772 143.591C165.942 145.705 168.38 148.773 170.085 152.795C171.789 156.801 172.633 161.659 172.616 167.369C172.616 173.114 171.763 178.023 170.059 182.097C168.371 186.17 165.951 189.281 162.798 191.429C159.644 193.577 155.869 194.651 151.471 194.651ZM151.471 185.472C154.471 185.472 156.866 183.963 158.656 180.946C160.445 177.929 161.332 173.403 161.315 167.369C161.315 163.398 160.906 160.091 160.087 157.449C159.286 154.807 158.144 152.821 156.661 151.491C155.195 150.162 153.465 149.497 151.471 149.497C148.488 149.497 146.102 150.989 144.312 153.972C142.522 156.955 141.619 161.42 141.602 167.369C141.602 171.392 142.002 174.75 142.803 177.443C143.621 180.119 144.772 182.131 146.255 183.477C147.738 184.807 149.477 185.472 151.471 185.472Z" fill="#00BC7D"/>
<path d="M183.578 191.318V190.705C183.578 190.239 183.677 189.811 183.874 189.42C184.074 189.027 184.364 188.712 184.743 188.477C185.125 188.239 185.591 188.119 186.141 188.119C186.697 188.119 187.165 188.237 187.544 188.472C187.927 188.706 188.214 189.021 188.408 189.415C188.605 189.805 188.703 190.235 188.703 190.705V191.318C188.703 191.784 188.605 192.214 188.408 192.608C188.211 192.998 187.921 193.311 187.538 193.545C187.156 193.784 186.69 193.903 186.141 193.903C185.584 193.903 185.116 193.784 184.737 193.545C184.358 193.311 184.071 192.998 183.874 192.608C183.677 192.214 183.578 191.784 183.578 191.318ZM185.232 190.705V191.318C185.232 191.587 185.296 191.841 185.425 192.08C185.557 192.318 185.796 192.438 186.141 192.438C186.485 192.438 186.72 192.32 186.845 192.085C186.974 191.85 187.038 191.595 187.038 191.318V190.705C187.038 190.428 186.978 190.17 186.857 189.932C186.735 189.693 186.497 189.574 186.141 189.574C185.8 189.574 185.563 189.693 185.43 189.932C185.298 190.17 185.232 190.428 185.232 190.705ZM177.607 184.659V184.045C177.607 183.576 177.707 183.146 177.908 182.756C178.108 182.362 178.398 182.047 178.777 181.812C179.16 181.578 179.622 181.46 180.163 181.46C180.724 181.46 181.194 181.578 181.572 181.812C181.951 182.047 182.239 182.362 182.436 182.756C182.633 183.146 182.732 183.576 182.732 184.045V184.659C182.732 185.129 182.631 185.559 182.43 185.949C182.233 186.339 181.944 186.652 181.561 186.886C181.182 187.117 180.716 187.233 180.163 187.233C179.61 187.233 179.143 187.116 178.76 186.881C178.381 186.642 178.093 186.33 177.896 185.943C177.703 185.553 177.607 185.125 177.607 184.659ZM179.271 184.045V184.659C179.271 184.936 179.336 185.191 179.464 185.426C179.597 185.661 179.83 185.778 180.163 185.778C180.512 185.778 180.749 185.661 180.874 185.426C181.002 185.191 181.067 184.936 181.067 184.659V184.045C181.067 183.769 181.006 183.511 180.885 183.273C180.764 183.034 180.523 182.915 180.163 182.915C179.826 182.915 179.593 183.036 179.464 183.278C179.336 183.521 179.271 183.777 179.271 184.045ZM178.357 193.5L186.357 181.864H187.845L179.845 193.5H178.357Z" fill="#1E2939"/>
<path d="M281.164 110V101.156H286.384V102.332H282.556V104.792H285.796V105.968H282.556V108.812H286.516V110H281.164ZM291.803 110.168C291.251 110.168 290.735 110.068 290.255 109.868C289.783 109.66 289.367 109.36 289.007 108.968C288.647 108.576 288.367 108.1 288.167 107.54C287.967 106.972 287.867 106.324 287.867 105.596C287.867 104.876 287.971 104.232 288.179 103.664C288.387 103.096 288.671 102.616 289.031 102.224C289.391 101.824 289.815 101.52 290.303 101.312C290.791 101.104 291.315 101 291.875 101C292.419 101 292.903 101.112 293.327 101.336C293.751 101.56 294.099 101.82 294.371 102.116L293.627 103.004C293.395 102.772 293.135 102.584 292.847 102.44C292.567 102.288 292.251 102.212 291.899 102.212C291.387 102.212 290.935 102.348 290.543 102.62C290.159 102.892 289.855 103.276 289.631 103.772C289.415 104.268 289.307 104.864 289.307 105.56C289.307 106.256 289.411 106.86 289.619 107.372C289.827 107.876 290.123 108.264 290.507 108.536C290.891 108.808 291.343 108.944 291.863 108.944C292.263 108.944 292.619 108.86 292.931 108.692C293.251 108.516 293.543 108.284 293.807 107.996L294.563 108.884C294.203 109.3 293.795 109.62 293.339 109.844C292.891 110.06 292.379 110.168 291.803 110.168ZM296.045 102.308C296.285 102.332 296.537 102.352 296.801 102.368C297.073 102.376 297.329 102.38 297.569 102.38C298.033 102.38 298.505 102.36 298.985 102.32C299.473 102.272 299.953 102.204 300.425 102.116C300.905 102.02 301.361 101.904 301.793 101.768L301.829 102.872C301.461 102.976 301.041 103.072 300.569 103.16C300.097 103.248 299.605 103.32 299.093 103.376C298.581 103.432 298.073 103.46 297.569 103.46C297.345 103.46 297.109 103.456 296.861 103.448C296.613 103.44 296.369 103.432 296.129 103.424L296.045 102.308ZM300.473 100.412C300.425 100.612 300.361 100.864 300.281 101.168C300.209 101.472 300.125 101.792 300.029 102.128C299.941 102.464 299.849 102.788 299.753 103.1C299.561 103.676 299.321 104.288 299.033 104.936C298.745 105.576 298.433 106.2 298.097 106.808C297.761 107.416 297.421 107.948 297.077 108.404L295.925 107.816C296.197 107.488 296.465 107.124 296.729 106.724C296.993 106.316 297.241 105.896 297.473 105.464C297.713 105.024 297.929 104.6 298.121 104.192C298.313 103.776 298.469 103.396 298.589 103.052C298.725 102.652 298.849 102.2 298.961 101.696C299.073 101.192 299.137 100.72 299.153 100.28L300.473 100.412ZM303.293 104.132C303.285 104.38 303.281 104.616 303.281 104.84C303.281 105.064 303.285 105.296 303.293 105.536C303.301 105.72 303.309 105.96 303.317 106.256C303.333 106.544 303.349 106.852 303.365 107.18C303.381 107.508 303.393 107.82 303.401 108.116C303.417 108.412 303.425 108.652 303.425 108.836C303.425 109.172 303.349 109.48 303.197 109.76C303.053 110.04 302.821 110.264 302.501 110.432C302.181 110.6 301.757 110.684 301.229 110.684C300.765 110.684 300.341 110.616 299.957 110.48C299.581 110.344 299.277 110.14 299.045 109.868C298.821 109.596 298.709 109.252 298.709 108.836C298.709 108.46 298.813 108.128 299.021 107.84C299.237 107.552 299.533 107.328 299.909 107.168C300.285 107 300.721 106.916 301.217 106.916C301.905 106.916 302.537 107.016 303.113 107.216C303.689 107.408 304.205 107.652 304.661 107.948C305.125 108.236 305.525 108.528 305.861 108.824L305.225 109.844C304.993 109.636 304.737 109.42 304.457 109.196C304.177 108.964 303.865 108.752 303.521 108.56C303.185 108.36 302.817 108.196 302.417 108.068C302.025 107.94 301.605 107.876 301.157 107.876C300.757 107.876 300.433 107.956 300.185 108.116C299.945 108.276 299.825 108.48 299.825 108.728C299.825 108.984 299.929 109.192 300.137 109.352C300.353 109.512 300.665 109.592 301.073 109.592C301.377 109.592 301.617 109.544 301.793 109.448C301.977 109.344 302.105 109.204 302.177 109.028C302.249 108.852 302.285 108.656 302.285 108.44C302.285 108.232 302.277 107.952 302.261 107.6C302.253 107.248 302.237 106.868 302.213 106.46C302.197 106.052 302.177 105.644 302.153 105.236C302.137 104.82 302.125 104.452 302.117 104.132H303.293ZM305.549 104.588C305.325 104.404 305.045 104.208 304.709 104C304.373 103.784 304.029 103.58 303.677 103.388C303.325 103.188 303.013 103.028 302.741 102.908L303.353 101.984C303.569 102.08 303.813 102.196 304.085 102.332C304.357 102.468 304.629 102.612 304.901 102.764C305.173 102.916 305.425 103.068 305.657 103.22C305.889 103.364 306.081 103.488 306.233 103.592L305.549 104.588ZM316.145 103.244C315.993 103.34 315.829 103.436 315.653 103.532C315.485 103.62 315.305 103.712 315.113 103.808C314.849 103.936 314.541 104.088 314.189 104.264C313.845 104.44 313.477 104.636 313.085 104.852C312.701 105.06 312.317 105.288 311.933 105.536C311.405 105.88 310.985 106.244 310.673 106.628C310.361 107.004 310.205 107.412 310.205 107.852C310.205 108.324 310.429 108.692 310.877 108.956C311.325 109.22 311.997 109.352 312.893 109.352C313.325 109.352 313.777 109.336 314.249 109.304C314.721 109.264 315.177 109.212 315.617 109.148C316.057 109.076 316.441 109.004 316.769 108.932L316.757 110.288C316.445 110.344 316.089 110.392 315.689 110.432C315.289 110.48 314.857 110.516 314.393 110.54C313.937 110.572 313.453 110.588 312.941 110.588C312.365 110.588 311.829 110.54 311.333 110.444C310.845 110.356 310.421 110.208 310.061 110C309.701 109.8 309.421 109.536 309.221 109.208C309.021 108.88 308.921 108.476 308.921 107.996C308.921 107.524 309.021 107.092 309.221 106.7C309.421 106.308 309.701 105.944 310.061 105.608C310.421 105.264 310.837 104.936 311.309 104.624C311.709 104.36 312.109 104.116 312.509 103.892C312.917 103.668 313.301 103.464 313.661 103.28C314.021 103.088 314.325 102.92 314.573 102.776C314.773 102.664 314.949 102.56 315.101 102.464C315.253 102.36 315.401 102.252 315.545 102.14L316.145 103.244ZM310.433 100.724C310.625 101.244 310.829 101.752 311.045 102.248C311.261 102.736 311.477 103.192 311.693 103.616C311.917 104.04 312.121 104.416 312.305 104.744L311.249 105.368C311.041 105.024 310.821 104.628 310.589 104.18C310.365 103.724 310.137 103.244 309.905 102.74C309.681 102.236 309.461 101.732 309.245 101.228L310.433 100.724ZM316.325 100.58C316.429 100.724 316.537 100.896 316.649 101.096C316.769 101.296 316.885 101.496 316.997 101.696C317.117 101.896 317.213 102.076 317.285 102.236L316.505 102.584C316.385 102.336 316.233 102.052 316.049 101.732C315.873 101.412 315.705 101.136 315.545 100.904L316.325 100.58ZM317.693 100.076C317.797 100.22 317.909 100.392 318.029 100.592C318.157 100.792 318.277 100.992 318.389 101.192C318.509 101.392 318.605 101.564 318.677 101.708L317.897 102.056C317.769 101.792 317.613 101.508 317.429 101.204C317.253 100.892 317.081 100.624 316.913 100.4L317.693 100.076ZM325.865 101.792C325.785 102.408 325.681 103.06 325.553 103.748C325.433 104.428 325.269 105.104 325.061 105.776C324.821 106.592 324.549 107.284 324.245 107.852C323.949 108.412 323.625 108.84 323.273 109.136C322.921 109.432 322.549 109.58 322.157 109.58C321.757 109.58 321.385 109.444 321.041 109.172C320.697 108.892 320.417 108.504 320.201 108.008C319.985 107.504 319.877 106.92 319.877 106.256C319.877 105.584 320.013 104.948 320.285 104.348C320.565 103.748 320.949 103.216 321.437 102.752C321.925 102.288 322.493 101.924 323.141 101.66C323.789 101.396 324.489 101.264 325.241 101.264C325.961 101.264 326.609 101.38 327.185 101.612C327.769 101.844 328.265 102.168 328.673 102.584C329.089 102.992 329.405 103.472 329.621 104.024C329.837 104.576 329.945 105.164 329.945 105.788C329.945 106.628 329.769 107.376 329.417 108.032C329.073 108.68 328.565 109.212 327.893 109.628C327.221 110.036 326.397 110.312 325.421 110.456L324.713 109.328C324.921 109.304 325.113 109.28 325.289 109.256C325.465 109.224 325.629 109.192 325.781 109.16C326.165 109.072 326.529 108.936 326.873 108.752C327.225 108.568 327.537 108.336 327.809 108.056C328.081 107.768 328.293 107.432 328.445 107.048C328.605 106.664 328.685 106.232 328.685 105.752C328.685 105.272 328.609 104.828 328.457 104.42C328.305 104.004 328.081 103.644 327.785 103.34C327.489 103.036 327.125 102.8 326.693 102.632C326.261 102.456 325.773 102.368 325.229 102.368C324.573 102.368 323.989 102.484 323.477 102.716C322.965 102.948 322.529 103.256 322.169 103.64C321.817 104.016 321.549 104.424 321.365 104.864C321.181 105.304 321.089 105.728 321.089 106.136C321.089 106.592 321.145 106.972 321.257 107.276C321.369 107.572 321.509 107.792 321.677 107.936C321.845 108.08 322.017 108.152 322.193 108.152C322.369 108.152 322.549 108.064 322.733 107.888C322.917 107.704 323.101 107.416 323.285 107.024C323.477 106.632 323.665 106.132 323.849 105.524C324.033 104.948 324.185 104.336 324.305 103.688C324.433 103.032 324.525 102.392 324.581 101.768L325.865 101.792ZM333.017 110L331.229 101.156H332.657L333.485 105.752C333.565 106.224 333.645 106.696 333.725 107.168C333.805 107.64 333.885 108.116 333.965 108.596H334.013C334.109 108.116 334.205 107.64 334.301 107.168C334.405 106.696 334.509 106.224 334.613 105.752L335.741 101.156H336.977L338.117 105.752C338.221 106.216 338.321 106.688 338.417 107.168C338.513 107.64 338.613 108.116 338.717 108.596H338.777C338.857 108.116 338.933 107.64 339.005 107.168C339.077 106.696 339.149 106.224 339.221 105.752L340.061 101.156H341.393L339.653 110H337.937L336.749 105.092C336.677 104.74 336.605 104.4 336.533 104.072C336.469 103.736 336.405 103.4 336.341 103.064H336.293C336.229 103.4 336.161 103.736 336.089 104.072C336.017 104.4 335.945 104.74 335.873 105.092L334.709 110H333.017ZM345.48 110.168C344.88 110.168 344.336 110.032 343.848 109.76C343.36 109.48 342.972 109.084 342.684 108.572C342.396 108.052 342.252 107.428 342.252 106.7C342.252 106.164 342.336 105.684 342.504 105.26C342.672 104.828 342.9 104.464 343.188 104.168C343.476 103.864 343.8 103.632 344.16 103.472C344.52 103.312 344.888 103.232 345.264 103.232C345.848 103.232 346.34 103.364 346.74 103.628C347.14 103.884 347.444 104.248 347.652 104.72C347.86 105.184 347.964 105.728 347.964 106.352C347.964 106.488 347.956 106.62 347.94 106.748C347.932 106.868 347.916 106.972 347.892 107.06H343.608C343.648 107.476 343.756 107.836 343.932 108.14C344.116 108.436 344.352 108.668 344.64 108.836C344.936 108.996 345.272 109.076 345.648 109.076C345.944 109.076 346.22 109.032 346.476 108.944C346.732 108.856 346.98 108.736 347.22 108.584L347.7 109.46C347.396 109.66 347.056 109.828 346.68 109.964C346.312 110.1 345.912 110.168 345.48 110.168ZM343.596 106.1H346.764C346.764 105.54 346.636 105.104 346.38 104.792C346.132 104.48 345.768 104.324 345.288 104.324C345.016 104.324 344.76 104.392 344.52 104.528C344.28 104.664 344.076 104.864 343.908 105.128C343.748 105.392 343.644 105.716 343.596 106.1ZM352.589 110.168C352.293 110.168 351.985 110.092 351.665 109.94C351.345 109.788 351.049 109.58 350.777 109.316H350.729L350.609 110H349.517V100.436H350.897V102.968L350.849 104.096C351.137 103.84 351.449 103.632 351.785 103.472C352.129 103.312 352.473 103.232 352.817 103.232C353.377 103.232 353.849 103.372 354.233 103.652C354.625 103.924 354.921 104.312 355.121 104.816C355.329 105.32 355.433 105.912 355.433 106.592C355.433 107.344 355.297 107.988 355.025 108.524C354.761 109.06 354.413 109.468 353.981 109.748C353.549 110.028 353.085 110.168 352.589 110.168ZM352.325 109.004C352.645 109.004 352.929 108.912 353.177 108.728C353.433 108.544 353.633 108.276 353.777 107.924C353.929 107.564 354.005 107.128 354.005 106.616C354.005 106.152 353.949 105.756 353.837 105.428C353.733 105.092 353.569 104.836 353.345 104.66C353.121 104.476 352.825 104.384 352.457 104.384C352.201 104.384 351.945 104.452 351.689 104.588C351.433 104.716 351.169 104.916 350.897 105.188V108.416C351.145 108.632 351.393 108.784 351.641 108.872C351.897 108.96 352.125 109.004 352.325 109.004Z" fill="#1E2939"/>
<path d="M292.011 121.727V145H287.091V126.398H286.955L281.625 129.739V125.375L287.386 121.727H292.011ZM306.043 145.318C304.437 145.318 303.005 145.023 301.747 144.432C300.497 143.841 299.505 143.027 298.77 141.989C298.035 140.951 297.652 139.761 297.622 138.42H302.395C302.448 139.322 302.827 140.053 303.531 140.614C304.236 141.174 305.073 141.455 306.043 141.455C306.815 141.455 307.497 141.284 308.088 140.943C308.687 140.595 309.152 140.114 309.486 139.5C309.827 138.879 309.997 138.167 309.997 137.364C309.997 136.545 309.823 135.826 309.474 135.205C309.134 134.583 308.66 134.098 308.054 133.75C307.448 133.402 306.755 133.223 305.974 133.216C305.293 133.216 304.63 133.356 303.986 133.636C303.349 133.917 302.853 134.299 302.497 134.784L298.122 134L299.224 121.727H313.452V125.75H303.281L302.679 131.58H302.815C303.224 131.004 303.842 130.527 304.668 130.148C305.493 129.769 306.418 129.58 307.44 129.58C308.842 129.58 310.092 129.909 311.19 130.568C312.289 131.227 313.156 132.133 313.793 133.284C314.429 134.428 314.743 135.746 314.736 137.239C314.743 138.807 314.38 140.201 313.645 141.42C312.918 142.633 311.899 143.587 310.588 144.284C309.285 144.973 307.77 145.318 306.043 145.318Z" fill="#2B7FFF"/>
<path d="M323.594 142.818V142.205C323.594 141.739 323.692 141.311 323.889 140.92C324.09 140.527 324.38 140.212 324.759 139.977C325.141 139.739 325.607 139.619 326.156 139.619C326.713 139.619 327.181 139.737 327.56 139.972C327.942 140.206 328.23 140.521 328.423 140.915C328.62 141.305 328.719 141.735 328.719 142.205V142.818C328.719 143.284 328.62 143.714 328.423 144.108C328.226 144.498 327.937 144.811 327.554 145.045C327.171 145.284 326.705 145.403 326.156 145.403C325.599 145.403 325.132 145.284 324.753 145.045C324.374 144.811 324.086 144.498 323.889 144.108C323.692 143.714 323.594 143.284 323.594 142.818ZM325.247 142.205V142.818C325.247 143.087 325.312 143.341 325.44 143.58C325.573 143.818 325.812 143.938 326.156 143.938C326.501 143.938 326.736 143.82 326.861 143.585C326.99 143.35 327.054 143.095 327.054 142.818V142.205C327.054 141.928 326.993 141.67 326.872 141.432C326.751 141.193 326.512 141.074 326.156 141.074C325.815 141.074 325.579 141.193 325.446 141.432C325.313 141.67 325.247 141.928 325.247 142.205ZM317.622 136.159V135.545C317.622 135.076 317.723 134.646 317.923 134.256C318.124 133.862 318.414 133.547 318.793 133.312C319.175 133.078 319.637 132.96 320.179 132.96C320.74 132.96 321.209 133.078 321.588 133.312C321.967 133.547 322.255 133.862 322.452 134.256C322.649 134.646 322.747 135.076 322.747 135.545V136.159C322.747 136.629 322.647 137.059 322.446 137.449C322.249 137.839 321.959 138.152 321.577 138.386C321.198 138.617 320.732 138.733 320.179 138.733C319.626 138.733 319.158 138.616 318.776 138.381C318.397 138.142 318.109 137.83 317.912 137.443C317.719 137.053 317.622 136.625 317.622 136.159ZM319.287 135.545V136.159C319.287 136.436 319.351 136.691 319.48 136.926C319.613 137.161 319.846 137.278 320.179 137.278C320.527 137.278 320.764 137.161 320.889 136.926C321.018 136.691 321.082 136.436 321.082 136.159V135.545C321.082 135.269 321.022 135.011 320.901 134.773C320.779 134.534 320.539 134.415 320.179 134.415C319.842 134.415 319.609 134.536 319.48 134.778C319.351 135.021 319.287 135.277 319.287 135.545ZM318.372 145L326.372 133.364H327.861L319.861 145H318.372Z" fill="#1E2939"/>
<path d="M282.124 168.348C282.292 168.356 282.468 168.368 282.652 168.384C282.836 168.392 283.032 168.396 283.24 168.396C283.4 168.396 283.624 168.396 283.912 168.396C284.208 168.396 284.544 168.396 284.92 168.396C285.296 168.396 285.688 168.396 286.096 168.396C286.504 168.396 286.896 168.396 287.272 168.396C287.656 168.396 287.996 168.396 288.292 168.396C288.588 168.396 288.816 168.396 288.976 168.396C289.176 168.396 289.364 168.392 289.54 168.384C289.716 168.376 289.872 168.364 290.008 168.348V169.548C289.856 169.54 289.7 169.532 289.54 169.524C289.38 169.516 289.192 169.512 288.976 169.512C288.816 169.512 288.58 169.512 288.268 169.512C287.956 169.512 287.6 169.512 287.2 169.512C286.8 169.512 286.388 169.512 285.964 169.512C285.548 169.512 285.152 169.512 284.776 169.512C284.4 169.512 284.076 169.512 283.804 169.512C283.532 169.512 283.344 169.512 283.24 169.512C283.032 169.512 282.836 169.516 282.652 169.524C282.468 169.524 282.292 169.532 282.124 169.548V168.348ZM285.988 172.368C285.988 172.552 285.988 172.78 285.988 173.052C285.988 173.316 285.988 173.588 285.988 173.868C285.988 174.148 285.988 174.404 285.988 174.636C285.988 174.86 285.988 175.024 285.988 175.128C285.988 175.44 286.1 175.676 286.324 175.836C286.556 175.988 286.932 176.064 287.452 176.064C288.004 176.064 288.536 176.052 289.048 176.028C289.568 175.996 290.076 175.952 290.572 175.896L290.5 177.18C290.204 177.196 289.876 177.212 289.516 177.228C289.164 177.244 288.792 177.256 288.4 177.264C288.016 177.28 287.632 177.288 287.248 177.288C286.592 177.288 286.076 177.216 285.7 177.072C285.332 176.928 285.076 176.724 284.932 176.46C284.788 176.188 284.716 175.872 284.716 175.512C284.716 175.304 284.716 175.064 284.716 174.792C284.716 174.512 284.716 174.224 284.716 173.928C284.716 173.624 284.716 173.336 284.716 173.064C284.716 172.784 284.716 172.536 284.716 172.32C284.716 172.224 284.716 172.072 284.716 171.864C284.716 171.648 284.716 171.408 284.716 171.144C284.716 170.88 284.716 170.616 284.716 170.352C284.716 170.088 284.716 169.852 284.716 169.644C284.716 169.436 284.716 169.288 284.716 169.2H285.988C285.988 169.296 285.988 169.456 285.988 169.68C285.988 169.896 285.988 170.148 285.988 170.436C285.988 170.716 285.988 170.996 285.988 171.276C285.988 171.556 285.988 171.796 285.988 171.996C285.988 172.196 285.988 172.32 285.988 172.368ZM281.332 171.768C281.5 171.784 281.7 171.8 281.932 171.816C282.164 171.824 282.368 171.828 282.544 171.828C282.68 171.828 282.9 171.828 283.204 171.828C283.508 171.828 283.864 171.828 284.272 171.828C284.688 171.828 285.124 171.828 285.58 171.828C286.044 171.828 286.5 171.828 286.948 171.828C287.404 171.828 287.832 171.828 288.232 171.828C288.632 171.828 288.972 171.828 289.252 171.828C289.54 171.828 289.74 171.828 289.852 171.828C289.94 171.828 290.048 171.828 290.176 171.828C290.304 171.82 290.436 171.812 290.572 171.804C290.708 171.796 290.824 171.788 290.92 171.78L290.932 173.004C290.78 172.988 290.6 172.98 290.392 172.98C290.184 172.98 290.012 172.98 289.876 172.98C289.756 172.98 289.552 172.98 289.264 172.98C288.984 172.98 288.64 172.98 288.232 172.98C287.832 172.98 287.404 172.98 286.948 172.98C286.492 172.98 286.032 172.98 285.568 172.98C285.104 172.98 284.668 172.98 284.26 172.98C283.86 172.98 283.508 172.98 283.204 172.98C282.9 172.98 282.68 172.98 282.544 172.98C282.384 172.98 282.184 172.984 281.944 172.992C281.712 173 281.508 173.012 281.332 173.028V171.768ZM301.264 167.556C301.368 167.692 301.476 167.86 301.588 168.06C301.708 168.26 301.824 168.46 301.936 168.66C302.048 168.86 302.144 169.04 302.224 169.2L301.444 169.536C301.324 169.296 301.172 169.016 300.988 168.696C300.812 168.376 300.644 168.104 300.484 167.88L301.264 167.556ZM302.62 167.04C302.724 167.192 302.836 167.368 302.956 167.568C303.084 167.768 303.208 167.968 303.328 168.168C303.448 168.36 303.544 168.528 303.616 168.672L302.836 169.02C302.708 168.764 302.552 168.48 302.368 168.168C302.192 167.856 302.02 167.588 301.852 167.364L302.62 167.04ZM294.484 173.34C294.612 173.012 294.736 172.664 294.856 172.296C294.984 171.928 295.1 171.548 295.204 171.156C295.308 170.756 295.396 170.36 295.468 169.968C295.548 169.576 295.608 169.2 295.648 168.84L297.004 169.116C296.98 169.22 296.952 169.336 296.92 169.464C296.888 169.584 296.856 169.704 296.824 169.824C296.8 169.944 296.776 170.048 296.752 170.136C296.712 170.328 296.656 170.576 296.584 170.88C296.52 171.176 296.44 171.496 296.344 171.84C296.248 172.176 296.144 172.52 296.032 172.872C295.928 173.216 295.816 173.536 295.696 173.832C295.552 174.208 295.384 174.596 295.192 174.996C295 175.388 294.796 175.772 294.58 176.148C294.364 176.524 294.148 176.868 293.932 177.18L292.624 176.628C293 176.132 293.352 175.588 293.68 174.996C294.008 174.396 294.276 173.844 294.484 173.34ZM300.4 172.968C300.28 172.656 300.144 172.324 299.992 171.972C299.848 171.62 299.696 171.268 299.536 170.916C299.384 170.556 299.232 170.22 299.08 169.908C298.928 169.596 298.788 169.328 298.66 169.104L299.896 168.696C300.016 168.92 300.152 169.188 300.304 169.5C300.464 169.812 300.624 170.148 300.784 170.508C300.944 170.86 301.1 171.212 301.252 171.564C301.404 171.916 301.54 172.244 301.66 172.548C301.772 172.836 301.892 173.16 302.02 173.52C302.156 173.88 302.288 174.252 302.416 174.636C302.552 175.012 302.676 175.38 302.788 175.74C302.9 176.092 302.996 176.412 303.076 176.7L301.708 177.144C301.604 176.704 301.48 176.244 301.336 175.764C301.192 175.284 301.04 174.804 300.88 174.324C300.728 173.844 300.568 173.392 300.4 172.968ZM304.912 172.524C305.968 172.244 306.936 171.912 307.816 171.528C308.704 171.136 309.48 170.732 310.144 170.316C310.568 170.06 310.98 169.772 311.38 169.452C311.788 169.132 312.172 168.8 312.532 168.456C312.892 168.112 313.208 167.78 313.48 167.46L314.488 168.42C314.136 168.78 313.756 169.136 313.348 169.488C312.94 169.84 312.508 170.18 312.052 170.508C311.604 170.828 311.144 171.132 310.672 171.42C310.232 171.692 309.732 171.968 309.172 172.248C308.612 172.52 308.02 172.784 307.396 173.04C306.772 173.288 306.14 173.512 305.5 173.712L304.912 172.524ZM309.928 170.94L311.26 170.592V176.028C311.26 176.188 311.26 176.364 311.26 176.556C311.268 176.74 311.276 176.912 311.284 177.072C311.3 177.232 311.32 177.356 311.344 177.444H309.856C309.864 177.356 309.876 177.232 309.892 177.072C309.908 176.912 309.916 176.74 309.916 176.556C309.924 176.364 309.928 176.188 309.928 176.028V170.94ZM322.18 176.736C322.204 176.632 322.224 176.516 322.24 176.388C322.256 176.252 322.264 176.116 322.264 175.98C322.264 175.892 322.264 175.716 322.264 175.452C322.264 175.18 322.264 174.852 322.264 174.468C322.264 174.076 322.264 173.656 322.264 173.208C322.264 172.752 322.264 172.296 322.264 171.84C322.264 171.376 322.264 170.944 322.264 170.544C322.264 170.144 322.264 169.796 322.264 169.5C322.264 169.204 322.264 168.996 322.264 168.876C322.264 168.628 322.252 168.416 322.228 168.24C322.204 168.064 322.192 167.956 322.192 167.916H323.584C323.584 167.956 323.572 168.064 323.548 168.24C323.532 168.416 323.524 168.628 323.524 168.876C323.524 168.996 323.524 169.196 323.524 169.476C323.524 169.756 323.524 170.088 323.524 170.472C323.524 170.848 323.524 171.252 323.524 171.684C323.524 172.108 323.524 172.532 323.524 172.956C323.524 173.372 323.524 173.76 323.524 174.12C323.524 174.48 323.524 174.784 323.524 175.032C323.524 175.28 323.524 175.44 323.524 175.512C323.876 175.352 324.248 175.14 324.64 174.876C325.032 174.604 325.416 174.288 325.792 173.928C326.168 173.568 326.5 173.176 326.788 172.752L327.52 173.784C327.176 174.24 326.772 174.676 326.308 175.092C325.852 175.508 325.372 175.888 324.868 176.232C324.372 176.576 323.892 176.864 323.428 177.096C323.316 177.152 323.224 177.204 323.152 177.252C323.08 177.308 323.02 177.356 322.972 177.396L322.18 176.736ZM316.648 176.628C317.168 176.268 317.6 175.832 317.944 175.32C318.288 174.8 318.548 174.264 318.724 173.712C318.812 173.448 318.88 173.116 318.928 172.716C318.976 172.316 319.008 171.892 319.024 171.444C319.048 170.988 319.06 170.54 319.06 170.1C319.068 169.66 319.072 169.268 319.072 168.924C319.072 168.716 319.064 168.536 319.048 168.384C319.032 168.232 319.008 168.088 318.976 167.952H320.368C320.368 167.984 320.36 168.052 320.344 168.156C320.336 168.252 320.328 168.368 320.32 168.504C320.312 168.632 320.308 168.768 320.308 168.912C320.308 169.256 320.304 169.66 320.296 170.124C320.288 170.58 320.268 171.052 320.236 171.54C320.212 172.028 320.176 172.492 320.128 172.932C320.088 173.372 320.024 173.74 319.936 174.036C319.76 174.692 319.488 175.308 319.12 175.884C318.752 176.46 318.312 176.964 317.8 177.396L316.648 176.628ZM339.304 168.888C339.248 168.952 339.18 169.036 339.1 169.14C339.028 169.236 338.964 169.32 338.908 169.392C338.74 169.688 338.504 170.036 338.2 170.436C337.904 170.836 337.564 171.24 337.18 171.648C336.804 172.048 336.4 172.4 335.968 172.704L334.972 171.9C335.236 171.748 335.492 171.568 335.74 171.36C335.996 171.144 336.232 170.92 336.448 170.688C336.672 170.456 336.868 170.232 337.036 170.016C337.204 169.792 337.332 169.592 337.42 169.416C337.308 169.416 337.116 169.416 336.844 169.416C336.58 169.416 336.26 169.416 335.884 169.416C335.516 169.416 335.12 169.416 334.696 169.416C334.28 169.416 333.864 169.416 333.448 169.416C333.032 169.416 332.644 169.416 332.284 169.416C331.924 169.416 331.616 169.416 331.36 169.416C331.104 169.416 330.932 169.416 330.844 169.416C330.604 169.416 330.372 169.424 330.148 169.44C329.924 169.448 329.684 169.464 329.428 169.488V168.156C329.652 168.18 329.884 168.204 330.124 168.228C330.364 168.252 330.604 168.264 330.844 168.264C330.932 168.264 331.108 168.264 331.372 168.264C331.636 168.264 331.952 168.264 332.32 168.264C332.696 168.264 333.1 168.264 333.532 168.264C333.964 168.264 334.396 168.264 334.828 168.264C335.26 168.264 335.664 168.264 336.04 168.264C336.416 168.264 336.736 168.264 337 168.264C337.264 168.264 337.448 168.264 337.552 168.264C337.64 168.264 337.748 168.264 337.876 168.264C338.012 168.256 338.14 168.244 338.26 168.228C338.388 168.212 338.484 168.196 338.548 168.18L339.304 168.888ZM334.456 170.484C334.456 171.108 334.44 171.7 334.408 172.26C334.376 172.82 334.3 173.352 334.18 173.856C334.068 174.352 333.892 174.82 333.652 175.26C333.412 175.692 333.088 176.1 332.68 176.484C332.272 176.868 331.752 177.22 331.12 177.54L330.016 176.64C330.192 176.584 330.38 176.508 330.58 176.412C330.788 176.308 330.984 176.188 331.168 176.052C331.6 175.772 331.948 175.468 332.212 175.14C332.476 174.812 332.672 174.46 332.8 174.084C332.936 173.7 333.028 173.288 333.076 172.848C333.132 172.408 333.16 171.94 333.16 171.444C333.16 171.284 333.156 171.128 333.148 170.976C333.14 170.824 333.12 170.66 333.088 170.484H334.456ZM349.66 168.3C349.66 168.508 349.732 168.684 349.876 168.828C350.02 168.972 350.196 169.044 350.404 169.044C350.612 169.044 350.788 168.972 350.932 168.828C351.084 168.684 351.16 168.508 351.16 168.3C351.16 168.092 351.084 167.916 350.932 167.772C350.788 167.62 350.612 167.544 350.404 167.544C350.196 167.544 350.02 167.62 349.876 167.772C349.732 167.916 349.66 168.092 349.66 168.3ZM349.024 168.3C349.024 168.044 349.084 167.812 349.204 167.604C349.332 167.396 349.5 167.232 349.708 167.112C349.916 166.984 350.148 166.92 350.404 166.92C350.66 166.92 350.892 166.984 351.1 167.112C351.308 167.232 351.476 167.396 351.604 167.604C351.732 167.812 351.796 168.044 351.796 168.3C351.796 168.556 351.732 168.788 351.604 168.996C351.476 169.204 351.308 169.372 351.1 169.5C350.892 169.62 350.66 169.68 350.404 169.68C350.148 169.68 349.916 169.62 349.708 169.5C349.5 169.372 349.332 169.204 349.204 168.996C349.084 168.788 349.024 168.556 349.024 168.3ZM350.248 169.176C350.2 169.272 350.156 169.38 350.116 169.5C350.084 169.62 350.056 169.744 350.032 169.872C349.96 170.176 349.872 170.516 349.768 170.892C349.672 171.268 349.548 171.656 349.396 172.056C349.252 172.456 349.08 172.848 348.88 173.232C348.688 173.608 348.472 173.956 348.232 174.276C347.864 174.74 347.448 175.18 346.984 175.596C346.528 176.004 346.008 176.372 345.424 176.7C344.84 177.02 344.188 177.296 343.468 177.528L342.436 176.4C343.22 176.2 343.9 175.96 344.476 175.68C345.052 175.4 345.552 175.08 345.976 174.72C346.408 174.352 346.792 173.96 347.128 173.544C347.4 173.192 347.636 172.8 347.836 172.368C348.044 171.936 348.212 171.504 348.34 171.072C348.476 170.632 348.572 170.228 348.628 169.86C348.508 169.86 348.3 169.86 348.004 169.86C347.708 169.86 347.36 169.86 346.96 169.86C346.56 169.86 346.14 169.86 345.7 169.86C345.26 169.86 344.84 169.86 344.44 169.86C344.04 169.86 343.684 169.86 343.372 169.86C343.068 169.86 342.852 169.86 342.724 169.86C342.468 169.86 342.228 169.864 342.004 169.872C341.78 169.88 341.588 169.892 341.428 169.908V168.564C341.548 168.572 341.68 168.584 341.824 168.6C341.976 168.616 342.132 168.628 342.292 168.636C342.452 168.644 342.596 168.648 342.724 168.648C342.836 168.648 343.012 168.648 343.252 168.648C343.5 168.648 343.788 168.648 344.116 168.648C344.444 168.648 344.788 168.648 345.148 168.648C345.516 168.648 345.88 168.648 346.24 168.648C346.608 168.648 346.948 168.648 347.26 168.648C347.58 168.648 347.852 168.648 348.076 168.648C348.308 168.648 348.464 168.648 348.544 168.648C348.648 168.648 348.768 168.644 348.904 168.636C349.048 168.628 349.184 168.608 349.312 168.576L350.248 169.176ZM361.456 167.808C361.448 167.96 361.436 168.128 361.42 168.312C361.412 168.496 361.408 168.696 361.408 168.912C361.408 169.096 361.408 169.324 361.408 169.596C361.408 169.86 361.408 170.128 361.408 170.4C361.408 170.664 361.408 170.88 361.408 171.048C361.408 171.728 361.38 172.316 361.324 172.812C361.276 173.308 361.196 173.736 361.084 174.096C360.972 174.448 360.832 174.764 360.664 175.044C360.504 175.316 360.312 175.576 360.088 175.824C359.832 176.128 359.536 176.396 359.2 176.628C358.864 176.852 358.524 177.04 358.18 177.192C357.836 177.344 357.516 177.472 357.22 177.576L356.224 176.532C356.792 176.388 357.32 176.192 357.808 175.944C358.304 175.696 358.736 175.372 359.104 174.972C359.312 174.724 359.48 174.476 359.608 174.228C359.744 173.98 359.844 173.704 359.908 173.4C359.98 173.096 360.028 172.748 360.052 172.356C360.084 171.964 360.1 171.504 360.1 170.976C360.1 170.8 360.1 170.58 360.1 170.316C360.1 170.052 360.1 169.792 360.1 169.536C360.1 169.28 360.1 169.072 360.1 168.912C360.1 168.696 360.092 168.496 360.076 168.312C360.06 168.128 360.044 167.96 360.028 167.808H361.456ZM355.888 167.904C355.88 168.024 355.868 168.16 355.852 168.312C355.844 168.464 355.84 168.624 355.84 168.792C355.84 168.864 355.84 169 355.84 169.2C355.84 169.392 355.84 169.624 355.84 169.896C355.84 170.168 355.84 170.452 355.84 170.748C355.84 171.044 355.84 171.332 355.84 171.612C355.84 171.892 355.84 172.14 355.84 172.356C355.84 172.564 355.84 172.716 355.84 172.812C355.84 172.964 355.844 173.136 355.852 173.328C355.868 173.512 355.88 173.664 355.888 173.784H354.508C354.516 173.688 354.524 173.548 354.532 173.364C354.548 173.172 354.556 172.988 354.556 172.812C354.556 172.716 354.556 172.56 354.556 172.344C354.556 172.128 354.556 171.884 354.556 171.612C354.556 171.332 354.556 171.044 354.556 170.748C354.556 170.444 354.556 170.16 354.556 169.896C354.556 169.624 354.556 169.392 354.556 169.2C354.556 169 354.556 168.864 354.556 168.792C354.556 168.68 354.552 168.536 354.544 168.36C354.536 168.176 354.524 168.024 354.508 167.904H355.888Z" fill="#1E2939"/>
<path d="M292.011 188.727V212H287.091V193.398H286.955L281.625 196.739V192.375L287.386 188.727H292.011ZM306.043 212.318C304.437 212.318 303.005 212.023 301.747 211.432C300.497 210.841 299.505 210.027 298.77 208.989C298.035 207.951 297.652 206.761 297.622 205.42H302.395C302.448 206.322 302.827 207.053 303.531 207.614C304.236 208.174 305.073 208.455 306.043 208.455C306.815 208.455 307.497 208.284 308.088 207.943C308.687 207.595 309.152 207.114 309.486 206.5C309.827 205.879 309.997 205.167 309.997 204.364C309.997 203.545 309.823 202.826 309.474 202.205C309.134 201.583 308.66 201.098 308.054 200.75C307.448 200.402 306.755 200.223 305.974 200.216C305.293 200.216 304.63 200.356 303.986 200.636C303.349 200.917 302.853 201.299 302.497 201.784L298.122 201L299.224 188.727H313.452V192.75H303.281L302.679 198.58H302.815C303.224 198.004 303.842 197.527 304.668 197.148C305.493 196.769 306.418 196.58 307.44 196.58C308.842 196.58 310.092 196.909 311.19 197.568C312.289 198.227 313.156 199.133 313.793 200.284C314.429 201.428 314.743 202.746 314.736 204.239C314.743 205.807 314.38 207.201 313.645 208.42C312.918 209.633 311.899 210.587 310.588 211.284C309.285 211.973 307.77 212.318 306.043 212.318Z" fill="#FF6900"/>
<path d="M323.594 209.818V209.205C323.594 208.739 323.692 208.311 323.889 207.92C324.09 207.527 324.38 207.212 324.759 206.977C325.141 206.739 325.607 206.619 326.156 206.619C326.713 206.619 327.181 206.737 327.56 206.972C327.942 207.206 328.23 207.521 328.423 207.915C328.62 208.305 328.719 208.735 328.719 209.205V209.818C328.719 210.284 328.62 210.714 328.423 211.108C328.226 211.498 327.937 211.811 327.554 212.045C327.171 212.284 326.705 212.403 326.156 212.403C325.599 212.403 325.132 212.284 324.753 212.045C324.374 211.811 324.086 211.498 323.889 211.108C323.692 210.714 323.594 210.284 323.594 209.818ZM325.247 209.205V209.818C325.247 210.087 325.312 210.341 325.44 210.58C325.573 210.818 325.812 210.938 326.156 210.938C326.501 210.938 326.736 210.82 326.861 210.585C326.99 210.35 327.054 210.095 327.054 209.818V209.205C327.054 208.928 326.993 208.67 326.872 208.432C326.751 208.193 326.512 208.074 326.156 208.074C325.815 208.074 325.579 208.193 325.446 208.432C325.313 208.67 325.247 208.928 325.247 209.205ZM317.622 203.159V202.545C317.622 202.076 317.723 201.646 317.923 201.256C318.124 200.862 318.414 200.547 318.793 200.312C319.175 200.078 319.637 199.96 320.179 199.96C320.74 199.96 321.209 200.078 321.588 200.312C321.967 200.547 322.255 200.862 322.452 201.256C322.649 201.646 322.747 202.076 322.747 202.545V203.159C322.747 203.629 322.647 204.059 322.446 204.449C322.249 204.839 321.959 205.152 321.577 205.386C321.198 205.617 320.732 205.733 320.179 205.733C319.626 205.733 319.158 205.616 318.776 205.381C318.397 205.142 318.109 204.83 317.912 204.443C317.719 204.053 317.622 203.625 317.622 203.159ZM319.287 202.545V203.159C319.287 203.436 319.351 203.691 319.48 203.926C319.613 204.161 319.846 204.278 320.179 204.278C320.527 204.278 320.764 204.161 320.889 203.926C321.018 203.691 321.082 203.436 321.082 203.159V202.545C321.082 202.269 321.022 202.011 320.901 201.773C320.779 201.534 320.539 201.415 320.179 201.415C319.842 201.415 319.609 201.536 319.48 201.778C319.351 202.021 319.287 202.277 319.287 202.545ZM318.372 212L326.372 200.364H327.861L319.861 212H318.372Z" fill="#1E2939"/>
</svg>
