<svg width="411" height="287" viewBox="0 0 411 287" fill="none" xmlns="http://www.w3.org/2000/svg">
<path d="M51.53 4.746H62.828V6.398H51.53V4.746ZM52.272 8.834H62.17V10.458H52.272V8.834ZM50.928 13.16H63.528V14.812H50.928V13.16ZM56.276 6.174H58.124V14.042H56.276V6.174ZM55.03 3.052L56.43 2.086C56.7287 2.27267 57.046 2.492 57.382 2.744C57.7273 2.996 58.054 3.248 58.362 3.5C58.6793 3.752 58.936 3.99 59.132 4.214L57.634 5.292C57.466 5.07733 57.2327 4.83933 56.934 4.578C56.6447 4.30733 56.332 4.04133 55.996 3.78C55.66 3.50933 55.338 3.26667 55.03 3.052ZM65.922 4.83C66.2207 4.86733 66.538 4.89533 66.874 4.914C67.2193 4.92333 67.5227 4.928 67.784 4.928C68.3627 4.928 68.946 4.89533 69.534 4.83C70.1313 4.76467 70.7053 4.68067 71.256 4.578C71.8067 4.466 72.306 4.34 72.754 4.2L72.81 5.824C72.4087 5.92667 71.928 6.034 71.368 6.146C70.8173 6.24867 70.234 6.33733 69.618 6.412C69.002 6.47733 68.3953 6.51 67.798 6.51C67.518 6.51 67.2333 6.50533 66.944 6.496C66.6547 6.48667 66.356 6.47267 66.048 6.454L65.922 4.83ZM71.368 2.73C71.312 2.96333 71.2373 3.26667 71.144 3.64C71.0507 4.01333 70.9433 4.40533 70.822 4.816C70.71 5.22667 70.5887 5.63267 70.458 6.034C70.2527 6.706 69.982 7.42 69.646 8.176C69.31 8.932 68.946 9.66933 68.554 10.388C68.162 11.1067 67.7653 11.746 67.364 12.306L65.67 11.438C65.9873 11.046 66.3 10.612 66.608 10.136C66.916 9.66 67.2053 9.17 67.476 8.666C67.7467 8.162 67.9893 7.67667 68.204 7.21C68.428 6.734 68.6053 6.30467 68.736 5.922C68.9133 5.42733 69.0673 4.87667 69.198 4.27C69.338 3.654 69.4173 3.07533 69.436 2.534L71.368 2.73ZM74.644 7.084C74.6253 7.38267 74.616 7.68133 74.616 7.98C74.6253 8.26933 74.6347 8.568 74.644 8.876C74.6533 9.09067 74.6627 9.366 74.672 9.702C74.6907 10.0287 74.7093 10.3787 74.728 10.752C74.7467 11.116 74.7607 11.466 74.77 11.802C74.7887 12.1287 74.798 12.39 74.798 12.586C74.798 13.0153 74.7093 13.4073 74.532 13.762C74.3547 14.1073 74.07 14.3827 73.678 14.588C73.2953 14.7933 72.768 14.896 72.096 14.896C71.5173 14.896 70.9947 14.8073 70.528 14.63C70.0613 14.462 69.688 14.21 69.408 13.874C69.128 13.5287 68.988 13.0993 68.988 12.586C68.988 12.1287 69.1093 11.718 69.352 11.354C69.5947 10.9807 69.9447 10.6913 70.402 10.486C70.8687 10.2713 71.4287 10.164 72.082 10.164C72.9033 10.164 73.6593 10.2807 74.35 10.514C75.0407 10.738 75.6613 11.0273 76.212 11.382C76.7627 11.7367 77.234 12.0913 77.626 12.446L76.688 13.944C76.436 13.72 76.1467 13.468 75.82 13.188C75.5027 12.908 75.1433 12.6467 74.742 12.404C74.35 12.1613 73.9207 11.9607 73.454 11.802C72.9967 11.6433 72.502 11.564 71.97 11.564C71.5687 11.564 71.2467 11.6433 71.004 11.802C70.7613 11.9607 70.64 12.166 70.64 12.418C70.64 12.6793 70.7427 12.8893 70.948 13.048C71.1627 13.2067 71.4613 13.286 71.844 13.286C72.1613 13.286 72.4133 13.2347 72.6 13.132C72.7867 13.02 72.9173 12.866 72.992 12.67C73.0667 12.4647 73.104 12.236 73.104 11.984C73.104 11.7693 73.0947 11.466 73.076 11.074C73.0573 10.682 73.034 10.248 73.006 9.772C72.9873 9.296 72.9687 8.82 72.95 8.344C72.9313 7.868 72.9127 7.448 72.894 7.084H74.644ZM77.052 7.826C76.7813 7.602 76.4453 7.364 76.044 7.112C75.6427 6.86 75.2273 6.622 74.798 6.398C74.378 6.16467 74.0093 5.978 73.692 5.838L74.588 4.452C74.84 4.564 75.1247 4.704 75.442 4.872C75.7687 5.03067 76.0953 5.19867 76.422 5.376C76.758 5.55333 77.066 5.73067 77.346 5.908C77.6353 6.076 77.8687 6.22533 78.046 6.356L77.052 7.826ZM85.228 2.758H91.22V4.2H85.228V2.758ZM85.746 10.276H92.284V11.746H85.746V10.276ZM84.906 13.398H92.872V14.868H84.906V13.398ZM90.744 2.758H91.052L91.36 2.688L92.48 3.178C92.116 4.27933 91.6027 5.23133 90.94 6.034C90.2773 6.83667 89.5027 7.50867 88.616 8.05C87.7293 8.582 86.7587 9.01133 85.704 9.338C85.6107 9.13267 85.4707 8.89467 85.284 8.624C85.1067 8.344 84.9387 8.11533 84.78 7.938C85.7227 7.69533 86.5907 7.35 87.384 6.902C88.1867 6.44467 88.8773 5.88933 89.456 5.236C90.044 4.58267 90.4733 3.84067 90.744 3.01V2.758ZM87.398 4.018C87.8833 4.97 88.616 5.78667 89.596 6.468C90.5853 7.14 91.7427 7.62067 93.068 7.91C92.9 8.06867 92.7133 8.28333 92.508 8.554C92.312 8.82467 92.158 9.06267 92.046 9.268C90.6367 8.88533 89.4187 8.29267 88.392 7.49C87.3747 6.68733 86.558 5.68867 85.942 4.494L87.398 4.018ZM88.126 8.596H89.778V14.336H88.126V8.596ZM81.84 2.114L83.296 2.66C83.1093 3.01467 82.9133 3.38333 82.708 3.766C82.5027 4.14867 82.302 4.51267 82.106 4.858C81.91 5.20333 81.7233 5.502 81.546 5.754L80.426 5.278C80.594 4.98867 80.7667 4.662 80.944 4.298C81.1213 3.934 81.2893 3.56067 81.448 3.178C81.6067 2.79533 81.7373 2.44067 81.84 2.114ZM83.45 3.78L84.822 4.396C84.486 4.928 84.1173 5.488 83.716 6.076C83.3147 6.65467 82.9133 7.21467 82.512 7.756C82.1107 8.288 81.7327 8.75467 81.378 9.156L80.398 8.61C80.6593 8.29267 80.93 7.938 81.21 7.546C81.49 7.14467 81.7653 6.72933 82.036 6.3C82.316 5.86133 82.5773 5.42733 82.82 4.998C83.0627 4.55933 83.2727 4.15333 83.45 3.78ZM79.684 5.432L80.496 4.284C80.7387 4.49867 80.986 4.73667 81.238 4.998C81.4993 5.25 81.7373 5.50667 81.952 5.768C82.176 6.02 82.344 6.24867 82.456 6.454L81.602 7.756C81.49 7.532 81.3267 7.28467 81.112 7.014C80.9067 6.74333 80.678 6.468 80.426 6.188C80.174 5.908 79.9267 5.656 79.684 5.432ZM83.044 7.112L84.15 6.65C84.3273 6.96733 84.5 7.308 84.668 7.672C84.8453 8.02667 84.9947 8.37667 85.116 8.722C85.2467 9.058 85.3353 9.36133 85.382 9.632L84.192 10.164C84.1453 9.89333 84.0613 9.58533 83.94 9.24C83.828 8.88533 83.6927 8.52133 83.534 8.148C83.3753 7.77467 83.212 7.42933 83.044 7.112ZM79.67 8.274C80.314 8.25533 81.084 8.22733 81.98 8.19C82.876 8.15267 83.786 8.11533 84.71 8.078L84.696 9.408C83.828 9.47333 82.9647 9.534 82.106 9.59C81.2567 9.646 80.4913 9.69733 79.81 9.744L79.67 8.274ZM83.338 10.598L84.514 10.22C84.6913 10.6213 84.8593 11.06 85.018 11.536C85.186 12.0027 85.312 12.4133 85.396 12.768L84.15 13.216C84.0847 12.8613 83.9727 12.4413 83.814 11.956C83.6553 11.4613 83.4967 11.0087 83.338 10.598ZM80.286 10.332L81.672 10.584C81.5973 11.256 81.4853 11.9187 81.336 12.572C81.1867 13.2253 81.014 13.776 80.818 14.224C80.7247 14.1587 80.5987 14.084 80.44 14C80.2813 13.9253 80.118 13.8507 79.95 13.776C79.7913 13.7013 79.6513 13.6453 79.53 13.608C79.7353 13.188 79.8987 12.6887 80.02 12.11C80.1413 11.522 80.23 10.9293 80.286 10.332ZM81.854 9.016H83.324V15.26H81.854V9.016ZM102.028 8.82V10.108H105.612V8.82H102.028ZM100.656 7.602H107.04V11.326H100.656V7.602ZM103.708 3.57C103.503 3.94333 103.237 4.33533 102.91 4.746C102.583 5.15667 102.215 5.54867 101.804 5.922C101.403 6.29533 100.978 6.622 100.53 6.902C100.455 6.69667 100.343 6.46333 100.194 6.202C100.045 5.93133 99.9 5.712 99.76 5.544C100.208 5.292 100.633 4.97467 101.034 4.592C101.445 4.20933 101.813 3.80333 102.14 3.374C102.467 2.93533 102.728 2.51533 102.924 2.114H104.394C104.665 2.534 104.977 2.954 105.332 3.374C105.687 3.78467 106.065 4.158 106.466 4.494C106.867 4.82067 107.273 5.08667 107.684 5.292C107.535 5.47867 107.381 5.712 107.222 5.992C107.073 6.26267 106.947 6.51 106.844 6.734C106.443 6.49133 106.046 6.19733 105.654 5.852C105.262 5.49733 104.898 5.124 104.562 4.732C104.226 4.34 103.941 3.95267 103.708 3.57ZM103.05 6.132H104.534V8.876C104.534 9.436 104.492 10.01 104.408 10.598C104.333 11.1767 104.165 11.7507 103.904 12.32C103.652 12.88 103.279 13.412 102.784 13.916C102.289 14.42 101.627 14.8773 100.796 15.288C100.721 15.1667 100.623 15.0313 100.502 14.882C100.39 14.742 100.269 14.5973 100.138 14.448C100.007 14.308 99.886 14.196 99.774 14.112C100.511 13.7667 101.095 13.3887 101.524 12.978C101.963 12.558 102.289 12.1193 102.504 11.662C102.728 11.1953 102.873 10.724 102.938 10.248C103.013 9.772 103.05 9.30533 103.05 8.848V6.132ZM104.674 10.598C104.926 11.326 105.299 11.9887 105.794 12.586C106.298 13.174 106.909 13.6173 107.628 13.916C107.507 14.0187 107.376 14.1447 107.236 14.294C107.105 14.4527 106.979 14.616 106.858 14.784C106.737 14.952 106.634 15.106 106.55 15.246C105.766 14.826 105.117 14.238 104.604 13.482C104.1 12.726 103.699 11.872 103.4 10.92L104.674 10.598ZM101.622 5.558H105.948V6.86H101.622V5.558ZM95.77 4.746H99.858V6.02H95.77V4.746ZM95.77 6.874H99.858V8.134H95.77V6.874ZM94.972 9.002H99.774V10.304H94.972V9.002ZM97.31 3.416H98.64V9.716H97.31V3.416ZM97.772 10.934L98.43 10.724C98.57 10.9947 98.7007 11.298 98.822 11.634C98.9527 11.97 99.0413 12.2593 99.088 12.502L98.402 12.754C98.3553 12.5113 98.2713 12.2173 98.15 11.872C98.038 11.5267 97.912 11.214 97.772 10.934ZM96.862 11.13L97.576 11.004C97.6973 11.3587 97.8 11.7507 97.884 12.18C97.968 12.6 98.0193 12.9593 98.038 13.258L97.296 13.412C97.2773 13.104 97.226 12.74 97.142 12.32C97.0673 11.8907 96.974 11.494 96.862 11.13ZM95.896 11.2L96.624 11.13C96.6987 11.5407 96.7453 11.9887 96.764 12.474C96.7827 12.95 96.7873 13.3607 96.778 13.706L96.008 13.818C96.036 13.4633 96.036 13.0433 96.008 12.558C95.9893 12.0727 95.952 11.62 95.896 11.2ZM94.86 10.906L95.784 11.088C95.7653 11.5173 95.728 11.942 95.672 12.362C95.6253 12.782 95.546 13.174 95.434 13.538C95.3313 13.8927 95.1867 14.2007 95 14.462L94.146 14C94.314 13.7573 94.4447 13.4773 94.538 13.16C94.6313 12.8333 94.7013 12.4787 94.748 12.096C94.804 11.704 94.8413 11.3073 94.86 10.906ZM94.972 2.632H100.138V3.99H96.358V9.898H94.972V2.632ZM99.046 9.002H100.418C100.418 9.002 100.418 9.072 100.418 9.212C100.418 9.352 100.413 9.46867 100.404 9.562C100.367 10.6913 100.32 11.606 100.264 12.306C100.208 13.006 100.143 13.5473 100.068 13.93C99.9933 14.3033 99.9 14.56 99.788 14.7C99.676 14.8587 99.5547 14.9707 99.424 15.036C99.2933 15.1107 99.1393 15.162 98.962 15.19C98.822 15.218 98.64 15.232 98.416 15.232C98.2013 15.2413 97.9727 15.2413 97.73 15.232C97.7207 15.0267 97.6833 14.8027 97.618 14.56C97.5527 14.3173 97.4687 14.1073 97.366 13.93C97.5527 13.9487 97.7207 13.9627 97.87 13.972C98.0193 13.9813 98.1407 13.986 98.234 13.986C98.3087 13.986 98.374 13.972 98.43 13.944C98.486 13.916 98.542 13.8693 98.598 13.804C98.6727 13.7107 98.7333 13.51 98.78 13.202C98.836 12.894 98.8827 12.4227 98.92 11.788C98.9667 11.1533 99.0087 10.304 99.046 9.24V9.002ZM118.772 2.66C118.893 2.828 119.024 3.02867 119.164 3.262C119.304 3.49533 119.435 3.72867 119.556 3.962C119.687 4.19533 119.799 4.40067 119.892 4.578L118.758 5.054C118.618 4.76467 118.445 4.438 118.24 4.074C118.044 3.70067 117.853 3.37867 117.666 3.108L118.772 2.66ZM120.424 2.03C120.555 2.20733 120.69 2.41267 120.83 2.646C120.97 2.87933 121.105 3.11267 121.236 3.346C121.376 3.57 121.483 3.766 121.558 3.934L120.452 4.41C120.303 4.11133 120.125 3.78 119.92 3.416C119.715 3.052 119.514 2.73933 119.318 2.478L120.424 2.03ZM112.738 3.262C112.701 3.47667 112.673 3.724 112.654 4.004C112.635 4.284 112.626 4.522 112.626 4.718C112.626 4.858 112.626 5.10533 112.626 5.46C112.626 5.80533 112.626 6.216 112.626 6.692C112.626 7.168 112.626 7.66733 112.626 8.19C112.626 8.70333 112.626 9.20267 112.626 9.688C112.626 10.164 112.626 10.5887 112.626 10.962C112.626 11.3353 112.626 11.6107 112.626 11.788C112.626 12.0867 112.701 12.292 112.85 12.404C112.999 12.516 113.228 12.6047 113.536 12.67C113.751 12.698 113.998 12.7213 114.278 12.74C114.558 12.7493 114.852 12.754 115.16 12.754C115.524 12.754 115.925 12.7447 116.364 12.726C116.812 12.698 117.26 12.6653 117.708 12.628C118.165 12.5907 118.595 12.5393 118.996 12.474C119.397 12.4087 119.743 12.3387 120.032 12.264V14.308C119.593 14.3733 119.085 14.4247 118.506 14.462C117.927 14.5087 117.335 14.5413 116.728 14.56C116.131 14.588 115.571 14.602 115.048 14.602C114.591 14.602 114.157 14.588 113.746 14.56C113.345 14.532 112.995 14.4947 112.696 14.448C112.089 14.3267 111.618 14.098 111.282 13.762C110.946 13.4167 110.778 12.9453 110.778 12.348C110.778 12.0773 110.778 11.7273 110.778 11.298C110.778 10.8593 110.778 10.3787 110.778 9.856C110.778 9.324 110.778 8.792 110.778 8.26C110.778 7.71867 110.778 7.21 110.778 6.734C110.778 6.24867 110.778 5.82867 110.778 5.474C110.778 5.11933 110.778 4.86733 110.778 4.718C110.778 4.61533 110.773 4.47533 110.764 4.298C110.755 4.12067 110.741 3.93867 110.722 3.752C110.713 3.56533 110.694 3.402 110.666 3.262H112.738ZM111.814 7.56C112.262 7.46667 112.738 7.35467 113.242 7.224C113.746 7.084 114.255 6.93467 114.768 6.776C115.281 6.61733 115.767 6.45867 116.224 6.3C116.691 6.132 117.106 5.96867 117.47 5.81C117.722 5.71667 117.969 5.60933 118.212 5.488C118.464 5.36667 118.725 5.222 118.996 5.054L119.752 6.832C119.481 6.93467 119.197 7.05133 118.898 7.182C118.609 7.30333 118.347 7.406 118.114 7.49C117.703 7.64867 117.232 7.81667 116.7 7.994C116.177 8.17133 115.631 8.34867 115.062 8.526C114.493 8.694 113.928 8.85267 113.368 9.002C112.817 9.15133 112.304 9.282 111.828 9.394L111.814 7.56ZM133.22 3.248C133.351 3.444 133.491 3.67267 133.64 3.934C133.799 4.186 133.953 4.44267 134.102 4.704C134.251 4.956 134.382 5.194 134.494 5.418L133.276 5.936C133.136 5.63733 133.005 5.37133 132.884 5.138C132.763 4.89533 132.632 4.662 132.492 4.438C132.361 4.20467 132.212 3.97133 132.044 3.738L133.22 3.248ZM135.138 2.576C135.287 2.75333 135.441 2.968 135.6 3.22C135.759 3.472 135.913 3.724 136.062 3.976C136.211 4.228 136.342 4.45667 136.454 4.662L135.264 5.194C135.115 4.90467 134.97 4.64333 134.83 4.41C134.699 4.17667 134.564 3.95267 134.424 3.738C134.284 3.52333 134.125 3.29933 133.948 3.066L135.138 2.576ZM127.13 2.982C127.363 3.10333 127.625 3.25267 127.914 3.43C128.203 3.60733 128.497 3.794 128.796 3.99C129.095 4.17667 129.379 4.35867 129.65 4.536C129.921 4.704 130.145 4.85333 130.322 4.984L129.286 6.524C129.09 6.39333 128.857 6.23933 128.586 6.062C128.325 5.88467 128.045 5.70267 127.746 5.516C127.457 5.32933 127.167 5.152 126.878 4.984C126.598 4.80667 126.346 4.65267 126.122 4.522L127.13 2.982ZM124.54 12.922C125.063 12.8287 125.595 12.712 126.136 12.572C126.677 12.432 127.214 12.264 127.746 12.068C128.278 11.8627 128.796 11.62 129.3 11.34C130.093 10.892 130.831 10.388 131.512 9.828C132.203 9.268 132.823 8.67533 133.374 8.05C133.925 7.41533 134.382 6.762 134.746 6.09L135.824 7.994C135.18 8.96467 134.377 9.884 133.416 10.752C132.464 11.6107 131.414 12.3713 130.266 13.034C129.79 13.2953 129.267 13.5473 128.698 13.79C128.129 14.0233 127.569 14.224 127.018 14.392C126.477 14.56 126.001 14.6813 125.59 14.756L124.54 12.922ZM124.974 6.174C125.207 6.29533 125.473 6.44467 125.772 6.622C126.071 6.79933 126.369 6.98133 126.668 7.168C126.967 7.34533 127.247 7.52267 127.508 7.7C127.779 7.868 128.003 8.01733 128.18 8.148L127.158 9.716C126.953 9.576 126.715 9.41733 126.444 9.24C126.183 9.06267 125.903 8.88067 125.604 8.694C125.315 8.50733 125.025 8.33 124.736 8.162C124.456 7.98467 124.199 7.83533 123.966 7.714L124.974 6.174ZM145.638 2.562C145.619 2.73 145.601 2.93533 145.582 3.178C145.563 3.41133 145.554 3.63533 145.554 3.85C145.554 3.99 145.554 4.158 145.554 4.354C145.554 4.54067 145.554 4.72733 145.554 4.914C145.554 5.10067 145.554 5.26867 145.554 5.418H143.72C143.72 5.26867 143.72 5.10533 143.72 4.928C143.72 4.75067 143.72 4.56867 143.72 4.382C143.72 4.19533 143.72 4.018 143.72 3.85C143.72 3.626 143.711 3.39733 143.692 3.164C143.683 2.93067 143.664 2.73 143.636 2.562H145.638ZM149.558 5.572C149.381 5.74933 149.189 5.94533 148.984 6.16C148.788 6.37467 148.615 6.566 148.466 6.734C148.214 7.02333 147.915 7.34067 147.57 7.686C147.234 8.022 146.865 8.36267 146.464 8.708C146.072 9.05333 145.661 9.38 145.232 9.688C144.728 10.0427 144.163 10.3833 143.538 10.71C142.913 11.0273 142.25 11.326 141.55 11.606C140.85 11.8767 140.136 12.1193 139.408 12.334L138.33 10.682C139.683 10.3833 140.822 10.0147 141.746 9.576C142.67 9.13733 143.435 8.72667 144.042 8.344C144.397 8.10133 144.728 7.85867 145.036 7.616C145.344 7.37333 145.615 7.13533 145.848 6.902C146.081 6.65933 146.263 6.44467 146.394 6.258C146.273 6.258 146.077 6.258 145.806 6.258C145.535 6.258 145.227 6.258 144.882 6.258C144.537 6.258 144.177 6.258 143.804 6.258C143.431 6.258 143.076 6.258 142.74 6.258C142.404 6.258 142.11 6.258 141.858 6.258C141.606 6.258 141.429 6.258 141.326 6.258C141.167 6.258 140.971 6.26267 140.738 6.272C140.505 6.272 140.276 6.27667 140.052 6.286C139.837 6.286 139.655 6.29533 139.506 6.314V4.48C139.777 4.51733 140.08 4.54533 140.416 4.564C140.761 4.57333 141.055 4.578 141.298 4.578C141.401 4.578 141.597 4.578 141.886 4.578C142.185 4.578 142.53 4.578 142.922 4.578C143.323 4.578 143.743 4.578 144.182 4.578C144.621 4.578 145.045 4.578 145.456 4.578C145.876 4.578 146.24 4.578 146.548 4.578C146.865 4.578 147.094 4.578 147.234 4.578C147.449 4.578 147.654 4.56867 147.85 4.55C148.055 4.522 148.237 4.48467 148.396 4.438L149.558 5.572ZM145.526 8.624C145.526 8.876 145.526 9.19333 145.526 9.576C145.526 9.94933 145.521 10.346 145.512 10.766C145.512 11.186 145.512 11.5967 145.512 11.998C145.512 12.39 145.512 12.726 145.512 13.006C145.512 13.1927 145.517 13.398 145.526 13.622C145.535 13.846 145.549 14.0607 145.568 14.266C145.587 14.4713 145.601 14.6487 145.61 14.798H143.594C143.613 14.6673 143.631 14.4947 143.65 14.28C143.669 14.0747 143.683 13.86 143.692 13.636C143.701 13.4027 143.706 13.1927 143.706 13.006C143.706 12.7447 143.706 12.446 143.706 12.11C143.706 11.774 143.706 11.438 143.706 11.102C143.706 10.7567 143.706 10.4347 143.706 10.136C143.706 9.83733 143.706 9.58067 143.706 9.366L145.526 8.624ZM149.754 12.474C149.353 12.1473 148.975 11.8627 148.62 11.62C148.265 11.368 147.911 11.1347 147.556 10.92C147.201 10.696 146.819 10.472 146.408 10.248L147.57 8.904C147.999 9.13733 148.382 9.352 148.718 9.548C149.054 9.73467 149.395 9.93533 149.74 10.15C150.085 10.3647 150.482 10.626 150.93 10.934L149.754 12.474ZM163.796 4.508C163.74 4.592 163.656 4.72267 163.544 4.9C163.441 5.07733 163.362 5.24067 163.306 5.39C163.11 5.82867 162.867 6.31867 162.578 6.86C162.298 7.40133 161.976 7.94733 161.612 8.498C161.257 9.03933 160.879 9.548 160.478 10.024C159.955 10.612 159.377 11.1953 158.742 11.774C158.117 12.3433 157.454 12.8707 156.754 13.356C156.063 13.832 155.354 14.2427 154.626 14.588L153.184 13.076C153.94 12.7867 154.673 12.4227 155.382 11.984C156.091 11.5453 156.749 11.0693 157.356 10.556C157.963 10.0427 158.485 9.54333 158.924 9.058C159.232 8.70333 159.521 8.32533 159.792 7.924C160.072 7.52267 160.319 7.126 160.534 6.734C160.749 6.33267 160.907 5.964 161.01 5.628C160.917 5.628 160.749 5.628 160.506 5.628C160.263 5.628 159.979 5.628 159.652 5.628C159.335 5.628 158.999 5.628 158.644 5.628C158.289 5.628 157.949 5.628 157.622 5.628C157.305 5.628 157.025 5.628 156.782 5.628C156.539 5.628 156.367 5.628 156.264 5.628C156.068 5.628 155.863 5.63733 155.648 5.656C155.433 5.66533 155.228 5.67933 155.032 5.698C154.845 5.70733 154.701 5.71667 154.598 5.726V3.738C154.738 3.74733 154.911 3.76133 155.116 3.78C155.321 3.79867 155.527 3.81267 155.732 3.822C155.947 3.83133 156.124 3.836 156.264 3.836C156.385 3.836 156.577 3.836 156.838 3.836C157.099 3.836 157.398 3.836 157.734 3.836C158.07 3.836 158.415 3.836 158.77 3.836C159.134 3.836 159.479 3.836 159.806 3.836C160.142 3.836 160.431 3.836 160.674 3.836C160.917 3.836 161.094 3.836 161.206 3.836C161.514 3.836 161.794 3.81733 162.046 3.78C162.307 3.74267 162.508 3.70067 162.648 3.654L163.796 4.508ZM160.66 8.862C161.024 9.15133 161.411 9.48733 161.822 9.87C162.233 10.2527 162.639 10.6493 163.04 11.06C163.441 11.4707 163.81 11.8673 164.146 12.25C164.491 12.6233 164.781 12.95 165.014 13.23L163.418 14.616C163.073 14.14 162.676 13.6453 162.228 13.132C161.789 12.6187 161.323 12.11 160.828 11.606C160.343 11.0927 159.848 10.6073 159.344 10.15L160.66 8.862ZM169.074 3.71C169.279 3.71933 169.494 3.73333 169.718 3.752C169.942 3.77067 170.185 3.78 170.446 3.78C170.642 3.78 170.913 3.78 171.258 3.78C171.603 3.78 171.995 3.78 172.434 3.78C172.873 3.78 173.325 3.78 173.792 3.78C174.259 3.78 174.711 3.78 175.15 3.78C175.589 3.78 175.985 3.78 176.34 3.78C176.695 3.78 176.975 3.78 177.18 3.78C177.423 3.78 177.651 3.77533 177.866 3.766C178.081 3.74733 178.272 3.72867 178.44 3.71V5.46C178.263 5.45067 178.071 5.44133 177.866 5.432C177.67 5.42267 177.441 5.418 177.18 5.418C176.975 5.418 176.685 5.418 176.312 5.418C175.939 5.418 175.514 5.418 175.038 5.418C174.571 5.418 174.091 5.418 173.596 5.418C173.111 5.418 172.649 5.418 172.21 5.418C171.771 5.418 171.393 5.418 171.076 5.418C170.768 5.418 170.558 5.418 170.446 5.418C170.185 5.418 169.942 5.42267 169.718 5.432C169.494 5.432 169.279 5.44133 169.074 5.46V3.71ZM173.89 8.638C173.89 8.806 173.89 9.03 173.89 9.31C173.89 9.59 173.89 9.88867 173.89 10.206C173.89 10.514 173.89 10.7987 173.89 11.06C173.89 11.3213 173.89 11.5127 173.89 11.634C173.89 12.0167 174.016 12.2873 174.268 12.446C174.52 12.6047 174.926 12.684 175.486 12.684C176.121 12.684 176.741 12.6653 177.348 12.628C177.955 12.5907 178.538 12.544 179.098 12.488L178.972 14.378C178.673 14.3967 178.309 14.4153 177.88 14.434C177.46 14.4527 177.012 14.4667 176.536 14.476C176.06 14.4853 175.603 14.49 175.164 14.49C174.315 14.49 173.657 14.3967 173.19 14.21C172.733 14.0233 172.415 13.762 172.238 13.426C172.061 13.0807 171.972 12.67 171.972 12.194C171.972 11.97 171.972 11.6947 171.972 11.368C171.972 11.0413 171.972 10.7007 171.972 10.346C171.972 9.99133 171.972 9.66 171.972 9.352C171.972 9.044 171.972 8.78733 171.972 8.582C171.972 8.47 171.972 8.29267 171.972 8.05C171.972 7.80733 171.972 7.532 171.972 7.224C171.972 6.90667 171.972 6.59867 171.972 6.3C171.972 6.00133 171.972 5.73533 171.972 5.502C171.972 5.25933 171.972 5.096 171.972 5.012H173.89C173.89 5.096 173.89 5.26867 173.89 5.53C173.89 5.79133 173.89 6.09467 173.89 6.44C173.89 6.776 173.89 7.10733 173.89 7.434C173.89 7.76067 173.89 8.036 173.89 8.26C173.89 8.484 173.89 8.61 173.89 8.638ZM168.15 7.728C168.355 7.73733 168.607 7.75133 168.906 7.77C169.214 7.78867 169.475 7.798 169.69 7.798C169.877 7.798 170.147 7.798 170.502 7.798C170.866 7.798 171.281 7.798 171.748 7.798C172.224 7.798 172.723 7.798 173.246 7.798C173.778 7.798 174.301 7.798 174.814 7.798C175.327 7.798 175.808 7.798 176.256 7.798C176.713 7.798 177.101 7.798 177.418 7.798C177.745 7.798 177.978 7.798 178.118 7.798C178.221 7.798 178.356 7.79333 178.524 7.784C178.692 7.77467 178.86 7.77 179.028 7.77C179.205 7.76067 179.355 7.75133 179.476 7.742L179.49 9.534C179.303 9.51533 179.075 9.506 178.804 9.506C178.533 9.49667 178.319 9.492 178.16 9.492C178.02 9.492 177.782 9.492 177.446 9.492C177.119 9.492 176.727 9.492 176.27 9.492C175.813 9.492 175.323 9.492 174.8 9.492C174.277 9.492 173.755 9.492 173.232 9.492C172.709 9.492 172.21 9.492 171.734 9.492C171.267 9.492 170.857 9.492 170.502 9.492C170.147 9.492 169.877 9.492 169.69 9.492C169.494 9.492 169.242 9.50133 168.934 9.52C168.626 9.52933 168.365 9.54333 168.15 9.562V7.728ZM183.872 3.43C184.096 3.46733 184.343 3.49533 184.614 3.514C184.885 3.53267 185.137 3.542 185.37 3.542C185.547 3.542 185.79 3.542 186.098 3.542C186.406 3.542 186.747 3.542 187.12 3.542C187.493 3.542 187.862 3.542 188.226 3.542C188.599 3.542 188.94 3.542 189.248 3.542C189.556 3.542 189.789 3.542 189.948 3.542C190.191 3.542 190.443 3.53267 190.704 3.514C190.965 3.49533 191.217 3.46733 191.46 3.43V5.236C191.217 5.21733 190.965 5.208 190.704 5.208C190.443 5.19867 190.191 5.194 189.948 5.194C189.789 5.194 189.556 5.194 189.248 5.194C188.94 5.194 188.599 5.194 188.226 5.194C187.862 5.194 187.493 5.194 187.12 5.194C186.756 5.194 186.415 5.194 186.098 5.194C185.79 5.194 185.547 5.194 185.37 5.194C185.127 5.194 184.871 5.19867 184.6 5.208C184.329 5.208 184.087 5.21733 183.872 5.236V3.43ZM182.248 7.014C182.453 7.042 182.673 7.06533 182.906 7.084C183.149 7.09333 183.377 7.098 183.592 7.098C183.713 7.098 183.956 7.098 184.32 7.098C184.684 7.098 185.123 7.098 185.636 7.098C186.159 7.098 186.714 7.098 187.302 7.098C187.89 7.098 188.478 7.098 189.066 7.098C189.663 7.098 190.219 7.098 190.732 7.098C191.245 7.098 191.679 7.098 192.034 7.098C192.398 7.098 192.641 7.098 192.762 7.098C192.911 7.098 193.112 7.09333 193.364 7.084C193.625 7.06533 193.849 7.042 194.036 7.014V8.834C193.868 8.81533 193.663 8.806 193.42 8.806C193.177 8.79667 192.958 8.792 192.762 8.792C192.641 8.792 192.398 8.792 192.034 8.792C191.679 8.792 191.245 8.792 190.732 8.792C190.219 8.792 189.663 8.792 189.066 8.792C188.478 8.792 187.89 8.792 187.302 8.792C186.714 8.792 186.159 8.792 185.636 8.792C185.123 8.792 184.684 8.792 184.32 8.792C183.956 8.792 183.713 8.792 183.592 8.792C183.387 8.792 183.158 8.79667 182.906 8.806C182.663 8.81533 182.444 8.82933 182.248 8.848V7.014ZM189.416 7.994C189.416 8.89933 189.337 9.716 189.178 10.444C189.019 11.1627 188.791 11.8113 188.492 12.39C188.333 12.7073 188.109 13.034 187.82 13.37C187.54 13.706 187.218 14.0233 186.854 14.322C186.49 14.6207 186.098 14.8727 185.678 15.078L184.04 13.888C184.535 13.7013 185.011 13.426 185.468 13.062C185.925 12.6887 186.294 12.2967 186.574 11.886C186.929 11.354 187.167 10.7613 187.288 10.108C187.409 9.45467 187.47 8.75 187.47 7.994H189.416ZM192.3 2.464C192.421 2.632 192.547 2.83267 192.678 3.066C192.818 3.29933 192.949 3.53267 193.07 3.766C193.201 3.99933 193.313 4.20467 193.406 4.382L192.286 4.872C192.137 4.58267 191.959 4.256 191.754 3.892C191.558 3.51867 191.367 3.19667 191.18 2.926L192.3 2.464ZM193.952 1.834C194.073 2.01133 194.204 2.22133 194.344 2.464C194.484 2.69733 194.619 2.93067 194.75 3.164C194.89 3.388 195.002 3.57933 195.086 3.738L193.966 4.228C193.826 3.92933 193.649 3.598 193.434 3.234C193.229 2.87 193.033 2.55733 192.846 2.296L193.952 1.834ZM202.842 13.692C202.87 13.552 202.893 13.3933 202.912 13.216C202.94 13.0293 202.954 12.8427 202.954 12.656C202.954 12.5533 202.954 12.348 202.954 12.04C202.954 11.732 202.954 11.3587 202.954 10.92C202.954 10.4813 202.954 10.01 202.954 9.506C202.954 8.99267 202.954 8.47467 202.954 7.952C202.954 7.42933 202.954 6.93933 202.954 6.482C202.954 6.01533 202.954 5.60933 202.954 5.264C202.954 4.90933 202.954 4.65267 202.954 4.494C202.954 4.17667 202.935 3.90133 202.898 3.668C202.87 3.43467 202.851 3.30867 202.842 3.29H204.928C204.919 3.30867 204.9 3.43933 204.872 3.682C204.844 3.91533 204.83 4.19067 204.83 4.508C204.83 4.66667 204.83 4.90467 204.83 5.222C204.83 5.53 204.83 5.88933 204.83 6.3C204.83 6.70133 204.83 7.13067 204.83 7.588C204.83 8.04533 204.83 8.498 204.83 8.946C204.83 9.38467 204.83 9.80467 204.83 10.206C204.83 10.598 204.83 10.934 204.83 11.214C204.83 11.494 204.83 11.6993 204.83 11.83C205.213 11.662 205.609 11.4333 206.02 11.144C206.431 10.8547 206.832 10.5187 207.224 10.136C207.625 9.744 207.98 9.324 208.288 8.876L209.366 10.416C208.983 10.92 208.517 11.4147 207.966 11.9C207.425 12.3853 206.865 12.8287 206.286 13.23C205.707 13.6313 205.152 13.9673 204.62 14.238C204.471 14.322 204.349 14.3967 204.256 14.462C204.163 14.5367 204.083 14.602 204.018 14.658L202.842 13.692ZM196.36 13.482C196.976 13.0527 197.48 12.5347 197.872 11.928C198.264 11.3213 198.553 10.724 198.74 10.136C198.843 9.828 198.917 9.45 198.964 9.002C199.02 8.54467 199.062 8.05933 199.09 7.546C199.118 7.02333 199.132 6.51 199.132 6.006C199.141 5.49267 199.146 5.02133 199.146 4.592C199.146 4.312 199.132 4.074 199.104 3.878C199.085 3.67267 199.057 3.48133 199.02 3.304H201.078C201.069 3.32267 201.055 3.402 201.036 3.542C201.027 3.67267 201.013 3.83133 200.994 4.018C200.985 4.19533 200.98 4.382 200.98 4.578C200.98 4.98867 200.975 5.46933 200.966 6.02C200.957 6.56133 200.938 7.11667 200.91 7.686C200.882 8.25533 200.84 8.79667 200.784 9.31C200.728 9.814 200.653 10.2433 200.56 10.598C200.345 11.3913 200.023 12.1287 199.594 12.81C199.174 13.482 198.665 14.084 198.068 14.616L196.36 13.482Z" fill="#4A5565"/>
<path d="M260 155C260 226.797 201.797 285 130 285C58.203 285 0 226.797 0 155C0 83.203 58.203 25 130 25C201.797 25 260 83.203 260 155ZM32.5 155C32.5 208.848 76.1522 252.5 130 252.5C183.848 252.5 227.5 208.848 227.5 155C227.5 101.152 183.848 57.5 130 57.5C76.1522 57.5 32.5 101.152 32.5 155Z" fill="#00BC7D"/>
<path d="M260 155C260 182.453 251.309 209.202 235.172 231.412L208.879 212.309C220.982 195.651 227.5 175.59 227.5 155H260Z" fill="#2B7FFF"/>
<path d="M111.075 120.5V108.136H116.025C116.934 108.136 117.693 108.271 118.301 108.541C118.908 108.81 119.365 109.185 119.671 109.664C119.977 110.139 120.13 110.686 120.13 111.306C120.13 111.789 120.033 112.213 119.84 112.58C119.647 112.942 119.381 113.24 119.043 113.473C118.709 113.702 118.327 113.865 117.896 113.962V114.083C118.367 114.103 118.808 114.236 119.218 114.481C119.633 114.727 119.969 115.071 120.227 115.513C120.484 115.952 120.613 116.475 120.613 117.083C120.613 117.739 120.45 118.325 120.124 118.84C119.802 119.351 119.325 119.755 118.693 120.053C118.061 120.351 117.283 120.5 116.357 120.5H111.075ZM113.689 118.363H115.82C116.548 118.363 117.079 118.224 117.413 117.946C117.747 117.665 117.914 117.29 117.914 116.824C117.914 116.481 117.832 116.18 117.667 115.918C117.502 115.656 117.266 115.451 116.961 115.302C116.659 115.153 116.299 115.079 115.88 115.079H113.689V118.363ZM113.689 113.31H115.626C115.985 113.31 116.303 113.248 116.58 113.123C116.862 112.994 117.083 112.813 117.244 112.58C117.409 112.346 117.492 112.066 117.492 111.74C117.492 111.294 117.333 110.933 117.015 110.66C116.701 110.386 116.254 110.249 115.675 110.249H113.689V113.31ZM127.198 111.227V113.159H121.614V111.227H127.198ZM122.881 109.006H125.453V117.651C125.453 117.888 125.489 118.073 125.562 118.206C125.634 118.335 125.735 118.425 125.864 118.478C125.996 118.53 126.149 118.556 126.322 118.556C126.443 118.556 126.564 118.546 126.685 118.526C126.805 118.502 126.898 118.484 126.962 118.472L127.367 120.385C127.238 120.426 127.057 120.472 126.823 120.524C126.59 120.58 126.306 120.615 125.972 120.627C125.352 120.651 124.809 120.568 124.342 120.379C123.879 120.19 123.519 119.896 123.262 119.498C123.004 119.099 122.877 118.596 122.881 117.989V109.006ZM132.963 120.681C132.025 120.681 131.214 120.482 130.53 120.083C129.85 119.681 129.325 119.122 128.954 118.405C128.584 117.685 128.399 116.85 128.399 115.9C128.399 114.942 128.584 114.105 128.954 113.388C129.325 112.668 129.85 112.109 130.53 111.71C131.214 111.308 132.025 111.107 132.963 111.107C133.901 111.107 134.71 111.308 135.39 111.71C136.074 112.109 136.601 112.668 136.972 113.388C137.342 114.105 137.527 114.942 137.527 115.9C137.527 116.85 137.342 117.685 136.972 118.405C136.601 119.122 136.074 119.681 135.39 120.083C134.71 120.482 133.901 120.681 132.963 120.681ZM132.975 118.689C133.402 118.689 133.758 118.568 134.044 118.327C134.329 118.081 134.545 117.747 134.69 117.325C134.838 116.902 134.913 116.421 134.913 115.882C134.913 115.342 134.838 114.862 134.69 114.439C134.545 114.016 134.329 113.682 134.044 113.437C133.758 113.191 133.402 113.069 132.975 113.069C132.544 113.069 132.182 113.191 131.888 113.437C131.599 113.682 131.379 114.016 131.23 114.439C131.085 114.862 131.013 115.342 131.013 115.882C131.013 116.421 131.085 116.902 131.23 117.325C131.379 117.747 131.599 118.081 131.888 118.327C132.182 118.568 132.544 118.689 132.975 118.689ZM139.247 120.5V108.136H144.198C145.107 108.136 145.866 108.271 146.474 108.541C147.081 108.81 147.538 109.185 147.844 109.664C148.15 110.139 148.303 110.686 148.303 111.306C148.303 111.789 148.206 112.213 148.013 112.58C147.82 112.942 147.554 113.24 147.216 113.473C146.882 113.702 146.5 113.865 146.069 113.962V114.083C146.54 114.103 146.981 114.236 147.391 114.481C147.806 114.727 148.142 115.071 148.399 115.513C148.657 115.952 148.786 116.475 148.786 117.083C148.786 117.739 148.623 118.325 148.297 118.84C147.975 119.351 147.498 119.755 146.866 120.053C146.234 120.351 145.455 120.5 144.53 120.5H139.247ZM141.861 118.363H143.992C144.721 118.363 145.252 118.224 145.586 117.946C145.92 117.665 146.087 117.29 146.087 116.824C146.087 116.481 146.005 116.18 145.84 115.918C145.675 115.656 145.439 115.451 145.133 115.302C144.832 115.153 144.471 115.079 144.053 115.079H141.861V118.363ZM141.861 113.31H143.799C144.157 113.31 144.475 113.248 144.753 113.123C145.035 112.994 145.256 112.813 145.417 112.58C145.582 112.346 145.665 112.066 145.665 111.74C145.665 111.294 145.506 110.933 145.188 110.66C144.874 110.386 144.427 110.249 143.848 110.249H141.861V113.31Z" fill="#1E2939"/>
<path d="M105.69 139.42C108.384 139.42 110.974 139.872 113.463 140.776C115.969 141.679 118.202 143.119 120.162 145.097C122.139 147.074 123.699 149.699 124.841 152.972C126 156.227 126.588 160.224 126.605 164.963C126.605 169.412 126.102 173.384 125.097 176.878C124.108 180.355 122.685 183.312 120.827 185.75C118.969 188.188 116.727 190.045 114.102 191.324C111.477 192.585 108.545 193.216 105.307 193.216C101.813 193.216 98.7273 192.543 96.0511 191.196C93.375 189.832 91.2188 187.983 89.5824 185.648C87.9631 183.295 86.983 180.653 86.642 177.722H97.5597C97.9858 179.631 98.8807 181.114 100.244 182.17C101.608 183.21 103.295 183.73 105.307 183.73C108.716 183.73 111.307 182.247 113.08 179.281C114.852 176.298 115.747 172.216 115.764 167.034H115.406C114.622 168.568 113.565 169.889 112.236 170.997C110.906 172.088 109.381 172.932 107.659 173.528C105.955 174.125 104.139 174.423 102.213 174.423C99.1278 174.423 96.375 173.699 93.9545 172.25C91.5341 170.801 89.625 168.807 88.2273 166.267C86.8295 163.727 86.1307 160.83 86.1307 157.574C86.1136 154.062 86.9233 150.935 88.5597 148.19C90.196 145.446 92.4801 143.298 95.4119 141.747C98.3608 140.179 101.787 139.403 105.69 139.42ZM105.767 148.114C104.045 148.114 102.511 148.523 101.165 149.341C99.8352 150.159 98.7784 151.259 97.9943 152.639C97.2273 154.02 96.8523 155.562 96.8693 157.267C96.8693 158.989 97.2443 160.54 97.9943 161.92C98.7614 163.284 99.8011 164.375 101.114 165.193C102.443 165.994 103.96 166.395 105.665 166.395C106.943 166.395 108.128 166.156 109.219 165.679C110.31 165.202 111.256 164.545 112.057 163.71C112.875 162.858 113.514 161.878 113.974 160.77C114.435 159.662 114.665 158.486 114.665 157.241C114.648 155.588 114.256 154.071 113.489 152.69C112.722 151.31 111.665 150.202 110.318 149.366C108.972 148.531 107.455 148.114 105.767 148.114ZM154.807 193.651C150.409 193.634 146.625 192.551 143.455 190.403C140.301 188.256 137.872 185.145 136.168 181.071C134.48 176.997 133.645 172.097 133.662 166.369C133.662 160.659 134.506 155.793 136.193 151.77C137.898 147.747 140.327 144.687 143.48 142.591C146.651 140.477 150.426 139.42 154.807 139.42C159.188 139.42 162.955 140.477 166.108 142.591C169.278 144.705 171.716 147.773 173.42 151.795C175.125 155.801 175.969 160.659 175.952 166.369C175.952 172.114 175.099 177.023 173.395 181.097C171.707 185.17 169.287 188.281 166.134 190.429C162.98 192.577 159.205 193.651 154.807 193.651ZM154.807 184.472C157.807 184.472 160.202 182.963 161.991 179.946C163.781 176.929 164.668 172.403 164.651 166.369C164.651 162.398 164.241 159.091 163.423 156.449C162.622 153.807 161.48 151.821 159.997 150.491C158.531 149.162 156.801 148.497 154.807 148.497C151.824 148.497 149.438 149.989 147.648 152.972C145.858 155.955 144.955 160.42 144.938 166.369C144.938 170.392 145.338 173.75 146.139 176.443C146.957 179.119 148.108 181.131 149.591 182.477C151.074 183.807 152.812 184.472 154.807 184.472Z" fill="#00BC7D"/>
<path d="M186.914 190.318V189.705C186.914 189.239 187.013 188.811 187.21 188.42C187.41 188.027 187.7 187.712 188.079 187.477C188.461 187.239 188.927 187.119 189.477 187.119C190.033 187.119 190.501 187.237 190.88 187.472C191.263 187.706 191.55 188.021 191.744 188.415C191.941 188.805 192.039 189.235 192.039 189.705V190.318C192.039 190.784 191.941 191.214 191.744 191.608C191.547 191.998 191.257 192.311 190.874 192.545C190.492 192.784 190.026 192.903 189.477 192.903C188.92 192.903 188.452 192.784 188.073 192.545C187.694 192.311 187.406 191.998 187.21 191.608C187.013 191.214 186.914 190.784 186.914 190.318ZM188.567 189.705V190.318C188.567 190.587 188.632 190.841 188.761 191.08C188.893 191.318 189.132 191.438 189.477 191.438C189.821 191.438 190.056 191.32 190.181 191.085C190.31 190.85 190.374 190.595 190.374 190.318V189.705C190.374 189.428 190.314 189.17 190.192 188.932C190.071 188.693 189.833 188.574 189.477 188.574C189.136 188.574 188.899 188.693 188.766 188.932C188.634 189.17 188.567 189.428 188.567 189.705ZM180.942 183.659V183.045C180.942 182.576 181.043 182.146 181.244 181.756C181.444 181.362 181.734 181.047 182.113 180.812C182.496 180.578 182.958 180.46 183.499 180.46C184.06 180.46 184.53 180.578 184.908 180.812C185.287 181.047 185.575 181.362 185.772 181.756C185.969 182.146 186.067 182.576 186.067 183.045V183.659C186.067 184.129 185.967 184.559 185.766 184.949C185.569 185.339 185.28 185.652 184.897 185.886C184.518 186.117 184.052 186.233 183.499 186.233C182.946 186.233 182.478 186.116 182.096 185.881C181.717 185.642 181.429 185.33 181.232 184.943C181.039 184.553 180.942 184.125 180.942 183.659ZM182.607 183.045V183.659C182.607 183.936 182.672 184.191 182.8 184.426C182.933 184.661 183.166 184.778 183.499 184.778C183.848 184.778 184.085 184.661 184.21 184.426C184.338 184.191 184.403 183.936 184.403 183.659V183.045C184.403 182.769 184.342 182.511 184.221 182.273C184.1 182.034 183.859 181.915 183.499 181.915C183.162 181.915 182.929 182.036 182.8 182.278C182.672 182.521 182.607 182.777 182.607 183.045ZM181.692 192.5L189.692 180.864H191.181L183.181 192.5H181.692Z" fill="#1E2939"/>
<path d="M280.959 143V134.273H284.155C284.774 134.273 285.287 134.375 285.693 134.58C286.099 134.781 286.403 135.055 286.605 135.402C286.807 135.746 286.908 136.134 286.908 136.565C286.908 136.929 286.841 137.236 286.707 137.486C286.574 137.733 286.395 137.932 286.17 138.082C285.949 138.23 285.705 138.338 285.438 138.406V138.491C285.727 138.506 286.01 138.599 286.286 138.773C286.564 138.943 286.794 139.186 286.976 139.501C287.158 139.817 287.249 140.2 287.249 140.652C287.249 141.098 287.143 141.499 286.933 141.854C286.726 142.206 286.405 142.486 285.97 142.693C285.536 142.898 284.98 143 284.304 143H280.959ZM282.276 141.871H284.176C284.807 141.871 285.259 141.749 285.531 141.504C285.804 141.26 285.94 140.955 285.94 140.588C285.94 140.312 285.871 140.06 285.732 139.83C285.592 139.599 285.393 139.416 285.135 139.28C284.879 139.143 284.575 139.075 284.223 139.075H282.276V141.871ZM282.276 138.048H284.04C284.335 138.048 284.601 137.991 284.837 137.878C285.075 137.764 285.264 137.605 285.403 137.401C285.545 137.193 285.616 136.949 285.616 136.668C285.616 136.307 285.49 136.004 285.237 135.76C284.984 135.516 284.597 135.393 284.074 135.393H282.276V138.048ZM291.763 136.455V137.477H288.188V136.455H291.763ZM289.147 134.886H290.421V141.078C290.421 141.325 290.458 141.511 290.532 141.636C290.606 141.759 290.701 141.842 290.817 141.888C290.937 141.93 291.066 141.952 291.205 141.952C291.308 141.952 291.397 141.945 291.474 141.93C291.55 141.916 291.61 141.905 291.653 141.896L291.883 142.949C291.809 142.977 291.704 143.006 291.567 143.034C291.431 143.065 291.261 143.082 291.056 143.085C290.721 143.091 290.408 143.031 290.119 142.906C289.829 142.781 289.594 142.588 289.415 142.327C289.237 142.065 289.147 141.737 289.147 141.342V134.886ZM295.86 143.132C295.246 143.132 294.711 142.991 294.253 142.71C293.796 142.429 293.441 142.036 293.188 141.53C292.935 141.024 292.809 140.433 292.809 139.757C292.809 139.078 292.935 138.484 293.188 137.976C293.441 137.467 293.796 137.072 294.253 136.791C294.711 136.51 295.246 136.369 295.86 136.369C296.473 136.369 297.009 136.51 297.466 136.791C297.924 137.072 298.279 137.467 298.532 137.976C298.784 138.484 298.911 139.078 298.911 139.757C298.911 140.433 298.784 141.024 298.532 141.53C298.279 142.036 297.924 142.429 297.466 142.71C297.009 142.991 296.473 143.132 295.86 143.132ZM295.864 142.062C296.262 142.062 296.591 141.957 296.853 141.747C297.114 141.537 297.307 141.257 297.432 140.908C297.56 140.558 297.624 140.173 297.624 139.753C297.624 139.335 297.56 138.952 297.432 138.602C297.307 138.25 297.114 137.967 296.853 137.754C296.591 137.541 296.262 137.435 295.864 137.435C295.463 137.435 295.131 137.541 294.867 137.754C294.605 137.967 294.411 138.25 294.283 138.602C294.158 138.952 294.096 139.335 294.096 139.753C294.096 140.173 294.158 140.558 294.283 140.908C294.411 141.257 294.605 141.537 294.867 141.747C295.131 141.957 295.463 142.062 295.864 142.062ZM307.684 137.111H306.354C306.303 136.827 306.208 136.577 306.069 136.361C305.93 136.145 305.759 135.962 305.558 135.811C305.356 135.661 305.13 135.547 304.88 135.47C304.633 135.393 304.37 135.355 304.092 135.355C303.589 135.355 303.138 135.482 302.741 135.734C302.346 135.987 302.033 136.358 301.803 136.847C301.576 137.335 301.462 137.932 301.462 138.636C301.462 139.347 301.576 139.946 301.803 140.435C302.033 140.923 302.347 141.293 302.745 141.543C303.143 141.793 303.59 141.918 304.087 141.918C304.363 141.918 304.624 141.881 304.871 141.807C305.121 141.73 305.347 141.618 305.549 141.47C305.751 141.322 305.921 141.142 306.06 140.929C306.202 140.713 306.3 140.466 306.354 140.188L307.684 140.192C307.613 140.621 307.475 141.016 307.271 141.376C307.069 141.734 306.809 142.044 306.491 142.305C306.175 142.564 305.815 142.764 305.408 142.906C305.002 143.048 304.559 143.119 304.079 143.119C303.323 143.119 302.65 142.94 302.059 142.582C301.468 142.222 301.002 141.706 300.661 141.036C300.323 140.365 300.154 139.565 300.154 138.636C300.154 137.705 300.325 136.905 300.665 136.237C301.006 135.567 301.472 135.053 302.063 134.695C302.654 134.334 303.326 134.153 304.079 134.153C304.542 134.153 304.974 134.22 305.374 134.354C305.778 134.484 306.14 134.678 306.461 134.933C306.782 135.186 307.048 135.496 307.258 135.862C307.468 136.226 307.61 136.642 307.684 137.111Z" fill="#1E2939"/>
<path d="M292.011 155.727V179H287.091V160.398H286.955L281.625 163.739V159.375L287.386 155.727H292.011ZM306.668 179.511C304.713 179.504 303.031 179.023 301.622 178.068C300.221 177.114 299.141 175.731 298.384 173.92C297.634 172.11 297.262 169.932 297.27 167.386C297.27 164.848 297.645 162.686 298.395 160.898C299.152 159.11 300.232 157.75 301.634 156.818C303.043 155.879 304.721 155.409 306.668 155.409C308.615 155.409 310.289 155.879 311.69 156.818C313.099 157.758 314.183 159.121 314.94 160.909C315.698 162.689 316.073 164.848 316.065 167.386C316.065 169.939 315.687 172.121 314.929 173.932C314.179 175.742 313.103 177.125 311.702 178.08C310.3 179.034 308.622 179.511 306.668 179.511ZM306.668 175.432C308.001 175.432 309.065 174.761 309.861 173.42C310.656 172.08 311.05 170.068 311.043 167.386C311.043 165.621 310.861 164.152 310.497 162.977C310.141 161.803 309.634 160.92 308.974 160.33C308.323 159.739 307.554 159.443 306.668 159.443C305.342 159.443 304.281 160.106 303.486 161.432C302.69 162.758 302.289 164.742 302.281 167.386C302.281 169.174 302.459 170.667 302.815 171.864C303.179 173.053 303.69 173.947 304.349 174.545C305.009 175.136 305.781 175.432 306.668 175.432Z" fill="#2B7FFF"/>
<path d="M325 176.818V176.205C325 175.739 325.098 175.311 325.295 174.92C325.496 174.527 325.786 174.212 326.165 173.977C326.547 173.739 327.013 173.619 327.562 173.619C328.119 173.619 328.587 173.737 328.966 173.972C329.348 174.206 329.636 174.521 329.83 174.915C330.027 175.305 330.125 175.735 330.125 176.205V176.818C330.125 177.284 330.027 177.714 329.83 178.108C329.633 178.498 329.343 178.811 328.96 179.045C328.578 179.284 328.112 179.403 327.562 179.403C327.006 179.403 326.538 179.284 326.159 179.045C325.78 178.811 325.492 178.498 325.295 178.108C325.098 177.714 325 177.284 325 176.818ZM326.653 176.205V176.818C326.653 177.087 326.718 177.341 326.847 177.58C326.979 177.818 327.218 177.938 327.562 177.938C327.907 177.938 328.142 177.82 328.267 177.585C328.396 177.35 328.46 177.095 328.46 176.818V176.205C328.46 175.928 328.4 175.67 328.278 175.432C328.157 175.193 327.919 175.074 327.562 175.074C327.222 175.074 326.985 175.193 326.852 175.432C326.72 175.67 326.653 175.928 326.653 176.205ZM319.028 170.159V169.545C319.028 169.076 319.129 168.646 319.33 168.256C319.53 167.862 319.82 167.547 320.199 167.312C320.581 167.078 321.044 166.96 321.585 166.96C322.146 166.96 322.616 167.078 322.994 167.312C323.373 167.547 323.661 167.862 323.858 168.256C324.055 168.646 324.153 169.076 324.153 169.545V170.159C324.153 170.629 324.053 171.059 323.852 171.449C323.655 171.839 323.366 172.152 322.983 172.386C322.604 172.617 322.138 172.733 321.585 172.733C321.032 172.733 320.564 172.616 320.182 172.381C319.803 172.142 319.515 171.83 319.318 171.443C319.125 171.053 319.028 170.625 319.028 170.159ZM320.693 169.545V170.159C320.693 170.436 320.758 170.691 320.886 170.926C321.019 171.161 321.252 171.278 321.585 171.278C321.934 171.278 322.17 171.161 322.295 170.926C322.424 170.691 322.489 170.436 322.489 170.159V169.545C322.489 169.269 322.428 169.011 322.307 168.773C322.186 168.534 321.945 168.415 321.585 168.415C321.248 168.415 321.015 168.536 320.886 168.778C320.758 169.021 320.693 169.277 320.693 169.545ZM319.778 179L327.778 167.364H329.267L321.267 179H319.778Z" fill="#1E2939"/>
</svg>
