<svg width="411" height="287" viewBox="0 0 411 287" fill="none" xmlns="http://www.w3.org/2000/svg">
<path d="M116.408 2.758H122.4V4.2H116.408V2.758ZM116.926 10.276H123.464V11.746H116.926V10.276ZM116.086 13.398H124.052V14.868H116.086V13.398ZM121.924 2.758H122.232L122.54 2.688L123.66 3.178C123.296 4.27933 122.783 5.23133 122.12 6.034C121.457 6.83667 120.683 7.50867 119.796 8.05C118.909 8.582 117.939 9.01133 116.884 9.338C116.791 9.13267 116.651 8.89467 116.464 8.624C116.287 8.344 116.119 8.11533 115.96 7.938C116.903 7.69533 117.771 7.35 118.564 6.902C119.367 6.44467 120.057 5.88933 120.636 5.236C121.224 4.58267 121.653 3.84067 121.924 3.01V2.758ZM118.578 4.018C119.063 4.97 119.796 5.78667 120.776 6.468C121.765 7.14 122.923 7.62067 124.248 7.91C124.08 8.06867 123.893 8.28333 123.688 8.554C123.492 8.82467 123.338 9.06267 123.226 9.268C121.817 8.88533 120.599 8.29267 119.572 7.49C118.555 6.68733 117.738 5.68867 117.122 4.494L118.578 4.018ZM119.306 8.596H120.958V14.336H119.306V8.596ZM113.02 2.114L114.476 2.66C114.289 3.01467 114.093 3.38333 113.888 3.766C113.683 4.14867 113.482 4.51267 113.286 4.858C113.09 5.20333 112.903 5.502 112.726 5.754L111.606 5.278C111.774 4.98867 111.947 4.662 112.124 4.298C112.301 3.934 112.469 3.56067 112.628 3.178C112.787 2.79533 112.917 2.44067 113.02 2.114ZM114.63 3.78L116.002 4.396C115.666 4.928 115.297 5.488 114.896 6.076C114.495 6.65467 114.093 7.21467 113.692 7.756C113.291 8.288 112.913 8.75467 112.558 9.156L111.578 8.61C111.839 8.29267 112.11 7.938 112.39 7.546C112.67 7.14467 112.945 6.72933 113.216 6.3C113.496 5.86133 113.757 5.42733 114 4.998C114.243 4.55933 114.453 4.15333 114.63 3.78ZM110.864 5.432L111.676 4.284C111.919 4.49867 112.166 4.73667 112.418 4.998C112.679 5.25 112.917 5.50667 113.132 5.768C113.356 6.02 113.524 6.24867 113.636 6.454L112.782 7.756C112.67 7.532 112.507 7.28467 112.292 7.014C112.087 6.74333 111.858 6.468 111.606 6.188C111.354 5.908 111.107 5.656 110.864 5.432ZM114.224 7.112L115.33 6.65C115.507 6.96733 115.68 7.308 115.848 7.672C116.025 8.02667 116.175 8.37667 116.296 8.722C116.427 9.058 116.515 9.36133 116.562 9.632L115.372 10.164C115.325 9.89333 115.241 9.58533 115.12 9.24C115.008 8.88533 114.873 8.52133 114.714 8.148C114.555 7.77467 114.392 7.42933 114.224 7.112ZM110.85 8.274C111.494 8.25533 112.264 8.22733 113.16 8.19C114.056 8.15267 114.966 8.11533 115.89 8.078L115.876 9.408C115.008 9.47333 114.145 9.534 113.286 9.59C112.437 9.646 111.671 9.69733 110.99 9.744L110.85 8.274ZM114.518 10.598L115.694 10.22C115.871 10.6213 116.039 11.06 116.198 11.536C116.366 12.0027 116.492 12.4133 116.576 12.768L115.33 13.216C115.265 12.8613 115.153 12.4413 114.994 11.956C114.835 11.4613 114.677 11.0087 114.518 10.598ZM111.466 10.332L112.852 10.584C112.777 11.256 112.665 11.9187 112.516 12.572C112.367 13.2253 112.194 13.776 111.998 14.224C111.905 14.1587 111.779 14.084 111.62 14C111.461 13.9253 111.298 13.8507 111.13 13.776C110.971 13.7013 110.831 13.6453 110.71 13.608C110.915 13.188 111.079 12.6887 111.2 12.11C111.321 11.522 111.41 10.9293 111.466 10.332ZM113.034 9.016H114.504V15.26H113.034V9.016ZM133.208 8.82V10.108H136.792V8.82H133.208ZM131.836 7.602H138.22V11.326H131.836V7.602ZM134.888 3.57C134.683 3.94333 134.417 4.33533 134.09 4.746C133.763 5.15667 133.395 5.54867 132.984 5.922C132.583 6.29533 132.158 6.622 131.71 6.902C131.635 6.69667 131.523 6.46333 131.374 6.202C131.225 5.93133 131.08 5.712 130.94 5.544C131.388 5.292 131.813 4.97467 132.214 4.592C132.625 4.20933 132.993 3.80333 133.32 3.374C133.647 2.93533 133.908 2.51533 134.104 2.114H135.574C135.845 2.534 136.157 2.954 136.512 3.374C136.867 3.78467 137.245 4.158 137.646 4.494C138.047 4.82067 138.453 5.08667 138.864 5.292C138.715 5.47867 138.561 5.712 138.402 5.992C138.253 6.26267 138.127 6.51 138.024 6.734C137.623 6.49133 137.226 6.19733 136.834 5.852C136.442 5.49733 136.078 5.124 135.742 4.732C135.406 4.34 135.121 3.95267 134.888 3.57ZM134.23 6.132H135.714V8.876C135.714 9.436 135.672 10.01 135.588 10.598C135.513 11.1767 135.345 11.7507 135.084 12.32C134.832 12.88 134.459 13.412 133.964 13.916C133.469 14.42 132.807 14.8773 131.976 15.288C131.901 15.1667 131.803 15.0313 131.682 14.882C131.57 14.742 131.449 14.5973 131.318 14.448C131.187 14.308 131.066 14.196 130.954 14.112C131.691 13.7667 132.275 13.3887 132.704 12.978C133.143 12.558 133.469 12.1193 133.684 11.662C133.908 11.1953 134.053 10.724 134.118 10.248C134.193 9.772 134.23 9.30533 134.23 8.848V6.132ZM135.854 10.598C136.106 11.326 136.479 11.9887 136.974 12.586C137.478 13.174 138.089 13.6173 138.808 13.916C138.687 14.0187 138.556 14.1447 138.416 14.294C138.285 14.4527 138.159 14.616 138.038 14.784C137.917 14.952 137.814 15.106 137.73 15.246C136.946 14.826 136.297 14.238 135.784 13.482C135.28 12.726 134.879 11.872 134.58 10.92L135.854 10.598ZM132.802 5.558H137.128V6.86H132.802V5.558ZM126.95 4.746H131.038V6.02H126.95V4.746ZM126.95 6.874H131.038V8.134H126.95V6.874ZM126.152 9.002H130.954V10.304H126.152V9.002ZM128.49 3.416H129.82V9.716H128.49V3.416ZM128.952 10.934L129.61 10.724C129.75 10.9947 129.881 11.298 130.002 11.634C130.133 11.97 130.221 12.2593 130.268 12.502L129.582 12.754C129.535 12.5113 129.451 12.2173 129.33 11.872C129.218 11.5267 129.092 11.214 128.952 10.934ZM128.042 11.13L128.756 11.004C128.877 11.3587 128.98 11.7507 129.064 12.18C129.148 12.6 129.199 12.9593 129.218 13.258L128.476 13.412C128.457 13.104 128.406 12.74 128.322 12.32C128.247 11.8907 128.154 11.494 128.042 11.13ZM127.076 11.2L127.804 11.13C127.879 11.5407 127.925 11.9887 127.944 12.474C127.963 12.95 127.967 13.3607 127.958 13.706L127.188 13.818C127.216 13.4633 127.216 13.0433 127.188 12.558C127.169 12.0727 127.132 11.62 127.076 11.2ZM126.04 10.906L126.964 11.088C126.945 11.5173 126.908 11.942 126.852 12.362C126.805 12.782 126.726 13.174 126.614 13.538C126.511 13.8927 126.367 14.2007 126.18 14.462L125.326 14C125.494 13.7573 125.625 13.4773 125.718 13.16C125.811 12.8333 125.881 12.4787 125.928 12.096C125.984 11.704 126.021 11.3073 126.04 10.906ZM126.152 2.632H131.318V3.99H127.538V9.898H126.152V2.632ZM130.226 9.002H131.598C131.598 9.002 131.598 9.072 131.598 9.212C131.598 9.352 131.593 9.46867 131.584 9.562C131.547 10.6913 131.5 11.606 131.444 12.306C131.388 13.006 131.323 13.5473 131.248 13.93C131.173 14.3033 131.08 14.56 130.968 14.7C130.856 14.8587 130.735 14.9707 130.604 15.036C130.473 15.1107 130.319 15.162 130.142 15.19C130.002 15.218 129.82 15.232 129.596 15.232C129.381 15.2413 129.153 15.2413 128.91 15.232C128.901 15.0267 128.863 14.8027 128.798 14.56C128.733 14.3173 128.649 14.1073 128.546 13.93C128.733 13.9487 128.901 13.9627 129.05 13.972C129.199 13.9813 129.321 13.986 129.414 13.986C129.489 13.986 129.554 13.972 129.61 13.944C129.666 13.916 129.722 13.8693 129.778 13.804C129.853 13.7107 129.913 13.51 129.96 13.202C130.016 12.894 130.063 12.4227 130.1 11.788C130.147 11.1533 130.189 10.304 130.226 9.24V9.002ZM139.564 14L142.882 3.626H145.332L148.65 14H146.466L144.996 8.596C144.837 8.05467 144.683 7.49467 144.534 6.916C144.394 6.328 144.245 5.75867 144.086 5.208H144.03C143.899 5.768 143.755 6.33733 143.596 6.916C143.447 7.49467 143.297 8.05467 143.148 8.596L141.664 14H139.564ZM141.622 11.34V9.73H146.55V11.34H141.622ZM150.423 14V3.626H154.021C154.758 3.626 155.421 3.724 156.009 3.92C156.597 4.10667 157.063 4.43333 157.409 4.9C157.754 5.35733 157.927 5.98267 157.927 6.776C157.927 7.54133 157.754 8.17133 157.409 8.666C157.063 9.15133 156.597 9.51067 156.009 9.744C155.421 9.968 154.758 10.08 154.021 10.08H152.495V14H150.423ZM152.495 8.442H153.839C154.511 8.442 155.019 8.302 155.365 8.022C155.719 7.742 155.897 7.32667 155.897 6.776C155.897 6.216 155.719 5.82867 155.365 5.614C155.019 5.39 154.511 5.278 153.839 5.278H152.495V8.442ZM156.051 14L153.643 9.548L155.099 8.26L158.375 14H156.051ZM160.526 14V3.626H164.124C164.861 3.626 165.524 3.724 166.112 3.92C166.7 4.10667 167.166 4.43333 167.512 4.9C167.857 5.35733 168.03 5.98267 168.03 6.776C168.03 7.54133 167.857 8.17133 167.512 8.666C167.166 9.15133 166.7 9.51067 166.112 9.744C165.524 9.968 164.861 10.08 164.124 10.08H162.598V14H160.526ZM162.598 8.442H163.942C164.614 8.442 165.122 8.302 165.468 8.022C165.822 7.742 166 7.32667 166 6.776C166 6.216 165.822 5.82867 165.468 5.614C165.122 5.39 164.614 5.278 163.942 5.278H162.598V8.442ZM166.154 14L163.746 9.548L165.202 8.26L168.478 14H166.154ZM181.801 4.676C181.735 4.80667 181.675 4.96533 181.619 5.152C181.572 5.32933 181.53 5.49733 181.493 5.656C181.418 5.992 181.32 6.37467 181.199 6.804C181.077 7.23333 180.933 7.67667 180.765 8.134C180.597 8.59133 180.396 9.044 180.163 9.492C179.939 9.94 179.682 10.36 179.393 10.752C178.973 11.3027 178.483 11.8253 177.923 12.32C177.363 12.8053 176.737 13.244 176.047 13.636C175.356 14.0187 174.595 14.3453 173.765 14.616L172.239 12.95C173.163 12.726 173.961 12.4507 174.633 12.124C175.314 11.788 175.907 11.4147 176.411 11.004C176.915 10.584 177.353 10.136 177.727 9.66C178.035 9.268 178.296 8.84333 178.511 8.386C178.735 7.92867 178.917 7.46667 179.057 7C179.206 6.53333 179.309 6.104 179.365 5.712C179.225 5.712 178.991 5.712 178.665 5.712C178.347 5.712 177.969 5.712 177.531 5.712C177.101 5.712 176.649 5.712 176.173 5.712C175.706 5.712 175.253 5.712 174.815 5.712C174.376 5.712 173.979 5.712 173.625 5.712C173.279 5.712 173.018 5.712 172.841 5.712C172.523 5.712 172.211 5.71667 171.903 5.726C171.604 5.73533 171.361 5.74933 171.175 5.768V3.794C171.324 3.80333 171.497 3.81733 171.693 3.836C171.889 3.85467 172.094 3.87333 172.309 3.892C172.523 3.90133 172.705 3.906 172.855 3.906C172.995 3.906 173.205 3.906 173.485 3.906C173.765 3.906 174.087 3.906 174.451 3.906C174.815 3.906 175.193 3.906 175.585 3.906C175.986 3.906 176.383 3.906 176.775 3.906C177.167 3.906 177.535 3.906 177.881 3.906C178.226 3.906 178.525 3.906 178.777 3.906C179.038 3.906 179.22 3.906 179.323 3.906C179.463 3.906 179.635 3.90133 179.841 3.892C180.046 3.87333 180.237 3.84067 180.415 3.794L181.801 4.676ZM186.673 6.412C186.831 6.44 187.018 6.45867 187.233 6.468C187.447 6.47733 187.629 6.482 187.779 6.482H194.191C194.359 6.482 194.541 6.47733 194.737 6.468C194.933 6.45867 195.115 6.44 195.283 6.412V8.176C195.105 8.15733 194.919 8.14333 194.723 8.134C194.527 8.12467 194.349 8.12 194.191 8.12H187.779C187.629 8.12 187.447 8.12467 187.233 8.134C187.018 8.14333 186.831 8.15733 186.673 8.176V6.412ZM189.963 13.58V7.378H191.797V13.58H189.963ZM185.959 12.544C186.136 12.5627 186.327 12.5813 186.533 12.6C186.738 12.6187 186.929 12.628 187.107 12.628H194.849C195.045 12.628 195.231 12.6187 195.409 12.6C195.595 12.572 195.763 12.5533 195.913 12.544V14.378C195.763 14.35 195.577 14.3313 195.353 14.322C195.138 14.3127 194.97 14.308 194.849 14.308H187.107C186.939 14.308 186.752 14.3127 186.547 14.322C186.341 14.3313 186.145 14.35 185.959 14.378V12.544ZM199.763 7.518C199.931 7.52733 200.145 7.54133 200.407 7.56C200.668 7.56933 200.939 7.57867 201.219 7.588C201.508 7.59733 201.774 7.602 202.017 7.602C202.25 7.602 202.539 7.602 202.885 7.602C203.23 7.602 203.603 7.602 204.005 7.602C204.415 7.602 204.835 7.602 205.265 7.602C205.703 7.602 206.137 7.602 206.567 7.602C206.996 7.602 207.402 7.602 207.785 7.602C208.167 7.602 208.508 7.602 208.807 7.602C209.115 7.602 209.357 7.602 209.535 7.602C209.861 7.602 210.169 7.59267 210.459 7.574C210.748 7.546 210.986 7.52733 211.173 7.518V9.716C211.014 9.70667 210.776 9.69267 210.459 9.674C210.141 9.65533 209.833 9.646 209.535 9.646C209.357 9.646 209.115 9.646 208.807 9.646C208.499 9.646 208.153 9.646 207.771 9.646C207.388 9.646 206.982 9.646 206.553 9.646C206.133 9.646 205.703 9.646 205.265 9.646C204.826 9.646 204.401 9.646 203.991 9.646C203.589 9.646 203.216 9.646 202.871 9.646C202.535 9.646 202.25 9.646 202.017 9.646C201.615 9.646 201.205 9.65533 200.785 9.674C200.365 9.68333 200.024 9.69733 199.763 9.716V7.518ZM223.089 2.352C223.211 2.52933 223.341 2.73933 223.481 2.982C223.631 3.21533 223.771 3.44867 223.901 3.682C224.032 3.91533 224.135 4.11133 224.209 4.27L223.075 4.746C222.935 4.466 222.763 4.144 222.557 3.78C222.361 3.416 222.17 3.094 221.983 2.814L223.089 2.352ZM224.853 1.862C224.984 2.03933 225.119 2.24467 225.259 2.478C225.399 2.71133 225.535 2.94467 225.665 3.178C225.805 3.402 225.913 3.598 225.987 3.766L224.881 4.242C224.732 3.95267 224.555 3.626 224.349 3.262C224.144 2.898 223.943 2.58533 223.747 2.324L224.853 1.862ZM223.733 4.844C223.677 4.928 223.593 5.05867 223.481 5.236C223.379 5.41333 223.299 5.57667 223.243 5.726C223.047 6.16467 222.805 6.65467 222.515 7.196C222.235 7.73733 221.913 8.28333 221.549 8.834C221.195 9.38467 220.817 9.89333 220.415 10.36C219.893 10.9573 219.314 11.5407 218.679 12.11C218.054 12.6793 217.391 13.2067 216.691 13.692C216.001 14.168 215.291 14.5787 214.563 14.924L213.121 13.412C213.877 13.1227 214.61 12.7587 215.319 12.32C216.029 11.8813 216.687 11.4053 217.293 10.892C217.9 10.3787 218.423 9.87933 218.861 9.394C219.169 9.04867 219.459 8.67533 219.729 8.274C220.009 7.86333 220.257 7.462 220.471 7.07C220.686 6.66867 220.845 6.30467 220.947 5.978C220.854 5.978 220.686 5.978 220.443 5.978C220.201 5.978 219.916 5.978 219.589 5.978C219.272 5.978 218.936 5.978 218.581 5.978C218.227 5.978 217.886 5.978 217.559 5.978C217.242 5.978 216.962 5.978 216.719 5.978C216.477 5.978 216.304 5.978 216.201 5.978C216.005 5.978 215.8 5.98267 215.585 5.992C215.371 6.00133 215.165 6.01533 214.969 6.034C214.783 6.05267 214.638 6.062 214.535 6.062V4.074C214.675 4.08333 214.848 4.09733 215.053 4.116C215.259 4.13467 215.464 4.14867 215.669 4.158C215.884 4.16733 216.061 4.172 216.201 4.172C216.323 4.172 216.514 4.172 216.775 4.172C217.037 4.172 217.335 4.172 217.671 4.172C218.007 4.172 218.353 4.172 218.707 4.172C219.071 4.172 219.417 4.172 219.743 4.172C220.079 4.172 220.369 4.172 220.611 4.172C220.854 4.172 221.031 4.172 221.143 4.172C221.451 4.172 221.731 4.158 221.983 4.13C222.245 4.09267 222.445 4.05067 222.585 4.004L223.733 4.844ZM220.597 9.198C220.961 9.48733 221.349 9.82333 221.759 10.206C222.17 10.5887 222.576 10.9853 222.977 11.396C223.379 11.8067 223.747 12.2033 224.083 12.586C224.429 12.9593 224.718 13.286 224.951 13.566L223.355 14.966C223.01 14.4807 222.613 13.9813 222.165 13.468C221.727 12.9547 221.26 12.446 220.765 11.942C220.28 11.4287 219.785 10.9433 219.281 10.486L220.597 9.198Z" fill="#4A5565"/>
<path d="M3.01705 46H0.380682L4.39773 34.3636H7.56818L11.5795 46H8.94318L6.02841 37.0227H5.9375L3.01705 46ZM2.85227 41.4261H9.07955V43.3466H2.85227V41.4261ZM12.9801 46V34.3636H17.571C18.4498 34.3636 19.1998 34.5208 19.821 34.8352C20.446 35.1458 20.9214 35.5871 21.2472 36.1591C21.5767 36.7273 21.7415 37.3958 21.7415 38.1648C21.7415 38.9375 21.5748 39.6023 21.2415 40.1591C20.9081 40.7121 20.4252 41.1364 19.7926 41.4318C19.1638 41.7273 18.4025 41.875 17.5085 41.875H14.4347V39.8977H17.1108C17.5805 39.8977 17.9706 39.8333 18.2812 39.7045C18.5919 39.5758 18.8229 39.3826 18.9744 39.125C19.1297 38.8674 19.2074 38.5473 19.2074 38.1648C19.2074 37.7784 19.1297 37.4527 18.9744 37.1875C18.8229 36.9223 18.59 36.7216 18.2756 36.5852C17.965 36.4451 17.5729 36.375 17.0994 36.375H15.4403V46H12.9801ZM19.2642 40.7045L22.1562 46H19.4403L16.6108 40.7045H19.2642ZM23.4801 46V34.3636H28.071C28.9498 34.3636 29.6998 34.5208 30.321 34.8352C30.946 35.1458 31.4214 35.5871 31.7472 36.1591C32.0767 36.7273 32.2415 37.3958 32.2415 38.1648C32.2415 38.9375 32.0748 39.6023 31.7415 40.1591C31.4081 40.7121 30.9252 41.1364 30.2926 41.4318C29.6638 41.7273 28.9025 41.875 28.0085 41.875H24.9347V39.8977H27.6108C28.0805 39.8977 28.4706 39.8333 28.7812 39.7045C29.0919 39.5758 29.3229 39.3826 29.4744 39.125C29.6297 38.8674 29.7074 38.5473 29.7074 38.1648C29.7074 37.7784 29.6297 37.4527 29.4744 37.1875C29.3229 36.9223 29.09 36.7216 28.7756 36.5852C28.465 36.4451 28.0729 36.375 27.5994 36.375H25.9403V46H23.4801ZM29.7642 40.7045L32.6562 46H29.9403L27.1108 40.7045H29.7642ZM42.1776 46.2557C41.2003 46.2519 40.3594 46.0114 39.6548 45.5341C38.9541 45.0568 38.4143 44.3655 38.0355 43.4602C37.6605 42.5549 37.4749 41.4659 37.4787 40.1932C37.4787 38.9242 37.6662 37.8428 38.0412 36.9489C38.42 36.0549 38.9598 35.375 39.6605 34.9091C40.3651 34.4394 41.2041 34.2045 42.1776 34.2045C43.151 34.2045 43.9882 34.4394 44.6889 34.9091C45.3935 35.3788 45.9351 36.0606 46.3139 36.9545C46.6927 37.8447 46.8802 38.9242 46.8764 40.1932C46.8764 41.4697 46.687 42.5606 46.3082 43.4659C45.9332 44.3712 45.3954 45.0625 44.6946 45.5398C43.9938 46.017 43.1548 46.2557 42.1776 46.2557ZM42.1776 44.2159C42.8442 44.2159 43.3764 43.8807 43.7741 43.2102C44.1719 42.5398 44.3688 41.5341 44.3651 40.1932C44.3651 39.3106 44.2741 38.5758 44.0923 37.9886C43.9143 37.4015 43.6605 36.9602 43.331 36.6648C43.0052 36.3693 42.6207 36.2216 42.1776 36.2216C41.5147 36.2216 40.9844 36.553 40.5866 37.2159C40.1889 37.8788 39.9882 38.8712 39.9844 40.1932C39.9844 41.0871 40.0734 41.8333 40.2514 42.4318C40.4332 43.0265 40.6889 43.4735 41.0185 43.7727C41.348 44.0682 41.7344 44.2159 42.1776 44.2159ZM55.6534 45.9091L54.3352 44.6023L57.7955 41.142H49.6875V39.2216H57.7955L54.3352 35.767L55.6534 34.4545L61.3807 40.1818L55.6534 45.9091ZM68.9588 34.3636V46H66.4986V36.6989H66.4304L63.7656 38.3693V36.1875L66.6463 34.3636H68.9588ZM79.9973 32.512H81.9333V34.4H79.9973V32.512ZM76.3333 33.664H85.8693V35.056H76.3333V33.664ZM75.6933 36.24H86.3333V37.728H75.6933V36.24ZM77.6453 35.168L79.2613 34.848C79.3999 35.0827 79.5333 35.344 79.6613 35.632C79.7999 35.9093 79.8906 36.1547 79.9333 36.368L78.2373 36.72C78.1946 36.5173 78.1146 36.2667 77.9973 35.968C77.8906 35.6693 77.7733 35.4027 77.6453 35.168ZM82.7013 34.576L84.6053 35.024C84.4133 35.3653 84.2266 35.6907 84.0453 36C83.8639 36.3093 83.6986 36.5813 83.5493 36.816L82.0613 36.4C82.1786 36.1227 82.2959 35.8187 82.4133 35.488C82.5413 35.1467 82.6373 34.8427 82.7013 34.576ZM78.7013 41.152V41.824H83.3253V41.152H78.7013ZM78.7013 39.488V40.144H83.3253V39.488H78.7013ZM76.8933 38.336H85.2293V42.976H76.8933V38.336ZM76.5573 43.568L78.0453 44.16C77.8639 44.6613 77.6453 45.1787 77.3893 45.712C77.1333 46.2453 76.8079 46.704 76.4133 47.088L75.0213 46.096C75.3519 45.7867 75.6506 45.4027 75.9173 44.944C76.1946 44.4747 76.4079 44.016 76.5573 43.568ZM78.2693 43.664H80.0133V45.488C80.0133 45.68 80.0453 45.8027 80.1093 45.856C80.1733 45.8987 80.3279 45.92 80.5733 45.92C80.6266 45.92 80.7119 45.92 80.8293 45.92C80.9573 45.92 81.0959 45.92 81.2453 45.92C81.3946 45.92 81.5333 45.92 81.6613 45.92C81.7999 45.92 81.9066 45.92 81.9813 45.92C82.1093 45.92 82.2053 45.8987 82.2693 45.856C82.3439 45.8027 82.3973 45.7013 82.4293 45.552C82.4613 45.392 82.4879 45.1627 82.5093 44.864C82.6693 44.9813 82.8986 45.0987 83.1973 45.216C83.5066 45.3333 83.7786 45.4133 84.0133 45.456C83.9493 45.968 83.8479 46.3627 83.7093 46.64C83.5813 46.928 83.3946 47.1253 83.1493 47.232C82.9039 47.3493 82.5839 47.408 82.1893 47.408C82.0933 47.408 81.9599 47.408 81.7893 47.408C81.6186 47.408 81.4319 47.408 81.2293 47.408C81.0373 47.408 80.8559 47.408 80.6853 47.408C80.5253 47.408 80.4026 47.408 80.3173 47.408C79.7626 47.408 79.3359 47.3493 79.0373 47.232C78.7386 47.1147 78.5359 46.912 78.4293 46.624C78.3226 46.3467 78.2693 45.9733 78.2693 45.504V43.664ZM79.5813 43.232L80.7493 42.336C81.1013 42.56 81.4639 42.8267 81.8373 43.136C82.2106 43.4347 82.4933 43.7173 82.6853 43.984L81.4533 44.96C81.2719 44.704 80.9999 44.4107 80.6373 44.08C80.2853 43.7493 79.9333 43.4667 79.5813 43.232ZM83.0533 44.176L84.4773 43.408C84.7546 43.6747 85.0266 43.9733 85.2933 44.304C85.5599 44.624 85.8053 44.9493 86.0293 45.28C86.2533 45.6 86.4239 45.8987 86.5413 46.176L85.0053 47.04C84.8986 46.7733 84.7386 46.4693 84.5253 46.128C84.3226 45.7973 84.0879 45.4613 83.8213 45.12C83.5653 44.7787 83.3093 44.464 83.0533 44.176ZM74.7493 32.448L76.5253 33.024C76.1733 33.9093 75.7519 34.7947 75.2613 35.68C74.7706 36.5653 74.2426 37.4027 73.6773 38.192C73.1226 38.9707 72.5466 39.6587 71.9493 40.256C71.8959 40.096 71.8106 39.8933 71.6933 39.648C71.5759 39.392 71.4479 39.1413 71.3092 38.896C71.1813 38.64 71.0639 38.432 70.9573 38.272C71.4479 37.8027 71.9279 37.2587 72.3973 36.64C72.8773 36.0213 73.3199 35.3547 73.7253 34.64C74.1306 33.9147 74.4719 33.184 74.7493 32.448ZM73.0693 36.912L74.8932 35.088V35.104V47.424H73.0693V36.912Z" fill="#1E2939"/>
<rect y="59" width="240" height="40" fill="#00BC7D"/>
<path d="M254.493 91.3523V85.0554L270.281 60.1818H275.71V68.8977H272.497L262.544 84.6491V84.9446H284.98V91.3523H254.493ZM272.645 98V89.4318L272.793 86.6435V60.1818H280.29V98H272.645ZM305.136 98.831C301.96 98.8187 299.227 98.0369 296.937 96.4858C294.659 94.9347 292.905 92.688 291.674 89.7457C290.455 86.8035 289.852 83.2642 289.864 79.1278C289.864 75.0038 290.474 71.4891 291.692 68.5838C292.924 65.6785 294.678 63.4687 296.955 61.9545C299.245 60.428 301.972 59.6648 305.136 59.6648C308.299 59.6648 311.02 60.428 313.298 61.9545C315.587 63.4811 317.348 65.697 318.579 68.6023C319.81 71.4953 320.419 75.0038 320.407 79.1278C320.407 83.2765 319.791 86.822 318.56 89.7642C317.342 92.7064 315.594 94.9531 313.316 96.5043C311.039 98.0554 308.312 98.831 305.136 98.831ZM305.136 92.2017C307.302 92.2017 309.032 91.1122 310.325 88.9332C311.617 86.7543 312.257 83.4858 312.245 79.1278C312.245 76.2595 311.95 73.8712 311.359 71.9631C310.78 70.0549 309.955 68.6207 308.884 67.6605C307.826 66.7003 306.576 66.2202 305.136 66.2202C302.981 66.2202 301.258 67.2973 299.965 69.4517C298.673 71.6061 298.02 74.8314 298.008 79.1278C298.008 82.0331 298.297 84.4583 298.876 86.4034C299.467 88.3362 300.298 89.7888 301.369 90.7614C302.44 91.7216 303.695 92.2017 305.136 92.2017Z" fill="#00BC7D"/>
<path d="M330.355 95.8182V95.2045C330.355 94.7386 330.454 94.3106 330.651 93.9205C330.852 93.5265 331.141 93.2121 331.52 92.9773C331.903 92.7386 332.369 92.6193 332.918 92.6193C333.475 92.6193 333.943 92.7367 334.321 92.9716C334.704 93.2064 334.992 93.5208 335.185 93.9148C335.382 94.3049 335.48 94.7348 335.48 95.2045V95.8182C335.48 96.2841 335.382 96.714 335.185 97.108C334.988 97.4981 334.698 97.8106 334.316 98.0455C333.933 98.2841 333.467 98.4034 332.918 98.4034C332.361 98.4034 331.893 98.2841 331.515 98.0455C331.136 97.8106 330.848 97.4981 330.651 97.108C330.454 96.714 330.355 96.2841 330.355 95.8182ZM332.009 95.2045V95.8182C332.009 96.0871 332.073 96.3409 332.202 96.5795C332.335 96.8182 332.573 96.9375 332.918 96.9375C333.263 96.9375 333.498 96.8201 333.623 96.5852C333.751 96.3504 333.816 96.0947 333.816 95.8182V95.2045C333.816 94.928 333.755 94.6705 333.634 94.4318C333.513 94.1932 333.274 94.0739 332.918 94.0739C332.577 94.0739 332.34 94.1932 332.208 94.4318C332.075 94.6705 332.009 94.928 332.009 95.2045ZM324.384 89.1591V88.5455C324.384 88.0758 324.484 87.6458 324.685 87.2557C324.886 86.8617 325.176 86.5473 325.554 86.3125C325.937 86.0777 326.399 85.9602 326.941 85.9602C327.501 85.9602 327.971 86.0777 328.35 86.3125C328.729 86.5473 329.016 86.8617 329.213 87.2557C329.41 87.6458 329.509 88.0758 329.509 88.5455V89.1591C329.509 89.6288 329.408 90.0587 329.208 90.4489C329.011 90.839 328.721 91.1515 328.338 91.3864C327.96 91.6174 327.494 91.733 326.941 91.733C326.388 91.733 325.92 91.6155 325.537 91.3807C325.158 91.142 324.871 90.8295 324.674 90.4432C324.48 90.053 324.384 89.625 324.384 89.1591ZM326.049 88.5455V89.1591C326.049 89.4356 326.113 89.6913 326.242 89.9261C326.374 90.161 326.607 90.2784 326.941 90.2784C327.289 90.2784 327.526 90.161 327.651 89.9261C327.78 89.6913 327.844 89.4356 327.844 89.1591V88.5455C327.844 88.2689 327.783 88.0114 327.662 87.7727C327.541 87.5341 327.301 87.4148 326.941 87.4148C326.604 87.4148 326.371 87.536 326.242 87.7784C326.113 88.0208 326.049 88.2765 326.049 88.5455ZM325.134 98L333.134 86.3636H334.623L326.623 98H325.134Z" fill="#1E2939"/>
<path d="M3.01705 136H0.380682L4.39773 124.364H7.56818L11.5795 136H8.94318L6.02841 127.023H5.9375L3.01705 136ZM2.85227 131.426H9.07955V133.347H2.85227V131.426ZM12.9801 136V124.364H17.571C18.4498 124.364 19.1998 124.521 19.821 124.835C20.446 125.146 20.9214 125.587 21.2472 126.159C21.5767 126.727 21.7415 127.396 21.7415 128.165C21.7415 128.937 21.5748 129.602 21.2415 130.159C20.9081 130.712 20.4252 131.136 19.7926 131.432C19.1638 131.727 18.4025 131.875 17.5085 131.875H14.4347V129.898H17.1108C17.5805 129.898 17.9706 129.833 18.2812 129.705C18.5919 129.576 18.8229 129.383 18.9744 129.125C19.1297 128.867 19.2074 128.547 19.2074 128.165C19.2074 127.778 19.1297 127.453 18.9744 127.188C18.8229 126.922 18.59 126.722 18.2756 126.585C17.965 126.445 17.5729 126.375 17.0994 126.375H15.4403V136H12.9801ZM19.2642 130.705L22.1562 136H19.4403L16.6108 130.705H19.2642ZM23.4801 136V124.364H28.071C28.9498 124.364 29.6998 124.521 30.321 124.835C30.946 125.146 31.4214 125.587 31.7472 126.159C32.0767 126.727 32.2415 127.396 32.2415 128.165C32.2415 128.937 32.0748 129.602 31.7415 130.159C31.4081 130.712 30.9252 131.136 30.2926 131.432C29.6638 131.727 28.9025 131.875 28.0085 131.875H24.9347V129.898H27.6108C28.0805 129.898 28.4706 129.833 28.7812 129.705C29.0919 129.576 29.3229 129.383 29.4744 129.125C29.6297 128.867 29.7074 128.547 29.7074 128.165C29.7074 127.778 29.6297 127.453 29.4744 127.188C29.3229 126.922 29.09 126.722 28.7756 126.585C28.465 126.445 28.0729 126.375 27.5994 126.375H25.9403V136H23.4801ZM29.7642 130.705L32.6562 136H29.9403L27.1108 130.705H29.7642ZM42.6776 124.364V136H40.2173V126.699H40.1491L37.4844 128.369V126.188L40.3651 124.364H42.6776ZM65.7713 124.364V136H63.3111V126.699H63.2429L60.5781 128.369V126.188L63.4588 124.364H65.7713ZM73.0994 136.256C72.1222 136.252 71.2813 136.011 70.5767 135.534C69.8759 135.057 69.3362 134.366 68.9574 133.46C68.5824 132.555 68.3968 131.466 68.4006 130.193C68.4006 128.924 68.5881 127.843 68.9631 126.949C69.3419 126.055 69.8816 125.375 70.5824 124.909C71.2869 124.439 72.1259 124.205 73.0994 124.205C74.0729 124.205 74.91 124.439 75.6108 124.909C76.3153 125.379 76.857 126.061 77.2358 126.955C77.6146 127.845 77.8021 128.924 77.7983 130.193C77.7983 131.47 77.6089 132.561 77.2301 133.466C76.8551 134.371 76.3172 135.062 75.6165 135.54C74.9157 136.017 74.0767 136.256 73.0994 136.256ZM73.0994 134.216C73.7661 134.216 74.2983 133.881 74.696 133.21C75.0938 132.54 75.2907 131.534 75.2869 130.193C75.2869 129.311 75.196 128.576 75.0142 127.989C74.8362 127.402 74.5824 126.96 74.2528 126.665C73.9271 126.369 73.5426 126.222 73.0994 126.222C72.4366 126.222 71.9063 126.553 71.5085 127.216C71.1108 127.879 70.91 128.871 70.9062 130.193C70.9062 131.087 70.9953 131.833 71.1733 132.432C71.3551 133.027 71.6108 133.473 71.9403 133.773C72.2699 134.068 72.6562 134.216 73.0994 134.216ZM87.8254 122.512H89.7614V124.4H87.8254V122.512ZM84.1614 123.664H93.6974V125.056H84.1614V123.664ZM83.5214 126.24H94.1614V127.728H83.5214V126.24ZM85.4734 125.168L87.0894 124.848C87.228 125.083 87.3614 125.344 87.4894 125.632C87.628 125.909 87.7187 126.155 87.7614 126.368L86.0654 126.72C86.0227 126.517 85.9427 126.267 85.8254 125.968C85.7187 125.669 85.6014 125.403 85.4734 125.168ZM90.5294 124.576L92.4334 125.024C92.2414 125.365 92.0547 125.691 91.8734 126C91.692 126.309 91.5267 126.581 91.3774 126.816L89.8894 126.4C90.0067 126.123 90.124 125.819 90.2414 125.488C90.3694 125.147 90.4654 124.843 90.5294 124.576ZM86.5294 131.152V131.824H91.1534V131.152H86.5294ZM86.5294 129.488V130.144H91.1534V129.488H86.5294ZM84.7214 128.336H93.0574V132.976H84.7214V128.336ZM84.3854 133.568L85.8734 134.16C85.692 134.661 85.4734 135.179 85.2174 135.712C84.9614 136.245 84.636 136.704 84.2414 137.088L82.8494 136.096C83.18 135.787 83.4787 135.403 83.7454 134.944C84.0227 134.475 84.236 134.016 84.3854 133.568ZM86.0974 133.664H87.8414V135.488C87.8414 135.68 87.8734 135.803 87.9374 135.856C88.0014 135.899 88.156 135.92 88.4014 135.92C88.4547 135.92 88.54 135.92 88.6574 135.92C88.7854 135.92 88.924 135.92 89.0734 135.92C89.2227 135.92 89.3614 135.92 89.4894 135.92C89.628 135.92 89.7347 135.92 89.8094 135.92C89.9374 135.92 90.0334 135.899 90.0974 135.856C90.172 135.803 90.2254 135.701 90.2574 135.552C90.2894 135.392 90.316 135.163 90.3374 134.864C90.4974 134.981 90.7267 135.099 91.0254 135.216C91.3347 135.333 91.6067 135.413 91.8414 135.456C91.7774 135.968 91.676 136.363 91.5374 136.64C91.4094 136.928 91.2227 137.125 90.9774 137.232C90.732 137.349 90.412 137.408 90.0174 137.408C89.9214 137.408 89.788 137.408 89.6174 137.408C89.4467 137.408 89.26 137.408 89.0574 137.408C88.8654 137.408 88.684 137.408 88.5134 137.408C88.3534 137.408 88.2307 137.408 88.1454 137.408C87.5907 137.408 87.164 137.349 86.8654 137.232C86.5667 137.115 86.364 136.912 86.2574 136.624C86.1507 136.347 86.0974 135.973 86.0974 135.504V133.664ZM87.4094 133.232L88.5774 132.336C88.9294 132.56 89.292 132.827 89.6654 133.136C90.0387 133.435 90.3214 133.717 90.5134 133.984L89.2814 134.96C89.1 134.704 88.828 134.411 88.4654 134.08C88.1134 133.749 87.7614 133.467 87.4094 133.232ZM90.8814 134.176L92.3054 133.408C92.5827 133.675 92.8547 133.973 93.1214 134.304C93.388 134.624 93.6334 134.949 93.8574 135.28C94.0814 135.6 94.252 135.899 94.3694 136.176L92.8334 137.04C92.7267 136.773 92.5667 136.469 92.3534 136.128C92.1507 135.797 91.916 135.461 91.6494 135.12C91.3934 134.779 91.1374 134.464 90.8814 134.176ZM82.5774 122.448L84.3534 123.024C84.0014 123.909 83.58 124.795 83.0894 125.68C82.5987 126.565 82.0707 127.403 81.5054 128.192C80.9507 128.971 80.3747 129.659 79.7774 130.256C79.724 130.096 79.6387 129.893 79.5214 129.648C79.404 129.392 79.276 129.141 79.1374 128.896C79.0094 128.64 78.892 128.432 78.7854 128.272C79.276 127.803 79.756 127.259 80.2254 126.64C80.7054 126.021 81.148 125.355 81.5534 124.64C81.9587 123.915 82.3 123.184 82.5774 122.448ZM80.8974 126.912L82.7214 125.088V125.104V137.424H80.8974V126.912Z" fill="#1E2939"/>
<path d="M52.4659 135.909L51.1477 134.602L54.608 131.142H46.5V129.222H54.608L51.1477 125.767L52.4659 124.455L58.1932 130.182L52.4659 135.909Z" fill="black"/>
<rect y="149" width="240" height="40" fill="#2B7FFF"/>
<path d="M254.493 181.352V175.055L270.281 150.182H275.71V158.898H272.497L262.544 174.649V174.945H284.98V181.352H254.493ZM272.645 188V179.432L272.793 176.643V150.182H280.29V188H272.645ZM305.136 188.831C301.96 188.819 299.227 188.037 296.937 186.486C294.659 184.935 292.905 182.688 291.674 179.746C290.455 176.804 289.852 173.264 289.864 169.128C289.864 165.004 290.474 161.489 291.692 158.584C292.924 155.679 294.678 153.469 296.955 151.955C299.245 150.428 301.972 149.665 305.136 149.665C308.299 149.665 311.02 150.428 313.298 151.955C315.587 153.481 317.348 155.697 318.579 158.602C319.81 161.495 320.419 165.004 320.407 169.128C320.407 173.277 319.791 176.822 318.56 179.764C317.342 182.706 315.594 184.953 313.316 186.504C311.039 188.055 308.312 188.831 305.136 188.831ZM305.136 182.202C307.302 182.202 309.032 181.112 310.325 178.933C311.617 176.754 312.257 173.486 312.245 169.128C312.245 166.259 311.95 163.871 311.359 161.963C310.78 160.055 309.955 158.621 308.884 157.661C307.826 156.7 306.576 156.22 305.136 156.22C302.981 156.22 301.258 157.297 299.965 159.452C298.673 161.606 298.02 164.831 298.008 169.128C298.008 172.033 298.297 174.458 298.876 176.403C299.467 178.336 300.298 179.789 301.369 180.761C302.44 181.722 303.695 182.202 305.136 182.202Z" fill="#2B7FFF"/>
<path d="M330.355 185.818V185.205C330.355 184.739 330.454 184.311 330.651 183.92C330.852 183.527 331.141 183.212 331.52 182.977C331.903 182.739 332.369 182.619 332.918 182.619C333.475 182.619 333.943 182.737 334.321 182.972C334.704 183.206 334.992 183.521 335.185 183.915C335.382 184.305 335.48 184.735 335.48 185.205V185.818C335.48 186.284 335.382 186.714 335.185 187.108C334.988 187.498 334.698 187.811 334.316 188.045C333.933 188.284 333.467 188.403 332.918 188.403C332.361 188.403 331.893 188.284 331.515 188.045C331.136 187.811 330.848 187.498 330.651 187.108C330.454 186.714 330.355 186.284 330.355 185.818ZM332.009 185.205V185.818C332.009 186.087 332.073 186.341 332.202 186.58C332.335 186.818 332.573 186.938 332.918 186.938C333.263 186.938 333.498 186.82 333.623 186.585C333.751 186.35 333.816 186.095 333.816 185.818V185.205C333.816 184.928 333.755 184.67 333.634 184.432C333.513 184.193 333.274 184.074 332.918 184.074C332.577 184.074 332.34 184.193 332.208 184.432C332.075 184.67 332.009 184.928 332.009 185.205ZM324.384 179.159V178.545C324.384 178.076 324.484 177.646 324.685 177.256C324.886 176.862 325.176 176.547 325.554 176.312C325.937 176.078 326.399 175.96 326.941 175.96C327.501 175.96 327.971 176.078 328.35 176.312C328.729 176.547 329.016 176.862 329.213 177.256C329.41 177.646 329.509 178.076 329.509 178.545V179.159C329.509 179.629 329.408 180.059 329.208 180.449C329.011 180.839 328.721 181.152 328.338 181.386C327.96 181.617 327.494 181.733 326.941 181.733C326.388 181.733 325.92 181.616 325.537 181.381C325.158 181.142 324.871 180.83 324.674 180.443C324.48 180.053 324.384 179.625 324.384 179.159ZM326.049 178.545V179.159C326.049 179.436 326.113 179.691 326.242 179.926C326.374 180.161 326.607 180.278 326.941 180.278C327.289 180.278 327.526 180.161 327.651 179.926C327.78 179.691 327.844 179.436 327.844 179.159V178.545C327.844 178.269 327.783 178.011 327.662 177.773C327.541 177.534 327.301 177.415 326.941 177.415C326.604 177.415 326.371 177.536 326.242 177.778C326.113 178.021 326.049 178.277 326.049 178.545ZM325.134 188L333.134 176.364H334.623L326.623 188H325.134Z" fill="#1E2939"/>
<path d="M0.435547 221L3.36355 212.156H4.97155L7.89955 221H6.42355L4.99555 216.2C4.85155 215.72 4.71155 215.236 4.57555 214.748C4.43955 214.252 4.30355 213.756 4.16755 213.26H4.11955C3.99155 213.764 3.85555 214.26 3.71155 214.748C3.57555 215.236 3.43555 215.72 3.29155 216.2L1.86355 221H0.435547ZM2.09155 218.492V217.388H6.21955V218.492H2.09155ZM9.06439 221V212.156H11.9564C12.5644 212.156 13.1084 212.24 13.5884 212.408C14.0684 212.568 14.4484 212.836 14.7284 213.212C15.0084 213.58 15.1484 214.084 15.1484 214.724C15.1484 215.34 15.0084 215.848 14.7284 216.248C14.4484 216.648 14.0684 216.948 13.5884 217.148C13.1084 217.34 12.5644 217.436 11.9564 217.436H10.4564V221H9.06439ZM10.4564 216.32H11.7884C12.4284 216.32 12.9164 216.188 13.2524 215.924C13.5964 215.652 13.7684 215.252 13.7684 214.724C13.7684 214.188 13.5964 213.816 13.2524 213.608C12.9164 213.392 12.4284 213.284 11.7884 213.284H10.4564V216.32ZM13.8884 221L11.6924 217.064L12.7244 216.26L15.4604 221H13.8884ZM16.9394 221V212.156H19.8314C20.4394 212.156 20.9834 212.24 21.4634 212.408C21.9434 212.568 22.3234 212.836 22.6034 213.212C22.8834 213.58 23.0234 214.084 23.0234 214.724C23.0234 215.34 22.8834 215.848 22.6034 216.248C22.3234 216.648 21.9434 216.948 21.4634 217.148C20.9834 217.34 20.4394 217.436 19.8314 217.436H18.3314V221H16.9394ZM18.3314 216.32H19.6634C20.3034 216.32 20.7914 216.188 21.1274 215.924C21.4714 215.652 21.6434 215.252 21.6434 214.724C21.6434 214.188 21.4714 213.816 21.1274 213.608C20.7914 213.392 20.3034 213.284 19.6634 213.284H18.3314V216.32ZM21.7634 221L19.5674 217.064L20.5994 216.26L23.3354 221H21.7634ZM27.3657 221V219.86H29.3097V213.956H27.7257V213.08C28.1417 213 28.5017 212.908 28.8057 212.804C29.1177 212.692 29.4017 212.56 29.6577 212.408H30.7017V219.86H32.4177V221H27.3657ZM36.6215 221.168C36.0295 221.168 35.5175 220.996 35.0855 220.652C34.6615 220.3 34.3335 219.792 34.1015 219.128C33.8695 218.456 33.7535 217.636 33.7535 216.668C33.7535 215.7 33.8695 214.888 34.1015 214.232C34.3335 213.576 34.6615 213.08 35.0855 212.744C35.5175 212.408 36.0295 212.24 36.6215 212.24C37.2055 212.24 37.7095 212.408 38.1335 212.744C38.5575 213.08 38.8855 213.576 39.1175 214.232C39.3495 214.888 39.4655 215.7 39.4655 216.668C39.4655 217.636 39.3495 218.456 39.1175 219.128C38.8855 219.792 38.5575 220.3 38.1335 220.652C37.7095 220.996 37.2055 221.168 36.6215 221.168ZM36.6215 220.064C36.9175 220.064 37.1815 219.952 37.4135 219.728C37.6455 219.504 37.8255 219.144 37.9535 218.648C38.0815 218.152 38.1455 217.492 38.1455 216.668C38.1455 215.844 38.0815 215.192 37.9535 214.712C37.8255 214.224 37.6455 213.872 37.4135 213.656C37.1815 213.44 36.9175 213.332 36.6215 213.332C36.3255 213.332 36.0615 213.44 35.8295 213.656C35.5975 213.872 35.4135 214.224 35.2775 214.712C35.1495 215.192 35.0855 215.844 35.0855 216.668C35.0855 217.492 35.1495 218.152 35.2775 218.648C35.4135 219.144 35.5975 219.504 35.8295 219.728C36.0615 219.952 36.3255 220.064 36.6215 220.064ZM48.9972 215.828C48.7412 215.644 48.4652 215.4 48.1692 215.096C47.8812 214.792 47.6252 214.488 47.4012 214.184L48.4812 213.584C48.7612 213.936 49.0732 214.288 49.4172 214.64C49.7612 214.984 50.1212 215.312 50.4972 215.624C50.8812 215.928 51.2532 216.2 51.6132 216.44C51.2532 216.672 50.8812 216.944 50.4972 217.256C50.1212 217.568 49.7612 217.9 49.4172 218.252C49.0732 218.596 48.7612 218.944 48.4812 219.296L47.4012 218.696C47.6252 218.384 47.8812 218.08 48.1692 217.784C48.4652 217.48 48.7412 217.236 48.9972 217.052H40.5132V215.828H48.9972ZM53.0532 221V219.86H54.9972V213.716H53.4132V212.84C53.8292 212.768 54.1892 212.676 54.4932 212.564C54.8052 212.452 55.0892 212.316 55.3452 212.156H56.3892V219.86H58.1052V221H53.0532ZM62.309 221.168C61.733 221.168 61.229 220.996 60.797 220.652C60.365 220.308 60.029 219.796 59.789 219.116C59.557 218.428 59.441 217.572 59.441 216.548C59.441 215.524 59.557 214.676 59.789 214.004C60.029 213.332 60.365 212.832 60.797 212.504C61.229 212.168 61.733 212 62.309 212C62.885 212 63.385 212.168 63.809 212.504C64.233 212.84 64.561 213.344 64.793 214.016C65.033 214.68 65.153 215.524 65.153 216.548C65.153 217.572 65.033 218.428 64.793 219.116C64.561 219.796 64.233 220.308 63.809 220.652C63.385 220.996 62.885 221.168 62.309 221.168ZM62.309 220.064C62.605 220.064 62.869 219.948 63.101 219.716C63.333 219.484 63.513 219.112 63.641 218.6C63.769 218.08 63.833 217.396 63.833 216.548C63.833 215.7 63.769 215.024 63.641 214.52C63.513 214.016 63.333 213.652 63.101 213.428C62.869 213.204 62.605 213.092 62.309 213.092C62.013 213.092 61.749 213.204 61.517 213.428C61.285 213.652 61.101 214.016 60.965 214.52C60.837 215.024 60.773 215.7 60.773 216.548C60.773 217.396 60.837 218.08 60.965 218.6C61.101 219.112 61.285 219.484 61.517 219.716C61.749 219.948 62.013 220.064 62.309 220.064ZM69.1527 221.168C68.5767 221.168 68.0727 220.996 67.6407 220.652C67.2087 220.308 66.8727 219.796 66.6327 219.116C66.4007 218.428 66.2847 217.572 66.2847 216.548C66.2847 215.524 66.4007 214.676 66.6327 214.004C66.8727 213.332 67.2087 212.832 67.6407 212.504C68.0727 212.168 68.5767 212 69.1527 212C69.7287 212 70.2287 212.168 70.6527 212.504C71.0767 212.84 71.4047 213.344 71.6367 214.016C71.8767 214.68 71.9967 215.524 71.9967 216.548C71.9967 217.572 71.8767 218.428 71.6367 219.116C71.4047 219.796 71.0767 220.308 70.6527 220.652C70.2287 220.996 69.7287 221.168 69.1527 221.168ZM69.1527 220.064C69.4487 220.064 69.7127 219.948 69.9447 219.716C70.1767 219.484 70.3567 219.112 70.4847 218.6C70.6127 218.08 70.6767 217.396 70.6767 216.548C70.6767 215.7 70.6127 215.024 70.4847 214.52C70.3567 214.016 70.1767 213.652 69.9447 213.428C69.7127 213.204 69.4487 213.092 69.1527 213.092C68.8567 213.092 68.5927 213.204 68.3607 213.428C68.1287 213.652 67.9447 214.016 67.8087 214.52C67.6807 215.024 67.6167 215.7 67.6167 216.548C67.6167 217.396 67.6807 218.08 67.8087 218.6C67.9447 219.112 68.1287 219.484 68.3607 219.716C68.5927 219.948 68.8567 220.064 69.1527 220.064ZM79.5485 210.944H80.6765V212.3H79.5485V210.944ZM76.6805 211.856H83.7845V212.708H76.6805V211.856ZM76.1525 213.836H84.1685V214.748H76.1525V213.836ZM77.7125 212.852L78.6725 212.648C78.7845 212.824 78.8925 213.024 78.9965 213.248C79.1085 213.464 79.1845 213.66 79.2245 213.836L78.2165 214.064C78.1765 213.904 78.1085 213.708 78.0125 213.476C77.9245 213.244 77.8245 213.036 77.7125 212.852ZM81.5645 212.492L82.7045 212.768C82.5685 213.016 82.4325 213.26 82.2965 213.5C82.1605 213.74 82.0325 213.948 81.9125 214.124L81.0245 213.872C81.1205 213.664 81.2205 213.432 81.3245 213.176C81.4365 212.92 81.5165 212.692 81.5645 212.492ZM78.1925 217.304V217.976H82.1285V217.304H78.1925ZM78.1925 216.02V216.668H82.1285V216.02H78.1925ZM77.1245 215.3H83.2565V218.696H77.1245V215.3ZM76.9565 219.248L77.8445 219.608C77.7085 219.968 77.5365 220.344 77.3285 220.736C77.1285 221.12 76.8805 221.448 76.5845 221.72L75.7445 221.132C76.0165 220.908 76.2565 220.62 76.4645 220.268C76.6805 219.916 76.8445 219.576 76.9565 219.248ZM78.2165 219.272H79.2605V220.772C79.2605 220.9 79.2885 220.98 79.3445 221.012C79.4005 221.052 79.5285 221.072 79.7285 221.072C79.7685 221.072 79.8445 221.072 79.9565 221.072C80.0765 221.072 80.2045 221.072 80.3405 221.072C80.4845 221.072 80.6165 221.072 80.7365 221.072C80.8565 221.072 80.9485 221.072 81.0125 221.072C81.1165 221.072 81.1965 221.052 81.2525 221.012C81.3085 220.98 81.3485 220.904 81.3725 220.784C81.3965 220.656 81.4125 220.472 81.4205 220.232C81.5245 220.304 81.6645 220.376 81.8405 220.448C82.0245 220.512 82.1885 220.56 82.3325 220.592C82.3005 220.96 82.2405 221.244 82.1525 221.444C82.0645 221.644 81.9405 221.78 81.7805 221.852C81.6205 221.932 81.4045 221.972 81.1325 221.972C81.0765 221.972 80.9765 221.972 80.8325 221.972C80.6885 221.972 80.5285 221.972 80.3525 221.972C80.1845 221.972 80.0285 221.972 79.8845 221.972C79.7485 221.972 79.6525 221.972 79.5965 221.972C79.2285 221.972 78.9445 221.936 78.7445 221.864C78.5445 221.8 78.4045 221.68 78.3245 221.504C78.2525 221.328 78.2165 221.088 78.2165 220.784V219.272ZM79.1285 218.912L79.8125 218.36C80.1005 218.528 80.3885 218.724 80.6765 218.948C80.9725 219.172 81.1965 219.38 81.3485 219.572L80.6045 220.172C80.4605 219.988 80.2445 219.776 79.9565 219.536C79.6765 219.288 79.4005 219.08 79.1285 218.912ZM81.8285 219.608L82.6805 219.14C82.8885 219.332 83.0965 219.552 83.3045 219.8C83.5205 220.04 83.7165 220.28 83.8925 220.52C84.0765 220.76 84.2125 220.98 84.3005 221.18L83.3885 221.708C83.3005 221.516 83.1725 221.296 83.0045 221.048C82.8365 220.8 82.6485 220.552 82.4405 220.304C82.2405 220.048 82.0365 219.816 81.8285 219.608ZM75.6845 210.896L76.7405 211.244C76.4765 211.908 76.1605 212.568 75.7925 213.224C75.4325 213.872 75.0445 214.488 74.6285 215.072C74.2125 215.648 73.7845 216.156 73.3445 216.596C73.3125 216.508 73.2605 216.392 73.1885 216.248C73.1165 216.104 73.0405 215.96 72.9605 215.816C72.8805 215.664 72.8045 215.544 72.7325 215.456C73.1245 215.088 73.5045 214.664 73.8725 214.184C74.2405 213.696 74.5805 213.172 74.8925 212.612C75.2045 212.052 75.4685 211.48 75.6845 210.896ZM74.4125 214.112L75.4805 213.032L75.4925 213.044V221.996H74.4125V214.112Z" fill="#1E2939"/>
<rect y="233" width="120" height="40" fill="#FF6900"/>
<path d="M138.358 267.5V263.068L148.713 253.48C149.594 252.628 150.332 251.861 150.929 251.179C151.535 250.497 151.994 249.83 152.307 249.176C152.619 248.513 152.776 247.798 152.776 247.031C152.776 246.179 152.581 245.445 152.193 244.83C151.805 244.205 151.275 243.726 150.602 243.395C149.93 243.054 149.168 242.884 148.315 242.884C147.425 242.884 146.649 243.063 145.986 243.423C145.323 243.783 144.812 244.299 144.452 244.972C144.092 245.644 143.912 246.444 143.912 247.372H138.074C138.074 245.469 138.505 243.816 139.366 242.415C140.228 241.013 141.436 239.929 142.989 239.162C144.542 238.395 146.331 238.011 148.358 238.011C150.441 238.011 152.255 238.381 153.798 239.119C155.351 239.848 156.559 240.862 157.42 242.159C158.282 243.456 158.713 244.943 158.713 246.619C158.713 247.718 158.495 248.802 158.06 249.872C157.634 250.942 156.871 252.131 155.773 253.438C154.674 254.735 153.126 256.293 151.128 258.111L146.881 262.273V262.472H159.097V267.5H138.358ZM174.96 268.139C172.516 268.13 170.414 267.528 168.653 266.335C166.901 265.142 165.551 263.414 164.604 261.151C163.667 258.887 163.203 256.165 163.212 252.983C163.212 249.811 163.681 247.107 164.619 244.872C165.566 242.637 166.915 240.937 168.667 239.773C170.428 238.598 172.526 238.011 174.96 238.011C177.393 238.011 179.486 238.598 181.238 239.773C182.999 240.947 184.353 242.652 185.3 244.886C186.247 247.112 186.716 249.811 186.707 252.983C186.707 256.174 186.233 258.902 185.286 261.165C184.349 263.428 183.004 265.156 181.252 266.349C179.5 267.543 177.403 268.139 174.96 268.139ZM174.96 263.04C176.626 263.04 177.957 262.202 178.951 260.526C179.945 258.849 180.438 256.335 180.428 252.983C180.428 250.777 180.201 248.939 179.746 247.472C179.301 246.004 178.667 244.901 177.843 244.162C177.029 243.423 176.067 243.054 174.96 243.054C173.302 243.054 171.977 243.883 170.982 245.54C169.988 247.197 169.486 249.678 169.477 252.983C169.477 255.218 169.699 257.083 170.144 258.58C170.599 260.066 171.238 261.184 172.062 261.932C172.886 262.67 173.852 263.04 174.96 263.04Z" fill="#FF6900"/>
<path d="M196.047 265.318V264.705C196.047 264.239 196.145 263.811 196.342 263.42C196.543 263.027 196.833 262.712 197.212 262.477C197.594 262.239 198.06 262.119 198.609 262.119C199.166 262.119 199.634 262.237 200.013 262.472C200.395 262.706 200.683 263.021 200.876 263.415C201.073 263.805 201.172 264.235 201.172 264.705V265.318C201.172 265.784 201.073 266.214 200.876 266.608C200.679 266.998 200.39 267.311 200.007 267.545C199.625 267.784 199.159 267.903 198.609 267.903C198.053 267.903 197.585 267.784 197.206 267.545C196.827 267.311 196.539 266.998 196.342 266.608C196.145 266.214 196.047 265.784 196.047 265.318ZM197.7 264.705V265.318C197.7 265.587 197.765 265.841 197.893 266.08C198.026 266.318 198.265 266.438 198.609 266.438C198.954 266.438 199.189 266.32 199.314 266.085C199.443 265.85 199.507 265.595 199.507 265.318V264.705C199.507 264.428 199.446 264.17 199.325 263.932C199.204 263.693 198.965 263.574 198.609 263.574C198.268 263.574 198.032 263.693 197.899 263.932C197.767 264.17 197.7 264.428 197.7 264.705ZM190.075 258.659V258.045C190.075 257.576 190.176 257.146 190.376 256.756C190.577 256.362 190.867 256.047 191.246 255.812C191.628 255.578 192.09 255.46 192.632 255.46C193.193 255.46 193.662 255.578 194.041 255.812C194.42 256.047 194.708 256.362 194.905 256.756C195.102 257.146 195.2 257.576 195.2 258.045V258.659C195.2 259.129 195.1 259.559 194.899 259.949C194.702 260.339 194.412 260.652 194.03 260.886C193.651 261.117 193.185 261.233 192.632 261.233C192.079 261.233 191.611 261.116 191.229 260.881C190.85 260.642 190.562 260.33 190.365 259.943C190.172 259.553 190.075 259.125 190.075 258.659ZM191.74 258.045V258.659C191.74 258.936 191.804 259.191 191.933 259.426C192.066 259.661 192.299 259.778 192.632 259.778C192.981 259.778 193.217 259.661 193.342 259.426C193.471 259.191 193.536 258.936 193.536 258.659V258.045C193.536 257.769 193.475 257.511 193.354 257.273C193.232 257.034 192.992 256.915 192.632 256.915C192.295 256.915 192.062 257.036 191.933 257.278C191.804 257.521 191.74 257.777 191.74 258.045ZM190.825 267.5L198.825 255.864H200.314L192.314 267.5H190.825Z" fill="#1E2939"/>
</svg>
