<svg width="411" height="287" viewBox="0 0 411 287" fill="none" xmlns="http://www.w3.org/2000/svg">
<path d="M91.122 3.71C91.0287 3.86867 90.926 4.07867 90.814 4.34C90.702 4.592 90.6087 4.802 90.534 4.97C90.366 5.43667 90.156 5.94533 89.904 6.496C89.652 7.03733 89.3673 7.58333 89.05 8.134C88.7327 8.68467 88.3827 9.212 88 9.716C87.5707 10.2853 87.0807 10.8593 86.53 11.438C85.9887 12.0073 85.368 12.5673 84.668 13.118C83.968 13.6687 83.1653 14.196 82.26 14.7L80.692 13.286C81.9707 12.67 83.072 11.9747 83.996 11.2C84.92 10.416 85.746 9.53867 86.474 8.568C87.0433 7.84933 87.496 7.13067 87.832 6.412C88.1773 5.684 88.4667 4.97 88.7 4.27C88.7747 4.08333 88.84 3.86867 88.896 3.626C88.9613 3.374 89.008 3.15933 89.036 2.982L91.122 3.71ZM83.422 5.068C83.7767 5.28267 84.15 5.52533 84.542 5.796C84.9433 6.05733 85.3447 6.328 85.746 6.608C86.1567 6.888 86.544 7.16333 86.908 7.434C87.2813 7.70467 87.6173 7.952 87.916 8.176C88.6627 8.764 89.3907 9.37533 90.1 10.01C90.8093 10.6447 91.4487 11.2653 92.018 11.872L90.576 13.468C89.96 12.7587 89.3347 12.1053 88.7 11.508C88.0653 10.9013 87.3793 10.29 86.642 9.674C86.39 9.45933 86.1007 9.226 85.774 8.974C85.4473 8.722 85.0927 8.456 84.71 8.176C84.3367 7.896 83.94 7.616 83.52 7.336C83.1 7.04667 82.6707 6.76667 82.232 6.496L83.422 5.068ZM97.254 3.36C97.4967 3.528 97.7813 3.73333 98.108 3.976C98.4347 4.21867 98.7707 4.48467 99.116 4.774C99.4707 5.054 99.802 5.32933 100.11 5.6C100.418 5.87067 100.67 6.11333 100.866 6.328L99.438 7.784C99.2607 7.588 99.0273 7.35467 98.738 7.084C98.4487 6.81333 98.136 6.53333 97.8 6.244C97.464 5.95467 97.1327 5.67933 96.806 5.418C96.4793 5.15667 96.19 4.93733 95.938 4.76L97.254 3.36ZM95.504 12.684C96.232 12.5813 96.918 12.4367 97.562 12.25C98.206 12.0633 98.8033 11.8487 99.354 11.606C99.9047 11.3633 100.409 11.1113 100.866 10.85C101.659 10.374 102.387 9.83267 103.05 9.226C103.713 8.61933 104.291 7.98933 104.786 7.336C105.281 6.67333 105.673 6.02933 105.962 5.404L107.054 7.378C106.699 8.00333 106.261 8.62867 105.738 9.254C105.225 9.87933 104.641 10.4767 103.988 11.046C103.335 11.606 102.63 12.11 101.874 12.558C101.398 12.8473 100.885 13.1227 100.334 13.384C99.7833 13.636 99.2 13.86 98.584 14.056C97.9773 14.2613 97.3427 14.42 96.68 14.532L95.504 12.684ZM119.36 2.828C119.481 2.996 119.607 3.19667 119.738 3.43C119.878 3.66333 120.013 3.89667 120.144 4.13C120.275 4.36333 120.382 4.56867 120.466 4.746L119.346 5.236C119.197 4.94667 119.024 4.62 118.828 4.256C118.632 3.88267 118.441 3.56067 118.254 3.29L119.36 2.828ZM121.012 2.198C121.133 2.37533 121.264 2.58533 121.404 2.828C121.553 3.06133 121.693 3.29467 121.824 3.528C121.955 3.752 122.062 3.94333 122.146 4.102L121.026 4.578C120.886 4.28867 120.709 3.962 120.494 3.598C120.289 3.234 120.093 2.92133 119.906 2.66L121.012 2.198ZM111.128 9.646C111.287 9.254 111.436 8.84333 111.576 8.414C111.725 7.97533 111.856 7.52733 111.968 7.07C112.08 6.60333 112.178 6.14133 112.262 5.684C112.355 5.22667 112.421 4.774 112.458 4.326L114.502 4.746C114.465 4.87667 114.423 5.03067 114.376 5.208C114.329 5.38533 114.287 5.558 114.25 5.726C114.213 5.894 114.185 6.034 114.166 6.146C114.119 6.38867 114.054 6.68267 113.97 7.028C113.886 7.37333 113.788 7.742 113.676 8.134C113.564 8.51667 113.447 8.904 113.326 9.296C113.214 9.67867 113.097 10.0333 112.976 10.36C112.808 10.808 112.607 11.2747 112.374 11.76C112.15 12.2453 111.907 12.712 111.646 13.16C111.394 13.608 111.147 14.0093 110.904 14.364L108.944 13.538C109.392 12.9593 109.807 12.32 110.19 11.62C110.582 10.92 110.895 10.262 111.128 9.646ZM118.044 9.352C117.904 8.97867 117.75 8.582 117.582 8.162C117.414 7.742 117.237 7.322 117.05 6.902C116.863 6.482 116.681 6.08533 116.504 5.712C116.327 5.33867 116.163 5.01667 116.014 4.746L117.876 4.144C118.016 4.41467 118.179 4.74133 118.366 5.124C118.553 5.50667 118.739 5.91267 118.926 6.342C119.113 6.762 119.295 7.182 119.472 7.602C119.649 8.022 119.808 8.4 119.948 8.736C120.069 9.044 120.2 9.408 120.34 9.828C120.489 10.248 120.639 10.6867 120.788 11.144C120.947 11.592 121.091 12.0307 121.222 12.46C121.362 12.8893 121.479 13.2767 121.572 13.622L119.5 14.294C119.379 13.7433 119.239 13.1833 119.08 12.614C118.921 12.0447 118.753 11.4847 118.576 10.934C118.408 10.3833 118.231 9.856 118.044 9.352ZM124.288 7.518C124.456 7.52733 124.671 7.54133 124.932 7.56C125.193 7.56933 125.464 7.57867 125.744 7.588C126.033 7.59733 126.299 7.602 126.542 7.602C126.775 7.602 127.065 7.602 127.41 7.602C127.755 7.602 128.129 7.602 128.53 7.602C128.941 7.602 129.361 7.602 129.79 7.602C130.229 7.602 130.663 7.602 131.092 7.602C131.521 7.602 131.927 7.602 132.31 7.602C132.693 7.602 133.033 7.602 133.332 7.602C133.64 7.602 133.883 7.602 134.06 7.602C134.387 7.602 134.695 7.59267 134.984 7.574C135.273 7.546 135.511 7.52733 135.698 7.518V9.716C135.539 9.70667 135.301 9.69267 134.984 9.674C134.667 9.65533 134.359 9.646 134.06 9.646C133.883 9.646 133.64 9.646 133.332 9.646C133.024 9.646 132.679 9.646 132.296 9.646C131.913 9.646 131.507 9.646 131.078 9.646C130.658 9.646 130.229 9.646 129.79 9.646C129.351 9.646 128.927 9.646 128.516 9.646C128.115 9.646 127.741 9.646 127.396 9.646C127.06 9.646 126.775 9.646 126.542 9.646C126.141 9.646 125.73 9.65533 125.31 9.674C124.89 9.68333 124.549 9.69733 124.288 9.716V7.518ZM145.834 4.41C145.741 5.11933 145.619 5.87533 145.47 6.678C145.321 7.48067 145.12 8.29267 144.868 9.114C144.597 10.0567 144.28 10.8687 143.916 11.55C143.552 12.2313 143.151 12.7587 142.712 13.132C142.283 13.496 141.811 13.678 141.298 13.678C140.785 13.678 140.309 13.5053 139.87 13.16C139.441 12.8053 139.095 12.32 138.834 11.704C138.582 11.088 138.456 10.388 138.456 9.604C138.456 8.792 138.619 8.02667 138.946 7.308C139.273 6.58933 139.725 5.95467 140.304 5.404C140.892 4.844 141.573 4.40533 142.348 4.088C143.132 3.77067 143.977 3.612 144.882 3.612C145.75 3.612 146.529 3.752 147.22 4.032C147.92 4.312 148.517 4.69933 149.012 5.194C149.507 5.68867 149.885 6.26733 150.146 6.93C150.407 7.59267 150.538 8.30667 150.538 9.072C150.538 10.052 150.337 10.9293 149.936 11.704C149.535 12.4787 148.937 13.118 148.144 13.622C147.36 14.126 146.38 14.4713 145.204 14.658L144.154 12.992C144.425 12.964 144.663 12.9313 144.868 12.894C145.073 12.8567 145.269 12.8147 145.456 12.768C145.904 12.656 146.319 12.4973 146.702 12.292C147.094 12.0773 147.435 11.816 147.724 11.508C148.013 11.1907 148.237 10.822 148.396 10.402C148.564 9.982 148.648 9.52 148.648 9.016C148.648 8.46533 148.564 7.96133 148.396 7.504C148.228 7.04667 147.981 6.65 147.654 6.314C147.327 5.96867 146.931 5.70733 146.464 5.53C145.997 5.34333 145.461 5.25 144.854 5.25C144.107 5.25 143.449 5.38533 142.88 5.656C142.311 5.91733 141.83 6.258 141.438 6.678C141.046 7.098 140.747 7.55067 140.542 8.036C140.346 8.52133 140.248 8.98333 140.248 9.422C140.248 9.88867 140.304 10.2807 140.416 10.598C140.528 10.906 140.663 11.1393 140.822 11.298C140.99 11.4473 141.167 11.522 141.354 11.522C141.55 11.522 141.741 11.424 141.928 11.228C142.124 11.0227 142.315 10.7147 142.502 10.304C142.689 9.89333 142.875 9.37533 143.062 8.75C143.277 8.078 143.459 7.35933 143.608 6.594C143.757 5.82867 143.865 5.082 143.93 4.354L145.834 4.41ZM158.238 8.33L159.512 7.42C159.82 7.69067 160.147 7.98933 160.492 8.316C160.847 8.64267 161.197 8.97867 161.542 9.324C161.887 9.66 162.209 9.98667 162.508 10.304C162.807 10.6213 163.059 10.9107 163.264 11.172L161.878 12.264C161.691 12.0027 161.453 11.7087 161.164 11.382C160.884 11.0553 160.576 10.7147 160.24 10.36C159.913 9.996 159.573 9.646 159.218 9.31C158.873 8.96467 158.546 8.638 158.238 8.33ZM158.266 2.1H160.002V5.46C160.002 5.92667 159.969 6.412 159.904 6.916C159.848 7.41067 159.741 7.91467 159.582 8.428C159.433 8.932 159.213 9.43133 158.924 9.926C158.644 10.4113 158.28 10.878 157.832 11.326C157.393 11.7647 156.857 12.1753 156.222 12.558C156.138 12.4367 156.026 12.2967 155.886 12.138C155.746 11.9793 155.597 11.8253 155.438 11.676C155.289 11.5173 155.144 11.3867 155.004 11.284C155.611 10.976 156.115 10.6353 156.516 10.262C156.917 9.88867 157.235 9.50133 157.468 9.1C157.701 8.68933 157.874 8.274 157.986 7.854C158.098 7.434 158.173 7.02333 158.21 6.622C158.247 6.21133 158.266 5.824 158.266 5.46V2.1ZM153.366 4.438H163.992V6.076H155.046V15.288H153.366V4.438ZM163.264 4.438H164.93V13.342C164.93 13.79 164.874 14.14 164.762 14.392C164.65 14.6533 164.445 14.8493 164.146 14.98C163.857 15.1107 163.488 15.19 163.04 15.218C162.592 15.2553 162.055 15.274 161.43 15.274C161.411 15.1153 161.369 14.9333 161.304 14.728C161.248 14.5227 161.183 14.322 161.108 14.126C161.033 13.93 160.954 13.7573 160.87 13.608C161.15 13.6173 161.43 13.6267 161.71 13.636C161.99 13.636 162.237 13.636 162.452 13.636C162.676 13.636 162.83 13.636 162.914 13.636C163.045 13.6267 163.133 13.6033 163.18 13.566C163.236 13.5193 163.264 13.4353 163.264 13.314V4.438ZM174.184 2.688H179.742V8.75H174.184V7.168H178.062V4.284H174.184V2.688ZM173.246 2.688H174.898V7.854C174.898 8.42333 174.87 9.03933 174.814 9.702C174.767 10.3647 174.674 11.032 174.534 11.704C174.394 12.376 174.189 13.02 173.918 13.636C173.657 14.252 173.307 14.798 172.868 15.274C172.784 15.1713 172.663 15.0453 172.504 14.896C172.345 14.7467 172.182 14.602 172.014 14.462C171.855 14.322 171.715 14.2193 171.594 14.154C171.977 13.7247 172.28 13.2533 172.504 12.74C172.728 12.2173 172.891 11.676 172.994 11.116C173.097 10.5467 173.162 9.98667 173.19 9.436C173.227 8.88533 173.246 8.358 173.246 7.854V2.688ZM177.656 8.036C177.768 8.932 177.922 9.72533 178.118 10.416C178.314 11.1067 178.594 11.7273 178.958 12.278C179.331 12.8193 179.826 13.3327 180.442 13.818C180.218 13.9953 179.999 14.2147 179.784 14.476C179.569 14.7467 179.406 15.0127 179.294 15.274C178.566 14.658 177.987 14.0047 177.558 13.314C177.129 12.6233 176.802 11.8627 176.578 11.032C176.354 10.2013 176.177 9.27267 176.046 8.246L177.656 8.036ZM167.758 6.398H171.986V7.672H167.758V6.398ZM167.814 2.548H171.958V3.808H167.814V2.548ZM167.758 8.316H171.986V9.576H167.758V8.316ZM167.1 4.424H172.448V5.754H167.1V4.424ZM168.486 10.248H172.014V14.518H168.486V13.188H170.572V11.578H168.486V10.248ZM167.73 10.248H169.144V15.064H167.73V10.248Z" fill="#4A5565"/>
<path d="M260 155C260 226.797 201.797 285 130 285C58.203 285 0 226.797 0 155C0 83.203 58.203 25 130 25C201.797 25 260 83.203 260 155ZM32.5 155C32.5 208.848 76.1522 252.5 130 252.5C183.848 252.5 227.5 208.848 227.5 155C227.5 101.152 183.848 57.5 130 57.5C76.1522 57.5 32.5 101.152 32.5 155Z" fill="#00BC7D"/>
<path d="M260 155C260 175.51 255.147 195.729 245.838 214.004C236.529 232.28 223.028 248.093 206.439 260.153C189.849 272.213 170.641 280.176 150.385 283.392C130.129 286.608 109.399 284.986 89.89 278.658L99.9175 247.743C114.549 252.489 130.097 253.706 145.289 251.294C160.481 248.882 174.887 242.909 187.329 233.865C199.771 224.82 209.897 212.96 216.879 199.253C223.86 185.546 227.5 170.382 227.5 155H260Z" fill="#2B7FFF"/>
<path d="M75.7784 113.938H73.2898C73.2443 113.616 73.1515 113.33 73.0114 113.08C72.8712 112.826 72.6913 112.61 72.4716 112.432C72.2519 112.254 71.9981 112.117 71.7102 112.023C71.4261 111.928 71.1174 111.881 70.7841 111.881C70.1818 111.881 69.6572 112.03 69.2102 112.33C68.7633 112.625 68.4167 113.057 68.1705 113.625C67.9242 114.189 67.8011 114.875 67.8011 115.682C67.8011 116.511 67.9242 117.208 68.1705 117.773C68.4205 118.337 68.7689 118.763 69.2159 119.051C69.6629 119.339 70.1799 119.483 70.767 119.483C71.0966 119.483 71.4015 119.439 71.6818 119.352C71.9659 119.265 72.2178 119.138 72.4375 118.972C72.6572 118.801 72.839 118.595 72.983 118.352C73.1307 118.11 73.233 117.833 73.2898 117.523L75.7784 117.534C75.714 118.068 75.553 118.583 75.2955 119.08C75.0417 119.572 74.6989 120.013 74.267 120.403C73.839 120.79 73.3277 121.097 72.733 121.324C72.142 121.547 71.4735 121.659 70.7273 121.659C69.6894 121.659 68.7614 121.424 67.9432 120.955C67.1288 120.485 66.4848 119.805 66.0114 118.915C65.5417 118.025 65.3068 116.947 65.3068 115.682C65.3068 114.413 65.5455 113.333 66.0227 112.443C66.5 111.553 67.1477 110.875 67.9659 110.409C68.7841 109.939 69.7045 109.705 70.7273 109.705C71.4015 109.705 72.0265 109.799 72.6023 109.989C73.1818 110.178 73.6951 110.455 74.142 110.818C74.589 111.178 74.9527 111.619 75.233 112.142C75.517 112.665 75.6989 113.263 75.7784 113.938ZM77.0994 111.892V109.864H86.6562V111.892H83.0938V121.5H80.6619V111.892H77.0994ZM98.392 115.682C98.392 116.951 98.1515 118.03 97.6705 118.92C97.1932 119.811 96.5417 120.491 95.7159 120.96C94.8939 121.426 93.9697 121.659 92.9432 121.659C91.9091 121.659 90.9811 121.424 90.1591 120.955C89.3371 120.485 88.6875 119.805 88.2102 118.915C87.733 118.025 87.4943 116.947 87.4943 115.682C87.4943 114.413 87.733 113.333 88.2102 112.443C88.6875 111.553 89.3371 110.875 90.1591 110.409C90.9811 109.939 91.9091 109.705 92.9432 109.705C93.9697 109.705 94.8939 109.939 95.7159 110.409C96.5417 110.875 97.1932 111.553 97.6705 112.443C98.1515 113.333 98.392 114.413 98.392 115.682ZM95.8977 115.682C95.8977 114.86 95.7746 114.167 95.5284 113.602C95.286 113.038 94.9432 112.61 94.5 112.318C94.0568 112.027 93.5379 111.881 92.9432 111.881C92.3485 111.881 91.8295 112.027 91.3864 112.318C90.9432 112.61 90.5985 113.038 90.3523 113.602C90.1098 114.167 89.9886 114.86 89.9886 115.682C89.9886 116.504 90.1098 117.197 90.3523 117.761C90.5985 118.326 90.9432 118.754 91.3864 119.045C91.8295 119.337 92.3485 119.483 92.9432 119.483C93.5379 119.483 94.0568 119.337 94.5 119.045C94.9432 118.754 95.286 118.326 95.5284 117.761C95.7746 117.197 95.8977 116.504 95.8977 115.682ZM107.203 113.372C107.587 113.372 107.928 113.468 108.227 113.66C108.536 113.841 108.782 114.087 108.963 114.396C109.155 114.695 109.251 115.036 109.251 115.42C109.251 115.793 109.155 116.135 108.963 116.444C108.782 116.753 108.536 117.004 108.227 117.196C107.928 117.377 107.587 117.468 107.203 117.468C106.83 117.468 106.488 117.377 106.179 117.196C105.87 117.004 105.619 116.753 105.427 116.444C105.246 116.135 105.155 115.793 105.155 115.42C105.155 115.036 105.246 114.695 105.427 114.396C105.619 114.087 105.87 113.841 106.179 113.66C106.488 113.468 106.83 113.372 107.203 113.372ZM116.323 109.5H122.883V111.164H116.323V109.5ZM124.627 112.668H128.995V114.332H124.627V112.668ZM115.875 112.652H123.283V114.348H115.875V112.652ZM120.051 116.076H123.139V117.724H120.051V116.076ZM118.707 107.948H120.499V113.564H118.707V107.948ZM119.107 113.74H120.867V120.86H119.107V113.74ZM123.747 108.524H129.811V114.732H127.971V110.204H123.747V108.524ZM123.875 112.668H125.731V117.612C125.731 117.889 125.774 118.065 125.859 118.14C125.944 118.215 126.147 118.252 126.467 118.252C126.542 118.252 126.659 118.252 126.819 118.252C126.979 118.252 127.155 118.252 127.347 118.252C127.55 118.252 127.736 118.252 127.907 118.252C128.088 118.252 128.222 118.252 128.307 118.252C128.499 118.252 128.643 118.204 128.739 118.108C128.846 118.012 128.915 117.815 128.947 117.516C128.99 117.217 129.022 116.775 129.043 116.188C129.182 116.284 129.347 116.38 129.539 116.476C129.742 116.561 129.95 116.641 130.163 116.716C130.376 116.791 130.563 116.855 130.723 116.908C130.659 117.708 130.547 118.332 130.387 118.78C130.238 119.217 130.008 119.527 129.699 119.708C129.4 119.879 128.99 119.964 128.467 119.964C128.392 119.964 128.275 119.964 128.115 119.964C127.966 119.964 127.795 119.964 127.603 119.964C127.422 119.964 127.235 119.964 127.043 119.964C126.851 119.964 126.68 119.964 126.531 119.964C126.382 119.964 126.27 119.964 126.195 119.964C125.608 119.964 125.144 119.9 124.803 119.772C124.472 119.633 124.232 119.393 124.083 119.052C123.944 118.711 123.875 118.231 123.875 117.612V112.668ZM117.907 116.828C118.131 117.671 118.408 118.348 118.739 118.86C119.08 119.372 119.496 119.761 119.987 120.028C120.478 120.284 121.048 120.46 121.699 120.556C122.36 120.641 123.112 120.684 123.955 120.684C124.158 120.684 124.435 120.689 124.787 120.7C125.139 120.7 125.534 120.7 125.971 120.7C126.408 120.689 126.862 120.684 127.331 120.684C127.811 120.684 128.275 120.684 128.723 120.684C129.182 120.684 129.598 120.679 129.971 120.668C130.344 120.647 130.654 120.636 130.899 120.636C130.803 120.775 130.702 120.956 130.595 121.18C130.499 121.404 130.414 121.633 130.339 121.868C130.264 122.113 130.206 122.332 130.163 122.524H129.027H123.955C122.899 122.524 121.966 122.455 121.155 122.316C120.355 122.188 119.656 121.937 119.059 121.564C118.472 121.191 117.976 120.657 117.571 119.964C117.166 119.271 116.819 118.364 116.531 117.244L117.907 116.828ZM116.435 115.276L118.195 115.404C118.163 116.417 118.11 117.399 118.035 118.348C117.971 119.297 117.859 120.183 117.699 121.004C117.539 121.815 117.32 122.529 117.043 123.148C116.936 123.063 116.782 122.967 116.579 122.86C116.387 122.764 116.184 122.663 115.971 122.556C115.758 122.46 115.582 122.385 115.443 122.332C115.71 121.788 115.907 121.143 116.035 120.396C116.174 119.649 116.27 118.839 116.323 117.964C116.387 117.089 116.424 116.193 116.435 115.276ZM132.099 117.692H146.371V119.276H132.099V117.692ZM132.147 110.524H146.323V112.092H132.147V110.524ZM132.803 113.388H145.699V114.892H132.803V113.388ZM133.587 115.596H144.963V116.988H133.587V115.596ZM138.227 114.14H140.131V122.94H138.227V114.14ZM136.835 107.884H138.627V111.276H136.835V107.884ZM139.811 107.884H141.619V111.164H139.811V107.884ZM137.875 118.396L139.395 119.084C138.894 119.639 138.286 120.156 137.571 120.636C136.867 121.105 136.11 121.516 135.299 121.868C134.488 122.231 133.672 122.524 132.851 122.748C132.766 122.588 132.648 122.407 132.499 122.204C132.36 122.012 132.211 121.82 132.051 121.628C131.902 121.436 131.758 121.276 131.619 121.148C132.419 120.977 133.214 120.759 134.003 120.492C134.803 120.225 135.539 119.911 136.211 119.548C136.883 119.185 137.438 118.801 137.875 118.396ZM140.515 118.348C140.846 118.668 141.24 118.972 141.699 119.26C142.158 119.537 142.659 119.793 143.203 120.028C143.758 120.252 144.339 120.449 144.947 120.62C145.566 120.791 146.19 120.924 146.819 121.02C146.67 121.169 146.51 121.34 146.339 121.532C146.179 121.735 146.024 121.943 145.875 122.156C145.736 122.38 145.619 122.583 145.523 122.764C144.883 122.604 144.254 122.396 143.635 122.14C143.027 121.895 142.446 121.612 141.891 121.292C141.336 120.972 140.814 120.615 140.323 120.22C139.832 119.825 139.4 119.404 139.027 118.956L140.515 118.348ZM143.491 108.028L145.491 108.508C145.246 108.945 144.995 109.372 144.739 109.788C144.483 110.193 144.248 110.54 144.035 110.828L142.467 110.348C142.595 110.135 142.723 109.895 142.851 109.628C142.979 109.351 143.096 109.073 143.203 108.796C143.32 108.508 143.416 108.252 143.491 108.028ZM141.379 111.452L143.411 111.932C143.187 112.305 142.974 112.668 142.771 113.02C142.568 113.361 142.387 113.655 142.227 113.9L140.595 113.452C140.734 113.153 140.878 112.823 141.027 112.46C141.176 112.087 141.294 111.751 141.379 111.452ZM133.283 108.54L134.931 107.98C135.166 108.311 135.4 108.695 135.635 109.132C135.87 109.559 136.04 109.927 136.147 110.236L134.419 110.876C134.334 110.556 134.179 110.177 133.955 109.74C133.731 109.303 133.507 108.903 133.283 108.54ZM135.315 112.124L137.187 111.82C137.326 112.044 137.459 112.3 137.587 112.588C137.726 112.865 137.827 113.111 137.891 113.324L135.939 113.66C135.886 113.457 135.8 113.207 135.683 112.908C135.566 112.609 135.443 112.348 135.315 112.124ZM153.955 108.652H160.803V110.3H153.955V108.652ZM154.547 117.244H162.019V118.924H154.547V117.244ZM153.587 120.812H162.691V122.492H153.587V120.812ZM160.259 108.652H160.611L160.963 108.572L162.243 109.132C161.827 110.391 161.24 111.479 160.483 112.396C159.726 113.313 158.84 114.081 157.827 114.7C156.814 115.308 155.704 115.799 154.499 116.172C154.392 115.937 154.232 115.665 154.019 115.356C153.816 115.036 153.624 114.775 153.443 114.572C154.52 114.295 155.512 113.9 156.419 113.388C157.336 112.865 158.126 112.231 158.787 111.484C159.459 110.737 159.95 109.889 160.259 108.94V108.652ZM156.435 110.092C156.99 111.18 157.827 112.113 158.947 112.892C160.078 113.66 161.4 114.209 162.915 114.54C162.723 114.721 162.51 114.967 162.275 115.276C162.051 115.585 161.875 115.857 161.747 116.092C160.136 115.655 158.744 114.977 157.571 114.06C156.408 113.143 155.475 112.001 154.771 110.636L156.435 110.092ZM157.267 115.324H159.155V121.884H157.267V115.324ZM150.083 107.916L151.747 108.54C151.534 108.945 151.31 109.367 151.075 109.804C150.84 110.241 150.611 110.657 150.387 111.052C150.163 111.447 149.95 111.788 149.747 112.076L148.467 111.532C148.659 111.201 148.856 110.828 149.059 110.412C149.262 109.996 149.454 109.569 149.635 109.132C149.816 108.695 149.966 108.289 150.083 107.916ZM151.923 109.82L153.491 110.524C153.107 111.132 152.686 111.772 152.227 112.444C151.768 113.105 151.31 113.745 150.851 114.364C150.392 114.972 149.96 115.505 149.555 115.964L148.435 115.34C148.734 114.977 149.043 114.572 149.363 114.124C149.683 113.665 149.998 113.191 150.307 112.7C150.627 112.199 150.926 111.703 151.203 111.212C151.48 110.711 151.72 110.247 151.923 109.82ZM147.619 111.708L148.547 110.396C148.824 110.641 149.107 110.913 149.395 111.212C149.694 111.5 149.966 111.793 150.211 112.092C150.467 112.38 150.659 112.641 150.787 112.876L149.811 114.364C149.683 114.108 149.496 113.825 149.251 113.516C149.016 113.207 148.755 112.892 148.467 112.572C148.179 112.252 147.896 111.964 147.619 111.708ZM151.459 113.628L152.723 113.1C152.926 113.463 153.123 113.852 153.315 114.268C153.518 114.673 153.688 115.073 153.827 115.468C153.976 115.852 154.078 116.199 154.131 116.508L152.771 117.116C152.718 116.807 152.622 116.455 152.483 116.06C152.355 115.655 152.2 115.239 152.019 114.812C151.838 114.385 151.651 113.991 151.459 113.628ZM147.603 114.956C148.339 114.935 149.219 114.903 150.243 114.86C151.267 114.817 152.307 114.775 153.363 114.732L153.347 116.252C152.355 116.327 151.368 116.396 150.387 116.46C149.416 116.524 148.542 116.583 147.763 116.636L147.603 114.956ZM151.795 117.612L153.139 117.18C153.342 117.639 153.534 118.14 153.715 118.684C153.907 119.217 154.051 119.687 154.147 120.092L152.723 120.604C152.648 120.199 152.52 119.719 152.339 119.164C152.158 118.599 151.976 118.081 151.795 117.612ZM148.307 117.308L149.891 117.596C149.806 118.364 149.678 119.121 149.507 119.868C149.336 120.615 149.139 121.244 148.915 121.756C148.808 121.681 148.664 121.596 148.483 121.5C148.302 121.415 148.115 121.329 147.923 121.244C147.742 121.159 147.582 121.095 147.443 121.052C147.678 120.572 147.864 120.001 148.003 119.34C148.142 118.668 148.243 117.991 148.307 117.308ZM150.099 115.804H151.779V122.94H150.099V115.804ZM172.515 115.58V117.052H176.611V115.58H172.515ZM170.947 114.188H178.243V118.444H170.947V114.188ZM174.435 109.58C174.2 110.007 173.896 110.455 173.523 110.924C173.15 111.393 172.728 111.841 172.259 112.268C171.8 112.695 171.315 113.068 170.803 113.388C170.718 113.153 170.59 112.887 170.419 112.588C170.248 112.279 170.083 112.028 169.923 111.836C170.435 111.548 170.92 111.185 171.379 110.748C171.848 110.311 172.27 109.847 172.643 109.356C173.016 108.855 173.315 108.375 173.539 107.916H175.219C175.528 108.396 175.886 108.876 176.291 109.356C176.696 109.825 177.128 110.252 177.587 110.636C178.046 111.009 178.51 111.313 178.979 111.548C178.808 111.761 178.632 112.028 178.451 112.348C178.28 112.657 178.136 112.94 178.019 113.196C177.56 112.919 177.107 112.583 176.659 112.188C176.211 111.783 175.795 111.356 175.411 110.908C175.027 110.46 174.702 110.017 174.435 109.58ZM173.683 112.508H175.379V115.644C175.379 116.284 175.331 116.94 175.235 117.612C175.15 118.273 174.958 118.929 174.659 119.58C174.371 120.22 173.944 120.828 173.379 121.404C172.814 121.98 172.056 122.503 171.107 122.972C171.022 122.833 170.91 122.679 170.771 122.508C170.643 122.348 170.504 122.183 170.355 122.012C170.206 121.852 170.067 121.724 169.939 121.628C170.782 121.233 171.448 120.801 171.939 120.332C172.44 119.852 172.814 119.351 173.059 118.828C173.315 118.295 173.48 117.756 173.555 117.212C173.64 116.668 173.683 116.135 173.683 115.612V112.508ZM175.539 117.612C175.827 118.444 176.254 119.201 176.819 119.884C177.395 120.556 178.094 121.063 178.915 121.404C178.776 121.521 178.627 121.665 178.467 121.836C178.318 122.017 178.174 122.204 178.035 122.396C177.896 122.588 177.779 122.764 177.683 122.924C176.787 122.444 176.046 121.772 175.459 120.908C174.883 120.044 174.424 119.068 174.083 117.98L175.539 117.612ZM172.051 111.852H176.995V113.34H172.051V111.852ZM165.363 110.924H170.035V112.38H165.363V110.924ZM165.363 113.356H170.035V114.796H165.363V113.356ZM164.451 115.788H169.939V117.276H164.451V115.788ZM167.123 109.404H168.643V116.604H167.123V109.404ZM167.651 117.996L168.403 117.756C168.563 118.065 168.712 118.412 168.851 118.796C169 119.18 169.102 119.511 169.155 119.788L168.371 120.076C168.318 119.799 168.222 119.463 168.083 119.068C167.955 118.673 167.811 118.316 167.651 117.996ZM166.611 118.22L167.427 118.076C167.566 118.481 167.683 118.929 167.779 119.42C167.875 119.9 167.934 120.311 167.955 120.652L167.107 120.828C167.086 120.476 167.027 120.06 166.931 119.58C166.846 119.089 166.739 118.636 166.611 118.22ZM165.507 118.3L166.339 118.22C166.424 118.689 166.478 119.201 166.499 119.756C166.52 120.3 166.526 120.769 166.515 121.164L165.635 121.292C165.667 120.887 165.667 120.407 165.635 119.852C165.614 119.297 165.571 118.78 165.507 118.3ZM164.323 117.964L165.379 118.172C165.358 118.663 165.315 119.148 165.251 119.628C165.198 120.108 165.107 120.556 164.979 120.972C164.862 121.377 164.696 121.729 164.483 122.028L163.507 121.5C163.699 121.223 163.848 120.903 163.955 120.54C164.062 120.167 164.142 119.761 164.195 119.324C164.259 118.876 164.302 118.423 164.323 117.964ZM164.451 108.508H170.355V110.06H166.035V116.812H164.451V108.508ZM169.107 115.788H170.675C170.675 115.788 170.675 115.868 170.675 116.028C170.675 116.188 170.67 116.321 170.659 116.428C170.616 117.719 170.563 118.764 170.499 119.564C170.435 120.364 170.36 120.983 170.275 121.42C170.19 121.847 170.083 122.14 169.955 122.3C169.827 122.481 169.688 122.609 169.539 122.684C169.39 122.769 169.214 122.828 169.011 122.86C168.851 122.892 168.643 122.908 168.387 122.908C168.142 122.919 167.88 122.919 167.603 122.908C167.592 122.673 167.55 122.417 167.475 122.14C167.4 121.863 167.304 121.623 167.187 121.42C167.4 121.441 167.592 121.457 167.763 121.468C167.934 121.479 168.072 121.484 168.179 121.484C168.264 121.484 168.339 121.468 168.403 121.436C168.467 121.404 168.531 121.351 168.595 121.276C168.68 121.169 168.75 120.94 168.803 120.588C168.867 120.236 168.92 119.697 168.963 118.972C169.016 118.247 169.064 117.276 169.107 116.06V115.788ZM180.003 112.764H194.403V114.444H180.003V112.764ZM181.379 109.628H190.531V111.292H181.379V109.628ZM184.211 118.332H191.347V119.788H184.211V118.332ZM184.211 120.86H191.347V122.476H184.211V120.86ZM185.155 107.9H187.059V113.708H185.155V107.9ZM192.195 108.364L193.843 109.228C192.808 110.679 191.592 112.001 190.195 113.196C188.798 114.391 187.288 115.447 185.667 116.364C184.056 117.281 182.387 118.06 180.659 118.7C180.584 118.561 180.478 118.396 180.339 118.204C180.2 118.001 180.051 117.799 179.891 117.596C179.742 117.393 179.608 117.233 179.491 117.116C181.23 116.561 182.888 115.857 184.467 115.004C186.056 114.151 187.507 113.164 188.819 112.044C190.142 110.924 191.267 109.697 192.195 108.364ZM183.123 115.724H192.563V122.876H190.563V117.308H185.043V122.94H183.123V115.724Z" fill="#1E2939"/>
<path d="M83.3153 193.5L105.023 150.545V150.188H79.7358V141.136H116.477V150.315L94.7443 193.5H83.3153ZM143.471 194.651C139.073 194.634 135.289 193.551 132.119 191.403C128.965 189.256 126.536 186.145 124.832 182.071C123.144 177.997 122.309 173.097 122.326 167.369C122.326 161.659 123.17 156.793 124.857 152.77C126.562 148.747 128.991 145.687 132.144 143.591C135.315 141.477 139.09 140.42 143.471 140.42C147.852 140.42 151.619 141.477 154.772 143.591C157.942 145.705 160.38 148.773 162.085 152.795C163.789 156.801 164.633 161.659 164.616 167.369C164.616 173.114 163.763 178.023 162.059 182.097C160.371 186.17 157.951 189.281 154.798 191.429C151.644 193.577 147.869 194.651 143.471 194.651ZM143.471 185.472C146.471 185.472 148.866 183.963 150.656 180.946C152.445 177.929 153.332 173.403 153.315 167.369C153.315 163.398 152.906 160.091 152.087 157.449C151.286 154.807 150.144 152.821 148.661 151.491C147.195 150.162 145.465 149.497 143.471 149.497C140.488 149.497 138.102 150.989 136.312 153.972C134.522 156.955 133.619 161.42 133.602 167.369C133.602 171.392 134.002 174.75 134.803 177.443C135.621 180.119 136.772 182.131 138.255 183.477C139.738 184.807 141.477 185.472 143.471 185.472Z" fill="#00BC7D"/>
<path d="M175.578 191.318V190.705C175.578 190.239 175.677 189.811 175.874 189.42C176.074 189.027 176.364 188.712 176.743 188.477C177.125 188.239 177.591 188.119 178.141 188.119C178.697 188.119 179.165 188.237 179.544 188.472C179.927 188.706 180.214 189.021 180.408 189.415C180.605 189.805 180.703 190.235 180.703 190.705V191.318C180.703 191.784 180.605 192.214 180.408 192.608C180.211 192.998 179.921 193.311 179.538 193.545C179.156 193.784 178.69 193.903 178.141 193.903C177.584 193.903 177.116 193.784 176.737 193.545C176.358 193.311 176.071 192.998 175.874 192.608C175.677 192.214 175.578 191.784 175.578 191.318ZM177.232 190.705V191.318C177.232 191.587 177.296 191.841 177.425 192.08C177.557 192.318 177.796 192.438 178.141 192.438C178.485 192.438 178.72 192.32 178.845 192.085C178.974 191.85 179.038 191.595 179.038 191.318V190.705C179.038 190.428 178.978 190.17 178.857 189.932C178.735 189.693 178.497 189.574 178.141 189.574C177.8 189.574 177.563 189.693 177.43 189.932C177.298 190.17 177.232 190.428 177.232 190.705ZM169.607 184.659V184.045C169.607 183.576 169.707 183.146 169.908 182.756C170.108 182.362 170.398 182.047 170.777 181.812C171.16 181.578 171.622 181.46 172.163 181.46C172.724 181.46 173.194 181.578 173.572 181.812C173.951 182.047 174.239 182.362 174.436 182.756C174.633 183.146 174.732 183.576 174.732 184.045V184.659C174.732 185.129 174.631 185.559 174.43 185.949C174.233 186.339 173.944 186.652 173.561 186.886C173.182 187.117 172.716 187.233 172.163 187.233C171.61 187.233 171.143 187.116 170.76 186.881C170.381 186.642 170.093 186.33 169.896 185.943C169.703 185.553 169.607 185.125 169.607 184.659ZM171.271 184.045V184.659C171.271 184.936 171.336 185.191 171.464 185.426C171.597 185.661 171.83 185.778 172.163 185.778C172.512 185.778 172.749 185.661 172.874 185.426C173.002 185.191 173.067 184.936 173.067 184.659V184.045C173.067 183.769 173.006 183.511 172.885 183.273C172.764 183.034 172.523 182.915 172.163 182.915C171.826 182.915 171.593 183.036 171.464 183.278C171.336 183.521 171.271 183.777 171.271 184.045ZM170.357 193.5L178.357 181.864H179.845L171.845 193.5H170.357Z" fill="#1E2939"/>
<path d="M283.648 131.152C283.84 131.256 284.056 131.388 284.296 131.548C284.536 131.7 284.784 131.86 285.04 132.028C285.296 132.188 285.536 132.344 285.76 132.496C285.992 132.64 286.176 132.764 286.312 132.868L285.604 133.9C285.452 133.788 285.264 133.656 285.04 133.504C284.816 133.352 284.58 133.196 284.332 133.036C284.084 132.876 283.84 132.724 283.6 132.58C283.36 132.428 283.148 132.296 282.964 132.184L283.648 131.152ZM281.668 139.708C282.108 139.628 282.56 139.528 283.024 139.408C283.488 139.28 283.948 139.128 284.404 138.952C284.86 138.768 285.3 138.564 285.724 138.34C286.388 137.956 287.008 137.528 287.584 137.056C288.16 136.584 288.68 136.08 289.144 135.544C289.608 135.008 290 134.456 290.32 133.888L291.052 135.16C290.508 135.976 289.832 136.756 289.024 137.5C288.224 138.244 287.336 138.896 286.36 139.456C285.952 139.688 285.508 139.904 285.028 140.104C284.556 140.304 284.084 140.476 283.612 140.62C283.148 140.772 282.736 140.88 282.376 140.944L281.668 139.708ZM281.824 133.876C282.016 133.972 282.236 134.096 282.484 134.248C282.732 134.392 282.984 134.544 283.24 134.704C283.496 134.864 283.736 135.016 283.96 135.16C284.184 135.296 284.368 135.416 284.512 135.52L283.816 136.588C283.656 136.476 283.464 136.344 283.24 136.192C283.016 136.04 282.78 135.884 282.532 135.724C282.284 135.564 282.036 135.416 281.788 135.28C281.548 135.136 281.332 135.012 281.14 134.908L281.824 133.876ZM294.1 132.544C294.3 132.56 294.512 132.576 294.736 132.592C294.96 132.6 295.172 132.604 295.372 132.604C295.516 132.604 295.724 132.604 295.996 132.604C296.276 132.604 296.588 132.604 296.932 132.604C297.276 132.604 297.632 132.604 298 132.604C298.368 132.604 298.716 132.604 299.044 132.604C299.372 132.604 299.66 132.604 299.908 132.604C300.156 132.604 300.332 132.604 300.436 132.604C300.668 132.604 300.892 132.6 301.108 132.592C301.332 132.576 301.524 132.56 301.684 132.544V133.912C301.524 133.896 301.328 133.888 301.096 133.888C300.864 133.88 300.644 133.876 300.436 133.876C300.34 133.876 300.164 133.876 299.908 133.876C299.652 133.876 299.348 133.876 298.996 133.876C298.652 133.876 298.292 133.876 297.916 133.876C297.54 133.876 297.176 133.876 296.824 133.876C296.48 133.876 296.18 133.876 295.924 133.876C295.668 133.876 295.488 133.876 295.384 133.876C295.168 133.876 294.948 133.88 294.724 133.888C294.5 133.888 294.292 133.896 294.1 133.912V132.544ZM293.068 138.448C293.292 138.464 293.52 138.48 293.752 138.496C293.984 138.512 294.212 138.52 294.436 138.52C294.54 138.52 294.732 138.52 295.012 138.52C295.292 138.52 295.628 138.52 296.02 138.52C296.42 138.52 296.844 138.52 297.292 138.52C297.748 138.52 298.2 138.52 298.648 138.52C299.096 138.52 299.516 138.52 299.908 138.52C300.308 138.52 300.648 138.52 300.928 138.52C301.208 138.52 301.396 138.52 301.492 138.52C301.684 138.52 301.884 138.516 302.092 138.508C302.3 138.492 302.5 138.472 302.692 138.448V139.9C302.5 139.876 302.292 139.86 302.068 139.852C301.852 139.844 301.66 139.84 301.492 139.84C301.396 139.84 301.208 139.84 300.928 139.84C300.648 139.84 300.308 139.84 299.908 139.84C299.516 139.84 299.096 139.84 298.648 139.84C298.2 139.84 297.748 139.84 297.292 139.84C296.844 139.84 296.42 139.84 296.02 139.84C295.628 139.84 295.292 139.84 295.012 139.84C294.732 139.84 294.54 139.84 294.436 139.84C294.212 139.84 293.98 139.848 293.74 139.864C293.508 139.872 293.284 139.884 293.068 139.9V138.448ZM315.304 132.388C315.248 132.452 315.18 132.536 315.1 132.64C315.028 132.736 314.964 132.82 314.908 132.892C314.74 133.188 314.504 133.536 314.2 133.936C313.904 134.336 313.564 134.74 313.18 135.148C312.804 135.548 312.4 135.9 311.968 136.204L310.972 135.4C311.236 135.248 311.492 135.068 311.74 134.86C311.996 134.644 312.232 134.42 312.448 134.188C312.672 133.956 312.868 133.732 313.036 133.516C313.204 133.292 313.332 133.092 313.42 132.916C313.308 132.916 313.116 132.916 312.844 132.916C312.58 132.916 312.26 132.916 311.884 132.916C311.516 132.916 311.12 132.916 310.696 132.916C310.28 132.916 309.864 132.916 309.448 132.916C309.032 132.916 308.644 132.916 308.284 132.916C307.924 132.916 307.616 132.916 307.36 132.916C307.104 132.916 306.932 132.916 306.844 132.916C306.604 132.916 306.372 132.924 306.148 132.94C305.924 132.948 305.684 132.964 305.428 132.988V131.656C305.652 131.68 305.884 131.704 306.124 131.728C306.364 131.752 306.604 131.764 306.844 131.764C306.932 131.764 307.108 131.764 307.372 131.764C307.636 131.764 307.952 131.764 308.32 131.764C308.696 131.764 309.1 131.764 309.532 131.764C309.964 131.764 310.396 131.764 310.828 131.764C311.26 131.764 311.664 131.764 312.04 131.764C312.416 131.764 312.736 131.764 313 131.764C313.264 131.764 313.448 131.764 313.552 131.764C313.64 131.764 313.748 131.764 313.876 131.764C314.012 131.756 314.14 131.744 314.26 131.728C314.388 131.712 314.484 131.696 314.548 131.68L315.304 132.388ZM310.456 133.984C310.456 134.608 310.44 135.2 310.408 135.76C310.376 136.32 310.3 136.852 310.18 137.356C310.068 137.852 309.892 138.32 309.652 138.76C309.412 139.192 309.088 139.6 308.68 139.984C308.272 140.368 307.752 140.72 307.12 141.04L306.016 140.14C306.192 140.084 306.38 140.008 306.58 139.912C306.788 139.808 306.984 139.688 307.168 139.552C307.6 139.272 307.948 138.968 308.212 138.64C308.476 138.312 308.672 137.96 308.8 137.584C308.936 137.2 309.028 136.788 309.076 136.348C309.132 135.908 309.16 135.44 309.16 134.944C309.16 134.784 309.156 134.628 309.148 134.476C309.14 134.324 309.12 134.16 309.088 133.984H310.456ZM317.704 132.316C317.864 132.34 318.048 132.36 318.256 132.376C318.464 132.384 318.636 132.388 318.772 132.388H325.336C325.52 132.388 325.704 132.384 325.888 132.376C326.08 132.36 326.256 132.34 326.416 132.316V133.636C326.248 133.62 326.068 133.608 325.876 133.6C325.692 133.592 325.512 133.588 325.336 133.588H318.772C318.636 133.588 318.464 133.592 318.256 133.6C318.048 133.608 317.864 133.62 317.704 133.636V132.316ZM321.304 139.516V133.06H322.612V139.516H321.304ZM316.96 138.748C317.144 138.772 317.332 138.792 317.524 138.808C317.716 138.824 317.9 138.832 318.076 138.832H325.996C326.188 138.832 326.372 138.824 326.548 138.808C326.724 138.784 326.888 138.764 327.04 138.748V140.128C326.872 140.104 326.688 140.088 326.488 140.08C326.288 140.072 326.124 140.068 325.996 140.068H318.076C317.9 140.068 317.716 140.072 317.524 140.08C317.34 140.088 317.152 140.104 316.96 140.128V138.748ZM330.796 131.56C331.012 131.704 331.26 131.884 331.54 132.1C331.82 132.308 332.104 132.532 332.392 132.772C332.688 133.012 332.968 133.244 333.232 133.468C333.496 133.692 333.708 133.892 333.868 134.068L332.92 135.04C332.768 134.88 332.568 134.688 332.32 134.464C332.072 134.232 331.804 133.996 331.516 133.756C331.236 133.508 330.956 133.276 330.676 133.06C330.396 132.836 330.144 132.648 329.92 132.496L330.796 131.56ZM329.56 139.588C330.232 139.484 330.852 139.348 331.42 139.18C331.988 139.004 332.508 138.808 332.98 138.592C333.46 138.368 333.892 138.14 334.276 137.908C334.916 137.516 335.504 137.064 336.04 136.552C336.584 136.04 337.06 135.512 337.468 134.968C337.876 134.424 338.2 133.896 338.44 133.384L339.172 134.692C338.884 135.212 338.528 135.732 338.104 136.252C337.688 136.772 337.216 137.272 336.688 137.752C336.16 138.224 335.584 138.652 334.96 139.036C334.56 139.284 334.12 139.524 333.64 139.756C333.168 139.988 332.656 140.196 332.104 140.38C331.56 140.564 330.98 140.712 330.364 140.824L329.56 139.588ZM348.664 131.428C348.768 131.58 348.888 131.768 349.024 131.992C349.168 132.216 349.304 132.444 349.432 132.676C349.568 132.9 349.68 133.108 349.768 133.3L348.928 133.66C348.824 133.428 348.712 133.208 348.592 133C348.48 132.784 348.364 132.572 348.244 132.364C348.124 132.156 347.992 131.96 347.848 131.776L348.664 131.428ZM350.272 130.852C350.384 130.996 350.508 131.176 350.644 131.392C350.788 131.608 350.928 131.832 351.064 132.064C351.2 132.288 351.316 132.492 351.412 132.676L350.572 133.048C350.468 132.816 350.352 132.596 350.224 132.388C350.104 132.18 349.98 131.976 349.852 131.776C349.724 131.576 349.588 131.384 349.444 131.2L350.272 130.852ZM343.504 131.224C343.688 131.328 343.9 131.46 344.14 131.62C344.388 131.772 344.64 131.932 344.896 132.1C345.152 132.26 345.392 132.416 345.616 132.568C345.84 132.712 346.024 132.836 346.168 132.94L345.448 133.972C345.304 133.86 345.12 133.728 344.896 133.576C344.672 133.424 344.432 133.268 344.176 133.108C343.928 132.948 343.684 132.796 343.444 132.652C343.212 132.5 343.004 132.372 342.82 132.268L343.504 131.224ZM341.512 139.78C341.96 139.7 342.416 139.6 342.88 139.48C343.344 139.352 343.804 139.2 344.26 139.024C344.716 138.84 345.152 138.636 345.568 138.412C346.24 138.028 346.86 137.6 347.428 137.128C348.004 136.656 348.524 136.152 348.988 135.616C349.452 135.08 349.844 134.528 350.164 133.96L350.896 135.232C350.36 136.048 349.688 136.828 348.88 137.572C348.072 138.316 347.18 138.972 346.204 139.54C345.804 139.764 345.364 139.976 344.884 140.176C344.404 140.376 343.932 140.548 343.468 140.692C343.004 140.844 342.588 140.952 342.22 141.016L341.512 139.78ZM341.668 133.948C341.86 134.044 342.08 134.168 342.328 134.32C342.576 134.464 342.828 134.616 343.084 134.776C343.34 134.936 343.58 135.088 343.804 135.232C344.028 135.376 344.212 135.496 344.356 135.592L343.66 136.66C343.5 136.548 343.308 136.416 343.084 136.264C342.86 136.112 342.624 135.956 342.376 135.796C342.128 135.636 341.884 135.488 341.644 135.352C341.404 135.208 341.188 135.084 340.996 134.98L341.668 133.948ZM354.1 132.544C354.3 132.56 354.512 132.576 354.736 132.592C354.96 132.6 355.172 132.604 355.372 132.604C355.516 132.604 355.724 132.604 355.996 132.604C356.276 132.604 356.588 132.604 356.932 132.604C357.276 132.604 357.632 132.604 358 132.604C358.368 132.604 358.716 132.604 359.044 132.604C359.372 132.604 359.66 132.604 359.908 132.604C360.156 132.604 360.332 132.604 360.436 132.604C360.668 132.604 360.892 132.6 361.108 132.592C361.332 132.576 361.524 132.56 361.684 132.544V133.912C361.524 133.896 361.328 133.888 361.096 133.888C360.864 133.88 360.644 133.876 360.436 133.876C360.34 133.876 360.164 133.876 359.908 133.876C359.652 133.876 359.348 133.876 358.996 133.876C358.652 133.876 358.292 133.876 357.916 133.876C357.54 133.876 357.176 133.876 356.824 133.876C356.48 133.876 356.18 133.876 355.924 133.876C355.668 133.876 355.488 133.876 355.384 133.876C355.168 133.876 354.948 133.88 354.724 133.888C354.5 133.888 354.292 133.896 354.1 133.912V132.544ZM353.068 138.448C353.292 138.464 353.52 138.48 353.752 138.496C353.984 138.512 354.212 138.52 354.436 138.52C354.54 138.52 354.732 138.52 355.012 138.52C355.292 138.52 355.628 138.52 356.02 138.52C356.42 138.52 356.844 138.52 357.292 138.52C357.748 138.52 358.2 138.52 358.648 138.52C359.096 138.52 359.516 138.52 359.908 138.52C360.308 138.52 360.648 138.52 360.928 138.52C361.208 138.52 361.396 138.52 361.492 138.52C361.684 138.52 361.884 138.516 362.092 138.508C362.3 138.492 362.5 138.472 362.692 138.448V139.9C362.5 139.876 362.292 139.86 362.068 139.852C361.852 139.844 361.66 139.84 361.492 139.84C361.396 139.84 361.208 139.84 360.928 139.84C360.648 139.84 360.308 139.84 359.908 139.84C359.516 139.84 359.096 139.84 358.648 139.84C358.2 139.84 357.748 139.84 357.292 139.84C356.844 139.84 356.42 139.84 356.02 139.84C355.628 139.84 355.292 139.84 355.012 139.84C354.732 139.84 354.54 139.84 354.436 139.84C354.212 139.84 353.98 139.848 353.74 139.864C353.508 139.872 353.284 139.884 353.068 139.9V138.448ZM375.304 132.388C375.248 132.452 375.18 132.536 375.1 132.64C375.028 132.736 374.964 132.82 374.908 132.892C374.74 133.188 374.504 133.536 374.2 133.936C373.904 134.336 373.564 134.74 373.18 135.148C372.804 135.548 372.4 135.9 371.968 136.204L370.972 135.4C371.236 135.248 371.492 135.068 371.74 134.86C371.996 134.644 372.232 134.42 372.448 134.188C372.672 133.956 372.868 133.732 373.036 133.516C373.204 133.292 373.332 133.092 373.42 132.916C373.308 132.916 373.116 132.916 372.844 132.916C372.58 132.916 372.26 132.916 371.884 132.916C371.516 132.916 371.12 132.916 370.696 132.916C370.28 132.916 369.864 132.916 369.448 132.916C369.032 132.916 368.644 132.916 368.284 132.916C367.924 132.916 367.616 132.916 367.36 132.916C367.104 132.916 366.932 132.916 366.844 132.916C366.604 132.916 366.372 132.924 366.148 132.94C365.924 132.948 365.684 132.964 365.428 132.988V131.656C365.652 131.68 365.884 131.704 366.124 131.728C366.364 131.752 366.604 131.764 366.844 131.764C366.932 131.764 367.108 131.764 367.372 131.764C367.636 131.764 367.952 131.764 368.32 131.764C368.696 131.764 369.1 131.764 369.532 131.764C369.964 131.764 370.396 131.764 370.828 131.764C371.26 131.764 371.664 131.764 372.04 131.764C372.416 131.764 372.736 131.764 373 131.764C373.264 131.764 373.448 131.764 373.552 131.764C373.64 131.764 373.748 131.764 373.876 131.764C374.012 131.756 374.14 131.744 374.26 131.728C374.388 131.712 374.484 131.696 374.548 131.68L375.304 132.388ZM370.456 133.984C370.456 134.608 370.44 135.2 370.408 135.76C370.376 136.32 370.3 136.852 370.18 137.356C370.068 137.852 369.892 138.32 369.652 138.76C369.412 139.192 369.088 139.6 368.68 139.984C368.272 140.368 367.752 140.72 367.12 141.04L366.016 140.14C366.192 140.084 366.38 140.008 366.58 139.912C366.788 139.808 366.984 139.688 367.168 139.552C367.6 139.272 367.948 138.968 368.212 138.64C368.476 138.312 368.672 137.96 368.8 137.584C368.936 137.2 369.028 136.788 369.076 136.348C369.132 135.908 369.16 135.44 369.16 134.944C369.16 134.784 369.156 134.628 369.148 134.476C369.14 134.324 369.12 134.16 369.088 133.984H370.456Z" fill="#1E2939"/>
<path d="M293.111 181.898C290.99 181.898 289.1 181.533 287.443 180.804C285.795 180.065 284.493 179.052 283.537 177.764C282.59 176.467 282.102 174.971 282.074 173.276H288.267C288.305 173.986 288.537 174.611 288.963 175.151C289.399 175.681 289.976 176.093 290.696 176.386C291.416 176.68 292.225 176.827 293.125 176.827C294.062 176.827 294.891 176.661 295.611 176.33C296.33 175.998 296.894 175.539 297.301 174.952C297.708 174.365 297.912 173.687 297.912 172.92C297.912 172.144 297.694 171.457 297.259 170.861C296.832 170.255 296.217 169.781 295.412 169.44C294.616 169.099 293.67 168.929 292.571 168.929H289.858V164.412H292.571C293.499 164.412 294.318 164.251 295.028 163.929C295.748 163.607 296.307 163.162 296.705 162.594C297.102 162.016 297.301 161.344 297.301 160.577C297.301 159.848 297.126 159.208 296.776 158.659C296.435 158.1 295.952 157.665 295.327 157.352C294.711 157.04 293.991 156.884 293.168 156.884C292.334 156.884 291.572 157.035 290.881 157.338C290.189 157.632 289.635 158.053 289.219 158.602C288.802 159.152 288.58 159.795 288.551 160.534H282.656C282.685 158.858 283.163 157.381 284.091 156.102C285.019 154.824 286.269 153.825 287.841 153.105C289.422 152.376 291.207 152.011 293.196 152.011C295.204 152.011 296.96 152.376 298.466 153.105C299.972 153.834 301.141 154.819 301.974 156.06C302.817 157.291 303.234 158.673 303.224 160.207C303.234 161.836 302.727 163.195 301.705 164.284C300.691 165.373 299.37 166.064 297.741 166.358V166.585C299.882 166.86 301.51 167.603 302.628 168.815C303.755 170.018 304.313 171.524 304.304 173.332C304.313 174.99 303.835 176.462 302.869 177.75C301.913 179.038 300.592 180.051 298.906 180.79C297.221 181.528 295.289 181.898 293.111 181.898ZM320.131 182.139C317.688 182.13 315.586 181.528 313.825 180.335C312.073 179.142 310.723 177.414 309.776 175.151C308.839 172.887 308.375 170.165 308.384 166.983C308.384 163.811 308.853 161.107 309.79 158.872C310.737 156.637 312.087 154.937 313.839 153.773C315.6 152.598 317.698 152.011 320.131 152.011C322.565 152.011 324.658 152.598 326.41 153.773C328.171 154.947 329.525 156.652 330.472 158.886C331.419 161.112 331.888 163.811 331.879 166.983C331.879 170.174 331.405 172.902 330.458 175.165C329.521 177.428 328.176 179.156 326.424 180.349C324.672 181.543 322.575 182.139 320.131 182.139ZM320.131 177.04C321.798 177.04 323.129 176.202 324.123 174.526C325.117 172.849 325.61 170.335 325.6 166.983C325.6 164.777 325.373 162.939 324.918 161.472C324.473 160.004 323.839 158.901 323.015 158.162C322.201 157.423 321.239 157.054 320.131 157.054C318.474 157.054 317.148 157.883 316.154 159.54C315.16 161.197 314.658 163.678 314.648 166.983C314.648 169.218 314.871 171.083 315.316 172.58C315.771 174.066 316.41 175.184 317.234 175.932C318.058 176.67 319.023 177.04 320.131 177.04Z" fill="#2B7FFF"/>
<path d="M341.219 179.318V178.705C341.219 178.239 341.317 177.811 341.514 177.42C341.715 177.027 342.005 176.712 342.384 176.477C342.766 176.239 343.232 176.119 343.781 176.119C344.338 176.119 344.806 176.237 345.185 176.472C345.567 176.706 345.855 177.021 346.048 177.415C346.245 177.805 346.344 178.235 346.344 178.705V179.318C346.344 179.784 346.245 180.214 346.048 180.608C345.851 180.998 345.562 181.311 345.179 181.545C344.796 181.784 344.33 181.903 343.781 181.903C343.224 181.903 342.757 181.784 342.378 181.545C341.999 181.311 341.711 180.998 341.514 180.608C341.317 180.214 341.219 179.784 341.219 179.318ZM342.872 178.705V179.318C342.872 179.587 342.937 179.841 343.065 180.08C343.198 180.318 343.437 180.438 343.781 180.438C344.126 180.438 344.361 180.32 344.486 180.085C344.615 179.85 344.679 179.595 344.679 179.318V178.705C344.679 178.428 344.618 178.17 344.497 177.932C344.376 177.693 344.137 177.574 343.781 177.574C343.44 177.574 343.204 177.693 343.071 177.932C342.938 178.17 342.872 178.428 342.872 178.705ZM335.247 172.659V172.045C335.247 171.576 335.348 171.146 335.548 170.756C335.749 170.362 336.039 170.047 336.418 169.812C336.8 169.578 337.262 169.46 337.804 169.46C338.365 169.46 338.834 169.578 339.213 169.812C339.592 170.047 339.88 170.362 340.077 170.756C340.274 171.146 340.372 171.576 340.372 172.045V172.659C340.372 173.129 340.272 173.559 340.071 173.949C339.874 174.339 339.584 174.652 339.202 174.886C338.823 175.117 338.357 175.233 337.804 175.233C337.251 175.233 336.783 175.116 336.401 174.881C336.022 174.642 335.734 174.33 335.537 173.943C335.344 173.553 335.247 173.125 335.247 172.659ZM336.912 172.045V172.659C336.912 172.936 336.976 173.191 337.105 173.426C337.238 173.661 337.471 173.778 337.804 173.778C338.152 173.778 338.389 173.661 338.514 173.426C338.643 173.191 338.707 172.936 338.707 172.659V172.045C338.707 171.769 338.647 171.511 338.526 171.273C338.404 171.034 338.164 170.915 337.804 170.915C337.467 170.915 337.234 171.036 337.105 171.278C336.976 171.521 336.912 171.777 336.912 172.045ZM335.997 181.5L343.997 169.864H345.486L337.486 181.5H335.997Z" fill="#1E2939"/>
</svg>
