<svg width="90" height="90" viewBox="0 0 90 90" fill="none" xmlns="http://www.w3.org/2000/svg">
<g clip-path="url(#clip0_3259_149)">
<path d="M48.7003 69.8695L44.7983 65.7286L48.7003 61.5877C49.1997 61.0577 49.1749 60.2231 48.6451 59.7237C48.1153 59.2243 47.2809 59.2489 46.7813 59.7791L42.027 64.8244C41.5483 65.3322 41.5483 66.1248 42.027 66.6328L46.7813 71.6781C47.2809 72.2082 48.1153 72.2325 48.6451 71.7335C49.1751 71.2339 49.1997 70.3995 48.7003 69.8695Z" fill="#4A5565"/>
<path d="M64.8 64.8242L60.0456 59.7789C59.5461 59.2489 58.7116 59.2245 58.1818 59.7235C57.6519 60.2229 57.6273 61.0572 58.1266 61.5873L62.0286 65.7282L58.1266 69.8691C57.6271 70.3991 57.6519 71.2337 58.1818 71.7331C58.7108 72.2316 59.5454 72.2084 60.0456 71.6777L64.8 66.6324C65.2787 66.1248 65.2787 65.3322 64.8 64.8242Z" fill="#4A5565"/>
<path d="M55.4818 59.4305C54.7896 59.2031 54.0448 59.58 53.8175 60.2715L50.5018 70.3617C50.2745 71.0534 50.651 71.7985 51.3425 72.0258C52.0328 72.2531 52.7794 71.8776 53.0068 71.1849L56.3226 61.0947C56.5499 60.403 56.1734 59.658 55.4818 59.4305Z" fill="#4A5565"/>
<path d="M76.6313 80.3062H75.85C75.9918 79.9008 76.0697 79.4656 76.0697 79.0124V69.0244C76.0697 68.2963 75.4796 67.706 74.7513 67.706C74.0231 67.706 73.433 68.2963 73.433 69.0244V79.0124C73.433 79.7258 72.8525 80.3062 72.1394 80.3062H34.6881C33.9748 80.3062 33.3946 79.7258 33.3946 79.0124C33.3946 77.5471 33.3946 51.8101 33.3946 50.5872C33.3946 50.5426 33.3969 50.4986 33.4013 50.4552C33.4677 49.8037 34.0195 49.2936 34.6881 49.2936C36.4869 49.2936 69.9641 49.2936 72.1392 49.2936C72.8525 49.2936 73.4328 49.8741 73.4328 50.5874V62.8715C73.4328 63.5996 74.0229 64.1899 74.7512 64.1899C75.4794 64.1899 76.0695 63.5996 76.0695 62.8715V50.5874C76.0695 48.42 74.3063 46.6567 72.139 46.6567H58.578L47.3567 42.3111V38.6144C49.8602 36.6674 51.596 33.7813 52.0318 30.4887C53.28 30.4008 54.4382 29.9347 55.3841 29.1213C56.6193 28.0591 57.3281 26.5131 57.3281 24.8804C57.3281 23.5257 56.8392 22.2318 55.968 21.2238V16.3394C55.9682 7.3299 48.6387 0 39.6292 0C30.6197 0 23.29 7.3299 23.29 16.3394V21.3511C22.4095 22.3492 21.9306 23.5774 21.9306 24.8799C21.9306 27.7968 24.1712 30.2729 27.225 30.4884C27.6645 33.8439 29.4516 36.8372 32.1674 38.8097V42.3112L16.4225 48.4153C16.4143 48.4184 16.406 48.4218 16.3978 48.4251C16.1137 48.5418 9.43945 51.3752 9.43945 59.1703C9.43945 60.8954 9.43945 85.9011 9.43945 86.6352C9.43945 88.4907 10.9491 90 12.8043 90C13.9765 90 49.8081 90 50.338 90C51.0662 90 51.6563 89.4097 51.6563 88.6816C51.6563 87.9536 51.0662 87.3633 50.338 87.3633H30.1961C30.1069 87.3633 30.0197 87.3541 29.9357 87.3369C29.3469 87.216 28.9025 86.6937 28.9025 86.0695V84.2368C28.9025 83.5235 29.4829 82.9433 30.1961 82.9433C32.0854 82.9433 74.0174 82.9433 76.6313 82.9433C77.3446 82.9433 77.9249 83.5235 77.9249 84.2368V86.0695C77.9249 86.7829 77.3445 87.3633 76.6313 87.3633H56.4901C55.7619 87.3633 55.1718 87.9536 55.1718 88.6816C55.1718 89.4097 55.7619 90 56.4901 90H76.6313C78.7987 90 80.5618 88.2366 80.5618 86.0694V84.2367C80.562 82.0693 78.7987 80.3062 76.6313 80.3062ZM44.7202 42.7468L41.5529 46.6564H37.9714L34.8042 42.7468V40.2687C36.3081 40.8741 38.0225 41.2138 39.7891 41.2138C41.5396 41.2138 43.2536 40.8284 44.7203 40.1861V42.7468H44.7202ZM50.2077 46.2424L50.0012 46.6564H44.9462L46.4581 44.7901L50.2077 46.2424ZM54.6913 24.8799C54.6913 25.7435 54.3173 26.5607 53.6651 27.1216C53.2338 27.4925 52.7131 27.7297 52.1427 27.8225V21.9379C53.6576 22.1845 54.6913 23.4406 54.6913 24.8799ZM27.116 27.8225C25.5834 27.5738 24.5672 26.3064 24.5672 24.8797C24.5672 23.4707 25.7353 22.3233 27.116 22.0041V27.8225ZM27.1865 19.3178C26.7576 19.3672 26.277 19.4827 25.9265 19.6017V16.3394C25.9265 8.78379 32.0736 2.63689 39.629 2.63689C47.1844 2.63689 53.3313 8.78379 53.3313 16.3394V19.5112C52.9481 19.3946 52.5505 19.3177 52.1427 19.2814C52.1427 18.7112 52.1462 18.4352 51.7482 17.8889C51.307 17.2832 50.4401 16.4122 47.9922 13.7809C47.992 13.7807 47.992 13.7807 47.9918 13.7805C47.2271 12.9588 45.9664 12.7819 44.9972 13.4156C40.404 16.416 34.8024 17.9239 29.6313 17.5521C28.4875 17.4653 27.4621 18.225 27.1865 19.3178ZM29.7589 29.1048C29.7589 29.1018 29.7592 29.099 29.7591 29.096L29.7564 29.0083C29.7555 28.9591 29.7527 28.9097 29.7527 28.8605V20.6353V20.202C35.3227 20.5283 41.2966 18.9174 46.2301 15.7577C48.1039 17.7701 49.1736 18.8833 49.5056 19.2908C49.5056 20.3251 49.5056 27.6764 49.5056 28.8603C49.5056 28.9056 49.5028 28.9501 49.5023 28.9953L49.4991 29.0934C49.4989 29.0978 49.4995 29.102 49.4995 29.1064C49.3683 34.3408 45.078 38.5768 39.789 38.5768C33.6811 38.577 29.886 33.8715 29.7589 29.1048ZM19.8912 87.3631H12.8037C12.4024 87.3631 12.0758 87.0365 12.0758 86.6352V75.3637H19.163C19.5643 75.3637 19.8911 75.6904 19.8911 76.0917C19.8912 77.4487 19.8912 86.0697 19.8912 87.3631ZM30.1961 80.3062C28.0287 80.3062 26.2656 82.0695 26.2656 84.2367V86.0694C26.2656 86.0694 26.2656 86.0694 26.2656 86.0695C26.2656 86.5157 26.3436 86.9606 26.4843 87.3631H22.5283C22.5283 85.0945 22.5283 69.2685 22.5283 67.0574C22.5283 66.3293 21.9382 65.739 21.2099 65.739C20.4817 65.739 19.8916 66.3293 19.8916 67.0574V72.8084C19.6569 72.7564 19.4138 72.7269 19.1635 72.7269H12.0758V59.1701C12.0758 53.2338 17.0849 50.9985 17.392 50.8672L26.855 47.1987L30.7573 55.0199V79.0124C30.7573 79.4276 30.8262 79.8773 30.976 80.3062H30.1961ZM30.9254 49.4497L29.3249 46.2424L33.0678 44.7928L34.5788 46.658C32.8781 46.7046 31.4179 47.8427 30.9254 49.4497Z" fill="#4A5565"/>
</g>
<defs>
<clipPath id="clip0_3259_149">
<rect width="90" height="90" fill="white"/>
</clipPath>
</defs>
</svg>
