<svg width="169" height="184" viewBox="0 0 169 184" fill="none" xmlns="http://www.w3.org/2000/svg">
<g clip-path="url(#clip0_590_1552)">
<path d="M84.3468 22.0108L83.9473 21.6969C85.745 19.4141 87.6341 17.2682 89.5631 15.2593L89.9226 15.6131C88.005 17.6049 86.1274 19.7622 84.3468 22.0108Z" fill="#92E3A9"/>
<path d="M82.2137 23.8854L80.373 26.2061L80.7665 26.5182L82.6072 24.1975L82.2137 23.8854Z" fill="#92E3A9"/>
<path d="M121.813 48.4861C134.214 28.5512 135.903 8.90727 126.875 2.54954C117.846 -3.80819 99.92 4.39864 85.3269 22.7927L43.625 75.3952L86.3827 105.506L121.813 48.4861Z" fill="#92E3A9"/>
<path opacity="0.1" d="M116.935 45.0506L80.6374 101.477L76.1973 92.9904L112.249 41.5121C122.442 26.9533 128.155 13.65 128.178 6.24215C128.177 6.09893 128.226 5.95995 128.318 5.84994C128.41 5.73993 128.537 5.66601 128.679 5.64136C128.82 5.6167 128.965 5.6429 129.088 5.71529C129.212 5.78769 129.306 5.90157 129.353 6.03669C131.922 13.4274 127.47 28.6768 116.935 45.0506Z" fill="white"/>
<path d="M86.3574 105.493C92.1298 97.2946 87.2364 83.9084 75.4277 75.5937C63.619 67.279 49.3667 67.1844 43.5944 75.3825C37.822 83.5805 42.7154 96.9667 54.5241 105.281C66.3328 113.596 80.585 113.691 86.3574 105.493Z" fill="#92E3A9"/>
<path opacity="0.5" d="M86.3574 105.493C92.1298 97.2946 87.2364 83.9084 75.4277 75.5937C63.619 67.279 49.3667 67.1844 43.5944 75.3825C37.822 83.5805 42.7154 96.9667 54.5241 105.281C66.3328 113.596 80.585 113.691 86.3574 105.493Z" fill="white"/>
<path opacity="0.1" d="M81.9199 66.3037C72.5374 59.6949 61.8937 57.8059 55.0965 60.8934L44.5098 74.2366C50.7876 67.2283 64.205 67.7077 75.4252 75.6064C86.6454 83.505 91.6277 95.9979 87.1305 104.256L96.0165 89.9883C96.7813 82.4948 91.4052 72.9811 81.9199 66.3037Z" fill="black"/>
<path opacity="0.2" d="M96.9481 23.2837C94.3456 27.4042 92.3824 35.1146 100.116 40.5534C107.849 45.9923 114.446 41.5579 117.442 37.6999L96.9481 23.2837Z" fill="black"/>
<path d="M119.268 32.9516C118.383 40.3137 109.874 45.6841 100.942 39.3949C92.0107 33.1056 94.1966 23.2837 100.828 19.9907C104.915 17.9475 110.119 18.8493 113.681 21.3262C117.242 23.8031 119.816 28.3859 119.268 32.9516Z" fill="white"/>
<path d="M102.157 37.6541C98.6818 35.2115 96.9012 32.0155 97.1523 28.6711C97.2663 27.2277 97.752 25.8384 98.5621 24.6383C99.3721 23.4382 100.479 22.4682 101.775 21.8226C104.88 20.2702 109.274 20.7554 112.464 22.9982C115.655 25.2411 117.601 29.2247 117.173 32.6718C117.003 34.1056 116.466 35.4712 115.613 36.6361C114.76 37.801 113.62 38.7258 112.305 39.3206C109.257 40.7017 105.633 40.1025 102.157 37.6541Z" fill="#92E3A9"/>
<path opacity="0.3" d="M102.157 37.6541C98.6818 35.2115 96.9012 32.0155 97.1523 28.6711C97.2663 27.2277 97.752 25.8384 98.5621 24.6383C99.3721 23.4382 100.479 22.4682 101.775 21.8226C104.88 20.2702 109.274 20.7554 112.464 22.9982C115.655 25.2411 117.601 29.2247 117.173 32.6718C117.003 34.1056 116.466 35.4712 115.613 36.6361C114.76 37.801 113.62 38.7258 112.305 39.3206C109.257 40.7017 105.633 40.1025 102.157 37.6541Z" fill="black"/>
<path d="M102.158 37.6541C98.6823 35.2114 96.8389 32.1068 96.9759 28.9222C97.0351 27.5682 97.4673 26.257 98.2246 25.1331C98.9819 24.0092 100.035 23.1163 101.268 22.553C104.252 21.1719 108.561 21.7769 111.752 24.0255C114.942 26.2741 116.962 30.1264 116.665 33.4023C116.55 34.7546 116.063 36.0486 115.257 37.1407C114.451 38.2327 113.358 39.0801 112.1 39.5888C109.172 40.793 105.634 40.1024 102.158 37.6541Z" fill="#92E3A9"/>
<path opacity="0.2" d="M102.158 37.6541C98.6823 35.2114 96.8389 32.1068 96.9759 28.9222C97.0351 27.5682 97.4673 26.257 98.2246 25.1331C98.9819 24.0092 100.035 23.1163 101.268 22.553C104.252 21.1719 108.561 21.7769 111.752 24.0255C114.942 26.2741 116.962 30.1264 116.665 33.4023C116.55 34.7546 116.063 36.0486 115.257 37.1407C114.451 38.2327 113.358 39.0801 112.1 39.5888C109.172 40.793 105.634 40.1024 102.158 37.6541Z" fill="white"/>
<path opacity="0.3" d="M114.172 26.2797L98.1068 33.368C97.31 32.0252 96.914 30.4826 96.9654 28.9221C96.9958 28.1871 97.1402 27.4612 97.3934 26.7705L107.763 22.2048C110.28 22.8427 112.524 24.2758 114.161 26.2911L114.172 26.2797Z" fill="white"/>
<path opacity="0.3" d="M116.478 30.8513L101.737 37.346C100.85 36.6958 100.042 35.945 99.3281 35.1088L115.365 28.032C115.866 28.915 116.241 29.8641 116.478 30.8513Z" fill="white"/>
<path opacity="0.1" d="M132.549 18.1415C132.058 14.2036 129.033 9.64929 124.251 6.28209C119.468 2.91489 114.166 1.60226 110.291 2.46403C116.883 -0.22402 122.79 -0.326748 126.876 2.54964C130.962 5.42603 132.857 11.0304 132.549 18.1415Z" fill="black"/>
<path opacity="0.5" d="M75.42 89.4397C77.2183 86.8857 75.7616 82.7631 72.1664 80.2317C68.5713 77.7003 64.199 77.7186 62.4007 80.2726C60.6023 82.8265 62.059 86.9491 65.6542 89.4805C69.2494 92.0119 73.6216 91.9936 75.42 89.4397Z" fill="#92E3A9"/>
<path opacity="0.5" d="M58.4648 87.0435C56.6671 89.5946 52.2954 89.6174 48.6999 87.0835C45.1044 84.5495 43.6434 80.4289 45.4411 77.8779C47.2389 75.3268 51.6163 75.304 55.2117 77.8379C58.8072 80.3719 60.2397 84.4924 58.4648 87.0435Z" fill="#92E3A9"/>
<path opacity="0.5" d="M83.4095 104.627C81.6117 107.184 77.2401 107.201 73.6446 104.667C70.0491 102.133 68.5938 98.0127 70.3915 95.4616C72.1893 92.9105 76.5609 92.8877 80.1564 95.4217C83.7519 97.9556 85.2072 102.076 83.4095 104.627Z" fill="#92E3A9"/>
<path opacity="0.5" d="M66.4544 102.224C64.6566 104.776 60.285 104.793 56.6895 102.264C53.094 99.7362 51.6387 95.6099 53.4365 93.0531C55.2342 90.4963 59.6058 90.4849 63.2013 93.0132C66.7968 95.5414 68.2293 99.6677 66.4544 102.224Z" fill="#92E3A9"/>
<path opacity="0.5" d="M75.4254 89.4519C75.2353 89.7215 75.0129 89.9668 74.7634 90.1825C75.7621 87.6371 74.2554 84.1044 71.0423 81.8444C67.8292 79.5843 63.9997 79.3561 61.9395 81.1481C62.0605 80.8443 62.2156 80.5552 62.4017 80.2863C64.1995 77.7352 68.5768 77.7124 72.1723 80.2464C75.7678 82.7803 77.2174 86.8952 75.4254 89.4519Z" fill="#92E3A9"/>
<path opacity="0.5" d="M58.4646 87.0434C58.2751 87.3118 58.0549 87.5569 57.8083 87.7739C58.807 85.2229 57.306 81.6959 54.0872 79.4301C50.8684 77.1644 47.0446 76.9418 44.9844 78.7396C45.1042 78.4352 45.2594 78.146 45.4467 77.8778C47.2444 75.321 51.616 75.3039 55.2115 77.8378C58.807 80.3718 60.2395 84.4866 58.4646 87.0434Z" fill="#92E3A9"/>
<path opacity="0.5" d="M83.4099 104.633C83.2203 104.899 83 105.143 82.7536 105.358C83.7523 102.807 82.2456 99.2796 79.0325 97.0196C75.8194 94.7596 71.99 94.5256 69.9297 96.329C70.0483 96.0223 70.2035 95.731 70.392 95.4615C72.1897 92.9047 76.5614 92.8876 80.1568 95.4216C83.7523 97.9555 85.2134 102.076 83.4099 104.633Z" fill="#92E3A9"/>
<path opacity="0.5" d="M66.4548 102.224C66.2684 102.494 66.0478 102.737 65.7985 102.949C66.7973 100.404 65.2906 96.8712 62.0775 94.6112C58.8644 92.3512 55.0349 92.1229 52.9746 93.9206C53.0921 93.6134 53.2474 93.322 53.4369 93.0531C55.2346 90.4963 59.6063 90.4849 63.2018 93.0132C66.7973 95.5414 68.2297 99.6677 66.4548 102.224Z" fill="#92E3A9"/>
<path d="M71.9216 42.2141C71.9216 42.2141 64.2169 52.2129 57.5054 60.8193C56.5523 62.0191 55.3035 62.9504 53.8817 63.5218C52.4598 64.0931 50.9139 64.2848 49.3955 64.078C43.5343 63.3532 33.9863 67.5023 33.9863 67.5023C33.9863 67.5023 52.0494 37.831 71.9216 42.2141Z" fill="#92E3A9"/>
<path opacity="0.3" d="M71.9216 42.2141C71.9216 42.2141 64.2169 52.2129 57.5054 60.8193C56.5523 62.0191 55.3035 62.9504 53.8817 63.5218C52.4598 64.0931 50.9139 64.2848 49.3955 64.078C43.5343 63.3532 33.9863 67.5023 33.9863 67.5023C33.9863 67.5023 52.0494 37.831 71.9216 42.2141Z" fill="black"/>
<path d="M108.053 67.6621C108.053 67.6621 101.267 78.2831 95.3942 87.5C94.5862 88.8017 94.1308 90.2912 94.0727 91.8222C94.0147 93.3531 94.3561 94.8729 95.0632 96.2319C97.7228 101.511 97.0265 111.921 97.0265 111.921C97.0265 111.921 118.879 84.8862 108.053 67.6621Z" fill="#92E3A9"/>
<path opacity="0.3" d="M108.053 67.6621C108.053 67.6621 101.267 78.2831 95.3942 87.5C94.5862 88.8017 94.1308 90.2912 94.0727 91.8222C94.0147 93.3531 94.3561 94.8729 95.0632 96.2319C97.7228 101.511 97.0265 111.921 97.0265 111.921C97.0265 111.921 118.879 84.8862 108.053 67.6621Z" fill="black"/>
<path d="M132.948 144.018C140.076 126.577 109.258 121.634 97.0615 126.012C84.8654 130.389 72.4296 133.642 71.9502 121.971C71.4708 110.3 80.8647 103.063 76.3846 100.37C73.902 98.8744 73.1943 101.511 71.9673 105.358C68.212 117.143 46.9416 119.951 56.7293 137.009C66.517 154.068 61.295 150.364 44.83 157.207C28.3649 164.05 36.84 183.756 52.7686 183.756H148.694C192.661 183.756 151.034 99.5992 132.948 144.018Z" fill="#92E3A9"/>
<path opacity="0.6" d="M132.948 144.018C140.076 126.577 109.258 121.634 97.0615 126.012C84.8654 130.389 72.4296 133.642 71.9502 121.971C71.4708 110.3 80.8647 103.063 76.3846 100.37C73.902 98.8744 73.1943 101.511 71.9673 105.358C68.212 117.143 46.9416 119.951 56.7293 137.009C66.517 154.068 61.295 150.364 44.83 157.207C28.3649 164.05 36.84 183.756 52.7686 183.756H148.694C192.661 183.756 151.034 99.5992 132.948 144.018Z" fill="white"/>
<path d="M51.9297 83.2254C50.6513 78.7853 43.7342 84.3669 36.9199 91.1298C30.1056 97.8927 26.7441 113.33 20.1524 121.378C13.5607 129.425 -5.31276 136.695 2.06655 148.806C12.95 166.652 -12.0643 183.773 17.5614 183.773H78.3251C89.4369 183.773 101.485 170.185 84.1806 160.945C66.8766 151.705 40.9549 173.25 33.9579 152.698C30.488 142.5 43.0893 147.179 37.2509 130.48C31.4126 113.781 31.8006 109.233 34.7741 101.791C42.0107 83.6535 53.8986 89.9712 51.9297 83.2254Z" fill="#92E3A9"/>
<path opacity="0.6" d="M51.9297 83.2254C50.6513 78.7853 43.7342 84.3669 36.9199 91.1298C30.1056 97.8927 26.7441 113.33 20.1524 121.378C13.5607 129.425 -5.31276 136.695 2.06655 148.806C12.95 166.652 -12.0643 183.773 17.5614 183.773H78.3251C89.4369 183.773 101.485 170.185 84.1806 160.945C66.8766 151.705 40.9549 173.25 33.9579 152.698C30.488 142.5 43.0893 147.179 37.2509 130.48C31.4126 113.781 31.8006 109.233 34.7741 101.791C42.0107 83.6535 53.8986 89.9712 51.9297 83.2254Z" fill="white"/>
<path d="M64.5258 85.2744C66.0325 82.5236 71.2031 84.1729 71.089 87.7741C70.9748 91.3753 57.5859 96.0951 60.0742 108.531C62.5626 120.967 86.464 121.857 92.0741 134.316C97.6842 146.774 75.9515 148.521 82.4347 156.311C88.918 164.101 108.927 146.209 123.184 150.809C137.44 155.409 151.685 183.756 125.535 183.756H44.9561C27.4352 183.756 14.6399 147.579 31.4759 132.695C48.3119 117.811 34.7289 122.645 41.0125 113.108C47.296 103.571 58.7445 95.8212 64.5258 85.2744Z" fill="#92E3A9"/>
<path opacity="0.8" d="M64.5258 85.2744C66.0325 82.5236 71.2031 84.1729 71.089 87.7741C70.9748 91.3753 57.5859 96.0951 60.0742 108.531C62.5626 120.967 86.464 121.857 92.0741 134.316C97.6842 146.774 75.9515 148.521 82.4347 156.311C88.918 164.101 108.927 146.209 123.184 150.809C137.44 155.409 151.685 183.756 125.535 183.756H44.9561C27.4352 183.756 14.6399 147.579 31.4759 132.695C48.3119 117.811 34.7289 122.645 41.0125 113.108C47.296 103.571 58.7445 95.8212 64.5258 85.2744Z" fill="white"/>
</g>
<defs>
<clipPath id="clip0_590_1552">
<rect width="168.407" height="184" fill="white"/>
</clipPath>
</defs>
</svg>
