<svg width="583" height="564" viewBox="0 0 583 564" fill="none" xmlns="http://www.w3.org/2000/svg">
<path d="M98.9334 2.20187C54.9334 10.8685 19.6001 44.2019 7.3334 88.7352C3.86673 101.269 3.86673 136.335 7.3334 149.402C12.8001 170.335 24.9334 190.869 40.2667 205.535C51.0667 215.802 58.9334 221.002 72.5334 227.402C90.5334 235.669 99.0667 237.402 123.467 237.402C141.467 237.402 146.4 236.869 155.067 234.469C176 228.335 192.133 219.002 207.333 203.935C223.067 188.469 233.733 169.535 238.8 148.469C242.8 131.935 242.533 105.269 238.267 88.4685C227.867 47.2685 194.933 14.3352 153.733 3.9352C143.2 1.26854 138 0.735203 122.933 0.868536C112.933 1.00187 102.133 1.5352 98.9334 2.20187Z" fill="black"/>
<path d="M267.2 3.66844C287.867 32.4684 297.6 54.0684 303.734 84.2018C305.467 93.0018 306 102.202 306 120.068C306 146.202 303.6 161.535 296.667 181.002C291.467 195.535 279.867 217.402 271.6 228.468L264.134 238.202L375.2 237.802C500.8 237.268 492.134 237.935 516.8 226.068C546.534 211.802 568.4 185.935 578.267 153.402C581.6 142.602 582 139.402 582 120.068C582.134 95.5351 580.4 87.1351 572 69.0018C565.2 54.3351 557.467 43.5351 545.067 31.8018C532.667 20.0684 518.934 11.8018 501.734 5.9351L488.8 1.40177L376.934 1.00177L265.067 0.60177L267.2 3.66844Z" fill="black"/>
<path d="M97.4667 275.269C52.5333 285.135 16.9333 318.869 3.86667 364.202C0.933333 374.602 0.8 375.535 0.4 469.002L0 563.402H122.8H245.467V472.069C245.467 371.269 245.333 370.069 237.067 350.069C222.133 313.935 193.867 288.335 156.533 277.269C140.4 272.469 114 271.535 97.4667 275.269Z" fill="black"/>
<path d="M294.8 295.268C294.8 295.935 296.666 301.135 298.933 306.735C304 319.535 307.733 333.802 309.466 347.802C310.266 354.335 310.8 399.135 310.8 460.335V562.068H446.8H582.8V492.868C582.8 437.002 582.4 421.535 580.8 411.935C578.133 396.202 574.4 385.268 567.2 371.135C548.933 335.535 516 309.002 476.8 298.468L463.466 294.868L379.2 294.335C325.066 294.068 294.8 294.468 294.8 295.268Z" fill="black"/>
</svg>
