<svg width="508" height="62" viewBox="0 0 508 62" fill="none" xmlns="http://www.w3.org/2000/svg">
<path fill-rule="evenodd" clip-rule="evenodd" d="M36.7295 25.81L21.0095 10.1L5.29951 25.81L0.249512 20.76L15.9595 5.05L21.0095 0L26.0595 5.05L41.7795 20.76L36.7295 25.81ZM380.7 27.68C380.7 20.06 385.73 13.23 393.1 11.28L393.11 11.27C404.47 8.25999 414.75 16.79 414.75 27.68V33.89C414.75 36.24 414.33 38.6 413.38 40.75C410.06 48.26 402.45 52.03 394.92 50.83C386.81 49.55 380.7 42.1 380.7 33.52V27.68ZM399.74 43.58C404.22 42.67 407.47 38.52 407.47 33.71H407.46V27.69C407.46 21.08 400.86 15.98 393.9 18.66C390.27 20.06 387.96 23.67 387.96 27.57V34.04C387.96 36.97 389.27 39.73 391.55 41.59C393.29 43 395.48 43.78 397.73 43.78C398.4 43.78 399.08 43.72 399.74 43.58ZM109.139 10.67H91.6494V51.06H109.089C118.259 51.06 125.689 43.63 125.689 34.46V27.22C125.689 18.08 118.279 10.67 109.139 10.67ZM118.429 34.46C118.429 39.61 114.249 43.79 109.099 43.79H98.9294V17.94H109.149C114.279 17.94 118.429 22.1 118.429 27.22V34.46ZM169.7 31.46C170.65 29.43 171.13 27.19 171.13 24.73C171.13 20.15 169.86 16.67 167.31 14.27C164.77 11.87 160.71 10.67 155.14 10.67H139.66V50.98H147.07V38.79V31.92V17.53H154.86C157.79 17.53 159.95 18.1 161.34 19.23C162.73 20.36 163.43 22.2 163.43 24.72C163.43 27.24 162.73 29.08 161.34 30.21C160.21 31.13 158.58 31.67 156.44 31.84H152.08L151.81 32.11L148.68 35.24L152.14 38.7H158.26L164.69 50.47V50.48L164.96 50.98H173.26L165.22 36.35C167.23 35.11 168.72 33.47 169.67 31.43L169.7 31.46ZM446.459 10.67H428.969V51.06H446.409C455.579 51.06 463.009 43.63 463.009 34.46V27.22C463.009 18.08 455.599 10.67 446.459 10.67ZM455.739 34.46C455.739 39.61 451.559 43.79 446.409 43.79H436.229V17.94H446.449C451.579 17.94 455.729 22.1 455.729 27.22V34.46H455.739ZM360.009 23.19C357.969 19.25 353.519 17.2 349.129 18.19L349.119 18.18C344.769 19.16 341.609 23.26 341.609 27.93V33.78C341.609 38.45 344.769 42.55 349.119 43.53C353.509 44.52 357.959 42.47 360.009 38.53H367.769C365.519 46.82 357.459 52.11 348.829 50.87C340.569 49.68 334.339 42.23 334.339 33.54V28.18C334.339 19.49 340.569 12.04 348.829 10.85C349.659 10.73 350.509 10.67 351.349 10.67C359.069 10.67 365.769 15.8 367.769 23.19H360.009ZM41.0796 51.63L25.3596 35.92L20.3096 40.97L36.0296 56.69L41.0796 61.74L46.1296 56.69L61.8396 40.97L56.7896 35.92L41.0796 51.63ZM41.1496 0.0700073L36.0996 5.12001L51.8096 20.84L36.0996 36.55L41.1496 41.6L56.8596 25.89L61.9096 20.84L56.8596 15.79L41.1496 0.0700073ZM20.9397 20.14L25.9897 25.19L10.2797 40.9L25.9897 56.61L20.9397 61.66L5.22969 45.95L0.179688 40.9L5.22969 35.85L20.9397 20.14ZM186.7 10.67H185.99V51.03H187.67H210.85H216.71V44.05H193.41V34.26H211.2C211.2 34.26 211.26 34.25 211.29 34.22L214.67 30.85L211.24 27.42C211.24 27.42 211.18 27.38 211.15 27.38H193.41V17.65H216.72V10.67H186.7ZM477.269 10.67H477.979H477.989H508.009V17.65H484.689V27.38H502.429C502.459 27.38 502.519 27.42 502.519 27.42L505.949 30.85L502.569 34.22C502.539 34.25 502.479 34.26 502.479 34.26H484.689V44.05H507.989V51.03H502.129H478.949H477.269V10.67ZM250.86 27.29H250.59H241.05C237.72 26.92 235.49 23.33 237.47 19.91C238.26 18.54 239.77 17.76 241.35 17.76H257.37H257.81L258.9 16.66L261.32 14.25H261.31L261.32 14.22L257.81 10.67H241.53C235 10.67 229.66 15.97 229.63 22.49V22.7C229.69 26.13 231.15 29.32 233.92 31.76C235.94 33.54 238.58 34.43 241.27 34.44H241.53H251.07C254.4 34.81 256.63 38.4 254.65 41.82C253.86 43.18 252.35 43.96 250.77 43.96H233.84H233.13L229.62 47.51L233.13 51.06H248.94H250.59C257.15 51.06 262.49 45.73 262.49 39.18C262.49 36.36 261.49 33.64 259.53 31.27C257.41 28.7 254.18 27.31 250.85 27.3L250.86 27.29ZM294.999 27.29H295.269L295.249 27.3C298.579 27.31 301.809 28.7 303.929 31.27C305.889 33.64 306.889 36.36 306.889 39.18C306.889 45.73 301.549 51.06 294.989 51.06H293.339H277.529L274.019 47.51L277.529 43.96H278.239H295.169C296.749 43.96 298.259 43.18 299.049 41.82C301.029 38.4 298.799 34.81 295.469 34.44H285.929H285.669C282.979 34.43 280.339 33.54 278.319 31.76C275.549 29.32 274.089 26.13 274.029 22.7V22.49C274.059 15.97 279.399 10.67 285.929 10.67H302.209V10.71L303.769 12.3L305.719 14.25L302.519 17.45C302.429 17.54 302.329 17.6 302.219 17.65V17.76H301.779H285.759C284.179 17.76 282.669 18.54 281.879 19.91C279.899 23.33 282.129 26.92 285.459 27.29H294.999Z" fill="#111B3C"/>
</svg>
