<?xml version="1.0" encoding="UTF-8"?>
<svg xmlns="http://www.w3.org/2000/svg" xmlns:xlink="http://www.w3.org/1999/xlink" width="304.37pt" height="110.54pt" viewBox="277.26 250.81 304.37 110.54" version="1.2">
<defs>
<clipPath id="clip1">
  <path d="M 316 302 L 345 302 L 345 331 L 316 331 Z M 316 302 "/>
</clipPath>
<clipPath id="clip2">
  <path d="M 337.738281 302.695312 C 337.382812 302.695312 337.046875 302.859375 336.832031 303.144531 L 317 329.421875 C 316.652344 329.882812 316.980469 330.542969 317.558594 330.542969 L 323.378906 330.539062 C 323.734375 330.535156 324.066406 330.371094 324.28125 330.085938 L 344.117188 303.808594 C 344.464844 303.347656 344.132812 302.6875 343.558594 302.6875 Z M 337.738281 302.695312 "/>
</clipPath>
<clipPath id="clip3">
  <path d="M 337.738281 302.695312 C 337.382812 302.695312 337.046875 302.859375 336.832031 303.144531 L 317 329.421875 C 316.652344 329.882812 316.980469 330.542969 317.558594 330.542969 L 323.378906 330.539062 C 323.734375 330.535156 324.066406 330.371094 324.28125 330.085938 L 344.117188 303.808594 C 344.464844 303.347656 344.132812 302.6875 343.558594 302.6875 "/>
</clipPath>
<linearGradient id="linear0" gradientUnits="userSpaceOnUse" x1="-0.00750931" y1="0" x2="1.007487" y2="0" gradientTransform="matrix(27.400379,0,0,27.400379,316.8574,316.614682)">
<stop offset="0" style="stop-color:rgb(86.531067%,26.921082%,20.291138%);stop-opacity:1;"/>
<stop offset="0.25" style="stop-color:rgb(86.531067%,26.921082%,20.291138%);stop-opacity:1;"/>
<stop offset="0.28125" style="stop-color:rgb(86.531067%,26.921082%,20.291138%);stop-opacity:1;"/>
<stop offset="0.296875" style="stop-color:rgb(86.535645%,26.937866%,20.289612%);stop-opacity:1;"/>
<stop offset="0.304688" style="stop-color:rgb(86.56311%,27.032471%,20.283508%);stop-opacity:1;"/>
<stop offset="0.3125" style="stop-color:rgb(86.610413%,27.192688%,20.271301%);stop-opacity:1;"/>
<stop offset="0.320312" style="stop-color:rgb(86.659241%,27.357483%,20.259094%);stop-opacity:1;"/>
<stop offset="0.328125" style="stop-color:rgb(86.708069%,27.52533%,20.245361%);stop-opacity:1;"/>
<stop offset="0.335938" style="stop-color:rgb(86.758423%,27.696228%,20.233154%);stop-opacity:1;"/>
<stop offset="0.34375" style="stop-color:rgb(86.807251%,27.865601%,20.219421%);stop-opacity:1;"/>
<stop offset="0.351562" style="stop-color:rgb(86.859131%,28.038025%,20.205688%);stop-opacity:1;"/>
<stop offset="0.359375" style="stop-color:rgb(86.909485%,28.211975%,20.193481%);stop-opacity:1;"/>
<stop offset="0.367188" style="stop-color:rgb(86.961365%,28.384399%,20.179749%);stop-opacity:1;"/>
<stop offset="0.375" style="stop-color:rgb(87.013245%,28.559875%,20.166016%);stop-opacity:1;"/>
<stop offset="0.382812" style="stop-color:rgb(87.063599%,28.736877%,20.152283%);stop-opacity:1;"/>
<stop offset="0.390625" style="stop-color:rgb(87.115479%,28.912354%,20.13855%);stop-opacity:1;"/>
<stop offset="0.398438" style="stop-color:rgb(87.167358%,29.089355%,20.124817%);stop-opacity:1;"/>
<stop offset="0.40625" style="stop-color:rgb(87.220764%,29.266357%,20.111084%);stop-opacity:1;"/>
<stop offset="0.414062" style="stop-color:rgb(87.272644%,29.444885%,20.097351%);stop-opacity:1;"/>
<stop offset="0.421875" style="stop-color:rgb(87.32605%,29.623413%,20.083618%);stop-opacity:1;"/>
<stop offset="0.429688" style="stop-color:rgb(87.37793%,29.801941%,20.068359%);stop-opacity:1;"/>
<stop offset="0.4375" style="stop-color:rgb(87.431335%,29.981995%,20.054626%);stop-opacity:1;"/>
<stop offset="0.445312" style="stop-color:rgb(87.484741%,30.162048%,20.040894%);stop-opacity:1;"/>
<stop offset="0.453125" style="stop-color:rgb(87.538147%,30.342102%,20.025635%);stop-opacity:1;"/>
<stop offset="0.460938" style="stop-color:rgb(87.591553%,30.523682%,20.011902%);stop-opacity:1;"/>
<stop offset="0.46875" style="stop-color:rgb(87.644958%,30.705261%,19.996643%);stop-opacity:1;"/>
<stop offset="0.476562" style="stop-color:rgb(87.69989%,30.886841%,19.98291%);stop-opacity:1;"/>
<stop offset="0.484375" style="stop-color:rgb(87.753296%,31.069946%,19.967651%);stop-opacity:1;"/>
<stop offset="0.492188" style="stop-color:rgb(87.806702%,31.251526%,19.953918%);stop-opacity:1;"/>
<stop offset="0.5" style="stop-color:rgb(87.863159%,31.434631%,19.93866%);stop-opacity:1;"/>
<stop offset="0.507812" style="stop-color:rgb(87.916565%,31.617737%,19.923401%);stop-opacity:1;"/>
<stop offset="0.515625" style="stop-color:rgb(87.969971%,31.800842%,19.908142%);stop-opacity:1;"/>
<stop offset="0.523437" style="stop-color:rgb(88.026428%,31.985474%,19.894409%);stop-opacity:1;"/>
<stop offset="0.53125" style="stop-color:rgb(88.079834%,32.168579%,19.87915%);stop-opacity:1;"/>
<stop offset="0.539062" style="stop-color:rgb(88.136292%,32.35321%,19.863892%);stop-opacity:1;"/>
<stop offset="0.546875" style="stop-color:rgb(88.191223%,32.539368%,19.848633%);stop-opacity:1;"/>
<stop offset="0.554688" style="stop-color:rgb(88.246155%,32.725525%,19.833374%);stop-opacity:1;"/>
<stop offset="0.5625" style="stop-color:rgb(88.302612%,32.910156%,19.818115%);stop-opacity:1;"/>
<stop offset="0.570312" style="stop-color:rgb(88.357544%,33.096313%,19.802856%);stop-opacity:1;"/>
<stop offset="0.578125" style="stop-color:rgb(88.414001%,33.282471%,19.787598%);stop-opacity:1;"/>
<stop offset="0.585938" style="stop-color:rgb(88.470459%,33.468628%,19.772339%);stop-opacity:1;"/>
<stop offset="0.59375" style="stop-color:rgb(88.525391%,33.654785%,19.75708%);stop-opacity:1;"/>
<stop offset="0.601563" style="stop-color:rgb(88.581848%,33.842468%,19.740295%);stop-opacity:1;"/>
<stop offset="0.609375" style="stop-color:rgb(88.638306%,34.028625%,19.725037%);stop-opacity:1;"/>
<stop offset="0.617188" style="stop-color:rgb(88.694763%,34.217834%,19.709778%);stop-opacity:1;"/>
<stop offset="0.625" style="stop-color:rgb(88.751221%,34.405518%,19.694519%);stop-opacity:1;"/>
<stop offset="0.632812" style="stop-color:rgb(88.807678%,34.593201%,19.677734%);stop-opacity:1;"/>
<stop offset="0.640625" style="stop-color:rgb(88.864136%,34.780884%,19.662476%);stop-opacity:1;"/>
<stop offset="0.648437" style="stop-color:rgb(88.920593%,34.971619%,19.645691%);stop-opacity:1;"/>
<stop offset="0.65625" style="stop-color:rgb(88.977051%,35.159302%,19.630432%);stop-opacity:1;"/>
<stop offset="0.664062" style="stop-color:rgb(89.035034%,35.348511%,19.613647%);stop-opacity:1;"/>
<stop offset="0.671875" style="stop-color:rgb(89.093018%,35.53772%,19.598389%);stop-opacity:1;"/>
<stop offset="0.679688" style="stop-color:rgb(89.149475%,35.726929%,19.581604%);stop-opacity:1;"/>
<stop offset="0.6875" style="stop-color:rgb(89.207458%,35.917664%,19.566345%);stop-opacity:1;"/>
<stop offset="0.695312" style="stop-color:rgb(89.263916%,36.108398%,19.549561%);stop-opacity:1;"/>
<stop offset="0.703125" style="stop-color:rgb(89.321899%,36.297607%,19.532776%);stop-opacity:1;"/>
<stop offset="0.710938" style="stop-color:rgb(89.379883%,36.488342%,19.515991%);stop-opacity:1;"/>
<stop offset="0.71875" style="stop-color:rgb(89.437866%,36.680603%,19.500732%);stop-opacity:1;"/>
<stop offset="0.726563" style="stop-color:rgb(89.494324%,36.871338%,19.483948%);stop-opacity:1;"/>
<stop offset="0.734375" style="stop-color:rgb(89.553833%,37.062073%,19.467163%);stop-opacity:1;"/>
<stop offset="0.742188" style="stop-color:rgb(89.611816%,37.254333%,19.450378%);stop-opacity:1;"/>
<stop offset="0.75" style="stop-color:rgb(89.6698%,37.446594%,19.433594%);stop-opacity:1;"/>
<stop offset="0.757812" style="stop-color:rgb(89.727783%,37.637329%,19.416809%);stop-opacity:1;"/>
<stop offset="0.765625" style="stop-color:rgb(89.787292%,37.82959%,19.400024%);stop-opacity:1;"/>
<stop offset="0.773437" style="stop-color:rgb(89.845276%,38.021851%,19.38324%);stop-opacity:1;"/>
<stop offset="0.78125" style="stop-color:rgb(89.904785%,38.215637%,19.366455%);stop-opacity:1;"/>
<stop offset="0.789062" style="stop-color:rgb(89.962769%,38.407898%,19.34967%);stop-opacity:1;"/>
<stop offset="0.796875" style="stop-color:rgb(90.022278%,38.601685%,19.33136%);stop-opacity:1;"/>
<stop offset="0.804688" style="stop-color:rgb(90.080261%,38.795471%,19.314575%);stop-opacity:1;"/>
<stop offset="0.8125" style="stop-color:rgb(90.141296%,38.989258%,19.297791%);stop-opacity:1;"/>
<stop offset="0.820312" style="stop-color:rgb(90.19928%,39.183044%,19.281006%);stop-opacity:1;"/>
<stop offset="0.828125" style="stop-color:rgb(90.258789%,39.376831%,19.262695%);stop-opacity:1;"/>
<stop offset="0.835938" style="stop-color:rgb(90.318298%,39.570618%,19.245911%);stop-opacity:1;"/>
<stop offset="0.84375" style="stop-color:rgb(90.377808%,39.76593%,19.229126%);stop-opacity:1;"/>
<stop offset="0.851563" style="stop-color:rgb(90.437317%,39.959717%,19.210815%);stop-opacity:1;"/>
<stop offset="0.859375" style="stop-color:rgb(90.498352%,40.155029%,19.194031%);stop-opacity:1;"/>
<stop offset="0.867188" style="stop-color:rgb(90.556335%,40.350342%,19.17572%);stop-opacity:1;"/>
<stop offset="0.875" style="stop-color:rgb(90.617371%,40.545654%,19.158936%);stop-opacity:1;"/>
<stop offset="0.882812" style="stop-color:rgb(90.67688%,40.740967%,19.140625%);stop-opacity:1;"/>
<stop offset="0.890625" style="stop-color:rgb(90.737915%,40.936279%,19.122314%);stop-opacity:1;"/>
<stop offset="0.898437" style="stop-color:rgb(90.79895%,41.131592%,19.10553%);stop-opacity:1;"/>
<stop offset="0.90625" style="stop-color:rgb(90.858459%,41.329956%,19.087219%);stop-opacity:1;"/>
<stop offset="0.914062" style="stop-color:rgb(90.917969%,41.525269%,19.068909%);stop-opacity:1;"/>
<stop offset="0.921875" style="stop-color:rgb(90.979004%,41.720581%,19.052124%);stop-opacity:1;"/>
<stop offset="0.929688" style="stop-color:rgb(91.040039%,41.918945%,19.033813%);stop-opacity:1;"/>
<stop offset="0.9375" style="stop-color:rgb(91.101074%,42.115784%,19.015503%);stop-opacity:1;"/>
<stop offset="0.945312" style="stop-color:rgb(91.162109%,42.312622%,18.997192%);stop-opacity:1;"/>
<stop offset="0.953125" style="stop-color:rgb(91.223145%,42.50946%,18.978882%);stop-opacity:1;"/>
<stop offset="0.960938" style="stop-color:rgb(91.28418%,42.707825%,18.960571%);stop-opacity:1;"/>
<stop offset="0.96875" style="stop-color:rgb(91.345215%,42.904663%,18.942261%);stop-opacity:1;"/>
<stop offset="0.976563" style="stop-color:rgb(91.40625%,43.103027%,18.92395%);stop-opacity:1;"/>
<stop offset="0.984375" style="stop-color:rgb(91.468811%,43.299866%,18.90564%);stop-opacity:1;"/>
<stop offset="1" style="stop-color:rgb(91.531372%,43.505859%,18.885803%);stop-opacity:1;"/>
</linearGradient>
</defs>
<g id="surface1">
<path style=" stroke:none;fill-rule:nonzero;fill:rgb(15.089417%,15.007019%,15.556335%);fill-opacity:1;" d="M 385.449219 280.449219 C 395.578125 279.152344 397.734375 273.964844 398.941406 270.097656 L 393.316406 270.097656 C 391.734375 272.515625 389.710938 274.757812 387.273438 276.226562 L 383.710938 273.261719 C 388.304688 270.910156 390.855469 266.667969 391.886719 263.394531 L 396.128906 264.25 C 395.886719 264.976562 395.601562 265.699219 395.273438 266.449219 C 397.953125 266.425781 402.171875 266.382812 403.863281 266.382812 C 403.097656 272.382812 401.316406 281.65625 388.632812 284.164062 "/>
<path style=" stroke:none;fill-rule:nonzero;fill:rgb(15.089417%,15.007019%,15.556335%);fill-opacity:1;" d="M 423.882812 269.285156 L 414.632812 269.285156 L 414.632812 278.492188 L 423.882812 278.492188 Z M 423.882812 283.28125 L 423.882812 282.25 L 414.632812 282.25 L 414.632812 283.347656 L 410.34375 283.347656 L 410.34375 265.570312 L 428.167969 265.570312 L 428.167969 283.28125 "/>
<path style=" stroke:none;fill-rule:nonzero;fill:rgb(15.089417%,15.007019%,15.556335%);fill-opacity:1;" d="M 452.230469 283.414062 C 450.007812 280.734375 448.078125 278.996094 446.140625 277.613281 C 443.351562 280.492188 440.007812 282.359375 437.085938 283.371094 L 434.316406 279.855469 C 442.429688 277.636719 445.503906 272.867188 446.539062 269.261719 L 436.804688 269.371094 L 436.804688 265.480469 L 452.035156 265.503906 C 451.480469 269.085938 450.25 272.074219 448.601562 274.558594 C 450.734375 275.832031 453.128906 277.589844 455.238281 279.746094 "/>
<path style=" stroke:none;fill-rule:nonzero;fill:rgb(15.089417%,15.007019%,15.556335%);fill-opacity:1;" d="M 477.851562 280.777344 C 475.566406 278.976562 473.675781 277.789062 471.984375 276.929688 L 471.984375 284.03125 L 467.785156 284.03125 L 467.785156 278.25 C 466.007812 279.285156 464.160156 280.140625 462.3125 280.820312 L 459.304688 277.65625 C 466.027344 275.699219 470.203125 272.820312 472.027344 270.140625 L 461.257812 270.25 L 461.28125 266.625 L 467.785156 266.625 L 467.785156 263.570312 L 471.984375 263.570312 L 471.984375 266.625 L 477.675781 266.625 C 477.125 269.261719 475.71875 271.589844 473.808594 273.613281 C 475.765625 274.425781 478.378906 275.8125 480.226562 276.996094 "/>
<path style=" stroke:none;fill-rule:nonzero;fill:rgb(15.089417%,15.007019%,15.556335%);fill-opacity:1;" d="M 486.527344 280.449219 C 496.660156 279.152344 498.816406 273.964844 500.023438 270.097656 L 494.398438 270.097656 C 492.816406 272.515625 490.792969 274.757812 488.351562 276.226562 L 484.792969 273.261719 C 489.386719 270.910156 491.9375 266.667969 492.96875 263.394531 L 497.210938 264.25 C 496.96875 264.976562 496.683594 265.699219 496.351562 266.449219 C 499.035156 266.425781 503.253906 266.382812 504.945312 266.382812 C 504.179688 272.382812 502.398438 281.65625 489.714844 284.164062 "/>
<path style=" stroke:none;fill-rule:nonzero;fill:rgb(15.089417%,15.007019%,15.556335%);fill-opacity:1;" d="M 526.503906 283.414062 C 524.285156 280.734375 522.347656 278.996094 520.414062 277.613281 C 517.625 280.492188 514.285156 282.359375 511.363281 283.371094 L 508.589844 279.855469 C 516.703125 277.636719 519.777344 272.867188 520.8125 269.261719 L 511.074219 269.371094 L 511.074219 265.480469 L 526.304688 265.503906 C 525.757812 269.085938 524.527344 272.074219 522.878906 274.558594 C 525.007812 275.832031 527.402344 277.589844 529.515625 279.746094 "/>
<path style=" stroke:none;fill-rule:nonzero;fill:rgb(15.089417%,15.007019%,15.556335%);fill-opacity:1;" d="M 550.34375 278.164062 C 547.179688 276.292969 543.292969 274.84375 539.882812 273.722656 L 539.882812 283.898438 L 535.664062 283.898438 L 535.664062 263.8125 L 539.882812 263.8125 L 539.882812 269.480469 C 543.09375 270.425781 548.476562 272.074219 551.972656 273.875 "/>
<path style=" stroke:none;fill-rule:nonzero;fill:rgb(15.089417%,15.007019%,15.556335%);fill-opacity:1;" d="M 372.0625 299.03125 C 372.0625 298.394531 371.546875 297.875 370.910156 297.875 L 364.15625 297.875 C 363.519531 297.875 363.003906 298.394531 363.003906 299.03125 L 363.003906 339.878906 L 298.449219 339.878906 L 298.449219 288.210938 L 362.144531 271.460938 C 362.640625 271.332031 362.988281 270.878906 362.988281 270.367188 L 362.988281 263.648438 C 362.988281 262.90625 362.285156 262.363281 361.566406 262.550781 L 290.230469 281.3125 C 289.734375 281.441406 289.386719 281.890625 289.386719 282.40625 L 289.386719 341.007812 C 289.386719 341.007812 289.386719 341.007812 289.386719 341.011719 L 289.386719 347.808594 C 289.386719 348.433594 289.894531 348.941406 290.519531 348.941406 L 370.929688 348.941406 C 371.554688 348.941406 372.0625 348.433594 372.0625 347.808594 L 372.0625 347.785156 "/>
<path style=" stroke:none;fill-rule:nonzero;fill:rgb(15.089417%,15.007019%,15.556335%);fill-opacity:1;" d="M 338.070312 330.535156 L 343.894531 330.542969 C 344.46875 330.542969 344.796875 329.882812 344.449219 329.421875 L 324.617188 303.144531 C 324.402344 302.859375 324.066406 302.695312 323.714844 302.691406 L 317.894531 302.6875 C 317.316406 302.6875 316.984375 303.347656 317.335938 303.808594 L 337.167969 330.085938 C 337.382812 330.371094 337.71875 330.535156 338.070312 330.535156 "/>
<g clip-path="url(#clip1)" clip-rule="nonzero">
<g clip-path="url(#clip2)" clip-rule="nonzero">
<g clip-path="url(#clip3)" clip-rule="nonzero">
<path style=" stroke:none;fill-rule:nonzero;fill:url(#linear0);" d="M 316.652344 302.6875 L 316.652344 330.542969 L 344.464844 330.542969 L 344.464844 302.6875 Z M 316.652344 302.6875 "/>
</g>
</g>
</g>
<path style=" stroke:none;fill-rule:nonzero;fill:rgb(15.089417%,15.007019%,15.556335%);fill-opacity:1;" d="M 522.203125 297.878906 L 514.492188 297.878906 C 514.117188 297.878906 513.769531 298.0625 513.558594 298.367188 L 501.339844 316.179688 L 489.121094 298.367188 C 488.910156 298.0625 488.558594 297.878906 488.1875 297.878906 L 480.476562 297.878906 C 479.792969 297.878906 479.390625 298.644531 479.777344 299.207031 L 496.378906 323.410156 L 479.777344 347.609375 C 479.390625 348.171875 479.792969 348.941406 480.476562 348.941406 L 488.1875 348.941406 C 488.558594 348.941406 488.910156 348.757812 489.121094 348.445312 L 501.339844 330.640625 L 513.558594 348.445312 C 513.769531 348.757812 514.117188 348.941406 514.492188 348.941406 L 522.203125 348.941406 C 522.886719 348.941406 523.289062 348.171875 522.902344 347.609375 L 506.300781 323.410156 L 522.902344 299.207031 C 523.289062 298.644531 522.886719 297.878906 522.203125 297.878906 "/>
<path style=" stroke:none;fill-rule:nonzero;fill:rgb(15.089417%,15.007019%,15.556335%);fill-opacity:1;" d="M 426.289062 297.851562 L 420.183594 297.851562 C 419.558594 297.851562 419.050781 298.359375 419.050781 298.984375 L 419.050781 334.351562 L 394.347656 298.34375 C 394.136719 298.035156 393.785156 297.851562 393.414062 297.851562 L 386.773438 297.851562 C 386.148438 297.851562 385.640625 298.359375 385.640625 298.984375 L 385.640625 347.675781 C 385.640625 348.300781 386.148438 348.808594 386.773438 348.808594 L 392.878906 348.808594 C 393.503906 348.808594 394.011719 348.300781 394.011719 347.675781 L 394.011719 312.308594 L 418.714844 348.316406 C 418.925781 348.621094 419.273438 348.808594 419.648438 348.808594 L 426.289062 348.808594 C 426.914062 348.808594 427.421875 348.300781 427.421875 347.675781 L 427.421875 298.984375 C 427.421875 298.359375 426.914062 297.851562 426.289062 297.851562 "/>
<path style=" stroke:none;fill-rule:nonzero;fill:rgb(15.089417%,15.007019%,15.556335%);fill-opacity:1;" d="M 469.238281 297.851562 L 437.800781 297.851562 C 437.175781 297.851562 436.667969 298.359375 436.667969 298.984375 L 436.667969 347.675781 C 436.667969 348.300781 437.175781 348.808594 437.800781 348.808594 L 469.238281 348.808594 C 469.863281 348.808594 470.371094 348.300781 470.371094 347.675781 L 470.371094 341.933594 C 470.371094 341.308594 469.863281 340.800781 469.238281 340.800781 L 445.039062 340.800781 L 445.039062 326.96875 L 467.34375 326.96875 C 467.96875 326.96875 468.476562 326.460938 468.476562 325.835938 L 468.476562 320.09375 C 468.476562 319.46875 467.96875 318.960938 467.34375 318.960938 L 445.039062 318.960938 L 445.039062 305.859375 L 469.238281 305.859375 C 469.863281 305.859375 470.371094 305.351562 470.371094 304.726562 L 470.371094 298.984375 C 470.371094 298.359375 469.863281 297.851562 469.238281 297.851562 "/>
<path style=" stroke:none;fill-rule:nonzero;fill:rgb(15.089417%,15.007019%,15.556335%);fill-opacity:1;" d="M 568.277344 297.851562 L 531.742188 297.851562 C 531.117188 297.851562 530.609375 298.359375 530.609375 298.984375 L 530.609375 304.726562 C 530.609375 305.351562 531.117188 305.859375 531.742188 305.859375 L 545.824219 305.859375 L 545.824219 347.675781 C 545.824219 348.300781 546.332031 348.808594 546.957031 348.808594 L 553.0625 348.808594 C 553.6875 348.808594 554.195312 348.300781 554.195312 347.675781 L 554.195312 305.859375 L 568.277344 305.859375 C 568.902344 305.859375 569.410156 305.351562 569.410156 304.726562 L 569.410156 298.984375 C 569.410156 298.359375 568.902344 297.851562 568.277344 297.851562 "/>
</g>
</svg>
