<svg width="295" height="51" viewBox="0 0 295 51" fill="none" xmlns="http://www.w3.org/2000/svg">
<path fill-rule="evenodd" clip-rule="evenodd" d="M101.307 0H90.3569V8.85H101.307V0ZM101.307 13.125H90.3569V49.425H101.307V13.125ZM294.08 0H283.13V8.85H294.08V0ZM294.08 13.125H283.13V49.425H294.08V13.125ZM243.121 49.275C244.821 49.875 247.371 50.175 250.771 50.175C254.821 50.175 257.571 49.85 259.021 49.2C260.471 48.6 261.621 47.575 262.471 46.125V49.425H273.196V24.45C273.196 21.2 272.646 18.725 271.546 17.025C270.446 15.325 268.621 14.125 266.071 13.425C263.571 12.725 259.996 12.375 255.346 12.375C250.046 12.375 245.421 12.625 241.471 13.125V20.025C246.871 19.425 251.121 19.125 254.221 19.125C256.471 19.125 258.146 19.275 259.246 19.575C260.396 19.875 261.171 20.4 261.571 21.15C262.021 21.9 262.246 23.05 262.246 24.6V27.075H249.946C247.096 27.075 244.846 27.45 243.196 28.2C241.596 28.9 240.421 30.075 239.671 31.725C238.971 33.375 238.621 35.65 238.621 38.55C238.621 41.8 238.946 44.25 239.596 45.9C240.296 47.5 241.471 48.625 243.121 49.275ZM259.771 43.125C258.821 43.275 257.246 43.35 255.046 43.35C253.196 43.35 251.896 43.25 251.146 43.05C250.446 42.85 249.971 42.425 249.721 41.775C249.471 41.125 249.346 39.975 249.346 38.325C249.346 36.625 249.471 35.45 249.721 34.8C249.971 34.1 250.446 33.65 251.146 33.45C251.846 33.2 253.046 33.075 254.746 33.075H262.246V40.125C262.246 40.825 262.146 41.35 261.946 41.7C261.746 42.15 261.496 42.475 261.196 42.675C260.946 42.875 260.471 43.025 259.771 43.125ZM220.257 39.0752H231.957V49.4252H220.257V39.0752ZM188.772 49.95C190.222 50.1 192.072 50.175 194.322 50.175C196.422 50.175 198.222 50.1 199.722 49.95C201.372 49.8 203.047 49.475 204.747 48.975C206.497 48.425 207.872 47.725 208.872 46.875C210.022 45.925 210.947 44.6 211.647 42.9C212.397 41.2 212.772 39.225 212.772 36.975V26.25C212.772 23.75 212.397 21.6 211.647 19.8C210.847 18.05 209.872 16.7 208.722 15.75C207.622 14.8 206.172 14.05 204.372 13.5C202.722 13 201.197 12.7 199.797 12.6C198.447 12.45 196.622 12.375 194.322 12.375C192.772 12.375 191.047 12.425 189.147 12.525C187.497 12.675 185.797 13.05 184.047 13.65C182.347 14.2 180.972 14.9 179.922 15.75C178.722 16.75 177.747 18.15 176.997 19.95C176.247 21.75 175.872 23.85 175.872 26.25V36.975C175.872 39.325 176.247 41.325 176.997 42.975C177.747 44.675 178.672 46 179.772 46.95C180.872 47.85 182.322 48.55 184.122 49.05C185.772 49.5 187.322 49.8 188.772 49.95ZM198.972 42.9C197.922 43.2 196.372 43.35 194.322 43.35C192.272 43.35 190.722 43.2 189.672 42.9C188.622 42.55 187.872 42.025 187.422 41.325C187.022 40.625 186.822 39.6 186.822 38.25V24.525C186.822 22.525 187.347 21.125 188.397 20.325C189.447 19.525 191.422 19.125 194.322 19.125C197.222 19.125 199.197 19.525 200.247 20.325C201.297 21.125 201.822 22.525 201.822 24.525V38.25C201.822 39.6 201.597 40.625 201.147 41.325C200.747 42.025 200.022 42.55 198.972 42.9ZM111.224 13.125H122.174V17.55C122.874 14.1 126.449 12.375 132.899 12.375C136.299 12.375 138.874 12.825 140.624 13.725C142.374 14.575 143.549 15.925 144.149 17.775C144.749 15.875 145.899 14.5 147.599 13.65C149.349 12.8 151.974 12.375 155.474 12.375C158.624 12.375 161.049 12.75 162.749 13.5C164.449 14.2 165.624 15.3 166.274 16.8C166.974 18.3 167.324 20.3 167.324 22.8V49.425H156.374V24.3C156.374 22.7 156.274 21.575 156.074 20.925C155.874 20.225 155.424 19.75 154.724 19.5C154.074 19.25 152.924 19.125 151.274 19.125C149.224 19.125 147.749 19.25 146.849 19.5C145.999 19.75 145.424 20.225 145.124 20.925C144.874 21.575 144.749 22.7 144.749 24.3V49.425H133.799V24.3C133.799 22.7 133.699 21.575 133.499 20.925C133.299 20.225 132.849 19.75 132.149 19.5C131.499 19.25 130.349 19.125 128.699 19.125C126.649 19.125 125.174 19.25 124.274 19.5C123.424 19.75 122.849 20.225 122.549 20.925C122.299 21.575 122.174 22.7 122.174 24.3V49.425H111.224V13.125ZM57.9977 50.175C54.5977 50.175 52.0477 49.875 50.3477 49.275C48.6977 48.625 47.5227 47.5 46.8227 45.9C46.1727 44.25 45.8477 41.8 45.8477 38.55C45.8477 35.65 46.1977 33.375 46.8977 31.725C47.6477 30.075 48.8227 28.9 50.4227 28.2C52.0727 27.45 54.3227 27.075 57.1727 27.075H69.4727V24.6C69.4727 23.05 69.2477 21.9 68.7977 21.15C68.3977 20.4 67.6227 19.875 66.4727 19.575C65.3727 19.275 63.6977 19.125 61.4477 19.125C58.3477 19.125 54.0977 19.425 48.6977 20.025V13.125C52.6477 12.625 57.2727 12.375 62.5727 12.375C67.2227 12.375 70.7977 12.725 73.2977 13.425C75.8477 14.125 77.6727 15.325 78.7727 17.025C79.8727 18.725 80.4227 21.2 80.4227 24.45V49.425H69.6977V46.125C68.8477 47.575 67.6977 48.6 66.2477 49.2C64.7977 49.85 62.0477 50.175 57.9977 50.175ZM62.2727 43.35C64.4727 43.35 66.0477 43.275 66.9977 43.125C67.6977 43.025 68.1727 42.875 68.4227 42.675C68.7227 42.475 68.9727 42.15 69.1727 41.7C69.3727 41.35 69.4727 40.825 69.4727 40.125V33.075H61.9727C60.2727 33.075 59.0727 33.2 58.3727 33.45C57.6727 33.65 57.1977 34.1 56.9477 34.8C56.6977 35.45 56.5727 36.625 56.5727 38.325C56.5727 39.975 56.6977 41.125 56.9477 41.775C57.1977 42.425 57.6727 42.85 58.3727 43.05C59.1227 43.25 60.4227 43.35 62.2727 43.35ZM25.35 9.075L0 42.3V49.425H40.2V41.025H14.4L39.75 7.8V0.75H0.75V9.075H25.35Z" fill="#2A6C49"/>
</svg>
