<svg width="80" height="78" viewBox="0 0 80 78" fill="none" xmlns="http://www.w3.org/2000/svg">
<rect width="80.0004" height="77.7965" rx="16" fill="white"/>
<path d="M23.6666 16.11C20.0856 16.8154 17.2099 19.5283 16.2116 23.1527C15.9295 24.1727 15.9295 27.0266 16.2116 28.0901C16.6565 29.7938 17.644 31.4649 18.8919 32.6586C19.7709 33.4941 20.4111 33.9173 21.518 34.4382C22.9829 35.111 23.6774 35.2521 25.6633 35.2521C27.1282 35.2521 27.5297 35.2087 28.2351 35.0133C29.9387 34.5142 31.2518 33.7546 32.4888 32.5284C33.7693 31.2696 34.6374 29.7287 35.0498 28.0141C35.3753 26.6685 35.3536 24.4983 35.0064 23.131C34.16 19.7779 31.4796 17.0975 28.1265 16.2511C27.2693 16.0341 26.8461 15.9907 25.6198 16.0015C24.806 16.0124 23.927 16.0558 23.6666 16.11Z" fill="black"/>
<path d="M38.3795 16.2496C40.0614 18.5936 40.8536 20.3515 41.3528 22.8039C41.4938 23.5201 41.5373 24.2689 41.5373 25.723C41.5373 27.8499 41.3419 29.0978 40.7776 30.6821C40.3544 31.8649 39.4104 33.6446 38.7376 34.5452L38.1299 35.3374L47.1692 35.3048C57.3913 35.2614 56.6859 35.3157 58.6935 34.3499C61.1133 33.1888 62.893 31.0836 63.696 28.4359C63.9673 27.5569 63.9998 27.2964 63.9998 25.723C64.0107 23.7263 63.8696 23.0427 63.186 21.5669C62.6325 20.3732 62.0032 19.4942 60.994 18.5393C59.9848 17.5844 58.8671 16.9116 57.4672 16.4341L56.4146 16.0652L47.3102 16.0326L38.2058 16L38.3795 16.2496Z" fill="black"/>
<path d="M23.9324 38.2911C20.2755 39.0942 17.3781 41.8396 16.3147 45.5291C16.076 46.3755 16.0651 46.4515 16.0326 54.0584L16 61.7412H25.9942H35.9776V54.3079C35.9776 46.1042 35.9667 46.0066 35.2939 44.3788C34.0786 41.4381 31.7781 39.3546 28.7396 38.4539C27.4266 38.0633 25.278 37.9873 23.9324 38.2911Z" fill="black"/>
<path d="M40 40.0827C40 40.1369 40.1519 40.5601 40.3364 41.0159C40.7488 42.0576 41.0526 43.2188 41.1937 44.3582C41.2588 44.8899 41.3022 48.536 41.3022 53.5168V61.7965H52.3707H63.4392V56.1646C63.4392 51.6178 63.4067 50.359 63.2764 49.5777C63.0594 48.2973 62.7556 47.4074 62.1696 46.2572C60.6829 43.3598 58.0026 41.2004 54.8123 40.3431L53.7271 40.0501L46.869 40.0067C42.4633 39.985 40 40.0176 40 40.0827Z" fill="black"/>
</svg>
