<svg width="418" height="275" viewBox="0 0 418 275" fill="none" xmlns="http://www.w3.org/2000/svg">
<g clip-path="url(#clip0_588_802)">
<path d="M201.179 274.71C308.262 274.71 395.069 269.642 395.069 263.39C395.069 257.138 308.262 252.07 201.179 252.07C94.0966 252.07 7.28906 257.138 7.28906 263.39C7.28906 269.642 94.0966 274.71 201.179 274.71Z" fill="#F5F5F5"/>
<path d="M350.341 9.16992L130.531 9.21992L128.871 10.7199L128.001 38.5799L127.621 42.8599L126.691 52.9999L125.991 61.0899L125.591 65.6299H69.4211L67.7511 67.1299L60.0011 173.51C59.9345 174.147 60.0039 174.792 60.2048 175.4C60.4056 176.009 60.7333 176.568 61.1661 177.04C61.599 177.513 62.1272 177.888 62.7159 178.142C63.3046 178.395 63.9403 178.52 64.5811 178.51H116.001L116.411 173.76H116.141L117.141 162.26L117.841 154.16L118.401 147.81L119.111 139.71L119.681 133.23L120.371 125.23L120.651 122.04H177.091L176.091 133.2V133.33L172.561 173.73L172.411 175.43V176L172.191 178.48L226.961 180L228.621 178.71L230.001 162.28L230.711 154.18L232.541 133.25L233.241 125.25L233.521 122.06H290.001L291.541 104.45L292.101 97.9899L292.801 89.9899L293.511 81.8899L294.931 65.6199H346.621L349.711 67.1199L351.371 65.6199L355.691 14.9999C355.748 13.5191 355.218 12.0757 354.216 10.9838C353.214 9.89195 351.821 9.24002 350.341 9.16992Z" fill="#FFC100"/>
<path d="M285.609 180H336.999C338.363 179.976 339.67 179.454 340.676 178.533C341.681 177.613 342.316 176.356 342.459 175L346.819 122.45L289.989 122.25L288.279 123.58L285.609 180Z" fill="#FFC100"/>
<path d="M347.848 67.1599L352.108 18.4399H128.188L123.928 67.1599H70.4178L60.7578 177.55H114.278L118.998 123.59H175.428L170.708 177.55H227.148L231.868 123.59H288.308L283.588 177.55H338.188L342.908 123.59H288.308L293.248 67.1599H347.848Z" fill="#FFC100"/>
<path opacity="0.8" d="M347.848 67.1599L352.108 18.4399H128.188L123.928 67.1599H70.4178L60.7578 177.55H114.278L118.998 123.59H175.428L170.708 177.55H227.148L231.868 123.59H288.308L283.588 177.55H338.188L342.908 123.59H288.308L293.248 67.1599H347.848Z" fill="white"/>
<path d="M200.259 77.0799H86.6795C86.4221 77.0837 86.1668 77.0334 85.9301 76.9324C85.6933 76.8313 85.4804 76.6817 85.3051 76.4932C85.1298 76.3047 84.996 76.0815 84.9124 75.8381C84.8287 75.5946 84.7971 75.3364 84.8195 75.0799L85.1795 71.0799C85.2445 70.536 85.5041 70.034 85.9102 69.6664C86.3164 69.2988 86.8418 69.0905 87.3895 69.0799H200.999C201.256 69.076 201.511 69.1263 201.748 69.2274C201.984 69.3286 202.196 69.4784 202.371 69.6671C202.545 69.8557 202.678 70.0791 202.761 70.3225C202.843 70.5659 202.873 70.824 202.849 71.0799L202.499 75.0799C202.434 75.6289 202.17 76.135 201.757 76.5032C201.345 76.8715 200.812 77.0765 200.259 77.0799Z" fill="#FFC100"/>
<path opacity="0.5" d="M200.259 77.0799H86.6795C86.4221 77.0837 86.1668 77.0334 85.9301 76.9324C85.6933 76.8313 85.4804 76.6817 85.3051 76.4932C85.1298 76.3047 84.996 76.0815 84.9124 75.8381C84.8287 75.5946 84.7971 75.3364 84.8195 75.0799L85.1795 71.0799C85.2445 70.536 85.5041 70.034 85.9102 69.6664C86.3164 69.2988 86.8418 69.0905 87.3895 69.0799H200.999C201.256 69.076 201.511 69.1263 201.748 69.2274C201.984 69.3286 202.196 69.4784 202.371 69.6671C202.545 69.8557 202.678 70.0791 202.761 70.3225C202.843 70.5659 202.873 70.824 202.849 71.0799L202.499 75.0799C202.434 75.6289 202.17 76.135 201.757 76.5032C201.345 76.8715 200.812 77.0765 200.259 77.0799Z" fill="white"/>
<path d="M262.61 77.08H207.86C207.602 77.0853 207.346 77.0361 207.109 76.9356C206.871 76.8351 206.658 76.6855 206.482 76.4966C206.307 76.3078 206.173 76.084 206.09 75.8398C206.007 75.5957 205.976 75.3367 206 75.08L206.35 71.08C206.415 70.5344 206.676 70.031 207.085 69.6632C207.493 69.2954 208.021 69.0882 208.57 69.08H263.32C263.578 69.0746 263.834 69.1238 264.071 69.2244C264.309 69.3249 264.523 69.4745 264.698 69.6633C264.874 69.8522 265.007 70.076 265.091 70.3201C265.174 70.5643 265.204 70.8232 265.18 71.08L264.83 75.08C264.765 75.6256 264.504 76.129 264.096 76.4968C263.687 76.8646 263.16 77.0718 262.61 77.08Z" fill="#FFC100"/>
<path opacity="0.5" d="M262.61 77.08H207.86C207.602 77.0853 207.346 77.0361 207.109 76.9356C206.871 76.8351 206.658 76.6855 206.482 76.4966C206.307 76.3078 206.173 76.084 206.09 75.8398C206.007 75.5957 205.976 75.3367 206 75.08L206.35 71.08C206.415 70.5344 206.676 70.031 207.085 69.6632C207.493 69.2954 208.021 69.0882 208.57 69.08H263.32C263.578 69.0746 263.834 69.1238 264.071 69.2244C264.309 69.3249 264.523 69.4745 264.698 69.6633C264.874 69.8522 265.007 70.076 265.091 70.3201C265.174 70.5643 265.204 70.8232 265.18 71.08L264.83 75.08C264.765 75.6256 264.504 76.129 264.096 76.4968C263.687 76.8646 263.16 77.0718 262.61 77.08Z" fill="white"/>
<path d="M198.999 91.5299H85.4187C85.1609 91.5353 84.9049 91.4861 84.6674 91.3855C84.4299 91.285 84.2163 91.1354 84.0407 90.9466C83.8651 90.7577 83.7314 90.5339 83.6483 90.2898C83.5653 90.0456 83.5347 89.7867 83.5587 89.5299L83.9087 85.5299C83.9738 84.986 84.2333 84.484 84.6395 84.1164C85.0457 83.7488 85.571 83.5405 86.1187 83.5299H199.699C199.957 83.5246 200.213 83.5738 200.45 83.6743C200.688 83.7749 200.901 83.9245 201.077 84.1133C201.252 84.3021 201.386 84.526 201.469 84.7701C201.552 85.0142 201.583 85.2732 201.559 85.5299L201.209 89.5299C201.144 90.0739 200.884 90.5759 200.478 90.9435C200.072 91.311 199.546 91.5193 198.999 91.5299Z" fill="#FFC100"/>
<path opacity="0.5" d="M198.999 91.5299H85.4187C85.1609 91.5353 84.9049 91.4861 84.6674 91.3855C84.4299 91.285 84.2163 91.1354 84.0407 90.9466C83.8651 90.7577 83.7314 90.5339 83.6483 90.2898C83.5653 90.0456 83.5347 89.7867 83.5587 89.5299L83.9087 85.5299C83.9738 84.986 84.2333 84.484 84.6395 84.1164C85.0457 83.7488 85.571 83.5405 86.1187 83.5299H199.699C199.957 83.5246 200.213 83.5738 200.45 83.6743C200.688 83.7749 200.901 83.9245 201.077 84.1133C201.252 84.3021 201.386 84.526 201.469 84.7701C201.552 85.0142 201.583 85.2732 201.559 85.5299L201.209 89.5299C201.144 90.0739 200.884 90.5759 200.478 90.9435C200.072 91.311 199.546 91.5193 198.999 91.5299Z" fill="white"/>
<path d="M173.387 120.43H82.8875C82.6297 120.435 82.3736 120.386 82.1361 120.285C81.8987 120.185 81.6851 120.035 81.5095 119.846C81.3339 119.658 81.2001 119.434 81.1171 119.19C81.034 118.946 81.0035 118.687 81.0275 118.43L81.3775 114.43C81.4428 113.884 81.7038 113.381 82.112 113.013C82.5203 112.645 83.0481 112.438 83.5975 112.43H174.087C174.345 112.424 174.601 112.474 174.839 112.574C175.076 112.675 175.29 112.824 175.465 113.013C175.641 113.202 175.775 113.426 175.858 113.67C175.941 113.914 175.971 114.173 175.947 114.43L175.597 118.43C175.532 118.974 175.273 119.476 174.867 119.843C174.461 120.211 173.935 120.419 173.387 120.43Z" fill="#FFC100"/>
<path d="M130.329 54.5299H124.999L124.289 62.6199H129.579C130.127 62.6093 130.652 62.401 131.058 62.0334C131.464 61.6659 131.724 61.1638 131.789 60.6199L132.139 56.6199C132.176 56.3604 132.157 56.0959 132.084 55.8444C132.01 55.5928 131.883 55.3601 131.711 55.1619C131.539 54.9637 131.327 54.8047 131.089 54.6957C130.85 54.5866 130.591 54.5301 130.329 54.5299Z" fill="#FFC100"/>
<path d="M190.84 40.08H126.3L125.59 48.17H190.13C190.678 48.1594 191.203 47.9511 191.609 47.5835C192.015 47.216 192.275 46.7139 192.34 46.17L192.69 42.17C192.728 41.9071 192.708 41.6392 192.632 41.3847C192.555 41.1303 192.425 40.8955 192.249 40.6967C192.073 40.4978 191.856 40.3396 191.612 40.2331C191.369 40.1266 191.105 40.0744 190.84 40.08Z" fill="#FFC100"/>
<path opacity="0.5" d="M190.84 40.08H126.3L125.59 48.17H190.13C190.678 48.1594 191.203 47.9511 191.609 47.5835C192.015 47.216 192.275 46.7139 192.34 46.17L192.69 42.17C192.728 41.9071 192.708 41.6392 192.632 41.3847C192.555 41.1303 192.425 40.8955 192.249 40.6967C192.073 40.4978 191.856 40.3396 191.612 40.2331C191.369 40.1266 191.105 40.0744 190.84 40.08Z" fill="white"/>
<path d="M290.561 97.8799H84.8609C84.3132 97.8905 83.7878 98.0988 83.3817 98.4664C82.9755 98.8339 82.716 99.336 82.6509 99.8799L82.3009 103.88C82.277 104.136 82.3073 104.394 82.3897 104.637C82.4722 104.881 82.605 105.104 82.7796 105.293C82.9541 105.481 83.1664 105.631 83.4027 105.732C83.639 105.834 83.8939 105.884 84.1509 105.88H289.851L290.561 97.8799Z" fill="#FFC100"/>
<path opacity="0.5" d="M290.561 97.8799H84.8609C84.3132 97.8905 83.7878 98.0988 83.3817 98.4664C82.9755 98.8339 82.716 99.336 82.6509 99.8799L82.3009 103.88C82.277 104.136 82.3073 104.394 82.3897 104.637C82.4722 104.881 82.605 105.104 82.7796 105.293C82.9541 105.481 83.1664 105.631 83.4027 105.732C83.639 105.834 83.8939 105.884 84.1509 105.88H289.851L290.561 97.8799Z" fill="white"/>
<path d="M291.818 83.4299H207.298C206.751 83.4405 206.225 83.6488 205.819 84.0164C205.413 84.384 205.153 84.886 205.088 85.4299L204.738 89.4299C204.714 89.6858 204.745 89.9439 204.827 90.1874C204.91 90.4308 205.043 90.6541 205.217 90.8428C205.392 91.0315 205.604 91.1813 205.84 91.2824C206.076 91.3836 206.331 91.4339 206.588 91.4299H291.108L291.818 83.4299Z" fill="#FFC100"/>
<path d="M200.789 126.78H175.149L174.449 134.88H200.079C200.627 134.869 201.152 134.661 201.558 134.293C201.965 133.926 202.224 133.424 202.289 132.88L202.639 128.88C202.679 128.616 202.66 128.347 202.585 128.092C202.509 127.836 202.379 127.6 202.202 127.4C202.026 127.2 201.808 127.041 201.564 126.934C201.32 126.827 201.056 126.774 200.789 126.78Z" fill="#FFC100"/>
<path d="M118.72 126.78H82.3297C81.782 126.791 81.2566 126.999 80.8504 127.366C80.4443 127.734 80.1847 128.236 80.1197 128.78L79.7697 132.78C79.7457 133.036 79.776 133.294 79.8585 133.537C79.941 133.781 80.0738 134.004 80.2483 134.193C80.4228 134.382 80.6352 134.531 80.8714 134.633C81.1077 134.734 81.3627 134.784 81.6197 134.78H118L118.72 126.78Z" fill="#FFC100"/>
<g opacity="0.5">
<path d="M200.789 126.78H175.149L174.449 134.88H200.079C200.627 134.869 201.152 134.661 201.558 134.293C201.965 133.926 202.224 133.424 202.289 132.88L202.639 128.88C202.679 128.616 202.66 128.347 202.585 128.092C202.509 127.836 202.379 127.6 202.202 127.4C202.026 127.2 201.808 127.041 201.564 126.934C201.32 126.827 201.056 126.774 200.789 126.78Z" fill="white"/>
<path d="M118.72 126.78H82.3297C81.782 126.791 81.2566 126.999 80.8504 127.366C80.4443 127.734 80.1847 128.236 80.1197 128.78L79.7697 132.78C79.7457 133.036 79.776 133.294 79.8585 133.537C79.941 133.781 80.0738 134.004 80.2483 134.193C80.4228 134.382 80.6352 134.531 80.8714 134.633C81.1077 134.734 81.3627 134.784 81.6197 134.78H118L118.72 126.78Z" fill="white"/>
</g>
<path d="M117.449 141.23H81.0692C80.5202 141.236 79.9926 141.443 79.5855 141.812C79.1785 142.18 78.9201 142.684 78.8592 143.23L78.4992 147.23C78.4768 147.486 78.5084 147.745 78.5921 147.988C78.6757 148.232 78.8095 148.455 78.9848 148.643C79.1601 148.832 79.373 148.981 79.6097 149.082C79.8465 149.183 80.1018 149.234 80.3592 149.23H116.739L117.449 141.23Z" fill="#FFC100"/>
<path opacity="0.5" d="M117.449 141.23H81.0692C80.5202 141.236 79.9926 141.443 79.5855 141.812C79.1785 142.18 78.9201 142.684 78.8592 143.23L78.4992 147.23C78.4768 147.486 78.5084 147.745 78.5921 147.988C78.6757 148.232 78.8095 148.455 78.9848 148.643C79.1601 148.832 79.373 148.981 79.6097 149.082C79.8465 149.183 80.1018 149.234 80.3592 149.23H116.739L117.449 141.23Z" fill="white"/>
<path d="M116.188 155.68H79.7984C79.2507 155.691 78.7253 155.899 78.3192 156.266C77.913 156.634 77.6535 157.136 77.5884 157.68L77.2384 161.68C77.2145 161.936 77.2448 162.194 77.3272 162.437C77.4097 162.681 77.5425 162.904 77.7171 163.093C77.8916 163.281 78.1039 163.431 78.3402 163.532C78.5765 163.634 78.8314 163.684 79.0884 163.68H115.478L116.188 155.68Z" fill="#FFC100"/>
<path d="M180.718 155.68H172.628L171.918 163.78H179.998C180.547 163.774 181.075 163.567 181.482 163.198C181.889 162.83 182.147 162.325 182.208 161.78L182.568 157.78C182.607 157.516 182.589 157.247 182.513 156.992C182.438 156.736 182.307 156.5 182.131 156.3C181.955 156.1 181.737 155.941 181.493 155.834C181.249 155.726 180.984 155.674 180.718 155.68Z" fill="#FFC100"/>
<g opacity="0.5">
<path d="M116.188 155.68H79.7984C79.2507 155.691 78.7253 155.899 78.3192 156.266C77.913 156.634 77.6535 157.136 77.5884 157.68L77.2384 161.68C77.2145 161.936 77.2448 162.194 77.3272 162.437C77.4097 162.681 77.5425 162.904 77.7171 163.093C77.8916 163.281 78.1039 163.431 78.3402 163.532C78.5765 163.634 78.8314 163.684 79.0884 163.68H115.478L116.188 155.68Z" fill="white"/>
<path d="M180.718 155.68H172.628L171.918 163.78H179.998C180.547 163.774 181.075 163.567 181.482 163.198C181.889 162.83 182.147 162.325 182.208 161.78L182.568 157.78C182.607 157.516 182.589 157.247 182.513 156.992C182.438 156.736 182.307 156.5 182.131 156.3C181.955 156.1 181.737 155.941 181.493 155.834C181.249 155.726 180.984 155.674 180.718 155.68Z" fill="white"/>
</g>
<path d="M354.181 15.7399C354.249 15.1022 354.181 14.4573 353.98 13.848C353.78 13.2387 353.453 12.679 353.019 12.2061C352.586 11.7331 352.057 11.3578 351.468 11.105C350.878 10.8522 350.242 10.7278 349.601 10.7399H128.871L127.641 24.8499H345.311C345.733 24.8475 346.151 24.9343 346.538 25.1047C346.924 25.2751 347.27 25.5252 347.554 25.8386C347.837 26.152 348.051 26.5216 348.181 26.9234C348.312 27.3252 348.356 27.7499 348.311 28.1699L344.891 67.1699H349.641L354.181 15.7399Z" fill="#FFC100"/>
<path opacity="0.3" d="M354.181 15.7399C354.249 15.1022 354.181 14.4573 353.98 13.848C353.78 13.2387 353.453 12.679 353.019 12.2061C352.586 11.7331 352.057 11.3578 351.468 11.105C350.878 10.8522 350.242 10.7278 349.601 10.7399H128.871L127.641 24.8499H345.311C345.733 24.8475 346.151 24.9343 346.538 25.1047C346.924 25.2751 347.27 25.5252 347.554 25.8386C347.837 26.152 348.051 26.5216 348.181 26.9234C348.312 27.3252 348.356 27.7499 348.311 28.1699L344.891 67.1699H349.641L354.181 15.7399Z" fill="white"/>
<path d="M340.001 123.59L335.771 172C335.678 172.9 335.259 173.735 334.591 174.347C333.924 174.959 333.056 175.305 332.151 175.32H283.791L283.371 180.07H334.791C336.154 180.046 337.462 179.524 338.467 178.603C339.473 177.682 340.107 176.426 340.251 175.07L344.751 123.65L340.001 123.59Z" fill="#FFC100"/>
<path opacity="0.3" d="M340.001 123.59L335.771 172C335.678 172.9 335.259 173.735 334.591 174.347C333.924 174.959 333.056 175.305 332.151 175.32H283.791L283.371 180.07H334.791C336.154 180.046 337.462 179.524 338.467 178.603C339.473 177.682 340.107 176.426 340.251 175.07L344.751 123.65L340.001 123.59Z" fill="white"/>
<path d="M72.5192 67.1599L63.3492 172C63.3042 172.42 63.3483 172.845 63.4787 173.246C63.6092 173.648 63.823 174.018 64.1062 174.331C64.3894 174.645 64.7356 174.895 65.1221 175.065C65.5087 175.235 65.9268 175.322 66.3492 175.32H114.709L114.289 180.07H62.9192C62.2776 180.082 61.6408 179.957 61.0509 179.705C60.461 179.452 59.9316 179.077 59.4976 178.604C59.0636 178.131 58.735 177.572 58.5336 176.963C58.3322 176.353 58.2625 175.708 58.3292 175.07L67.7492 67.2199L72.5192 67.1599Z" fill="#FFC100"/>
<path opacity="0.3" d="M72.5192 67.1599L63.3492 172C63.3042 172.42 63.3483 172.845 63.4787 173.246C63.6092 173.648 63.823 174.018 64.1062 174.331C64.3894 174.645 64.7356 174.895 65.1221 175.065C65.5087 175.235 65.9268 175.322 66.3492 175.32H114.709L114.289 180.07H62.9192C62.2776 180.082 61.6408 179.957 61.0509 179.705C60.461 179.452 59.9316 179.077 59.4976 178.604C59.0636 178.131 58.735 177.572 58.5336 176.963C58.3322 176.353 58.2625 175.708 58.3292 175.07L67.7492 67.2199L72.5192 67.1599Z" fill="white"/>
<path d="M227.35 175.28H170.91L170.5 180.03H226.93L227.35 175.28Z" fill="#FFC100"/>
<path opacity="0.3" d="M227.35 175.28H170.91L170.5 180.03H226.93L227.35 175.28Z" fill="white"/>
<path d="M229.058 155.68H188.318C187.77 155.691 187.245 155.899 186.839 156.266C186.433 156.634 186.173 157.136 186.108 157.68L185.758 161.68C185.734 161.936 185.764 162.194 185.847 162.437C185.929 162.681 186.062 162.904 186.237 163.093C186.411 163.281 186.623 163.431 186.86 163.532C187.096 163.634 187.351 163.684 187.608 163.68H228.358L229.058 155.68Z" fill="#FFC100"/>
<path d="M289.239 155.68H285.499L284.789 163.78H288.529C289.077 163.769 289.602 163.561 290.008 163.193C290.414 162.826 290.674 162.324 290.739 161.78L291.089 157.78C291.128 157.516 291.11 157.247 291.034 156.992C290.959 156.736 290.829 156.5 290.652 156.3C290.476 156.1 290.258 155.941 290.014 155.834C289.77 155.726 289.506 155.674 289.239 155.68Z" fill="#FFC100"/>
<path d="M231.59 126.78H208.38C207.833 126.791 207.307 126.999 206.901 127.366C206.495 127.734 206.235 128.236 206.17 128.78L205.82 132.78C205.796 133.037 205.827 133.296 205.91 133.54C205.993 133.784 206.127 134.008 206.302 134.197C206.478 134.386 206.692 134.535 206.929 134.636C207.167 134.736 207.423 134.785 207.68 134.78H230.88L231.59 126.78Z" fill="#FFC100"/>
<path d="M358.698 32.86C358.633 32.855 358.569 32.8369 358.511 32.8069C358.452 32.7768 358.401 32.7354 358.359 32.6851C358.317 32.6347 358.285 32.5765 358.266 32.5138C358.247 32.451 358.241 32.3851 358.248 32.32L360.078 11.32C360.158 10.5996 360.083 9.8706 359.859 9.18143C359.635 8.49226 359.266 7.85878 358.778 7.32321C358.289 6.78765 357.693 6.3623 357.027 6.0755C356.362 5.7887 355.643 5.64704 354.918 5.65996H337.918C337.785 5.65996 337.658 5.60728 337.564 5.51351C337.471 5.41974 337.418 5.29257 337.418 5.15996C337.421 5.02815 337.474 4.90246 337.567 4.80924C337.66 4.71602 337.786 4.66252 337.918 4.65996H354.918C355.781 4.64509 356.638 4.81399 357.431 5.15546C358.224 5.49693 358.936 6.00314 359.518 6.64054C360.101 7.27793 360.541 8.03192 360.81 8.85248C361.079 9.67304 361.17 10.5414 361.078 11.4L359.238 32.4C359.233 32.4657 359.215 32.5298 359.185 32.5885C359.155 32.6473 359.114 32.6995 359.064 32.7423C359.013 32.7851 358.955 32.8175 358.893 32.8377C358.83 32.8578 358.764 32.8654 358.698 32.86Z" fill="#FFC100"/>
<path d="M334.091 5.67993H329.801C329.668 5.67993 329.541 5.62726 329.447 5.53349C329.353 5.43972 329.301 5.31254 329.301 5.17993C329.303 5.04812 329.357 4.92244 329.45 4.82922C329.543 4.736 329.669 4.68249 329.801 4.67993H334.091C334.223 4.67993 334.351 4.73262 334.444 4.82639C334.538 4.92015 334.591 5.04732 334.591 5.17993C334.591 5.24559 334.578 5.31061 334.553 5.37128C334.528 5.43194 334.491 5.48706 334.444 5.53349C334.398 5.57992 334.343 5.61675 334.282 5.64188C334.221 5.667 334.156 5.67993 334.091 5.67993Z" fill="#FFC100"/>
<path d="M227.869 189.3H221.449C221.317 189.297 221.192 189.244 221.098 189.151C221.005 189.057 220.952 188.932 220.949 188.8C220.949 188.667 221.002 188.54 221.096 188.446C221.189 188.352 221.317 188.3 221.449 188.3H227.869C228.002 188.3 228.129 188.352 228.223 188.446C228.317 188.54 228.369 188.667 228.369 188.8C228.367 188.932 228.313 189.057 228.22 189.151C228.127 189.244 228.001 189.297 227.869 189.3Z" fill="#FFC100"/>
<path d="M216.15 189.3H170C169.868 189.297 169.742 189.244 169.649 189.151C169.556 189.057 169.503 188.932 169.5 188.8C169.5 188.667 169.553 188.54 169.646 188.446C169.74 188.352 169.867 188.3 170 188.3H216.13C216.263 188.3 216.39 188.352 216.484 188.446C216.577 188.54 216.63 188.667 216.63 188.8C216.63 188.929 216.58 189.053 216.491 189.146C216.401 189.24 216.279 189.295 216.15 189.3Z" fill="#FFC100"/>
<path d="M187.92 20.06C187.531 19.8382 187.215 19.5081 187.01 19.11C186.807 18.687 186.724 18.2167 186.77 17.75C186.806 17.262 186.972 16.7925 187.25 16.39C187.521 15.9886 187.889 15.6619 188.32 15.44C188.768 15.2093 189.266 15.0926 189.77 15.1C190.249 15.0888 190.722 15.2062 191.14 15.44C191.531 15.6589 191.848 15.9897 192.05 16.39C192.255 16.8121 192.335 17.284 192.28 17.75C192.244 18.2364 192.082 18.7051 191.81 19.11C191.539 19.5113 191.171 19.838 190.74 20.06C190.295 20.2894 189.801 20.4061 189.3 20.4C188.818 20.4109 188.342 20.2936 187.92 20.06ZM190.41 19.48C190.728 19.3097 190.999 19.062 191.196 18.7596C191.394 18.4573 191.512 18.11 191.54 17.75C191.58 17.4072 191.521 17.0603 191.37 16.75C191.225 16.4536 190.995 16.2066 190.71 16.04C190.408 15.8596 190.061 15.7693 189.71 15.78C189.34 15.7745 188.975 15.864 188.65 16.04C188.334 16.2099 188.063 16.4534 187.86 16.75C187.66 17.0481 187.54 17.3923 187.51 17.75C187.479 18.0934 187.541 18.4388 187.69 18.75C187.832 19.0484 188.063 19.2962 188.35 19.46C188.652 19.6383 188.999 19.7284 189.35 19.72C189.718 19.7344 190.084 19.6516 190.41 19.48Z" fill="white"/>
<path d="M196.52 16.63C196.799 16.7937 197.022 17.0377 197.16 17.33C197.302 17.6432 197.36 17.9876 197.33 18.33C197.299 18.7029 197.179 19.063 196.98 19.38C196.787 19.6779 196.523 19.9221 196.21 20.09C195.9 20.2485 195.558 20.3341 195.21 20.34C194.947 20.344 194.686 20.2857 194.45 20.17C194.222 20.0711 194.027 19.9077 193.89 19.7L193.71 21.7H193L193.47 16.34H194.15L194.1 16.96C194.269 16.7453 194.489 16.5768 194.74 16.47C194.997 16.3514 195.277 16.2932 195.56 16.3C195.904 16.3223 196.235 16.4363 196.52 16.63ZM195.85 19.63C196.064 19.5159 196.243 19.3467 196.37 19.14C196.503 18.921 196.585 18.6749 196.61 18.42C196.632 18.1746 196.594 17.9275 196.5 17.7C196.407 17.4983 196.258 17.328 196.07 17.21C195.753 17.0451 195.386 17.004 195.041 17.0945C194.695 17.1851 194.395 17.4009 194.2 17.7C194.067 17.919 193.985 18.165 193.96 18.42C193.933 18.6655 193.971 18.9137 194.07 19.14C194.155 19.3467 194.306 19.5193 194.5 19.63C194.698 19.7522 194.927 19.8147 195.16 19.81C195.406 19.7998 195.644 19.7239 195.85 19.59V19.63Z" fill="white"/>
<path d="M201.829 18.6199H198.639C198.639 18.7774 198.673 18.933 198.739 19.0762C198.805 19.2194 198.9 19.3468 199.019 19.4499C199.282 19.6687 199.617 19.7826 199.959 19.7699C200.178 19.775 200.396 19.735 200.599 19.6524C200.802 19.5699 200.986 19.4465 201.139 19.2899L201.489 19.7499C201.293 19.9611 201.05 20.1223 200.779 20.2199C200.496 20.3338 200.194 20.3915 199.889 20.3899C199.51 20.3979 199.134 20.3084 198.799 20.1299C198.506 19.9674 198.269 19.7198 198.119 19.4199C197.977 19.1067 197.919 18.7623 197.949 18.4199C197.983 18.0646 198.099 17.7222 198.289 17.4199C198.481 17.1189 198.746 16.8713 199.059 16.6999C199.367 16.5371 199.711 16.4513 200.059 16.4499C200.409 16.4374 200.756 16.524 201.059 16.6999C201.336 16.8696 201.552 17.1213 201.679 17.4199C201.821 17.7507 201.876 18.112 201.839 18.4699C201.849 18.4599 201.839 18.5299 201.829 18.6199ZM199.159 17.2899C198.908 17.4989 198.739 17.789 198.679 18.1099H201.199C201.201 17.9582 201.173 17.8077 201.116 17.6669C201.059 17.5262 200.976 17.3981 200.869 17.2899C200.753 17.1829 200.615 17.1018 200.465 17.0518C200.315 17.0018 200.156 16.9841 199.999 16.9999C199.694 16.9966 199.397 17.0991 199.159 17.2899Z" fill="white"/>
<path d="M206.27 16.81C206.412 16.9856 206.516 17.19 206.573 17.4091C206.63 17.6282 206.639 17.857 206.6 18.08L206.4 20.3399H205.69L205.88 18.16C205.909 18.0122 205.906 17.86 205.871 17.7134C205.837 17.5668 205.771 17.4293 205.68 17.31C205.584 17.2066 205.465 17.1267 205.333 17.0764C205.202 17.0261 205.06 17.0068 204.92 17.02C204.576 17.0061 204.239 17.1241 203.98 17.35C203.718 17.6181 203.568 17.9755 203.56 18.35L203.39 20.35H202.68L203.02 16.4299H203.7V17.02C203.865 16.8153 204.078 16.6539 204.32 16.55C204.589 16.4396 204.878 16.3852 205.17 16.39C205.372 16.3816 205.574 16.4145 205.763 16.4867C205.952 16.5589 206.124 16.6689 206.27 16.81Z" fill="white"/>
<path d="M210.208 20.2199C209.906 20.1266 209.629 19.9659 209.398 19.7499L209.718 19.1699C209.926 19.3638 210.171 19.5135 210.438 19.6099C210.74 19.7188 211.058 19.773 211.378 19.77C211.726 19.7973 212.074 19.7208 212.378 19.5499C212.483 19.4911 212.572 19.4074 212.636 19.3063C212.701 19.2051 212.739 19.0896 212.748 18.9699C212.76 18.8931 212.755 18.8146 212.732 18.7402C212.71 18.6658 212.671 18.5973 212.618 18.5399C212.502 18.4251 212.362 18.3364 212.208 18.2799C212.038 18.2199 211.808 18.1599 211.498 18.0799C211.184 18.0126 210.877 17.9189 210.578 17.7999C210.353 17.7104 210.156 17.5618 210.008 17.3699C209.926 17.2572 209.867 17.1294 209.835 16.9939C209.802 16.8583 209.797 16.7177 209.818 16.5799C209.838 16.3084 209.936 16.0482 210.098 15.8299C210.286 15.5959 210.531 15.4136 210.808 15.2999C211.167 15.1546 211.552 15.0864 211.938 15.1C212.239 15.0998 212.538 15.1402 212.828 15.2199C213.092 15.2826 213.341 15.3983 213.558 15.5599L213.268 16.1499C213.061 16.0135 212.835 15.9058 212.598 15.8299C212.364 15.7624 212.122 15.7287 211.878 15.7299C211.529 15.6962 211.178 15.777 210.878 15.96C210.774 16.0217 210.686 16.1074 210.622 16.2101C210.558 16.3127 210.519 16.4292 210.508 16.5499C210.496 16.6276 210.503 16.707 210.527 16.7817C210.551 16.8564 210.593 16.9243 210.648 16.9799C210.767 17.0971 210.911 17.1859 211.068 17.24C211.295 17.3182 211.525 17.3849 211.758 17.4399C212.072 17.5105 212.379 17.6041 212.678 17.7199C212.904 17.8095 213.1 17.958 213.248 18.1499C213.332 18.2598 213.392 18.3858 213.425 18.52C213.458 18.6543 213.462 18.7939 213.438 18.9299C213.418 19.2 213.317 19.4577 213.148 19.6699C212.967 19.9168 212.716 20.1046 212.428 20.21C212.071 20.346 211.691 20.4105 211.308 20.3999C210.934 20.3998 210.563 20.339 210.208 20.2199Z" fill="white"/>
<path d="M214.997 20.1299C214.709 19.9625 214.479 19.7114 214.337 19.4099C214.189 19.0989 214.13 18.7526 214.167 18.4099C214.197 18.0522 214.317 17.708 214.517 17.4099C214.71 17.1027 214.984 16.8538 215.307 16.6899C215.641 16.5194 216.012 16.4335 216.387 16.4399C216.737 16.4344 217.082 16.5206 217.387 16.6899C217.68 16.8541 217.915 17.1059 218.057 17.4099C218.199 17.7231 218.258 18.0675 218.227 18.4099C218.192 18.768 218.069 19.1118 217.867 19.4099C217.674 19.7136 217.405 19.9618 217.087 20.1299C216.754 20.3024 216.383 20.3916 216.007 20.3899C215.654 20.3941 215.305 20.3044 214.997 20.1299ZM216.777 19.5899C216.989 19.4732 217.168 19.3046 217.297 19.0999C217.431 18.8822 217.51 18.6351 217.527 18.3799C217.554 18.1344 217.516 17.8861 217.417 17.6599C217.328 17.4562 217.178 17.285 216.987 17.1699C216.786 17.0555 216.558 16.9969 216.327 16.9999C216.087 16.9993 215.85 17.0577 215.637 17.1699C215.427 17.2896 215.249 17.4576 215.117 17.6599C214.984 17.8789 214.902 18.125 214.877 18.3799C214.855 18.6253 214.893 18.8724 214.987 19.0999C215.081 19.304 215.234 19.4748 215.427 19.5899C215.625 19.7121 215.855 19.7746 216.087 19.7699C216.316 19.765 216.539 19.7031 216.737 19.5899H216.777Z" fill="white"/>
<path d="M222.998 16.4199L222.648 20.3399H221.998L222.048 19.7499C221.887 19.9542 221.677 20.1156 221.438 20.2199C221.194 20.3327 220.928 20.3907 220.658 20.3899C220.439 20.4036 220.219 20.3715 220.012 20.2958C219.806 20.2201 219.617 20.1023 219.458 19.9499C219.312 19.7764 219.205 19.5726 219.146 19.353C219.087 19.1334 219.078 18.9036 219.118 18.6799L219.318 16.4199H219.998L219.808 18.5899C219.783 18.7409 219.787 18.8956 219.821 19.0449C219.856 19.1942 219.919 19.3353 220.008 19.4599C220.108 19.5588 220.227 19.6357 220.358 19.6857C220.489 19.7356 220.629 19.7575 220.768 19.7499C220.937 19.7565 221.104 19.7299 221.262 19.6715C221.42 19.6132 221.565 19.5243 221.688 19.4099C221.943 19.1381 222.089 18.7822 222.098 18.4099L222.268 16.4099L222.998 16.4199Z" fill="white"/>
<path d="M225.6 16.5599C225.883 16.433 226.19 16.3715 226.5 16.3799L226.44 17.0699H226.27C226.1 17.0639 225.93 17.0917 225.77 17.1518C225.61 17.2118 225.464 17.303 225.34 17.4199C225.077 17.6869 224.926 18.045 224.92 18.4199L224.75 20.4199H224L224.34 16.4999H225.02L224.97 17.1599C225.109 16.8963 225.33 16.6855 225.6 16.5599Z" fill="white"/>
<path d="M227.65 20.1299C227.354 19.9662 227.117 19.7146 226.97 19.4099C226.821 19.0989 226.762 18.7526 226.8 18.4099C226.826 18.0441 226.945 17.6911 227.146 17.3846C227.348 17.0782 227.625 16.8286 227.95 16.6599C228.291 16.4892 228.669 16.4035 229.05 16.4099C229.373 16.4039 229.692 16.4759 229.98 16.6199C230.241 16.7591 230.448 16.9806 230.57 17.2499L230 17.5899C229.897 17.4172 229.753 17.2728 229.58 17.1699C229.394 17.0758 229.188 17.0278 228.98 17.0299C228.736 17.0293 228.496 17.0876 228.28 17.1999C228.065 17.3166 227.883 17.485 227.75 17.6899C227.617 17.9089 227.535 18.1549 227.51 18.4099C227.485 18.6595 227.527 18.9113 227.63 19.1399C227.717 19.343 227.868 19.5117 228.06 19.6199C228.266 19.7412 228.501 19.8035 228.74 19.7999C228.958 19.798 229.173 19.7455 229.367 19.6466C229.561 19.5477 229.73 19.405 229.86 19.2299L230.37 19.5699C230.195 19.8368 229.954 20.0538 229.67 20.1999C229.358 20.3488 229.016 20.424 228.67 20.4199C228.311 20.4121 227.96 20.3122 227.65 20.1299Z" fill="white"/>
<path d="M234.851 18.6199H231.661C231.661 18.7774 231.695 18.933 231.761 19.0762C231.826 19.2194 231.922 19.3468 232.041 19.4499C232.304 19.6687 232.639 19.7826 232.981 19.7699C233.2 19.775 233.418 19.735 233.621 19.6524C233.824 19.5698 234.007 19.4465 234.161 19.2899L234.511 19.7499C234.315 19.9611 234.072 20.1223 233.801 20.2199C233.515 20.3346 233.209 20.3923 232.901 20.3899C232.525 20.3966 232.153 20.3071 231.821 20.1299C231.528 19.9673 231.291 19.7198 231.141 19.4199C230.995 19.1082 230.936 18.7625 230.971 18.4199C231.005 18.0646 231.121 17.7222 231.311 17.4199C231.498 17.1114 231.763 16.8569 232.078 16.6816C232.394 16.5062 232.75 16.4161 233.111 16.4199C233.461 16.4079 233.807 16.4945 234.111 16.6699C234.385 16.8426 234.601 17.0933 234.731 17.3899C234.872 17.7207 234.927 18.082 234.891 18.4399C234.871 18.4599 234.861 18.5299 234.851 18.6199ZM232.181 17.2899C231.93 17.4989 231.76 17.789 231.701 18.1099H234.221C234.223 17.9582 234.194 17.8077 234.138 17.6669C234.081 17.5262 233.997 17.3981 233.891 17.2899C233.781 17.1845 233.65 17.1027 233.508 17.0494C233.365 16.9961 233.213 16.9724 233.061 16.9799C232.739 16.9727 232.427 17.0829 232.181 17.2899Z" fill="white"/>
<path d="M130.23 5.43994H136.64C136.773 5.43994 136.9 5.38726 136.994 5.29349C137.088 5.19972 137.14 5.07255 137.14 4.93994C137.14 4.80733 137.088 4.68015 136.994 4.58638C136.9 4.49261 136.773 4.43994 136.64 4.43994H130.23C130.098 4.43994 129.971 4.49261 129.877 4.58638C129.783 4.68015 129.73 4.80733 129.73 4.93994C129.73 5.07255 129.783 5.19972 129.877 5.29349C129.971 5.38726 130.098 5.43994 130.23 5.43994Z" fill="#FFC100"/>
<path d="M141.938 5.43994H188.068C188.2 5.43994 188.327 5.38726 188.421 5.29349C188.515 5.19972 188.568 5.07255 188.568 4.93994C188.568 4.80733 188.515 4.68015 188.421 4.58638C188.327 4.49261 188.2 4.43994 188.068 4.43994H141.938C141.805 4.43994 141.678 4.49261 141.584 4.58638C141.49 4.68015 141.438 4.80733 141.438 4.93994C141.438 5.07255 141.49 5.19972 141.584 5.29349C141.678 5.38726 141.805 5.43994 141.938 5.43994Z" fill="#FFC100"/>
<path d="M353.609 58.6801L371.669 265.16H374.519L373.759 256.47H413.569L414.329 265.16H417.179L399.109 58.6801H396.259L397.019 67.3601H357.219L356.459 58.6801H353.609ZM357.469 70.2101H397.269L399.739 98.4101H359.929L357.469 70.2101ZM360.179 101.21H399.999L402.459 129.4H362.659L360.179 101.21ZM362.899 132.21H402.699L405.169 160.4H365.369L362.899 132.21ZM365.619 163.21H405.419L407.889 191.41H368.079L365.619 163.21ZM368.329 194.26H408.139L410.599 222.45H370.799L368.329 194.26ZM413.329 253.49H373.509L371.049 225.3H410.849L413.329 253.49Z" fill="#263238"/>
<path opacity="0.3" d="M353.609 58.6801L371.669 265.16H374.519L373.759 256.47H413.569L414.329 265.16H417.179L399.109 58.6801H396.259L397.019 67.3601H357.219L356.459 58.6801H353.609ZM357.469 70.2101H397.269L399.739 98.4101H359.929L357.469 70.2101ZM360.179 101.21H399.999L402.459 129.4H362.659L360.179 101.21ZM362.899 132.21H402.699L405.169 160.4H365.369L362.899 132.21ZM365.619 163.21H405.419L407.889 191.41H368.079L365.619 163.21ZM368.329 194.26H408.139L410.599 222.45H370.799L368.329 194.26ZM413.329 253.49H373.509L371.049 225.3H410.849L413.329 253.49Z" fill="white"/>
<path d="M378.507 70.22L373.437 75L363.707 72.75V70.83C363.706 70.6944 363.672 70.5613 363.606 70.4427C363.54 70.3241 363.446 70.2239 363.331 70.1513C363.217 70.0787 363.086 70.0359 362.951 70.0269C362.816 70.018 362.68 70.0431 362.557 70.1C362.557 70.1 362.087 70.43 361.907 70.4C361.097 70.29 359.417 68.28 359.417 68.28C359.305 68.1874 359.17 68.1259 359.026 68.1013C358.882 68.0768 358.734 68.0901 358.597 68.14L357.907 68.41C357.725 68.4778 357.574 68.6096 357.482 68.7808C357.39 68.9519 357.364 69.1507 357.407 69.34L358.507 74.21C358.542 74.3659 358.623 74.508 358.738 74.6183C358.854 74.7287 359 74.8023 359.157 74.83L362.227 75.37C362.227 75.37 370.997 80.77 374.177 80.03C377.357 79.29 382.097 74.84 382.097 74.84L378.507 70.22Z" fill="#7F3E3B"/>
<path d="M303.71 61.15L301.5 62.49L298.02 117.74L352.43 119.45L354.41 118.26L359.86 61.61L303.71 61.15Z" fill="#FFC100"/>
<path d="M356.059 63L301.499 62.49L296.039 118.93L350.599 119.43L356.059 63Z" fill="#FFC100"/>
<path opacity="0.8" d="M356.059 63L301.499 62.49L296.039 118.93L350.599 119.43L356.059 63Z" fill="white"/>
<path d="M329.001 79L300.001 78.73L299.211 86.83L328.211 87.1C328.762 87.0942 329.292 86.888 329.703 86.52C330.113 86.152 330.375 85.6473 330.441 85.1L330.831 81.1C330.868 80.8383 330.849 80.5717 330.774 80.3182C330.699 80.0647 330.57 79.8304 330.397 79.6311C330.223 79.4318 330.008 79.2723 329.768 79.1634C329.527 79.0545 329.265 78.9988 329.001 79Z" fill="#FFC100"/>
<path d="M299.7 93.2201H298.53L297.75 101.32H298.91C299.462 101.316 299.993 101.111 300.404 100.743C300.815 100.374 301.077 99.8682 301.14 99.3201L301.53 95.3201C301.569 95.0581 301.551 94.7908 301.477 94.5366C301.402 94.2824 301.274 94.0474 301.1 93.8477C300.926 93.648 300.71 93.4885 300.469 93.3801C300.227 93.2718 299.965 93.2172 299.7 93.2201Z" fill="#FFC100"/>
<path opacity="0.5" d="M299.7 93.2201H298.53L297.75 101.32H298.91C299.462 101.316 299.993 101.111 300.404 100.743C300.815 100.374 301.077 99.8682 301.14 99.3201L301.53 95.3201C301.569 95.0581 301.551 94.7908 301.477 94.5366C301.402 94.2824 301.274 94.0474 301.1 93.8477C300.926 93.648 300.71 93.4885 300.469 93.3801C300.227 93.2718 299.965 93.2172 299.7 93.2201Z" fill="white"/>
<path d="M347.688 119.4L352.427 119.45L357.888 63.01L353.147 62.97L347.688 119.4Z" fill="#FFC100"/>
<path opacity="0.3" d="M347.688 119.4L352.427 119.45L357.888 63.01L353.147 62.97L347.688 119.4Z" fill="white"/>
<path d="M370.519 48.72C370.519 48.72 366.849 49.01 366.859 51.55C366.859 53.16 368.129 50.5 369.929 49.68C371.729 48.86 370.519 48.72 370.519 48.72Z" fill="#263238"/>
<path d="M384.598 134.46C384.598 134.46 386.398 140.56 387.218 142.51C391.488 152.79 400.128 167.67 405.588 183.09L409.978 181.39C408.255 173.55 406.054 165.822 403.388 158.25C401.198 151.99 397.388 145.64 395.088 138.78C394.503 136.142 394.085 133.47 393.838 130.78L384.598 134.46Z" fill="#7F3E3B"/>
<path d="M388.37 95.7C388.37 95.7 393.21 100.56 394.06 106.8C394.91 113.04 393.06 123.51 395.96 134.8L384.75 137.87C384.75 137.87 375.67 106.15 374.82 98.4799L388.37 95.7Z" fill="#263238"/>
<path opacity="0.4" d="M381.098 124.76L383.998 114.69L387.498 109.05C388.001 114.709 387.664 120.41 386.498 125.97C385.548 130.18 384.758 133.64 384.208 136.07C383.588 133.79 382.408 129.6 381.098 124.76Z" fill="black"/>
<path d="M374.318 187.57C373.8 187.611 373.285 187.461 372.868 187.15C372.817 187.075 372.789 186.986 372.789 186.895C372.789 186.804 372.817 186.715 372.868 186.64C372.911 186.574 372.967 186.517 373.032 186.472C373.098 186.427 373.171 186.396 373.248 186.38C374.078 186.17 375.788 187.2 375.858 187.25C375.881 187.259 375.9 187.276 375.911 187.298C375.922 187.321 375.925 187.346 375.918 187.37C375.913 187.393 375.9 187.414 375.882 187.43C375.864 187.446 375.842 187.457 375.818 187.46C375.322 187.541 374.821 187.577 374.318 187.57ZM373.558 186.57C373.482 186.56 373.405 186.56 373.328 186.57C373.281 186.574 373.235 186.59 373.194 186.616C373.154 186.642 373.121 186.678 373.098 186.72C372.998 186.87 373.028 186.94 373.098 186.98C373.318 187.31 374.568 187.35 375.488 187.26C374.894 186.913 374.239 186.682 373.558 186.58V186.57Z" fill="#FFC100"/>
<path d="M375.817 187.46C375.817 187.46 375.817 187.46 375.767 187.46C375.187 187.18 374.017 186.07 374.137 185.52C374.137 185.38 374.257 185.22 374.587 185.2C374.703 185.191 374.819 185.205 374.929 185.241C375.039 185.277 375.14 185.334 375.227 185.41C375.664 185.966 375.919 186.644 375.957 187.35C375.96 187.372 375.955 187.395 375.945 187.414C375.934 187.434 375.917 187.45 375.897 187.46C375.872 187.47 375.843 187.47 375.817 187.46ZM374.657 185.46H374.587C374.377 185.46 374.357 185.55 374.347 185.58C374.347 185.92 375.077 186.78 375.677 187.16C375.636 186.595 375.42 186.056 375.057 185.62C374.949 185.518 374.806 185.461 374.657 185.46Z" fill="#FFC100"/>
<path d="M376.358 186.78L381.778 186.92C381.876 186.923 381.97 186.959 382.045 187.023C382.119 187.086 382.17 187.174 382.188 187.27L383.058 191.69C383.079 191.783 383.08 191.88 383.063 191.974C383.046 192.068 383.01 192.157 382.958 192.237C382.906 192.317 382.839 192.386 382.76 192.44C382.681 192.494 382.592 192.531 382.498 192.55H382.348C380.348 192.47 378.658 192.32 376.228 192.27C373.368 192.2 374.078 192.56 370.708 192.52C368.708 192.52 368.368 190.18 369.228 190.09C373.178 189.69 373.618 188.51 375.178 187.09C375.52 186.844 375.94 186.734 376.358 186.78Z" fill="#263238"/>
<path d="M403.629 184.2C403.16 184.42 402.627 184.463 402.129 184.32C402.055 184.264 402 184.188 401.971 184.1C401.943 184.012 401.942 183.918 401.969 183.83C401.983 183.752 402.014 183.678 402.058 183.613C402.103 183.547 402.161 183.492 402.229 183.45C402.939 182.96 404.889 183.33 404.979 183.35C405.001 183.354 405.022 183.364 405.038 183.381C405.054 183.397 405.065 183.417 405.069 183.44C405.073 183.464 405.071 183.489 405.062 183.512C405.054 183.535 405.038 183.555 405.019 183.57C404.574 183.818 404.109 184.029 403.629 184.2ZM402.569 183.54L402.359 183.64C402.278 183.693 402.221 183.776 402.199 183.87C402.199 184.04 402.199 184.1 402.259 184.12C402.589 184.35 403.769 183.95 404.599 183.54C403.928 183.41 403.239 183.41 402.569 183.54Z" fill="#FFC100"/>
<path d="M404.998 183.57C404.998 183.57 404.998 183.57 404.948 183.57C404.298 183.52 402.828 182.89 402.738 182.33C402.738 182.2 402.738 182.01 403.048 181.88C403.156 181.833 403.271 181.809 403.388 181.809C403.505 181.809 403.621 181.833 403.728 181.88C404.498 182.16 405.058 183.39 405.088 183.44C405.098 183.459 405.103 183.479 405.103 183.5C405.103 183.521 405.098 183.541 405.088 183.56C405.076 183.569 405.06 183.575 405.045 183.577C405.029 183.579 405.013 183.576 404.998 183.57ZM403.188 182.07H403.128C402.938 182.15 402.948 182.24 402.948 182.27C403.028 182.6 404.048 183.14 404.748 183.27C404.509 182.758 404.118 182.332 403.628 182.05C403.487 181.995 403.33 181.995 403.188 182.05V182.07Z" fill="#FFC100"/>
<path d="M405.268 182.74L410.378 180.97C410.472 180.94 410.574 180.941 410.668 180.974C410.761 181.006 410.842 181.068 410.898 181.15L413.258 185C413.309 185.081 413.344 185.171 413.36 185.265C413.376 185.359 413.374 185.455 413.352 185.548C413.331 185.641 413.291 185.729 413.235 185.807C413.18 185.884 413.109 185.95 413.028 186L412.898 186.06C411.038 186.67 409.368 187.14 407.068 187.94C404.358 188.88 405.158 188.94 401.988 190.11C400.078 190.8 398.988 188.74 399.748 188.35C403.308 186.59 403.308 185.35 404.278 183.5C404.509 183.139 404.859 182.87 405.268 182.74Z" fill="#263238"/>
<path d="M371.599 134.37C371.599 134.37 371.429 140.72 371.599 142.83C372.489 153.93 376.109 170.74 376.539 187.1H381.189C382.079 178.032 382.343 168.914 381.979 159.81C381.749 154.08 380.229 148.04 380.199 141.98C380.453 139.289 380.877 136.617 381.469 133.98L371.599 134.37Z" fill="#7F3E3B"/>
<path d="M383.587 96.8601C385.585 100.081 386.847 103.703 387.284 107.468C387.722 111.232 387.323 115.047 386.117 118.64C381.747 131.69 382.847 138.1 382.847 138.1H370.677C370.677 138.1 370.677 121.03 370.157 115.37C369.777 111.37 368.777 107.01 369.097 99.3701L383.587 96.8601Z" fill="#263238"/>
<path d="M382.978 135.67L383.348 138.57H370.188V135.67H382.978Z" fill="#263238"/>
<path opacity="0.4" d="M382.978 135.67L383.348 138.57H370.188V135.67H382.978Z" fill="white"/>
<path d="M395.959 132.18L383.719 135.82L384.599 138.57L396.779 135.03L395.959 132.18Z" fill="#263238"/>
<path opacity="0.4" d="M395.959 132.18L383.719 135.82L384.599 138.57L396.779 135.03L395.959 132.18Z" fill="white"/>
<path d="M379.4 67C379.4 67 376.66 66.71 376.71 61.68C376.71 61.68 374.18 60.53 372.54 62.01C370.9 63.49 374.02 67.01 371.98 68.44C372 68.42 373.77 69.62 379.4 67Z" fill="#7F3E3B"/>
<path d="M367.419 54.6001C367.419 54.2601 367.189 54 366.969 54.01C366.749 54.02 366.599 54.32 366.619 54.65C366.639 54.98 366.839 55.2501 367.059 55.2401C367.279 55.2301 367.439 54.9301 367.419 54.6001Z" fill="#263238"/>
<path d="M367.19 55.21L365.41 57.56C365.691 57.7739 366.02 57.9173 366.368 57.9782C366.716 58.0391 367.073 58.0157 367.41 57.91L367.19 55.21Z" fill="#A02724"/>
<path d="M379.068 54.07C378.858 58.33 378.868 60.14 376.748 62.36C373.488 64.63 368.348 64.51 367.278 60.27C366.278 56.45 366.808 50.13 370.958 48.36C371.872 47.9696 372.87 47.8193 373.859 47.9233C374.847 48.0273 375.792 48.3822 376.605 48.9542C377.417 49.5263 378.07 50.2966 378.501 51.192C378.933 52.0873 379.128 53.078 379.068 54.07Z" fill="#7F3E3B"/>
<path d="M368.047 53.6C368.019 53.6121 367.988 53.6183 367.957 53.6183C367.926 53.6183 367.896 53.6121 367.867 53.6C367.684 53.4314 367.464 53.3083 367.224 53.2406C366.984 53.1728 366.732 53.1624 366.487 53.21C366.438 53.2228 366.386 53.2164 366.342 53.1923C366.297 53.1682 366.263 53.128 366.247 53.08C366.232 53.0296 366.236 52.975 366.261 52.9282C366.285 52.8814 366.327 52.8461 366.377 52.83C366.685 52.7651 367.005 52.7738 367.309 52.8554C367.613 52.9371 367.893 53.0894 368.127 53.3C368.145 53.3177 368.159 53.3387 368.169 53.3619C368.179 53.385 368.184 53.4099 368.184 53.435C368.184 53.4601 368.179 53.485 368.169 53.5081C368.159 53.5313 368.145 53.5523 368.127 53.57C368.104 53.5881 368.076 53.5986 368.047 53.6Z" fill="#263238"/>
<path d="M367.059 54L366.129 53.87C366.129 53.87 366.679 54.53 367.059 54Z" fill="#263238"/>
<path opacity="0.2" d="M374.748 63.37C374.196 64.2648 373.407 64.9885 372.468 65.46C372.315 64.9203 372.192 64.3728 372.098 63.82C373.001 63.8267 373.898 63.6744 374.748 63.37Z" fill="black"/>
<path d="M381.469 67.6701C381.469 67.6701 381.469 64.2901 377.469 64.9201C373.469 65.5501 370.559 67.4601 370.469 69.4301L381.469 67.6701Z" fill="#FFC100"/>
<path opacity="0.1" d="M381.469 67.6701C381.469 67.6701 381.469 64.2901 377.469 64.9201C373.469 65.5501 370.559 67.4601 370.469 69.4301L381.469 67.6701Z" fill="black"/>
<path d="M383.867 67.3C383.867 67.3 389.157 67.46 389.157 71.69C389.199 72.8613 388.947 74.0245 388.423 75.0728C387.899 76.1211 387.12 77.0211 386.157 77.69L383.867 67.3Z" fill="#FFC100"/>
<path opacity="0.1" d="M383.867 67.3C383.867 67.3 389.157 67.46 389.157 71.69C389.199 72.8613 388.947 74.0245 388.423 75.0728C387.899 76.1211 387.12 77.0211 386.157 77.69L383.867 67.3Z" fill="black"/>
<path d="M389.929 96.22C388.223 92.624 387.151 88.7607 386.759 84.8C386.229 78.56 390.039 67.46 383.269 67.25C376.499 67.04 372.799 67.99 368.779 69.57C364.759 71.15 365.609 82.05 366.239 86.18C366.869 90.31 368.779 100.77 368.779 100.77C368.779 100.77 380.309 102.25 389.929 96.22Z" fill="#FFC100"/>
<path opacity="0.1" d="M365.92 83.48C365.68 81.0505 365.647 78.6051 365.82 76.17L370.41 75.6C369.359 78.4567 367.842 81.1195 365.92 83.48Z" fill="black"/>
<path d="M362.117 74.8601L356.997 79.6701L347.267 77.4301V75.3601C347.268 75.2415 347.238 75.1247 347.182 75.0203C347.125 74.916 347.044 74.8275 346.944 74.7628C346.845 74.6982 346.731 74.6595 346.613 74.6503C346.494 74.6411 346.376 74.6616 346.267 74.7101C345.983 74.7886 345.692 74.8356 345.397 74.8501C344.567 74.7401 342.957 72.9201 342.957 72.9201C342.86 72.8358 342.741 72.78 342.614 72.7588C342.487 72.7376 342.357 72.7519 342.237 72.8001L340.177 74.7201C340.027 74.8066 339.908 74.938 339.836 75.0958C339.764 75.2537 339.744 75.43 339.777 75.6001L341.987 78.7801C342.065 78.9453 342.178 79.0917 342.318 79.2092C342.457 79.3266 342.621 79.4122 342.797 79.4601L345.797 80.0401C345.797 80.0401 354.577 85.4401 357.747 84.7001C360.917 83.9601 365.677 79.5201 365.677 79.5201L362.117 74.8601Z" fill="#7F3E3B"/>
<path d="M368.777 69.5701C368.777 69.5701 365.607 70.4901 361.027 74.5101C361.027 74.5101 361.197 77.6801 365.227 81.1701C365.227 81.1701 369.557 78.4601 370.897 74.4401C372.237 70.4201 368.777 69.5701 368.777 69.5701Z" fill="#FFC100"/>
<path d="M370.409 47.89C370.409 47.89 367.409 49.27 368.199 51.43C368.989 53.59 369.449 55.43 368.859 56.14C368.269 56.85 370.289 57.02 370.189 54.63C370.189 54.63 370.449 57.63 371.979 58C373.509 58.37 374.559 62.84 373.279 65C371.999 67.16 371.699 72.1 372.969 73.21C374.239 74.32 376.659 75.42 376.369 77.38C376.079 79.34 379.279 78.02 378.649 75.64C378.649 75.64 380.389 78.33 382.509 75.9C384.629 73.47 381.239 71.25 381.239 71.25C381.239 71.25 383.809 72.04 383.869 73.42C383.929 74.8 384.779 75.48 385.779 73.95C386.186 73.2636 386.345 72.4584 386.231 71.6687C386.116 70.879 385.734 70.1524 385.149 69.61C385.149 69.61 386.849 69.33 387.059 70.52C387.269 71.71 389.219 69.72 387.529 68.16C385.839 66.6 382.879 65.8 382.929 59.78C382.979 53.76 381.819 48.62 377.219 47.56C372.619 46.5 370.409 47.89 370.409 47.89Z" fill="#263238"/>
<path d="M371.49 55.5201C371.168 55.8078 370.907 56.1567 370.722 56.5464C370.536 56.9362 370.43 57.3589 370.41 57.7901C370.41 58.9501 371.47 59.2701 372.41 58.7301C373.35 58.1901 374.33 57.0701 373.92 56.0101C373.831 55.7796 373.685 55.5753 373.497 55.416C373.308 55.2568 373.082 55.1477 372.84 55.0988C372.597 55.05 372.347 55.063 372.111 55.1366C371.875 55.2102 371.662 55.3421 371.49 55.5201Z" fill="#7F3E3B"/>
<path d="M299.108 128.42L242.318 128.18L240.648 129.5L240.248 161.56L239.498 169.66L238.428 181.16L238.218 183.44L237.988 185.91L291.838 186.2L294.308 183.7L299.108 128.42Z" fill="#FFC100"/>
<path d="M235.66 183.42L292.07 183.72L297.08 129.76L240.65 129.5L235.66 183.42Z" fill="#FFC100"/>
<path opacity="0.8" d="M235.66 183.42L292.07 183.72L297.08 129.76L240.65 129.5L235.66 183.42Z" fill="white"/>
<path d="M267.211 132.79L240.371 132.65L239.621 140.75L266.461 140.89C267.011 140.882 267.538 140.674 267.947 140.307C268.355 139.939 268.616 139.436 268.681 138.89L269.051 134.89C269.089 134.627 269.069 134.36 268.993 134.106C268.918 133.852 268.788 133.617 268.613 133.417C268.439 133.218 268.223 133.058 267.981 132.95C267.739 132.842 267.476 132.787 267.211 132.79Z" fill="#FFC100"/>
<path d="M236.941 169.65L293.351 169.95L294.101 161.85L237.691 161.55L236.941 169.65Z" fill="#FFC100"/>
<path d="M235.87 181.15L235.43 185.9L291.84 186.2L292.28 181.45L235.87 181.15Z" fill="#FFC100"/>
<path opacity="0.3" d="M235.87 181.15L235.43 185.9L291.84 186.2L292.28 181.45L235.87 181.15Z" fill="white"/>
<path d="M275.758 194.06C275.758 194.06 276.398 207.23 276.688 211.61C277.498 223.56 280.608 259.36 280.608 259.36H285.928C285.928 259.36 287.928 242.92 287.378 228.8C287.138 222.97 285.378 217.8 284.988 213.8C284.598 209.8 286.858 203.45 285.298 197.66C283.818 192.2 275.758 194.06 275.758 194.06Z" fill="#FFC3BD"/>
<path d="M288.41 194.38C288.41 194.38 289.54 208.21 290.19 212.78C291.87 224.49 299.05 259.25 299.05 259.25L304.37 259.01C304.37 259.01 304.25 241.01 301.84 226.8C301.03 222.05 299.74 217.95 299.23 214.57C298.59 210.36 299.94 203.25 298.11 197.57C296.39 192.16 288.41 194.38 288.41 194.38Z" fill="#FFC3BD"/>
<path d="M293.89 167.09C293.89 167.09 303.28 175.82 302.95 204.31C293.828 207.818 283.826 208.336 274.39 205.79C274.39 205.79 271.86 184.88 274.39 169.48L293.89 167.09Z" fill="#263238"/>
<path d="M274.69 126.75C274.69 126.42 274.47 126.17 274.25 126.18C274.03 126.19 273.88 126.48 273.91 126.81C273.94 127.14 274.13 127.39 274.34 127.38C274.55 127.37 274.71 127.08 274.69 126.75Z" fill="#263238"/>
<path d="M274.328 126.2L273.418 126.06C273.418 126.06 273.998 126.69 274.328 126.2Z" fill="#263238"/>
<path d="M286.48 138.11C286.48 138.11 283.8 137.84 283.85 132.91C283.85 132.91 281.37 131.78 279.77 133.23C278.17 134.68 281.22 138.09 279.23 139.52C279.23 139.52 281 140.7 286.48 138.11Z" fill="#FFC3BD"/>
<path d="M274.658 127.22L272.918 129.52C273.189 129.723 273.504 129.86 273.837 129.919C274.171 129.978 274.514 129.958 274.838 129.86L274.658 127.22Z" fill="#ED893E"/>
<path d="M286.159 125.48C285.959 129.65 285.969 131.43 283.889 133.59C280.699 135.82 275.669 135.7 274.619 131.59C273.679 127.85 274.159 121.67 278.229 119.93C279.123 119.551 280.1 119.406 281.065 119.509C282.031 119.612 282.955 119.96 283.749 120.52C284.543 121.079 285.181 121.832 285.602 122.707C286.024 123.582 286.216 124.55 286.159 125.52V125.48Z" fill="#FFC3BD"/>
<path d="M275.439 125.77C275.412 125.787 275.381 125.796 275.349 125.796C275.317 125.796 275.286 125.787 275.259 125.77C275.079 125.606 274.863 125.487 274.628 125.423C274.394 125.358 274.147 125.351 273.909 125.4C273.861 125.412 273.81 125.406 273.767 125.381C273.725 125.357 273.693 125.317 273.679 125.27C273.666 125.22 273.672 125.166 273.696 125.12C273.72 125.074 273.76 125.038 273.809 125.02C274.11 124.96 274.421 124.971 274.717 125.05C275.014 125.13 275.288 125.277 275.519 125.48C275.552 125.515 275.57 125.562 275.57 125.61C275.57 125.658 275.552 125.705 275.519 125.74C275.496 125.759 275.468 125.769 275.439 125.77Z" fill="#263238"/>
<path opacity="0.2" d="M281.93 134.59C281.387 135.451 280.615 136.144 279.7 136.59C279.57 136.05 279.41 135.5 279.34 134.99C280.22 135.003 281.095 134.868 281.93 134.59Z" fill="black"/>
<path d="M288.561 138.83C288.561 138.83 287.011 135.1 282.221 136.64C277.431 138.18 276.371 140.86 276.371 140.86L288.561 138.83Z" fill="#FFC100"/>
<path opacity="0.2" d="M288.561 138.83C288.561 138.83 287.011 135.1 282.221 136.64C277.431 138.18 276.371 140.86 276.371 140.86L288.561 138.83Z" fill="black"/>
<path d="M292.209 139.63C292.209 139.63 298.399 145.35 295.729 150.95C293.059 156.55 288.559 148.65 288.559 148.65L292.209 139.63Z" fill="#FFC100"/>
<path opacity="0.2" d="M292.209 139.63C292.209 139.63 298.399 145.35 295.729 150.95C293.059 156.55 288.559 148.65 288.559 148.65L292.209 139.63Z" fill="black"/>
<path d="M280.498 258.79L286.498 258.94C286.607 258.938 286.714 258.976 286.798 259.045C286.882 259.115 286.939 259.212 286.958 259.32L287.958 264.2C287.999 264.407 287.958 264.621 287.841 264.797C287.725 264.973 287.544 265.097 287.338 265.14H287.168C285.018 265.05 283.108 264.88 280.428 264.82C277.278 264.74 278.068 265.14 274.348 265.1C272.118 265.1 271.768 262.52 272.718 262.42C277.078 261.98 277.558 260.68 279.268 259.17C279.622 258.906 280.057 258.772 280.498 258.79Z" fill="#263238"/>
<path d="M299.06 258.73H305.06C305.169 258.73 305.274 258.768 305.358 258.838C305.442 258.907 305.499 259.003 305.52 259.11L306.52 263.97C306.548 264.076 306.555 264.186 306.539 264.294C306.523 264.403 306.486 264.507 306.429 264.6C306.372 264.694 306.297 264.775 306.207 264.838C306.118 264.902 306.017 264.947 305.91 264.97H305.74C303.59 264.91 301.68 264.78 299.01 264.76C295.85 264.76 296.65 265.12 292.93 265.14C290.69 265.14 290.3 262.6 291.25 262.49C295.6 261.98 296.06 260.67 297.75 259.13C298.12 258.836 298.589 258.693 299.06 258.73Z" fill="#263238"/>
<path d="M295.73 167.3C295.73 167.3 287.14 173.61 273.73 170.3C273.73 170.3 269.51 150.39 272.34 144.39C274.86 139.03 279.9 138.32 283.91 138.06C287.92 137.8 294.2 137.29 293.99 145.35C293.78 153.41 293.72 158.1 295.73 167.3Z" fill="#FFC100"/>
<path opacity="0.2" d="M271.901 158.85C271.574 156.195 271.397 153.525 271.371 150.85L276.371 149.05L271.901 158.85Z" fill="black"/>
<path d="M262.678 154.88L251.198 152.88L250.708 151.88C250.526 151.524 250.23 151.239 249.868 151.069C249.507 150.899 249.099 150.854 248.708 150.94L248.188 151.05L246.848 150.05C246.526 149.816 246.134 149.697 245.736 149.709C245.338 149.722 244.956 149.866 244.648 150.12C244.441 150.287 244.275 150.499 244.16 150.74C244.046 150.98 243.987 151.244 243.988 151.51V152.68C243.996 153.039 244.111 153.387 244.318 153.68L245.228 154.98C245.382 155.201 245.582 155.385 245.816 155.518C246.05 155.651 246.31 155.731 246.578 155.75L250.478 156L262.638 159.09L262.678 154.88Z" fill="#FFC3BD"/>
<path d="M278.54 141.43C278.54 141.43 275.2 139.22 271.75 142.55C268.3 145.88 262.44 153.87 262.44 153.87L260.36 153.63L260.09 159.56C262.058 160.231 264.21 160.109 266.09 159.22C269.09 157.71 278.75 146.37 278.75 146.37C278.75 146.37 280 143 278.54 141.43Z" fill="#FFC100"/>
<path d="M261.942 152.72V156L261.022 156.43L261.942 157.05V160.63L259.102 160V152.72H261.942Z" fill="#FFC100"/>
<path opacity="0.5" d="M261.942 152.72V156L261.022 156.43L261.942 157.05V160.63L259.102 160V152.72H261.942Z" fill="white"/>
<path opacity="0.3" d="M289.891 207.24C289.111 207.3 288.301 207.34 287.461 207.36C286.961 193.56 290.961 188.49 290.961 188.49C289.677 194.652 289.317 200.972 289.891 207.24Z" fill="black"/>
<path d="M280.641 118.34C280.641 118.34 287.351 116.01 288.561 122.83C289.771 129.65 295.851 131.39 292.481 135.94C289.111 140.49 279.401 137.08 279.231 133.25C279.061 129.42 279.111 123.01 277.691 122.17C277.691 122.17 278.541 124.81 277.691 124.81C276.841 124.81 276.261 123.81 276.371 122.47C276.371 122.47 276.371 124.15 274.371 123.55C272.371 122.95 275.521 120.74 275.521 120.74C274.795 121.027 274.12 121.429 273.521 121.93C272.971 122.53 272.821 121.63 273.521 120.5C274.001 119.61 276.421 117.56 280.641 118.34Z" fill="#263238"/>
<path d="M278.739 126.89C278.109 127.466 277.732 128.267 277.689 129.12C277.639 130.25 278.689 130.57 279.689 130.04C280.689 129.51 281.559 128.41 281.159 127.37C281.073 127.138 280.928 126.933 280.74 126.773C280.552 126.613 280.326 126.503 280.083 126.455C279.841 126.407 279.59 126.422 279.355 126.498C279.119 126.574 278.908 126.709 278.739 126.89Z" fill="#FFC3BD"/>
<path d="M117.648 152.82L123.158 152.06L123.578 150.71C123.664 150.446 123.848 150.225 124.091 150.093C124.335 149.961 124.621 149.927 124.888 150L125.518 150.17L127.898 148.92C128.077 148.829 128.279 148.791 128.478 148.81C128.754 148.83 129.012 148.956 129.198 149.16C129.384 149.365 129.484 149.633 129.478 149.91L129.418 152.08C129.423 152.126 129.423 152.173 129.418 152.22L129.168 153.86C129.132 154.085 129.025 154.293 128.863 154.455C128.702 154.616 128.494 154.723 128.268 154.76L124.818 155.3L118.488 156.65L117.648 152.82Z" fill="#FFB573"/>
<path d="M121.511 151.29C118.665 151.499 115.808 151.499 112.961 151.29C111.451 151.17 110.131 150.06 108.961 148.51L104.191 155.51C105.261 156.686 106.58 157.608 108.051 158.21C114.051 160.11 122.481 156.67 122.481 156.67C122.815 155.768 122.901 154.794 122.731 153.848C122.56 152.901 122.139 152.018 121.511 151.29Z" fill="#263238"/>
<path opacity="0.3" d="M121.511 151.29C118.665 151.499 115.808 151.499 112.961 151.29C111.451 151.17 110.131 150.06 108.961 148.51L104.191 155.51C105.261 156.686 106.58 157.608 108.051 158.21C114.051 160.11 122.481 156.67 122.481 156.67C122.815 155.768 122.901 154.794 122.731 153.848C122.56 152.901 122.139 152.018 121.511 151.29Z" fill="black"/>
<path d="M111.708 128L106.398 185.75L161.138 185.97L162.838 184.58L168.188 128.26L111.708 128Z" fill="#FFC100"/>
<path d="M104.949 183.27L161.369 183.48L166.289 129.52L109.869 129.31L104.949 183.27Z" fill="#FFC100"/>
<path opacity="0.8" d="M104.949 183.27L161.369 183.48L166.289 129.52L109.869 129.31L104.949 183.27Z" fill="white"/>
<path d="M106.211 169.5L162.621 169.71L163.361 161.61L106.941 161.4L106.211 169.5Z" fill="#FFC100"/>
<path opacity="0.5" d="M106.211 169.5L162.621 169.71L163.361 161.61L106.941 161.4L106.211 169.5Z" fill="white"/>
<path d="M149.84 147.1L108.26 147L107.52 155.1L149.1 155.25C149.65 155.244 150.179 155.037 150.587 154.669C150.996 154.301 151.256 153.796 151.32 153.25L151.69 149.25C151.733 148.983 151.718 148.71 151.645 148.45C151.572 148.189 151.443 147.948 151.266 147.743C151.09 147.538 150.871 147.374 150.624 147.263C150.378 147.152 150.11 147.096 149.84 147.1Z" fill="#FFC100"/>
<path opacity="0.5" d="M149.84 147.1L108.26 147L107.52 155.1L149.1 155.25C149.65 155.244 150.179 155.037 150.587 154.669C150.996 154.301 151.256 153.796 151.32 153.25L151.69 149.25C151.733 148.983 151.718 148.71 151.645 148.45C151.572 148.189 151.443 147.948 151.266 147.743C151.09 147.538 150.871 147.374 150.624 147.263C150.378 147.152 150.11 147.096 149.84 147.1Z" fill="white"/>
<path d="M108.84 140.6L165.26 140.81L166 132.71L109.58 132.5L108.84 140.6Z" fill="#FFC100"/>
<path opacity="0.5" d="M108.84 140.6L165.26 140.81L166 132.71L109.58 132.5L108.84 140.6Z" fill="white"/>
<path d="M105.159 181L104.719 185.75L161.139 185.96L161.569 181.21L105.159 181Z" fill="#FFC100"/>
<path opacity="0.3" d="M105.159 181L104.719 185.75L161.139 185.96L161.569 181.21L105.159 181Z" fill="white"/>
<path d="M101.391 135C101.391 135 104.391 134.69 104.391 129.13C104.391 129.13 107.181 127.86 108.981 129.5C110.781 131.14 107.361 134.98 109.601 136.59C109.571 136.54 107.601 137.86 101.391 135Z" fill="#FFB573"/>
<path d="M114.609 121.29C114.609 120.92 114.849 120.63 115.099 120.65C115.349 120.67 115.509 120.98 115.489 121.36C115.469 121.74 115.239 122.01 114.999 122C114.759 121.99 114.579 121.66 114.609 121.29Z" fill="#263238"/>
<path d="M114.859 122L116.859 124.6C116.554 124.828 116.2 124.983 115.825 125.05C115.45 125.118 115.065 125.097 114.699 124.99L114.859 122Z" fill="#ED893E"/>
<path d="M101.749 120.71C101.979 125.41 101.969 127.41 104.309 129.86C107.909 132.36 113.569 132.23 114.759 127.55C115.819 123.34 115.279 116.37 110.699 114.41C109.691 113.981 108.589 113.816 107.5 113.932C106.41 114.047 105.368 114.439 104.471 115.07C103.575 115.701 102.855 116.55 102.379 117.537C101.902 118.524 101.686 119.616 101.749 120.71Z" fill="#FFB573"/>
<path d="M113.909 120.19C113.94 120.205 113.974 120.213 114.009 120.213C114.043 120.213 114.077 120.205 114.109 120.19C114.31 120.003 114.553 119.867 114.817 119.792C115.081 119.718 115.359 119.707 115.629 119.76C115.684 119.775 115.744 119.768 115.794 119.74C115.845 119.712 115.882 119.665 115.899 119.61C115.912 119.554 115.903 119.496 115.876 119.446C115.848 119.396 115.803 119.358 115.749 119.34C115.411 119.266 115.061 119.274 114.727 119.362C114.393 119.451 114.085 119.618 113.829 119.85C113.809 119.869 113.793 119.893 113.782 119.919C113.771 119.944 113.766 119.972 113.766 120C113.766 120.028 113.771 120.055 113.782 120.081C113.793 120.107 113.809 120.13 113.829 120.15C113.852 120.169 113.879 120.183 113.909 120.19Z" fill="#263238"/>
<path opacity="0.2" d="M106.52 131C107.129 131.98 107.997 132.773 109.03 133.29C109.18 132.68 109.36 132.06 109.45 131.49C108.452 131.494 107.461 131.328 106.52 131Z" fill="black"/>
<path d="M99.3086 135.81C99.3086 135.81 99.8686 132.27 104.159 132.25C110.219 132.25 111.999 135.09 111.999 135.09L99.3086 135.81Z" fill="#263238"/>
<path opacity="0.3" d="M99.3086 135.81C99.3086 135.81 99.8686 132.27 104.159 132.25C110.219 132.25 111.999 135.09 111.999 135.09L99.3086 135.81Z" fill="black"/>
<path d="M97.9688 254.03L98.5087 262.99L103.529 262.81L103.819 254.21L97.9688 254.03Z" fill="#FFB573"/>
<path d="M104.37 262.24C104.346 262.235 104.323 262.222 104.305 262.205C104.288 262.187 104.276 262.164 104.27 262.14C104.268 262.115 104.272 262.089 104.282 262.067C104.293 262.044 104.31 262.024 104.33 262.01C104.41 261.96 106.24 260.91 107.11 261.15C107.191 261.168 107.267 261.203 107.333 261.251C107.4 261.299 107.457 261.36 107.5 261.43C107.556 261.509 107.586 261.603 107.586 261.7C107.586 261.797 107.556 261.891 107.5 261.97C107.055 262.291 106.507 262.437 105.96 262.38C105.427 262.377 104.895 262.33 104.37 262.24ZM104.77 262.07C105.77 262.19 107.07 262.17 107.31 261.83C107.31 261.83 107.38 261.71 107.31 261.56C107.286 261.513 107.25 261.473 107.207 261.443C107.163 261.414 107.113 261.395 107.06 261.39C106.984 261.379 106.907 261.379 106.83 261.39C106.107 261.487 105.409 261.718 104.77 262.07Z" fill="#FFC100"/>
<path d="M104.311 262.23C104.291 262.22 104.274 262.204 104.263 262.184C104.253 262.165 104.248 262.142 104.251 262.12C104.308 261.386 104.591 260.687 105.061 260.12C105.255 259.963 105.501 259.884 105.751 259.9C106.091 259.9 106.201 260.11 106.211 260.25C106.321 260.84 105.071 261.98 104.441 262.25H104.391C104.377 262.254 104.362 262.254 104.348 262.251C104.334 262.247 104.321 262.24 104.311 262.23ZM105.661 260.11C105.506 260.112 105.357 260.168 105.241 260.27C104.85 260.722 104.609 261.285 104.551 261.88C105.201 261.49 106.021 260.6 105.981 260.24C105.981 260.24 105.981 260.12 105.731 260.1L105.661 260.11Z" fill="#FFC100"/>
<path d="M103.839 261.51H98.1191C98.0139 261.508 97.9112 261.543 97.829 261.609C97.7467 261.674 97.6902 261.767 97.6691 261.87L96.6691 266.53C96.6456 266.628 96.6421 266.73 96.6587 266.829C96.6754 266.928 96.7118 267.023 96.766 267.108C96.8201 267.193 96.8908 267.266 96.9738 267.323C97.0568 267.38 97.1504 267.42 97.2491 267.44H97.4091C99.4691 267.39 101.299 267.27 103.869 267.26C106.869 267.26 106.129 267.62 109.689 267.65C111.839 267.65 112.219 265.23 111.309 265.11C107.139 264.61 106.699 263.35 105.089 261.87C104.731 261.599 104.286 261.471 103.839 261.51Z" fill="#263238"/>
<path opacity="0.2" d="M98.2487 258.66H103.669L103.819 254.21L97.9688 254.03L98.2487 258.66Z" fill="black"/>
<path d="M94.2683 175.87C94.2683 175.87 93.1983 183.39 95.8483 195.98C96.9683 201.3 98.7482 212.08 98.6982 217.51C98.6982 221.11 97.9083 222.74 96.6383 231.76C95.3683 240.78 97.2683 257.1 97.2683 257.1L104.548 257.18C104.548 257.18 109.088 227.03 109.938 216.56C110.368 211.24 110.568 195.19 110.568 195.19L107.998 175.87H94.2683Z" fill="#FFC100"/>
<path opacity="0.1" d="M103.23 188.63C103.23 188.63 104.86 200.12 110.23 209.53C110.44 203 110.53 195.19 110.53 195.19L110.47 194.69L106.75 189.51L103.23 188.63Z" fill="black"/>
<path d="M119.551 254.22L120.461 263.16L125.471 262.77L125.401 254.16L119.551 254.22Z" fill="#FFB573"/>
<path d="M126.29 262.16C126.266 262.157 126.244 262.146 126.226 262.13C126.208 262.114 126.196 262.093 126.19 262.07C126.181 262.044 126.182 262.017 126.191 261.991C126.2 261.966 126.217 261.944 126.24 261.93C126.32 261.88 128.09 260.76 128.98 260.93C129.144 260.97 129.287 261.07 129.38 261.21C129.435 261.289 129.465 261.383 129.465 261.48C129.465 261.577 129.435 261.671 129.38 261.75C128.948 262.088 128.407 262.255 127.86 262.22C127.336 262.243 126.811 262.223 126.29 262.16ZM126.68 261.98C127.68 262.05 128.98 261.98 129.21 261.63C129.21 261.63 129.27 261.51 129.21 261.36C129.185 261.314 129.149 261.276 129.105 261.248C129.062 261.22 129.012 261.204 128.96 261.2C128.881 261.185 128.799 261.185 128.72 261.2C127.995 261.334 127.303 261.606 126.68 262V261.98Z" fill="#FFC100"/>
<path d="M126.22 262.16C126.203 262.147 126.188 262.131 126.178 262.112C126.168 262.093 126.162 262.072 126.16 262.05C126.18 261.305 126.432 260.585 126.88 259.99C126.971 259.905 127.078 259.838 127.195 259.795C127.311 259.752 127.436 259.734 127.56 259.74C127.91 259.74 128.02 259.93 128.04 260.07C128.18 260.65 126.97 261.85 126.36 262.15H126.22V262.16ZM127.49 259.98C127.333 259.986 127.183 260.05 127.07 260.16C126.7 260.626 126.483 261.196 126.45 261.79C127.08 261.38 127.86 260.45 127.81 260.1C127.81 260.1 127.81 259.98 127.56 259.97L127.49 259.98Z" fill="#FFC100"/>
<path d="M125.722 261.45L120.011 261.72C119.907 261.723 119.807 261.763 119.728 261.833C119.65 261.902 119.598 261.997 119.582 262.1L118.761 266.8C118.727 267 118.772 267.206 118.888 267.373C119.004 267.539 119.182 267.653 119.382 267.69H119.541C121.601 267.56 123.422 267.36 125.992 267.24C128.992 267.1 128.262 267.5 131.822 267.39C133.972 267.31 134.242 264.86 133.332 264.78C129.152 264.45 128.661 263.22 126.981 261.78C126.614 261.524 126.167 261.407 125.722 261.45Z" fill="#263238"/>
<path opacity="0.2" d="M125.401 254.16L119.551 254.22L120.001 258.63L125.441 258.31L125.401 254.16Z" fill="black"/>
<path d="M101.999 175.87C101.574 183.5 103.222 191.102 106.769 197.87C112.609 208.48 113.189 211.6 113.609 216.55C114.009 221.29 114.039 222.89 114.669 232.7C115.299 242.51 118.869 257.17 118.869 257.17L126.389 256.69C126.389 256.69 126.389 225.64 125.119 214.69C123.999 204.87 117.999 175.87 117.999 175.87H101.999Z" fill="#FFC100"/>
<path d="M99.3098 134.58C99.3098 134.58 89.7898 135.81 88.6098 141.28C87.4298 146.75 90.1598 157.19 93.9598 158.5C97.7598 159.81 99.3098 134.58 99.3098 134.58Z" fill="#263238"/>
<path opacity="0.4" d="M95.49 139.69L93.82 138.69C93.82 138.69 91.47 141.69 90 153.18C91 155.85 92.39 157.97 94 158.51C95.61 159.05 96.69 155.23 97.54 150.51L95.49 139.69Z" fill="black"/>
<path d="M93.238 177.26C93.238 177.26 103.088 179.99 119.598 177.26C118.976 168.037 119.173 158.778 120.188 149.59C121.968 135.93 118.648 134.98 109.388 134.51C100.128 134.04 93.538 133.51 93.238 141.99C92.518 161.58 93.238 177.26 93.238 177.26Z" fill="#263238"/>
<path opacity="0.4" d="M115.898 142.38C115.898 142.38 116.608 150.1 119.628 155.15C119.768 153.3 119.948 151.43 120.188 149.59C120.59 147.021 120.72 144.417 120.578 141.82L117.338 137L115.898 142.38Z" fill="black"/>
<path d="M139.488 153.72L144.998 153L145.428 151.65C145.512 151.384 145.694 151.161 145.939 151.027C146.183 150.892 146.469 150.858 146.738 150.93L147.358 151.1L149.738 149.86C149.918 149.771 150.118 149.729 150.318 149.74C150.594 149.76 150.852 149.886 151.038 150.09C151.224 150.295 151.324 150.563 151.318 150.84V153.02C151.318 153.02 151.318 153.11 151.318 153.16L151.058 154.8C151.023 155.026 150.917 155.235 150.755 155.397C150.593 155.558 150.384 155.665 150.158 155.7L146.718 156.24L140.388 157.58L139.488 153.72Z" fill="#FFB573"/>
<path d="M115 135.09C115 135.09 121.89 135.09 125.09 139.73C127.77 143.61 130.55 151.85 134.83 152.2C137.676 152.409 140.534 152.409 143.38 152.2C144.01 152.921 144.435 153.797 144.611 154.738C144.787 155.679 144.707 156.65 144.38 157.55C144.38 157.55 135.95 160.99 129.95 159.09C123.95 157.19 114.34 139.5 114.34 139.5L115 135.09Z" fill="#263238"/>
<path d="M109.821 123.25C110.493 121.593 110.777 119.804 110.651 118.02C110.651 118.02 115.081 119.68 115.741 117.61C115.835 117.342 115.871 117.058 115.848 116.775C115.824 116.493 115.74 116.218 115.602 115.971C115.464 115.723 115.274 115.507 115.047 115.338C114.819 115.169 114.558 115.05 114.281 114.99C114.281 114.99 116.471 114.7 115.221 113.21C113.971 111.72 111.721 112.26 111.721 112.26C111.721 112.26 113.971 110.84 112.251 110.01C110.531 109.18 107.981 111.73 107.981 111.73C107.981 111.73 109.451 109.35 107.741 108.94C106.031 108.53 103.941 112.94 103.941 112.94C103.941 112.94 99.4205 113.39 99.3105 114.99C99.2859 115.196 99.3062 115.405 99.37 115.603C99.4338 115.801 99.5396 115.982 99.6802 116.135C99.8208 116.288 99.9929 116.409 100.185 116.489C100.376 116.569 100.583 116.607 100.791 116.6C100.791 116.6 97.7906 117.07 98.3006 118.6C98.334 118.789 98.4168 118.966 98.5405 119.113C98.6642 119.259 98.8245 119.371 99.0051 119.436C99.1857 119.501 99.3803 119.517 99.5691 119.482C99.758 119.448 99.9344 119.364 100.081 119.24C100.081 119.24 98.1905 120.89 98.8405 122.4C99.3105 123.49 100.141 122.94 100.141 122.94C100.141 122.94 99.6106 125.09 100.501 126.12C101.391 127.15 101.741 125.31 101.741 125.31C101.752 125.938 101.897 126.556 102.166 127.123C102.435 127.69 102.822 128.194 103.301 128.6C103.301 128.6 104.721 127.21 107.571 128.16L109.821 123.25Z" fill="#263238"/>
<path d="M110.118 122.3C110.471 122.62 110.756 123.006 110.959 123.437C111.161 123.868 111.277 124.334 111.298 124.81C111.298 126.09 110.138 126.44 109.088 125.81C108.038 125.18 106.968 123.98 107.418 122.81C107.522 122.558 107.687 122.335 107.899 122.163C108.111 121.991 108.362 121.874 108.63 121.823C108.898 121.773 109.175 121.79 109.434 121.873C109.694 121.956 109.929 122.103 110.118 122.3Z" fill="#FFB573"/>
<path d="M61.1709 56.49L60.4109 65.18H20.6109L21.3709 56.49H18.5209L0.460938 263H3.31094L4.07094 254.32H43.8709L43.1109 263H46.0009L64.0009 56.49H61.1709ZM57.7009 96.22H17.9009L20.3609 68H60.1709L57.7009 96.22ZM54.9809 127.22H15.1809L17.6509 99.03H57.4509L54.9809 127.22ZM52.2709 158.27H12.4609L14.9309 130.07H54.7309L52.2709 158.27ZM49.5509 189.27H9.75094L12.2109 161.08H52.0009L49.5509 189.27ZM46.8309 220.27H7.00094L9.50094 192.2H49.3009L46.8309 220.27ZM6.83094 223.12H46.5909L44.1209 251.32H4.32094L6.83094 223.12Z" fill="#263238"/>
<path opacity="0.3" d="M61.1709 56.49L60.4109 65.18H20.6109L21.3709 56.49H18.5209L0.460938 263H3.31094L4.07094 254.32H43.8709L43.1109 263H46.0009L64.0009 56.49H61.1709ZM57.7009 96.22H17.9009L20.3609 68H60.1709L57.7009 96.22ZM54.9809 127.22H15.1809L17.6509 99.03H57.4509L54.9809 127.22ZM52.2709 158.27H12.4609L14.9309 130.07H54.7309L52.2709 158.27ZM49.5509 189.27H9.75094L12.2109 161.08H52.0009L49.5509 189.27ZM46.8309 220.27H7.00094L9.50094 192.2H49.3009L46.8309 220.27ZM6.83094 223.12H46.5909L44.1209 251.32H4.32094L6.83094 223.12Z" fill="white"/>
<path d="M32.8007 55.2499L39.2507 58.9999L50.4407 54.0599L50.5707 51.3199C50.5861 50.9883 50.7288 50.6754 50.9691 50.4463C51.2094 50.2172 51.5287 50.0895 51.8607 50.0899H53.0007L54.1207 48.9999C54.2602 48.8666 54.4277 48.766 54.6109 48.7054C54.7942 48.6449 54.9886 48.6259 55.1801 48.6498C55.3716 48.6737 55.5554 48.74 55.718 48.8438C55.8807 48.9476 56.0183 49.0863 56.1207 49.2499L56.7807 50.2499C56.9477 50.4963 57.0221 50.7939 56.9907 51.0899L56.6407 54.4099C56.6167 54.652 56.5252 54.8825 56.3768 55.0752C56.2283 55.2679 56.0287 55.415 55.8007 55.4999L52.8007 56.5999C52.8007 56.5999 43.5107 63.2199 40.1107 63.9699C36.7107 64.7199 29.9707 61.1699 29.9707 61.1699L32.8007 55.2499Z" fill="#FF8B7B"/>
<path d="M117.213 0.709961L65.7027 0.999954C62.9327 0.999954 60.0327 2.86995 59.7827 5.63995L56.2227 57.1499L110.223 59.06L112.053 57.69L117.213 0.709961Z" fill="#FFC100"/>
<path d="M110.193 58.9899L114.523 10.2299L61.0627 10.1499L56.7227 58.9099L110.193 58.9899Z" fill="#FFC100"/>
<path opacity="0.8" d="M110.193 58.9899L114.523 10.2299L61.0627 10.1499L56.7227 58.9099L110.193 58.9899Z" fill="white"/>
<path d="M111.313 46.3499L75.0028 46.2899C74.4551 46.3005 73.9297 46.5088 73.5235 46.8764C73.1174 47.244 72.8578 47.746 72.7928 48.2899L72.4328 52.2899C72.4104 52.5455 72.4418 52.8029 72.5249 53.0457C72.6079 53.2884 72.7408 53.5111 72.915 53.6994C73.0892 53.8878 73.3009 54.0376 73.5365 54.1393C73.772 54.241 74.0262 54.2923 74.2828 54.2899H110.633L111.313 46.3499Z" fill="#FFC100"/>
<path d="M112.601 31.88H76.2508C75.702 31.8903 75.1754 32.0983 74.7675 32.4657C74.3597 32.8331 74.0982 33.3352 74.0308 33.88L73.6808 37.88C73.6553 38.1362 73.6845 38.395 73.7663 38.6391C73.8482 38.8833 73.981 39.1072 74.1558 39.2963C74.3307 39.4853 74.5436 39.6351 74.7807 39.7357C75.0177 39.8363 75.2734 39.8855 75.5308 39.88L111.881 39.94L112.601 31.88Z" fill="#FFC100"/>
<path opacity="0.5" d="M112.601 31.88H76.2508C75.702 31.8903 75.1754 32.0983 74.7675 32.4657C74.3597 32.8331 74.0982 33.3352 74.0308 33.88L73.6808 37.88C73.6553 38.1362 73.6845 38.395 73.7663 38.6391C73.8482 38.8833 73.981 39.1072 74.1558 39.2963C74.3307 39.4853 74.5436 39.6351 74.7807 39.7357C75.0177 39.8363 75.2734 39.8855 75.5308 39.88L111.881 39.94L112.601 31.88Z" fill="white"/>
<path d="M62.0008 19.8699C62.0915 18.9687 62.5106 18.1323 63.1781 17.5201C63.8457 16.9079 64.7151 16.5626 65.6208 16.5499L113.931 16.6199L115.191 2.49992L63.8208 2.41992C62.4581 2.44618 61.1518 2.96847 60.1467 3.88893C59.1415 4.80939 58.5066 6.06482 58.3608 7.41992L53.8008 58.8999H58.5508L62.0008 19.8699Z" fill="#FFC100"/>
<path opacity="0.3" d="M62.0008 19.8699C62.0915 18.9687 62.5106 18.1323 63.1781 17.5201C63.8457 16.9079 64.7151 16.5626 65.6208 16.5499L113.931 16.6199L115.191 2.49992L63.8208 2.41992C62.4581 2.44618 61.1518 2.96847 60.1467 3.88893C59.1415 4.80939 58.5066 6.06482 58.3608 7.41992L53.8008 58.8999H58.5508L62.0008 19.8699Z" fill="white"/>
<path d="M94.8617 9.24994C94.7692 10.1327 94.3573 10.9513 93.7035 11.5517C93.0497 12.152 92.1991 12.4928 91.3117 12.5099C90.8912 12.5212 90.4731 12.4421 90.0858 12.278C89.6985 12.1138 89.3509 11.8685 89.0666 11.5585C88.7822 11.2485 88.5676 10.8812 88.4374 10.4812C88.3072 10.0812 88.2643 9.65792 88.3117 9.23995C88.4 8.3555 88.8106 7.53444 89.4653 6.93324C90.1199 6.33205 90.9729 5.99273 91.8617 5.97994C92.2822 5.96868 92.7002 6.04778 93.0875 6.21191C93.4748 6.37605 93.8224 6.62138 94.1068 6.93135C94.3911 7.24132 94.6057 7.60871 94.7359 8.0087C94.8662 8.40869 94.909 8.83196 94.8617 9.24994Z" fill="#FFC100"/>
<path opacity="0.5" d="M94.8617 9.24994C94.7692 10.1327 94.3573 10.9513 93.7035 11.5517C93.0497 12.152 92.1991 12.4928 91.3117 12.5099C90.8912 12.5212 90.4731 12.4421 90.0858 12.278C89.6985 12.1138 89.3509 11.8685 89.0666 11.5585C88.7822 11.2485 88.5676 10.8812 88.4374 10.4812C88.3072 10.0812 88.2643 9.65792 88.3117 9.23995C88.4 8.3555 88.8106 7.53444 89.4653 6.93324C90.1199 6.33205 90.9729 5.99273 91.8617 5.97994C92.2822 5.96868 92.7002 6.04778 93.0875 6.21191C93.4748 6.37605 93.8224 6.62138 94.1068 6.93135C94.3911 7.24132 94.6057 7.60871 94.7359 8.0087C94.8662 8.40869 94.909 8.83196 94.8617 9.24994Z" fill="white"/>
<path d="M82.7523 9.2299C82.6598 10.1127 82.2479 10.9313 81.5941 11.5316C80.9404 12.132 80.0897 12.4728 79.2023 12.4899C78.7818 12.5012 78.3638 12.4221 77.9765 12.2579C77.5891 12.0938 77.2416 11.8485 76.9572 11.5385C76.6728 11.2285 76.4583 10.8611 76.328 10.4612C76.1978 10.0612 76.1549 9.63789 76.2023 9.21991C76.2948 8.33712 76.7067 7.51855 77.3604 6.91818C78.0142 6.31781 78.8648 5.97703 79.7523 5.95992C80.1728 5.94866 80.5908 6.02776 80.9781 6.1919C81.3654 6.35603 81.713 6.60136 81.9974 6.91133C82.2818 7.2213 82.4963 7.58868 82.6266 7.98866C82.7568 8.38865 82.7997 8.81193 82.7523 9.2299Z" fill="#FFC100"/>
<path d="M70.6312 9.21002C70.5429 10.0945 70.1323 10.9155 69.4776 11.5167C68.8229 12.1179 67.9699 12.4572 67.0812 12.47C66.6607 12.4813 66.2427 12.4022 65.8554 12.238C65.468 12.0739 65.1205 11.8286 64.8361 11.5186C64.5517 11.2086 64.3372 10.8412 64.2069 10.4413C64.0767 10.0413 64.0338 9.61799 64.0812 9.20001C64.1737 8.31723 64.5856 7.49867 65.2393 6.8983C65.8931 6.29793 66.7437 5.95713 67.6312 5.94002C68.0517 5.92876 68.4697 6.00787 68.857 6.172C69.2443 6.33613 69.5919 6.58147 69.8763 6.89143C70.1607 7.2014 70.3752 7.56878 70.5055 7.96877C70.6357 8.36875 70.6786 8.79204 70.6312 9.21002Z" fill="#FFC100"/>
<path opacity="0.2" d="M70.6312 9.21002C70.5429 10.0945 70.1323 10.9155 69.4776 11.5167C68.8229 12.1179 67.9699 12.4572 67.0812 12.47C66.6607 12.4813 66.2427 12.4022 65.8554 12.238C65.468 12.0739 65.1205 11.8286 64.8361 11.5186C64.5517 11.2086 64.3372 10.8412 64.2069 10.4413C64.0767 10.0413 64.0338 9.61799 64.0812 9.20001C64.1737 8.31723 64.5856 7.49867 65.2393 6.8983C65.8931 6.29793 66.7437 5.95713 67.6312 5.94002C68.0517 5.92876 68.4697 6.00787 68.857 6.172C69.2443 6.33613 69.5919 6.58147 69.8763 6.89143C70.1607 7.2014 70.3752 7.56878 70.5055 7.96877C70.6357 8.36875 70.6786 8.79204 70.6312 9.21002Z" fill="black"/>
<path d="M69.0519 10.24L68.0519 9.24001L69.0519 8.24001C69.123 8.14962 69.1585 8.03629 69.1517 7.92148C69.1449 7.80668 69.0962 7.69836 69.0149 7.61704C68.9336 7.53572 68.8252 7.48702 68.7104 7.4802C68.5956 7.47337 68.4823 7.50889 68.3919 7.58001L67.3919 8.58001L66.3919 7.58001C66.3015 7.50889 66.1882 7.47337 66.0734 7.4802C65.9586 7.48702 65.8503 7.53572 65.7689 7.61704C65.6876 7.69836 65.6389 7.80668 65.6321 7.92148C65.6253 8.03629 65.6608 8.14962 65.7319 8.24001L66.7319 9.24001C66.3819 9.58001 66.0319 9.92001 65.7319 10.24C65.6886 10.2827 65.6541 10.3335 65.6304 10.3895C65.6067 10.4455 65.5942 10.5056 65.5938 10.5665C65.5933 10.6273 65.6048 10.6876 65.6277 10.744C65.6505 10.8003 65.6842 10.8517 65.7269 10.895C65.7696 10.9383 65.8204 10.9729 65.8764 10.9966C65.9324 11.0203 65.9926 11.0327 66.0534 11.0332C66.1142 11.0336 66.1745 11.0221 66.2309 10.9993C66.2873 10.9764 66.3386 10.9427 66.3819 10.9L67.3819 9.9L68.3819 10.9C68.4694 10.9888 68.5887 11.0393 68.7134 11.0402C68.7751 11.0407 68.8364 11.029 68.8936 11.0058C68.9508 10.9826 69.0029 10.9483 69.0469 10.905C69.0909 10.8617 69.1259 10.8101 69.15 10.7532C69.1741 10.6964 69.1867 10.6353 69.1871 10.5735C69.1876 10.5118 69.1759 10.4506 69.1527 10.3933C69.1295 10.3361 69.0953 10.284 69.0519 10.24Z" fill="white"/>
<path d="M81.4218 8.77002H77.5618C77.4502 8.78643 77.3482 8.84243 77.2745 8.9278C77.2007 9.01317 77.1602 9.12221 77.1602 9.23502C77.1602 9.34782 77.2007 9.45687 77.2745 9.54224C77.3482 9.62761 77.4502 9.6836 77.5618 9.70001H81.4218C81.5334 9.6836 81.6354 9.62761 81.7091 9.54224C81.7828 9.45687 81.8234 9.34782 81.8234 9.23502C81.8234 9.12221 81.7828 9.01317 81.7091 8.9278C81.6354 8.84243 81.5334 8.78643 81.4218 8.77002Z" fill="white"/>
<path d="M89.9609 10.8799H91.9409L89.9709 8.88989L89.9609 10.8799Z" fill="white"/>
<path d="M91.2812 7.58997L93.2612 9.57997L93.2713 7.58997H91.2812Z" fill="white"/>
<path d="M13.8401 174.3L13.0801 183.25L18.0801 183.79L19.6001 175.32L13.8401 174.3Z" fill="#FF8B7B"/>
<path d="M19.0001 183.79C18.9772 183.782 18.9573 183.767 18.943 183.747C18.9287 183.728 18.9208 183.704 18.9201 183.68C18.9186 183.654 18.9256 183.628 18.9401 183.607C18.9545 183.585 18.9756 183.569 19.0001 183.56C19.0801 183.56 21.0001 182.74 21.8701 183.1C22.0248 183.166 22.1495 183.287 22.2201 183.44C22.2632 183.527 22.2795 183.624 22.267 183.721C22.2546 183.817 22.2139 183.907 22.1501 183.98C21.664 184.234 21.1009 184.298 20.5701 184.16C20.0372 184.082 19.5119 183.958 19.0001 183.79ZM19.4201 183.68C20.3701 183.94 21.6801 184.11 21.9701 183.81C21.9701 183.81 22.0501 183.7 21.9701 183.54C21.9547 183.491 21.9275 183.446 21.891 183.409C21.8544 183.372 21.8095 183.345 21.7601 183.33C21.6861 183.301 21.6089 183.281 21.5301 183.27C20.7904 183.265 20.0568 183.405 19.3701 183.68H19.4201Z" fill="#FFC100"/>
<path d="M18.8917 183.77C18.882 183.753 18.877 183.734 18.877 183.715C18.877 183.696 18.882 183.677 18.8917 183.66C19.0463 182.928 19.4277 182.263 19.9817 181.76C20.0868 181.695 20.2037 181.652 20.3256 181.634C20.4475 181.615 20.572 181.62 20.6917 181.65C21.0317 181.73 21.1117 181.91 21.1017 182.06C21.1017 182.66 19.7217 183.61 19.1017 183.79H19.0017C18.9844 183.802 18.9632 183.806 18.9426 183.802C18.9221 183.799 18.9038 183.787 18.8917 183.77ZM20.5417 181.87C20.3858 181.848 20.227 181.879 20.0917 181.96C19.6423 182.355 19.3247 182.879 19.1817 183.46C19.8717 183.17 20.8217 182.4 20.8317 182.05C20.8317 182.05 20.8317 181.92 20.6117 181.87H20.5417Z" fill="#FFC100"/>
<path d="M18.5309 183L12.8609 182.21C12.7583 182.194 12.6535 182.215 12.5642 182.268C12.4749 182.32 12.4066 182.403 12.3709 182.5L10.7009 187C10.6624 187.094 10.6432 187.195 10.6446 187.297C10.646 187.399 10.6678 187.5 10.7089 187.593C10.7499 187.686 10.8093 187.771 10.8836 187.84C10.9578 187.91 11.0453 187.965 11.1409 188C11.1905 188.009 11.2413 188.009 11.2909 188C13.3409 188.25 15.1709 188.4 17.7109 188.76C20.7109 189.18 19.9009 189.43 23.4209 189.98C25.5409 190.3 26.2709 187.98 25.4209 187.7C21.4209 186.6 21.1109 185.29 19.7309 183.59C19.4184 183.251 18.9905 183.04 18.5309 183Z" fill="#263238"/>
<path opacity="0.2" d="M19.6014 175.32L13.8414 174.3L13.4414 178.97L18.8014 179.76L19.6014 175.32Z" fill="#263238"/>
<path d="M42.24 32.77C42.24 32.77 46.29 30.87 45.9 32.47C45.51 34.07 42.55 34.79 41.71 34.2C40.87 33.61 42.24 32.77 42.24 32.77Z" fill="#263238"/>
<path d="M31.8008 51.65C31.8008 51.65 34.8008 51.34 34.8008 45.78C34.8008 45.78 37.5908 44.51 39.4008 46.15C41.2108 47.79 37.7708 51.63 40.0108 53.24C40.0008 53.24 38.0008 54.56 31.8008 51.65Z" fill="#FF8B7B"/>
<path d="M45 38C45 37.63 45.24 37.34 45.49 37.36C45.74 37.38 45.9 37.69 45.88 38.07C45.86 38.45 45.63 38.72 45.39 38.71C45.15 38.7 45 38.36 45 38Z" fill="#263238"/>
<path d="M45.2694 38.6599L47.2694 41.2599C46.9645 41.4884 46.6105 41.6426 46.2355 41.7103C45.8605 41.778 45.4749 41.7573 45.1094 41.6499L45.2694 38.6599Z" fill="#FF5652"/>
<path d="M32.1618 37.41C32.3918 42.11 32.3818 44.11 34.7318 46.56C38.3218 49.06 43.9818 48.93 45.1718 44.25C46.2318 40.04 45.6918 33.07 41.1118 31.11C40.101 30.6696 38.9942 30.4961 37.8971 30.6061C36.8001 30.7161 35.7497 31.1059 34.8465 31.7381C33.9433 32.3704 33.2175 33.2239 32.7387 34.217C32.2599 35.2101 32.044 36.3095 32.1118 37.41H32.1618Z" fill="#FF8B7B"/>
<path d="M44.3208 36.89C44.3519 36.905 44.3861 36.9128 44.4208 36.9128C44.4554 36.9128 44.4896 36.905 44.5208 36.89C44.7222 36.7035 44.965 36.5673 45.2292 36.4925C45.4933 36.4178 45.7714 36.4066 46.0408 36.46C46.0964 36.4754 46.156 36.4684 46.2065 36.4403C46.257 36.4123 46.2945 36.3654 46.3108 36.31C46.3237 36.2544 46.3155 36.1959 46.2878 36.146C46.2601 36.0961 46.2148 36.0583 46.1608 36.04C45.8232 35.966 45.4729 35.9737 45.139 36.0624C44.805 36.1511 44.4971 36.3182 44.2408 36.55C44.2208 36.5695 44.205 36.5929 44.1941 36.6186C44.1833 36.6444 44.1777 36.672 44.1777 36.7C44.1777 36.7279 44.1833 36.7556 44.1941 36.7813C44.205 36.8071 44.2208 36.8304 44.2408 36.85C44.2639 36.8695 44.2913 36.8832 44.3208 36.89Z" fill="#263238"/>
<path opacity="0.2" d="M36.9316 47.6799C37.5365 48.6715 38.4057 49.4748 39.4416 49.9999C39.6016 49.3899 39.7716 48.7699 39.8616 48.1999C38.8625 48.1944 37.8717 48.0185 36.9316 47.6799Z" fill="black"/>
<path d="M34.7005 47.2699C34.7005 47.2699 35.0305 46.8699 36.3505 47.4499C36.3505 47.4499 39.4305 43.9899 39.9805 41.4999C40.4882 41.1751 40.9104 40.7331 41.2115 40.211C41.5126 39.6889 41.6837 39.102 41.7105 38.4999C41.8305 36.4299 41.8905 35.0699 42.7105 34.5899C43.5305 34.1099 45.8105 32.0399 44.1405 29.8999C42.4705 27.7599 42.5905 30.2599 42.5905 30.2599C42.5905 30.2599 37.6805 24.6199 38.3805 28.3599C38.3805 28.3599 32.8105 27.0799 35.6405 30.1399C35.6405 30.1399 29.3505 31.7399 31.4305 37.6799C30.8385 39.415 30.8383 41.2974 31.4299 43.0326C32.0216 44.7679 33.1718 46.258 34.7005 47.2699Z" fill="#263238"/>
<path d="M40.5302 38.9999C40.8826 39.3198 41.1683 39.7063 41.3709 40.1371C41.5734 40.5679 41.6887 41.0344 41.7102 41.5099C41.7602 42.7899 40.5502 43.1399 39.5002 42.5099C38.4502 41.8799 37.3802 40.6799 37.8302 39.5099C37.9361 39.2595 38.1024 39.0391 38.314 38.8684C38.5257 38.6977 38.7763 38.582 39.0435 38.5315C39.3107 38.481 39.5863 38.4974 39.8457 38.5791C40.105 38.6608 40.3402 38.8054 40.5302 38.9999Z" fill="#FF8B7B"/>
<path d="M36.8412 50.1999C38.2 50.3181 39.5415 50.5864 40.8412 50.9999C40.4055 50.2616 39.8052 49.6339 39.0871 49.1656C38.3691 48.6973 37.5526 48.401 36.7012 48.2999C35.8471 48.103 34.952 48.192 34.1534 48.5533C33.3549 48.9147 32.6971 49.5283 32.2812 50.2999C33.7927 50.0961 35.3223 50.0625 36.8412 50.1999Z" fill="#FFC100"/>
<path opacity="0.5" d="M36.8412 50.1999C38.2 50.3181 39.5415 50.5864 40.8412 50.9999C40.4055 50.2616 39.8052 49.6339 39.0871 49.1656C38.3691 48.6973 37.5526 48.401 36.7012 48.2999C35.8471 48.103 34.952 48.192 34.1534 48.5533C33.3549 48.9147 32.6971 49.5283 32.2812 50.2999C33.7927 50.0961 35.3223 50.0625 36.8412 50.1999Z" fill="white"/>
<path d="M21.0513 85.71C21.0513 85.71 18.4813 91.61 19.5813 107.6C19.5813 107.6 21.6613 126.49 20.3813 132.6C18.0713 143.6 14.2013 145.6 12.8613 177.01L19.7413 178.01C19.7413 178.01 28.8313 146.23 30.9113 135.5C32.1913 128.84 33.9113 108.66 33.9113 108.66L34.5513 87.28L21.0513 85.71Z" fill="#263238"/>
<path d="M31.1504 175.97L31.1604 184.95L36.1904 185.06L36.9704 176.49L31.1504 175.97Z" fill="#FF8B7B"/>
<path d="M37.0602 184.54C37.0363 184.536 37.0144 184.523 36.9982 184.505C36.9819 184.487 36.972 184.464 36.9702 184.44C36.9664 184.415 36.97 184.389 36.9807 184.366C36.9914 184.343 37.0086 184.323 37.0302 184.31C37.1202 184.31 39.0302 183.31 39.8602 183.61C39.9392 183.635 40.0126 183.675 40.0761 183.728C40.1396 183.781 40.192 183.846 40.2302 183.92C40.2857 183.999 40.3155 184.093 40.3155 184.19C40.3155 184.286 40.2857 184.381 40.2302 184.46C39.7666 184.753 39.2118 184.867 38.6702 184.78C38.1272 184.751 37.5881 184.671 37.0602 184.54ZM37.4702 184.4C38.4702 184.57 39.7602 184.63 40.0202 184.31C40.0202 184.31 40.0902 184.19 40.0202 184.03C39.9971 183.985 39.9646 183.946 39.9249 183.915C39.8852 183.884 39.8393 183.862 39.7902 183.85C39.7126 183.823 39.632 183.807 39.5502 183.8C38.8254 183.868 38.1198 184.071 37.4702 184.4Z" fill="#FFC100"/>
<path d="M37.0009 184.53C36.9901 184.514 36.9844 184.494 36.9844 184.475C36.9844 184.455 36.9901 184.436 37.0009 184.42C37.0844 183.672 37.4071 182.97 37.9209 182.42C38.0193 182.344 38.1321 182.289 38.2524 182.258C38.3728 182.227 38.4981 182.221 38.6209 182.24C38.9609 182.29 39.0609 182.47 39.0609 182.62C39.1409 183.21 37.8209 184.28 37.1809 184.52C37.1822 184.544 37.174 184.567 37.158 184.585C37.1421 184.603 37.1197 184.614 37.0959 184.615C37.072 184.616 37.0486 184.608 37.0308 184.592C37.0129 184.576 37.0022 184.554 37.0009 184.53ZM38.4709 182.53C38.315 182.521 38.1615 182.571 38.0409 182.67C37.6231 183.095 37.3501 183.641 37.2609 184.23C37.9309 183.88 38.8009 183.04 38.7809 182.68C38.7809 182.68 38.7809 182.56 38.5409 182.53H38.4709Z" fill="#FFC100"/>
<path d="M36.5715 183.78L30.8615 183.48C30.7577 183.475 30.6553 183.505 30.5703 183.565C30.4852 183.625 30.4224 183.711 30.3915 183.81L29.1115 188.41C29.056 188.604 29.0795 188.811 29.177 188.988C29.2745 189.164 29.438 189.294 29.6315 189.35C29.6844 189.36 29.7386 189.36 29.7915 189.35C31.8515 189.42 33.6915 189.41 36.2515 189.55C39.2515 189.71 38.4915 190.03 42.0415 190.27C44.1815 190.42 44.7115 188 43.8015 187.83C39.6715 187.09 39.3115 185.83 37.8015 184.23C37.4574 183.94 37.0218 183.78 36.5715 183.78Z" fill="#263238"/>
<path opacity="0.2" d="M31.1604 181.13L36.5404 181.22L36.9704 176.49L31.1504 175.97L31.1604 181.13Z" fill="#263238"/>
<path opacity="0.4" d="M33.6506 111.64L32.2506 109L28.5306 105.52C28.5306 105.52 27.3506 120.6 31.3706 132.58C32.2506 126.57 33.2006 116.6 33.6506 111.64Z" fill="black"/>
<path d="M29.4815 87.25C29.4815 87.25 28.2915 92.95 28.4815 105.54C28.6715 118.13 33.2915 127.71 33.2315 135.23C33.1215 146.18 28.4515 152.09 30.3815 178.93H37.7415C37.7415 178.93 43.5715 145.68 44.3915 134.52C45.2415 122.97 44.3315 88.2 44.3315 88.2L29.4815 87.25Z" fill="#263238"/>
<path d="M30.0013 50.7899C30.0013 50.7899 24.6613 51.2099 23.4713 54.8899C23.1196 55.937 23.0143 57.0511 23.1634 58.1455C23.3126 59.2399 23.7122 60.2852 24.3313 61.1999L27.2113 62.0199L30.0013 50.7899Z" fill="#FFC100"/>
<path opacity="0.1" d="M30.0013 50.7899C30.0013 50.7899 24.6613 51.2099 23.4713 54.8899C23.1196 55.937 23.0143 57.0511 23.1634 58.1455C23.3126 59.2399 23.7122 60.2852 24.3313 61.1999L27.2113 62.0199L30.0013 50.7899Z" fill="black"/>
<path d="M36.8402 50.2C40.2702 50.51 47.2902 52.1 48.0102 59.2C48.7302 66.3 45.3902 91.5 45.3902 91.5C45.3902 91.5 32.0902 91.97 19.7402 88.41C22.433 78.563 24.026 68.4479 24.4902 58.25C24.7102 52.82 28.7702 49.48 36.8402 50.2Z" fill="#FFC100"/>
<path opacity="0.1" d="M41.4414 58C41.4414 58 43.8214 65.07 47.7314 69.58C48.0014 66.03 48.1614 62.78 48.0914 60.53L41.4414 58Z" fill="black"/>
<path d="M52.0023 59.1599L57.7023 63.9799L69.5823 61.0499L70.1823 58.3699C70.2524 58.0445 70.4455 57.7587 70.7213 57.5723C70.9971 57.386 71.3343 57.3134 71.6623 57.3699L72.7523 57.5599L74.0723 56.7099C74.2309 56.6091 74.4095 56.5439 74.5957 56.5188C74.7819 56.4936 74.9714 56.5092 75.151 56.5643C75.3307 56.6194 75.4962 56.7128 75.6363 56.8381C75.7763 56.9634 75.8876 57.1175 75.9623 57.2899L76.4423 58.3999C76.5619 58.6743 76.5831 58.9817 76.5023 59.2699L75.5823 62.4799C75.5157 62.71 75.3873 62.9175 75.211 63.0797C75.0346 63.2419 74.8172 63.3527 74.5823 63.3999L71.4223 63.9699C71.4223 63.9699 61.1323 68.8799 57.6423 69.0299C54.1523 69.1799 48.1523 64.5199 48.1523 64.5199L52.0023 59.1599Z" fill="#FF8B7B"/>
<path d="M42.2806 51.5599C42.2806 51.5599 48.0006 52.9999 54.6006 59.2899C54.0157 60.9249 53.1115 62.4273 51.9407 63.7097C50.7699 64.9921 49.3558 66.029 47.7806 66.7599C47.7806 66.7599 36.1306 54.7599 42.2806 51.5599Z" fill="#FFC100"/>
<path d="M12.5809 175.09L12.3809 177.62L19.8609 178.69L20.5809 176.44L12.5809 175.09Z" fill="#263238"/>
<path opacity="0.3" d="M12.5809 175.09L12.3809 177.62L19.8609 178.69L20.5809 176.44L12.5809 175.09Z" fill="white"/>
<path d="M30.0605 177.23L30.3006 179.76L37.9106 179.75L38.3505 177.28L30.0605 177.23Z" fill="#263238"/>
<path opacity="0.3" d="M30.0605 177.23L30.3006 179.76L37.9106 179.75L38.3505 177.28L30.0605 177.23Z" fill="white"/>
</g>
<defs>
<clipPath id="clip0_588_802">
<rect width="418" height="275" fill="white"/>
</clipPath>
</defs>
</svg>
