<svg width="388" height="301" viewBox="0 0 388 301" fill="none" xmlns="http://www.w3.org/2000/svg">
<g clip-path="url(#clip0_588_636)">
<path d="M193.999 300.56C301.082 300.56 387.889 295.492 387.889 289.24C387.889 282.988 301.082 277.92 193.999 277.92C86.9169 277.92 0.109375 282.988 0.109375 289.24C0.109375 295.492 86.9169 300.56 193.999 300.56Z" fill="#F5F5F5"/>
<path d="M366.508 0.680054H167.488V189.12H366.508V0.680054Z" fill="#FFC100"/>
<path opacity="0.7" d="M366.508 0.680054H167.488V189.12H366.508V0.680054Z" fill="white"/>
<path d="M366.508 0.680054H167.488V10.2701H366.508V0.680054Z" fill="#FFC100"/>
<path opacity="0.2" d="M366.51 10.28H359.93V189.3H366.51V10.28Z" fill="black"/>
<path opacity="0.6" d="M363.589 14.52H362.989C362.061 14.52 361.309 15.2722 361.309 16.2V37.78C361.309 38.7079 362.061 39.46 362.989 39.46H363.589C364.516 39.46 365.269 38.7079 365.269 37.78V16.2C365.269 15.2722 364.516 14.52 363.589 14.52Z" fill="white"/>
<path opacity="0.2" d="M355.578 134H171.578C171.446 133.997 171.321 133.944 171.227 133.851C171.134 133.757 171.081 133.632 171.078 133.5C171.078 133.367 171.131 133.24 171.225 133.146C171.318 133.053 171.446 133 171.578 133H355.578C355.711 133 355.838 133.053 355.932 133.146C356.025 133.24 356.078 133.367 356.078 133.5C356.078 133.633 356.025 133.76 355.932 133.854C355.838 133.947 355.711 134 355.578 134Z" fill="black"/>
<path opacity="0.2" d="M355.578 91H171.578C171.446 90.9974 171.321 90.9439 171.227 90.8507C171.134 90.7575 171.081 90.6318 171.078 90.5C171.078 90.3674 171.131 90.2402 171.225 90.1465C171.318 90.0527 171.446 90 171.578 90H355.578C355.711 90 355.838 90.0527 355.932 90.1465C356.025 90.2402 356.078 90.3674 356.078 90.5C356.078 90.6326 356.025 90.7598 355.932 90.8535C355.838 90.9473 355.711 91 355.578 91Z" fill="black"/>
<path d="M355.589 14.51H171.629V42.64H355.589V14.51Z" fill="#FFC100"/>
<path opacity="0.6" d="M364.218 5.48006C364.218 5.95671 364.077 6.42266 363.812 6.81898C363.547 7.21531 363.171 7.5242 362.731 7.7066C362.29 7.88901 361.806 7.93674 361.338 7.84375C360.871 7.75076 360.441 7.52123 360.104 7.18419C359.767 6.84714 359.538 6.41772 359.445 5.95023C359.352 5.48273 359.399 4.99817 359.582 4.5578C359.764 4.11743 360.073 3.74104 360.469 3.47623C360.866 3.21141 361.332 3.07007 361.808 3.07007C362.448 3.07007 363.061 3.32398 363.513 3.77594C363.965 4.2279 364.218 4.84089 364.218 5.48006Z" fill="white"/>
<path opacity="0.6" d="M355.718 5.48006C355.718 5.95671 355.577 6.42266 355.312 6.81898C355.047 7.21531 354.671 7.5242 354.231 7.7066C353.79 7.88901 353.306 7.93674 352.838 7.84375C352.371 7.75076 351.941 7.52123 351.604 7.18419C351.267 6.84714 351.038 6.41772 350.945 5.95023C350.852 5.48273 350.899 4.99817 351.082 4.5578C351.264 4.11743 351.573 3.74104 351.969 3.47623C352.366 3.21141 352.832 3.07007 353.308 3.07007C353.948 3.07007 354.561 3.32398 355.013 3.77594C355.465 4.2279 355.718 4.84089 355.718 5.48006Z" fill="white"/>
<path opacity="0.6" d="M347.218 5.48006C347.218 5.95671 347.077 6.42266 346.812 6.81898C346.547 7.21531 346.171 7.5242 345.731 7.7066C345.29 7.88901 344.806 7.93674 344.338 7.84375C343.871 7.75076 343.441 7.52123 343.104 7.18419C342.767 6.84714 342.538 6.41772 342.445 5.95023C342.352 5.48273 342.399 4.99817 342.582 4.5578C342.764 4.11743 343.073 3.74104 343.469 3.47623C343.866 3.21141 344.332 3.07007 344.808 3.07007C345.448 3.07007 346.061 3.32398 346.513 3.77594C346.965 4.2279 347.218 4.84089 347.218 5.48006Z" fill="white"/>
<path opacity="0.4" d="M179.507 61.4801C178.342 61.4801 177.203 61.1346 176.235 60.4874C175.266 59.8402 174.511 58.9203 174.066 57.8441C173.62 56.7678 173.503 55.5835 173.73 54.441C173.958 53.2984 174.519 52.249 175.342 51.4252C176.166 50.6015 177.216 50.0405 178.358 49.8133C179.501 49.586 180.685 49.7026 181.761 50.1484C182.837 50.5942 183.757 51.3492 184.405 52.3178C185.052 53.2864 185.397 54.4251 185.397 55.5901C185.395 57.1514 184.773 58.648 183.669 59.752C182.565 60.856 181.069 61.4774 179.507 61.4801Z" fill="black"/>
<path d="M180.23 53.3501V57.8201H179.23V54.1801H178.34V53.3501H180.23Z" fill="white"/>
<path opacity="0.4" d="M347.627 49.88H190.937C190.307 49.88 189.797 50.3904 189.797 51.02V51.73C189.797 52.3596 190.307 52.87 190.937 52.87H347.627C348.256 52.87 348.767 52.3596 348.767 51.73V51.02C348.767 50.3904 348.256 49.88 347.627 49.88Z" fill="black"/>
<path opacity="0.4" d="M347.627 57.65H190.937C190.307 57.65 189.797 58.1604 189.797 58.79V59.5C189.797 60.1296 190.307 60.64 190.937 60.64H347.627C348.256 60.64 348.767 60.1296 348.767 59.5V58.79C348.767 58.1604 348.256 57.65 347.627 57.65Z" fill="black"/>
<path opacity="0.4" d="M293.427 65.41H190.937C190.307 65.41 189.797 65.9204 189.797 66.55V67.26C189.797 67.8896 190.307 68.4 190.937 68.4H293.427C294.056 68.4 294.567 67.8896 294.567 67.26V66.55C294.567 65.9204 294.056 65.41 293.427 65.41Z" fill="black"/>
<path opacity="0.2" d="M192.539 83.0401C194.046 83.0401 195.269 81.8178 195.269 80.3101C195.269 78.8023 194.046 77.5801 192.539 77.5801C191.031 77.5801 189.809 78.8023 189.809 80.3101C189.809 81.8178 191.031 83.0401 192.539 83.0401Z" fill="black"/>
<path d="M194.417 80.3101C194.419 80.6847 194.309 81.0515 194.102 81.3639C193.895 81.6762 193.6 81.92 193.255 82.0643C192.909 82.2086 192.528 82.2468 192.16 82.1742C191.793 82.1016 191.455 81.9214 191.19 81.6565C190.925 81.3916 190.745 81.0539 190.673 80.6863C190.6 80.3188 190.638 79.9379 190.783 79.5922C190.927 79.2464 191.171 78.9514 191.483 78.7444C191.795 78.5375 192.162 78.4281 192.537 78.4301C193.035 78.4301 193.513 78.6282 193.866 78.9807C194.219 79.3333 194.417 79.8115 194.417 80.3101Z" fill="white"/>
<path opacity="0.4" d="M227.916 78.8201H201.456C200.827 78.8201 200.316 79.3305 200.316 79.9601V80.6701C200.316 81.2997 200.827 81.8101 201.456 81.8101H227.916C228.546 81.8101 229.056 81.2997 229.056 80.6701V79.9601C229.056 79.3305 228.546 78.8201 227.916 78.8201Z" fill="black"/>
<path opacity="0.2" d="M250.737 80.25C250.737 80.79 250.577 81.3178 250.277 81.7667C249.977 82.2157 249.551 82.5656 249.052 82.7722C248.553 82.9788 248.004 83.0329 247.475 82.9276C246.945 82.8222 246.459 82.5622 246.077 82.1804C245.695 81.7986 245.435 81.3122 245.33 80.7826C245.224 80.253 245.279 79.7041 245.485 79.2053C245.692 78.7064 246.042 78.2801 246.491 77.9801C246.94 77.6801 247.467 77.52 248.007 77.52C248.731 77.52 249.426 77.8076 249.938 78.3196C250.45 78.8316 250.737 79.526 250.737 80.25Z" fill="black"/>
<path d="M249.897 80.25C249.899 80.6242 249.79 80.9906 249.584 81.3027C249.377 81.6149 249.083 81.8587 248.737 82.0033C248.392 82.1478 248.012 82.1867 247.645 82.1149C247.277 82.0431 246.94 81.8639 246.674 81.6C246.409 81.3361 246.228 80.9993 246.154 80.6324C246.08 80.2655 246.117 79.885 246.26 79.5391C246.403 79.1931 246.645 78.8973 246.956 78.6892C247.267 78.4811 247.633 78.37 248.007 78.37C248.507 78.37 248.986 78.5677 249.34 78.92C249.694 79.2723 249.895 79.7505 249.897 80.25Z" fill="#FFC100"/>
<path opacity="0.4" d="M283.407 78.76H256.937C256.307 78.76 255.797 79.2704 255.797 79.9V80.61C255.797 81.2396 256.307 81.75 256.937 81.75H283.407C284.036 81.75 284.547 81.2396 284.547 80.61V79.9C284.547 79.2704 284.036 78.76 283.407 78.76Z" fill="black"/>
<path opacity="0.2" d="M306.218 80.1901C306.218 80.73 306.058 81.2578 305.758 81.7068C305.458 82.1557 305.031 82.5056 304.533 82.7123C304.034 82.9189 303.485 82.973 302.955 82.8676C302.426 82.7623 301.939 82.5023 301.557 82.1205C301.176 81.7387 300.916 81.2522 300.81 80.7227C300.705 80.1931 300.759 79.6442 300.966 79.1454C301.172 78.6465 301.522 78.2201 301.971 77.9202C302.42 77.6202 302.948 77.4601 303.488 77.4601C304.212 77.4601 304.906 77.7477 305.418 78.2597C305.93 78.7716 306.218 79.466 306.218 80.1901Z" fill="black"/>
<path d="M305.378 80.19C305.378 80.5639 305.267 80.9293 305.059 81.2401C304.851 81.5509 304.556 81.7931 304.211 81.9362C303.866 82.0792 303.486 82.1167 303.119 82.0437C302.752 81.9708 302.416 81.7908 302.151 81.5265C301.887 81.2622 301.707 80.9254 301.634 80.5588C301.561 80.1921 301.598 79.8121 301.742 79.4668C301.885 79.1214 302.127 78.8262 302.438 78.6186C302.748 78.4109 303.114 78.3 303.488 78.3C303.989 78.3 304.47 78.4992 304.824 78.8536C305.179 79.2081 305.378 79.6888 305.378 80.19Z" fill="white"/>
<path opacity="0.4" d="M338.877 78.6901H312.417C311.788 78.6901 311.277 79.2005 311.277 79.8301V80.5401C311.277 81.1697 311.788 81.6801 312.417 81.6801H338.877C339.507 81.6801 340.017 81.1697 340.017 80.5401V79.8301C340.017 79.2005 339.507 78.6901 338.877 78.6901Z" fill="black"/>
<path opacity="0.4" d="M179.507 111.3C182.76 111.3 185.397 108.663 185.397 105.41C185.397 102.157 182.76 99.52 179.507 99.52C176.254 99.52 173.617 102.157 173.617 105.41C173.617 108.663 176.254 111.3 179.507 111.3Z" fill="black"/>
<path d="M181.207 106.84V107.68H177.837V107L179.557 105.37C179.957 104.99 180.027 104.76 180.027 104.55C180.027 104.34 179.787 103.99 179.307 103.99C179.128 103.984 178.951 104.022 178.791 104.1C178.63 104.179 178.491 104.295 178.387 104.44L177.637 103.95C177.841 103.677 178.109 103.459 178.418 103.314C178.727 103.169 179.066 103.103 179.407 103.12C180.407 103.12 181.067 103.63 181.067 104.44C181.061 104.717 180.99 104.99 180.86 105.235C180.73 105.479 180.543 105.69 180.317 105.85L179.317 106.85L181.207 106.84Z" fill="white"/>
<path opacity="0.4" d="M347.627 99.7301H190.937C190.307 99.7301 189.797 100.24 189.797 100.87V101.58C189.797 102.21 190.307 102.72 190.937 102.72H347.627C348.256 102.72 348.767 102.21 348.767 101.58V100.87C348.767 100.24 348.256 99.7301 347.627 99.7301Z" fill="black"/>
<path opacity="0.4" d="M220.717 107.49H190.937C190.307 107.49 189.797 108.001 189.797 108.63V109.34C189.797 109.97 190.307 110.48 190.937 110.48H220.717C221.346 110.48 221.857 109.97 221.857 109.34V108.63C221.857 108.001 221.346 107.49 220.717 107.49Z" fill="black"/>
<path opacity="0.2" d="M192.539 125C194.046 125 195.269 123.778 195.269 122.27C195.269 120.762 194.046 119.54 192.539 119.54C191.031 119.54 189.809 120.762 189.809 122.27C189.809 123.778 191.031 125 192.539 125Z" fill="black"/>
<path d="M192.538 124.16C193.582 124.16 194.428 123.314 194.428 122.27C194.428 121.226 193.582 120.38 192.538 120.38C191.495 120.38 190.648 121.226 190.648 122.27C190.648 123.314 191.495 124.16 192.538 124.16Z" fill="white"/>
<path opacity="0.4" d="M227.916 120.78H201.456C200.827 120.78 200.316 121.29 200.316 121.92V122.63C200.316 123.26 200.827 123.77 201.456 123.77H227.916C228.546 123.77 229.056 123.26 229.056 122.63V121.92C229.056 121.29 228.546 120.78 227.916 120.78Z" fill="black"/>
<path opacity="0.2" d="M248.007 124.94C249.515 124.94 250.737 123.718 250.737 122.21C250.737 120.702 249.515 119.48 248.007 119.48C246.5 119.48 245.277 120.702 245.277 122.21C245.277 123.718 246.5 124.94 248.007 124.94Z" fill="black"/>
<path d="M248.007 124.1C249.051 124.1 249.897 123.254 249.897 122.21C249.897 121.166 249.051 120.32 248.007 120.32C246.963 120.32 246.117 121.166 246.117 122.21C246.117 123.254 246.963 124.1 248.007 124.1Z" fill="white"/>
<path opacity="0.4" d="M283.407 120.71H256.937C256.307 120.71 255.797 121.22 255.797 121.85V122.56C255.797 123.19 256.307 123.7 256.937 123.7H283.407C284.036 123.7 284.547 123.19 284.547 122.56V121.85C284.547 121.22 284.036 120.71 283.407 120.71Z" fill="black"/>
<path opacity="0.2" d="M306.218 122.15C306.218 122.69 306.058 123.218 305.758 123.667C305.458 124.116 305.031 124.466 304.533 124.672C304.034 124.879 303.485 124.933 302.955 124.828C302.426 124.722 301.939 124.462 301.557 124.08C301.176 123.699 300.916 123.212 300.81 122.683C300.705 122.153 300.759 121.604 300.966 121.105C301.172 120.606 301.522 120.18 301.971 119.88C302.42 119.58 302.948 119.42 303.488 119.42C304.212 119.42 304.906 119.708 305.418 120.22C305.93 120.732 306.218 121.426 306.218 122.15Z" fill="black"/>
<path d="M305.378 122.15C305.378 122.524 305.267 122.889 305.059 123.2C304.851 123.511 304.556 123.753 304.211 123.896C303.866 124.039 303.486 124.077 303.119 124.004C302.752 123.931 302.416 123.751 302.151 123.486C301.887 123.222 301.707 122.885 301.634 122.519C301.561 122.152 301.598 121.772 301.742 121.427C301.885 121.081 302.127 120.786 302.438 120.579C302.748 120.371 303.114 120.26 303.488 120.26C303.989 120.26 304.47 120.459 304.824 120.814C305.179 121.168 305.378 121.649 305.378 122.15Z" fill="#FFC100"/>
<path opacity="0.4" d="M338.877 120.65H312.417C311.788 120.65 311.277 121.16 311.277 121.79V122.5C311.277 123.13 311.788 123.64 312.417 123.64H338.877C339.507 123.64 340.017 123.13 340.017 122.5V121.79C340.017 121.16 339.507 120.65 338.877 120.65Z" fill="black"/>
<path opacity="0.4" d="M179.507 154.56C178.342 154.56 177.203 154.215 176.235 153.567C175.266 152.92 174.511 152 174.066 150.924C173.62 149.848 173.503 148.663 173.73 147.521C173.958 146.378 174.519 145.329 175.342 144.505C176.166 143.681 177.216 143.12 178.358 142.893C179.501 142.666 180.685 142.783 181.761 143.228C182.837 143.674 183.757 144.429 184.405 145.398C185.052 146.366 185.397 147.505 185.397 148.67C185.397 150.232 184.777 151.73 183.672 152.835C182.567 153.939 181.069 154.56 179.507 154.56Z" fill="black"/>
<path d="M181.167 149.5C181.167 150.25 180.587 150.94 179.317 150.94C178.715 150.954 178.123 150.787 177.617 150.46L178.017 149.67C178.389 149.931 178.833 150.071 179.287 150.07C179.807 150.07 180.127 149.86 180.127 149.5C180.127 149.14 179.877 148.95 179.287 148.95H178.817V148.27L179.737 147.27H177.837V146.44H180.997V147.11L179.997 148.26C180.312 148.283 180.607 148.422 180.824 148.652C181.04 148.882 181.163 149.184 181.167 149.5Z" fill="white"/>
<path opacity="0.4" d="M347.627 142.95H190.937C190.307 142.95 189.797 143.46 189.797 144.09V144.8C189.797 145.43 190.307 145.94 190.937 145.94H347.627C348.256 145.94 348.767 145.43 348.767 144.8V144.09C348.767 143.46 348.256 142.95 347.627 142.95Z" fill="black"/>
<path opacity="0.4" d="M347.627 150.71H190.937C190.307 150.71 189.797 151.22 189.797 151.85V152.56C189.797 153.19 190.307 153.7 190.937 153.7H347.627C348.256 153.7 348.767 153.19 348.767 152.56V151.85C348.767 151.22 348.256 150.71 347.627 150.71Z" fill="black"/>
<path opacity="0.4" d="M269.427 158.48H190.937C190.307 158.48 189.797 158.99 189.797 159.62V160.33C189.797 160.96 190.307 161.47 190.937 161.47H269.427C270.056 161.47 270.567 160.96 270.567 160.33V159.62C270.567 158.99 270.056 158.48 269.427 158.48Z" fill="black"/>
<path opacity="0.4" d="M250.337 170.84H245.677C245.456 170.84 245.277 171.019 245.277 171.24V175.9C245.277 176.121 245.456 176.3 245.677 176.3H250.337C250.558 176.3 250.737 176.121 250.737 175.9V171.24C250.737 171.019 250.558 170.84 250.337 170.84Z" fill="black"/>
<path d="M250.09 175.65V171.5H245.94V175.65H250.09Z" fill="white"/>
<path opacity="0.4" d="M283.407 172.08H256.937C256.307 172.08 255.797 172.59 255.797 173.22V173.93C255.797 174.56 256.307 175.07 256.937 175.07H283.407C284.036 175.07 284.547 174.56 284.547 173.93V173.22C284.547 172.59 284.036 172.08 283.407 172.08Z" fill="black"/>
<path d="M247.789 174.77C247.758 174.771 247.726 174.765 247.697 174.753C247.668 174.741 247.641 174.723 247.619 174.7L246.619 173.76C246.573 173.712 246.547 173.647 246.547 173.58C246.547 173.513 246.573 173.448 246.619 173.4C246.643 173.376 246.671 173.357 246.701 173.343C246.732 173.33 246.766 173.324 246.799 173.324C246.833 173.324 246.866 173.33 246.897 173.343C246.928 173.357 246.956 173.376 246.979 173.4L247.829 174.17L249.279 172.45C249.322 172.398 249.383 172.366 249.45 172.359C249.516 172.352 249.583 172.373 249.634 172.415C249.686 172.457 249.719 172.519 249.725 172.585C249.732 172.652 249.712 172.718 249.669 172.77L247.999 174.68C247.955 174.729 247.895 174.761 247.829 174.77H247.789Z" fill="#FFC100"/>
<path opacity="0.4" d="M305.818 170.78H301.158C300.937 170.78 300.758 170.959 300.758 171.18V175.84C300.758 176.061 300.937 176.24 301.158 176.24H305.818C306.039 176.24 306.218 176.061 306.218 175.84V171.18C306.218 170.959 306.039 170.78 305.818 170.78Z" fill="black"/>
<path d="M305.559 175.59V171.44H301.409V175.59H305.559Z" fill="white"/>
<path opacity="0.4" d="M338.877 172.01H312.417C311.788 172.01 311.277 172.52 311.277 173.15V173.86C311.277 174.49 311.788 175 312.417 175H338.877C339.507 175 340.017 174.49 340.017 173.86V173.15C340.017 172.52 339.507 172.01 338.877 172.01Z" fill="black"/>
<path d="M303.267 174.71C303.204 174.707 303.145 174.682 303.097 174.64L302.097 173.69C302.068 173.669 302.044 173.643 302.026 173.612C302.008 173.581 301.997 173.546 301.993 173.511C301.99 173.475 301.994 173.439 302.006 173.405C302.017 173.372 302.036 173.341 302.06 173.315C302.085 173.289 302.115 173.268 302.148 173.255C302.181 173.241 302.217 173.235 302.252 173.236C302.288 173.238 302.323 173.247 302.355 173.263C302.387 173.279 302.415 173.302 302.437 173.33L303.277 174.1L304.737 172.38C304.757 172.351 304.782 172.326 304.812 172.307C304.842 172.288 304.875 172.276 304.91 172.271C304.945 172.266 304.981 172.268 305.014 172.278C305.048 172.288 305.08 172.305 305.107 172.327C305.134 172.35 305.155 172.378 305.171 172.41C305.186 172.441 305.194 172.476 305.196 172.511C305.197 172.546 305.19 172.581 305.177 172.614C305.163 172.647 305.143 172.676 305.117 172.7L303.497 174.62C303.449 174.669 303.386 174.701 303.317 174.71H303.267Z" fill="#FFC100"/>
<path opacity="0.4" d="M194.857 170.9H190.197C189.976 170.9 189.797 171.079 189.797 171.3V175.96C189.797 176.181 189.976 176.36 190.197 176.36H194.857C195.078 176.36 195.257 176.181 195.257 175.96V171.3C195.257 171.079 195.078 170.9 194.857 170.9Z" fill="black"/>
<path d="M194.609 175.71V171.56H190.459V175.71H194.609Z" fill="white"/>
<path opacity="0.4" d="M227.916 172.14H201.456C200.827 172.14 200.316 172.651 200.316 173.28V173.99C200.316 174.62 200.827 175.13 201.456 175.13H227.916C228.546 175.13 229.056 174.62 229.056 173.99V173.28C229.056 172.651 228.546 172.14 227.916 172.14Z" fill="black"/>
<path d="M180.448 27.68C180.404 26.9142 180.591 26.1529 180.984 25.4945C181.378 24.8362 181.96 24.3112 182.655 23.9876C183.351 23.664 184.127 23.5566 184.885 23.6794C185.642 23.8022 186.345 24.1495 186.902 24.6764C187.46 25.2032 187.846 25.8853 188.011 26.6343C188.177 27.3833 188.113 28.1647 187.83 28.8773C187.546 29.5899 187.054 30.2008 186.419 30.631C185.784 31.0612 185.035 31.2907 184.268 31.29C183.776 31.3186 183.284 31.2465 182.822 31.0779C182.359 30.9094 181.936 30.648 181.578 30.3099C181.22 29.9718 180.936 29.564 180.741 29.1118C180.547 28.6595 180.447 28.1723 180.448 27.68ZM186.448 27.68C186.44 27.2487 186.305 26.8293 186.059 26.4744C185.814 26.1196 185.469 25.8451 185.068 25.6855C184.668 25.5258 184.229 25.4881 183.806 25.5771C183.384 25.666 182.998 25.8777 182.696 26.1855C182.393 26.4933 182.189 26.8836 182.107 27.3073C182.026 27.731 182.072 28.1692 182.239 28.5671C182.405 28.9649 182.686 29.3046 183.045 29.5435C183.405 29.7824 183.826 29.9099 184.258 29.91C184.552 29.9185 184.844 29.8664 185.117 29.757C185.389 29.6475 185.637 29.483 185.843 29.2738C186.049 29.0646 186.211 28.8151 186.316 28.5409C186.422 28.2667 186.47 27.9736 186.458 27.68H186.448Z" fill="white"/>
<path d="M194.679 28.1001V31.1701H193.129V28.3401C193.129 27.4701 192.729 27.0701 192.039 27.0701C191.349 27.0701 190.749 27.5301 190.749 28.5201V31.1701H189.199V25.8001H190.679V26.4301C190.91 26.1938 191.187 26.0086 191.494 25.8863C191.801 25.764 192.129 25.7074 192.459 25.7201C192.77 25.6994 193.082 25.7482 193.371 25.8628C193.661 25.9775 193.922 26.1552 194.134 26.383C194.347 26.6109 194.506 26.8832 194.6 27.1802C194.694 27.4771 194.721 27.7914 194.679 28.1001Z" fill="white"/>
<path d="M196.09 23.77H197.64V31.17H196.09V23.77Z" fill="white"/>
<path d="M198.898 24.1901C198.9 24.0651 198.928 23.9418 198.981 23.8284C199.034 23.715 199.11 23.6139 199.204 23.5318C199.299 23.4497 199.409 23.3884 199.529 23.352C199.648 23.3155 199.774 23.3046 199.898 23.3201C200.021 23.3016 200.145 23.3093 200.264 23.3428C200.383 23.3763 200.494 23.4347 200.588 23.5141C200.683 23.5936 200.759 23.6923 200.813 23.8037C200.866 23.9151 200.896 24.0366 200.898 24.1601C200.841 24.3719 200.715 24.559 200.541 24.6923C200.366 24.8256 200.153 24.8979 199.933 24.8979C199.714 24.8979 199.5 24.8256 199.326 24.6923C199.152 24.559 199.026 24.3719 198.968 24.1601L198.898 24.1901ZM199.088 25.8001H200.648V31.1701H199.088V25.8001Z" fill="white"/>
<path d="M207.576 28.1001V31.17H205.996V28.34C205.996 27.47 205.596 27.0701 204.906 27.0701C204.216 27.0701 203.626 27.53 203.626 28.52V31.17H202.066V25.8H203.556V26.43C203.785 26.1935 204.06 26.008 204.365 25.8857C204.67 25.7633 204.998 25.7069 205.326 25.72C205.639 25.6965 205.953 25.7431 206.246 25.8563C206.539 25.9695 206.802 26.1466 207.018 26.3746C207.233 26.6026 207.395 26.8758 207.492 27.1742C207.589 27.4727 207.617 27.789 207.576 28.1001Z" fill="white"/>
<path d="M214.267 28.93H210.207C210.29 29.2632 210.49 29.5551 210.771 29.7518C211.053 29.9485 211.396 30.0367 211.737 30C211.985 30.0092 212.232 29.9689 212.463 29.8813C212.695 29.7937 212.907 29.6607 213.087 29.49L213.917 30.38C213.633 30.6784 213.287 30.9109 212.903 31.0612C212.52 31.2115 212.108 31.276 211.697 31.25C211.311 31.2875 210.921 31.2442 210.553 31.1228C210.185 31.0014 209.846 30.8046 209.558 30.5449C209.27 30.2852 209.04 29.9683 208.881 29.6145C208.722 29.2607 208.639 28.8778 208.637 28.49C208.632 28.1165 208.704 27.7459 208.848 27.4012C208.992 27.0565 209.205 26.7448 209.474 26.4854C209.743 26.226 210.062 26.0242 210.411 25.8926C210.761 25.761 211.134 25.7023 211.507 25.72C211.878 25.7014 212.249 25.7608 212.596 25.8944C212.943 26.028 213.258 26.2329 213.521 26.4958C213.784 26.7587 213.989 27.0737 214.123 27.4207C214.256 27.7676 214.316 28.1387 214.297 28.51C214.297 28.63 214.277 28.8 214.267 28.93ZM210.187 28.02H212.827C212.773 27.7093 212.61 27.4278 212.369 27.2248C212.128 27.0219 211.822 26.9107 211.507 26.9107C211.192 26.9107 210.886 27.0219 210.645 27.2248C210.403 27.4278 210.241 27.7093 210.187 28.02Z" fill="white"/>
<path d="M219.707 25.5001H217.477V24.1901H223.557V25.5001H221.327V31.1701H219.707V25.5001Z" fill="white"/>
<path d="M228.997 28.93H224.937C225.02 29.2632 225.221 29.5551 225.502 29.7519C225.783 29.9486 226.126 30.0367 226.467 30.0001C226.715 30.0093 226.962 29.9689 227.194 29.8813C227.426 29.7937 227.638 29.6607 227.817 29.4901L228.647 30.3801C228.363 30.6784 228.017 30.9109 227.634 31.0612C227.25 31.2115 226.839 31.276 226.427 31.2501C226.041 31.2876 225.652 31.2443 225.284 31.1229C224.915 31.0014 224.577 30.8046 224.289 30.5449C224.001 30.2852 223.77 29.9684 223.611 29.6146C223.453 29.2608 223.37 28.8778 223.367 28.4901C223.363 28.1174 223.435 27.7477 223.578 27.4037C223.721 27.0597 223.933 26.7485 224.201 26.4892C224.469 26.2299 224.786 26.028 225.135 25.8957C225.483 25.7635 225.855 25.7037 226.227 25.7201C226.6 25.7 226.972 25.7583 227.32 25.8913C227.668 26.0242 227.984 26.2289 228.248 26.4919C228.512 26.755 228.718 27.0705 228.852 27.4182C228.986 27.7659 229.046 28.1378 229.027 28.51C228.997 28.63 228.997 28.8 228.997 28.93ZM224.917 28.0201H227.557C227.503 27.7094 227.341 27.4278 227.1 27.2249C226.858 27.022 226.553 26.9107 226.237 26.9107C225.922 26.9107 225.617 27.022 225.375 27.2249C225.134 27.4278 224.972 27.7094 224.917 28.0201Z" fill="white"/>
<path d="M229.539 30.6701L230.059 29.56C230.627 29.8897 231.272 30.0655 231.929 30.0701C232.649 30.0701 232.929 29.88 232.929 29.59C232.929 28.71 229.679 29.5901 229.679 27.4601C229.679 26.4601 230.599 25.7201 232.169 25.7201C232.884 25.7063 233.591 25.8676 234.229 26.1901L233.709 27.3001C233.241 27.0305 232.709 26.8923 232.169 26.9C231.469 26.9 231.169 27.12 231.169 27.4C231.169 28.32 234.409 27.4001 234.409 29.5501C234.409 30.5501 233.479 31.2501 231.879 31.2501C231.061 31.2672 230.254 31.0671 229.539 30.6701Z" fill="white"/>
<path d="M238.819 30.91C238.439 31.1484 237.997 31.2669 237.549 31.25C237.284 31.2878 237.015 31.2649 236.76 31.183C236.506 31.1011 236.274 30.9624 236.081 30.7773C235.888 30.5923 235.74 30.3658 235.648 30.1151C235.556 29.8643 235.522 29.5958 235.549 29.33V27.12H234.719V25.92H235.549V24.62H237.099V25.92H238.439V27.12H237.099V29.31C237.086 29.4022 237.095 29.4961 237.124 29.5846C237.153 29.6731 237.201 29.754 237.265 29.8212C237.33 29.8884 237.408 29.9403 237.496 29.973C237.583 30.0057 237.676 30.0183 237.769 30.01C237.995 30.0129 238.216 29.9427 238.399 29.81L238.819 30.91Z" fill="white"/>
<path d="M344.885 34.2946C347.981 31.1978 347.981 26.1768 344.885 23.0799C341.788 19.983 336.767 19.983 333.67 23.0799C330.573 26.1768 330.573 31.1977 333.67 34.2946C336.767 37.3915 341.788 37.3915 344.885 34.2946Z" fill="white"/>
<path opacity="0.2" d="M346.297 25L339.297 28.7V20.77C340.738 20.7725 342.151 21.1677 343.384 21.9129C344.618 22.6582 345.625 23.7255 346.297 25Z" fill="black"/>
<path d="M115.708 151.47C115.568 151.759 115.508 152.08 115.533 152.4C115.558 152.72 115.668 153.027 115.851 153.291C116.034 153.555 116.284 153.765 116.575 153.9C116.866 154.035 117.188 154.09 117.508 154.06H164.868C165.655 154.022 166.415 153.757 167.055 153.298C167.696 152.838 168.19 152.204 168.478 151.47L178.478 122.57C178.577 122.301 178.628 122.017 178.628 121.73C178.626 121.483 178.573 121.24 178.472 121.015C178.371 120.79 178.224 120.588 178.04 120.424C177.857 120.259 177.64 120.134 177.406 120.058C177.171 119.981 176.923 119.955 176.678 119.98H129.348C128.561 120.018 127.801 120.283 127.161 120.742C126.52 121.202 126.026 121.836 125.738 122.57L115.708 151.47Z" fill="#263238"/>
<path d="M165.231 152.61C165.617 152.592 165.989 152.463 166.304 152.237C166.618 152.012 166.86 151.7 167.001 151.34L177.001 122.44C177.042 122.325 177.063 122.203 177.061 122.08C177.061 121.68 176.771 121.43 176.311 121.43H129.001C128.614 121.448 128.242 121.578 127.927 121.803C127.613 122.028 127.371 122.34 127.231 122.7L117.231 151.6C117.179 151.717 117.157 151.844 117.166 151.971C117.175 152.098 117.214 152.221 117.281 152.33C117.355 152.426 117.453 152.503 117.565 152.552C117.677 152.6 117.799 152.621 117.921 152.61H165.231Z" fill="#FFC100"/>
<path opacity="0.8" d="M165.231 152.61C165.617 152.592 165.989 152.463 166.304 152.237C166.618 152.012 166.86 151.7 167.001 151.34L177.001 122.44C177.042 122.325 177.063 122.203 177.061 122.08C177.061 121.68 176.771 121.43 176.311 121.43H129.001C128.614 121.448 128.242 121.578 127.927 121.803C127.613 122.028 127.371 122.34 127.231 122.7L117.231 151.6C117.179 151.717 117.157 151.844 117.166 151.971C117.175 152.098 117.214 152.221 117.281 152.33C117.355 152.426 117.453 152.503 117.565 152.552C117.677 152.6 117.799 152.621 117.921 152.61H165.231Z" fill="white"/>
<path d="M95.4375 151.92V153.25L104.818 155.66H164.647C165.09 155.66 165.515 155.484 165.828 155.171C166.142 154.858 166.318 154.433 166.318 153.99V151.92H95.4375Z" fill="#263238"/>
<path opacity="0.2" d="M145.497 151.92V153.25L154.887 155.66H104.818L95.4375 153.25V151.92H145.497Z" fill="white"/>
<g opacity="0.2">
<path d="M174.018 128.22H126.148L128.008 123H175.878L174.018 128.22Z" fill="#FFC100"/>
</g>
<g opacity="0.1">
<path d="M171.62 134.94H123.75C123.61 134.94 123.54 134.83 123.59 134.68C123.618 134.61 123.664 134.548 123.724 134.502C123.784 134.456 123.855 134.428 123.93 134.42H171.81C171.94 134.42 172.01 134.54 171.96 134.68C171.936 134.753 171.891 134.816 171.83 134.862C171.77 134.909 171.697 134.936 171.62 134.94Z" fill="black"/>
</g>
<g opacity="0.1">
<path d="M168.999 142.27H121.129C120.989 142.27 120.919 142.15 120.969 142.01C120.997 141.938 121.045 141.876 121.107 141.83C121.169 141.784 121.242 141.756 121.319 141.75H169.189C169.329 141.75 169.399 141.86 169.349 142.01C169.321 142.082 169.274 142.144 169.212 142.19C169.15 142.236 169.076 142.264 168.999 142.27Z" fill="black"/>
</g>
<g opacity="0.1">
<path d="M166.39 149.6H118.52C118.38 149.6 118.31 149.48 118.36 149.34C118.383 149.266 118.428 149.201 118.489 149.153C118.549 149.105 118.623 149.076 118.7 149.07H166.57C166.71 149.07 166.78 149.19 166.73 149.34C166.704 149.411 166.658 149.473 166.598 149.519C166.537 149.565 166.465 149.593 166.39 149.6Z" fill="black"/>
</g>
<path d="M150.469 291.97H155.679L165.049 161.53H158.129L150.469 291.97Z" fill="#263238"/>
<path opacity="0.2" d="M150.461 291.97H155.681L164.591 168.01L165.051 161.74H158.131L157.761 168.01L150.461 291.97Z" fill="white"/>
<path opacity="0.2" d="M157.758 167.7H164.588L165.048 161.74H158.128L157.758 167.7Z" fill="black"/>
<path d="M112.198 291.97H117.408L118.258 161.53H111.348L112.198 291.97Z" fill="#263238"/>
<path opacity="0.3" d="M111.34 161.74L111.48 182.78L112.19 291.97H117.41L118.13 182.78L118.26 161.74H111.34Z" fill="white"/>
<path opacity="0.2" d="M111.34 161.74L111.48 183.02H118.13L118.26 161.74H111.34Z" fill="black"/>
<path d="M56.8398 291.97H62.0499L71.4198 161.53H64.4998L56.8398 291.97Z" fill="#263238"/>
<path opacity="0.3" d="M56.8398 291.97H62.0499L70.9698 168.01L71.4198 161.74H64.4998L64.1298 168.01L56.8398 291.97Z" fill="white"/>
<path opacity="0.2" d="M64.1289 167.7H70.9689L71.4189 161.74H64.4989L64.1289 167.7Z" fill="black"/>
<path d="M210.12 291.97H215.33L207.67 161.53H200.75L210.12 291.97Z" fill="#263238"/>
<path opacity="0.3" d="M200.75 161.74L201.21 168.01L210.12 291.97H215.33L208.04 168.01L207.67 161.74H200.75Z" fill="white"/>
<path opacity="0.2" d="M207.67 161.74H200.75L201.21 167.7H208.04L207.67 161.74Z" fill="black"/>
<path d="M210.988 164.8L61.168 164.8C60.8843 164.8 60.6034 164.744 60.3414 164.636C60.0793 164.527 59.8412 164.368 59.6406 164.167C59.4401 163.967 59.2809 163.729 59.1724 163.467C59.0638 163.204 59.008 162.924 59.008 162.64V158.27L213.168 158.27V162.64C213.168 162.925 213.111 163.208 213.002 163.471C212.892 163.735 212.731 163.974 212.528 164.174C212.326 164.375 212.085 164.534 211.821 164.641C211.556 164.749 211.273 164.803 210.988 164.8Z" fill="#FFC100"/>
<path opacity="0.2" d="M59.0184 161.53L213.148 161.53V158.26L59.0184 158.26V161.53Z" fill="black"/>
<path d="M55.7892 159.11H216.379C216.867 159.11 217.335 158.916 217.68 158.571C218.025 158.226 218.219 157.758 218.219 157.27C218.219 156.782 218.025 156.314 217.68 155.969C217.335 155.624 216.867 155.43 216.379 155.43H55.7892C55.3012 155.43 54.8332 155.624 54.4881 155.969C54.1431 156.314 53.9492 156.782 53.9492 157.27C53.9492 157.758 54.1431 158.226 54.4881 158.571C54.8332 158.916 55.3012 159.11 55.7892 159.11Z" fill="#FFC100"/>
<path d="M211.249 150.8C211.319 152.388 211.028 153.971 210.399 155.43H173.809V154.56H174.549V147H173.809V146.13H210.399C211.025 147.604 211.315 149.2 211.249 150.8Z" fill="#263238"/>
<path opacity="0.2" d="M211.249 150.8C211.319 152.388 211.028 153.971 210.399 155.43H173.809V154.56H174.549V147H173.809V146.13H210.399C211.025 147.604 211.315 149.2 211.249 150.8Z" fill="white"/>
<path opacity="0.2" d="M191.67 150.8C191.741 152.388 191.45 153.971 190.82 155.43H173.82V154.56H174.56V147H173.82V146.13H190.82C191.446 147.604 191.737 149.2 191.67 150.8Z" fill="black"/>
<path opacity="0.8" d="M189.871 150.8C189.929 152.089 189.693 153.375 189.181 154.56H174.551V147H189.181C189.689 148.2 189.924 149.498 189.871 150.8Z" fill="white"/>
<path opacity="0.6" d="M205.289 150.8C205.359 152.388 205.069 153.971 204.439 155.43H197.629C198.259 153.971 198.549 152.388 198.479 150.8C198.541 149.21 198.251 147.625 197.629 146.16H204.439C205.061 147.625 205.351 149.21 205.289 150.8Z" fill="white"/>
<path d="M214.51 141.53C214.581 143.118 214.29 144.701 213.66 146.16H177.07V145.29H177.81V137.76H177.07V136.89H213.66C214.28 138.356 214.57 139.94 214.51 141.53Z" fill="#FFC100"/>
<path opacity="0.2" d="M194.928 141.53C194.998 143.118 194.708 144.701 194.078 146.16H177.078V145.29H177.818V137.76H177.078V136.89H194.078C194.698 138.356 194.988 139.94 194.928 141.53Z" fill="black"/>
<path opacity="0.8" d="M193.129 141.53C193.186 142.819 192.95 144.105 192.439 145.29H177.809V137.76H192.439C192.942 138.951 193.178 140.238 193.129 141.53Z" fill="white"/>
<path opacity="0.2" d="M208.551 141.53C208.621 143.118 208.33 144.701 207.701 146.16H200.891C201.52 144.701 201.811 143.118 201.741 141.53C201.801 139.94 201.511 138.356 200.891 136.89H207.701C208.321 138.356 208.611 139.94 208.551 141.53Z" fill="black"/>
<path d="M91.7484 269.67L88.5284 284.57L80.8984 284.44L84.0884 269.67H91.7484Z" fill="#EBB376"/>
<path opacity="0.2" d="M91.7576 269.67L90.1577 277.04L82.5977 276.53L84.0876 269.67H91.7576Z" fill="black"/>
<path d="M89.6784 284.19H89.8384C89.8384 284.19 90.0084 284.25 90.0284 284.27C90.0378 284.274 90.0481 284.277 90.0584 284.277C90.0688 284.277 90.0791 284.274 90.0884 284.27C90.7378 284.479 91.4088 284.613 92.0884 284.67C92.5911 284.762 93.1099 284.658 93.5384 284.38C93.6793 284.26 93.7811 284.101 93.831 283.923C93.8809 283.745 93.8765 283.556 93.8185 283.38C93.8044 283.266 93.7624 283.157 93.6961 283.062C93.6298 282.968 93.5413 282.892 93.4384 282.84C92.7079 282.719 91.9582 282.857 91.3185 283.23C91.7712 282.76 92.0378 282.142 92.0685 281.49C92.0404 281.336 91.9625 281.196 91.8468 281.092C91.7311 280.987 91.584 280.923 91.4284 280.91C91.2806 280.884 91.1289 280.888 90.9827 280.922C90.8366 280.956 90.699 281.02 90.5784 281.11C89.7784 281.8 89.6484 283.96 89.6484 284.11L89.6784 284.19ZM90.4984 283.75L90.3484 283.84C90.3004 283.014 90.5253 282.195 90.9884 281.51C91.04 281.461 91.1014 281.423 91.1686 281.399C91.2358 281.375 91.3073 281.365 91.3784 281.37H91.4684C91.7184 281.37 91.7784 281.54 91.7784 281.65C91.6148 282.48 91.161 283.224 90.4984 283.75ZM90.6084 284.13C91.5284 283.62 92.8384 283.07 93.3284 283.29C93.3778 283.315 93.4202 283.352 93.4516 283.397C93.4831 283.442 93.5026 283.495 93.5084 283.55C93.5361 283.661 93.5351 283.777 93.5053 283.887C93.4756 283.997 93.4181 284.098 93.3384 284.18C92.9984 284.5 91.9984 284.48 90.6084 284.13Z" fill="#FFC100"/>
<path d="M89.4999 283.26L80.9498 282.73C80.8789 282.722 80.8069 282.728 80.7382 282.747C80.6695 282.767 80.6054 282.8 80.5496 282.845C80.4938 282.889 80.4474 282.945 80.4131 283.007C80.3788 283.07 80.3573 283.139 80.3499 283.21L79.5098 289.96C79.4905 290.314 79.6103 290.662 79.8439 290.929C80.0774 291.197 80.4061 291.362 80.7598 291.39C83.7598 291.52 85.1799 291.44 88.9399 291.64C92.2806 291.995 95.6422 292.116 98.9999 292C102.19 291.69 101.8 288.54 100.42 288.39C97.1598 288.02 92.8398 285.62 90.7898 283.8C90.4312 283.483 89.9777 283.293 89.4999 283.26Z" fill="#263238"/>
<path d="M136.419 269.67L133.199 284.57L125.559 284.44L128.759 269.67H136.419Z" fill="#EBB376"/>
<path opacity="0.2" d="M136.418 269.67L134.818 277.04L127.258 276.53L128.748 269.67H136.418Z" fill="black"/>
<path d="M134.336 284.19H134.496C134.496 284.19 134.666 284.25 134.696 284.27C134.706 284.274 134.716 284.277 134.726 284.277C134.737 284.277 134.747 284.274 134.756 284.27C135.406 284.478 136.077 284.612 136.756 284.67C137.262 284.765 137.785 284.661 138.216 284.38C138.355 284.259 138.455 284.099 138.504 283.921C138.552 283.743 138.546 283.555 138.486 283.38C138.475 283.265 138.434 283.155 138.368 283.06C138.301 282.965 138.211 282.89 138.106 282.84C137.376 282.719 136.626 282.857 135.986 283.23C136.438 282.758 136.707 282.142 136.746 281.49C136.715 281.336 136.634 281.197 136.517 281.092C136.4 280.988 136.253 280.924 136.096 280.91C135.949 280.884 135.797 280.889 135.651 280.923C135.505 280.957 135.367 281.021 135.246 281.11C134.446 281.8 134.316 283.96 134.316 284.11L134.336 284.19ZM135.156 283.75L135.006 283.84C134.963 283.015 135.188 282.198 135.646 281.51C135.698 281.461 135.76 281.424 135.827 281.4C135.894 281.375 135.965 281.365 136.036 281.37H136.126C136.376 281.37 136.436 281.54 136.446 281.65C136.274 282.479 135.818 283.221 135.156 283.75ZM135.266 284.13C136.186 283.62 137.496 283.07 137.986 283.29C138.036 283.315 138.078 283.352 138.11 283.397C138.141 283.442 138.161 283.495 138.166 283.55C138.195 283.66 138.196 283.776 138.168 283.886C138.14 283.996 138.084 284.097 138.006 284.18C137.616 284.5 136.616 284.48 135.266 284.13Z" fill="#FFC100"/>
<path d="M134.16 283.26L125.61 282.73C125.539 282.722 125.467 282.728 125.398 282.747C125.33 282.767 125.266 282.8 125.21 282.845C125.154 282.889 125.108 282.945 125.073 283.007C125.039 283.07 125.017 283.139 125.01 283.21L124.17 289.96C124.151 290.314 124.27 290.662 124.504 290.929C124.738 291.197 125.066 291.362 125.42 291.39C128.42 291.52 129.84 291.44 133.6 291.64C136.938 291.985 140.296 292.095 143.65 291.97C146.84 291.66 146.45 288.51 145.08 288.36C141.81 287.99 137.49 285.59 135.45 283.77C135.087 283.463 134.634 283.284 134.16 283.26Z" fill="#263238"/>
<path d="M105.437 241.31C102.531 252.518 98.8142 263.5 94.3167 274.17L80.3767 273.11C80.3767 273.11 86.0967 250.77 88.1667 230.31C89.4467 217.68 89.3367 207.23 85.6367 206.42C83.3067 205.9 77.8667 205.92 70.8867 206.08V180.08C90.4667 184.08 109.947 191.68 111.427 197.76C113.497 206.33 109.877 224.45 105.437 241.31Z" fill="#FFC100"/>
<path opacity="0.4" d="M105.437 241.31C102.531 252.518 98.8142 263.5 94.3167 274.17L80.3767 273.11C80.3767 273.11 86.0967 250.77 88.1667 230.31C89.4467 217.68 89.3367 207.23 85.6367 206.42C83.3067 205.9 77.8667 205.92 70.8867 206.08V180.08C90.4667 184.08 109.947 191.68 111.427 197.76C113.497 206.33 109.877 224.45 105.437 241.31Z" fill="white"/>
<path opacity="0.2" d="M105.437 241.31C100.237 238.01 94.1467 234.14 88.1667 230.31C89.4467 217.68 89.3367 207.23 85.6367 206.42C83.3067 205.9 77.8667 205.92 70.8867 206.08V180.08C90.4667 184.08 109.947 191.68 111.427 197.76C113.497 206.33 109.877 224.45 105.437 241.31Z" fill="black"/>
<path d="M97.8181 177.53L99.0481 167.66L59.1481 161.09C59.1481 161.09 46.0981 187 52.4881 199.62C58.3381 211.24 120.698 204.32 130.298 206.41C139.898 208.5 124.998 273.1 124.998 273.1L138.998 274.17C138.998 274.17 160.538 216.05 156.108 197.77C154.158 189.8 121.278 179.24 97.8181 177.53Z" fill="#FFC100"/>
<path opacity="0.6" d="M97.8181 177.53L99.0481 167.66L59.1481 161.09C59.1481 161.09 46.0981 187 52.4881 199.62C58.3381 211.24 120.698 204.32 130.298 206.41C139.898 208.5 124.998 273.1 124.998 273.1L138.998 274.17C138.998 274.17 160.538 216.05 156.108 197.77C154.158 189.8 121.278 179.24 97.8181 177.53Z" fill="white"/>
<path d="M119.77 97.24C119.43 97.83 119.47 98.5 119.86 98.72C120.25 98.94 120.86 98.64 121.17 98.04C121.48 97.44 121.47 96.79 121.09 96.56C120.71 96.33 120.14 96.67 119.77 97.24Z" fill="#263238"/>
<path d="M119.138 94.05C119.056 94.0099 118.987 93.9475 118.938 93.87C118.9 93.7715 118.901 93.6622 118.94 93.5639C118.979 93.4657 119.053 93.3858 119.148 93.34C119.73 93.0746 120.367 92.9524 121.005 92.9837C121.644 93.015 122.266 93.1989 122.818 93.52C122.906 93.5757 122.968 93.6631 122.992 93.7638C123.017 93.8645 123.001 93.9707 122.948 94.06C122.888 94.1475 122.795 94.2079 122.691 94.2285C122.586 94.249 122.478 94.228 122.388 94.17C121.95 93.9238 121.459 93.7854 120.957 93.7662C120.454 93.7471 119.954 93.8478 119.498 94.06C119.442 94.0866 119.38 94.0996 119.317 94.0978C119.255 94.0961 119.193 94.0797 119.138 94.05Z" fill="#263238"/>
<path d="M120.329 96.48C120.001 98.7031 119.978 100.961 120.259 103.19C119.686 103.244 119.108 103.174 118.564 102.984C118.021 102.794 117.524 102.489 117.109 102.09L120.329 96.48Z" fill="#DE5753"/>
<path d="M116.749 104.84C116.509 105.13 116.269 105.41 116.009 105.67C114.551 107.2 112.659 108.247 110.589 108.67C110.065 108.779 109.533 108.849 108.999 108.88C107.595 108.974 106.188 108.753 104.88 108.234C103.572 107.715 102.396 106.911 101.439 105.88C100.579 104.941 99.9165 103.839 99.4887 102.64C97.6287 97.64 99.4887 93.64 102.199 86.73C102.797 85.0967 103.803 83.6436 105.121 82.5091C106.439 81.3745 108.026 80.5963 109.73 80.2485C111.434 79.9006 113.199 79.9948 114.856 80.5219C116.514 81.049 118.009 81.9916 119.199 83.26C124.619 88.92 120.999 99.41 116.749 104.84Z" fill="#E4897B"/>
<path opacity="0.2" d="M110.587 108.65C110.063 108.759 109.532 108.829 108.997 108.86C107.594 108.954 106.186 108.733 104.879 108.214C103.571 107.695 102.395 106.891 101.438 105.86C102.11 105.184 102.866 104.596 103.688 104.11C106.373 104.934 108.768 106.51 110.587 108.65Z" fill="black"/>
<path d="M88.0586 108.91C88.7386 113.81 99.4386 115.64 99.4386 115.64C99.4386 115.64 104.719 118.04 104.939 115.95C102.749 113.42 102.509 111.21 103.269 109.28C103.77 108.11 104.501 107.052 105.419 106.17C105.912 105.662 106.433 105.181 106.979 104.73L103.709 91.33C101.359 96.42 93.3186 108.19 88.0586 108.91Z" fill="#E4897B"/>
<path d="M118.586 79.42C118.586 79.42 120.876 79.13 122.586 83.42C124.066 87.01 120.586 87.79 120.736 91.61C120.886 95.43 117.406 97.54 117.406 97.54C117.406 97.54 114.466 100.07 111.976 98.7C111.976 98.7 108.716 100.3 107.856 103.09C106.996 105.88 101.946 100.84 97.3964 101.61C97.3964 101.61 94.3264 98.73 94.5464 91.75C94.722 88.7187 95.4649 85.7473 96.7364 82.99C97.3404 81.5306 98.2288 80.206 99.3499 79.0935C100.471 77.9809 101.802 77.1027 103.266 76.51C108.506 74.17 117.616 75.93 118.586 79.42Z" fill="#263238"/>
<path d="M111.389 96.6201C111.234 97.3119 111.235 98.0294 111.391 98.721C111.546 99.4126 111.853 100.061 112.289 100.62C113.399 101.83 115.179 100.29 115.909 98.1701C116.529 96.2801 116.749 93.3201 115.119 92.9901C113.489 92.6601 111.739 94.5801 111.389 96.6201Z" fill="#E4897B"/>
<path d="M103.706 110.7C100.761 108.097 97.1242 106.402 93.2363 105.82C91.5375 105.611 89.8176 105.978 88.3524 106.863C86.8873 107.748 85.7617 109.099 85.1562 110.7L103.096 114.33L103.706 110.7Z" fill="#FFC100"/>
<path d="M100.656 148.56L107.966 149.65C109.629 149.131 111.336 148.767 113.066 148.56C114.946 148.401 116.836 148.401 118.716 148.56C118.716 148.56 121.996 149.8 121.996 153C121.996 153 114.276 155.07 111.316 153.83L100.656 153V148.56Z" fill="#E4897B"/>
<path opacity="0.2" d="M100.656 148.56L107.966 149.65C109.629 149.131 111.336 148.767 113.066 148.56C114.946 148.401 116.836 148.401 118.716 148.56C118.716 148.56 121.996 149.8 121.996 153C121.996 153 114.276 155.07 111.316 153.83L100.656 153V148.56Z" fill="black"/>
<path d="M112.539 113C111.052 117.16 109.719 121.16 108.539 125C107.779 127.38 107.089 129.71 106.459 132C105.919 133.89 105.459 135.72 104.969 137.5C104.749 138.35 104.529 139.2 104.319 140.04C103.169 144.64 102.239 148.85 101.509 152.55C100.293 158.374 99.3915 164.259 98.8086 170.18L57.8086 165.05C59.2286 158 60.3386 151.85 61.8886 145.21C62.7386 141.57 63.7186 137.79 64.9686 133.64C65.8486 130.64 66.8686 127.49 68.0886 124.05C72.1986 112.24 75.9986 108.97 75.9986 108.97C91.7386 106.38 112.539 113 112.539 113Z" fill="#FFC100"/>
<path d="M126.18 149.32L133.49 150.42C135.152 149.895 136.859 149.527 138.59 149.32C140.47 149.167 142.359 149.167 144.24 149.32C144.24 149.32 147.55 150.56 147.55 153.73C147.55 153.73 139.83 155.8 136.86 154.56L126.18 153.73V149.32Z" fill="#E4897B"/>
<path d="M78.8984 273.76L95.4984 274.86L97.9384 267.69L79.6484 266.83L78.8984 273.76Z" fill="#FFC100"/>
<path opacity="0.2" d="M78.8984 273.76L95.4984 274.86L97.9384 267.69L79.6484 266.83L78.8984 273.76Z" fill="white"/>
<path d="M123.559 273.76L140.159 274.86L142.599 267.69L124.309 266.83L123.559 273.76Z" fill="#FFC100"/>
<path opacity="0.2" d="M123.559 273.76L140.159 274.86L142.599 267.69L124.309 266.83L123.559 273.76Z" fill="white"/>
<path d="M57.6797 165.58L76.1697 168.01L76.7697 165.28L58.2497 162.59L57.6797 165.58Z" fill="black"/>
<path d="M78.3081 165.3L78.0781 168.01L95.1681 170.36V167.68L78.3081 165.3Z" fill="black"/>
<path d="M96.2266 167.83V170.36L98.7066 170.69V168.24L96.2266 167.83Z" fill="black"/>
<path opacity="0.2" d="M108.526 125C107.766 127.38 107.076 129.71 106.446 132C105.906 133.89 105.446 135.72 104.956 137.5C103.676 130.5 105.956 122.13 105.956 122.13L108.526 125Z" fill="black"/>
<path d="M111.298 115.36C114.638 116.03 116.367 139.23 117.107 142.3C117.757 144.98 133.488 150.42 133.488 150.42V154.19C133.488 154.19 116.087 153 111.997 151.32C107.907 149.64 105.438 126.73 105.438 126.73L111.298 115.36Z" fill="#E4897B"/>
<g opacity="0.2">
<path d="M112.539 113C111.052 117.16 109.719 121.16 108.539 125C107.779 127.38 107.089 129.71 106.459 132C105.919 133.89 105.459 135.72 104.969 137.5C104.749 138.35 104.529 139.2 104.319 140.04C103.169 144.64 102.239 148.85 101.509 152.55C100.293 158.374 99.3915 164.259 98.8086 170.18L57.8086 165.05C59.2286 158 60.3386 151.85 61.8886 145.21C62.7386 141.57 63.7186 137.79 64.9686 133.64C65.8486 130.64 66.8686 127.49 68.0886 124.05C72.1986 112.24 75.9986 108.97 75.9986 108.97C91.7386 106.38 112.539 113 112.539 113Z" fill="white"/>
</g>
<path d="M112.539 113C115.599 114 117.109 134 117.109 134L105.999 135.47L103.699 127.25C103.699 127.25 104.619 123.37 105.939 119.3C107.859 113.4 112.539 113 112.539 113Z" fill="#FFC100"/>
<path d="M40.8681 288.56C40.8681 287.863 40.6614 287.182 40.2742 286.603C39.887 286.024 39.3366 285.573 38.6929 285.307C38.0491 285.041 37.3408 284.972 36.6577 285.108C35.9746 285.245 35.3475 285.581 34.8556 286.075C34.3637 286.568 34.0292 287.196 33.8945 287.879C33.7599 288.563 33.831 289.271 34.0989 289.914C34.3669 290.557 34.8196 291.106 35.3998 291.492C35.98 291.877 36.6615 292.082 37.3581 292.08C37.8199 292.08 38.2772 291.989 38.7037 291.812C39.1302 291.635 39.5175 291.375 39.8436 291.048C40.1697 290.721 40.428 290.333 40.6038 289.906C40.7796 289.479 40.8694 289.022 40.8681 288.56Z" fill="#263238"/>
<path opacity="0.2" d="M40.8681 288.56C40.8681 287.863 40.6614 287.182 40.2742 286.603C39.887 286.024 39.3366 285.573 38.6929 285.307C38.0491 285.041 37.3408 284.972 36.6577 285.108C35.9746 285.245 35.3475 285.581 34.8556 286.075C34.3637 286.568 34.0292 287.196 33.8945 287.879C33.7599 288.563 33.831 289.271 34.0989 289.914C34.3669 290.557 34.8196 291.106 35.3998 291.492C35.98 291.877 36.6615 292.082 37.3581 292.08C37.8199 292.08 38.2772 291.989 38.7037 291.812C39.1302 291.635 39.5175 291.375 39.8436 291.048C40.1697 290.721 40.428 290.333 40.6038 289.906C40.7796 289.479 40.8694 289.022 40.8681 288.56Z" fill="white"/>
<path d="M125.478 288.56C125.478 287.864 125.271 287.183 124.884 286.604C124.498 286.026 123.948 285.574 123.305 285.308C122.661 285.042 121.954 284.972 121.271 285.108C120.588 285.243 119.961 285.579 119.468 286.071C118.976 286.563 118.641 287.191 118.505 287.873C118.369 288.556 118.439 289.264 118.705 289.907C118.972 290.55 119.423 291.1 120.002 291.487C120.581 291.874 121.261 292.08 121.958 292.08C122.42 292.081 122.878 291.991 123.306 291.815C123.734 291.638 124.122 291.379 124.449 291.052C124.777 290.725 125.036 290.336 125.212 289.909C125.389 289.481 125.479 289.023 125.478 288.56Z" fill="#263238"/>
<path opacity="0.2" d="M125.478 288.56C125.478 287.864 125.271 287.183 124.884 286.604C124.498 286.026 123.948 285.574 123.305 285.308C122.661 285.042 121.954 284.972 121.271 285.108C120.588 285.243 119.961 285.579 119.468 286.071C118.976 286.563 118.641 287.191 118.505 287.873C118.369 288.556 118.439 289.264 118.705 289.907C118.972 290.55 119.423 291.1 120.002 291.487C120.581 291.874 121.261 292.08 121.958 292.08C122.42 292.081 122.878 291.991 123.306 291.815C123.734 291.638 124.122 291.379 124.449 291.052C124.777 290.725 125.036 290.336 125.212 289.909C125.389 289.481 125.479 289.023 125.478 288.56Z" fill="white"/>
<path opacity="0.2" d="M39.1098 288.56C39.1098 288.211 39.0064 287.871 38.8125 287.581C38.6187 287.292 38.3432 287.066 38.021 286.933C37.6989 286.8 37.3445 286.766 37.0028 286.835C36.6611 286.903 36.3475 287.072 36.1018 287.319C35.8561 287.566 35.6892 287.881 35.6225 288.223C35.5557 288.565 35.592 288.919 35.7267 289.24C35.8615 289.562 36.0886 289.836 36.3793 290.028C36.6701 290.22 37.0113 290.322 37.3598 290.32C37.5905 290.32 37.8189 290.274 38.0319 290.186C38.2448 290.097 38.4382 289.967 38.6008 289.804C38.7635 289.64 38.8922 289.446 38.9795 289.233C39.0669 289.019 39.1112 288.791 39.1098 288.56Z" fill="white"/>
<path opacity="0.2" d="M121.959 290.32C122.931 290.32 123.719 289.532 123.719 288.56C123.719 287.588 122.931 286.8 121.959 286.8C120.987 286.8 120.199 287.588 120.199 288.56C120.199 289.532 120.987 290.32 121.959 290.32Z" fill="white"/>
<path d="M82.5681 273.14V235.33H76.7481V273.14C54.1081 273.72 40.3481 281.64 37.5881 283.37C37.4308 283.471 37.3016 283.61 37.2125 283.775C37.1233 283.939 37.0771 284.123 37.0781 284.31V287.45C37.0781 287.744 37.1951 288.027 37.4033 288.235C37.6114 288.443 37.8938 288.56 38.1881 288.56C38.39 288.566 38.5898 288.518 38.766 288.419C38.9422 288.32 39.0882 288.175 39.1881 288L40.5281 285.64C52.2584 281.9 64.4685 279.879 76.7781 279.64V285.86C76.7808 286.24 76.9337 286.604 77.2034 286.872C77.4732 287.14 77.838 287.29 78.2181 287.29H81.1581C81.5383 287.29 81.9031 287.14 82.1729 286.872C82.4426 286.604 82.5955 286.24 82.5981 285.86V279.64C94.9078 279.879 107.118 281.9 118.848 285.64L120.188 288C120.288 288.175 120.434 288.32 120.61 288.419C120.786 288.518 120.986 288.566 121.188 288.56C121.483 288.56 121.765 288.443 121.973 288.235C122.181 288.027 122.298 287.744 122.298 287.45V284.31C122.299 284.123 122.253 283.939 122.164 283.775C122.075 283.61 121.945 283.471 121.788 283.37C118.998 281.64 105.208 273.72 82.5681 273.14Z" fill="#263238"/>
<path opacity="0.2" d="M82.5681 273.14V235.33H76.7481V273.14C54.1081 273.72 40.3481 281.64 37.5881 283.37C37.4308 283.471 37.3016 283.61 37.2125 283.775C37.1233 283.939 37.0771 284.123 37.0781 284.31V287.45C37.0781 287.744 37.1951 288.027 37.4033 288.235C37.6114 288.443 37.8938 288.56 38.1881 288.56C38.39 288.566 38.5898 288.518 38.766 288.419C38.9422 288.32 39.0882 288.175 39.1881 288L40.5281 285.64C52.2584 281.9 64.4685 279.879 76.7781 279.64V285.86C76.7808 286.24 76.9337 286.604 77.2034 286.872C77.4732 287.14 77.838 287.29 78.2181 287.29H81.1581C81.5383 287.29 81.9031 287.14 82.1729 286.872C82.4426 286.604 82.5955 286.24 82.5981 285.86V279.64C94.9078 279.879 107.118 281.9 118.848 285.64L120.188 288C120.288 288.175 120.434 288.32 120.61 288.419C120.786 288.518 120.986 288.566 121.188 288.56C121.483 288.56 121.765 288.443 121.973 288.235C122.181 288.027 122.298 287.744 122.298 287.45V284.31C122.299 284.123 122.253 283.939 122.164 283.775C122.075 283.61 121.945 283.471 121.788 283.37C118.998 281.64 105.208 273.72 82.5681 273.14Z" fill="black"/>
<path d="M80.8 285.05H78.52C78.0947 285.05 77.75 285.395 77.75 285.82V291.31C77.75 291.735 78.0947 292.08 78.52 292.08H80.8C81.2253 292.08 81.57 291.735 81.57 291.31V285.82C81.57 285.395 81.2253 285.05 80.8 285.05Z" fill="#263238"/>
<path opacity="0.2" d="M80.8 285.05H78.52C78.0947 285.05 77.75 285.395 77.75 285.82V291.31C77.75 291.735 78.0947 292.08 78.52 292.08H80.8C81.2253 292.08 81.57 291.735 81.57 291.31V285.82C81.57 285.395 81.2253 285.05 80.8 285.05Z" fill="white"/>
<path d="M41.5489 198.11H117.779C119.877 198.11 121.889 198.943 123.372 200.427C124.856 201.91 125.689 203.922 125.689 206.02V210.8H33.6289V206C33.6342 203.904 34.4713 201.896 35.9563 200.416C37.4413 198.937 39.4528 198.107 41.5489 198.11Z" fill="#FFC100"/>
<path d="M66.457 166.69H117.137C117.758 166.67 118.375 166.795 118.94 167.056C119.504 167.316 120 167.704 120.388 168.189C120.776 168.674 121.046 169.243 121.176 169.851C121.306 170.459 121.293 171.088 121.137 171.69L111.997 210.81H109.907L117.627 176.49C117.761 175.893 117.759 175.274 117.62 174.678C117.481 174.083 117.209 173.526 116.824 173.051C116.439 172.576 115.951 172.194 115.398 171.934C114.844 171.674 114.239 171.543 113.627 171.55H67.497L66.457 166.69Z" fill="#263238"/>
<path d="M85.6375 212.18V245.26C85.6349 245.768 85.4318 246.255 85.0723 246.615C84.7128 246.974 84.2259 247.177 83.7175 247.18H75.6075C75.355 247.181 75.1048 247.133 74.8712 247.036C74.6377 246.94 74.4255 246.799 74.2469 246.621C74.0684 246.442 73.927 246.23 73.831 245.996C73.735 245.763 73.6862 245.512 73.6875 245.26V212.18H85.6375Z" fill="#263238"/>
<path opacity="0.2" d="M85.6475 212.18H73.6875V225.92H85.6475V212.18Z" fill="black"/>
<path d="M128.199 208.77V212.77C128.199 213.3 127.989 213.809 127.613 214.184C127.238 214.559 126.73 214.77 126.199 214.77H33.1992C32.6688 214.77 32.1601 214.559 31.785 214.184C31.4099 213.809 31.1992 213.3 31.1992 212.77V208.77C31.1992 208.24 31.4099 207.731 31.785 207.356C32.1601 206.981 32.6688 206.77 33.1992 206.77H126.199C126.73 206.77 127.238 206.981 127.613 207.356C127.989 207.731 128.199 208.24 128.199 208.77Z" fill="#263238"/>
<path d="M85.3989 210.81H31.1189C31.1189 210.81 13.8789 182.13 13.8789 134.74V117.33C13.8789 113.882 15.2486 110.576 17.6865 108.138C20.1245 105.7 23.4311 104.33 26.8789 104.33H49.8789C53.2614 104.313 56.516 105.621 58.9458 107.974C61.3757 110.328 62.7875 113.539 62.8789 116.92C63.4689 141.38 67.0689 194.26 85.3989 210.81Z" fill="#263238"/>
<path opacity="0.2" d="M73.4602 210.81H33.5802C32.8238 210.811 32.0815 210.605 31.4344 210.214C30.7872 209.822 30.26 209.261 29.9102 208.59C25.9902 201.02 13.9102 174.44 13.9102 134.74V117.33C13.9102 113.882 15.2798 110.576 17.7178 108.138C20.1557 105.7 23.4623 104.33 26.9102 104.33H46.8002C50.1781 104.328 53.424 105.641 55.8506 107.991C58.2771 110.341 59.6936 113.544 59.8002 116.92C60.4002 138.73 63.3302 183.26 77.0202 204.31C77.4596 204.942 77.714 205.684 77.755 206.453C77.7959 207.222 77.6217 207.987 77.2519 208.662C76.8821 209.337 76.3314 209.896 75.6616 210.275C74.9917 210.655 74.2294 210.84 73.4602 210.81Z" fill="white"/>
<path opacity="0.2" d="M128.2 208.77V212.77C128.2 213.3 127.989 213.809 127.614 214.184C127.239 214.559 126.73 214.77 126.2 214.77H84.4995C83.7763 214.767 83.0834 214.479 82.572 213.968C82.0606 213.456 81.7722 212.763 81.7695 212.04V209.51C81.7695 208.786 82.0571 208.092 82.5691 207.58C83.0811 207.068 83.7755 206.78 84.4995 206.78H126.19C126.452 206.779 126.713 206.829 126.956 206.928C127.199 207.028 127.42 207.174 127.607 207.359C127.793 207.544 127.942 207.763 128.043 208.005C128.145 208.248 128.198 208.507 128.2 208.77Z" fill="black"/>
</g>
<defs>
<clipPath id="clip0_588_636">
<rect width="388" height="301" fill="white"/>
</clipPath>
</defs>
</svg>
